solid OpenSCAD_Model
  facet normal 0 -1 0
    outer loop
      vertex -1.66667 -1.66667 -3.33334
      vertex 1.66666 -1.66667 -1.66666
      vertex -1.66667 -1.66667 -1.66666
    endloop
  endfacet
  facet normal 0 -1 -0
    outer loop
      vertex 1.66666 -1.66667 -1.66666
      vertex -1.66667 -1.66667 -3.33334
      vertex 1.66666 -1.66667 -3.33334
    endloop
  endfacet
  facet normal 0 -1 0
    outer loop
      vertex -1.66667 -1.66667 -1.66666
      vertex -1.66667 -1.66667 1.66667
      vertex -3.33334 -1.66667 1.66667
    endloop
  endfacet
  facet normal 0 -1 0
    outer loop
      vertex -1.66667 -1.66667 1.66667
      vertex -1.66667 -1.66667 -1.66666
      vertex 1.66666 -1.66667 1.66667
    endloop
  endfacet
  facet normal 0 -1 0
    outer loop
      vertex -1.66667 -1.66667 -1.66666
      vertex -3.33334 -1.66667 1.66667
      vertex -3.33334 -1.66667 -1.66666
    endloop
  endfacet
  facet normal 0 -1 0
    outer loop
      vertex 1.66666 -1.66667 -1.66666
      vertex 1.66666 -1.66667 1.66667
      vertex -1.66667 -1.66667 -1.66666
    endloop
  endfacet
  facet normal 0 -1 0
    outer loop
      vertex 1.66666 -1.66667 1.66667
      vertex 1.66666 -1.66667 -1.66666
      vertex 3.33334 -1.66667 1.66667
    endloop
  endfacet
  facet normal 0 -1 -0
    outer loop
      vertex 3.33334 -1.66667 1.66667
      vertex 1.66666 -1.66667 -1.66666
      vertex 3.33334 -1.66667 -1.66666
    endloop
  endfacet
  facet normal 0 -1 0
    outer loop
      vertex -1.66667 -1.66667 1.66667
      vertex 1.66666 -1.66667 3.33334
      vertex -1.66667 -1.66667 3.33334
    endloop
  endfacet
  facet normal 0 -1 -0
    outer loop
      vertex 1.66666 -1.66667 3.33334
      vertex -1.66667 -1.66667 1.66667
      vertex 1.66666 -1.66667 1.66667
    endloop
  endfacet
  facet normal -0.894427 -0.447215 -0
    outer loop
      vertex 3.33333 -5 -3.33333
      vertex 1.66666 -1.66667 -3.33334
      vertex 3.33333 -5 -5
    endloop
  endfacet
  facet normal -0.894427 -0.447215 0
    outer loop
      vertex 1.66666 -1.66667 -3.33334
      vertex 3.33333 -5 -3.33333
      vertex 1.66666 -1.66667 -1.66666
    endloop
  endfacet
  facet normal -0.894427 -0.447215 0
    outer loop
      vertex 3.33333 -5 3.33334
      vertex 1.66666 -1.66667 3.33334
      vertex 1.66666 -1.66667 1.66667
    endloop
  endfacet
  facet normal -0.894427 -0.447215 0
    outer loop
      vertex 1.66666 -1.66667 3.33334
      vertex 3.33333 -5 3.33334
      vertex 3.33333 -5 5
    endloop
  endfacet
  facet normal 0 -1 0
    outer loop
      vertex 3.33333 -5 -5
      vertex 5 -5 -3.33333
      vertex 3.33333 -5 -3.33333
    endloop
  endfacet
  facet normal 0 -1 -0
    outer loop
      vertex 5 -5 -3.33333
      vertex 3.33333 -5 -5
      vertex 5 -5 -5
    endloop
  endfacet
  facet normal 0 -1 0
    outer loop
      vertex 3.33333 -5 3.33334
      vertex 5 -5 5
      vertex 3.33333 -5 5
    endloop
  endfacet
  facet normal 0 -1 -0
    outer loop
      vertex 5 -5 5
      vertex 3.33333 -5 3.33334
      vertex 5 -5 3.33334
    endloop
  endfacet
  facet normal 0 -1 0
    outer loop
      vertex -5 -5 -5
      vertex -3.33334 -5 -3.33333
      vertex -5 -5 -3.33333
    endloop
  endfacet
  facet normal 0 -1 -0
    outer loop
      vertex -3.33334 -5 -3.33333
      vertex -5 -5 -5
      vertex -3.33334 -5 -5
    endloop
  endfacet
  facet normal 0 -1 0
    outer loop
      vertex -5 -5 3.33334
      vertex -3.33334 -5 5
      vertex -5 -5 5
    endloop
  endfacet
  facet normal 0 -1 -0
    outer loop
      vertex -3.33334 -5 5
      vertex -5 -5 3.33334
      vertex -3.33334 -5 3.33334
    endloop
  endfacet
  facet normal 0.894423 0.447221 2.54632e-05
    outer loop
      vertex 0 5 0
      vertex 2.08333 0.833333 1.66667
      vertex 1.36165 2.27671 0.833334
    endloop
  endfacet
  facet normal 0.894425 0.447218 0
    outer loop
      vertex 2.80502 -0.610043 0.833334
      vertex 3.33334 -1.66667 1.66667
      vertex 2.80502 -0.610043 -0.833333
    endloop
  endfacet
  facet normal 0.894426 0.447216 -3.12061e-06
    outer loop
      vertex 2.08333 0.833333 1.66667
      vertex 3.33334 -1.66667 1.66667
      vertex 2.80502 -0.610043 0.833334
    endloop
  endfacet
  facet normal 0.894429 0.447211 -7.51326e-06
    outer loop
      vertex 5 -5 5
      vertex 2.08333 0.833333 1.66667
      vertex 0 5 0
    endloop
  endfacet
  facet normal 0.894426 0.447216 4.38268e-06
    outer loop
      vertex 5 -5 5
      vertex 3.33334 -1.66667 1.66667
      vertex 2.08333 0.833333 1.66667
    endloop
  endfacet
  facet normal 0.894428 0.447213 0
    outer loop
      vertex 3.33334 -1.66667 1.66667
      vertex 5 -5 5
      vertex 5 -5 3.33334
    endloop
  endfacet
  facet normal 0.894427 0.447215 -0
    outer loop
      vertex 1.36165 2.27671 -0.833333
      vertex 0 5 0
      vertex 1.36165 2.27671 0.833334
    endloop
  endfacet
  facet normal 0.894423 0.447221 -2.54631e-05
    outer loop
      vertex 2.08333 0.833333 -1.66667
      vertex 0 5 0
      vertex 1.36165 2.27671 -0.833333
    endloop
  endfacet
  facet normal 0.894425 0.447218 -0
    outer loop
      vertex 3.33334 -1.66667 -1.66666
      vertex 2.80502 -0.610043 -0.833333
      vertex 3.33334 -1.66667 1.66667
    endloop
  endfacet
  facet normal 0.894426 0.447216 3.12063e-06
    outer loop
      vertex 3.33334 -1.66667 -1.66666
      vertex 2.08333 0.833333 -1.66667
      vertex 2.80502 -0.610043 -0.833333
    endloop
  endfacet
  facet normal 0.894428 0.447213 -0
    outer loop
      vertex 5 -5 -5
      vertex 3.33334 -1.66667 -1.66666
      vertex 5 -5 -3.33333
    endloop
  endfacet
  facet normal 0.894429 0.447211 7.51326e-06
    outer loop
      vertex 2.08333 0.833333 -1.66667
      vertex 5 -5 -5
      vertex 0 5 0
    endloop
  endfacet
  facet normal 0.894426 0.447216 -4.38265e-06
    outer loop
      vertex 3.33334 -1.66667 -1.66666
      vertex 5 -5 -5
      vertex 2.08333 0.833333 -1.66667
    endloop
  endfacet
  facet normal -0.894423 0.447221 -2.54631e-05
    outer loop
      vertex 0 5 0
      vertex -2.08333 0.833333 -1.66667
      vertex -1.36165 2.27671 -0.833333
    endloop
  endfacet
  facet normal -0.894425 0.447218 0
    outer loop
      vertex -2.80502 -0.610043 -0.833333
      vertex -3.33334 -1.66667 -1.66666
      vertex -2.80502 -0.610043 0.833334
    endloop
  endfacet
  facet normal -0.894426 0.447216 3.12063e-06
    outer loop
      vertex -2.08333 0.833333 -1.66667
      vertex -3.33334 -1.66667 -1.66666
      vertex -2.80502 -0.610043 -0.833333
    endloop
  endfacet
  facet normal -0.894429 0.447211 7.51326e-06
    outer loop
      vertex -5 -5 -5
      vertex -2.08333 0.833333 -1.66667
      vertex 0 5 0
    endloop
  endfacet
  facet normal -0.894426 0.447216 -4.38265e-06
    outer loop
      vertex -5 -5 -5
      vertex -3.33334 -1.66667 -1.66666
      vertex -2.08333 0.833333 -1.66667
    endloop
  endfacet
  facet normal -0.894428 0.447213 0
    outer loop
      vertex -3.33334 -1.66667 -1.66666
      vertex -5 -5 -5
      vertex -5 -5 -3.33333
    endloop
  endfacet
  facet normal -0.894427 0.447215 0
    outer loop
      vertex -1.36165 2.27671 0.833334
      vertex 0 5 0
      vertex -1.36165 2.27671 -0.833333
    endloop
  endfacet
  facet normal -0.894423 0.447221 2.54632e-05
    outer loop
      vertex -2.08333 0.833333 1.66667
      vertex 0 5 0
      vertex -1.36165 2.27671 0.833334
    endloop
  endfacet
  facet normal -0.894425 0.447218 0
    outer loop
      vertex -3.33334 -1.66667 1.66667
      vertex -2.80502 -0.610043 0.833334
      vertex -3.33334 -1.66667 -1.66666
    endloop
  endfacet
  facet normal -0.894426 0.447216 -3.12061e-06
    outer loop
      vertex -3.33334 -1.66667 1.66667
      vertex -2.08333 0.833333 1.66667
      vertex -2.80502 -0.610043 0.833334
    endloop
  endfacet
  facet normal -0.894428 0.447213 0
    outer loop
      vertex -5 -5 5
      vertex -3.33334 -1.66667 1.66667
      vertex -5 -5 3.33334
    endloop
  endfacet
  facet normal -0.894429 0.447211 -7.51326e-06
    outer loop
      vertex -2.08333 0.833333 1.66667
      vertex -5 -5 5
      vertex 0 5 0
    endloop
  endfacet
  facet normal -0.894426 0.447216 4.38268e-06
    outer loop
      vertex -3.33334 -1.66667 1.66667
      vertex -5 -5 5
      vertex -2.08333 0.833333 1.66667
    endloop
  endfacet
  facet normal 0.894427 -0.447215 0
    outer loop
      vertex -3.33334 -5 -3.33333
      vertex -1.66667 -1.66667 -3.33334
      vertex -1.66667 -1.66667 -1.66666
    endloop
  endfacet
  facet normal 0.894427 -0.447215 0
    outer loop
      vertex -1.66667 -1.66667 -3.33334
      vertex -3.33334 -5 -3.33333
      vertex -3.33334 -5 -5
    endloop
  endfacet
  facet normal 0.894427 -0.447215 0
    outer loop
      vertex -3.33334 -5 3.33334
      vertex -1.66667 -1.66667 3.33334
      vertex -3.33334 -5 5
    endloop
  endfacet
  facet normal 0.894427 -0.447215 0
    outer loop
      vertex -1.66667 -1.66667 3.33334
      vertex -3.33334 -5 3.33334
      vertex -1.66667 -1.66667 1.66667
    endloop
  endfacet
  facet normal -0.866025 0.500002 0
    outer loop
      vertex 0.833333 -0.610043 -2.80502
      vertex 1.66667 0.833333 -1.66667
      vertex 1.66667 0.833333 -2.08333
    endloop
  endfacet
  facet normal -0.866025 0.500002 0
    outer loop
      vertex 1.66667 0.833333 -1.66667
      vertex 0.833333 -0.610043 -2.80502
      vertex 0.833333 -0.610043 -0.833333
    endloop
  endfacet
  facet normal -0.866025 0.500002 0
    outer loop
      vertex 0.833333 -0.610043 2.80502
      vertex 1.66667 0.833333 1.66667
      vertex 0.833333 -0.610043 0.833334
    endloop
  endfacet
  facet normal -0.866025 0.500002 0
    outer loop
      vertex 1.66667 0.833333 1.66667
      vertex 0.833333 -0.610043 2.80502
      vertex 1.66667 0.833333 2.08333
    endloop
  endfacet
  facet normal 0.866025 0.500001 -0
    outer loop
      vertex -0.833334 -0.610043 -2.80502
      vertex -1.66667 0.833333 -1.66667
      vertex -0.833334 -0.610043 -0.833333
    endloop
  endfacet
  facet normal 0.866025 0.500001 0
    outer loop
      vertex -1.66667 0.833333 -1.66667
      vertex -0.833334 -0.610043 -2.80502
      vertex -1.66667 0.833333 -2.08333
    endloop
  endfacet
  facet normal 0.866025 0.500001 0
    outer loop
      vertex -0.833334 -0.610043 2.80502
      vertex -1.66667 0.833333 1.66667
      vertex -1.66667 0.833333 2.08333
    endloop
  endfacet
  facet normal 0.866025 0.500001 0
    outer loop
      vertex -1.66667 0.833333 1.66667
      vertex -0.833334 -0.610043 2.80502
      vertex -0.833334 -0.610043 0.833334
    endloop
  endfacet
  facet normal 0 1 -0
    outer loop
      vertex 0.833333 -0.610043 -2.80502
      vertex -0.833334 -0.610043 -0.833333
      vertex 0.833333 -0.610043 -0.833333
    endloop
  endfacet
  facet normal 0 1 0
    outer loop
      vertex -0.833334 -0.610043 -0.833333
      vertex 0.833333 -0.610043 -2.80502
      vertex -0.833334 -0.610043 -2.80502
    endloop
  endfacet
  facet normal 0 1 0
    outer loop
      vertex 0.833333 -0.610043 -0.833333
      vertex 0.833333 -0.610043 0.833334
      vertex 2.80502 -0.610043 0.833334
    endloop
  endfacet
  facet normal 0 1 0
    outer loop
      vertex 0.833333 -0.610043 0.833334
      vertex 0.833333 -0.610043 -0.833333
      vertex -0.833334 -0.610043 0.833334
    endloop
  endfacet
  facet normal 0 1 0
    outer loop
      vertex 0.833333 -0.610043 -0.833333
      vertex 2.80502 -0.610043 0.833334
      vertex 2.80502 -0.610043 -0.833333
    endloop
  endfacet
  facet normal 0 1 0
    outer loop
      vertex -0.833334 -0.610043 -0.833333
      vertex -0.833334 -0.610043 0.833334
      vertex 0.833333 -0.610043 -0.833333
    endloop
  endfacet
  facet normal 0 1 0
    outer loop
      vertex -0.833334 -0.610043 0.833334
      vertex -0.833334 -0.610043 -0.833333
      vertex -2.80502 -0.610043 0.833334
    endloop
  endfacet
  facet normal 0 1 0
    outer loop
      vertex -2.80502 -0.610043 0.833334
      vertex -0.833334 -0.610043 -0.833333
      vertex -2.80502 -0.610043 -0.833333
    endloop
  endfacet
  facet normal 0 1 -0
    outer loop
      vertex 0.833333 -0.610043 0.833334
      vertex -0.833334 -0.610043 2.80502
      vertex 0.833333 -0.610043 2.80502
    endloop
  endfacet
  facet normal 0 1 0
    outer loop
      vertex -0.833334 -0.610043 2.80502
      vertex 0.833333 -0.610043 0.833334
      vertex -0.833334 -0.610043 0.833334
    endloop
  endfacet
  facet normal 0.866025 -0.500001 0
    outer loop
      vertex -1.66667 0.833333 -1.66667
      vertex -0.833334 2.27671 -1.36165
      vertex -0.833334 2.27671 -0.833333
    endloop
  endfacet
  facet normal 0.866025 -0.500001 0
    outer loop
      vertex -0.833334 2.27671 -1.36165
      vertex -1.66667 0.833333 -1.66667
      vertex -1.66667 0.833333 -2.08333
    endloop
  endfacet
  facet normal 0.866025 -0.500001 0
    outer loop
      vertex -1.66667 0.833333 1.66667
      vertex -0.833334 2.27671 1.36165
      vertex -1.66667 0.833333 2.08333
    endloop
  endfacet
  facet normal 0.866025 -0.500001 0
    outer loop
      vertex -0.833334 2.27671 1.36165
      vertex -1.66667 0.833333 1.66667
      vertex -0.833334 2.27671 0.833334
    endloop
  endfacet
  facet normal 0 -1 0
    outer loop
      vertex -0.833334 2.27671 -1.36165
      vertex 0.833333 2.27671 -0.833333
      vertex -0.833334 2.27671 -0.833333
    endloop
  endfacet
  facet normal 0 -1 -0
    outer loop
      vertex 0.833333 2.27671 -0.833333
      vertex -0.833334 2.27671 -1.36165
      vertex 0.833333 2.27671 -1.36165
    endloop
  endfacet
  facet normal 0 -1 0
    outer loop
      vertex -0.833334 2.27671 -0.833333
      vertex -0.833334 2.27671 0.833334
      vertex -1.36165 2.27671 0.833334
    endloop
  endfacet
  facet normal 0 -1 0
    outer loop
      vertex -0.833334 2.27671 0.833334
      vertex -0.833334 2.27671 -0.833333
      vertex 0.833333 2.27671 0.833334
    endloop
  endfacet
  facet normal 0 -1 0
    outer loop
      vertex -0.833334 2.27671 -0.833333
      vertex -1.36165 2.27671 0.833334
      vertex -1.36165 2.27671 -0.833333
    endloop
  endfacet
  facet normal 0 -1 0
    outer loop
      vertex 0.833333 2.27671 -0.833333
      vertex 0.833333 2.27671 0.833334
      vertex -0.833334 2.27671 -0.833333
    endloop
  endfacet
  facet normal 0 -1 0
    outer loop
      vertex 0.833333 2.27671 0.833334
      vertex 0.833333 2.27671 -0.833333
      vertex 1.36165 2.27671 0.833334
    endloop
  endfacet
  facet normal 0 -1 -0
    outer loop
      vertex 1.36165 2.27671 0.833334
      vertex 0.833333 2.27671 -0.833333
      vertex 1.36165 2.27671 -0.833333
    endloop
  endfacet
  facet normal 0 -1 0
    outer loop
      vertex -0.833334 2.27671 0.833334
      vertex 0.833333 2.27671 1.36165
      vertex -0.833334 2.27671 1.36165
    endloop
  endfacet
  facet normal 0 -1 -0
    outer loop
      vertex 0.833333 2.27671 1.36165
      vertex -0.833334 2.27671 0.833334
      vertex 0.833333 2.27671 0.833334
    endloop
  endfacet
  facet normal -0.866025 -0.500001 -0
    outer loop
      vertex 1.66667 0.833333 -1.66667
      vertex 0.833333 2.27671 -1.36165
      vertex 1.66667 0.833333 -2.08333
    endloop
  endfacet
  facet normal -0.866025 -0.500001 0
    outer loop
      vertex 0.833333 2.27671 -1.36165
      vertex 1.66667 0.833333 -1.66667
      vertex 0.833333 2.27671 -0.833333
    endloop
  endfacet
  facet normal -0.866025 -0.500001 0
    outer loop
      vertex 1.66667 0.833333 1.66667
      vertex 0.833333 2.27671 1.36165
      vertex 0.833333 2.27671 0.833334
    endloop
  endfacet
  facet normal -0.866025 -0.500001 0
    outer loop
      vertex 0.833333 2.27671 1.36165
      vertex 1.66667 0.833333 1.66667
      vertex 1.66667 0.833333 2.08333
    endloop
  endfacet
  facet normal 0 -0.447215 0.894427
    outer loop
      vertex -3.33334 -1.66667 -1.66666
      vertex -3.33334 -5 -3.33333
      vertex -1.66667 -1.66667 -1.66666
    endloop
  endfacet
  facet normal 0 -0.447215 0.894427
    outer loop
      vertex -3.33334 -5 -3.33333
      vertex -3.33334 -1.66667 -1.66666
      vertex -5 -5 -3.33333
    endloop
  endfacet
  facet normal 0 -0.447215 0.894427
    outer loop
      vertex 3.33334 -1.66667 -1.66666
      vertex 3.33333 -5 -3.33333
      vertex 5 -5 -3.33333
    endloop
  endfacet
  facet normal 0 -0.447215 0.894427
    outer loop
      vertex 3.33333 -5 -3.33333
      vertex 3.33334 -1.66667 -1.66666
      vertex 1.66666 -1.66667 -1.66666
    endloop
  endfacet
  facet normal 4.38265e-06 0.447216 -0.894426
    outer loop
      vertex 5 -5 -5
      vertex 1.66666 -1.66667 -3.33334
      vertex 1.66667 0.833333 -2.08333
    endloop
  endfacet
  facet normal -3.12063e-06 0.447216 -0.894426
    outer loop
      vertex 1.66666 -1.66667 -3.33334
      vertex 0.833333 -0.610043 -2.80502
      vertex 1.66667 0.833333 -2.08333
    endloop
  endfacet
  facet normal 0 0.447218 -0.894425
    outer loop
      vertex 1.66666 -1.66667 -3.33334
      vertex -0.833334 -0.610043 -2.80502
      vertex 0.833333 -0.610043 -2.80502
    endloop
  endfacet
  facet normal 3.12061e-06 0.447216 -0.894426
    outer loop
      vertex -0.833334 -0.610043 -2.80502
      vertex -1.66667 -1.66667 -3.33334
      vertex -1.66667 0.833333 -2.08333
    endloop
  endfacet
  facet normal 0 0.447218 -0.894425
    outer loop
      vertex -1.66667 -1.66667 -3.33334
      vertex -0.833334 -0.610043 -2.80502
      vertex 1.66666 -1.66667 -3.33334
    endloop
  endfacet
  facet normal 0 0.447213 -0.894428
    outer loop
      vertex 1.66666 -1.66667 -3.33334
      vertex 5 -5 -5
      vertex 3.33333 -5 -5
    endloop
  endfacet
  facet normal -7.51326e-06 0.447211 -0.894429
    outer loop
      vertex 1.66667 0.833333 -2.08333
      vertex 0 5 0
      vertex 5 -5 -5
    endloop
  endfacet
  facet normal 2.54631e-05 0.447221 -0.894423
    outer loop
      vertex 0.833333 2.27671 -1.36165
      vertex 0 5 0
      vertex 1.66667 0.833333 -2.08333
    endloop
  endfacet
  facet normal 0 0.447215 -0.894427
    outer loop
      vertex -0.833334 2.27671 -1.36165
      vertex 0 5 0
      vertex 0.833333 2.27671 -1.36165
    endloop
  endfacet
  facet normal -2.54632e-05 0.447221 -0.894423
    outer loop
      vertex -1.66667 0.833333 -2.08333
      vertex 0 5 0
      vertex -0.833334 2.27671 -1.36165
    endloop
  endfacet
  facet normal 0 0.447213 -0.894428
    outer loop
      vertex -5 -5 -5
      vertex -1.66667 -1.66667 -3.33334
      vertex -3.33334 -5 -5
    endloop
  endfacet
  facet normal 7.51326e-06 0.447211 -0.894429
    outer loop
      vertex -1.66667 0.833333 -2.08333
      vertex -5 -5 -5
      vertex 0 5 0
    endloop
  endfacet
  facet normal -4.38268e-06 0.447216 -0.894426
    outer loop
      vertex -1.66667 -1.66667 -3.33334
      vertex -5 -5 -5
      vertex -1.66667 0.833333 -2.08333
    endloop
  endfacet
  facet normal 4.38265e-06 0.447216 0.894426
    outer loop
      vertex 1.66666 -1.66667 3.33334
      vertex 5 -5 5
      vertex 1.66667 0.833333 2.08333
    endloop
  endfacet
  facet normal -7.51326e-06 0.447211 0.894429
    outer loop
      vertex 0 5 0
      vertex 1.66667 0.833333 2.08333
      vertex 5 -5 5
    endloop
  endfacet
  facet normal 2.54631e-05 0.447221 0.894423
    outer loop
      vertex 0 5 0
      vertex 0.833333 2.27671 1.36165
      vertex 1.66667 0.833333 2.08333
    endloop
  endfacet
  facet normal 0 0.447215 0.894427
    outer loop
      vertex 0 5 0
      vertex -0.833334 2.27671 1.36165
      vertex 0.833333 2.27671 1.36165
    endloop
  endfacet
  facet normal -2.54632e-05 0.447221 0.894423
    outer loop
      vertex 0 5 0
      vertex -1.66667 0.833333 2.08333
      vertex -0.833334 2.27671 1.36165
    endloop
  endfacet
  facet normal -4.38268e-06 0.447216 0.894426
    outer loop
      vertex -5 -5 5
      vertex -1.66667 -1.66667 3.33334
      vertex -1.66667 0.833333 2.08333
    endloop
  endfacet
  facet normal 0 0.447213 0.894428
    outer loop
      vertex -1.66667 -1.66667 3.33334
      vertex -5 -5 5
      vertex -3.33334 -5 5
    endloop
  endfacet
  facet normal 7.51326e-06 0.447211 0.894429
    outer loop
      vertex -5 -5 5
      vertex -1.66667 0.833333 2.08333
      vertex 0 5 0
    endloop
  endfacet
  facet normal 0 0.447213 0.894428
    outer loop
      vertex 5 -5 5
      vertex 1.66666 -1.66667 3.33334
      vertex 3.33333 -5 5
    endloop
  endfacet
  facet normal -3.12063e-06 0.447216 0.894426
    outer loop
      vertex 0.833333 -0.610043 2.80502
      vertex 1.66666 -1.66667 3.33334
      vertex 1.66667 0.833333 2.08333
    endloop
  endfacet
  facet normal -0 0.447218 0.894425
    outer loop
      vertex -0.833334 -0.610043 2.80502
      vertex 1.66666 -1.66667 3.33334
      vertex 0.833333 -0.610043 2.80502
    endloop
  endfacet
  facet normal 0 0.447218 0.894425
    outer loop
      vertex -0.833334 -0.610043 2.80502
      vertex -1.66667 -1.66667 3.33334
      vertex 1.66666 -1.66667 3.33334
    endloop
  endfacet
  facet normal 3.12061e-06 0.447216 0.894426
    outer loop
      vertex -1.66667 -1.66667 3.33334
      vertex -0.833334 -0.610043 2.80502
      vertex -1.66667 0.833333 2.08333
    endloop
  endfacet
  facet normal 0 -0.447215 -0.894427
    outer loop
      vertex -3.33334 -5 3.33334
      vertex -3.33334 -1.66667 1.66667
      vertex -1.66667 -1.66667 1.66667
    endloop
  endfacet
  facet normal 0 -0.447215 -0.894427
    outer loop
      vertex -3.33334 -1.66667 1.66667
      vertex -3.33334 -5 3.33334
      vertex -5 -5 3.33334
    endloop
  endfacet
  facet normal 0 -0.447215 -0.894427
    outer loop
      vertex 3.33333 -5 3.33334
      vertex 3.33334 -1.66667 1.66667
      vertex 5 -5 3.33334
    endloop
  endfacet
  facet normal -0 -0.447215 -0.894427
    outer loop
      vertex 3.33334 -1.66667 1.66667
      vertex 3.33333 -5 3.33334
      vertex 1.66666 -1.66667 1.66667
    endloop
  endfacet
  facet normal 0 0.500002 0.866025
    outer loop
      vertex -2.80502 -0.610043 -0.833333
      vertex -1.66667 0.833333 -1.66667
      vertex -2.08333 0.833333 -1.66667
    endloop
  endfacet
  facet normal 0 0.500002 0.866025
    outer loop
      vertex -1.66667 0.833333 -1.66667
      vertex -2.80502 -0.610043 -0.833333
      vertex -0.833334 -0.610043 -0.833333
    endloop
  endfacet
  facet normal -0 0.500002 0.866025
    outer loop
      vertex 1.66667 0.833333 -1.66667
      vertex 2.80502 -0.610043 -0.833333
      vertex 2.08333 0.833333 -1.66667
    endloop
  endfacet
  facet normal 0 0.500002 0.866025
    outer loop
      vertex 2.80502 -0.610043 -0.833333
      vertex 1.66667 0.833333 -1.66667
      vertex 0.833333 -0.610043 -0.833333
    endloop
  endfacet
  facet normal 0 0.500001 -0.866025
    outer loop
      vertex -2.80502 -0.610043 0.833334
      vertex -1.66667 0.833333 1.66667
      vertex -0.833334 -0.610043 0.833334
    endloop
  endfacet
  facet normal 0 0.500001 -0.866025
    outer loop
      vertex -1.66667 0.833333 1.66667
      vertex -2.80502 -0.610043 0.833334
      vertex -2.08333 0.833333 1.66667
    endloop
  endfacet
  facet normal 0 0.500001 -0.866025
    outer loop
      vertex 2.80502 -0.610043 0.833334
      vertex 1.66667 0.833333 1.66667
      vertex 2.08333 0.833333 1.66667
    endloop
  endfacet
  facet normal 0 0.500001 -0.866025
    outer loop
      vertex 1.66667 0.833333 1.66667
      vertex 2.80502 -0.610043 0.833334
      vertex 0.833333 -0.610043 0.833334
    endloop
  endfacet
  facet normal 0 -0.500001 -0.866025
    outer loop
      vertex -1.66667 0.833333 1.66667
      vertex -1.36165 2.27671 0.833334
      vertex -0.833334 2.27671 0.833334
    endloop
  endfacet
  facet normal 0 -0.500001 -0.866025
    outer loop
      vertex -1.36165 2.27671 0.833334
      vertex -1.66667 0.833333 1.66667
      vertex -2.08333 0.833333 1.66667
    endloop
  endfacet
  facet normal 0 -0.500001 -0.866025
    outer loop
      vertex 1.66667 0.833333 1.66667
      vertex 1.36165 2.27671 0.833334
      vertex 2.08333 0.833333 1.66667
    endloop
  endfacet
  facet normal -0 -0.500001 -0.866025
    outer loop
      vertex 1.36165 2.27671 0.833334
      vertex 1.66667 0.833333 1.66667
      vertex 0.833333 2.27671 0.833334
    endloop
  endfacet
  facet normal 0 -0.500001 0.866025
    outer loop
      vertex -1.36165 2.27671 -0.833333
      vertex -1.66667 0.833333 -1.66667
      vertex -0.833334 2.27671 -0.833333
    endloop
  endfacet
  facet normal 0 -0.500001 0.866025
    outer loop
      vertex -1.66667 0.833333 -1.66667
      vertex -1.36165 2.27671 -0.833333
      vertex -2.08333 0.833333 -1.66667
    endloop
  endfacet
  facet normal 0 -0.500001 0.866025
    outer loop
      vertex 1.36165 2.27671 -0.833333
      vertex 1.66667 0.833333 -1.66667
      vertex 2.08333 0.833333 -1.66667
    endloop
  endfacet
  facet normal 0 -0.500001 0.866025
    outer loop
      vertex 1.66667 0.833333 -1.66667
      vertex 1.36165 2.27671 -0.833333
      vertex 0.833333 2.27671 -0.833333
    endloop
  endfacet
endsolid OpenSCAD_Model
