solid OpenSCAD_Model
  facet normal 0 1 0
    outer loop
      vertex 8.53079 0 2.6922
      vertex 7.22198 0 2.7939
      vertex 8.49222 0 3.14969
    endloop
  endfacet
  facet normal 0 1 0
    outer loop
      vertex 6.62865 0 4.06027
      vertex 6.69437 0 4.93991
      vertex 7.16606 0 4.77989
    endloop
  endfacet
  facet normal 0 1 -0
    outer loop
      vertex 8.47273 0 2.09013
      vertex 7.18808 0 2.38362
      vertex 8.53079 0 2.6922
    endloop
  endfacet
  facet normal 0 1 0
    outer loop
      vertex 5.88695 0 4.37686
      vertex 6.15739 0 5.0385
      vertex 6.69437 0 4.93991
    endloop
  endfacet
  facet normal -0 1 0
    outer loop
      vertex 6.62865 0 4.06027
      vertex 7.57251 0 4.55841
      vertex 7.07365 0 3.53261
    endloop
  endfacet
  facet normal 0 1 0
    outer loop
      vertex 7.07365 0 3.53261
      vertex 7.57251 0 4.55841
      vertex 7.9137 0 4.2755
    endloop
  endfacet
  facet normal 0 1 0
    outer loop
      vertex 7.57251 0 4.55841
      vertex 6.62865 0 4.06027
      vertex 7.16606 0 4.77989
    endloop
  endfacet
  facet normal 0 1 0
    outer loop
      vertex 8.18367 0 3.94133
      vertex 7.07365 0 3.53261
      vertex 7.9137 0 4.2755
    endloop
  endfacet
  facet normal 0 1 -0
    outer loop
      vertex 7.22198 0 2.7939
      vertex 7.07365 0 3.53261
      vertex 8.37651 0 3.56607
    endloop
  endfacet
  facet normal 0 1 0
    outer loop
      vertex 8.49222 0 3.14969
      vertex 7.22198 0 2.7939
      vertex 8.37651 0 3.56607
    endloop
  endfacet
  facet normal 0 1 -0
    outer loop
      vertex 5.88695 0 4.37686
      vertex 5.51741 0 5.59027
      vertex 6.15739 0 5.0385
    endloop
  endfacet
  facet normal 0 1 0
    outer loop
      vertex 7.08636 0 2.02759
      vertex 8.29854 0 1.55884
      vertex 8.00822 0 1.09833
    endloop
  endfacet
  facet normal 0 1 -0
    outer loop
      vertex 7.60179 0 0.708588
      vertex 6.91684 0 1.72581
      vertex 8.00822 0 1.09833
    endloop
  endfacet
  facet normal 0 1 0
    outer loop
      vertex 6.36798 0 1.28545
      vertex 7.09193 0 0.398575
      vertex 6.49136 0 0.177139
    endloop
  endfacet
  facet normal -0 1 0
    outer loop
      vertex 4.6113 0 8.51729
      vertex 4.6113 0 9.55479
      vertex 5.08342 0 8.49652
    endloop
  endfacet
  facet normal 0 1 -0
    outer loop
      vertex 6.67279 0 7.07959
      vertex 6.63972 0 7.4386
      vertex 7.97479 0 7.2356
    endloop
  endfacet
  facet normal 0 1 0
    outer loop
      vertex 6.64079 0 6.70219
      vertex 7.85612 0 6.45572
      vertex 7.70778 0 6.11665
    endloop
  endfacet
  facet normal -0 1 0
    outer loop
      vertex 6.63972 0 7.4386
      vertex 7.76457 0 8.25024
      vertex 7.97479 0 7.2356
    endloop
  endfacet
  facet normal -0 1 0
    outer loop
      vertex 6.5448 0 6.37692
      vertex 6.64079 0 6.70219
      vertex 7.70778 0 6.11665
    endloop
  endfacet
  facet normal 0 1 0
    outer loop
      vertex 7.76457 0 8.25024
      vertex 6.54054 0 7.74249
      vertex 6.37523 0 7.99129
    endloop
  endfacet
  facet normal 0 1 0
    outer loop
      vertex 6.08282 0 9.40984
      vertex 5.08342 0 8.49652
      vertex 4.6113 0 9.55479
    endloop
  endfacet
  facet normal 0 1 0
    outer loop
      vertex 6.08282 0 9.40984
      vertex 5.49622 0 8.43422
      vertex 5.08342 0 8.49652
    endloop
  endfacet
  facet normal 0 1 0
    outer loop
      vertex 6.1438 0 8.185
      vertex 5.84967 0 8.33037
      vertex 6.08282 0 9.40984
    endloop
  endfacet
  facet normal 0 1 -0
    outer loop
      vertex 2.43449 0 5.4928
      vertex 1.1393 0 9.55479
      vertex 2.43449 0 8.51729
    endloop
  endfacet
  facet normal 0 1 0
    outer loop
      vertex 1.1393 0 9.55479
      vertex 2.43449 0 5.4928
      vertex 2.43449 0 4.48239
    endloop
  endfacet
  facet normal 0 1 0
    outer loop
      vertex 5.80008 0 0.044281
      vertex 5.0181 0 0
      vertex 5.50339 0 1.06505
    endloop
  endfacet
  facet normal 0 1 0
    outer loop
      vertex 5.0181 0 0
      vertex 2.43449 0 1.03749
      vertex 4.95029 0 1.03749
    endloop
  endfacet
  facet normal 0 1 0
    outer loop
      vertex 2.43449 0 4.48239
      vertex 1.1393 0 0
      vertex 1.1393 0 9.55479
    endloop
  endfacet
  facet normal 0 1 -0
    outer loop
      vertex 2.43449 0 8.51729
      vertex 1.1393 0 9.55479
      vertex 4.6113 0 9.55479
    endloop
  endfacet
  facet normal 0 1 -0
    outer loop
      vertex 4.6113 0 8.51729
      vertex 2.43449 0 8.51729
      vertex 4.6113 0 9.55479
    endloop
  endfacet
  facet normal 0 1 0
    outer loop
      vertex 6.08282 0 9.40984
      vertex 5.84967 0 8.33037
      vertex 5.49622 0 8.43422
    endloop
  endfacet
  facet normal 0 1 0
    outer loop
      vertex 7.13391 0 8.97499
      vertex 6.1438 0 8.185
      vertex 6.08282 0 9.40984
    endloop
  endfacet
  facet normal 0 1 0
    outer loop
      vertex 7.13391 0 8.97499
      vertex 6.37523 0 7.99129
      vertex 6.1438 0 8.185
    endloop
  endfacet
  facet normal 0 1 0
    outer loop
      vertex 7.13391 0 8.97499
      vertex 7.76457 0 8.25024
      vertex 6.37523 0 7.99129
    endloop
  endfacet
  facet normal -0 1 0
    outer loop
      vertex 6.54054 0 7.74249
      vertex 7.76457 0 8.25024
      vertex 6.63972 0 7.4386
    endloop
  endfacet
  facet normal 0 1 0
    outer loop
      vertex 7.94513 0 6.8287
      vertex 6.64079 0 6.70219
      vertex 6.67279 0 7.07959
    endloop
  endfacet
  facet normal 0 1 -0
    outer loop
      vertex 7.94513 0 6.8287
      vertex 6.67279 0 7.07959
      vertex 7.97479 0 7.2356
    endloop
  endfacet
  facet normal 0 1 0
    outer loop
      vertex 7.94513 0 6.8287
      vertex 7.85612 0 6.45572
      vertex 6.64079 0 6.70219
    endloop
  endfacet
  facet normal 0 1 0
    outer loop
      vertex 7.50009 0 5.81149
      vertex 7.23816 0 5.54703
      vertex 6.5448 0 6.37692
    endloop
  endfacet
  facet normal 0 1 -0
    outer loop
      vertex 7.50009 0 5.81149
      vertex 6.5448 0 6.37692
      vertex 7.70778 0 6.11665
    endloop
  endfacet
  facet normal 0 1 0
    outer loop
      vertex 7.23816 0 5.54703
      vertex 6.92706 0 5.33005
      vertex 6.3848 0 6.10374
    endloop
  endfacet
  facet normal 0 1 0
    outer loop
      vertex 7.23816 0 5.54703
      vertex 6.3848 0 6.10374
      vertex 6.5448 0 6.37692
    endloop
  endfacet
  facet normal 0 1 0
    outer loop
      vertex 6.92706 0 5.33005
      vertex 6.1608 0 5.88269
      vertex 6.3848 0 6.10374
    endloop
  endfacet
  facet normal 0 1 0
    outer loop
      vertex 6.92706 0 5.33005
      vertex 6.56682 0 5.16052
      vertex 6.1608 0 5.88269
    endloop
  endfacet
  facet normal 0 1 0
    outer loop
      vertex 6.1608 0 5.88269
      vertex 6.56682 0 5.16052
      vertex 6.15739 0 5.0385
    endloop
  endfacet
  facet normal -0 1 0
    outer loop
      vertex 5.87195 0 5.71211
      vertex 6.1608 0 5.88269
      vertex 6.15739 0 5.0385
    endloop
  endfacet
  facet normal -0 1 0
    outer loop
      vertex 5.51741 0 5.59027
      vertex 5.87195 0 5.71211
      vertex 6.15739 0 5.0385
    endloop
  endfacet
  facet normal -0 1 0
    outer loop
      vertex 4.6113 0 5.4928
      vertex 5.0972 0 5.51717
      vertex 4.84859 0 4.48239
    endloop
  endfacet
  facet normal 0 1 0
    outer loop
      vertex 5.0972 0 5.51717
      vertex 5.88695 0 4.37686
      vertex 4.84859 0 4.48239
    endloop
  endfacet
  facet normal 0 1 -0
    outer loop
      vertex 5.0181 0 0
      vertex 4.95029 0 1.03749
      vertex 5.50339 0 1.06505
    endloop
  endfacet
  facet normal 0 1 0
    outer loop
      vertex 2.43449 0 4.48239
      vertex 2.43449 0 5.4928
      vertex 4.6113 0 5.4928
    endloop
  endfacet
  facet normal 0 1 0
    outer loop
      vertex 1.1393 0 0
      vertex 2.43449 0 1.03749
      vertex 5.0181 0 0
    endloop
  endfacet
  facet normal 0 1 0
    outer loop
      vertex 1.1393 0 0
      vertex 2.43449 0 4.48239
      vertex 2.43449 0 1.03749
    endloop
  endfacet
  facet normal 0 1 0
    outer loop
      vertex 5.88695 0 4.37686
      vertex 5.0972 0 5.51717
      vertex 5.51741 0 5.59027
    endloop
  endfacet
  facet normal 0 1 0
    outer loop
      vertex 4.84859 0 4.48239
      vertex 2.43449 0 4.48239
      vertex 4.6113 0 5.4928
    endloop
  endfacet
  facet normal 0 1 -0
    outer loop
      vertex 6.62865 0 4.06027
      vertex 5.88695 0 4.37686
      vertex 6.69437 0 4.93991
    endloop
  endfacet
  facet normal 0 1 0
    outer loop
      vertex 8.18367 0 3.94133
      vertex 8.37651 0 3.56607
      vertex 7.07365 0 3.53261
    endloop
  endfacet
  facet normal 0 1 0
    outer loop
      vertex 8.53079 0 2.6922
      vertex 7.18808 0 2.38362
      vertex 7.22198 0 2.7939
    endloop
  endfacet
  facet normal 0 1 0
    outer loop
      vertex 7.18808 0 2.38362
      vertex 8.29854 0 1.55884
      vertex 7.08636 0 2.02759
    endloop
  endfacet
  facet normal 0 1 0
    outer loop
      vertex 8.47273 0 2.09013
      vertex 8.29854 0 1.55884
      vertex 7.18808 0 2.38362
    endloop
  endfacet
  facet normal 0 1 0
    outer loop
      vertex 7.08636 0 2.02759
      vertex 8.00822 0 1.09833
      vertex 6.91684 0 1.72581
    endloop
  endfacet
  facet normal 0 1 0
    outer loop
      vertex 7.60179 0 0.708588
      vertex 6.67949 0 1.47829
      vertex 6.91684 0 1.72581
    endloop
  endfacet
  facet normal 0 1 0
    outer loop
      vertex 6.67949 0 1.47829
      vertex 7.60179 0 0.708588
      vertex 7.09193 0 0.398575
    endloop
  endfacet
  facet normal -0 1 0
    outer loop
      vertex 6.36798 0 1.28545
      vertex 6.67949 0 1.47829
      vertex 7.09193 0 0.398575
    endloop
  endfacet
  facet normal -0 1 0
    outer loop
      vertex 5.97594 0 1.14769
      vertex 6.36798 0 1.28545
      vertex 6.49136 0 0.177139
    endloop
  endfacet
  facet normal 0 1 0
    outer loop
      vertex 5.80008 0 0.044281
      vertex 5.97594 0 1.14769
      vertex 6.49136 0 0.177139
    endloop
  endfacet
  facet normal 0 1 -0
    outer loop
      vertex 5.80008 0 0.044281
      vertex 5.50339 0 1.06505
      vertex 5.97594 0 1.14769
    endloop
  endfacet
  facet normal 0 -1 -0
    outer loop
      vertex 8.49222 -10 3.14969
      vertex 7.22198 -10 2.7939
      vertex 8.53079 -10 2.6922
    endloop
  endfacet
  facet normal -0 -1 0
    outer loop
      vertex 7.16606 -10 4.77989
      vertex 6.69437 -10 4.93991
      vertex 6.62865 -10 4.06027
    endloop
  endfacet
  facet normal 0 -1 0
    outer loop
      vertex 8.53079 -10 2.6922
      vertex 7.18808 -10 2.38362
      vertex 8.47273 -10 2.09013
    endloop
  endfacet
  facet normal -0 -1 0
    outer loop
      vertex 6.69437 -10 4.93991
      vertex 6.15739 -10 5.0385
      vertex 5.88695 -10 4.37686
    endloop
  endfacet
  facet normal 0 -1 0
    outer loop
      vertex 7.07365 -10 3.53261
      vertex 7.57251 -10 4.55841
      vertex 6.62865 -10 4.06027
    endloop
  endfacet
  facet normal -0 -1 0
    outer loop
      vertex 7.9137 -10 4.2755
      vertex 7.57251 -10 4.55841
      vertex 7.07365 -10 3.53261
    endloop
  endfacet
  facet normal 0 -1 -0
    outer loop
      vertex 7.16606 -10 4.77989
      vertex 6.62865 -10 4.06027
      vertex 7.57251 -10 4.55841
    endloop
  endfacet
  facet normal 0 -1 -0
    outer loop
      vertex 7.9137 -10 4.2755
      vertex 7.07365 -10 3.53261
      vertex 8.18367 -10 3.94133
    endloop
  endfacet
  facet normal 0 -1 0
    outer loop
      vertex 8.37651 -10 3.56607
      vertex 7.07365 -10 3.53261
      vertex 7.22198 -10 2.7939
    endloop
  endfacet
  facet normal 0 -1 -0
    outer loop
      vertex 8.37651 -10 3.56607
      vertex 7.22198 -10 2.7939
      vertex 8.49222 -10 3.14969
    endloop
  endfacet
  facet normal -0 -1 0
    outer loop
      vertex 6.15739 -10 5.0385
      vertex 5.51741 -10 5.59027
      vertex 5.88695 -10 4.37686
    endloop
  endfacet
  facet normal 0 -1 0
    outer loop
      vertex 8.00822 -10 1.09833
      vertex 8.29854 -10 1.55884
      vertex 7.08636 -10 2.02759
    endloop
  endfacet
  facet normal -0 -1 0
    outer loop
      vertex 8.00822 -10 1.09833
      vertex 6.91684 -10 1.72581
      vertex 7.60179 -10 0.708588
    endloop
  endfacet
  facet normal 0 -1 0
    outer loop
      vertex 6.49136 -10 0.177139
      vertex 7.09193 -10 0.398575
      vertex 6.36798 -10 1.28545
    endloop
  endfacet
  facet normal 0 -1 0
    outer loop
      vertex 5.08342 -10 8.49652
      vertex 4.6113 -10 9.55479
      vertex 4.6113 -10 8.51729
    endloop
  endfacet
  facet normal -0 -1 0
    outer loop
      vertex 7.97479 -10 7.2356
      vertex 6.63972 -10 7.4386
      vertex 6.67279 -10 7.07959
    endloop
  endfacet
  facet normal 0 -1 0
    outer loop
      vertex 7.70778 -10 6.11665
      vertex 7.85612 -10 6.45572
      vertex 6.64079 -10 6.70219
    endloop
  endfacet
  facet normal 0 -1 0
    outer loop
      vertex 7.97479 -10 7.2356
      vertex 7.76457 -10 8.25024
      vertex 6.63972 -10 7.4386
    endloop
  endfacet
  facet normal 0 -1 0
    outer loop
      vertex 7.70778 -10 6.11665
      vertex 6.64079 -10 6.70219
      vertex 6.5448 -10 6.37692
    endloop
  endfacet
  facet normal 0 -1 0
    outer loop
      vertex 6.37523 -10 7.99129
      vertex 6.54054 -10 7.74249
      vertex 7.76457 -10 8.25024
    endloop
  endfacet
  facet normal 0 -1 0
    outer loop
      vertex 4.6113 -10 9.55479
      vertex 5.08342 -10 8.49652
      vertex 6.08282 -10 9.40984
    endloop
  endfacet
  facet normal 0 -1 0
    outer loop
      vertex 5.08342 -10 8.49652
      vertex 5.49622 -10 8.43422
      vertex 6.08282 -10 9.40984
    endloop
  endfacet
  facet normal 0 -1 -0
    outer loop
      vertex 6.08282 -10 9.40984
      vertex 5.84967 -10 8.33037
      vertex 6.1438 -10 8.185
    endloop
  endfacet
  facet normal -0 -1 -0
    outer loop
      vertex 2.43449 -10 8.51729
      vertex 1.1393 -10 9.55479
      vertex 2.43449 -10 5.4928
    endloop
  endfacet
  facet normal 0 -1 0
    outer loop
      vertex 2.43449 -10 4.48239
      vertex 2.43449 -10 5.4928
      vertex 1.1393 -10 9.55479
    endloop
  endfacet
  facet normal 0 -1 -0
    outer loop
      vertex 5.50339 -10 1.06505
      vertex 5.0181 -10 0
      vertex 5.80008 -10 0.044281
    endloop
  endfacet
  facet normal -0 -1 -0
    outer loop
      vertex 4.95029 -10 1.03749
      vertex 2.43449 -10 1.03749
      vertex 5.0181 -10 0
    endloop
  endfacet
  facet normal 0 -1 0
    outer loop
      vertex 1.1393 -10 9.55479
      vertex 1.1393 -10 0
      vertex 2.43449 -10 4.48239
    endloop
  endfacet
  facet normal -0 -1 0
    outer loop
      vertex 4.6113 -10 9.55479
      vertex 1.1393 -10 9.55479
      vertex 2.43449 -10 8.51729
    endloop
  endfacet
  facet normal 0 -1 -0
    outer loop
      vertex 4.6113 -10 9.55479
      vertex 2.43449 -10 8.51729
      vertex 4.6113 -10 8.51729
    endloop
  endfacet
  facet normal 0 -1 0
    outer loop
      vertex 5.49622 -10 8.43422
      vertex 5.84967 -10 8.33037
      vertex 6.08282 -10 9.40984
    endloop
  endfacet
  facet normal 0 -1 0
    outer loop
      vertex 6.08282 -10 9.40984
      vertex 6.1438 -10 8.185
      vertex 7.13391 -10 8.97499
    endloop
  endfacet
  facet normal 0 -1 0
    outer loop
      vertex 6.1438 -10 8.185
      vertex 6.37523 -10 7.99129
      vertex 7.13391 -10 8.97499
    endloop
  endfacet
  facet normal 0 -1 0
    outer loop
      vertex 6.37523 -10 7.99129
      vertex 7.76457 -10 8.25024
      vertex 7.13391 -10 8.97499
    endloop
  endfacet
  facet normal 0 -1 0
    outer loop
      vertex 6.63972 -10 7.4386
      vertex 7.76457 -10 8.25024
      vertex 6.54054 -10 7.74249
    endloop
  endfacet
  facet normal 0 -1 -0
    outer loop
      vertex 6.67279 -10 7.07959
      vertex 6.64079 -10 6.70219
      vertex 7.94513 -10 6.8287
    endloop
  endfacet
  facet normal 0 -1 0
    outer loop
      vertex 7.97479 -10 7.2356
      vertex 6.67279 -10 7.07959
      vertex 7.94513 -10 6.8287
    endloop
  endfacet
  facet normal 0 -1 0
    outer loop
      vertex 6.64079 -10 6.70219
      vertex 7.85612 -10 6.45572
      vertex 7.94513 -10 6.8287
    endloop
  endfacet
  facet normal 0 -1 0
    outer loop
      vertex 6.5448 -10 6.37692
      vertex 7.23816 -10 5.54703
      vertex 7.50009 -10 5.81149
    endloop
  endfacet
  facet normal -0 -1 0
    outer loop
      vertex 7.70778 -10 6.11665
      vertex 6.5448 -10 6.37692
      vertex 7.50009 -10 5.81149
    endloop
  endfacet
  facet normal 0 -1 0
    outer loop
      vertex 6.3848 -10 6.10374
      vertex 6.92706 -10 5.33005
      vertex 7.23816 -10 5.54703
    endloop
  endfacet
  facet normal 0 -1 -0
    outer loop
      vertex 6.5448 -10 6.37692
      vertex 6.3848 -10 6.10374
      vertex 7.23816 -10 5.54703
    endloop
  endfacet
  facet normal 0 -1 -0
    outer loop
      vertex 6.3848 -10 6.10374
      vertex 6.1608 -10 5.88269
      vertex 6.92706 -10 5.33005
    endloop
  endfacet
  facet normal 0 -1 0
    outer loop
      vertex 6.1608 -10 5.88269
      vertex 6.56682 -10 5.16052
      vertex 6.92706 -10 5.33005
    endloop
  endfacet
  facet normal 0 -1 0
    outer loop
      vertex 6.15739 -10 5.0385
      vertex 6.56682 -10 5.16052
      vertex 6.1608 -10 5.88269
    endloop
  endfacet
  facet normal 0 -1 0
    outer loop
      vertex 6.15739 -10 5.0385
      vertex 6.1608 -10 5.88269
      vertex 5.87195 -10 5.71211
    endloop
  endfacet
  facet normal 0 -1 0
    outer loop
      vertex 6.15739 -10 5.0385
      vertex 5.87195 -10 5.71211
      vertex 5.51741 -10 5.59027
    endloop
  endfacet
  facet normal 0 -1 0
    outer loop
      vertex 4.84859 -10 4.48239
      vertex 5.0972 -10 5.51717
      vertex 4.6113 -10 5.4928
    endloop
  endfacet
  facet normal 0 -1 0
    outer loop
      vertex 4.84859 -10 4.48239
      vertex 5.88695 -10 4.37686
      vertex 5.0972 -10 5.51717
    endloop
  endfacet
  facet normal 0 -1 0
    outer loop
      vertex 5.50339 -10 1.06505
      vertex 4.95029 -10 1.03749
      vertex 5.0181 -10 0
    endloop
  endfacet
  facet normal -0 -1 0
    outer loop
      vertex 4.6113 -10 5.4928
      vertex 2.43449 -10 5.4928
      vertex 2.43449 -10 4.48239
    endloop
  endfacet
  facet normal 0 -1 0
    outer loop
      vertex 5.0181 -10 0
      vertex 2.43449 -10 1.03749
      vertex 1.1393 -10 0
    endloop
  endfacet
  facet normal -0 -1 0
    outer loop
      vertex 2.43449 -10 1.03749
      vertex 2.43449 -10 4.48239
      vertex 1.1393 -10 0
    endloop
  endfacet
  facet normal 0 -1 -0
    outer loop
      vertex 5.51741 -10 5.59027
      vertex 5.0972 -10 5.51717
      vertex 5.88695 -10 4.37686
    endloop
  endfacet
  facet normal 0 -1 -0
    outer loop
      vertex 4.6113 -10 5.4928
      vertex 2.43449 -10 4.48239
      vertex 4.84859 -10 4.48239
    endloop
  endfacet
  facet normal 0 -1 0
    outer loop
      vertex 6.69437 -10 4.93991
      vertex 5.88695 -10 4.37686
      vertex 6.62865 -10 4.06027
    endloop
  endfacet
  facet normal 0 -1 0
    outer loop
      vertex 7.07365 -10 3.53261
      vertex 8.37651 -10 3.56607
      vertex 8.18367 -10 3.94133
    endloop
  endfacet
  facet normal 0 -1 -0
    outer loop
      vertex 7.22198 -10 2.7939
      vertex 7.18808 -10 2.38362
      vertex 8.53079 -10 2.6922
    endloop
  endfacet
  facet normal 0 -1 0
    outer loop
      vertex 7.08636 -10 2.02759
      vertex 8.29854 -10 1.55884
      vertex 7.18808 -10 2.38362
    endloop
  endfacet
  facet normal 0 -1 0
    outer loop
      vertex 7.18808 -10 2.38362
      vertex 8.29854 -10 1.55884
      vertex 8.47273 -10 2.09013
    endloop
  endfacet
  facet normal 0 -1 0
    outer loop
      vertex 6.91684 -10 1.72581
      vertex 8.00822 -10 1.09833
      vertex 7.08636 -10 2.02759
    endloop
  endfacet
  facet normal 0 -1 -0
    outer loop
      vertex 6.91684 -10 1.72581
      vertex 6.67949 -10 1.47829
      vertex 7.60179 -10 0.708588
    endloop
  endfacet
  facet normal 0 -1 0
    outer loop
      vertex 7.09193 -10 0.398575
      vertex 7.60179 -10 0.708588
      vertex 6.67949 -10 1.47829
    endloop
  endfacet
  facet normal 0 -1 0
    outer loop
      vertex 7.09193 -10 0.398575
      vertex 6.67949 -10 1.47829
      vertex 6.36798 -10 1.28545
    endloop
  endfacet
  facet normal 0 -1 0
    outer loop
      vertex 6.49136 -10 0.177139
      vertex 6.36798 -10 1.28545
      vertex 5.97594 -10 1.14769
    endloop
  endfacet
  facet normal -0 -1 0
    outer loop
      vertex 6.49136 -10 0.177139
      vertex 5.97594 -10 1.14769
      vertex 5.80008 -10 0.044281
    endloop
  endfacet
  facet normal 0 -1 0
    outer loop
      vertex 5.97594 -10 1.14769
      vertex 5.50339 -10 1.06505
      vertex 5.80008 -10 0.044281
    endloop
  endfacet
  facet normal 0.188737 0 -0.982028
    outer loop
      vertex 6.49136 0 0.177139
      vertex 5.80008 -10 0.044281
      vertex 5.80008 0 0.044281
    endloop
  endfacet
  facet normal 0.188737 0 -0.982028
    outer loop
      vertex 6.49136 0 0.177139
      vertex 6.49136 -10 0.177139
      vertex 5.80008 -10 0.044281
    endloop
  endfacet
  facet normal 0.345944 0 -0.938255
    outer loop
      vertex 7.09193 0 0.398575
      vertex 6.49136 -10 0.177139
      vertex 6.49136 0 0.177139
    endloop
  endfacet
  facet normal 0.345944 0 -0.938255
    outer loop
      vertex 7.09193 0 0.398575
      vertex 7.09193 -10 0.398575
      vertex 6.49136 -10 0.177139
    endloop
  endfacet
  facet normal 0.519535 0 -0.854449
    outer loop
      vertex 7.60179 0 0.708588
      vertex 7.09193 -10 0.398575
      vertex 7.09193 0 0.398575
    endloop
  endfacet
  facet normal 0.519535 0 -0.854449
    outer loop
      vertex 7.60179 0 0.708588
      vertex 7.60179 -10 0.708588
      vertex 7.09193 -10 0.398575
    endloop
  endfacet
  facet normal 0.692134 0 -0.721769
    outer loop
      vertex 8.00822 0 1.09833
      vertex 7.60179 -10 0.708588
      vertex 7.60179 0 0.708588
    endloop
  endfacet
  facet normal 0.692134 0 -0.721769
    outer loop
      vertex 8.00822 0 1.09833
      vertex 8.00822 -10 1.09833
      vertex 7.60179 -10 0.708588
    endloop
  endfacet
  facet normal 0.845927 0 -0.533299
    outer loop
      vertex 8.29854 0 1.55884
      vertex 8.00822 -10 1.09833
      vertex 8.00822 0 1.09833
    endloop
  endfacet
  facet normal 0.845927 0 -0.533299
    outer loop
      vertex 8.29854 0 1.55884
      vertex 8.29854 -10 1.55884
      vertex 8.00822 -10 1.09833
    endloop
  endfacet
  facet normal 0.950231 0 -0.311545
    outer loop
      vertex 8.47273 0 2.09013
      vertex 8.29854 -10 1.55884
      vertex 8.29854 0 1.55884
    endloop
  endfacet
  facet normal 0.950231 0 -0.311545
    outer loop
      vertex 8.47273 0 2.09013
      vertex 8.47273 -10 2.09013
      vertex 8.29854 -10 1.55884
    endloop
  endfacet
  facet normal 0.995382 0 -0.0959887
    outer loop
      vertex 8.53079 0 2.6922
      vertex 8.47273 -10 2.09013
      vertex 8.47273 0 2.09013
    endloop
  endfacet
  facet normal 0.995382 0 -0.0959887
    outer loop
      vertex 8.53079 0 2.6922
      vertex 8.53079 -10 2.6922
      vertex 8.47273 -10 2.09013
    endloop
  endfacet
  facet normal 0.996465 0 0.0840098
    outer loop
      vertex 8.49222 0 3.14969
      vertex 8.53079 -10 2.6922
      vertex 8.53079 0 2.6922
    endloop
  endfacet
  facet normal 0.996465 0 0.0840098
    outer loop
      vertex 8.49222 0 3.14969
      vertex 8.49222 -10 3.14969
      vertex 8.53079 -10 2.6922
    endloop
  endfacet
  facet normal 0.963489 0 0.267749
    outer loop
      vertex 8.37651 0 3.56607
      vertex 8.49222 -10 3.14969
      vertex 8.49222 0 3.14969
    endloop
  endfacet
  facet normal 0.963489 0 0.267749
    outer loop
      vertex 8.37651 0 3.56607
      vertex 8.37651 -10 3.56607
      vertex 8.49222 -10 3.14969
    endloop
  endfacet
  facet normal 0.889433 0 0.457065
    outer loop
      vertex 8.18367 0 3.94133
      vertex 8.37651 -10 3.56607
      vertex 8.37651 0 3.56607
    endloop
  endfacet
  facet normal 0.889433 0 0.457065
    outer loop
      vertex 8.18367 0 3.94133
      vertex 8.18367 -10 3.94133
      vertex 8.37651 -10 3.56607
    endloop
  endfacet
  facet normal 0.777869 0 0.628427
    outer loop
      vertex 7.9137 0 4.2755
      vertex 8.18367 -10 3.94133
      vertex 8.18367 0 3.94133
    endloop
  endfacet
  facet normal 0.777869 0 0.628427
    outer loop
      vertex 7.9137 0 4.2755
      vertex 7.9137 -10 4.2755
      vertex 8.18367 -10 3.94133
    endloop
  endfacet
  facet normal 0.638298 0 0.769789
    outer loop
      vertex 7.57251 0 4.55841
      vertex 7.9137 -10 4.2755
      vertex 7.9137 0 4.2755
    endloop
  endfacet
  facet normal 0.638298 0 0.769789
    outer loop
      vertex 7.57251 0 4.55841
      vertex 7.57251 -10 4.55841
      vertex 7.9137 -10 4.2755
    endloop
  endfacet
  facet normal 0.478486 0 0.878095
    outer loop
      vertex 7.16606 0 4.77989
      vertex 7.57251 -10 4.55841
      vertex 7.57251 0 4.55841
    endloop
  endfacet
  facet normal 0.478486 0 0.878095
    outer loop
      vertex 7.16606 0 4.77989
      vertex 7.16606 -10 4.77989
      vertex 7.57251 -10 4.55841
    endloop
  endfacet
  facet normal 0.321265 0 0.946989
    outer loop
      vertex 6.69437 0 4.93991
      vertex 7.16606 -10 4.77989
      vertex 7.16606 0 4.77989
    endloop
  endfacet
  facet normal 0.321265 0 0.946989
    outer loop
      vertex 6.69437 0 4.93991
      vertex 6.69437 -10 4.93991
      vertex 7.16606 -10 4.77989
    endloop
  endfacet
  facet normal 0.180582 0 0.98356
    outer loop
      vertex 6.15739 0 5.0385
      vertex 6.69437 -10 4.93991
      vertex 6.69437 0 4.93991
    endloop
  endfacet
  facet normal 0.180582 0 0.98356
    outer loop
      vertex 6.15739 0 5.0385
      vertex 6.15739 -10 5.0385
      vertex 6.69437 -10 4.93991
    endloop
  endfacet
  facet normal 0.28561 0 -0.958346
    outer loop
      vertex 6.56682 0 5.16052
      vertex 6.15739 -10 5.0385
      vertex 6.15739 0 5.0385
    endloop
  endfacet
  facet normal 0.28561 0 -0.958346
    outer loop
      vertex 6.56682 0 5.16052
      vertex 6.56682 -10 5.16052
      vertex 6.15739 -10 5.0385
    endloop
  endfacet
  facet normal 0.425808 0 -0.904814
    outer loop
      vertex 6.92706 0 5.33005
      vertex 6.56682 -10 5.16052
      vertex 6.56682 0 5.16052
    endloop
  endfacet
  facet normal 0.425808 0 -0.904814
    outer loop
      vertex 6.92706 0 5.33005
      vertex 6.92706 -10 5.33005
      vertex 6.56682 -10 5.16052
    endloop
  endfacet
  facet normal 0.572064 0 -0.820209
    outer loop
      vertex 7.23816 0 5.54703
      vertex 6.92706 -10 5.33005
      vertex 6.92706 0 5.33005
    endloop
  endfacet
  facet normal 0.572064 0 -0.820209
    outer loop
      vertex 7.23816 0 5.54703
      vertex 7.23816 -10 5.54703
      vertex 6.92706 -10 5.33005
    endloop
  endfacet
  facet normal 0.710497 0 -0.7037
    outer loop
      vertex 7.50009 0 5.81149
      vertex 7.23816 -10 5.54703
      vertex 7.23816 0 5.54703
    endloop
  endfacet
  facet normal 0.710497 0 -0.7037
    outer loop
      vertex 7.50009 0 5.81149
      vertex 7.50009 -10 5.81149
      vertex 7.23816 -10 5.54703
    endloop
  endfacet
  facet normal 0.826698 0 -0.562646
    outer loop
      vertex 7.70778 0 6.11665
      vertex 7.50009 -10 5.81149
      vertex 7.50009 0 5.81149
    endloop
  endfacet
  facet normal 0.826698 0 -0.562646
    outer loop
      vertex 7.70778 0 6.11665
      vertex 7.70778 -10 6.11665
      vertex 7.50009 -10 5.81149
    endloop
  endfacet
  facet normal 0.91616 0 -0.400812
    outer loop
      vertex 7.85612 0 6.45572
      vertex 7.70778 -10 6.11665
      vertex 7.70778 0 6.11665
    endloop
  endfacet
  facet normal 0.91616 0 -0.400812
    outer loop
      vertex 7.85612 0 6.45572
      vertex 7.85612 -10 6.45572
      vertex 7.70778 -10 6.11665
    endloop
  endfacet
  facet normal 0.972685 0 -0.232127
    outer loop
      vertex 7.94513 0 6.8287
      vertex 7.85612 -10 6.45572
      vertex 7.85612 0 6.45572
    endloop
  endfacet
  facet normal 0.972685 0 -0.232127
    outer loop
      vertex 7.94513 0 6.8287
      vertex 7.94513 -10 6.8287
      vertex 7.85612 -10 6.45572
    endloop
  endfacet
  facet normal 0.997354 0 -0.0726997
    outer loop
      vertex 7.97479 0 7.2356
      vertex 7.94513 -10 6.8287
      vertex 7.94513 0 6.8287
    endloop
  endfacet
  facet normal 0.997354 0 -0.0726997
    outer loop
      vertex 7.97479 0 7.2356
      vertex 7.97479 -10 7.2356
      vertex 7.94513 -10 6.8287
    endloop
  endfacet
  facet normal 0.979204 0 0.202878
    outer loop
      vertex 7.76457 0 8.25024
      vertex 7.97479 -10 7.2356
      vertex 7.97479 0 7.2356
    endloop
  endfacet
  facet normal 0.979204 0 0.202878
    outer loop
      vertex 7.76457 0 8.25024
      vertex 7.76457 -10 8.25024
      vertex 7.97479 -10 7.2356
    endloop
  endfacet
  facet normal 0.754377 0 0.656441
    outer loop
      vertex 7.13391 0 8.97499
      vertex 7.76457 -10 8.25024
      vertex 7.76457 0 8.25024
    endloop
  endfacet
  facet normal 0.754377 0 0.656441
    outer loop
      vertex 7.13391 0 8.97499
      vertex 7.13391 -10 8.97499
      vertex 7.76457 -10 8.25024
    endloop
  endfacet
  facet normal 0.382289 0 0.924043
    outer loop
      vertex 6.08282 0 9.40984
      vertex 7.13391 -10 8.97499
      vertex 7.13391 0 8.97499
    endloop
  endfacet
  facet normal 0.382289 0 0.924043
    outer loop
      vertex 6.08282 0 9.40984
      vertex 6.08282 -10 9.40984
      vertex 7.13391 -10 8.97499
    endloop
  endfacet
  facet normal 0.0980291 0 0.995184
    outer loop
      vertex 4.6113 0 9.55479
      vertex 6.08282 -10 9.40984
      vertex 6.08282 0 9.40984
    endloop
  endfacet
  facet normal 0.0980291 0 0.995184
    outer loop
      vertex 4.6113 0 9.55479
      vertex 4.6113 -10 9.55479
      vertex 6.08282 -10 9.40984
    endloop
  endfacet
  facet normal -0 0 1
    outer loop
      vertex 1.1393 0 9.55479
      vertex 4.6113 -10 9.55479
      vertex 4.6113 0 9.55479
    endloop
  endfacet
  facet normal 0 0 1
    outer loop
      vertex 1.1393 0 9.55479
      vertex 1.1393 -10 9.55479
      vertex 4.6113 -10 9.55479
    endloop
  endfacet
  facet normal -1 0 0
    outer loop
      vertex 1.1393 0 0
      vertex 1.1393 -10 9.55479
      vertex 1.1393 0 9.55479
    endloop
  endfacet
  facet normal -1 0 0
    outer loop
      vertex 1.1393 0 0
      vertex 1.1393 -10 0
      vertex 1.1393 -10 9.55479
    endloop
  endfacet
  facet normal -0 0 -1
    outer loop
      vertex 5.0181 0 0
      vertex 1.1393 -10 0
      vertex 1.1393 0 0
    endloop
  endfacet
  facet normal 0 -0 -1
    outer loop
      vertex 5.0181 0 0
      vertex 5.0181 -10 0
      vertex 1.1393 -10 0
    endloop
  endfacet
  facet normal 0.0565362 0 -0.998401
    outer loop
      vertex 5.80008 0 0.044281
      vertex 5.0181 -10 0
      vertex 5.0181 0 0
    endloop
  endfacet
  facet normal 0.0565362 0 -0.998401
    outer loop
      vertex 5.80008 0 0.044281
      vertex 5.80008 -10 0.044281
      vertex 5.0181 -10 0
    endloop
  endfacet
  facet normal 1 0 0
    outer loop
      vertex 2.43449 0 8.51729
      vertex 2.43449 -10 8.51729
      vertex 2.43449 0 5.4928
    endloop
  endfacet
  facet normal 1 0 0
    outer loop
      vertex 2.43449 -10 5.4928
      vertex 2.43449 0 5.4928
      vertex 2.43449 -10 8.51729
    endloop
  endfacet
  facet normal -0 -0 -1
    outer loop
      vertex 4.6113 0 8.51729
      vertex 4.6113 -10 8.51729
      vertex 2.43449 0 8.51729
    endloop
  endfacet
  facet normal 0 0 -1
    outer loop
      vertex 2.43449 -10 8.51729
      vertex 2.43449 0 8.51729
      vertex 4.6113 -10 8.51729
    endloop
  endfacet
  facet normal -0.0439505 -0 -0.999034
    outer loop
      vertex 5.08342 0 8.49652
      vertex 5.08342 -10 8.49652
      vertex 4.6113 0 8.51729
    endloop
  endfacet
  facet normal -0.0439505 0 -0.999034
    outer loop
      vertex 4.6113 -10 8.51729
      vertex 4.6113 0 8.51729
      vertex 5.08342 -10 8.49652
    endloop
  endfacet
  facet normal -0.149231 -0 -0.988802
    outer loop
      vertex 5.49622 0 8.43422
      vertex 5.49622 -10 8.43422
      vertex 5.08342 0 8.49652
    endloop
  endfacet
  facet normal -0.149231 0 -0.988802
    outer loop
      vertex 5.08342 -10 8.49652
      vertex 5.08342 0 8.49652
      vertex 5.49622 -10 8.43422
    endloop
  endfacet
  facet normal -0.281902 -0 -0.959443
    outer loop
      vertex 5.84967 0 8.33037
      vertex 5.84967 -10 8.33037
      vertex 5.49622 0 8.43422
    endloop
  endfacet
  facet normal -0.281902 0 -0.959443
    outer loop
      vertex 5.49622 -10 8.43422
      vertex 5.49622 0 8.43422
      vertex 5.84967 -10 8.33037
    endloop
  endfacet
  facet normal -0.443076 -0 -0.896484
    outer loop
      vertex 6.1438 0 8.185
      vertex 6.1438 -10 8.185
      vertex 5.84967 0 8.33037
    endloop
  endfacet
  facet normal -0.443076 0 -0.896484
    outer loop
      vertex 5.84967 -10 8.33037
      vertex 5.84967 0 8.33037
      vertex 6.1438 -10 8.185
    endloop
  endfacet
  facet normal -0.641848 -0 -0.766832
    outer loop
      vertex 6.37523 0 7.99129
      vertex 6.37523 -10 7.99129
      vertex 6.1438 0 8.185
    endloop
  endfacet
  facet normal -0.641848 0 -0.766832
    outer loop
      vertex 6.1438 -10 8.185
      vertex 6.1438 0 8.185
      vertex 6.37523 -10 7.99129
    endloop
  endfacet
  facet normal -0.832909 -0 -0.553409
    outer loop
      vertex 6.54054 0 7.74249
      vertex 6.54054 -10 7.74249
      vertex 6.37523 0 7.99129
    endloop
  endfacet
  facet normal -0.832909 0 -0.553409
    outer loop
      vertex 6.37523 -10 7.99129
      vertex 6.37523 0 7.99129
      vertex 6.54054 -10 7.74249
    endloop
  endfacet
  facet normal -0.950651 -0 -0.310262
    outer loop
      vertex 6.63972 0 7.4386
      vertex 6.63972 -10 7.4386
      vertex 6.54054 0 7.74249
    endloop
  endfacet
  facet normal -0.950651 0 -0.310262
    outer loop
      vertex 6.54054 -10 7.74249
      vertex 6.54054 0 7.74249
      vertex 6.63972 -10 7.4386
    endloop
  endfacet
  facet normal -0.995784 -0 -0.0917261
    outer loop
      vertex 6.67279 0 7.07959
      vertex 6.67279 -10 7.07959
      vertex 6.63972 0 7.4386
    endloop
  endfacet
  facet normal -0.995784 0 -0.0917261
    outer loop
      vertex 6.63972 -10 7.4386
      vertex 6.63972 0 7.4386
      vertex 6.67279 -10 7.07959
    endloop
  endfacet
  facet normal -0.996425 0 0.0844875
    outer loop
      vertex 6.64079 0 6.70219
      vertex 6.64079 -10 6.70219
      vertex 6.67279 0 7.07959
    endloop
  endfacet
  facet normal -0.996425 0 0.0844875
    outer loop
      vertex 6.67279 -10 7.07959
      vertex 6.67279 0 7.07959
      vertex 6.64079 -10 6.70219
    endloop
  endfacet
  facet normal -0.959108 0 0.283041
    outer loop
      vertex 6.5448 0 6.37692
      vertex 6.5448 -10 6.37692
      vertex 6.64079 0 6.70219
    endloop
  endfacet
  facet normal -0.959108 0 0.283041
    outer loop
      vertex 6.64079 -10 6.70219
      vertex 6.64079 0 6.70219
      vertex 6.5448 -10 6.37692
    endloop
  endfacet
  facet normal -0.862891 0 0.50539
    outer loop
      vertex 6.3848 0 6.10374
      vertex 6.3848 -10 6.10374
      vertex 6.5448 0 6.37692
    endloop
  endfacet
  facet normal -0.862891 0 0.50539
    outer loop
      vertex 6.5448 -10 6.37692
      vertex 6.5448 0 6.37692
      vertex 6.3848 -10 6.10374
    endloop
  endfacet
  facet normal -0.702404 0 0.711778
    outer loop
      vertex 6.1608 0 5.88269
      vertex 6.1608 -10 5.88269
      vertex 6.3848 0 6.10374
    endloop
  endfacet
  facet normal -0.702404 0 0.711778
    outer loop
      vertex 6.3848 -10 6.10374
      vertex 6.3848 0 6.10374
      vertex 6.1608 -10 5.88269
    endloop
  endfacet
  facet normal -0.508499 0 0.861062
    outer loop
      vertex 5.87195 0 5.71211
      vertex 5.87195 -10 5.71211
      vertex 6.1608 0 5.88269
    endloop
  endfacet
  facet normal -0.508499 0 0.861062
    outer loop
      vertex 6.1608 -10 5.88269
      vertex 6.1608 0 5.88269
      vertex 5.87195 -10 5.71211
    endloop
  endfacet
  facet normal -0.325001 0 0.945714
    outer loop
      vertex 5.51741 0 5.59027
      vertex 5.51741 -10 5.59027
      vertex 5.87195 0 5.71211
    endloop
  endfacet
  facet normal -0.325001 0 0.945714
    outer loop
      vertex 5.87195 -10 5.71211
      vertex 5.87195 0 5.71211
      vertex 5.51741 -10 5.59027
    endloop
  endfacet
  facet normal -0.171387 0 0.985204
    outer loop
      vertex 5.0972 0 5.51717
      vertex 5.0972 -10 5.51717
      vertex 5.51741 0 5.59027
    endloop
  endfacet
  facet normal -0.171387 0 0.985204
    outer loop
      vertex 5.51741 -10 5.59027
      vertex 5.51741 0 5.59027
      vertex 5.0972 -10 5.51717
    endloop
  endfacet
  facet normal -0.0500914 0 0.998745
    outer loop
      vertex 4.6113 0 5.4928
      vertex 4.6113 -10 5.4928
      vertex 5.0972 0 5.51717
    endloop
  endfacet
  facet normal -0.0500914 0 0.998745
    outer loop
      vertex 5.0972 -10 5.51717
      vertex 5.0972 0 5.51717
      vertex 4.6113 -10 5.4928
    endloop
  endfacet
  facet normal -0 0 1
    outer loop
      vertex 2.43449 0 5.4928
      vertex 2.43449 -10 5.4928
      vertex 4.6113 0 5.4928
    endloop
  endfacet
  facet normal 0 -0 1
    outer loop
      vertex 4.6113 -10 5.4928
      vertex 4.6113 0 5.4928
      vertex 2.43449 -10 5.4928
    endloop
  endfacet
  facet normal 1 0 0
    outer loop
      vertex 2.43449 0 4.48239
      vertex 2.43449 -10 4.48239
      vertex 2.43449 0 1.03749
    endloop
  endfacet
  facet normal 1 0 0
    outer loop
      vertex 2.43449 -10 1.03749
      vertex 2.43449 0 1.03749
      vertex 2.43449 -10 4.48239
    endloop
  endfacet
  facet normal -0 -0 -1
    outer loop
      vertex 4.84859 0 4.48239
      vertex 4.84859 -10 4.48239
      vertex 2.43449 0 4.48239
    endloop
  endfacet
  facet normal 0 0 -1
    outer loop
      vertex 2.43449 -10 4.48239
      vertex 2.43449 0 4.48239
      vertex 4.84859 -10 4.48239
    endloop
  endfacet
  facet normal -0.101111 -0 -0.994875
    outer loop
      vertex 5.88695 0 4.37686
      vertex 5.88695 -10 4.37686
      vertex 4.84859 0 4.48239
    endloop
  endfacet
  facet normal -0.101111 0 -0.994875
    outer loop
      vertex 4.84859 -10 4.48239
      vertex 4.84859 0 4.48239
      vertex 5.88695 -10 4.37686
    endloop
  endfacet
  facet normal -0.392576 -0 -0.919719
    outer loop
      vertex 6.62865 0 4.06027
      vertex 6.62865 -10 4.06027
      vertex 5.88695 0 4.37686
    endloop
  endfacet
  facet normal -0.392576 0 -0.919719
    outer loop
      vertex 5.88695 -10 4.37686
      vertex 5.88695 0 4.37686
      vertex 6.62865 -10 4.06027
    endloop
  endfacet
  facet normal -0.764444 -0 -0.644691
    outer loop
      vertex 7.07365 0 3.53261
      vertex 7.07365 -10 3.53261
      vertex 6.62865 0 4.06027
    endloop
  endfacet
  facet normal -0.764444 0 -0.644691
    outer loop
      vertex 6.62865 -10 4.06027
      vertex 6.62865 0 4.06027
      vertex 7.07365 -10 3.53261
    endloop
  endfacet
  facet normal -0.98043 -0 -0.196866
    outer loop
      vertex 7.22198 0 2.7939
      vertex 7.22198 -10 2.7939
      vertex 7.07365 0 3.53261
    endloop
  endfacet
  facet normal -0.98043 0 -0.196866
    outer loop
      vertex 7.07365 -10 3.53261
      vertex 7.07365 0 3.53261
      vertex 7.22198 -10 2.7939
    endloop
  endfacet
  facet normal -0.996604 0 0.0823459
    outer loop
      vertex 7.18808 0 2.38362
      vertex 7.18808 -10 2.38362
      vertex 7.22198 0 2.7939
    endloop
  endfacet
  facet normal -0.996604 0 0.0823459
    outer loop
      vertex 7.22198 -10 2.7939
      vertex 7.22198 0 2.7939
      vertex 7.18808 -10 2.38362
    endloop
  endfacet
  facet normal -0.961526 0 0.274714
    outer loop
      vertex 7.08636 0 2.02759
      vertex 7.08636 -10 2.02759
      vertex 7.18808 0 2.38362
    endloop
  endfacet
  facet normal -0.961526 0 0.274714
    outer loop
      vertex 7.18808 -10 2.38362
      vertex 7.18808 0 2.38362
      vertex 7.08636 -10 2.02759
    endloop
  endfacet
  facet normal -0.871861 0 0.489754
    outer loop
      vertex 6.91684 0 1.72581
      vertex 6.91684 -10 1.72581
      vertex 7.08636 0 2.02759
    endloop
  endfacet
  facet normal -0.871861 0 0.489754
    outer loop
      vertex 7.08636 -10 2.02759
      vertex 7.08636 0 2.02759
      vertex 6.91684 -10 1.72581
    endloop
  endfacet
  facet normal -0.721779 0 0.692123
    outer loop
      vertex 6.67949 0 1.47829
      vertex 6.67949 -10 1.47829
      vertex 6.91684 0 1.72581
    endloop
  endfacet
  facet normal -0.721779 0 0.692123
    outer loop
      vertex 6.91684 -10 1.72581
      vertex 6.91684 0 1.72581
      vertex 6.67949 -10 1.47829
    endloop
  endfacet
  facet normal -0.526356 0 0.850265
    outer loop
      vertex 6.36798 0 1.28545
      vertex 6.36798 -10 1.28545
      vertex 6.67949 0 1.47829
    endloop
  endfacet
  facet normal -0.526356 0 0.850265
    outer loop
      vertex 6.67949 -10 1.47829
      vertex 6.67949 0 1.47829
      vertex 6.36798 -10 1.28545
    endloop
  endfacet
  facet normal -0.331521 0 0.943448
    outer loop
      vertex 5.97594 0 1.14769
      vertex 5.97594 -10 1.14769
      vertex 6.36798 0 1.28545
    endloop
  endfacet
  facet normal -0.331521 0 0.943448
    outer loop
      vertex 6.36798 -10 1.28545
      vertex 6.36798 0 1.28545
      vertex 5.97594 -10 1.14769
    endloop
  endfacet
  facet normal -0.172267 0 0.98505
    outer loop
      vertex 5.50339 0 1.06505
      vertex 5.50339 -10 1.06505
      vertex 5.97594 0 1.14769
    endloop
  endfacet
  facet normal -0.172267 0 0.98505
    outer loop
      vertex 5.97594 -10 1.14769
      vertex 5.97594 0 1.14769
      vertex 5.50339 -10 1.06505
    endloop
  endfacet
  facet normal -0.0497665 0 0.998761
    outer loop
      vertex 4.95029 0 1.03749
      vertex 4.95029 -10 1.03749
      vertex 5.50339 0 1.06505
    endloop
  endfacet
  facet normal -0.0497665 0 0.998761
    outer loop
      vertex 5.50339 -10 1.06505
      vertex 5.50339 0 1.06505
      vertex 4.95029 -10 1.03749
    endloop
  endfacet
  facet normal -0 0 1
    outer loop
      vertex 2.43449 0 1.03749
      vertex 2.43449 -10 1.03749
      vertex 4.95029 0 1.03749
    endloop
  endfacet
  facet normal 0 -0 1
    outer loop
      vertex 4.95029 -10 1.03749
      vertex 4.95029 0 1.03749
      vertex 2.43449 -10 1.03749
    endloop
  endfacet
endsolid OpenSCAD_Model
