solid OpenSCAD_Model
  facet normal -0 -0 -1
    outer loop
      vertex 9.94936 3.91216 0
      vertex 9.94936 2.7545 0
      vertex 6.0713 5.38992 0
    endloop
  endfacet
  facet normal 0 0 -1
    outer loop
      vertex 6.44337 5.83333 0
      vertex 7.80673 6.46564 0
      vertex 8.80928 5.88681 0
    endloop
  endfacet
  facet normal 0 0 -1
    outer loop
      vertex 9.94936 3.91216 0
      vertex 6.0713 5.38992 0
      vertex 9.55341 5 0
    endloop
  endfacet
  facet normal 0 0 -1
    outer loop
      vertex 6.0713 5.38992 0
      vertex 6.44337 5.83333 0
      vertex 8.80928 5.88681 0
    endloop
  endfacet
  facet normal 0 0 -1
    outer loop
      vertex 7.80673 6.46564 0
      vertex 6.44337 5.83333 0
      vertex 6.64134 6.37724 0
    endloop
  endfacet
  facet normal 0 -0 -1
    outer loop
      vertex 6.66666 6.66666 0
      vertex 7.80673 6.46564 0
      vertex 6.64134 6.37724 0
    endloop
  endfacet
  facet normal 0 0 -1
    outer loop
      vertex 6.64134 6.64134 0
      vertex 6.66666 6.66666 0
      vertex 6.64134 6.37724 0
    endloop
  endfacet
  facet normal 0 0 -1
    outer loop
      vertex 9.55341 5 0
      vertex 6.0713 5.38992 0
      vertex 8.80928 5.88681 0
    endloop
  endfacet
  facet normal -0 0 -1
    outer loop
      vertex 9.94936 2.7545 0
      vertex 9.55341 1.66666 0
      vertex 6.0713 5.38992 0
    endloop
  endfacet
  facet normal 0 -0 -1
    outer loop
      vertex 6.0713 5.38992 0
      vertex 9.55341 1.66666 0
      vertex 5.57002 5.10051 0
    endloop
  endfacet
  facet normal 0 0 -1
    outer loop
      vertex 5.57002 5.10051 0
      vertex 9.55341 1.66666 0
      vertex 8.80928 0.779846 0
    endloop
  endfacet
  facet normal 0 0 -1
    outer loop
      vertex 7.80673 0.201019 0
      vertex 5.57002 5.10051 0
      vertex 8.80928 0.779846 0
    endloop
  endfacet
  facet normal -0 0 -1
    outer loop
      vertex 7.80673 0.201019 0
      vertex 6.66666 0 0
      vertex 5.57002 5.10051 0
    endloop
  endfacet
  facet normal 0 -0 -1
    outer loop
      vertex 5.57002 5.10051 0
      vertex 6.66666 0 0
      vertex 5 5 0
    endloop
  endfacet
  facet normal 0 0 -1
    outer loop
      vertex 6.64134 6.64134 0
      vertex 6.44337 7.5 0
      vertex 6.64134 6.95607 0
    endloop
  endfacet
  facet normal -0 0 -1
    outer loop
      vertex 5 5 0
      vertex 0 0 0
      vertex 0 10 0
    endloop
  endfacet
  facet normal 0 0 -1
    outer loop
      vertex 6.64134 6.64134 0
      vertex 6.0713 7.94341 0
      vertex 6.44337 7.5 0
    endloop
  endfacet
  facet normal 0 0 -1
    outer loop
      vertex 6.64134 6.64134 0
      vertex 5.57002 8.23282 0
      vertex 6.0713 7.94341 0
    endloop
  endfacet
  facet normal 0 0 -1
    outer loop
      vertex 6.64134 6.64134 0
      vertex 5 8.33333 0
      vertex 5.57002 8.23282 0
    endloop
  endfacet
  facet normal -0 0 -1
    outer loop
      vertex 6.64134 6.64134 0
      vertex 5 5 0
      vertex 5 8.33333 0
    endloop
  endfacet
  facet normal -0 -0 -1
    outer loop
      vertex 5 8.33333 0
      vertex 5 5 0
      vertex 0 10 0
    endloop
  endfacet
  facet normal 0 -0 -1
    outer loop
      vertex 5 5 0
      vertex 6.66666 0 0
      vertex 0 0 0
    endloop
  endfacet
  facet normal 0 0 1
    outer loop
      vertex 6.0713 5.38992 10
      vertex 9.94936 2.7545 10
      vertex 9.94936 3.91216 10
    endloop
  endfacet
  facet normal 0 0 1
    outer loop
      vertex 8.80928 5.88681 10
      vertex 7.80673 6.46564 10
      vertex 6.44337 5.83333 10
    endloop
  endfacet
  facet normal 0 0 1
    outer loop
      vertex 9.55341 5 10
      vertex 6.0713 5.38992 10
      vertex 9.94936 3.91216 10
    endloop
  endfacet
  facet normal 0 0 1
    outer loop
      vertex 8.80928 5.88681 10
      vertex 6.44337 5.83333 10
      vertex 6.0713 5.38992 10
    endloop
  endfacet
  facet normal -0 0 1
    outer loop
      vertex 6.64134 6.37724 10
      vertex 6.44337 5.83333 10
      vertex 7.80673 6.46564 10
    endloop
  endfacet
  facet normal 0 0 1
    outer loop
      vertex 6.64134 6.37724 10
      vertex 7.80673 6.46564 10
      vertex 6.66666 6.66666 10
    endloop
  endfacet
  facet normal 0 0 1
    outer loop
      vertex 6.64134 6.37724 10
      vertex 6.66666 6.66666 10
      vertex 6.64134 6.64134 10
    endloop
  endfacet
  facet normal 0 0 1
    outer loop
      vertex 8.80928 5.88681 10
      vertex 6.0713 5.38992 10
      vertex 9.55341 5 10
    endloop
  endfacet
  facet normal 0 0 1
    outer loop
      vertex 6.0713 5.38992 10
      vertex 9.55341 1.66666 10
      vertex 9.94936 2.7545 10
    endloop
  endfacet
  facet normal -0 0 1
    outer loop
      vertex 5.57002 5.10051 10
      vertex 9.55341 1.66666 10
      vertex 6.0713 5.38992 10
    endloop
  endfacet
  facet normal 0 -0 1
    outer loop
      vertex 8.80928 0.779846 10
      vertex 9.55341 1.66666 10
      vertex 5.57002 5.10051 10
    endloop
  endfacet
  facet normal 0 0 1
    outer loop
      vertex 8.80928 0.779846 10
      vertex 5.57002 5.10051 10
      vertex 7.80673 0.201019 10
    endloop
  endfacet
  facet normal 0 0 1
    outer loop
      vertex 5.57002 5.10051 10
      vertex 6.66666 0 10
      vertex 7.80673 0.201019 10
    endloop
  endfacet
  facet normal -0 0 1
    outer loop
      vertex 5 5 10
      vertex 6.66666 0 10
      vertex 5.57002 5.10051 10
    endloop
  endfacet
  facet normal 0 0 1
    outer loop
      vertex 6.64134 6.95607 10
      vertex 6.44337 7.5 10
      vertex 6.64134 6.64134 10
    endloop
  endfacet
  facet normal 0 0 1
    outer loop
      vertex 0 10 10
      vertex 0 0 10
      vertex 5 5 10
    endloop
  endfacet
  facet normal 0 0 1
    outer loop
      vertex 6.44337 7.5 10
      vertex 6.0713 7.94341 10
      vertex 6.64134 6.64134 10
    endloop
  endfacet
  facet normal 0 0 1
    outer loop
      vertex 6.0713 7.94341 10
      vertex 5.57002 8.23282 10
      vertex 6.64134 6.64134 10
    endloop
  endfacet
  facet normal 0 0 1
    outer loop
      vertex 5.57002 8.23282 10
      vertex 5 8.33333 10
      vertex 6.64134 6.64134 10
    endloop
  endfacet
  facet normal 0 0 1
    outer loop
      vertex 5 8.33333 10
      vertex 5 5 10
      vertex 6.64134 6.64134 10
    endloop
  endfacet
  facet normal 0 0 1
    outer loop
      vertex 0 10 10
      vertex 5 5 10
      vertex 5 8.33333 10
    endloop
  endfacet
  facet normal 0 0 1
    outer loop
      vertex 0 0 10
      vertex 6.66666 0 10
      vertex 5 5 10
    endloop
  endfacet
  facet normal 0.500003 -0.866024 0
    outer loop
      vertex 8.80928 0.779846 0
      vertex 7.80673 0.201019 10
      vertex 7.80673 0.201019 0
    endloop
  endfacet
  facet normal 0.500003 -0.866024 0
    outer loop
      vertex 8.80928 0.779846 0
      vertex 8.80928 0.779846 10
      vertex 7.80673 0.201019 10
    endloop
  endfacet
  facet normal 0.766042 -0.64279 0
    outer loop
      vertex 9.55341 1.66666 0
      vertex 8.80928 0.779846 10
      vertex 8.80928 0.779846 0
    endloop
  endfacet
  facet normal 0.766042 -0.64279 0
    outer loop
      vertex 9.55341 1.66666 0
      vertex 9.55341 1.66666 10
      vertex 8.80928 0.779846 10
    endloop
  endfacet
  facet normal 0.93969 -0.342027 0
    outer loop
      vertex 9.94936 2.7545 0
      vertex 9.55341 1.66666 10
      vertex 9.55341 1.66666 0
    endloop
  endfacet
  facet normal 0.93969 -0.342027 0
    outer loop
      vertex 9.94936 2.7545 0
      vertex 9.94936 2.7545 10
      vertex 9.55341 1.66666 10
    endloop
  endfacet
  facet normal 1 0 0
    outer loop
      vertex 9.94936 3.91216 0
      vertex 9.94936 2.7545 10
      vertex 9.94936 2.7545 0
    endloop
  endfacet
  facet normal 1 0 -0
    outer loop
      vertex 9.94936 3.91216 0
      vertex 9.94936 3.91216 10
      vertex 9.94936 2.7545 10
    endloop
  endfacet
  facet normal 0.93969 0.342027 0
    outer loop
      vertex 9.55341 5 0
      vertex 9.94936 3.91216 10
      vertex 9.94936 3.91216 0
    endloop
  endfacet
  facet normal 0.93969 0.342027 -0
    outer loop
      vertex 9.55341 5 0
      vertex 9.55341 5 10
      vertex 9.94936 3.91216 10
    endloop
  endfacet
  facet normal 0.766041 0.642792 0
    outer loop
      vertex 8.80928 5.88681 0
      vertex 9.55341 5 10
      vertex 9.55341 5 0
    endloop
  endfacet
  facet normal 0.766041 0.642792 -0
    outer loop
      vertex 8.80928 5.88681 0
      vertex 8.80928 5.88681 10
      vertex 9.55341 5 10
    endloop
  endfacet
  facet normal 0.500005 0.866023 0
    outer loop
      vertex 7.80673 6.46564 0
      vertex 8.80928 5.88681 10
      vertex 8.80928 5.88681 0
    endloop
  endfacet
  facet normal 0.500005 0.866023 -0
    outer loop
      vertex 7.80673 6.46564 0
      vertex 7.80673 6.46564 10
      vertex 8.80928 5.88681 10
    endloop
  endfacet
  facet normal 0.173644 0.984809 0
    outer loop
      vertex 6.66666 6.66666 0
      vertex 7.80673 6.46564 10
      vertex 7.80673 6.46564 0
    endloop
  endfacet
  facet normal 0.173644 0.984809 -0
    outer loop
      vertex 6.66666 6.66666 0
      vertex 6.66666 6.66666 10
      vertex 7.80673 6.46564 10
    endloop
  endfacet
  facet normal -0.707107 0.707107 0
    outer loop
      vertex 6.64134 6.64134 0
      vertex 6.66666 6.66666 10
      vertex 6.66666 6.66666 0
    endloop
  endfacet
  facet normal -0.707107 0.707107 0
    outer loop
      vertex 6.64134 6.64134 0
      vertex 6.64134 6.64134 10
      vertex 6.66666 6.66666 10
    endloop
  endfacet
  facet normal -1 0 0
    outer loop
      vertex 6.64134 6.37724 0
      vertex 6.64134 6.64134 10
      vertex 6.64134 6.64134 0
    endloop
  endfacet
  facet normal -1 0 0
    outer loop
      vertex 6.64134 6.37724 0
      vertex 6.64134 6.37724 10
      vertex 6.64134 6.64134 10
    endloop
  endfacet
  facet normal -0.939691 0.342025 0
    outer loop
      vertex 6.44337 5.83333 0
      vertex 6.64134 6.37724 10
      vertex 6.64134 6.37724 0
    endloop
  endfacet
  facet normal -0.939691 0.342025 0
    outer loop
      vertex 6.44337 5.83333 0
      vertex 6.44337 5.83333 10
      vertex 6.64134 6.37724 10
    endloop
  endfacet
  facet normal -0.76604 0.642793 0
    outer loop
      vertex 6.0713 5.38992 0
      vertex 6.44337 5.83333 10
      vertex 6.44337 5.83333 0
    endloop
  endfacet
  facet normal -0.76604 0.642793 0
    outer loop
      vertex 6.0713 5.38992 0
      vertex 6.0713 5.38992 10
      vertex 6.44337 5.83333 10
    endloop
  endfacet
  facet normal -0.499995 0.866029 0
    outer loop
      vertex 5.57002 5.10051 0
      vertex 6.0713 5.38992 10
      vertex 6.0713 5.38992 0
    endloop
  endfacet
  facet normal -0.499995 0.866029 0
    outer loop
      vertex 5.57002 5.10051 0
      vertex 5.57002 5.10051 10
      vertex 6.0713 5.38992 10
    endloop
  endfacet
  facet normal -0.173648 0.984808 0
    outer loop
      vertex 5 5 0
      vertex 5.57002 5.10051 10
      vertex 5.57002 5.10051 0
    endloop
  endfacet
  facet normal -0.173648 0.984808 0
    outer loop
      vertex 5 5 0
      vertex 5 5 10
      vertex 5.57002 5.10051 10
    endloop
  endfacet
  facet normal 0.707107 -0.707107 0
    outer loop
      vertex 6.64134 6.64134 0
      vertex 5 5 10
      vertex 5 5 0
    endloop
  endfacet
  facet normal 0.707107 -0.707107 0
    outer loop
      vertex 6.64134 6.64134 0
      vertex 6.64134 6.64134 10
      vertex 5 5 10
    endloop
  endfacet
  facet normal 1 0 0
    outer loop
      vertex 6.64134 6.95607 0
      vertex 6.64134 6.64134 10
      vertex 6.64134 6.64134 0
    endloop
  endfacet
  facet normal 1 0 -0
    outer loop
      vertex 6.64134 6.95607 0
      vertex 6.64134 6.95607 10
      vertex 6.64134 6.64134 10
    endloop
  endfacet
  facet normal 0.939695 0.342014 0
    outer loop
      vertex 6.44337 7.5 0
      vertex 6.64134 6.95607 10
      vertex 6.64134 6.95607 0
    endloop
  endfacet
  facet normal 0.939695 0.342014 -0
    outer loop
      vertex 6.44337 7.5 0
      vertex 6.44337 7.5 10
      vertex 6.64134 6.95607 10
    endloop
  endfacet
  facet normal 0.76604 0.642793 0
    outer loop
      vertex 6.0713 7.94341 0
      vertex 6.44337 7.5 10
      vertex 6.44337 7.5 0
    endloop
  endfacet
  facet normal 0.76604 0.642793 -0
    outer loop
      vertex 6.0713 7.94341 0
      vertex 6.0713 7.94341 10
      vertex 6.44337 7.5 10
    endloop
  endfacet
  facet normal 0.499995 0.866029 0
    outer loop
      vertex 5.57002 8.23282 0
      vertex 6.0713 7.94341 10
      vertex 6.0713 7.94341 0
    endloop
  endfacet
  facet normal 0.499995 0.866029 -0
    outer loop
      vertex 5.57002 8.23282 0
      vertex 5.57002 8.23282 10
      vertex 6.0713 7.94341 10
    endloop
  endfacet
  facet normal 0.173648 0.984808 0
    outer loop
      vertex 5 8.33333 0
      vertex 5.57002 8.23282 10
      vertex 5.57002 8.23282 0
    endloop
  endfacet
  facet normal 0.173648 0.984808 -0
    outer loop
      vertex 5 8.33333 0
      vertex 5 8.33333 10
      vertex 5.57002 8.23282 10
    endloop
  endfacet
  facet normal 0.316228 0.948683 0
    outer loop
      vertex 0 10 0
      vertex 5 8.33333 10
      vertex 5 8.33333 0
    endloop
  endfacet
  facet normal 0.316228 0.948683 -0
    outer loop
      vertex 0 10 0
      vertex 0 10 10
      vertex 5 8.33333 10
    endloop
  endfacet
  facet normal -1 0 0
    outer loop
      vertex 0 0 0
      vertex 0 10 10
      vertex 0 10 0
    endloop
  endfacet
  facet normal -1 0 0
    outer loop
      vertex 0 0 0
      vertex 0 0 10
      vertex 0 10 10
    endloop
  endfacet
  facet normal 0 -1 0
    outer loop
      vertex 6.66666 0 0
      vertex 0 0 10
      vertex 0 0 0
    endloop
  endfacet
  facet normal 0 -1 0
    outer loop
      vertex 6.66666 0 0
      vertex 6.66666 0 10
      vertex 0 0 10
    endloop
  endfacet
  facet normal 0.173643 -0.984809 0
    outer loop
      vertex 7.80673 0.201019 0
      vertex 6.66666 0 10
      vertex 6.66666 0 0
    endloop
  endfacet
  facet normal 0.173643 -0.984809 0
    outer loop
      vertex 7.80673 0.201019 0
      vertex 7.80673 0.201019 10
      vertex 6.66666 0 10
    endloop
  endfacet
endsolid OpenSCAD_Model
