solid OpenSCAD_Model
  facet normal 0 0 -1
    outer loop
      vertex 13.3333 3.33333 0
      vertex 13.3333 9.99998 0
      vertex 16.2201 4.99998 0
    endloop
  endfacet
  facet normal 0 0 -1
    outer loop
      vertex 11.0713 12.0566 0
      vertex 10.57 11.7672 0
      vertex 10 11.6667 0
    endloop
  endfacet
  facet normal 0 0 -1
    outer loop
      vertex 11.0713 12.0566 0
      vertex 11.6413 13.6227 0
      vertex 11.6413 13.0439 0
    endloop
  endfacet
  facet normal 0 0 -1
    outer loop
      vertex 11.0713 12.0566 0
      vertex 11.6413 13.0439 0
      vertex 11.4434 12.5 0
    endloop
  endfacet
  facet normal -0 0 -1
    outer loop
      vertex 14.4734 3.53435 0
      vertex 13.3333 3.33333 0
      vertex 15.4759 4.11317 0
    endloop
  endfacet
  facet normal -0 -0 -1
    outer loop
      vertex 16.616 7.24548 0
      vertex 16.616 6.08783 0
      vertex 16.2201 8.33333 0
    endloop
  endfacet
  facet normal 0 0 -1
    outer loop
      vertex 11.0713 12.0566 0
      vertex 11.0713 14.6101 0
      vertex 11.6413 13.6227 0
    endloop
  endfacet
  facet normal -0 0 -1
    outer loop
      vertex 16.616 6.08783 0
      vertex 16.2201 4.99998 0
      vertex 16.2201 8.33333 0
    endloop
  endfacet
  facet normal 0 0 -1
    outer loop
      vertex 11.6413 13.6227 0
      vertex 11.0713 14.6101 0
      vertex 11.4434 14.1667 0
    endloop
  endfacet
  facet normal 0 0 -1
    outer loop
      vertex 15.4759 9.22014 0
      vertex 13.3333 9.99998 0
      vertex 14.4734 9.79897 0
    endloop
  endfacet
  facet normal 0 0 -1
    outer loop
      vertex 11.0713 12.0566 0
      vertex 10 15 0
      vertex 11.0713 14.6101 0
    endloop
  endfacet
  facet normal 0 0 -1
    outer loop
      vertex 11.0713 14.6101 0
      vertex 10 15 0
      vertex 10.57 14.8995 0
    endloop
  endfacet
  facet normal -0 0 -1
    outer loop
      vertex 11.0713 12.0566 0
      vertex 10 11.6667 0
      vertex 10 15 0
    endloop
  endfacet
  facet normal -0 0 -1
    outer loop
      vertex 15.4759 4.11317 0
      vertex 13.3333 3.33333 0
      vertex 16.2201 4.99998 0
    endloop
  endfacet
  facet normal -0 -0 -1
    outer loop
      vertex 6.66666 6.66666 0
      vertex 6.66666 0 0
      vertex 5 6.66666 0
    endloop
  endfacet
  facet normal -0 0 -1
    outer loop
      vertex 5 6.66666 0
      vertex 0 0 0
      vertex 0 10 0
    endloop
  endfacet
  facet normal -0 -0 -1
    outer loop
      vertex 5 10 0
      vertex 5 6.66666 0
      vertex 0 10 0
    endloop
  endfacet
  facet normal 0 -0 -1
    outer loop
      vertex 5 6.66666 0
      vertex 6.66666 0 0
      vertex 0 0 0
    endloop
  endfacet
  facet normal -0 -0 -1
    outer loop
      vertex 16.2201 8.33333 0
      vertex 16.2201 4.99998 0
      vertex 13.3333 9.99998 0
    endloop
  endfacet
  facet normal -0 -0 -1
    outer loop
      vertex 15.4759 9.22014 0
      vertex 16.2201 8.33333 0
      vertex 13.3333 9.99998 0
    endloop
  endfacet
  facet normal 0 0 1
    outer loop
      vertex 16.2201 4.99998 10
      vertex 13.3333 9.99998 10
      vertex 13.3333 3.33333 10
    endloop
  endfacet
  facet normal 0 0 1
    outer loop
      vertex 10 11.6667 10
      vertex 10.57 11.7672 10
      vertex 11.0713 12.0566 10
    endloop
  endfacet
  facet normal 0 -0 1
    outer loop
      vertex 11.6413 13.0439 10
      vertex 11.6413 13.6227 10
      vertex 11.0713 12.0566 10
    endloop
  endfacet
  facet normal 0 -0 1
    outer loop
      vertex 11.4434 12.5 10
      vertex 11.6413 13.0439 10
      vertex 11.0713 12.0566 10
    endloop
  endfacet
  facet normal 0 0 1
    outer loop
      vertex 15.4759 4.11317 10
      vertex 13.3333 3.33333 10
      vertex 14.4734 3.53435 10
    endloop
  endfacet
  facet normal 0 0 1
    outer loop
      vertex 16.2201 8.33333 10
      vertex 16.616 6.08783 10
      vertex 16.616 7.24548 10
    endloop
  endfacet
  facet normal 0 0 1
    outer loop
      vertex 11.6413 13.6227 10
      vertex 11.0713 14.6101 10
      vertex 11.0713 12.0566 10
    endloop
  endfacet
  facet normal 0 0 1
    outer loop
      vertex 16.2201 8.33333 10
      vertex 16.2201 4.99998 10
      vertex 16.616 6.08783 10
    endloop
  endfacet
  facet normal 0 0 1
    outer loop
      vertex 11.4434 14.1667 10
      vertex 11.0713 14.6101 10
      vertex 11.6413 13.6227 10
    endloop
  endfacet
  facet normal 0 0 1
    outer loop
      vertex 14.4734 9.79897 10
      vertex 13.3333 9.99998 10
      vertex 15.4759 9.22014 10
    endloop
  endfacet
  facet normal 0 0 1
    outer loop
      vertex 11.0713 14.6101 10
      vertex 10 15 10
      vertex 11.0713 12.0566 10
    endloop
  endfacet
  facet normal 0 0 1
    outer loop
      vertex 10.57 14.8995 10
      vertex 10 15 10
      vertex 11.0713 14.6101 10
    endloop
  endfacet
  facet normal 0 0 1
    outer loop
      vertex 10 15 10
      vertex 10 11.6667 10
      vertex 11.0713 12.0566 10
    endloop
  endfacet
  facet normal 0 0 1
    outer loop
      vertex 16.2201 4.99998 10
      vertex 13.3333 3.33333 10
      vertex 15.4759 4.11317 10
    endloop
  endfacet
  facet normal -0 0 1
    outer loop
      vertex 5 6.66666 10
      vertex 6.66666 0 10
      vertex 6.66666 6.66666 10
    endloop
  endfacet
  facet normal 0 0 1
    outer loop
      vertex 0 10 10
      vertex 0 0 10
      vertex 5 6.66666 10
    endloop
  endfacet
  facet normal -0 0 1
    outer loop
      vertex 0 10 10
      vertex 5 6.66666 10
      vertex 5 10 10
    endloop
  endfacet
  facet normal 0 0 1
    outer loop
      vertex 0 0 10
      vertex 6.66666 0 10
      vertex 5 6.66666 10
    endloop
  endfacet
  facet normal 0 0 1
    outer loop
      vertex 13.3333 9.99998 10
      vertex 16.2201 4.99998 10
      vertex 16.2201 8.33333 10
    endloop
  endfacet
  facet normal 0 0 1
    outer loop
      vertex 13.3333 9.99998 10
      vertex 16.2201 8.33333 10
      vertex 15.4759 9.22014 10
    endloop
  endfacet
  facet normal 0.499967 -0.866045 0
    outer loop
      vertex 11.0713 12.0566 0
      vertex 10.57 11.7672 10
      vertex 10.57 11.7672 0
    endloop
  endfacet
  facet normal 0.499967 -0.866045 0
    outer loop
      vertex 11.0713 12.0566 0
      vertex 11.0713 12.0566 10
      vertex 10.57 11.7672 10
    endloop
  endfacet
  facet normal 0.766008 -0.642831 0
    outer loop
      vertex 11.4434 12.5 0
      vertex 11.0713 12.0566 10
      vertex 11.0713 12.0566 0
    endloop
  endfacet
  facet normal 0.766008 -0.642831 0
    outer loop
      vertex 11.4434 12.5 0
      vertex 11.4434 12.5 10
      vertex 11.0713 12.0566 10
    endloop
  endfacet
  facet normal 0.939728 -0.341923 0
    outer loop
      vertex 11.6413 13.0439 0
      vertex 11.4434 12.5 10
      vertex 11.4434 12.5 0
    endloop
  endfacet
  facet normal 0.939728 -0.341923 0
    outer loop
      vertex 11.6413 13.0439 0
      vertex 11.6413 13.0439 10
      vertex 11.4434 12.5 10
    endloop
  endfacet
  facet normal 1 0 0
    outer loop
      vertex 11.6413 13.6227 0
      vertex 11.6413 13.0439 10
      vertex 11.6413 13.0439 0
    endloop
  endfacet
  facet normal 1 0 -0
    outer loop
      vertex 11.6413 13.6227 0
      vertex 11.6413 13.6227 10
      vertex 11.6413 13.0439 10
    endloop
  endfacet
  facet normal 0.939748 0.341868 0
    outer loop
      vertex 11.4434 14.1667 0
      vertex 11.6413 13.6227 10
      vertex 11.6413 13.6227 0
    endloop
  endfacet
  facet normal 0.939748 0.341868 -0
    outer loop
      vertex 11.4434 14.1667 0
      vertex 11.4434 14.1667 10
      vertex 11.6413 13.6227 10
    endloop
  endfacet
  facet normal 0.766008 0.642831 0
    outer loop
      vertex 11.0713 14.6101 0
      vertex 11.4434 14.1667 10
      vertex 11.4434 14.1667 0
    endloop
  endfacet
  facet normal 0.766008 0.642831 -0
    outer loop
      vertex 11.0713 14.6101 0
      vertex 11.0713 14.6101 10
      vertex 11.4434 14.1667 10
    endloop
  endfacet
  facet normal 0.499967 0.866045 0
    outer loop
      vertex 10.57 14.8995 0
      vertex 11.0713 14.6101 10
      vertex 11.0713 14.6101 0
    endloop
  endfacet
  facet normal 0.499967 0.866045 -0
    outer loop
      vertex 10.57 14.8995 0
      vertex 10.57 14.8995 10
      vertex 11.0713 14.6101 10
    endloop
  endfacet
  facet normal 0.173637 0.98481 0
    outer loop
      vertex 10 15 0
      vertex 10.57 14.8995 10
      vertex 10.57 14.8995 0
    endloop
  endfacet
  facet normal 0.173637 0.98481 -0
    outer loop
      vertex 10 15 0
      vertex 10 15 10
      vertex 10.57 14.8995 10
    endloop
  endfacet
  facet normal -1 0 0
    outer loop
      vertex 10 11.6667 0
      vertex 10 15 10
      vertex 10 15 0
    endloop
  endfacet
  facet normal -1 0 0
    outer loop
      vertex 10 11.6667 0
      vertex 10 11.6667 10
      vertex 10 15 10
    endloop
  endfacet
  facet normal 0.173637 -0.98481 0
    outer loop
      vertex 10.57 11.7672 0
      vertex 10 11.6667 10
      vertex 10 11.6667 0
    endloop
  endfacet
  facet normal 0.173637 -0.98481 0
    outer loop
      vertex 10.57 11.7672 0
      vertex 10.57 11.7672 10
      vertex 10 11.6667 10
    endloop
  endfacet
  facet normal 0 1 0
    outer loop
      vertex 5 6.66666 0
      vertex 6.66666 6.66666 10
      vertex 6.66666 6.66666 0
    endloop
  endfacet
  facet normal 0 1 0
    outer loop
      vertex 5 6.66666 0
      vertex 5 6.66666 10
      vertex 6.66666 6.66666 10
    endloop
  endfacet
  facet normal 1 0 0
    outer loop
      vertex 5 10 0
      vertex 5 6.66666 10
      vertex 5 6.66666 0
    endloop
  endfacet
  facet normal 1 0 -0
    outer loop
      vertex 5 10 0
      vertex 5 10 10
      vertex 5 6.66666 10
    endloop
  endfacet
  facet normal 0 1 0
    outer loop
      vertex 0 10 0
      vertex 5 10 10
      vertex 5 10 0
    endloop
  endfacet
  facet normal 0 1 0
    outer loop
      vertex 0 10 0
      vertex 0 10 10
      vertex 5 10 10
    endloop
  endfacet
  facet normal -1 0 0
    outer loop
      vertex 0 0 0
      vertex 0 10 10
      vertex 0 10 0
    endloop
  endfacet
  facet normal -1 0 0
    outer loop
      vertex 0 0 0
      vertex 0 0 10
      vertex 0 10 10
    endloop
  endfacet
  facet normal 0 -1 0
    outer loop
      vertex 6.66666 0 0
      vertex 0 0 10
      vertex 0 0 0
    endloop
  endfacet
  facet normal 0 -1 0
    outer loop
      vertex 6.66666 0 0
      vertex 6.66666 0 10
      vertex 0 0 10
    endloop
  endfacet
  facet normal 1 0 0
    outer loop
      vertex 6.66666 6.66666 0
      vertex 6.66666 0 10
      vertex 6.66666 0 0
    endloop
  endfacet
  facet normal 1 0 -0
    outer loop
      vertex 6.66666 6.66666 0
      vertex 6.66666 6.66666 10
      vertex 6.66666 0 10
    endloop
  endfacet
  facet normal 0.500017 -0.866016 0
    outer loop
      vertex 15.4759 4.11317 0
      vertex 14.4734 3.53435 10
      vertex 14.4734 3.53435 0
    endloop
  endfacet
  facet normal 0.500017 -0.866016 0
    outer loop
      vertex 15.4759 4.11317 0
      vertex 15.4759 4.11317 10
      vertex 14.4734 3.53435 10
    endloop
  endfacet
  facet normal 0.766011 -0.642827 0
    outer loop
      vertex 16.2201 4.99998 0
      vertex 15.4759 4.11317 10
      vertex 15.4759 4.11317 0
    endloop
  endfacet
  facet normal 0.766011 -0.642827 0
    outer loop
      vertex 16.2201 4.99998 0
      vertex 16.2201 4.99998 10
      vertex 15.4759 4.11317 10
    endloop
  endfacet
  facet normal 0.939705 -0.341986 0
    outer loop
      vertex 16.616 6.08783 0
      vertex 16.2201 4.99998 10
      vertex 16.2201 4.99998 0
    endloop
  endfacet
  facet normal 0.939705 -0.341986 0
    outer loop
      vertex 16.616 6.08783 0
      vertex 16.616 6.08783 10
      vertex 16.2201 4.99998 10
    endloop
  endfacet
  facet normal 1 0 0
    outer loop
      vertex 16.616 7.24548 0
      vertex 16.616 6.08783 10
      vertex 16.616 6.08783 0
    endloop
  endfacet
  facet normal 1 0 -0
    outer loop
      vertex 16.616 7.24548 0
      vertex 16.616 7.24548 10
      vertex 16.616 6.08783 10
    endloop
  endfacet
  facet normal 0.939705 0.341986 0
    outer loop
      vertex 16.2201 8.33333 0
      vertex 16.616 7.24548 10
      vertex 16.616 7.24548 0
    endloop
  endfacet
  facet normal 0.939705 0.341986 -0
    outer loop
      vertex 16.2201 8.33333 0
      vertex 16.2201 8.33333 10
      vertex 16.616 7.24548 10
    endloop
  endfacet
  facet normal 0.766011 0.642827 0
    outer loop
      vertex 15.4759 9.22014 0
      vertex 16.2201 8.33333 10
      vertex 16.2201 8.33333 0
    endloop
  endfacet
  facet normal 0.766011 0.642827 -0
    outer loop
      vertex 15.4759 9.22014 0
      vertex 15.4759 9.22014 10
      vertex 16.2201 8.33333 10
    endloop
  endfacet
  facet normal 0.500024 0.866012 0
    outer loop
      vertex 14.4734 9.79897 0
      vertex 15.4759 9.22014 10
      vertex 15.4759 9.22014 0
    endloop
  endfacet
  facet normal 0.500024 0.866012 -0
    outer loop
      vertex 14.4734 9.79897 0
      vertex 14.4734 9.79897 10
      vertex 15.4759 9.22014 10
    endloop
  endfacet
  facet normal 0.173631 0.984811 0
    outer loop
      vertex 13.3333 9.99998 0
      vertex 14.4734 9.79897 10
      vertex 14.4734 9.79897 0
    endloop
  endfacet
  facet normal 0.173631 0.984811 -0
    outer loop
      vertex 13.3333 9.99998 0
      vertex 13.3333 9.99998 10
      vertex 14.4734 9.79897 10
    endloop
  endfacet
  facet normal -1 0 0
    outer loop
      vertex 13.3333 3.33333 0
      vertex 13.3333 9.99998 10
      vertex 13.3333 9.99998 0
    endloop
  endfacet
  facet normal -1 0 0
    outer loop
      vertex 13.3333 3.33333 0
      vertex 13.3333 3.33333 10
      vertex 13.3333 9.99998 10
    endloop
  endfacet
  facet normal 0.173639 -0.984809 0
    outer loop
      vertex 14.4734 3.53435 0
      vertex 13.3333 3.33333 10
      vertex 13.3333 3.33333 0
    endloop
  endfacet
  facet normal 0.173639 -0.984809 0
    outer loop
      vertex 14.4734 3.53435 0
      vertex 14.4734 3.53435 10
      vertex 13.3333 3.33333 10
    endloop
  endfacet
endsolid OpenSCAD_Model
