solid OpenSCAD_Model
  facet normal -1 0 0
    outer loop
      vertex -5 -1.66667 -1.66666
      vertex -5 -1.66667 1.66667
      vertex -5 5 0
    endloop
  endfacet
  facet normal -1 0 0
    outer loop
      vertex -5 5 0
      vertex -5 -1.66667 1.66667
      vertex -5 -5 5
    endloop
  endfacet
  facet normal -1 0 0
    outer loop
      vertex -5 -1.66667 -1.66666
      vertex -5 -5 -5
      vertex -5 -5 -3.33333
    endloop
  endfacet
  facet normal -1 0 -0
    outer loop
      vertex -5 -1.66667 -1.66666
      vertex -5 5 0
      vertex -5 -5 -5
    endloop
  endfacet
  facet normal -1 0 0
    outer loop
      vertex -5 -5 3.33334
      vertex -5 -5 5
      vertex -5 -1.66667 1.66667
    endloop
  endfacet
  facet normal 1 0 0
    outer loop
      vertex 5 5 0
      vertex 5 -1.66667 1.66667
      vertex 5 -1.66667 -1.66666
    endloop
  endfacet
  facet normal 1 0 0
    outer loop
      vertex 5 -5 5
      vertex 5 -1.66667 1.66667
      vertex 5 5 0
    endloop
  endfacet
  facet normal 1 -0 0
    outer loop
      vertex 5 -5 -3.33333
      vertex 5 -5 -5
      vertex 5 -1.66667 -1.66666
    endloop
  endfacet
  facet normal 1 0 0
    outer loop
      vertex 5 -5 -5
      vertex 5 5 0
      vertex 5 -1.66667 -1.66666
    endloop
  endfacet
  facet normal 1 0 0
    outer loop
      vertex 5 -1.66667 1.66667
      vertex 5 -5 5
      vertex 5 -5 3.33334
    endloop
  endfacet
  facet normal 0 -1 0
    outer loop
      vertex -5 -1.66667 -1.66666
      vertex 5 -1.66667 1.66667
      vertex -5 -1.66667 1.66667
    endloop
  endfacet
  facet normal 0 -1 0
    outer loop
      vertex -5 -1.66667 -1.66666
      vertex 5 -1.66667 -1.66666
      vertex 5 -1.66667 1.66667
    endloop
  endfacet
  facet normal 0 -0.447215 0.894427
    outer loop
      vertex -5 -5 -3.33333
      vertex 5 -1.66667 -1.66666
      vertex -5 -1.66667 -1.66666
    endloop
  endfacet
  facet normal 0 -0.447215 0.894427
    outer loop
      vertex -5 -5 -3.33333
      vertex 5 -5 -3.33333
      vertex 5 -1.66667 -1.66666
    endloop
  endfacet
  facet normal 0 -1 0
    outer loop
      vertex -5 -5 -5
      vertex 5 -5 -3.33333
      vertex -5 -5 -3.33333
    endloop
  endfacet
  facet normal 0 -1 0
    outer loop
      vertex -5 -5 -5
      vertex 5 -5 -5
      vertex 5 -5 -3.33333
    endloop
  endfacet
  facet normal 0 0.447214 -0.894427
    outer loop
      vertex -5 5 0
      vertex 5 -5 -5
      vertex -5 -5 -5
    endloop
  endfacet
  facet normal 0 0.447214 -0.894427
    outer loop
      vertex -5 5 0
      vertex 5 5 0
      vertex 5 -5 -5
    endloop
  endfacet
  facet normal 0 0.447214 0.894427
    outer loop
      vertex -5 -5 5
      vertex 5 5 0
      vertex -5 5 0
    endloop
  endfacet
  facet normal -0 0.447214 0.894427
    outer loop
      vertex -5 -5 5
      vertex 5 -5 5
      vertex 5 5 0
    endloop
  endfacet
  facet normal 0 -1 0
    outer loop
      vertex -5 -5 3.33334
      vertex 5 -5 5
      vertex -5 -5 5
    endloop
  endfacet
  facet normal 0 -1 0
    outer loop
      vertex -5 -5 3.33334
      vertex 5 -5 3.33334
      vertex 5 -5 5
    endloop
  endfacet
  facet normal 0 -0.447215 -0.894427
    outer loop
      vertex -5 -1.66667 1.66667
      vertex 5 -5 3.33334
      vertex -5 -5 3.33334
    endloop
  endfacet
  facet normal 0 -0.447215 -0.894427
    outer loop
      vertex -5 -1.66667 1.66667
      vertex 5 -1.66667 1.66667
      vertex 5 -5 3.33334
    endloop
  endfacet
endsolid OpenSCAD_Model
