solid OpenSCAD_Model
  facet normal 0 0 -1
    outer loop
      vertex -3.88888 -2.77777 -5
      vertex -1.66667 -1.66667 -5
      vertex -2.77779 -3.88889 -5
    endloop
  endfacet
  facet normal -0 0 -1
    outer loop
      vertex -1.66667 -1.66667 -5
      vertex -3.88888 -2.77777 -5
      vertex -1.66667 -1.66666 -5
    endloop
  endfacet
  facet normal 0 -0 -1
    outer loop
      vertex -3.88888 -2.77777 -5
      vertex -2.77779 -3.88889 -5
      vertex -5 -5 -5
    endloop
  endfacet
  facet normal 0 0 -1
    outer loop
      vertex 1.66666 -1.66667 -5
      vertex 1.66667 1.66667 -5
      vertex 3 -1 -5
    endloop
  endfacet
  facet normal 0 0 -1
    outer loop
      vertex -1.66667 1.66666 -5
      vertex 1.66667 1.66667 -5
      vertex 1.66666 -1.66667 -5
    endloop
  endfacet
  facet normal 0 0 -1
    outer loop
      vertex -1.66667 -1.66666 -5
      vertex 1.66666 -1.66667 -5
      vertex -1.66667 -1.66667 -5
    endloop
  endfacet
  facet normal 0 0 -1
    outer loop
      vertex -1.66667 1.66666 -5
      vertex 1.66666 -1.66667 -5
      vertex -1.66667 -1.66666 -5
    endloop
  endfacet
  facet normal -0 0 -1
    outer loop
      vertex 1.66667 1.66667 -5
      vertex -1.66667 1.66666 -5
      vertex -1 3 -5
    endloop
  endfacet
  facet normal 0 0 1
    outer loop
      vertex 1.66667 1.66667 5
      vertex 1.66666 -1.66667 5
      vertex 3 -1 5
    endloop
  endfacet
  facet normal 0 0 1
    outer loop
      vertex -1.66667 1.66666 5
      vertex 1.66667 1.66667 5
      vertex -1 3 5
    endloop
  endfacet
  facet normal 0 0 1
    outer loop
      vertex 1.66667 1.66667 5
      vertex -1.66667 1.66666 5
      vertex 1.66666 -1.66667 5
    endloop
  endfacet
  facet normal -0 0 1
    outer loop
      vertex -1.66667 -1.66666 5
      vertex 1.66666 -1.66667 5
      vertex -1.66667 1.66666 5
    endloop
  endfacet
  facet normal 0 0 1
    outer loop
      vertex -1.66667 -1.66666 5
      vertex -1.66667 -1.66667 5
      vertex 1.66666 -1.66667 5
    endloop
  endfacet
  facet normal 0 0 1
    outer loop
      vertex -3.88888 -2.77777 5
      vertex -1.66667 -1.66667 5
      vertex -1.66667 -1.66666 5
    endloop
  endfacet
  facet normal 0 0 1
    outer loop
      vertex -1.66667 -1.66667 5
      vertex -3.88888 -2.77777 5
      vertex -2.77779 -3.88889 5
    endloop
  endfacet
  facet normal 0 0 1
    outer loop
      vertex -2.77779 -3.88889 5
      vertex -3.88888 -2.77777 5
      vertex -5 -5 5
    endloop
  endfacet
  facet normal 0 -1 0
    outer loop
      vertex -1.66667 -1.66667 -5
      vertex 1.66666 -1.66667 5
      vertex -1.66667 -1.66667 5
    endloop
  endfacet
  facet normal 0 -1 -0
    outer loop
      vertex 1.66666 -1.66667 5
      vertex -1.66667 -1.66667 -5
      vertex 1.66666 -1.66667 -5
    endloop
  endfacet
  facet normal 0.894428 0.447212 0
    outer loop
      vertex 3 -1 5
      vertex 1.66667 1.66667 -5
      vertex 1.66667 1.66667 5
    endloop
  endfacet
  facet normal 0.894428 0.447212 0
    outer loop
      vertex 1.66667 1.66667 -5
      vertex 3 -1 5
      vertex 3 -1 -5
    endloop
  endfacet
  facet normal -0.894426 0.447215 0
    outer loop
      vertex -5 -5 -5
      vertex -3.88888 -2.77777 5
      vertex -3.88888 -2.77777 -5
    endloop
  endfacet
  facet normal -0.894426 0.447215 0
    outer loop
      vertex -3.88888 -2.77777 5
      vertex -5 -5 -5
      vertex -5 -5 5
    endloop
  endfacet
  facet normal -0.894427 0.447214 0
    outer loop
      vertex -1.66667 1.66666 -5
      vertex -1 3 5
      vertex -1 3 -5
    endloop
  endfacet
  facet normal -0.894427 0.447214 0
    outer loop
      vertex -1 3 5
      vertex -1.66667 1.66666 -5
      vertex -1.66667 1.66666 5
    endloop
  endfacet
  facet normal 0.894426 -0.447217 0
    outer loop
      vertex -2.77779 -3.88889 5
      vertex -1.66667 -1.66667 -5
      vertex -1.66667 -1.66667 5
    endloop
  endfacet
  facet normal 0.894426 -0.447217 0
    outer loop
      vertex -1.66667 -1.66667 -5
      vertex -2.77779 -3.88889 5
      vertex -2.77779 -3.88889 -5
    endloop
  endfacet
  facet normal -1 0 0
    outer loop
      vertex -1.66667 -1.66666 -5
      vertex -1.66667 1.66666 5
      vertex -1.66667 1.66666 -5
    endloop
  endfacet
  facet normal -1 -0 0
    outer loop
      vertex -1.66667 1.66666 5
      vertex -1.66667 -1.66666 -5
      vertex -1.66667 -1.66666 5
    endloop
  endfacet
  facet normal -0.447215 0.894426 0
    outer loop
      vertex -1.66667 -1.66666 -5
      vertex -3.88888 -2.77777 5
      vertex -1.66667 -1.66666 5
    endloop
  endfacet
  facet normal -0.447215 0.894426 0
    outer loop
      vertex -3.88888 -2.77777 5
      vertex -1.66667 -1.66666 -5
      vertex -3.88888 -2.77777 -5
    endloop
  endfacet
  facet normal 0.447214 -0.894427 0
    outer loop
      vertex 1.66666 -1.66667 -5
      vertex 3 -1 5
      vertex 1.66666 -1.66667 5
    endloop
  endfacet
  facet normal 0.447214 -0.894427 0
    outer loop
      vertex 3 -1 5
      vertex 1.66666 -1.66667 -5
      vertex 3 -1 -5
    endloop
  endfacet
  facet normal 0.447215 -0.894426 0
    outer loop
      vertex -5 -5 -5
      vertex -2.77779 -3.88889 5
      vertex -5 -5 5
    endloop
  endfacet
  facet normal 0.447215 -0.894426 0
    outer loop
      vertex -2.77779 -3.88889 5
      vertex -5 -5 -5
      vertex -2.77779 -3.88889 -5
    endloop
  endfacet
  facet normal 0.447212 0.894428 -0
    outer loop
      vertex 1.66667 1.66667 -5
      vertex -1 3 5
      vertex 1.66667 1.66667 5
    endloop
  endfacet
  facet normal 0.447212 0.894428 0
    outer loop
      vertex -1 3 5
      vertex 1.66667 1.66667 -5
      vertex -1 3 -5
    endloop
  endfacet
endsolid OpenSCAD_Model
