solid OpenSCAD_Model
  facet normal 0 0 -1
    outer loop
      vertex 1.66666 -1.66667 -5
      vertex 4.40361 -4.12056 -5
      vertex 4.29587 -4.2392 -5
    endloop
  endfacet
  facet normal 0 0 -1
    outer loop
      vertex 1.66666 -1.66667 -5
      vertex 4.29587 -4.2392 -5
      vertex 4.18074 -4.35069 -5
    endloop
  endfacet
  facet normal 0 0 -1
    outer loop
      vertex 1.66666 -1.66667 -5
      vertex 4.18074 -4.35069 -5
      vertex 4.05872 -4.45457 -5
    endloop
  endfacet
  facet normal 0 0 -1
    outer loop
      vertex 1.66666 -1.66667 -5
      vertex 4.05872 -4.45457 -5
      vertex 3.93028 -4.55043 -5
    endloop
  endfacet
  facet normal 0 0 -1
    outer loop
      vertex 1.66666 -1.66667 -5
      vertex 3.93028 -4.55043 -5
      vertex 3.79597 -4.63785 -5
    endloop
  endfacet
  facet normal 0 0 -1
    outer loop
      vertex 1.66666 -1.66667 -5
      vertex 3.79597 -4.63785 -5
      vertex 3.65634 -4.71649 -5
    endloop
  endfacet
  facet normal 0 0 -1
    outer loop
      vertex 1.66666 -1.66667 -5
      vertex 3.65634 -4.71649 -5
      vertex 3.51195 -4.78603 -5
    endloop
  endfacet
  facet normal 0 0 -1
    outer loop
      vertex 1.66666 -1.66667 -5
      vertex 3.51195 -4.78603 -5
      vertex 3.3634 -4.84616 -5
    endloop
  endfacet
  facet normal 0 0 -1
    outer loop
      vertex 1.66666 -1.66667 -5
      vertex 3.3634 -4.84616 -5
      vertex 3.27164 -4.87663 -5
    endloop
  endfacet
  facet normal 0 0 -1
    outer loop
      vertex 4.40361 -4.12056 -5
      vertex 1.66666 -1.66667 -5
      vertex 4.4999 -3.99981 -5
    endloop
  endfacet
  facet normal 0 0 -1
    outer loop
      vertex 1.66666 -1.66667 -5
      vertex 0 5 -5
      vertex 4.4999 -3.99981 -5
    endloop
  endfacet
  facet normal 0 0 -1
    outer loop
      vertex -1.66667 -1.66667 -5
      vertex 0 5 -5
      vertex 1.66666 -1.66667 -5
    endloop
  endfacet
  facet normal 0 0 -1
    outer loop
      vertex -3.51196 -4.78603 -5
      vertex -1.66667 -1.66667 -5
      vertex -3.27166 -4.87663 -5
    endloop
  endfacet
  facet normal 0 0 -1
    outer loop
      vertex -3.51196 -4.78603 -5
      vertex -3.27166 -4.87663 -5
      vertex -3.36342 -4.84616 -5
    endloop
  endfacet
  facet normal 0 0 -1
    outer loop
      vertex -3.65636 -4.71649 -5
      vertex -1.66667 -1.66667 -5
      vertex -3.51196 -4.78603 -5
    endloop
  endfacet
  facet normal 0 0 -1
    outer loop
      vertex -3.79599 -4.63785 -5
      vertex -1.66667 -1.66667 -5
      vertex -3.65636 -4.71649 -5
    endloop
  endfacet
  facet normal 0 0 -1
    outer loop
      vertex -3.9303 -4.55043 -5
      vertex -1.66667 -1.66667 -5
      vertex -3.79599 -4.63785 -5
    endloop
  endfacet
  facet normal 0 0 -1
    outer loop
      vertex -4.05873 -4.45457 -5
      vertex -1.66667 -1.66667 -5
      vertex -3.9303 -4.55043 -5
    endloop
  endfacet
  facet normal 0 0 -1
    outer loop
      vertex -4.18076 -4.35069 -5
      vertex -1.66667 -1.66667 -5
      vertex -4.05873 -4.45457 -5
    endloop
  endfacet
  facet normal 0 0 -1
    outer loop
      vertex -4.29588 -4.2392 -5
      vertex -1.66667 -1.66667 -5
      vertex -4.18076 -4.35069 -5
    endloop
  endfacet
  facet normal 0 0 -1
    outer loop
      vertex -4.40363 -4.12056 -5
      vertex -1.66667 -1.66667 -5
      vertex -4.29588 -4.2392 -5
    endloop
  endfacet
  facet normal 0 0 -1
    outer loop
      vertex -1.66667 -1.66667 -5
      vertex -4.40363 -4.12056 -5
      vertex -4.49991 -3.99982 -5
    endloop
  endfacet
  facet normal -0 0 -1
    outer loop
      vertex -1.66667 -1.66667 -5
      vertex -4.49991 -3.99982 -5
      vertex 0 5 -5
    endloop
  endfacet
  facet normal 0 0 1
    outer loop
      vertex 1.66666 -1.66667 5
      vertex 4.40361 -4.12056 5
      vertex 4.4999 -3.99981 5
    endloop
  endfacet
  facet normal 0 0 1
    outer loop
      vertex 4.40361 -4.12056 5
      vertex 1.66666 -1.66667 5
      vertex 4.29587 -4.2392 5
    endloop
  endfacet
  facet normal 0 0 1
    outer loop
      vertex 4.29587 -4.2392 5
      vertex 1.66666 -1.66667 5
      vertex 4.18074 -4.35069 5
    endloop
  endfacet
  facet normal 0 0 1
    outer loop
      vertex 4.18074 -4.35069 5
      vertex 1.66666 -1.66667 5
      vertex 4.05872 -4.45457 5
    endloop
  endfacet
  facet normal 0 0 1
    outer loop
      vertex 4.05872 -4.45457 5
      vertex 1.66666 -1.66667 5
      vertex 3.93028 -4.55043 5
    endloop
  endfacet
  facet normal 0 0 1
    outer loop
      vertex 3.93028 -4.55043 5
      vertex 1.66666 -1.66667 5
      vertex 3.79597 -4.63785 5
    endloop
  endfacet
  facet normal 0 0 1
    outer loop
      vertex 3.79597 -4.63785 5
      vertex 1.66666 -1.66667 5
      vertex 3.65634 -4.71649 5
    endloop
  endfacet
  facet normal 0 0 1
    outer loop
      vertex 3.65634 -4.71649 5
      vertex 1.66666 -1.66667 5
      vertex 3.51195 -4.78603 5
    endloop
  endfacet
  facet normal 0 0 1
    outer loop
      vertex 3.51195 -4.78603 5
      vertex 1.66666 -1.66667 5
      vertex 3.3634 -4.84616 5
    endloop
  endfacet
  facet normal 0 0 1
    outer loop
      vertex 3.3634 -4.84616 5
      vertex 1.66666 -1.66667 5
      vertex 3.27164 -4.87663 5
    endloop
  endfacet
  facet normal 0 0 1
    outer loop
      vertex 0 5 5
      vertex 1.66666 -1.66667 5
      vertex 4.4999 -3.99981 5
    endloop
  endfacet
  facet normal 0 0 1
    outer loop
      vertex 0 5 5
      vertex -1.66667 -1.66667 5
      vertex 1.66666 -1.66667 5
    endloop
  endfacet
  facet normal 0 0 1
    outer loop
      vertex -4.49991 -3.99982 5
      vertex -1.66667 -1.66667 5
      vertex 0 5 5
    endloop
  endfacet
  facet normal 0 -0 1
    outer loop
      vertex -4.40363 -4.12056 5
      vertex -1.66667 -1.66667 5
      vertex -4.49991 -3.99982 5
    endloop
  endfacet
  facet normal 0 0 1
    outer loop
      vertex -1.66667 -1.66667 5
      vertex -3.51196 -4.78603 5
      vertex -3.27166 -4.87663 5
    endloop
  endfacet
  facet normal 0 0 1
    outer loop
      vertex -3.27166 -4.87663 5
      vertex -3.51196 -4.78603 5
      vertex -3.36342 -4.84616 5
    endloop
  endfacet
  facet normal 0 0 1
    outer loop
      vertex -1.66667 -1.66667 5
      vertex -3.65636 -4.71649 5
      vertex -3.51196 -4.78603 5
    endloop
  endfacet
  facet normal 0 0 1
    outer loop
      vertex -1.66667 -1.66667 5
      vertex -3.79599 -4.63785 5
      vertex -3.65636 -4.71649 5
    endloop
  endfacet
  facet normal 0 0 1
    outer loop
      vertex -1.66667 -1.66667 5
      vertex -3.9303 -4.55043 5
      vertex -3.79599 -4.63785 5
    endloop
  endfacet
  facet normal 0 0 1
    outer loop
      vertex -1.66667 -1.66667 5
      vertex -4.05873 -4.45457 5
      vertex -3.9303 -4.55043 5
    endloop
  endfacet
  facet normal 0 0 1
    outer loop
      vertex -1.66667 -1.66667 5
      vertex -4.18076 -4.35069 5
      vertex -4.05873 -4.45457 5
    endloop
  endfacet
  facet normal 0 0 1
    outer loop
      vertex -1.66667 -1.66667 5
      vertex -4.29588 -4.2392 5
      vertex -4.18076 -4.35069 5
    endloop
  endfacet
  facet normal 0 0 1
    outer loop
      vertex -1.66667 -1.66667 5
      vertex -4.40363 -4.12056 5
      vertex -4.29588 -4.2392 5
    endloop
  endfacet
  facet normal 0 -1 0
    outer loop
      vertex -1.66667 -1.66667 -5
      vertex 1.66666 -1.66667 5
      vertex -1.66667 -1.66667 5
    endloop
  endfacet
  facet normal 0 -1 -0
    outer loop
      vertex 1.66666 -1.66667 5
      vertex -1.66667 -1.66667 -5
      vertex 1.66666 -1.66667 -5
    endloop
  endfacet
  facet normal -0.894427 -0.447214 0
    outer loop
      vertex 3.27164 -4.87663 -5
      vertex 1.66666 -1.66667 5
      vertex 1.66666 -1.66667 -5
    endloop
  endfacet
  facet normal -0.894427 -0.447214 0
    outer loop
      vertex 1.66666 -1.66667 5
      vertex 3.27164 -4.87663 -5
      vertex 3.27164 -4.87663 5
    endloop
  endfacet
  facet normal 0.894427 0.447213 0
    outer loop
      vertex 4.4999 -3.99981 5
      vertex 0 5 -5
      vertex 0 5 5
    endloop
  endfacet
  facet normal 0.894427 0.447213 0
    outer loop
      vertex 0 5 -5
      vertex 4.4999 -3.99981 5
      vertex 4.4999 -3.99981 -5
    endloop
  endfacet
  facet normal -0.894427 0.447214 0
    outer loop
      vertex -4.49991 -3.99982 -5
      vertex 0 5 5
      vertex 0 5 -5
    endloop
  endfacet
  facet normal -0.894427 0.447214 0
    outer loop
      vertex 0 5 5
      vertex -4.49991 -3.99982 -5
      vertex -4.49991 -3.99982 5
    endloop
  endfacet
  facet normal 0.894426 -0.447216 0
    outer loop
      vertex -3.27166 -4.87663 5
      vertex -1.66667 -1.66667 -5
      vertex -1.66667 -1.66667 5
    endloop
  endfacet
  facet normal 0.894426 -0.447216 0
    outer loop
      vertex -1.66667 -1.66667 -5
      vertex -3.27166 -4.87663 5
      vertex -3.27166 -4.87663 -5
    endloop
  endfacet
  facet normal -0.781853 -0.623462 0
    outer loop
      vertex -4.40363 -4.12056 -5
      vertex -4.49991 -3.99982 5
      vertex -4.49991 -3.99982 -5
    endloop
  endfacet
  facet normal -0.781853 -0.623462 0
    outer loop
      vertex -4.49991 -3.99982 5
      vertex -4.40363 -4.12056 -5
      vertex -4.40363 -4.12056 5
    endloop
  endfacet
  facet normal -0.740265 -0.672316 0
    outer loop
      vertex -4.29588 -4.2392 -5
      vertex -4.40363 -4.12056 5
      vertex -4.40363 -4.12056 -5
    endloop
  endfacet
  facet normal -0.740265 -0.672316 0
    outer loop
      vertex -4.40363 -4.12056 5
      vertex -4.29588 -4.2392 -5
      vertex -4.29588 -4.2392 5
    endloop
  endfacet
  facet normal -0.695691 -0.718342 0
    outer loop
      vertex -4.29588 -4.2392 -5
      vertex -4.18076 -4.35069 5
      vertex -4.29588 -4.2392 5
    endloop
  endfacet
  facet normal -0.695691 -0.718342 -0
    outer loop
      vertex -4.18076 -4.35069 5
      vertex -4.29588 -4.2392 -5
      vertex -4.18076 -4.35069 -5
    endloop
  endfacet
  facet normal -0.648208 -0.761463 0
    outer loop
      vertex -4.18076 -4.35069 -5
      vertex -4.05873 -4.45457 5
      vertex -4.18076 -4.35069 5
    endloop
  endfacet
  facet normal -0.648208 -0.761463 -0
    outer loop
      vertex -4.05873 -4.45457 5
      vertex -4.18076 -4.35069 -5
      vertex -4.05873 -4.45457 -5
    endloop
  endfacet
  facet normal -0.598151 -0.801383 0
    outer loop
      vertex -4.05873 -4.45457 -5
      vertex -3.9303 -4.55043 5
      vertex -4.05873 -4.45457 5
    endloop
  endfacet
  facet normal -0.598151 -0.801383 -0
    outer loop
      vertex -3.9303 -4.55043 5
      vertex -4.05873 -4.45457 -5
      vertex -3.9303 -4.55043 -5
    endloop
  endfacet
  facet normal -0.545508 -0.838106 0
    outer loop
      vertex -3.9303 -4.55043 -5
      vertex -3.79599 -4.63785 5
      vertex -3.9303 -4.55043 5
    endloop
  endfacet
  facet normal -0.545508 -0.838106 -0
    outer loop
      vertex -3.79599 -4.63785 5
      vertex -3.9303 -4.55043 -5
      vertex -3.79599 -4.63785 -5
    endloop
  endfacet
  facet normal -0.490726 -0.871314 0
    outer loop
      vertex -3.79599 -4.63785 -5
      vertex -3.65636 -4.71649 5
      vertex -3.79599 -4.63785 5
    endloop
  endfacet
  facet normal -0.490726 -0.871314 -0
    outer loop
      vertex -3.65636 -4.71649 5
      vertex -3.79599 -4.63785 -5
      vertex -3.65636 -4.71649 -5
    endloop
  endfacet
  facet normal -0.433887 -0.900967 0
    outer loop
      vertex -3.65636 -4.71649 -5
      vertex -3.51196 -4.78603 5
      vertex -3.65636 -4.71649 5
    endloop
  endfacet
  facet normal -0.433887 -0.900967 -0
    outer loop
      vertex -3.51196 -4.78603 5
      vertex -3.65636 -4.71649 -5
      vertex -3.51196 -4.78603 -5
    endloop
  endfacet
  facet normal -0.375229 -0.926932 0
    outer loop
      vertex -3.51196 -4.78603 -5
      vertex -3.36342 -4.84616 5
      vertex -3.51196 -4.78603 5
    endloop
  endfacet
  facet normal -0.375229 -0.926932 -0
    outer loop
      vertex -3.36342 -4.84616 5
      vertex -3.51196 -4.78603 -5
      vertex -3.36342 -4.84616 -5
    endloop
  endfacet
  facet normal -0.315142 -0.949045 0
    outer loop
      vertex -3.36342 -4.84616 -5
      vertex -3.27166 -4.87663 5
      vertex -3.36342 -4.84616 5
    endloop
  endfacet
  facet normal -0.315142 -0.949045 -0
    outer loop
      vertex -3.27166 -4.87663 5
      vertex -3.36342 -4.84616 -5
      vertex -3.27166 -4.87663 -5
    endloop
  endfacet
  facet normal 0.315142 -0.949045 0
    outer loop
      vertex 3.27164 -4.87663 -5
      vertex 3.3634 -4.84616 5
      vertex 3.27164 -4.87663 5
    endloop
  endfacet
  facet normal 0.315142 -0.949045 0
    outer loop
      vertex 3.3634 -4.84616 5
      vertex 3.27164 -4.87663 -5
      vertex 3.3634 -4.84616 -5
    endloop
  endfacet
  facet normal 0.375207 -0.926941 0
    outer loop
      vertex 3.3634 -4.84616 -5
      vertex 3.51195 -4.78603 5
      vertex 3.3634 -4.84616 5
    endloop
  endfacet
  facet normal 0.375207 -0.926941 0
    outer loop
      vertex 3.51195 -4.78603 5
      vertex 3.3634 -4.84616 -5
      vertex 3.51195 -4.78603 -5
    endloop
  endfacet
  facet normal 0.433911 -0.900956 0
    outer loop
      vertex 3.51195 -4.78603 -5
      vertex 3.65634 -4.71649 5
      vertex 3.51195 -4.78603 5
    endloop
  endfacet
  facet normal 0.433911 -0.900956 0
    outer loop
      vertex 3.65634 -4.71649 5
      vertex 3.51195 -4.78603 -5
      vertex 3.65634 -4.71649 -5
    endloop
  endfacet
  facet normal 0.490726 -0.871314 0
    outer loop
      vertex 3.65634 -4.71649 -5
      vertex 3.79597 -4.63785 5
      vertex 3.65634 -4.71649 5
    endloop
  endfacet
  facet normal 0.490726 -0.871314 0
    outer loop
      vertex 3.79597 -4.63785 5
      vertex 3.65634 -4.71649 -5
      vertex 3.79597 -4.63785 -5
    endloop
  endfacet
  facet normal 0.545508 -0.838106 0
    outer loop
      vertex 3.79597 -4.63785 -5
      vertex 3.93028 -4.55043 5
      vertex 3.79597 -4.63785 5
    endloop
  endfacet
  facet normal 0.545508 -0.838106 0
    outer loop
      vertex 3.93028 -4.55043 5
      vertex 3.79597 -4.63785 -5
      vertex 3.93028 -4.55043 -5
    endloop
  endfacet
  facet normal 0.598121 -0.801405 0
    outer loop
      vertex 3.93028 -4.55043 -5
      vertex 4.05872 -4.45457 5
      vertex 3.93028 -4.55043 5
    endloop
  endfacet
  facet normal 0.598121 -0.801405 0
    outer loop
      vertex 4.05872 -4.45457 5
      vertex 3.93028 -4.55043 -5
      vertex 4.05872 -4.45457 -5
    endloop
  endfacet
  facet normal 0.648239 -0.761437 0
    outer loop
      vertex 4.05872 -4.45457 -5
      vertex 4.18074 -4.35069 5
      vertex 4.05872 -4.45457 5
    endloop
  endfacet
  facet normal 0.648239 -0.761437 0
    outer loop
      vertex 4.18074 -4.35069 5
      vertex 4.05872 -4.45457 -5
      vertex 4.18074 -4.35069 -5
    endloop
  endfacet
  facet normal 0.695659 -0.718372 0
    outer loop
      vertex 4.18074 -4.35069 -5
      vertex 4.29587 -4.2392 5
      vertex 4.18074 -4.35069 5
    endloop
  endfacet
  facet normal 0.695659 -0.718372 0
    outer loop
      vertex 4.29587 -4.2392 5
      vertex 4.18074 -4.35069 -5
      vertex 4.29587 -4.2392 -5
    endloop
  endfacet
  facet normal 0.740296 -0.672281 0
    outer loop
      vertex 4.29587 -4.2392 5
      vertex 4.40361 -4.12056 -5
      vertex 4.40361 -4.12056 5
    endloop
  endfacet
  facet normal 0.740296 -0.672281 0
    outer loop
      vertex 4.40361 -4.12056 -5
      vertex 4.29587 -4.2392 5
      vertex 4.29587 -4.2392 -5
    endloop
  endfacet
  facet normal 0.781847 -0.62347 0
    outer loop
      vertex 4.40361 -4.12056 5
      vertex 4.4999 -3.99981 -5
      vertex 4.4999 -3.99981 5
    endloop
  endfacet
  facet normal 0.781847 -0.62347 0
    outer loop
      vertex 4.4999 -3.99981 -5
      vertex 4.40361 -4.12056 5
      vertex 4.40361 -4.12056 -5
    endloop
  endfacet
endsolid OpenSCAD_Model
