solid OpenSCAD_Model
  facet normal 0 0 -1
    outer loop
      vertex 1.66666 -1.66667 -5
      vertex 3.80722 -3.24113 -5
      vertex 3.59174 -3.47841 -5
    endloop
  endfacet
  facet normal 0 0 -1
    outer loop
      vertex 1.66666 -1.66667 -5
      vertex 3.59174 -3.47841 -5
      vertex 3.3615 -3.70139 -5
    endloop
  endfacet
  facet normal 0 0 -1
    outer loop
      vertex 1.66666 -1.66667 -5
      vertex 3.3615 -3.70139 -5
      vertex 3.11745 -3.90915 -5
    endloop
  endfacet
  facet normal 0 0 -1
    outer loop
      vertex 1.66666 -1.66667 -5
      vertex 3.11745 -3.90915 -5
      vertex 2.87746 -4.08826 -5
    endloop
  endfacet
  facet normal 0 0 -1
    outer loop
      vertex 3.80722 -3.24113 -5
      vertex 1.66666 -1.66667 -5
      vertex 3.99982 -2.99963 -5
    endloop
  endfacet
  facet normal 0 0 -1
    outer loop
      vertex 1.66666 -1.66667 -5
      vertex 0 5 -5
      vertex 3.99982 -2.99963 -5
    endloop
  endfacet
  facet normal 0 0 -1
    outer loop
      vertex -1.66667 -1.66667 -5
      vertex 0 5 -5
      vertex 1.66666 -1.66667 -5
    endloop
  endfacet
  facet normal 0 0 -1
    outer loop
      vertex -3.11746 -3.90915 -5
      vertex -1.66667 -1.66667 -5
      vertex -2.87747 -4.08826 -5
    endloop
  endfacet
  facet normal 0 0 -1
    outer loop
      vertex -3.36151 -3.70139 -5
      vertex -1.66667 -1.66667 -5
      vertex -3.11746 -3.90915 -5
    endloop
  endfacet
  facet normal 0 0 -1
    outer loop
      vertex -3.59175 -3.47841 -5
      vertex -1.66667 -1.66667 -5
      vertex -3.36151 -3.70139 -5
    endloop
  endfacet
  facet normal 0 0 -1
    outer loop
      vertex -3.80724 -3.24113 -5
      vertex -1.66667 -1.66667 -5
      vertex -3.59175 -3.47841 -5
    endloop
  endfacet
  facet normal 0 0 -1
    outer loop
      vertex -3.99982 -2.99964 -5
      vertex -1.66667 -1.66667 -5
      vertex -3.80724 -3.24113 -5
    endloop
  endfacet
  facet normal -0 0 -1
    outer loop
      vertex -1.66667 -1.66667 -5
      vertex -3.99982 -2.99964 -5
      vertex 0 5 -5
    endloop
  endfacet
  facet normal 0 0 1
    outer loop
      vertex 1.66666 -1.66667 5
      vertex 3.80722 -3.24113 5
      vertex 3.99982 -2.99963 5
    endloop
  endfacet
  facet normal 0 0 1
    outer loop
      vertex 3.80722 -3.24113 5
      vertex 1.66666 -1.66667 5
      vertex 3.59174 -3.47841 5
    endloop
  endfacet
  facet normal 0 0 1
    outer loop
      vertex 3.59174 -3.47841 5
      vertex 1.66666 -1.66667 5
      vertex 3.3615 -3.70139 5
    endloop
  endfacet
  facet normal 0 0 1
    outer loop
      vertex 3.3615 -3.70139 5
      vertex 1.66666 -1.66667 5
      vertex 3.11745 -3.90915 5
    endloop
  endfacet
  facet normal 0 0 1
    outer loop
      vertex 3.11745 -3.90915 5
      vertex 1.66666 -1.66667 5
      vertex 2.87746 -4.08826 5
    endloop
  endfacet
  facet normal 0 0 1
    outer loop
      vertex 0 5 5
      vertex 1.66666 -1.66667 5
      vertex 3.99982 -2.99963 5
    endloop
  endfacet
  facet normal 0 0 1
    outer loop
      vertex 0 5 5
      vertex -1.66667 -1.66667 5
      vertex 1.66666 -1.66667 5
    endloop
  endfacet
  facet normal 0 0 1
    outer loop
      vertex -3.99982 -2.99964 5
      vertex -1.66667 -1.66667 5
      vertex 0 5 5
    endloop
  endfacet
  facet normal 0 0 1
    outer loop
      vertex -1.66667 -1.66667 5
      vertex -3.11746 -3.90915 5
      vertex -2.87747 -4.08826 5
    endloop
  endfacet
  facet normal 0 0 1
    outer loop
      vertex -1.66667 -1.66667 5
      vertex -3.36151 -3.70139 5
      vertex -3.11746 -3.90915 5
    endloop
  endfacet
  facet normal 0 0 1
    outer loop
      vertex -1.66667 -1.66667 5
      vertex -3.59175 -3.47841 5
      vertex -3.36151 -3.70139 5
    endloop
  endfacet
  facet normal 0 0 1
    outer loop
      vertex -1.66667 -1.66667 5
      vertex -3.80724 -3.24113 5
      vertex -3.59175 -3.47841 5
    endloop
  endfacet
  facet normal 0 0 1
    outer loop
      vertex -1.66667 -1.66667 5
      vertex -3.99982 -2.99964 5
      vertex -3.80724 -3.24113 5
    endloop
  endfacet
  facet normal 0 -1 0
    outer loop
      vertex -1.66667 -1.66667 -5
      vertex 1.66666 -1.66667 5
      vertex -1.66667 -1.66667 5
    endloop
  endfacet
  facet normal 0 -1 -0
    outer loop
      vertex 1.66666 -1.66667 5
      vertex -1.66667 -1.66667 -5
      vertex 1.66666 -1.66667 -5
    endloop
  endfacet
  facet normal -0.894426 -0.447215 0
    outer loop
      vertex 2.87746 -4.08826 -5
      vertex 1.66666 -1.66667 5
      vertex 1.66666 -1.66667 -5
    endloop
  endfacet
  facet normal -0.894426 -0.447215 0
    outer loop
      vertex 1.66666 -1.66667 5
      vertex 2.87746 -4.08826 -5
      vertex 2.87746 -4.08826 5
    endloop
  endfacet
  facet normal 0.894427 0.447214 0
    outer loop
      vertex 3.99982 -2.99963 5
      vertex 0 5 -5
      vertex 0 5 5
    endloop
  endfacet
  facet normal 0.894427 0.447214 0
    outer loop
      vertex 0 5 -5
      vertex 3.99982 -2.99963 5
      vertex 3.99982 -2.99963 -5
    endloop
  endfacet
  facet normal -0.894427 0.447214 0
    outer loop
      vertex -3.99982 -2.99964 -5
      vertex 0 5 5
      vertex 0 5 -5
    endloop
  endfacet
  facet normal -0.894427 0.447214 0
    outer loop
      vertex 0 5 5
      vertex -3.99982 -2.99964 -5
      vertex -3.99982 -2.99964 5
    endloop
  endfacet
  facet normal 0.894426 -0.447215 0
    outer loop
      vertex -2.87747 -4.08826 5
      vertex -1.66667 -1.66667 -5
      vertex -1.66667 -1.66667 5
    endloop
  endfacet
  facet normal 0.894426 -0.447215 0
    outer loop
      vertex -1.66667 -1.66667 -5
      vertex -2.87747 -4.08826 5
      vertex -2.87747 -4.08826 -5
    endloop
  endfacet
  facet normal 0.695691 -0.718342 0
    outer loop
      vertex 3.3615 -3.70139 -5
      vertex 3.59174 -3.47841 5
      vertex 3.3615 -3.70139 5
    endloop
  endfacet
  facet normal 0.695691 -0.718342 0
    outer loop
      vertex 3.59174 -3.47841 5
      vertex 3.3615 -3.70139 -5
      vertex 3.59174 -3.47841 -5
    endloop
  endfacet
  facet normal 0.781815 -0.62351 0
    outer loop
      vertex 3.80722 -3.24113 5
      vertex 3.99982 -2.99963 -5
      vertex 3.99982 -2.99963 5
    endloop
  endfacet
  facet normal 0.781815 -0.62351 0
    outer loop
      vertex 3.99982 -2.99963 -5
      vertex 3.80722 -3.24113 5
      vertex 3.80722 -3.24113 -5
    endloop
  endfacet
  facet normal 0.740296 -0.672281 0
    outer loop
      vertex 3.59174 -3.47841 5
      vertex 3.80722 -3.24113 -5
      vertex 3.80722 -3.24113 5
    endloop
  endfacet
  facet normal 0.740296 -0.672281 0
    outer loop
      vertex 3.80722 -3.24113 -5
      vertex 3.59174 -3.47841 5
      vertex 3.59174 -3.47841 -5
    endloop
  endfacet
  facet normal 0.648223 -0.76145 0
    outer loop
      vertex 3.11745 -3.90915 -5
      vertex 3.3615 -3.70139 5
      vertex 3.11745 -3.90915 5
    endloop
  endfacet
  facet normal 0.648223 -0.76145 0
    outer loop
      vertex 3.3615 -3.70139 5
      vertex 3.11745 -3.90915 -5
      vertex 3.3615 -3.70139 -5
    endloop
  endfacet
  facet normal 0.598112 -0.801412 0
    outer loop
      vertex 2.87746 -4.08826 -5
      vertex 3.11745 -3.90915 5
      vertex 2.87746 -4.08826 5
    endloop
  endfacet
  facet normal 0.598112 -0.801412 0
    outer loop
      vertex 3.11745 -3.90915 5
      vertex 2.87746 -4.08826 -5
      vertex 3.11745 -3.90915 -5
    endloop
  endfacet
  facet normal -0.648223 -0.76145 0
    outer loop
      vertex -3.36151 -3.70139 -5
      vertex -3.11746 -3.90915 5
      vertex -3.36151 -3.70139 5
    endloop
  endfacet
  facet normal -0.648223 -0.76145 -0
    outer loop
      vertex -3.11746 -3.90915 5
      vertex -3.36151 -3.70139 -5
      vertex -3.11746 -3.90915 -5
    endloop
  endfacet
  facet normal -0.695691 -0.718342 0
    outer loop
      vertex -3.59175 -3.47841 -5
      vertex -3.36151 -3.70139 5
      vertex -3.59175 -3.47841 5
    endloop
  endfacet
  facet normal -0.695691 -0.718342 -0
    outer loop
      vertex -3.36151 -3.70139 5
      vertex -3.59175 -3.47841 -5
      vertex -3.36151 -3.70139 -5
    endloop
  endfacet
  facet normal -0.74028 -0.672298 0
    outer loop
      vertex -3.59175 -3.47841 -5
      vertex -3.80724 -3.24113 5
      vertex -3.80724 -3.24113 -5
    endloop
  endfacet
  facet normal -0.74028 -0.672298 0
    outer loop
      vertex -3.80724 -3.24113 5
      vertex -3.59175 -3.47841 -5
      vertex -3.59175 -3.47841 5
    endloop
  endfacet
  facet normal -0.781834 -0.623486 0
    outer loop
      vertex -3.80724 -3.24113 -5
      vertex -3.99982 -2.99964 5
      vertex -3.99982 -2.99964 -5
    endloop
  endfacet
  facet normal -0.781834 -0.623486 0
    outer loop
      vertex -3.99982 -2.99964 5
      vertex -3.80724 -3.24113 -5
      vertex -3.80724 -3.24113 5
    endloop
  endfacet
  facet normal -0.598112 -0.801412 0
    outer loop
      vertex -3.11746 -3.90915 -5
      vertex -2.87747 -4.08826 5
      vertex -3.11746 -3.90915 5
    endloop
  endfacet
  facet normal -0.598112 -0.801412 -0
    outer loop
      vertex -2.87747 -4.08826 5
      vertex -3.11746 -3.90915 -5
      vertex -2.87747 -4.08826 -5
    endloop
  endfacet
endsolid OpenSCAD_Model
