solid OpenSCAD_Model
  facet normal 0 0 -1
    outer loop
      vertex 3.33333 -5 -5
      vertex 4 -3 -5
      vertex 5 -5 -5
    endloop
  endfacet
  facet normal -0 0 -1
    outer loop
      vertex 4 -3 -5
      vertex 3.33333 -5 -5
      vertex 2.33332 -3 -5
    endloop
  endfacet
  facet normal 0 -0 -1
    outer loop
      vertex 0 5 -5
      vertex 1 3 -5
      vertex -1 3 -5
    endloop
  endfacet
  facet normal 0 0 -1
    outer loop
      vertex -3.33334 -5 -5
      vertex -4 -3 -5
      vertex -2.33334 -3 -5
    endloop
  endfacet
  facet normal 0 -0 -1
    outer loop
      vertex -4 -3 -5
      vertex -3.33334 -5 -5
      vertex -5 -5 -5
    endloop
  endfacet
  facet normal -0 0 1
    outer loop
      vertex 1.65352 0.624435 5
      vertex 5 -5 5
      vertex 1.66666 0.833328 5
    endloop
  endfacet
  facet normal 0 0 1
    outer loop
      vertex 5 -5 5
      vertex 1.65352 1.04222 5
      vertex 1.66666 0.833328 5
    endloop
  endfacet
  facet normal 0 0 1
    outer loop
      vertex 5 -5 5
      vertex 1.6143 1.2478 5
      vertex 1.65352 1.04222 5
    endloop
  endfacet
  facet normal 0 0 1
    outer loop
      vertex 5 -5 5
      vertex 1.54962 1.44687 5
      vertex 1.6143 1.2478 5
    endloop
  endfacet
  facet normal 0 0 1
    outer loop
      vertex 5 -5 5
      vertex 1.46051 1.63625 5
      vertex 1.54962 1.44687 5
    endloop
  endfacet
  facet normal 0 0 1
    outer loop
      vertex 0 5 5
      vertex 1.46051 1.63625 5
      vertex 5 -5 5
    endloop
  endfacet
  facet normal 0 0 1
    outer loop
      vertex 0 5 5
      vertex 1.34836 1.81297 5
      vertex 1.46051 1.63625 5
    endloop
  endfacet
  facet normal 0 0 1
    outer loop
      vertex 0 5 5
      vertex 1.21494 1.97424 5
      vertex 1.34836 1.81297 5
    endloop
  endfacet
  facet normal 0 0 1
    outer loop
      vertex 0 5 5
      vertex 1.06236 2.11751 5
      vertex 1.21494 1.97424 5
    endloop
  endfacet
  facet normal 0 0 1
    outer loop
      vertex 0 5 5
      vertex 0.893036 2.24054 5
      vertex 1.06236 2.11751 5
    endloop
  endfacet
  facet normal 0 0 1
    outer loop
      vertex 0 5 5
      vertex 0.709625 2.34137 5
      vertex 0.893036 2.24054 5
    endloop
  endfacet
  facet normal 0 0 1
    outer loop
      vertex 0 5 5
      vertex 0.515015 2.41843 5
      vertex 0.709625 2.34137 5
    endloop
  endfacet
  facet normal 0 0 1
    outer loop
      vertex 0 5 5
      vertex 0.312302 2.47047 5
      vertex 0.515015 2.41843 5
    endloop
  endfacet
  facet normal 0 0 1
    outer loop
      vertex 0 5 5
      vertex 0.104645 2.4967 5
      vertex 0.312302 2.47047 5
    endloop
  endfacet
  facet normal 0 0 1
    outer loop
      vertex 0 5 5
      vertex -0.10466 2.4967 5
      vertex 0.104645 2.4967 5
    endloop
  endfacet
  facet normal 0 0 1
    outer loop
      vertex 0 5 5
      vertex -0.312317 2.47047 5
      vertex -0.10466 2.4967 5
    endloop
  endfacet
  facet normal 0 0 1
    outer loop
      vertex 0 5 5
      vertex -0.51503 2.41843 5
      vertex -0.312317 2.47047 5
    endloop
  endfacet
  facet normal 0 0 1
    outer loop
      vertex 0 5 5
      vertex -0.709641 2.34137 5
      vertex -0.51503 2.41843 5
    endloop
  endfacet
  facet normal 0 0 1
    outer loop
      vertex 0 5 5
      vertex -0.893051 2.24054 5
      vertex -0.709641 2.34137 5
    endloop
  endfacet
  facet normal 0 0 1
    outer loop
      vertex 0 5 5
      vertex -1.06238 2.11751 5
      vertex -0.893051 2.24054 5
    endloop
  endfacet
  facet normal 0 0 1
    outer loop
      vertex 0 5 5
      vertex -1.21495 1.97424 5
      vertex -1.06238 2.11751 5
    endloop
  endfacet
  facet normal 0 0 1
    outer loop
      vertex 0 5 5
      vertex -1.34837 1.81297 5
      vertex -1.21495 1.97424 5
    endloop
  endfacet
  facet normal 0 0 1
    outer loop
      vertex 0 5 5
      vertex -1.46053 1.63625 5
      vertex -1.34837 1.81297 5
    endloop
  endfacet
  facet normal 0 0 1
    outer loop
      vertex 0 5 5
      vertex -1.54964 1.44687 5
      vertex -1.46053 1.63625 5
    endloop
  endfacet
  facet normal 0 0 1
    outer loop
      vertex -1.65353 0.624435 5
      vertex -3.33334 -5 5
      vertex -1.66667 -1.66667 5
    endloop
  endfacet
  facet normal 0 0 1
    outer loop
      vertex -5 -5 5
      vertex -1.66667 0.833328 5
      vertex -1.65353 1.04222 5
    endloop
  endfacet
  facet normal 0 0 1
    outer loop
      vertex -5 -5 5
      vertex -1.65353 1.04222 5
      vertex -1.61432 1.2478 5
    endloop
  endfacet
  facet normal 0 0 1
    outer loop
      vertex -1.65353 0.624435 5
      vertex -5 -5 5
      vertex -3.33334 -5 5
    endloop
  endfacet
  facet normal 0 0 1
    outer loop
      vertex -1.54964 1.44687 5
      vertex -5 -5 5
      vertex -1.61432 1.2478 5
    endloop
  endfacet
  facet normal 0 0 1
    outer loop
      vertex -5 -5 5
      vertex -1.54964 1.44687 5
      vertex 0 5 5
    endloop
  endfacet
  facet normal -0 0 1
    outer loop
      vertex 1.6143 0.418839 5
      vertex 5 -5 5
      vertex 1.65352 0.624435 5
    endloop
  endfacet
  facet normal 0 0 1
    outer loop
      vertex 5 -5 5
      vertex 1.66666 -1.66667 5
      vertex 3.33333 -5 5
    endloop
  endfacet
  facet normal 0 0 1
    outer loop
      vertex 5 -5 5
      vertex 1.6143 0.418839 5
      vertex 1.66666 -1.66667 5
    endloop
  endfacet
  facet normal -0 0 1
    outer loop
      vertex 1.54962 0.219788 5
      vertex 1.66666 -1.66667 5
      vertex 1.6143 0.418839 5
    endloop
  endfacet
  facet normal -0 0 1
    outer loop
      vertex 1.46051 0.0303955 5
      vertex 1.66666 -1.66667 5
      vertex 1.54962 0.219788 5
    endloop
  endfacet
  facet normal -0 0 1
    outer loop
      vertex 1.34836 -0.146317 5
      vertex 1.66666 -1.66667 5
      vertex 1.46051 0.0303955 5
    endloop
  endfacet
  facet normal -0 0 1
    outer loop
      vertex 1.21494 -0.307587 5
      vertex 1.66666 -1.66667 5
      vertex 1.34836 -0.146317 5
    endloop
  endfacet
  facet normal -0 0 1
    outer loop
      vertex 1.06236 -0.450867 5
      vertex 1.66666 -1.66667 5
      vertex 1.21494 -0.307587 5
    endloop
  endfacet
  facet normal -0 0 1
    outer loop
      vertex 0.893036 -0.573883 5
      vertex 1.66666 -1.66667 5
      vertex 1.06236 -0.450867 5
    endloop
  endfacet
  facet normal -0 0 1
    outer loop
      vertex 0.709625 -0.674713 5
      vertex 1.66666 -1.66667 5
      vertex 0.893036 -0.573883 5
    endloop
  endfacet
  facet normal -0 0 1
    outer loop
      vertex 0.515015 -0.75177 5
      vertex 1.66666 -1.66667 5
      vertex 0.709625 -0.674713 5
    endloop
  endfacet
  facet normal -0 0 1
    outer loop
      vertex 0.312302 -0.803818 5
      vertex 1.66666 -1.66667 5
      vertex 0.515015 -0.75177 5
    endloop
  endfacet
  facet normal -0 0 1
    outer loop
      vertex 0.104645 -0.830048 5
      vertex 1.66666 -1.66667 5
      vertex 0.312302 -0.803818 5
    endloop
  endfacet
  facet normal -0 0 1
    outer loop
      vertex -0.10466 -0.830048 5
      vertex 1.66666 -1.66667 5
      vertex 0.104645 -0.830048 5
    endloop
  endfacet
  facet normal 0 0 1
    outer loop
      vertex -1.66667 -1.66667 5
      vertex -0.10466 -0.830048 5
      vertex -0.312317 -0.803818 5
    endloop
  endfacet
  facet normal 0 0 1
    outer loop
      vertex -1.66667 -1.66667 5
      vertex -0.312317 -0.803818 5
      vertex -0.51503 -0.75177 5
    endloop
  endfacet
  facet normal 0 0 1
    outer loop
      vertex -1.66667 -1.66667 5
      vertex -0.51503 -0.75177 5
      vertex -0.709641 -0.674713 5
    endloop
  endfacet
  facet normal 0 0 1
    outer loop
      vertex -0.10466 -0.830048 5
      vertex -1.66667 -1.66667 5
      vertex 1.66666 -1.66667 5
    endloop
  endfacet
  facet normal 0 0 1
    outer loop
      vertex -0.893051 -0.573883 5
      vertex -1.66667 -1.66667 5
      vertex -0.709641 -0.674713 5
    endloop
  endfacet
  facet normal 0 0 1
    outer loop
      vertex -1.06238 -0.450867 5
      vertex -1.66667 -1.66667 5
      vertex -0.893051 -0.573883 5
    endloop
  endfacet
  facet normal 0 0 1
    outer loop
      vertex -1.21495 -0.307587 5
      vertex -1.66667 -1.66667 5
      vertex -1.06238 -0.450867 5
    endloop
  endfacet
  facet normal 0 0 1
    outer loop
      vertex -1.34837 -0.146317 5
      vertex -1.66667 -1.66667 5
      vertex -1.21495 -0.307587 5
    endloop
  endfacet
  facet normal 0 0 1
    outer loop
      vertex -1.46053 0.0303955 5
      vertex -1.66667 -1.66667 5
      vertex -1.34837 -0.146317 5
    endloop
  endfacet
  facet normal 0 0 1
    outer loop
      vertex -1.54964 0.219788 5
      vertex -1.66667 -1.66667 5
      vertex -1.46053 0.0303955 5
    endloop
  endfacet
  facet normal 0 0 1
    outer loop
      vertex -1.61432 0.418839 5
      vertex -1.66667 -1.66667 5
      vertex -1.54964 0.219788 5
    endloop
  endfacet
  facet normal 0 0 1
    outer loop
      vertex -1.65353 0.624435 5
      vertex -1.66667 -1.66667 5
      vertex -1.61432 0.418839 5
    endloop
  endfacet
  facet normal 0 0 1
    outer loop
      vertex -5 -5 5
      vertex -1.65353 0.624435 5
      vertex -1.66667 0.833328 5
    endloop
  endfacet
  facet normal 0 -1 0
    outer loop
      vertex -1.66667 -1.66667 3
      vertex 1.66666 -1.66667 5
      vertex -1.66667 -1.66667 5
    endloop
  endfacet
  facet normal 0 -1 -0
    outer loop
      vertex 1.66666 -1.66667 5
      vertex -1.66667 -1.66667 3
      vertex 1.66666 -1.66667 3
    endloop
  endfacet
  facet normal -0.894429 -0.447211 0
    outer loop
      vertex 2.33332 -3 3
      vertex 1.66666 -1.66667 5
      vertex 1.66666 -1.66667 3
    endloop
  endfacet
  facet normal -0.894427 -0.447215 3.13049e-06
    outer loop
      vertex 2.33332 -3 3
      vertex 3.33333 -5 5
      vertex 1.66666 -1.66667 5
    endloop
  endfacet
  facet normal -0.894425 -0.447217 -0
    outer loop
      vertex 3.33333 -5 5
      vertex 2.33332 -3 3
      vertex 3.33333 -5 -5
    endloop
  endfacet
  facet normal -0.894425 -0.447217 0
    outer loop
      vertex 2.33332 -3 -5
      vertex 3.33333 -5 -5
      vertex 2.33332 -3 3
    endloop
  endfacet
  facet normal 0 -1 0
    outer loop
      vertex 3.33333 -5 -5
      vertex 5 -5 5
      vertex 3.33333 -5 5
    endloop
  endfacet
  facet normal 0 -1 -0
    outer loop
      vertex 5 -5 5
      vertex 3.33333 -5 -5
      vertex 5 -5 -5
    endloop
  endfacet
  facet normal 0 -1 0
    outer loop
      vertex -5 -5 -5
      vertex -3.33334 -5 5
      vertex -5 -5 5
    endloop
  endfacet
  facet normal 0 -1 -0
    outer loop
      vertex -3.33334 -5 5
      vertex -5 -5 -5
      vertex -3.33334 -5 -5
    endloop
  endfacet
  facet normal 0.894427 0.447214 0
    outer loop
      vertex 0 5 5
      vertex 1 3 3
      vertex 0 5 -5
    endloop
  endfacet
  facet normal 0.894427 0.447214 0
    outer loop
      vertex 0 5 5
      vertex 2 1 3
      vertex 1 3 3
    endloop
  endfacet
  facet normal 0.894427 0.447214 0
    outer loop
      vertex 2 1 3
      vertex 3 -1 3
      vertex 2 1 -2.5
    endloop
  endfacet
  facet normal 0.894427 0.447214 0
    outer loop
      vertex 0 5 5
      vertex 3 -1 3
      vertex 2 1 3
    endloop
  endfacet
  facet normal 0.894427 0.447214 0
    outer loop
      vertex 5 -5 5
      vertex 3 -1 3
      vertex 0 5 5
    endloop
  endfacet
  facet normal 0.894427 0.447214 0
    outer loop
      vertex 3 -1 3
      vertex 5 -5 5
      vertex 4 -3 3
    endloop
  endfacet
  facet normal 0.894427 0.447214 -0
    outer loop
      vertex 5 -5 -5
      vertex 4 -3 3
      vertex 5 -5 5
    endloop
  endfacet
  facet normal 0.894427 0.447214 0
    outer loop
      vertex 4 -3 3
      vertex 5 -5 -5
      vertex 4 -3 -5
    endloop
  endfacet
  facet normal 0.894427 0.447214 0
    outer loop
      vertex 0 5 -5
      vertex 1 3 3
      vertex 1 3 -5
    endloop
  endfacet
  facet normal 0.894427 0.447214 0
    outer loop
      vertex 2 1 -2.5
      vertex 3 -1 3
      vertex 3 -1 -2.5
    endloop
  endfacet
  facet normal -0.894427 0.447214 0
    outer loop
      vertex -4 -3 -5
      vertex -5 -5 -5
      vertex -4 -3 3
    endloop
  endfacet
  facet normal -0.894427 0.447214 0
    outer loop
      vertex -2 1 -2.5
      vertex -3 -1 -2.5
      vertex -2 1 3
    endloop
  endfacet
  facet normal -0.894427 0.447214 0
    outer loop
      vertex -1 3 3
      vertex 0 5 -5
      vertex -1 3 -5
    endloop
  endfacet
  facet normal -0.894427 0.447214 0
    outer loop
      vertex 0 5 -5
      vertex -1 3 3
      vertex 0 5 5
    endloop
  endfacet
  facet normal -0.894427 0.447214 0
    outer loop
      vertex -2 1 3
      vertex 0 5 5
      vertex -1 3 3
    endloop
  endfacet
  facet normal -0.894427 0.447214 0
    outer loop
      vertex -3 -1 3
      vertex -2 1 3
      vertex -3 -1 -2.5
    endloop
  endfacet
  facet normal -0.894427 0.447214 0
    outer loop
      vertex -3 -1 3
      vertex 0 5 5
      vertex -2 1 3
    endloop
  endfacet
  facet normal -0.894427 0.447214 0
    outer loop
      vertex -5 -5 5
      vertex -3 -1 3
      vertex -4 -3 3
    endloop
  endfacet
  facet normal -0.894427 0.447214 0
    outer loop
      vertex -3 -1 3
      vertex -5 -5 5
      vertex 0 5 5
    endloop
  endfacet
  facet normal -0.894427 0.447214 0
    outer loop
      vertex -5 -5 5
      vertex -4 -3 3
      vertex -5 -5 -5
    endloop
  endfacet
  facet normal 0.894426 -0.447216 0
    outer loop
      vertex -1.66667 -1.66667 5
      vertex -2.33334 -3 3
      vertex -1.66667 -1.66667 3
    endloop
  endfacet
  facet normal 0.894427 -0.447215 -1.34164e-06
    outer loop
      vertex -3.33334 -5 5
      vertex -2.33334 -3 3
      vertex -1.66667 -1.66667 5
    endloop
  endfacet
  facet normal 0.894427 -0.447214 0
    outer loop
      vertex -3.33334 -5 -5
      vertex -2.33334 -3 3
      vertex -3.33334 -5 5
    endloop
  endfacet
  facet normal 0.894427 -0.447214 0
    outer loop
      vertex -2.33334 -3 3
      vertex -3.33334 -5 -5
      vertex -2.33334 -3 -5
    endloop
  endfacet
  facet normal 0.125318 0.992117 -0
    outer loop
      vertex -0.10466 -0.830048 -2.5
      vertex -0.312317 -0.803818 5
      vertex -0.10466 -0.830048 5
    endloop
  endfacet
  facet normal 0.125318 0.992117 0
    outer loop
      vertex -0.312317 -0.803818 5
      vertex -0.10466 -0.830048 -2.5
      vertex -0.312317 -0.803818 -2.5
    endloop
  endfacet
  facet normal 0.248691 0.968583 -0
    outer loop
      vertex -0.312317 -0.803818 -2.5
      vertex -0.51503 -0.75177 5
      vertex -0.312317 -0.803818 5
    endloop
  endfacet
  facet normal 0.248691 0.968583 0
    outer loop
      vertex -0.51503 -0.75177 5
      vertex -0.312317 -0.803818 -2.5
      vertex -0.51503 -0.75177 -2.5
    endloop
  endfacet
  facet normal 0.368145 0.929768 -0
    outer loop
      vertex -0.51503 -0.75177 -2.5
      vertex -0.709641 -0.674713 5
      vertex -0.51503 -0.75177 5
    endloop
  endfacet
  facet normal 0.368145 0.929768 0
    outer loop
      vertex -0.709641 -0.674713 5
      vertex -0.51503 -0.75177 -2.5
      vertex -0.709641 -0.674713 -2.5
    endloop
  endfacet
  facet normal 0.481752 0.876308 -0
    outer loop
      vertex -0.709641 -0.674713 -2.5
      vertex -0.893051 -0.573883 5
      vertex -0.709641 -0.674713 5
    endloop
  endfacet
  facet normal 0.481752 0.876308 0
    outer loop
      vertex -0.893051 -0.573883 5
      vertex -0.709641 -0.674713 -2.5
      vertex -0.893051 -0.573883 -2.5
    endloop
  endfacet
  facet normal 0.587758 0.809037 -0
    outer loop
      vertex -0.893051 -0.573883 -2.5
      vertex -1.06238 -0.450867 5
      vertex -0.893051 -0.573883 5
    endloop
  endfacet
  facet normal 0.587758 0.809037 0
    outer loop
      vertex -1.06238 -0.450867 5
      vertex -0.893051 -0.573883 -2.5
      vertex -1.06238 -0.450867 -2.5
    endloop
  endfacet
  facet normal 0.684565 0.728951 -0
    outer loop
      vertex -1.06238 -0.450867 -2.5
      vertex -1.21495 -0.307587 5
      vertex -1.06238 -0.450867 5
    endloop
  endfacet
  facet normal 0.684565 0.728951 0
    outer loop
      vertex -1.21495 -0.307587 5
      vertex -1.06238 -0.450867 -2.5
      vertex -1.21495 -0.307587 -2.5
    endloop
  endfacet
  facet normal 0.7705 0.637441 0
    outer loop
      vertex -1.21495 -0.307587 5
      vertex -1.34837 -0.146317 -2.5
      vertex -1.34837 -0.146317 5
    endloop
  endfacet
  facet normal 0.7705 0.637441 0
    outer loop
      vertex -1.34837 -0.146317 -2.5
      vertex -1.21495 -0.307587 5
      vertex -1.21495 -0.307587 -2.5
    endloop
  endfacet
  facet normal 0.844296 0.535877 0
    outer loop
      vertex -1.34837 -0.146317 5
      vertex -1.46053 0.0303955 -2.5
      vertex -1.46053 0.0303955 5
    endloop
  endfacet
  facet normal 0.844296 0.535877 0
    outer loop
      vertex -1.46053 0.0303955 -2.5
      vertex -1.34837 -0.146317 5
      vertex -1.34837 -0.146317 -2.5
    endloop
  endfacet
  facet normal 0.904848 0.425735 0
    outer loop
      vertex -1.46053 0.0303955 5
      vertex -1.54964 0.219788 -2.5
      vertex -1.54964 0.219788 5
    endloop
  endfacet
  facet normal 0.904848 0.425735 0
    outer loop
      vertex -1.54964 0.219788 -2.5
      vertex -1.46053 0.0303955 5
      vertex -1.46053 0.0303955 -2.5
    endloop
  endfacet
  facet normal 0.95105 0.309036 0
    outer loop
      vertex -1.54964 0.219788 5
      vertex -1.61432 0.418839 -2.5
      vertex -1.61432 0.418839 5
    endloop
  endfacet
  facet normal 0.95105 0.309036 0
    outer loop
      vertex -1.61432 0.418839 -2.5
      vertex -1.54964 0.219788 5
      vertex -1.54964 0.219788 -2.5
    endloop
  endfacet
  facet normal 0.982296 0.187337 0
    outer loop
      vertex -1.61432 0.418839 5
      vertex -1.65353 0.624435 -2.5
      vertex -1.65353 0.624435 5
    endloop
  endfacet
  facet normal 0.982296 0.187337 0
    outer loop
      vertex -1.65353 0.624435 -2.5
      vertex -1.61432 0.418839 5
      vertex -1.61432 0.418839 -2.5
    endloop
  endfacet
  facet normal 0.998027 0.0627789 0
    outer loop
      vertex -1.65353 0.624435 5
      vertex -1.66667 0.833328 -2.5
      vertex -1.66667 0.833328 5
    endloop
  endfacet
  facet normal 0.998027 0.0627789 0
    outer loop
      vertex -1.66667 0.833328 -2.5
      vertex -1.65353 0.624435 5
      vertex -1.65353 0.624435 -2.5
    endloop
  endfacet
  facet normal 0.998021 -0.0628786 0
    outer loop
      vertex -1.65353 1.04222 5
      vertex -1.65619 1 3
      vertex -1.65353 1.04222 3
    endloop
  endfacet
  facet normal 0.998027 -0.0627792 -2.10678e-06
    outer loop
      vertex -1.66667 0.833328 5
      vertex -1.65619 1 3
      vertex -1.65353 1.04222 5
    endloop
  endfacet
  facet normal 0.998029 -0.0627541 0
    outer loop
      vertex -1.66667 0.833328 -2.5
      vertex -1.65619 1 3
      vertex -1.66667 0.833328 5
    endloop
  endfacet
  facet normal 0.998029 -0.0627541 0
    outer loop
      vertex -1.65619 1 3
      vertex -1.66667 0.833328 -2.5
      vertex -1.65619 1 -2.5
    endloop
  endfacet
  facet normal 0.982293 -0.187351 0
    outer loop
      vertex -1.65353 1.04222 5
      vertex -1.61432 1.2478 3
      vertex -1.61432 1.2478 5
    endloop
  endfacet
  facet normal 0.982293 -0.187351 0
    outer loop
      vertex -1.61432 1.2478 3
      vertex -1.65353 1.04222 5
      vertex -1.65353 1.04222 3
    endloop
  endfacet
  facet normal 0.951059 -0.309009 0
    outer loop
      vertex -1.61432 1.2478 5
      vertex -1.54964 1.44687 3
      vertex -1.54964 1.44687 5
    endloop
  endfacet
  facet normal 0.951059 -0.309009 0
    outer loop
      vertex -1.54964 1.44687 3
      vertex -1.61432 1.2478 5
      vertex -1.61432 1.2478 3
    endloop
  endfacet
  facet normal 0.904837 -0.425758 0
    outer loop
      vertex -1.54964 1.44687 5
      vertex -1.46053 1.63625 3
      vertex -1.46053 1.63625 5
    endloop
  endfacet
  facet normal 0.904837 -0.425758 0
    outer loop
      vertex -1.46053 1.63625 3
      vertex -1.54964 1.44687 5
      vertex -1.54964 1.44687 3
    endloop
  endfacet
  facet normal 0.844306 -0.535861 0
    outer loop
      vertex -1.46053 1.63625 5
      vertex -1.34837 1.81297 3
      vertex -1.34837 1.81297 5
    endloop
  endfacet
  facet normal 0.844306 -0.535861 0
    outer loop
      vertex -1.34837 1.81297 3
      vertex -1.46053 1.63625 5
      vertex -1.46053 1.63625 3
    endloop
  endfacet
  facet normal 0.7705 -0.637441 0
    outer loop
      vertex -1.34837 1.81297 5
      vertex -1.21495 1.97424 3
      vertex -1.21495 1.97424 5
    endloop
  endfacet
  facet normal 0.7705 -0.637441 0
    outer loop
      vertex -1.21495 1.97424 3
      vertex -1.34837 1.81297 5
      vertex -1.34837 1.81297 3
    endloop
  endfacet
  facet normal 0.68454 -0.728975 0
    outer loop
      vertex -1.21495 1.97424 3
      vertex -1.06238 2.11751 5
      vertex -1.21495 1.97424 5
    endloop
  endfacet
  facet normal 0.68454 -0.728975 0
    outer loop
      vertex -1.06238 2.11751 5
      vertex -1.21495 1.97424 3
      vertex -1.06238 2.11751 3
    endloop
  endfacet
  facet normal 0.587802 -0.809005 0
    outer loop
      vertex -1.06238 2.11751 3
      vertex -0.893051 2.24054 5
      vertex -1.06238 2.11751 5
    endloop
  endfacet
  facet normal 0.587802 -0.809005 0
    outer loop
      vertex -0.893051 2.24054 5
      vertex -1.06238 2.11751 3
      vertex -0.893051 2.24054 3
    endloop
  endfacet
  facet normal 0.481752 -0.876308 0
    outer loop
      vertex -0.893051 2.24054 3
      vertex -0.709641 2.34137 5
      vertex -0.893051 2.24054 5
    endloop
  endfacet
  facet normal 0.481752 -0.876308 0
    outer loop
      vertex -0.709641 2.34137 5
      vertex -0.893051 2.24054 3
      vertex -0.709641 2.34137 3
    endloop
  endfacet
  facet normal 0.368158 -0.929763 0
    outer loop
      vertex -0.709641 2.34137 3
      vertex -0.51503 2.41843 5
      vertex -0.709641 2.34137 5
    endloop
  endfacet
  facet normal 0.368158 -0.929763 0
    outer loop
      vertex -0.51503 2.41843 5
      vertex -0.709641 2.34137 3
      vertex -0.51503 2.41843 3
    endloop
  endfacet
  facet normal 0.248655 -0.968592 0
    outer loop
      vertex -0.51503 2.41843 3
      vertex -0.312317 2.47047 5
      vertex -0.51503 2.41843 5
    endloop
  endfacet
  facet normal 0.248655 -0.968592 0
    outer loop
      vertex -0.312317 2.47047 5
      vertex -0.51503 2.41843 3
      vertex -0.312317 2.47047 3
    endloop
  endfacet
  facet normal 0.125318 -0.992117 0
    outer loop
      vertex -0.312317 2.47047 3
      vertex -0.10466 2.4967 5
      vertex -0.312317 2.47047 5
    endloop
  endfacet
  facet normal 0.125318 -0.992117 0
    outer loop
      vertex -0.10466 2.4967 5
      vertex -0.312317 2.47047 3
      vertex -0.10466 2.4967 3
    endloop
  endfacet
  facet normal 0 -1 0
    outer loop
      vertex -0.10466 2.4967 3
      vertex 0.104645 2.4967 5
      vertex -0.10466 2.4967 5
    endloop
  endfacet
  facet normal 0 -1 -0
    outer loop
      vertex 0.104645 2.4967 5
      vertex -0.10466 2.4967 3
      vertex 0.104645 2.4967 3
    endloop
  endfacet
  facet normal -0.125318 -0.992117 0
    outer loop
      vertex 0.104645 2.4967 3
      vertex 0.312302 2.47047 5
      vertex 0.104645 2.4967 5
    endloop
  endfacet
  facet normal -0.125318 -0.992117 -0
    outer loop
      vertex 0.312302 2.47047 5
      vertex 0.104645 2.4967 3
      vertex 0.312302 2.47047 3
    endloop
  endfacet
  facet normal -0.248655 -0.968592 0
    outer loop
      vertex 0.312302 2.47047 3
      vertex 0.515015 2.41843 5
      vertex 0.312302 2.47047 5
    endloop
  endfacet
  facet normal -0.248655 -0.968592 -0
    outer loop
      vertex 0.515015 2.41843 5
      vertex 0.312302 2.47047 3
      vertex 0.515015 2.41843 3
    endloop
  endfacet
  facet normal -0.368159 -0.929763 0
    outer loop
      vertex 0.515015 2.41843 3
      vertex 0.709625 2.34137 5
      vertex 0.515015 2.41843 5
    endloop
  endfacet
  facet normal -0.368159 -0.929763 -0
    outer loop
      vertex 0.709625 2.34137 5
      vertex 0.515015 2.41843 3
      vertex 0.709625 2.34137 3
    endloop
  endfacet
  facet normal -0.48175 -0.876309 0
    outer loop
      vertex 0.709625 2.34137 3
      vertex 0.893036 2.24054 5
      vertex 0.709625 2.34137 5
    endloop
  endfacet
  facet normal -0.48175 -0.876309 -0
    outer loop
      vertex 0.893036 2.24054 5
      vertex 0.709625 2.34137 3
      vertex 0.893036 2.24054 3
    endloop
  endfacet
  facet normal -0.587813 -0.808997 0
    outer loop
      vertex 0.893036 2.24054 3
      vertex 1.06236 2.11751 5
      vertex 0.893036 2.24054 5
    endloop
  endfacet
  facet normal -0.587813 -0.808997 -0
    outer loop
      vertex 1.06236 2.11751 5
      vertex 0.893036 2.24054 3
      vertex 1.06236 2.11751 3
    endloop
  endfacet
  facet normal -0.684516 -0.728998 0
    outer loop
      vertex 1.06236 2.11751 3
      vertex 1.21494 1.97424 5
      vertex 1.06236 2.11751 5
    endloop
  endfacet
  facet normal -0.684516 -0.728998 -0
    outer loop
      vertex 1.21494 1.97424 5
      vertex 1.06236 2.11751 3
      vertex 1.21494 1.97424 3
    endloop
  endfacet
  facet normal -0.7705 -0.637441 0
    outer loop
      vertex 1.34836 1.81297 3
      vertex 1.21494 1.97424 5
      vertex 1.21494 1.97424 3
    endloop
  endfacet
  facet normal -0.7705 -0.637441 0
    outer loop
      vertex 1.21494 1.97424 5
      vertex 1.34836 1.81297 3
      vertex 1.34836 1.81297 5
    endloop
  endfacet
  facet normal -0.844328 -0.535827 0
    outer loop
      vertex 1.46051 1.63625 3
      vertex 1.34836 1.81297 5
      vertex 1.34836 1.81297 3
    endloop
  endfacet
  facet normal -0.844328 -0.535827 0
    outer loop
      vertex 1.34836 1.81297 5
      vertex 1.46051 1.63625 3
      vertex 1.46051 1.63625 5
    endloop
  endfacet
  facet normal -0.904837 -0.425758 0
    outer loop
      vertex 1.54962 1.44687 3
      vertex 1.46051 1.63625 5
      vertex 1.46051 1.63625 3
    endloop
  endfacet
  facet normal -0.904837 -0.425758 0
    outer loop
      vertex 1.46051 1.63625 5
      vertex 1.54962 1.44687 3
      vertex 1.54962 1.44687 5
    endloop
  endfacet
  facet normal -0.951059 -0.309009 0
    outer loop
      vertex 1.6143 1.2478 3
      vertex 1.54962 1.44687 5
      vertex 1.54962 1.44687 3
    endloop
  endfacet
  facet normal -0.951059 -0.309009 0
    outer loop
      vertex 1.54962 1.44687 5
      vertex 1.6143 1.2478 3
      vertex 1.6143 1.2478 5
    endloop
  endfacet
  facet normal -0.982284 -0.187398 0
    outer loop
      vertex 1.65352 1.04222 3
      vertex 1.6143 1.2478 5
      vertex 1.6143 1.2478 3
    endloop
  endfacet
  facet normal -0.982284 -0.187398 0
    outer loop
      vertex 1.6143 1.2478 5
      vertex 1.65352 1.04222 3
      vertex 1.65352 1.04222 5
    endloop
  endfacet
  facet normal -0.998036 -0.0626432 0
    outer loop
      vertex 1.65617 1 3
      vertex 1.65352 1.04222 5
      vertex 1.65352 1.04222 3
    endloop
  endfacet
  facet normal -0.998025 -0.0628137 -0
    outer loop
      vertex 1.66666 0.833328 5
      vertex 1.65617 1 3
      vertex 1.66666 0.833328 -2.5
    endloop
  endfacet
  facet normal -0.998027 -0.0627792 2.88335e-06
    outer loop
      vertex 1.65617 1 3
      vertex 1.66666 0.833328 5
      vertex 1.65352 1.04222 5
    endloop
  endfacet
  facet normal -0.998025 -0.0628137 0
    outer loop
      vertex 1.65617 1 -2.5
      vertex 1.66666 0.833328 -2.5
      vertex 1.65617 1 3
    endloop
  endfacet
  facet normal -0.998027 0.0627789 0
    outer loop
      vertex 1.65352 0.624435 -2.5
      vertex 1.66666 0.833328 5
      vertex 1.66666 0.833328 -2.5
    endloop
  endfacet
  facet normal -0.998027 0.0627789 0
    outer loop
      vertex 1.66666 0.833328 5
      vertex 1.65352 0.624435 -2.5
      vertex 1.65352 0.624435 5
    endloop
  endfacet
  facet normal -0.982287 0.187383 0
    outer loop
      vertex 1.6143 0.418839 -2.5
      vertex 1.65352 0.624435 5
      vertex 1.65352 0.624435 -2.5
    endloop
  endfacet
  facet normal -0.982287 0.187383 0
    outer loop
      vertex 1.65352 0.624435 5
      vertex 1.6143 0.418839 -2.5
      vertex 1.6143 0.418839 5
    endloop
  endfacet
  facet normal -0.95105 0.309036 0
    outer loop
      vertex 1.54962 0.219788 -2.5
      vertex 1.6143 0.418839 5
      vertex 1.6143 0.418839 -2.5
    endloop
  endfacet
  facet normal -0.95105 0.309036 0
    outer loop
      vertex 1.6143 0.418839 5
      vertex 1.54962 0.219788 -2.5
      vertex 1.54962 0.219788 5
    endloop
  endfacet
  facet normal -0.904848 0.425735 0
    outer loop
      vertex 1.46051 0.0303955 -2.5
      vertex 1.54962 0.219788 5
      vertex 1.54962 0.219788 -2.5
    endloop
  endfacet
  facet normal -0.904848 0.425735 0
    outer loop
      vertex 1.54962 0.219788 5
      vertex 1.46051 0.0303955 -2.5
      vertex 1.46051 0.0303955 5
    endloop
  endfacet
  facet normal -0.844317 0.535843 0
    outer loop
      vertex 1.34836 -0.146317 -2.5
      vertex 1.46051 0.0303955 5
      vertex 1.46051 0.0303955 -2.5
    endloop
  endfacet
  facet normal -0.844317 0.535843 0
    outer loop
      vertex 1.46051 0.0303955 5
      vertex 1.34836 -0.146317 -2.5
      vertex 1.34836 -0.146317 5
    endloop
  endfacet
  facet normal -0.7705 0.637441 0
    outer loop
      vertex 1.21494 -0.307587 -2.5
      vertex 1.34836 -0.146317 5
      vertex 1.34836 -0.146317 -2.5
    endloop
  endfacet
  facet normal -0.7705 0.637441 0
    outer loop
      vertex 1.34836 -0.146317 5
      vertex 1.21494 -0.307587 -2.5
      vertex 1.21494 -0.307587 5
    endloop
  endfacet
  facet normal -0.684542 0.728974 0
    outer loop
      vertex 1.21494 -0.307587 -2.5
      vertex 1.06236 -0.450867 5
      vertex 1.21494 -0.307587 5
    endloop
  endfacet
  facet normal -0.684542 0.728974 0
    outer loop
      vertex 1.06236 -0.450867 5
      vertex 1.21494 -0.307587 -2.5
      vertex 1.06236 -0.450867 -2.5
    endloop
  endfacet
  facet normal -0.587769 0.809029 0
    outer loop
      vertex 1.06236 -0.450867 -2.5
      vertex 0.893036 -0.573883 5
      vertex 1.06236 -0.450867 5
    endloop
  endfacet
  facet normal -0.587769 0.809029 0
    outer loop
      vertex 0.893036 -0.573883 5
      vertex 1.06236 -0.450867 -2.5
      vertex 0.893036 -0.573883 -2.5
    endloop
  endfacet
  facet normal -0.48175 0.876309 0
    outer loop
      vertex 0.893036 -0.573883 -2.5
      vertex 0.709625 -0.674713 5
      vertex 0.893036 -0.573883 5
    endloop
  endfacet
  facet normal -0.48175 0.876309 0
    outer loop
      vertex 0.709625 -0.674713 5
      vertex 0.893036 -0.573883 -2.5
      vertex 0.709625 -0.674713 -2.5
    endloop
  endfacet
  facet normal -0.368147 0.929768 0
    outer loop
      vertex 0.709625 -0.674713 -2.5
      vertex 0.515015 -0.75177 5
      vertex 0.709625 -0.674713 5
    endloop
  endfacet
  facet normal -0.368147 0.929768 0
    outer loop
      vertex 0.515015 -0.75177 5
      vertex 0.709625 -0.674713 -2.5
      vertex 0.515015 -0.75177 -2.5
    endloop
  endfacet
  facet normal -0.248691 0.968583 0
    outer loop
      vertex 0.515015 -0.75177 -2.5
      vertex 0.312302 -0.803818 5
      vertex 0.515015 -0.75177 5
    endloop
  endfacet
  facet normal -0.248691 0.968583 0
    outer loop
      vertex 0.312302 -0.803818 5
      vertex 0.515015 -0.75177 -2.5
      vertex 0.312302 -0.803818 -2.5
    endloop
  endfacet
  facet normal -0.125318 0.992117 0
    outer loop
      vertex 0.312302 -0.803818 -2.5
      vertex 0.104645 -0.830048 5
      vertex 0.312302 -0.803818 5
    endloop
  endfacet
  facet normal -0.125318 0.992117 0
    outer loop
      vertex 0.104645 -0.830048 5
      vertex 0.312302 -0.803818 -2.5
      vertex 0.104645 -0.830048 -2.5
    endloop
  endfacet
  facet normal 0 1 -0
    outer loop
      vertex 0.104645 -0.830048 -2.5
      vertex -0.10466 -0.830048 5
      vertex 0.104645 -0.830048 5
    endloop
  endfacet
  facet normal 0 1 0
    outer loop
      vertex -0.10466 -0.830048 5
      vertex 0.104645 -0.830048 -2.5
      vertex -0.10466 -0.830048 -2.5
    endloop
  endfacet
  facet normal 0 1 -0
    outer loop
      vertex -2.33334 -3 -5
      vertex -4 -3 3
      vertex -2.33334 -3 3
    endloop
  endfacet
  facet normal 0 1 0
    outer loop
      vertex -4 -3 3
      vertex -2.33334 -3 -5
      vertex -4 -3 -5
    endloop
  endfacet
  facet normal 0 1 -0
    outer loop
      vertex 4 -3 -5
      vertex 2.33332 -3 3
      vertex 4 -3 3
    endloop
  endfacet
  facet normal 0 1 0
    outer loop
      vertex 2.33332 -3 3
      vertex 4 -3 -5
      vertex 2.33332 -3 -5
    endloop
  endfacet
  facet normal 0 0 -1
    outer loop
      vertex 2.33332 -3 3
      vertex 3 -1 3
      vertex 4 -3 3
    endloop
  endfacet
  facet normal 0 0 -1
    outer loop
      vertex 1.66666 -1.66667 3
      vertex 3 -1 3
      vertex 2.33332 -3 3
    endloop
  endfacet
  facet normal 0 0 -1
    outer loop
      vertex -1.66667 -1.66667 3
      vertex 3 -1 3
      vertex 1.66666 -1.66667 3
    endloop
  endfacet
  facet normal 0 0 -1
    outer loop
      vertex -1.66667 -1.66667 3
      vertex -3 -1 3
      vertex 3 -1 3
    endloop
  endfacet
  facet normal 0 0 -1
    outer loop
      vertex -2.33334 -3 3
      vertex -3 -1 3
      vertex -1.66667 -1.66667 3
    endloop
  endfacet
  facet normal 0 -0 -1
    outer loop
      vertex -3 -1 3
      vertex -2.33334 -3 3
      vertex -4 -3 3
    endloop
  endfacet
  facet normal 0 -1 0
    outer loop
      vertex -3 -1 -2.5
      vertex 3 -1 3
      vertex -3 -1 3
    endloop
  endfacet
  facet normal 0 -1 -0
    outer loop
      vertex 3 -1 3
      vertex -3 -1 -2.5
      vertex 3 -1 -2.5
    endloop
  endfacet
  facet normal 0 0 -1
    outer loop
      vertex 1.6143 0.418839 -2.5
      vertex 2 1 -2.5
      vertex 3 -1 -2.5
    endloop
  endfacet
  facet normal 0 0 -1
    outer loop
      vertex 2 1 -2.5
      vertex 1.65352 0.624435 -2.5
      vertex 1.66666 0.833328 -2.5
    endloop
  endfacet
  facet normal 0 0 -1
    outer loop
      vertex 2 1 -2.5
      vertex 1.6143 0.418839 -2.5
      vertex 1.65352 0.624435 -2.5
    endloop
  endfacet
  facet normal 0 0 -1
    outer loop
      vertex 3 -1 -2.5
      vertex 1.54962 0.219788 -2.5
      vertex 1.6143 0.418839 -2.5
    endloop
  endfacet
  facet normal 0 0 -1
    outer loop
      vertex 3 -1 -2.5
      vertex 1.46051 0.0303955 -2.5
      vertex 1.54962 0.219788 -2.5
    endloop
  endfacet
  facet normal 0 0 -1
    outer loop
      vertex 3 -1 -2.5
      vertex 1.34836 -0.146317 -2.5
      vertex 1.46051 0.0303955 -2.5
    endloop
  endfacet
  facet normal 0 0 -1
    outer loop
      vertex 3 -1 -2.5
      vertex 1.21494 -0.307587 -2.5
      vertex 1.34836 -0.146317 -2.5
    endloop
  endfacet
  facet normal 0 0 -1
    outer loop
      vertex 3 -1 -2.5
      vertex 1.06236 -0.450867 -2.5
      vertex 1.21494 -0.307587 -2.5
    endloop
  endfacet
  facet normal 0 0 -1
    outer loop
      vertex 3 -1 -2.5
      vertex 0.893036 -0.573883 -2.5
      vertex 1.06236 -0.450867 -2.5
    endloop
  endfacet
  facet normal 0 0 -1
    outer loop
      vertex 3 -1 -2.5
      vertex 0.709625 -0.674713 -2.5
      vertex 0.893036 -0.573883 -2.5
    endloop
  endfacet
  facet normal 0 0 -1
    outer loop
      vertex 3 -1 -2.5
      vertex 0.515015 -0.75177 -2.5
      vertex 0.709625 -0.674713 -2.5
    endloop
  endfacet
  facet normal 0 0 -1
    outer loop
      vertex 3 -1 -2.5
      vertex 0.312302 -0.803818 -2.5
      vertex 0.515015 -0.75177 -2.5
    endloop
  endfacet
  facet normal 0 0 -1
    outer loop
      vertex 3 -1 -2.5
      vertex 0.104645 -0.830048 -2.5
      vertex 0.312302 -0.803818 -2.5
    endloop
  endfacet
  facet normal 0 0 -1
    outer loop
      vertex 3 -1 -2.5
      vertex -0.10466 -0.830048 -2.5
      vertex 0.104645 -0.830048 -2.5
    endloop
  endfacet
  facet normal 0 0 -1
    outer loop
      vertex -1.65353 0.624435 -2.5
      vertex -2 1 -2.5
      vertex -1.66667 0.833328 -2.5
    endloop
  endfacet
  facet normal 0 0 -1
    outer loop
      vertex -1.61432 0.418839 -2.5
      vertex -2 1 -2.5
      vertex -1.65353 0.624435 -2.5
    endloop
  endfacet
  facet normal 0 0 -1
    outer loop
      vertex -3 -1 -2.5
      vertex -1.61432 0.418839 -2.5
      vertex -1.54964 0.219788 -2.5
    endloop
  endfacet
  facet normal 0 0 -1
    outer loop
      vertex -3 -1 -2.5
      vertex -1.54964 0.219788 -2.5
      vertex -1.46053 0.0303955 -2.5
    endloop
  endfacet
  facet normal -0 0 -1
    outer loop
      vertex -1.61432 0.418839 -2.5
      vertex -3 -1 -2.5
      vertex -2 1 -2.5
    endloop
  endfacet
  facet normal -0 0 -1
    outer loop
      vertex -1.34837 -0.146317 -2.5
      vertex -3 -1 -2.5
      vertex -1.46053 0.0303955 -2.5
    endloop
  endfacet
  facet normal -0 0 -1
    outer loop
      vertex -1.21495 -0.307587 -2.5
      vertex -3 -1 -2.5
      vertex -1.34837 -0.146317 -2.5
    endloop
  endfacet
  facet normal -0 0 -1
    outer loop
      vertex -1.06238 -0.450867 -2.5
      vertex -3 -1 -2.5
      vertex -1.21495 -0.307587 -2.5
    endloop
  endfacet
  facet normal -0 0 -1
    outer loop
      vertex -0.893051 -0.573883 -2.5
      vertex -3 -1 -2.5
      vertex -1.06238 -0.450867 -2.5
    endloop
  endfacet
  facet normal -0 0 -1
    outer loop
      vertex -0.709641 -0.674713 -2.5
      vertex -3 -1 -2.5
      vertex -0.893051 -0.573883 -2.5
    endloop
  endfacet
  facet normal -0 0 -1
    outer loop
      vertex -0.51503 -0.75177 -2.5
      vertex -3 -1 -2.5
      vertex -0.709641 -0.674713 -2.5
    endloop
  endfacet
  facet normal -0 0 -1
    outer loop
      vertex -0.312317 -0.803818 -2.5
      vertex -3 -1 -2.5
      vertex -0.51503 -0.75177 -2.5
    endloop
  endfacet
  facet normal -0 0 -1
    outer loop
      vertex -0.10466 -0.830048 -2.5
      vertex -3 -1 -2.5
      vertex -0.312317 -0.803818 -2.5
    endloop
  endfacet
  facet normal 0 0 -1
    outer loop
      vertex -3 -1 -2.5
      vertex -0.10466 -0.830048 -2.5
      vertex 3 -1 -2.5
    endloop
  endfacet
  facet normal -0 0 -1
    outer loop
      vertex 2 1 -2.5
      vertex 1.66666 0.833328 -2.5
      vertex 1.65617 1 -2.5
    endloop
  endfacet
  facet normal -0 0 -1
    outer loop
      vertex -1.65619 1 -2.5
      vertex -1.66667 0.833328 -2.5
      vertex -2 1 -2.5
    endloop
  endfacet
  facet normal 0 1 -0
    outer loop
      vertex -1.65619 1 -2.5
      vertex -2 1 3
      vertex -1.65619 1 3
    endloop
  endfacet
  facet normal 0 1 0
    outer loop
      vertex -2 1 3
      vertex -1.65619 1 -2.5
      vertex -2 1 -2.5
    endloop
  endfacet
  facet normal 0 1 -0
    outer loop
      vertex 2 1 -2.5
      vertex 1.65617 1 3
      vertex 2 1 3
    endloop
  endfacet
  facet normal 0 1 0
    outer loop
      vertex 1.65617 1 3
      vertex 2 1 -2.5
      vertex 1.65617 1 -2.5
    endloop
  endfacet
  facet normal 0 0 -1
    outer loop
      vertex 1.65352 1.04222 3
      vertex 2 1 3
      vertex 1.65617 1 3
    endloop
  endfacet
  facet normal 0 0 -1
    outer loop
      vertex 1.6143 1.2478 3
      vertex 2 1 3
      vertex 1.65352 1.04222 3
    endloop
  endfacet
  facet normal 0 0 -1
    outer loop
      vertex 1.54962 1.44687 3
      vertex 2 1 3
      vertex 1.6143 1.2478 3
    endloop
  endfacet
  facet normal 0 0 -1
    outer loop
      vertex 1.46051 1.63625 3
      vertex 2 1 3
      vertex 1.54962 1.44687 3
    endloop
  endfacet
  facet normal 0 0 -1
    outer loop
      vertex 1 3 3
      vertex 1.46051 1.63625 3
      vertex 1.34836 1.81297 3
    endloop
  endfacet
  facet normal 0 0 -1
    outer loop
      vertex 1.46051 1.63625 3
      vertex 1 3 3
      vertex 2 1 3
    endloop
  endfacet
  facet normal 0 0 -1
    outer loop
      vertex 1.21494 1.97424 3
      vertex 1 3 3
      vertex 1.34836 1.81297 3
    endloop
  endfacet
  facet normal 0 0 -1
    outer loop
      vertex 1.06236 2.11751 3
      vertex 1 3 3
      vertex 1.21494 1.97424 3
    endloop
  endfacet
  facet normal 0 0 -1
    outer loop
      vertex 0.893036 2.24054 3
      vertex 1 3 3
      vertex 1.06236 2.11751 3
    endloop
  endfacet
  facet normal 0 0 -1
    outer loop
      vertex 0.709625 2.34137 3
      vertex 1 3 3
      vertex 0.893036 2.24054 3
    endloop
  endfacet
  facet normal 0 0 -1
    outer loop
      vertex 0.515015 2.41843 3
      vertex 1 3 3
      vertex 0.709625 2.34137 3
    endloop
  endfacet
  facet normal 0 0 -1
    outer loop
      vertex 0.312302 2.47047 3
      vertex 1 3 3
      vertex 0.515015 2.41843 3
    endloop
  endfacet
  facet normal 0 0 -1
    outer loop
      vertex 0.104645 2.4967 3
      vertex 1 3 3
      vertex 0.312302 2.47047 3
    endloop
  endfacet
  facet normal 0 0 -1
    outer loop
      vertex -0.10466 2.4967 3
      vertex 1 3 3
      vertex 0.104645 2.4967 3
    endloop
  endfacet
  facet normal 0 0 -1
    outer loop
      vertex -1 3 3
      vertex -0.10466 2.4967 3
      vertex -0.312317 2.47047 3
    endloop
  endfacet
  facet normal 0 0 -1
    outer loop
      vertex -1 3 3
      vertex -0.312317 2.47047 3
      vertex -0.51503 2.41843 3
    endloop
  endfacet
  facet normal 0 0 -1
    outer loop
      vertex -0.10466 2.4967 3
      vertex -1 3 3
      vertex 1 3 3
    endloop
  endfacet
  facet normal 0 0 -1
    outer loop
      vertex -0.709641 2.34137 3
      vertex -1 3 3
      vertex -0.51503 2.41843 3
    endloop
  endfacet
  facet normal 0 0 -1
    outer loop
      vertex -0.893051 2.24054 3
      vertex -1 3 3
      vertex -0.709641 2.34137 3
    endloop
  endfacet
  facet normal 0 0 -1
    outer loop
      vertex -1.06238 2.11751 3
      vertex -1 3 3
      vertex -0.893051 2.24054 3
    endloop
  endfacet
  facet normal 0 0 -1
    outer loop
      vertex -1.21495 1.97424 3
      vertex -1 3 3
      vertex -1.06238 2.11751 3
    endloop
  endfacet
  facet normal 0 0 -1
    outer loop
      vertex -1.34837 1.81297 3
      vertex -1 3 3
      vertex -1.21495 1.97424 3
    endloop
  endfacet
  facet normal 0 0 -1
    outer loop
      vertex -1.46053 1.63625 3
      vertex -1 3 3
      vertex -1.34837 1.81297 3
    endloop
  endfacet
  facet normal 0 0 -1
    outer loop
      vertex -2 1 3
      vertex -1.46053 1.63625 3
      vertex -1.54964 1.44687 3
    endloop
  endfacet
  facet normal -0 0 -1
    outer loop
      vertex -1.46053 1.63625 3
      vertex -2 1 3
      vertex -1 3 3
    endloop
  endfacet
  facet normal -0 0 -1
    outer loop
      vertex -1.61432 1.2478 3
      vertex -2 1 3
      vertex -1.54964 1.44687 3
    endloop
  endfacet
  facet normal -0 0 -1
    outer loop
      vertex -1.65353 1.04222 3
      vertex -2 1 3
      vertex -1.61432 1.2478 3
    endloop
  endfacet
  facet normal 0 0 -1
    outer loop
      vertex -2 1 3
      vertex -1.65353 1.04222 3
      vertex -1.65619 1 3
    endloop
  endfacet
  facet normal 0 -1 0
    outer loop
      vertex -1 3 -5
      vertex 1 3 3
      vertex -1 3 3
    endloop
  endfacet
  facet normal 0 -1 -0
    outer loop
      vertex 1 3 3
      vertex -1 3 -5
      vertex 1 3 -5
    endloop
  endfacet
endsolid OpenSCAD_Model
