solid OpenSCAD_Model
  facet normal 0 0 -1
    outer loop
      vertex -1 3 -5
      vertex 1 3 -5
      vertex 1 -1.66667 -5
    endloop
  endfacet
  facet normal 0 0 -1
    outer loop
      vertex -1 3 -5
      vertex 1 -1.66667 -5
      vertex -1 -1.66667 -5
    endloop
  endfacet
  facet normal 0 0 -1
    outer loop
      vertex 1 3 -5
      vertex -1 3 -5
      vertex 0 5 -5
    endloop
  endfacet
  facet normal 0 0 -1
    outer loop
      vertex -5 -5 -5
      vertex -3 -4.33332 -5
      vertex -3.33334 -5 -5
    endloop
  endfacet
  facet normal -0 0 -1
    outer loop
      vertex -3 -4.33332 -5
      vertex -5 -5 -5
      vertex -3 -1 -5
    endloop
  endfacet
  facet normal 0 0 -1
    outer loop
      vertex 3 -4.33335 -5
      vertex 5 -5 -5
      vertex 3.33333 -5 -5
    endloop
  endfacet
  facet normal 0 0 -1
    outer loop
      vertex 5 -5 -5
      vertex 3 -4.33335 -5
      vertex 3 -1 -5
    endloop
  endfacet
  facet normal 0 0 1
    outer loop
      vertex -1 3 5
      vertex 1 3 5
      vertex 0 5 5
    endloop
  endfacet
  facet normal 0 0 1
    outer loop
      vertex 1 3 5
      vertex -1 3 5
      vertex 1 -1.66667 5
    endloop
  endfacet
  facet normal 0 0 1
    outer loop
      vertex 1 -1.66667 5
      vertex -1 3 5
      vertex -1 -1.66667 5
    endloop
  endfacet
  facet normal 0 0 1
    outer loop
      vertex -5 -5 5
      vertex -3 -4.33332 5
      vertex -3 -1 5
    endloop
  endfacet
  facet normal 0 0 1
    outer loop
      vertex -3 -4.33332 5
      vertex -5 -5 5
      vertex -3.33334 -5 5
    endloop
  endfacet
  facet normal -0 0 1
    outer loop
      vertex 3 -4.33335 5
      vertex 5 -5 5
      vertex 3 -1 5
    endloop
  endfacet
  facet normal 0 0 1
    outer loop
      vertex 5 -5 5
      vertex 3 -4.33335 5
      vertex 3.33333 -5 5
    endloop
  endfacet
  facet normal 0 -1 0
    outer loop
      vertex -1 -1.66667 -5
      vertex 1 -1.66667 5
      vertex -1 -1.66667 5
    endloop
  endfacet
  facet normal 0 -1 -0
    outer loop
      vertex 1 -1.66667 5
      vertex -1 -1.66667 -5
      vertex 1 -1.66667 -5
    endloop
  endfacet
  facet normal -0.894425 -0.447219 0
    outer loop
      vertex 3.33333 -5 -5
      vertex 3 -4.33335 5
      vertex 3 -4.33335 -5
    endloop
  endfacet
  facet normal -0.894425 -0.447219 0
    outer loop
      vertex 3 -4.33335 5
      vertex 3.33333 -5 -5
      vertex 3.33333 -5 5
    endloop
  endfacet
  facet normal 0 -1 0
    outer loop
      vertex 3.33333 -5 -5
      vertex 5 -5 5
      vertex 3.33333 -5 5
    endloop
  endfacet
  facet normal 0 -1 -0
    outer loop
      vertex 5 -5 5
      vertex 3.33333 -5 -5
      vertex 5 -5 -5
    endloop
  endfacet
  facet normal 0.894427 0.447214 0
    outer loop
      vertex 1 3 5
      vertex 0 5 -5
      vertex 0 5 5
    endloop
  endfacet
  facet normal 0.894427 0.447214 0
    outer loop
      vertex 0 5 -5
      vertex 1 3 5
      vertex 1 3 -5
    endloop
  endfacet
  facet normal 0.894427 0.447214 0
    outer loop
      vertex 5 -5 5
      vertex 3 -1 -5
      vertex 3 -1 5
    endloop
  endfacet
  facet normal 0.894427 0.447214 0
    outer loop
      vertex 3 -1 -5
      vertex 5 -5 5
      vertex 5 -5 -5
    endloop
  endfacet
  facet normal -0.894427 0.447214 0
    outer loop
      vertex -1 3 -5
      vertex 0 5 5
      vertex 0 5 -5
    endloop
  endfacet
  facet normal -0.894427 0.447214 0
    outer loop
      vertex 0 5 5
      vertex -1 3 -5
      vertex -1 3 5
    endloop
  endfacet
  facet normal -0.894427 0.447214 0
    outer loop
      vertex -5 -5 -5
      vertex -3 -1 5
      vertex -3 -1 -5
    endloop
  endfacet
  facet normal -0.894427 0.447214 0
    outer loop
      vertex -3 -1 5
      vertex -5 -5 -5
      vertex -5 -5 5
    endloop
  endfacet
  facet normal 0 -1 0
    outer loop
      vertex -5 -5 -5
      vertex -3.33334 -5 5
      vertex -5 -5 5
    endloop
  endfacet
  facet normal 0 -1 -0
    outer loop
      vertex -3.33334 -5 5
      vertex -5 -5 -5
      vertex -3.33334 -5 -5
    endloop
  endfacet
  facet normal 0.894427 -0.447214 0
    outer loop
      vertex -3.33334 -5 5
      vertex -3 -4.33332 -5
      vertex -3 -4.33332 5
    endloop
  endfacet
  facet normal 0.894427 -0.447214 0
    outer loop
      vertex -3 -4.33332 -5
      vertex -3.33334 -5 5
      vertex -3.33334 -5 -5
    endloop
  endfacet
  facet normal 1 -0 0
    outer loop
      vertex -3 -4.33332 5
      vertex -3 -1 -5
      vertex -3 -1 5
    endloop
  endfacet
  facet normal 1 0 0
    outer loop
      vertex -3 -1 -5
      vertex -3 -4.33332 5
      vertex -3 -4.33332 -5
    endloop
  endfacet
  facet normal -1 0 0
    outer loop
      vertex -1 -1.66667 -5
      vertex -1 3 5
      vertex -1 3 -5
    endloop
  endfacet
  facet normal -1 -0 0
    outer loop
      vertex -1 3 5
      vertex -1 -1.66667 -5
      vertex -1 -1.66667 5
    endloop
  endfacet
  facet normal 1 -0 0
    outer loop
      vertex 1 -1.66667 5
      vertex 1 3 -5
      vertex 1 3 5
    endloop
  endfacet
  facet normal 1 0 0
    outer loop
      vertex 1 3 -5
      vertex 1 -1.66667 5
      vertex 1 -1.66667 -5
    endloop
  endfacet
  facet normal -1 0 0
    outer loop
      vertex 3 -4.33335 -5
      vertex 3 -1 5
      vertex 3 -1 -5
    endloop
  endfacet
  facet normal -1 -0 0
    outer loop
      vertex 3 -1 5
      vertex 3 -4.33335 -5
      vertex 3 -4.33335 5
    endloop
  endfacet
endsolid OpenSCAD_Model
