solid OpenSCAD_Model
  facet normal 0 0 -1
    outer loop
      vertex 3.99981 -0.500095 -5
      vertex 3.86383 -0.404785 -5
      vertex 3.99527 -0.496475 -5
    endloop
  endfacet
  facet normal 0 0 -1
    outer loop
      vertex 3.99981 -0.500095 -5
      vertex 3.72679 -0.321716 -5
      vertex 3.86383 -0.404785 -5
    endloop
  endfacet
  facet normal 0 0 -1
    outer loop
      vertex 3.99981 -0.500095 -5
      vertex 3.5847 -0.247589 -5
      vertex 3.72679 -0.321716 -5
    endloop
  endfacet
  facet normal 0 0 -1
    outer loop
      vertex 3.99981 -0.500095 -5
      vertex 3.43816 -0.182709 -5
      vertex 3.5847 -0.247589 -5
    endloop
  endfacet
  facet normal 0 0 -1
    outer loop
      vertex 3.99981 -0.500095 -5
      vertex 3.28777 -0.127365 -5
      vertex 3.43816 -0.182709 -5
    endloop
  endfacet
  facet normal 0 0 -1
    outer loop
      vertex 3.99981 -0.500095 -5
      vertex 3.13412 -0.0817719 -5
      vertex 3.28777 -0.127365 -5
    endloop
  endfacet
  facet normal 0 0 -1
    outer loop
      vertex 3.99981 -0.500095 -5
      vertex 2.97789 -0.0461121 -5
      vertex 3.13412 -0.0817719 -5
    endloop
  endfacet
  facet normal 0 0 -1
    outer loop
      vertex 3.99981 -0.500095 -5
      vertex 2.81969 -0.0205383 -5
      vertex 2.97789 -0.0461121 -5
    endloop
  endfacet
  facet normal 0 0 -1
    outer loop
      vertex 3.99981 -0.500095 -5
      vertex 2.66017 -0.00514221 -5
      vertex 2.81969 -0.0205383 -5
    endloop
  endfacet
  facet normal 0 0 -1
    outer loop
      vertex 3.99981 -0.500095 -5
      vertex 2.5 0 -5
      vertex 2.66017 -0.00514221 -5
    endloop
  endfacet
  facet normal -0 0 -1
    outer loop
      vertex 3.99981 -0.500095 -5
      vertex -1.66667 -1.66666 -5
      vertex 2.5 0 -5
    endloop
  endfacet
  facet normal 0 0 -1
    outer loop
      vertex -5 -5 -5
      vertex -1.66667 -1.66666 -5
      vertex 3.99981 -0.500095 -5
    endloop
  endfacet
  facet normal 0 0 -1
    outer loop
      vertex -1.66667 -1.66666 -5
      vertex -5 -5 -5
      vertex -5 -3.33333 -5
    endloop
  endfacet
  facet normal 0 0 -1
    outer loop
      vertex 3.86383 0.40477 -5
      vertex 3.99982 0.500089 -5
      vertex 3.99527 0.49646 -5
    endloop
  endfacet
  facet normal 0 0 -1
    outer loop
      vertex 3.72679 0.321701 -5
      vertex 3.99982 0.500089 -5
      vertex 3.86383 0.40477 -5
    endloop
  endfacet
  facet normal 0 0 -1
    outer loop
      vertex 3.5847 0.247574 -5
      vertex 3.99982 0.500089 -5
      vertex 3.72679 0.321701 -5
    endloop
  endfacet
  facet normal 0 0 -1
    outer loop
      vertex 3.43816 0.182693 -5
      vertex 3.99982 0.500089 -5
      vertex 3.5847 0.247574 -5
    endloop
  endfacet
  facet normal 0 0 -1
    outer loop
      vertex 3.28777 0.12735 -5
      vertex 3.99982 0.500089 -5
      vertex 3.43816 0.182693 -5
    endloop
  endfacet
  facet normal 0 0 -1
    outer loop
      vertex 3.13412 0.0817566 -5
      vertex 3.99982 0.500089 -5
      vertex 3.28777 0.12735 -5
    endloop
  endfacet
  facet normal 0 0 -1
    outer loop
      vertex 2.97789 0.0460968 -5
      vertex 3.99982 0.500089 -5
      vertex 3.13412 0.0817566 -5
    endloop
  endfacet
  facet normal 0 0 -1
    outer loop
      vertex 2.81969 0.0205231 -5
      vertex 3.99982 0.500089 -5
      vertex 2.97789 0.0460968 -5
    endloop
  endfacet
  facet normal 0 0 -1
    outer loop
      vertex 2.66017 0.00512695 -5
      vertex 3.99982 0.500089 -5
      vertex 2.81969 0.0205231 -5
    endloop
  endfacet
  facet normal 0 0 -1
    outer loop
      vertex 2.5 0 -5
      vertex 3.99982 0.500089 -5
      vertex 2.66017 0.00512695 -5
    endloop
  endfacet
  facet normal 0 0 -1
    outer loop
      vertex -1.66667 1.66667 -5
      vertex 2.5 0 -5
      vertex -1.66667 -1.66666 -5
    endloop
  endfacet
  facet normal 0 0 -1
    outer loop
      vertex -1.66667 1.66667 -5
      vertex 3.99982 0.500089 -5
      vertex 2.5 0 -5
    endloop
  endfacet
  facet normal 0 0 -1
    outer loop
      vertex -5 5 -5
      vertex -1.66667 1.66667 -5
      vertex -5 3.33334 -5
    endloop
  endfacet
  facet normal 0 0 -1
    outer loop
      vertex -1.66667 1.66667 -5
      vertex -5 5 -5
      vertex 3.99982 0.500089 -5
    endloop
  endfacet
  facet normal 0 0 1
    outer loop
      vertex 3.99982 0.500089 5
      vertex 3.86383 0.40477 5
      vertex 3.99527 0.49646 5
    endloop
  endfacet
  facet normal 0 0 1
    outer loop
      vertex 3.99982 0.500089 5
      vertex 3.72679 0.321701 5
      vertex 3.86383 0.40477 5
    endloop
  endfacet
  facet normal 0 0 1
    outer loop
      vertex 3.99982 0.500089 5
      vertex 3.5847 0.247574 5
      vertex 3.72679 0.321701 5
    endloop
  endfacet
  facet normal 0 0 1
    outer loop
      vertex 3.99982 0.500089 5
      vertex 3.43816 0.182693 5
      vertex 3.5847 0.247574 5
    endloop
  endfacet
  facet normal 0 0 1
    outer loop
      vertex 3.99982 0.500089 5
      vertex 3.28777 0.12735 5
      vertex 3.43816 0.182693 5
    endloop
  endfacet
  facet normal 0 0 1
    outer loop
      vertex 3.99982 0.500089 5
      vertex 3.13412 0.0817566 5
      vertex 3.28777 0.12735 5
    endloop
  endfacet
  facet normal 0 0 1
    outer loop
      vertex 3.99982 0.500089 5
      vertex 2.97789 0.0460968 5
      vertex 3.13412 0.0817566 5
    endloop
  endfacet
  facet normal 0 0 1
    outer loop
      vertex 3.99982 0.500089 5
      vertex 2.81969 0.0205231 5
      vertex 2.97789 0.0460968 5
    endloop
  endfacet
  facet normal 0 0 1
    outer loop
      vertex 3.99982 0.500089 5
      vertex 2.66017 0.00512695 5
      vertex 2.81969 0.0205231 5
    endloop
  endfacet
  facet normal 0 0 1
    outer loop
      vertex 3.99982 0.500089 5
      vertex 2.5 0 5
      vertex 2.66017 0.00512695 5
    endloop
  endfacet
  facet normal 0 0 1
    outer loop
      vertex 3.99982 0.500089 5
      vertex -1.66667 1.66667 5
      vertex 2.5 0 5
    endloop
  endfacet
  facet normal 0 0 1
    outer loop
      vertex -5 5 5
      vertex -1.66667 1.66667 5
      vertex 3.99982 0.500089 5
    endloop
  endfacet
  facet normal 0 0 1
    outer loop
      vertex -1.66667 1.66667 5
      vertex -5 5 5
      vertex -5 3.33334 5
    endloop
  endfacet
  facet normal 0 0 1
    outer loop
      vertex 3.86383 -0.404785 5
      vertex 3.99981 -0.500095 5
      vertex 3.99527 -0.496475 5
    endloop
  endfacet
  facet normal 0 0 1
    outer loop
      vertex 3.72679 -0.321716 5
      vertex 3.99981 -0.500095 5
      vertex 3.86383 -0.404785 5
    endloop
  endfacet
  facet normal 0 0 1
    outer loop
      vertex 3.5847 -0.247589 5
      vertex 3.99981 -0.500095 5
      vertex 3.72679 -0.321716 5
    endloop
  endfacet
  facet normal 0 0 1
    outer loop
      vertex 3.43816 -0.182709 5
      vertex 3.99981 -0.500095 5
      vertex 3.5847 -0.247589 5
    endloop
  endfacet
  facet normal 0 0 1
    outer loop
      vertex 3.28777 -0.127365 5
      vertex 3.99981 -0.500095 5
      vertex 3.43816 -0.182709 5
    endloop
  endfacet
  facet normal 0 0 1
    outer loop
      vertex 3.13412 -0.0817719 5
      vertex 3.99981 -0.500095 5
      vertex 3.28777 -0.127365 5
    endloop
  endfacet
  facet normal 0 0 1
    outer loop
      vertex 2.97789 -0.0461121 5
      vertex 3.99981 -0.500095 5
      vertex 3.13412 -0.0817719 5
    endloop
  endfacet
  facet normal 0 0 1
    outer loop
      vertex 2.81969 -0.0205383 5
      vertex 3.99981 -0.500095 5
      vertex 2.97789 -0.0461121 5
    endloop
  endfacet
  facet normal 0 0 1
    outer loop
      vertex 2.66017 -0.00514221 5
      vertex 3.99981 -0.500095 5
      vertex 2.81969 -0.0205383 5
    endloop
  endfacet
  facet normal 0 0 1
    outer loop
      vertex 2.5 0 5
      vertex 3.99981 -0.500095 5
      vertex 2.66017 -0.00514221 5
    endloop
  endfacet
  facet normal 0 0 1
    outer loop
      vertex -1.66667 -1.66666 5
      vertex 2.5 0 5
      vertex -1.66667 1.66667 5
    endloop
  endfacet
  facet normal 0 0 1
    outer loop
      vertex -1.66667 -1.66666 5
      vertex 3.99981 -0.500095 5
      vertex 2.5 0 5
    endloop
  endfacet
  facet normal 0 0 1
    outer loop
      vertex -5 -5 5
      vertex -1.66667 -1.66666 5
      vertex -5 -3.33333 5
    endloop
  endfacet
  facet normal -0 0 1
    outer loop
      vertex -1.66667 -1.66666 5
      vertex -5 -5 5
      vertex 3.99981 -0.500095 5
    endloop
  endfacet
  facet normal 0.623434 0.781876 -0
    outer loop
      vertex 3.99981 -0.500095 -5
      vertex 3.99527 -0.496475 5
      vertex 3.99981 -0.500095 5
    endloop
  endfacet
  facet normal 0.623434 0.781876 0
    outer loop
      vertex 3.99527 -0.496475 5
      vertex 3.99981 -0.500095 -5
      vertex 3.99527 -0.496475 -5
    endloop
  endfacet
  facet normal 0.57213 0.820163 -0
    outer loop
      vertex 3.99527 -0.496475 -5
      vertex 3.86383 -0.404785 5
      vertex 3.99527 -0.496475 5
    endloop
  endfacet
  facet normal 0.57213 0.820163 0
    outer loop
      vertex 3.86383 -0.404785 5
      vertex 3.99527 -0.496475 -5
      vertex 3.86383 -0.404785 -5
    endloop
  endfacet
  facet normal 0.518368 0.855158 -0
    outer loop
      vertex 3.86383 -0.404785 -5
      vertex 3.72679 -0.321716 5
      vertex 3.86383 -0.404785 5
    endloop
  endfacet
  facet normal 0.518368 0.855158 0
    outer loop
      vertex 3.72679 -0.321716 5
      vertex 3.86383 -0.404785 -5
      vertex 3.72679 -0.321716 -5
    endloop
  endfacet
  facet normal 0.462532 0.886603 -0
    outer loop
      vertex 3.72679 -0.321716 -5
      vertex 3.5847 -0.247589 5
      vertex 3.72679 -0.321716 5
    endloop
  endfacet
  facet normal 0.462532 0.886603 0
    outer loop
      vertex 3.5847 -0.247589 5
      vertex 3.72679 -0.321716 -5
      vertex 3.5847 -0.247589 -5
    endloop
  endfacet
  facet normal 0.404841 0.914387 -0
    outer loop
      vertex 3.5847 -0.247589 -5
      vertex 3.43816 -0.182709 5
      vertex 3.5847 -0.247589 5
    endloop
  endfacet
  facet normal 0.404841 0.914387 0
    outer loop
      vertex 3.43816 -0.182709 5
      vertex 3.5847 -0.247589 -5
      vertex 3.43816 -0.182709 -5
    endloop
  endfacet
  facet normal 0.34536 0.93847 -0
    outer loop
      vertex 3.43816 -0.182709 -5
      vertex 3.28777 -0.127365 5
      vertex 3.43816 -0.182709 5
    endloop
  endfacet
  facet normal 0.34536 0.93847 0
    outer loop
      vertex 3.28777 -0.127365 5
      vertex 3.43816 -0.182709 -5
      vertex 3.28777 -0.127365 -5
    endloop
  endfacet
  facet normal 0.284474 0.958684 -0
    outer loop
      vertex 3.28777 -0.127365 -5
      vertex 3.13412 -0.0817719 5
      vertex 3.28777 -0.127365 5
    endloop
  endfacet
  facet normal 0.284474 0.958684 0
    outer loop
      vertex 3.13412 -0.0817719 5
      vertex 3.28777 -0.127365 -5
      vertex 3.13412 -0.0817719 -5
    endloop
  endfacet
  facet normal 0.222529 0.974926 -0
    outer loop
      vertex 3.13412 -0.0817719 -5
      vertex 2.97789 -0.0461121 5
      vertex 3.13412 -0.0817719 5
    endloop
  endfacet
  facet normal 0.222529 0.974926 0
    outer loop
      vertex 2.97789 -0.0461121 5
      vertex 3.13412 -0.0817719 -5
      vertex 2.97789 -0.0461121 -5
    endloop
  endfacet
  facet normal 0.159583 0.987184 -0
    outer loop
      vertex 2.97789 -0.0461121 -5
      vertex 2.81969 -0.0205383 5
      vertex 2.97789 -0.0461121 5
    endloop
  endfacet
  facet normal 0.159583 0.987184 0
    outer loop
      vertex 2.81969 -0.0205383 5
      vertex 2.97789 -0.0461121 -5
      vertex 2.81969 -0.0205383 -5
    endloop
  endfacet
  facet normal 0.0960687 0.995375 -0
    outer loop
      vertex 2.81969 -0.0205383 -5
      vertex 2.66017 -0.00514221 5
      vertex 2.81969 -0.0205383 5
    endloop
  endfacet
  facet normal 0.0960687 0.995375 0
    outer loop
      vertex 2.66017 -0.00514221 5
      vertex 2.81969 -0.0205383 -5
      vertex 2.66017 -0.00514221 -5
    endloop
  endfacet
  facet normal 0.0320882 0.999485 -0
    outer loop
      vertex 2.66017 -0.00514221 -5
      vertex 2.5 0 5
      vertex 2.66017 -0.00514221 5
    endloop
  endfacet
  facet normal 0.0320882 0.999485 0
    outer loop
      vertex 2.5 0 5
      vertex 2.66017 -0.00514221 -5
      vertex 2.5 0 -5
    endloop
  endfacet
  facet normal 0.031993 -0.999488 0
    outer loop
      vertex 2.5 0 -5
      vertex 2.66017 0.00512695 5
      vertex 2.5 0 5
    endloop
  endfacet
  facet normal 0.031993 -0.999488 0
    outer loop
      vertex 2.66017 0.00512695 5
      vertex 2.5 0 -5
      vertex 2.66017 0.00512695 -5
    endloop
  endfacet
  facet normal 0.0960691 -0.995375 0
    outer loop
      vertex 2.66017 0.00512695 -5
      vertex 2.81969 0.0205231 5
      vertex 2.66017 0.00512695 5
    endloop
  endfacet
  facet normal 0.0960691 -0.995375 0
    outer loop
      vertex 2.81969 0.0205231 5
      vertex 2.66017 0.00512695 -5
      vertex 2.81969 0.0205231 -5
    endloop
  endfacet
  facet normal 0.159583 -0.987185 0
    outer loop
      vertex 2.81969 0.0205231 -5
      vertex 2.97789 0.0460968 5
      vertex 2.81969 0.0205231 5
    endloop
  endfacet
  facet normal 0.159583 -0.987185 0
    outer loop
      vertex 2.97789 0.0460968 5
      vertex 2.81969 0.0205231 -5
      vertex 2.97789 0.0460968 -5
    endloop
  endfacet
  facet normal 0.222529 -0.974926 0
    outer loop
      vertex 2.97789 0.0460968 -5
      vertex 3.13412 0.0817566 5
      vertex 2.97789 0.0460968 5
    endloop
  endfacet
  facet normal 0.222529 -0.974926 0
    outer loop
      vertex 3.13412 0.0817566 5
      vertex 2.97789 0.0460968 -5
      vertex 3.13412 0.0817566 -5
    endloop
  endfacet
  facet normal 0.284475 -0.958683 0
    outer loop
      vertex 3.13412 0.0817566 -5
      vertex 3.28777 0.12735 5
      vertex 3.13412 0.0817566 5
    endloop
  endfacet
  facet normal 0.284475 -0.958683 0
    outer loop
      vertex 3.28777 0.12735 5
      vertex 3.13412 0.0817566 -5
      vertex 3.28777 0.12735 -5
    endloop
  endfacet
  facet normal 0.345355 -0.938472 0
    outer loop
      vertex 3.28777 0.12735 -5
      vertex 3.43816 0.182693 5
      vertex 3.28777 0.12735 5
    endloop
  endfacet
  facet normal 0.345355 -0.938472 0
    outer loop
      vertex 3.43816 0.182693 5
      vertex 3.28777 0.12735 -5
      vertex 3.43816 0.182693 -5
    endloop
  endfacet
  facet normal 0.404846 -0.914385 0
    outer loop
      vertex 3.43816 0.182693 -5
      vertex 3.5847 0.247574 5
      vertex 3.43816 0.182693 5
    endloop
  endfacet
  facet normal 0.404846 -0.914385 0
    outer loop
      vertex 3.5847 0.247574 5
      vertex 3.43816 0.182693 -5
      vertex 3.5847 0.247574 -5
    endloop
  endfacet
  facet normal 0.462532 -0.886603 0
    outer loop
      vertex 3.5847 0.247574 -5
      vertex 3.72679 0.321701 5
      vertex 3.5847 0.247574 5
    endloop
  endfacet
  facet normal 0.462532 -0.886603 0
    outer loop
      vertex 3.72679 0.321701 5
      vertex 3.5847 0.247574 -5
      vertex 3.72679 0.321701 -5
    endloop
  endfacet
  facet normal 0.518368 -0.855158 0
    outer loop
      vertex 3.72679 0.321701 -5
      vertex 3.86383 0.40477 5
      vertex 3.72679 0.321701 5
    endloop
  endfacet
  facet normal 0.518368 -0.855158 0
    outer loop
      vertex 3.86383 0.40477 5
      vertex 3.72679 0.321701 -5
      vertex 3.86383 0.40477 -5
    endloop
  endfacet
  facet normal 0.57213 -0.820163 0
    outer loop
      vertex 3.86383 0.40477 -5
      vertex 3.99527 0.49646 5
      vertex 3.86383 0.40477 5
    endloop
  endfacet
  facet normal 0.57213 -0.820163 0
    outer loop
      vertex 3.99527 0.49646 5
      vertex 3.86383 0.40477 -5
      vertex 3.99527 0.49646 -5
    endloop
  endfacet
  facet normal 0.623542 -0.78179 0
    outer loop
      vertex 3.99527 0.49646 -5
      vertex 3.99982 0.500089 5
      vertex 3.99527 0.49646 5
    endloop
  endfacet
  facet normal 0.623542 -0.78179 0
    outer loop
      vertex 3.99982 0.500089 5
      vertex 3.99527 0.49646 -5
      vertex 3.99982 0.500089 -5
    endloop
  endfacet
  facet normal -1 0 0
    outer loop
      vertex -5 3.33334 -5
      vertex -5 5 5
      vertex -5 5 -5
    endloop
  endfacet
  facet normal -1 -0 0
    outer loop
      vertex -5 5 5
      vertex -5 3.33334 -5
      vertex -5 3.33334 5
    endloop
  endfacet
  facet normal -1 0 0
    outer loop
      vertex -5 -5 -5
      vertex -5 -3.33333 5
      vertex -5 -3.33333 -5
    endloop
  endfacet
  facet normal -1 -0 0
    outer loop
      vertex -5 -3.33333 5
      vertex -5 -5 -5
      vertex -5 -5 5
    endloop
  endfacet
  facet normal -1 0 0
    outer loop
      vertex -1.66667 -1.66666 -5
      vertex -1.66667 1.66667 5
      vertex -1.66667 1.66667 -5
    endloop
  endfacet
  facet normal -1 -0 0
    outer loop
      vertex -1.66667 1.66667 5
      vertex -1.66667 -1.66666 -5
      vertex -1.66667 -1.66666 5
    endloop
  endfacet
  facet normal -0.447215 0.894427 0
    outer loop
      vertex -1.66667 -1.66666 -5
      vertex -5 -3.33333 5
      vertex -1.66667 -1.66666 5
    endloop
  endfacet
  facet normal -0.447215 0.894427 0
    outer loop
      vertex -5 -3.33333 5
      vertex -1.66667 -1.66666 -5
      vertex -5 -3.33333 -5
    endloop
  endfacet
  facet normal 0.447214 -0.894427 0
    outer loop
      vertex -5 -5 -5
      vertex 3.99981 -0.500095 5
      vertex -5 -5 5
    endloop
  endfacet
  facet normal 0.447214 -0.894427 0
    outer loop
      vertex 3.99981 -0.500095 5
      vertex -5 -5 -5
      vertex 3.99981 -0.500095 -5
    endloop
  endfacet
  facet normal 0.447214 0.894427 -0
    outer loop
      vertex 3.99982 0.500089 -5
      vertex -5 5 5
      vertex 3.99982 0.500089 5
    endloop
  endfacet
  facet normal 0.447214 0.894427 0
    outer loop
      vertex -5 5 5
      vertex 3.99982 0.500089 -5
      vertex -5 5 -5
    endloop
  endfacet
  facet normal -0.447215 -0.894427 0
    outer loop
      vertex -5 3.33334 -5
      vertex -1.66667 1.66667 5
      vertex -5 3.33334 5
    endloop
  endfacet
  facet normal -0.447215 -0.894427 -0
    outer loop
      vertex -1.66667 1.66667 5
      vertex -5 3.33334 -5
      vertex -1.66667 1.66667 -5
    endloop
  endfacet
endsolid OpenSCAD_Model
