solid OpenSCAD_Model
  facet normal 0 0 -1
    outer loop
      vertex 4.74527 -1.57553 -5
      vertex 4.71649 -1.34366 -5
      vertex 4.77688 -1.46905 -5
    endloop
  endfacet
  facet normal 0 0 -1
    outer loop
      vertex 4.74527 -1.57553 -5
      vertex 4.63785 -1.20403 -5
      vertex 4.71649 -1.34366 -5
    endloop
  endfacet
  facet normal 0 0 -1
    outer loop
      vertex 4.63458 -1.87633 -5
      vertex 4.63785 -1.20403 -5
      vertex 4.74527 -1.57553 -5
    endloop
  endfacet
  facet normal 0 0 -1
    outer loop
      vertex 4.63458 -1.87633 -5
      vertex 4.55043 -1.06972 -5
      vertex 4.63785 -1.20403 -5
    endloop
  endfacet
  facet normal 0 0 -1
    outer loop
      vertex 4.45457 -0.941284 -5
      vertex 4.63458 -1.87633 -5
      vertex 4.50484 -2.16942 -5
    endloop
  endfacet
  facet normal 0 0 -1
    outer loop
      vertex 4.63458 -1.87633 -5
      vertex 4.45457 -0.941284 -5
      vertex 4.55043 -1.06972 -5
    endloop
  endfacet
  facet normal 0 0 -1
    outer loop
      vertex 4.12056 -0.59639 -5
      vertex 4.50484 -2.16942 -5
      vertex 4.35658 -2.45358 -5
    endloop
  endfacet
  facet normal 0 0 -1
    outer loop
      vertex 4.50484 -2.16942 -5
      vertex 4.35069 -0.81926 -5
      vertex 4.45457 -0.941284 -5
    endloop
  endfacet
  facet normal 0 0 -1
    outer loop
      vertex 4.50484 -2.16942 -5
      vertex 4.2392 -0.704132 -5
      vertex 4.35069 -0.81926 -5
    endloop
  endfacet
  facet normal 0 0 -1
    outer loop
      vertex 3.5847 -0.247589 -5
      vertex 4.35658 -2.45358 -5
      vertex 4.19043 -2.72766 -5
    endloop
  endfacet
  facet normal 0 0 -1
    outer loop
      vertex 4.50484 -2.16942 -5
      vertex 4.12056 -0.59639 -5
      vertex 4.2392 -0.704132 -5
    endloop
  endfacet
  facet normal 0 0 -1
    outer loop
      vertex 2.97789 -0.0461121 -5
      vertex 4.19043 -2.72766 -5
      vertex 4.00706 -2.99054 -5
    endloop
  endfacet
  facet normal 0 0 -1
    outer loop
      vertex 4.35658 -2.45358 -5
      vertex 3.99527 -0.496475 -5
      vertex 4.12056 -0.59639 -5
    endloop
  endfacet
  facet normal 0 0 -1
    outer loop
      vertex 4.35658 -2.45358 -5
      vertex 3.86383 -0.404785 -5
      vertex 3.99527 -0.496475 -5
    endloop
  endfacet
  facet normal 0 0 -1
    outer loop
      vertex 2.5 0 -5
      vertex 4.00706 -2.99054 -5
      vertex 3.80722 -3.24113 -5
    endloop
  endfacet
  facet normal 0 0 -1
    outer loop
      vertex 4.35658 -2.45358 -5
      vertex 3.72679 -0.321716 -5
      vertex 3.86383 -0.404785 -5
    endloop
  endfacet
  facet normal 0 0 -1
    outer loop
      vertex 2.5 0 -5
      vertex 3.80722 -3.24113 -5
      vertex 3.59174 -3.47841 -5
    endloop
  endfacet
  facet normal 0 0 -1
    outer loop
      vertex 4.35658 -2.45358 -5
      vertex 3.5847 -0.247589 -5
      vertex 3.72679 -0.321716 -5
    endloop
  endfacet
  facet normal 0 0 -1
    outer loop
      vertex 4.19043 -2.72766 -5
      vertex 3.43816 -0.182709 -5
      vertex 3.5847 -0.247589 -5
    endloop
  endfacet
  facet normal 0 0 -1
    outer loop
      vertex 2.5 0 -5
      vertex 3.59174 -3.47841 -5
      vertex 3.3615 -3.70139 -5
    endloop
  endfacet
  facet normal 0 0 -1
    outer loop
      vertex 4.19043 -2.72766 -5
      vertex 3.28777 -0.127365 -5
      vertex 3.43816 -0.182709 -5
    endloop
  endfacet
  facet normal 0 0 -1
    outer loop
      vertex 4.19043 -2.72766 -5
      vertex 3.13412 -0.0817719 -5
      vertex 3.28777 -0.127365 -5
    endloop
  endfacet
  facet normal 0 0 -1
    outer loop
      vertex 2.5 0 -5
      vertex 3.3615 -3.70139 -5
      vertex 3.11745 -3.90915 -5
    endloop
  endfacet
  facet normal 0 0 -1
    outer loop
      vertex 4.19043 -2.72766 -5
      vertex 2.97789 -0.0461121 -5
      vertex 3.13412 -0.0817719 -5
    endloop
  endfacet
  facet normal 0 0 -1
    outer loop
      vertex 2.5 0 -5
      vertex 3.11745 -3.90915 -5
      vertex 2.86058 -4.10086 -5
    endloop
  endfacet
  facet normal 0 0 -1
    outer loop
      vertex 4.00706 -2.99054 -5
      vertex 2.81969 -0.0205383 -5
      vertex 2.97789 -0.0461121 -5
    endloop
  endfacet
  facet normal 0 0 -1
    outer loop
      vertex 4.00706 -2.99054 -5
      vertex 2.66017 -0.00514221 -5
      vertex 2.81969 -0.0205383 -5
    endloop
  endfacet
  facet normal 0 0 -1
    outer loop
      vertex 2.5 0 -5
      vertex 2.86058 -4.10086 -5
      vertex 2.59195 -4.27571 -5
    endloop
  endfacet
  facet normal 0 0 -1
    outer loop
      vertex 4.00706 -2.99054 -5
      vertex 2.5 0 -5
      vertex 2.66017 -0.00514221 -5
    endloop
  endfacet
  facet normal 0 0 -1
    outer loop
      vertex 2.31268 -4.43298 -5
      vertex 2.5 0 -5
      vertex 2.59195 -4.27571 -5
    endloop
  endfacet
  facet normal 0 0 -1
    outer loop
      vertex 2.02391 -4.57205 -5
      vertex 2.5 0 -5
      vertex 2.31268 -4.43298 -5
    endloop
  endfacet
  facet normal 0 0 -1
    outer loop
      vertex 1.72682 -4.69234 -5
      vertex 2.5 0 -5
      vertex 2.02391 -4.57205 -5
    endloop
  endfacet
  facet normal 0 0 -1
    outer loop
      vertex 1.42262 -4.79333 -5
      vertex 2.5 0 -5
      vertex 1.72682 -4.69234 -5
    endloop
  endfacet
  facet normal 0 0 -1
    outer loop
      vertex 1.11259 -4.87463 -5
      vertex 2.5 0 -5
      vertex 1.42262 -4.79333 -5
    endloop
  endfacet
  facet normal 0 0 -1
    outer loop
      vertex 0.797989 -4.9359 -5
      vertex 2.5 0 -5
      vertex 1.11259 -4.87463 -5
    endloop
  endfacet
  facet normal 0 0 -1
    outer loop
      vertex 0.480103 -4.97688 -5
      vertex 2.5 0 -5
      vertex 0.797989 -4.9359 -5
    endloop
  endfacet
  facet normal 0 0 -1
    outer loop
      vertex 0.160248 -4.99742 -5
      vertex 2.5 0 -5
      vertex 0.480103 -4.97688 -5
    endloop
  endfacet
  facet normal 0 0 -1
    outer loop
      vertex -0.160263 -4.99742 -5
      vertex 2.5 0 -5
      vertex 0.160248 -4.99742 -5
    endloop
  endfacet
  facet normal 0 0 -1
    outer loop
      vertex -0.480118 -4.97688 -5
      vertex 2.5 0 -5
      vertex -0.160263 -4.99742 -5
    endloop
  endfacet
  facet normal 0 0 -1
    outer loop
      vertex -0.798004 -4.9359 -5
      vertex 2.5 0 -5
      vertex -0.480118 -4.97688 -5
    endloop
  endfacet
  facet normal 0 0 -1
    outer loop
      vertex -1.11261 -4.87463 -5
      vertex 2.5 0 -5
      vertex -0.798004 -4.9359 -5
    endloop
  endfacet
  facet normal 0 0 -1
    outer loop
      vertex -1.42264 -4.79333 -5
      vertex 2.5 0 -5
      vertex -1.11261 -4.87463 -5
    endloop
  endfacet
  facet normal 0 0 -1
    outer loop
      vertex -1.72684 -4.69234 -5
      vertex 2.5 0 -5
      vertex -1.42264 -4.79333 -5
    endloop
  endfacet
  facet normal 0 0 -1
    outer loop
      vertex -2.02393 -4.57205 -5
      vertex 2.5 0 -5
      vertex -1.72684 -4.69234 -5
    endloop
  endfacet
  facet normal 0 0 -1
    outer loop
      vertex -2.3127 -4.43298 -5
      vertex 2.5 0 -5
      vertex -2.02393 -4.57205 -5
    endloop
  endfacet
  facet normal 0 0 -1
    outer loop
      vertex -2.59196 -4.27571 -5
      vertex 2.5 0 -5
      vertex -2.3127 -4.43298 -5
    endloop
  endfacet
  facet normal 0 0 -1
    outer loop
      vertex -2.8606 -4.10086 -5
      vertex 2.5 0 -5
      vertex -2.59196 -4.27571 -5
    endloop
  endfacet
  facet normal 0 0 -1
    outer loop
      vertex -3.11746 -3.90915 -5
      vertex 2.5 0 -5
      vertex -2.8606 -4.10086 -5
    endloop
  endfacet
  facet normal 0 0 -1
    outer loop
      vertex -3.36151 -3.70139 -5
      vertex 2.5 0 -5
      vertex -3.11746 -3.90915 -5
    endloop
  endfacet
  facet normal 0 0 -1
    outer loop
      vertex -3.59175 -3.47841 -5
      vertex 2.5 0 -5
      vertex -3.36151 -3.70139 -5
    endloop
  endfacet
  facet normal 0 0 -1
    outer loop
      vertex -3.80724 -3.24113 -5
      vertex 2.5 0 -5
      vertex -3.59175 -3.47841 -5
    endloop
  endfacet
  facet normal 0 0 -1
    outer loop
      vertex -4.00708 -2.99054 -5
      vertex 2.5 0 -5
      vertex -3.80724 -3.24113 -5
    endloop
  endfacet
  facet normal 0 0 -1
    outer loop
      vertex -4.19044 -2.72766 -5
      vertex 2.5 0 -5
      vertex -4.00708 -2.99054 -5
    endloop
  endfacet
  facet normal 0 0 -1
    outer loop
      vertex -4.3566 -2.45358 -5
      vertex 2.5 0 -5
      vertex -4.19044 -2.72766 -5
    endloop
  endfacet
  facet normal 0 0 -1
    outer loop
      vertex -4.50485 -2.16942 -5
      vertex 2.5 0 -5
      vertex -4.3566 -2.45358 -5
    endloop
  endfacet
  facet normal 0 0 -1
    outer loop
      vertex -4.6346 -1.87633 -5
      vertex 2.5 0 -5
      vertex -4.50485 -2.16942 -5
    endloop
  endfacet
  facet normal 0 0 -1
    outer loop
      vertex -4.74529 -1.57553 -5
      vertex 2.5 0 -5
      vertex -4.6346 -1.87633 -5
    endloop
  endfacet
  facet normal 0 0 -1
    outer loop
      vertex -4.83649 -1.26826 -5
      vertex 2.5 0 -5
      vertex -4.74529 -1.57553 -5
    endloop
  endfacet
  facet normal 0 0 -1
    outer loop
      vertex -4.90781 -0.95578 -5
      vertex 2.5 0 -5
      vertex -4.83649 -1.26826 -5
    endloop
  endfacet
  facet normal 0 0 -1
    outer loop
      vertex -4.95895 -0.639374 -5
      vertex 2.5 0 -5
      vertex -4.90781 -0.95578 -5
    endloop
  endfacet
  facet normal 0 0 -1
    outer loop
      vertex -4.98973 -0.320343 -5
      vertex 2.5 0 -5
      vertex -4.95895 -0.639374 -5
    endloop
  endfacet
  facet normal 0 0 -1
    outer loop
      vertex -5 0 -5
      vertex 2.5 0 -5
      vertex -4.98973 -0.320343 -5
    endloop
  endfacet
  facet normal 0 0 -1
    outer loop
      vertex 2.5 0 -5
      vertex -5 0 -5
      vertex 2.5 5 -5
    endloop
  endfacet
  facet normal -0 0 -1
    outer loop
      vertex 2.5 5 -5
      vertex -5 0 -5
      vertex -5 5 -5
    endloop
  endfacet
  facet normal 0 0 -1
    outer loop
      vertex 4.98843 2.25993 -5
      vertex 4.9987 2.58012 -5
      vertex 4.9987 2.41986 -5
    endloop
  endfacet
  facet normal 0 0 -1
    outer loop
      vertex 4.98843 2.25993 -5
      vertex 4.98843 2.74005 -5
      vertex 4.9987 2.58012 -5
    endloop
  endfacet
  facet normal 0 0 -1
    outer loop
      vertex 4.96794 2.101 -5
      vertex 4.98843 2.74005 -5
      vertex 4.98843 2.25993 -5
    endloop
  endfacet
  facet normal 0 0 -1
    outer loop
      vertex 4.96794 2.101 -5
      vertex 4.96794 2.89899 -5
      vertex 4.98843 2.74005 -5
    endloop
  endfacet
  facet normal 0 0 -1
    outer loop
      vertex 4.93732 1.9437 -5
      vertex 4.96794 2.89899 -5
      vertex 4.96794 2.101 -5
    endloop
  endfacet
  facet normal 0 0 -1
    outer loop
      vertex 4.93732 1.9437 -5
      vertex 4.93732 3.05629 -5
      vertex 4.96794 2.89899 -5
    endloop
  endfacet
  facet normal 0 0 -1
    outer loop
      vertex 4.89667 1.78868 -5
      vertex 4.93732 3.05629 -5
      vertex 4.93732 1.9437 -5
    endloop
  endfacet
  facet normal 0 0 -1
    outer loop
      vertex 4.89667 1.78868 -5
      vertex 4.89667 3.2113 -5
      vertex 4.93732 3.05629 -5
    endloop
  endfacet
  facet normal 0 0 -1
    outer loop
      vertex 4.84616 1.63658 -5
      vertex 4.89667 3.2113 -5
      vertex 4.89667 1.78868 -5
    endloop
  endfacet
  facet normal 0 0 -1
    outer loop
      vertex 4.84616 1.63658 -5
      vertex 4.84616 3.3634 -5
      vertex 4.89667 3.2113 -5
    endloop
  endfacet
  facet normal 0 0 -1
    outer loop
      vertex 4.78603 1.48804 -5
      vertex 4.84616 3.3634 -5
      vertex 4.84616 1.63658 -5
    endloop
  endfacet
  facet normal 0 0 -1
    outer loop
      vertex 4.78603 1.48804 -5
      vertex 4.78603 3.51195 -5
      vertex 4.84616 3.3634 -5
    endloop
  endfacet
  facet normal 0 0 -1
    outer loop
      vertex 4.71649 1.34364 -5
      vertex 4.78603 3.51195 -5
      vertex 4.78603 1.48804 -5
    endloop
  endfacet
  facet normal 0 0 -1
    outer loop
      vertex 4.71649 1.34364 -5
      vertex 4.71649 3.65634 -5
      vertex 4.78603 3.51195 -5
    endloop
  endfacet
  facet normal 0 0 -1
    outer loop
      vertex 4.63785 1.20401 -5
      vertex 4.71649 3.65634 -5
      vertex 4.71649 1.34364 -5
    endloop
  endfacet
  facet normal 0 0 -1
    outer loop
      vertex 4.63785 1.20401 -5
      vertex 4.63785 3.79597 -5
      vertex 4.71649 3.65634 -5
    endloop
  endfacet
  facet normal 0 0 -1
    outer loop
      vertex 4.55043 1.0697 -5
      vertex 4.63785 3.79597 -5
      vertex 4.63785 1.20401 -5
    endloop
  endfacet
  facet normal 0 0 -1
    outer loop
      vertex 4.55043 1.0697 -5
      vertex 4.55043 3.93028 -5
      vertex 4.63785 3.79597 -5
    endloop
  endfacet
  facet normal 0 0 -1
    outer loop
      vertex 4.45457 0.941269 -5
      vertex 4.55043 3.93028 -5
      vertex 4.55043 1.0697 -5
    endloop
  endfacet
  facet normal 0 0 -1
    outer loop
      vertex 4.45457 0.941269 -5
      vertex 4.45457 4.05872 -5
      vertex 4.55043 3.93028 -5
    endloop
  endfacet
  facet normal 0 0 -1
    outer loop
      vertex 4.35069 0.819244 -5
      vertex 4.45457 4.05872 -5
      vertex 4.45457 0.941269 -5
    endloop
  endfacet
  facet normal 0 0 -1
    outer loop
      vertex 4.35069 0.819244 -5
      vertex 4.35069 4.18074 -5
      vertex 4.45457 4.05872 -5
    endloop
  endfacet
  facet normal 0 0 -1
    outer loop
      vertex 4.2392 0.704117 -5
      vertex 4.35069 4.18074 -5
      vertex 4.35069 0.819244 -5
    endloop
  endfacet
  facet normal 0 0 -1
    outer loop
      vertex 4.2392 0.704117 -5
      vertex 4.2392 4.29587 -5
      vertex 4.35069 4.18074 -5
    endloop
  endfacet
  facet normal 0 0 -1
    outer loop
      vertex 4.12056 0.596375 -5
      vertex 4.2392 4.29587 -5
      vertex 4.2392 0.704117 -5
    endloop
  endfacet
  facet normal 0 0 -1
    outer loop
      vertex 4.12056 0.596375 -5
      vertex 4.12056 4.40361 -5
      vertex 4.2392 4.29587 -5
    endloop
  endfacet
  facet normal 0 0 -1
    outer loop
      vertex 3.99527 0.49646 -5
      vertex 4.12056 4.40361 -5
      vertex 4.12056 0.596375 -5
    endloop
  endfacet
  facet normal 0 0 -1
    outer loop
      vertex 3.99527 0.49646 -5
      vertex 3.99527 4.50352 -5
      vertex 4.12056 4.40361 -5
    endloop
  endfacet
  facet normal 0 0 -1
    outer loop
      vertex 3.86383 0.40477 -5
      vertex 3.99527 4.50352 -5
      vertex 3.99527 0.49646 -5
    endloop
  endfacet
  facet normal 0 0 -1
    outer loop
      vertex 3.86383 0.40477 -5
      vertex 3.86383 4.59521 -5
      vertex 3.99527 4.50352 -5
    endloop
  endfacet
  facet normal 0 0 -1
    outer loop
      vertex 3.72679 0.321701 -5
      vertex 3.86383 4.59521 -5
      vertex 3.86383 0.40477 -5
    endloop
  endfacet
  facet normal 0 0 -1
    outer loop
      vertex 3.72679 0.321701 -5
      vertex 3.72679 4.67828 -5
      vertex 3.86383 4.59521 -5
    endloop
  endfacet
  facet normal 0 0 -1
    outer loop
      vertex 3.5847 0.247574 -5
      vertex 3.72679 4.67828 -5
      vertex 3.72679 0.321701 -5
    endloop
  endfacet
  facet normal 0 0 -1
    outer loop
      vertex 3.5847 0.247574 -5
      vertex 3.5847 4.75241 -5
      vertex 3.72679 4.67828 -5
    endloop
  endfacet
  facet normal 0 0 -1
    outer loop
      vertex 3.43816 0.182693 -5
      vertex 3.5847 4.75241 -5
      vertex 3.5847 0.247574 -5
    endloop
  endfacet
  facet normal 0 0 -1
    outer loop
      vertex 3.43816 0.182693 -5
      vertex 3.43816 4.81729 -5
      vertex 3.5847 4.75241 -5
    endloop
  endfacet
  facet normal 0 0 -1
    outer loop
      vertex 3.28777 0.12735 -5
      vertex 3.43816 4.81729 -5
      vertex 3.43816 0.182693 -5
    endloop
  endfacet
  facet normal 0 0 -1
    outer loop
      vertex 3.28777 0.12735 -5
      vertex 3.28777 4.87263 -5
      vertex 3.43816 4.81729 -5
    endloop
  endfacet
  facet normal 0 0 -1
    outer loop
      vertex 3.13412 0.0817566 -5
      vertex 3.28777 4.87263 -5
      vertex 3.28777 0.12735 -5
    endloop
  endfacet
  facet normal 0 0 -1
    outer loop
      vertex 3.13412 0.0817566 -5
      vertex 3.13412 4.91823 -5
      vertex 3.28777 4.87263 -5
    endloop
  endfacet
  facet normal 0 0 -1
    outer loop
      vertex 2.97789 0.0460968 -5
      vertex 3.13412 4.91823 -5
      vertex 3.13412 0.0817566 -5
    endloop
  endfacet
  facet normal 0 0 -1
    outer loop
      vertex 2.97789 0.0460968 -5
      vertex 2.97789 4.95389 -5
      vertex 3.13412 4.91823 -5
    endloop
  endfacet
  facet normal 0 0 -1
    outer loop
      vertex 2.81969 0.0205231 -5
      vertex 2.97789 4.95389 -5
      vertex 2.97789 0.0460968 -5
    endloop
  endfacet
  facet normal 0 0 -1
    outer loop
      vertex 2.81969 0.0205231 -5
      vertex 2.81969 4.97946 -5
      vertex 2.97789 4.95389 -5
    endloop
  endfacet
  facet normal 0 0 -1
    outer loop
      vertex 2.66017 0.00512695 -5
      vertex 2.81969 4.97946 -5
      vertex 2.81969 0.0205231 -5
    endloop
  endfacet
  facet normal 0 0 -1
    outer loop
      vertex 2.66017 0.00512695 -5
      vertex 2.66017 4.99486 -5
      vertex 2.81969 4.97946 -5
    endloop
  endfacet
  facet normal 0 0 -1
    outer loop
      vertex 2.5 0 -5
      vertex 2.66017 4.99486 -5
      vertex 2.66017 0.00512695 -5
    endloop
  endfacet
  facet normal -0 0 -1
    outer loop
      vertex 2.66017 4.99486 -5
      vertex 2.5 0 -5
      vertex 2.5 5 -5
    endloop
  endfacet
  facet normal 0 0 1
    outer loop
      vertex 4.98843 2.74005 5
      vertex 4.9987 2.41986 5
      vertex 4.9987 2.58012 5
    endloop
  endfacet
  facet normal 0 0 1
    outer loop
      vertex 4.98843 2.74005 5
      vertex 4.98843 2.25993 5
      vertex 4.9987 2.41986 5
    endloop
  endfacet
  facet normal 0 0 1
    outer loop
      vertex 4.96794 2.89899 5
      vertex 4.98843 2.25993 5
      vertex 4.98843 2.74005 5
    endloop
  endfacet
  facet normal 0 0 1
    outer loop
      vertex 4.96794 2.89899 5
      vertex 4.96794 2.101 5
      vertex 4.98843 2.25993 5
    endloop
  endfacet
  facet normal 0 0 1
    outer loop
      vertex 4.93732 3.05629 5
      vertex 4.96794 2.101 5
      vertex 4.96794 2.89899 5
    endloop
  endfacet
  facet normal 0 0 1
    outer loop
      vertex 4.93732 3.05629 5
      vertex 4.93732 1.9437 5
      vertex 4.96794 2.101 5
    endloop
  endfacet
  facet normal 0 0 1
    outer loop
      vertex 4.89667 3.2113 5
      vertex 4.93732 1.9437 5
      vertex 4.93732 3.05629 5
    endloop
  endfacet
  facet normal 0 0 1
    outer loop
      vertex 4.89667 3.2113 5
      vertex 4.89667 1.78868 5
      vertex 4.93732 1.9437 5
    endloop
  endfacet
  facet normal 0 0 1
    outer loop
      vertex 4.84616 3.3634 5
      vertex 4.89667 1.78868 5
      vertex 4.89667 3.2113 5
    endloop
  endfacet
  facet normal 0 0 1
    outer loop
      vertex 4.84616 3.3634 5
      vertex 4.84616 1.63658 5
      vertex 4.89667 1.78868 5
    endloop
  endfacet
  facet normal 0 0 1
    outer loop
      vertex 4.78603 3.51195 5
      vertex 4.84616 1.63658 5
      vertex 4.84616 3.3634 5
    endloop
  endfacet
  facet normal 0 0 1
    outer loop
      vertex 4.78603 3.51195 5
      vertex 4.78603 1.48804 5
      vertex 4.84616 1.63658 5
    endloop
  endfacet
  facet normal 0 0 1
    outer loop
      vertex 4.71649 3.65634 5
      vertex 4.78603 1.48804 5
      vertex 4.78603 3.51195 5
    endloop
  endfacet
  facet normal 0 0 1
    outer loop
      vertex 4.71649 3.65634 5
      vertex 4.71649 1.34364 5
      vertex 4.78603 1.48804 5
    endloop
  endfacet
  facet normal 0 0 1
    outer loop
      vertex 4.63785 3.79597 5
      vertex 4.71649 1.34364 5
      vertex 4.71649 3.65634 5
    endloop
  endfacet
  facet normal 0 0 1
    outer loop
      vertex 4.63785 3.79597 5
      vertex 4.63785 1.20401 5
      vertex 4.71649 1.34364 5
    endloop
  endfacet
  facet normal 0 0 1
    outer loop
      vertex 4.55043 3.93028 5
      vertex 4.63785 1.20401 5
      vertex 4.63785 3.79597 5
    endloop
  endfacet
  facet normal 0 0 1
    outer loop
      vertex 4.55043 3.93028 5
      vertex 4.55043 1.0697 5
      vertex 4.63785 1.20401 5
    endloop
  endfacet
  facet normal 0 0 1
    outer loop
      vertex 4.45457 4.05872 5
      vertex 4.55043 1.0697 5
      vertex 4.55043 3.93028 5
    endloop
  endfacet
  facet normal 0 0 1
    outer loop
      vertex 4.45457 4.05872 5
      vertex 4.45457 0.941269 5
      vertex 4.55043 1.0697 5
    endloop
  endfacet
  facet normal 0 0 1
    outer loop
      vertex 4.35069 4.18074 5
      vertex 4.45457 0.941269 5
      vertex 4.45457 4.05872 5
    endloop
  endfacet
  facet normal 0 0 1
    outer loop
      vertex 4.35069 4.18074 5
      vertex 4.35069 0.819244 5
      vertex 4.45457 0.941269 5
    endloop
  endfacet
  facet normal 0 0 1
    outer loop
      vertex 4.2392 4.29587 5
      vertex 4.35069 0.819244 5
      vertex 4.35069 4.18074 5
    endloop
  endfacet
  facet normal 0 0 1
    outer loop
      vertex 4.2392 4.29587 5
      vertex 4.2392 0.704117 5
      vertex 4.35069 0.819244 5
    endloop
  endfacet
  facet normal 0 0 1
    outer loop
      vertex 4.12056 4.40361 5
      vertex 4.2392 0.704117 5
      vertex 4.2392 4.29587 5
    endloop
  endfacet
  facet normal 0 0 1
    outer loop
      vertex 4.12056 4.40361 5
      vertex 4.12056 0.596375 5
      vertex 4.2392 0.704117 5
    endloop
  endfacet
  facet normal 0 0 1
    outer loop
      vertex 3.99527 4.50352 5
      vertex 4.12056 0.596375 5
      vertex 4.12056 4.40361 5
    endloop
  endfacet
  facet normal 0 0 1
    outer loop
      vertex 3.99527 4.50352 5
      vertex 3.99527 0.49646 5
      vertex 4.12056 0.596375 5
    endloop
  endfacet
  facet normal 0 0 1
    outer loop
      vertex 3.86383 4.59521 5
      vertex 3.99527 0.49646 5
      vertex 3.99527 4.50352 5
    endloop
  endfacet
  facet normal 0 0 1
    outer loop
      vertex 3.86383 4.59521 5
      vertex 3.86383 0.40477 5
      vertex 3.99527 0.49646 5
    endloop
  endfacet
  facet normal 0 0 1
    outer loop
      vertex 3.72679 4.67828 5
      vertex 3.86383 0.40477 5
      vertex 3.86383 4.59521 5
    endloop
  endfacet
  facet normal 0 0 1
    outer loop
      vertex 3.72679 4.67828 5
      vertex 3.72679 0.321701 5
      vertex 3.86383 0.40477 5
    endloop
  endfacet
  facet normal 0 0 1
    outer loop
      vertex 3.5847 4.75241 5
      vertex 3.72679 0.321701 5
      vertex 3.72679 4.67828 5
    endloop
  endfacet
  facet normal 0 0 1
    outer loop
      vertex 3.5847 4.75241 5
      vertex 3.5847 0.247574 5
      vertex 3.72679 0.321701 5
    endloop
  endfacet
  facet normal 0 0 1
    outer loop
      vertex 3.43816 4.81729 5
      vertex 3.5847 0.247574 5
      vertex 3.5847 4.75241 5
    endloop
  endfacet
  facet normal 0 0 1
    outer loop
      vertex 3.43816 4.81729 5
      vertex 3.43816 0.182693 5
      vertex 3.5847 0.247574 5
    endloop
  endfacet
  facet normal 0 0 1
    outer loop
      vertex 3.28777 4.87263 5
      vertex 3.43816 0.182693 5
      vertex 3.43816 4.81729 5
    endloop
  endfacet
  facet normal 0 0 1
    outer loop
      vertex 3.28777 4.87263 5
      vertex 3.28777 0.12735 5
      vertex 3.43816 0.182693 5
    endloop
  endfacet
  facet normal 0 0 1
    outer loop
      vertex 3.13412 4.91823 5
      vertex 3.28777 0.12735 5
      vertex 3.28777 4.87263 5
    endloop
  endfacet
  facet normal 0 0 1
    outer loop
      vertex 3.13412 4.91823 5
      vertex 3.13412 0.0817566 5
      vertex 3.28777 0.12735 5
    endloop
  endfacet
  facet normal 0 0 1
    outer loop
      vertex 2.97789 4.95389 5
      vertex 3.13412 0.0817566 5
      vertex 3.13412 4.91823 5
    endloop
  endfacet
  facet normal 0 0 1
    outer loop
      vertex 2.97789 4.95389 5
      vertex 2.97789 0.0460968 5
      vertex 3.13412 0.0817566 5
    endloop
  endfacet
  facet normal 0 0 1
    outer loop
      vertex 2.81969 4.97946 5
      vertex 2.97789 0.0460968 5
      vertex 2.97789 4.95389 5
    endloop
  endfacet
  facet normal 0 0 1
    outer loop
      vertex 2.81969 4.97946 5
      vertex 2.81969 0.0205231 5
      vertex 2.97789 0.0460968 5
    endloop
  endfacet
  facet normal 0 0 1
    outer loop
      vertex 2.66017 4.99486 5
      vertex 2.81969 0.0205231 5
      vertex 2.81969 4.97946 5
    endloop
  endfacet
  facet normal 0 0 1
    outer loop
      vertex 2.66017 4.99486 5
      vertex 2.66017 0.00512695 5
      vertex 2.81969 0.0205231 5
    endloop
  endfacet
  facet normal 0 0 1
    outer loop
      vertex 2.5 5 5
      vertex 2.66017 0.00512695 5
      vertex 2.66017 4.99486 5
    endloop
  endfacet
  facet normal 0 0 1
    outer loop
      vertex 2.5 5 5
      vertex 2.5 0 5
      vertex 2.66017 0.00512695 5
    endloop
  endfacet
  facet normal 0 0 1
    outer loop
      vertex -5 0 5
      vertex 2.5 0 5
      vertex 2.5 5 5
    endloop
  endfacet
  facet normal 0 0 1
    outer loop
      vertex 2.5 0 5
      vertex 2.02391 -4.57205 5
      vertex 2.31268 -4.43298 5
    endloop
  endfacet
  facet normal 0 0 1
    outer loop
      vertex 2.5 0 5
      vertex 1.72682 -4.69234 5
      vertex 2.02391 -4.57205 5
    endloop
  endfacet
  facet normal 0 0 1
    outer loop
      vertex 2.5 0 5
      vertex 1.42262 -4.79333 5
      vertex 1.72682 -4.69234 5
    endloop
  endfacet
  facet normal 0 0 1
    outer loop
      vertex 2.5 0 5
      vertex 1.11259 -4.87463 5
      vertex 1.42262 -4.79333 5
    endloop
  endfacet
  facet normal 0 0 1
    outer loop
      vertex 2.5 0 5
      vertex 0.797989 -4.9359 5
      vertex 1.11259 -4.87463 5
    endloop
  endfacet
  facet normal 0 0 1
    outer loop
      vertex 2.5 0 5
      vertex 0.480103 -4.97688 5
      vertex 0.797989 -4.9359 5
    endloop
  endfacet
  facet normal 0 0 1
    outer loop
      vertex 2.5 0 5
      vertex 0.160248 -4.99742 5
      vertex 0.480103 -4.97688 5
    endloop
  endfacet
  facet normal 0 0 1
    outer loop
      vertex 2.5 0 5
      vertex -0.160263 -4.99742 5
      vertex 0.160248 -4.99742 5
    endloop
  endfacet
  facet normal 0 0 1
    outer loop
      vertex 2.5 0 5
      vertex -0.480118 -4.97688 5
      vertex -0.160263 -4.99742 5
    endloop
  endfacet
  facet normal 0 0 1
    outer loop
      vertex 2.5 0 5
      vertex -0.798004 -4.9359 5
      vertex -0.480118 -4.97688 5
    endloop
  endfacet
  facet normal 0 0 1
    outer loop
      vertex 2.5 0 5
      vertex -1.11261 -4.87463 5
      vertex -0.798004 -4.9359 5
    endloop
  endfacet
  facet normal 0 0 1
    outer loop
      vertex 2.5 0 5
      vertex -1.42264 -4.79333 5
      vertex -1.11261 -4.87463 5
    endloop
  endfacet
  facet normal 0 0 1
    outer loop
      vertex 2.5 0 5
      vertex -1.72684 -4.69234 5
      vertex -1.42264 -4.79333 5
    endloop
  endfacet
  facet normal 0 0 1
    outer loop
      vertex 2.5 0 5
      vertex -2.02393 -4.57205 5
      vertex -1.72684 -4.69234 5
    endloop
  endfacet
  facet normal 0 0 1
    outer loop
      vertex 2.5 0 5
      vertex -2.3127 -4.43298 5
      vertex -2.02393 -4.57205 5
    endloop
  endfacet
  facet normal 0 0 1
    outer loop
      vertex 2.5 0 5
      vertex -2.59196 -4.27571 5
      vertex -2.3127 -4.43298 5
    endloop
  endfacet
  facet normal 0 0 1
    outer loop
      vertex 2.5 0 5
      vertex -2.8606 -4.10086 5
      vertex -2.59196 -4.27571 5
    endloop
  endfacet
  facet normal 0 0 1
    outer loop
      vertex 2.5 0 5
      vertex -3.11746 -3.90915 5
      vertex -2.8606 -4.10086 5
    endloop
  endfacet
  facet normal 0 0 1
    outer loop
      vertex 2.5 0 5
      vertex -3.36151 -3.70139 5
      vertex -3.11746 -3.90915 5
    endloop
  endfacet
  facet normal 0 0 1
    outer loop
      vertex 2.5 0 5
      vertex -3.59175 -3.47841 5
      vertex -3.36151 -3.70139 5
    endloop
  endfacet
  facet normal 0 0 1
    outer loop
      vertex 2.5 0 5
      vertex -3.80724 -3.24113 5
      vertex -3.59175 -3.47841 5
    endloop
  endfacet
  facet normal 0 0 1
    outer loop
      vertex 2.5 0 5
      vertex -4.00708 -2.99054 5
      vertex -3.80724 -3.24113 5
    endloop
  endfacet
  facet normal 0 0 1
    outer loop
      vertex 2.5 0 5
      vertex -4.19044 -2.72766 5
      vertex -4.00708 -2.99054 5
    endloop
  endfacet
  facet normal 0 0 1
    outer loop
      vertex 2.5 0 5
      vertex -4.3566 -2.45358 5
      vertex -4.19044 -2.72766 5
    endloop
  endfacet
  facet normal 0 0 1
    outer loop
      vertex 2.5 0 5
      vertex -4.50485 -2.16942 5
      vertex -4.3566 -2.45358 5
    endloop
  endfacet
  facet normal 0 0 1
    outer loop
      vertex 2.5 0 5
      vertex -4.6346 -1.87633 5
      vertex -4.50485 -2.16942 5
    endloop
  endfacet
  facet normal 0 0 1
    outer loop
      vertex 2.5 0 5
      vertex -4.74529 -1.57553 5
      vertex -4.6346 -1.87633 5
    endloop
  endfacet
  facet normal 0 0 1
    outer loop
      vertex 2.5 0 5
      vertex -4.83649 -1.26826 5
      vertex -4.74529 -1.57553 5
    endloop
  endfacet
  facet normal 0 0 1
    outer loop
      vertex 2.5 0 5
      vertex -4.90781 -0.95578 5
      vertex -4.83649 -1.26826 5
    endloop
  endfacet
  facet normal 0 0 1
    outer loop
      vertex 2.5 0 5
      vertex -4.95895 -0.639374 5
      vertex -4.90781 -0.95578 5
    endloop
  endfacet
  facet normal 0 0 1
    outer loop
      vertex 2.5 0 5
      vertex -4.98973 -0.320343 5
      vertex -4.95895 -0.639374 5
    endloop
  endfacet
  facet normal 0 0 1
    outer loop
      vertex -5 0 5
      vertex 2.5 5 5
      vertex -5 5 5
    endloop
  endfacet
  facet normal 0 0 1
    outer loop
      vertex 2.5 0 5
      vertex -5 0 5
      vertex -4.98973 -0.320343 5
    endloop
  endfacet
  facet normal 0 0 1
    outer loop
      vertex 4.71649 -1.34366 5
      vertex 4.74527 -1.57553 5
      vertex 4.77688 -1.46905 5
    endloop
  endfacet
  facet normal 0 0 1
    outer loop
      vertex 4.63785 -1.20403 5
      vertex 4.74527 -1.57553 5
      vertex 4.71649 -1.34366 5
    endloop
  endfacet
  facet normal 0 0 1
    outer loop
      vertex 4.63785 -1.20403 5
      vertex 4.63458 -1.87633 5
      vertex 4.74527 -1.57553 5
    endloop
  endfacet
  facet normal 0 0 1
    outer loop
      vertex 4.55043 -1.06972 5
      vertex 4.63458 -1.87633 5
      vertex 4.63785 -1.20403 5
    endloop
  endfacet
  facet normal 0 0 1
    outer loop
      vertex 4.45457 -0.941284 5
      vertex 4.63458 -1.87633 5
      vertex 4.55043 -1.06972 5
    endloop
  endfacet
  facet normal 0 0 1
    outer loop
      vertex 4.63458 -1.87633 5
      vertex 4.45457 -0.941284 5
      vertex 4.50484 -2.16942 5
    endloop
  endfacet
  facet normal 0 0 1
    outer loop
      vertex 4.35069 -0.81926 5
      vertex 4.50484 -2.16942 5
      vertex 4.45457 -0.941284 5
    endloop
  endfacet
  facet normal 0 0 1
    outer loop
      vertex 4.2392 -0.704132 5
      vertex 4.50484 -2.16942 5
      vertex 4.35069 -0.81926 5
    endloop
  endfacet
  facet normal 0 0 1
    outer loop
      vertex 4.12056 -0.59639 5
      vertex 4.50484 -2.16942 5
      vertex 4.2392 -0.704132 5
    endloop
  endfacet
  facet normal 0 0 1
    outer loop
      vertex 4.50484 -2.16942 5
      vertex 4.12056 -0.59639 5
      vertex 4.35658 -2.45358 5
    endloop
  endfacet
  facet normal 0 0 1
    outer loop
      vertex 3.99527 -0.496475 5
      vertex 4.35658 -2.45358 5
      vertex 4.12056 -0.59639 5
    endloop
  endfacet
  facet normal 0 0 1
    outer loop
      vertex 3.86383 -0.404785 5
      vertex 4.35658 -2.45358 5
      vertex 3.99527 -0.496475 5
    endloop
  endfacet
  facet normal 0 0 1
    outer loop
      vertex 3.72679 -0.321716 5
      vertex 4.35658 -2.45358 5
      vertex 3.86383 -0.404785 5
    endloop
  endfacet
  facet normal 0 0 1
    outer loop
      vertex 3.5847 -0.247589 5
      vertex 4.35658 -2.45358 5
      vertex 3.72679 -0.321716 5
    endloop
  endfacet
  facet normal 0 0 1
    outer loop
      vertex 4.35658 -2.45358 5
      vertex 3.5847 -0.247589 5
      vertex 4.19043 -2.72766 5
    endloop
  endfacet
  facet normal 0 0 1
    outer loop
      vertex 3.43816 -0.182709 5
      vertex 4.19043 -2.72766 5
      vertex 3.5847 -0.247589 5
    endloop
  endfacet
  facet normal 0 0 1
    outer loop
      vertex 3.28777 -0.127365 5
      vertex 4.19043 -2.72766 5
      vertex 3.43816 -0.182709 5
    endloop
  endfacet
  facet normal 0 0 1
    outer loop
      vertex 3.13412 -0.0817719 5
      vertex 4.19043 -2.72766 5
      vertex 3.28777 -0.127365 5
    endloop
  endfacet
  facet normal 0 0 1
    outer loop
      vertex 2.97789 -0.0461121 5
      vertex 4.19043 -2.72766 5
      vertex 3.13412 -0.0817719 5
    endloop
  endfacet
  facet normal 0 0 1
    outer loop
      vertex 4.19043 -2.72766 5
      vertex 2.97789 -0.0461121 5
      vertex 4.00706 -2.99054 5
    endloop
  endfacet
  facet normal 0 0 1
    outer loop
      vertex 2.81969 -0.0205383 5
      vertex 4.00706 -2.99054 5
      vertex 2.97789 -0.0461121 5
    endloop
  endfacet
  facet normal 0 0 1
    outer loop
      vertex 2.66017 -0.00514221 5
      vertex 4.00706 -2.99054 5
      vertex 2.81969 -0.0205383 5
    endloop
  endfacet
  facet normal 0 0 1
    outer loop
      vertex 2.5 0 5
      vertex 4.00706 -2.99054 5
      vertex 2.66017 -0.00514221 5
    endloop
  endfacet
  facet normal 0 0 1
    outer loop
      vertex 4.00706 -2.99054 5
      vertex 2.5 0 5
      vertex 3.80722 -3.24113 5
    endloop
  endfacet
  facet normal 0 0 1
    outer loop
      vertex 3.80722 -3.24113 5
      vertex 2.5 0 5
      vertex 3.59174 -3.47841 5
    endloop
  endfacet
  facet normal 0 0 1
    outer loop
      vertex 3.59174 -3.47841 5
      vertex 2.5 0 5
      vertex 3.3615 -3.70139 5
    endloop
  endfacet
  facet normal 0 0 1
    outer loop
      vertex 3.3615 -3.70139 5
      vertex 2.5 0 5
      vertex 3.11745 -3.90915 5
    endloop
  endfacet
  facet normal 0 0 1
    outer loop
      vertex 3.11745 -3.90915 5
      vertex 2.5 0 5
      vertex 2.86058 -4.10086 5
    endloop
  endfacet
  facet normal 0 0 1
    outer loop
      vertex 2.86058 -4.10086 5
      vertex 2.5 0 5
      vertex 2.59195 -4.27571 5
    endloop
  endfacet
  facet normal 0 0 1
    outer loop
      vertex 2.59195 -4.27571 5
      vertex 2.5 0 5
      vertex 2.31268 -4.43298 5
    endloop
  endfacet
  facet normal 0.900954 0.433915 0
    outer loop
      vertex 4.77688 -1.46905 5
      vertex 4.71649 -1.34366 -5
      vertex 4.71649 -1.34366 5
    endloop
  endfacet
  facet normal 0.900954 0.433915 0
    outer loop
      vertex 4.71649 -1.34366 -5
      vertex 4.77688 -1.46905 5
      vertex 4.77688 -1.46905 -5
    endloop
  endfacet
  facet normal 0.871314 0.490726 0
    outer loop
      vertex 4.71649 -1.34366 5
      vertex 4.63785 -1.20403 -5
      vertex 4.63785 -1.20403 5
    endloop
  endfacet
  facet normal 0.871314 0.490726 0
    outer loop
      vertex 4.63785 -1.20403 -5
      vertex 4.71649 -1.34366 5
      vertex 4.71649 -1.34366 -5
    endloop
  endfacet
  facet normal 0.838106 0.545508 0
    outer loop
      vertex 4.63785 -1.20403 5
      vertex 4.55043 -1.06972 -5
      vertex 4.55043 -1.06972 5
    endloop
  endfacet
  facet normal 0.838106 0.545508 0
    outer loop
      vertex 4.55043 -1.06972 -5
      vertex 4.63785 -1.20403 5
      vertex 4.63785 -1.20403 -5
    endloop
  endfacet
  facet normal 0.801397 0.598133 0
    outer loop
      vertex 4.55043 -1.06972 5
      vertex 4.45457 -0.941284 -5
      vertex 4.45457 -0.941284 5
    endloop
  endfacet
  facet normal 0.801397 0.598133 0
    outer loop
      vertex 4.45457 -0.941284 -5
      vertex 4.55043 -1.06972 5
      vertex 4.55043 -1.06972 -5
    endloop
  endfacet
  facet normal 0.761448 0.648226 0
    outer loop
      vertex 4.45457 -0.941284 5
      vertex 4.35069 -0.81926 -5
      vertex 4.35069 -0.81926 5
    endloop
  endfacet
  facet normal 0.761448 0.648226 0
    outer loop
      vertex 4.35069 -0.81926 -5
      vertex 4.45457 -0.941284 5
      vertex 4.45457 -0.941284 -5
    endloop
  endfacet
  facet normal 0.718366 0.695666 0
    outer loop
      vertex 4.35069 -0.81926 5
      vertex 4.2392 -0.704132 -5
      vertex 4.2392 -0.704132 5
    endloop
  endfacet
  facet normal 0.718366 0.695666 0
    outer loop
      vertex 4.2392 -0.704132 -5
      vertex 4.35069 -0.81926 5
      vertex 4.35069 -0.81926 -5
    endloop
  endfacet
  facet normal 0.672288 0.74029 -0
    outer loop
      vertex 4.2392 -0.704132 -5
      vertex 4.12056 -0.59639 5
      vertex 4.2392 -0.704132 5
    endloop
  endfacet
  facet normal 0.672288 0.74029 0
    outer loop
      vertex 4.12056 -0.59639 5
      vertex 4.2392 -0.704132 -5
      vertex 4.12056 -0.59639 -5
    endloop
  endfacet
  facet normal 0.623488 0.781833 -0
    outer loop
      vertex 4.12056 -0.59639 -5
      vertex 3.99527 -0.496475 5
      vertex 4.12056 -0.59639 5
    endloop
  endfacet
  facet normal 0.623488 0.781833 0
    outer loop
      vertex 3.99527 -0.496475 5
      vertex 4.12056 -0.59639 -5
      vertex 3.99527 -0.496475 -5
    endloop
  endfacet
  facet normal 0.57213 0.820163 -0
    outer loop
      vertex 3.99527 -0.496475 -5
      vertex 3.86383 -0.404785 5
      vertex 3.99527 -0.496475 5
    endloop
  endfacet
  facet normal 0.57213 0.820163 0
    outer loop
      vertex 3.86383 -0.404785 5
      vertex 3.99527 -0.496475 -5
      vertex 3.86383 -0.404785 -5
    endloop
  endfacet
  facet normal 0.518368 0.855158 -0
    outer loop
      vertex 3.86383 -0.404785 -5
      vertex 3.72679 -0.321716 5
      vertex 3.86383 -0.404785 5
    endloop
  endfacet
  facet normal 0.518368 0.855158 0
    outer loop
      vertex 3.72679 -0.321716 5
      vertex 3.86383 -0.404785 -5
      vertex 3.72679 -0.321716 -5
    endloop
  endfacet
  facet normal 0.462532 0.886603 -0
    outer loop
      vertex 3.72679 -0.321716 -5
      vertex 3.5847 -0.247589 5
      vertex 3.72679 -0.321716 5
    endloop
  endfacet
  facet normal 0.462532 0.886603 0
    outer loop
      vertex 3.5847 -0.247589 5
      vertex 3.72679 -0.321716 -5
      vertex 3.5847 -0.247589 -5
    endloop
  endfacet
  facet normal 0.404841 0.914387 -0
    outer loop
      vertex 3.5847 -0.247589 -5
      vertex 3.43816 -0.182709 5
      vertex 3.5847 -0.247589 5
    endloop
  endfacet
  facet normal 0.404841 0.914387 0
    outer loop
      vertex 3.43816 -0.182709 5
      vertex 3.5847 -0.247589 -5
      vertex 3.43816 -0.182709 -5
    endloop
  endfacet
  facet normal 0.34536 0.93847 -0
    outer loop
      vertex 3.43816 -0.182709 -5
      vertex 3.28777 -0.127365 5
      vertex 3.43816 -0.182709 5
    endloop
  endfacet
  facet normal 0.34536 0.93847 0
    outer loop
      vertex 3.28777 -0.127365 5
      vertex 3.43816 -0.182709 -5
      vertex 3.28777 -0.127365 -5
    endloop
  endfacet
  facet normal 0.284474 0.958684 -0
    outer loop
      vertex 3.28777 -0.127365 -5
      vertex 3.13412 -0.0817719 5
      vertex 3.28777 -0.127365 5
    endloop
  endfacet
  facet normal 0.284474 0.958684 0
    outer loop
      vertex 3.13412 -0.0817719 5
      vertex 3.28777 -0.127365 -5
      vertex 3.13412 -0.0817719 -5
    endloop
  endfacet
  facet normal 0.222529 0.974926 -0
    outer loop
      vertex 3.13412 -0.0817719 -5
      vertex 2.97789 -0.0461121 5
      vertex 3.13412 -0.0817719 5
    endloop
  endfacet
  facet normal 0.222529 0.974926 0
    outer loop
      vertex 2.97789 -0.0461121 5
      vertex 3.13412 -0.0817719 -5
      vertex 2.97789 -0.0461121 -5
    endloop
  endfacet
  facet normal 0.159583 0.987184 -0
    outer loop
      vertex 2.97789 -0.0461121 -5
      vertex 2.81969 -0.0205383 5
      vertex 2.97789 -0.0461121 5
    endloop
  endfacet
  facet normal 0.159583 0.987184 0
    outer loop
      vertex 2.81969 -0.0205383 5
      vertex 2.97789 -0.0461121 -5
      vertex 2.81969 -0.0205383 -5
    endloop
  endfacet
  facet normal 0.0960687 0.995375 -0
    outer loop
      vertex 2.81969 -0.0205383 -5
      vertex 2.66017 -0.00514221 5
      vertex 2.81969 -0.0205383 5
    endloop
  endfacet
  facet normal 0.0960687 0.995375 0
    outer loop
      vertex 2.66017 -0.00514221 5
      vertex 2.81969 -0.0205383 -5
      vertex 2.66017 -0.00514221 -5
    endloop
  endfacet
  facet normal 0.0320882 0.999485 -0
    outer loop
      vertex 2.66017 -0.00514221 -5
      vertex 2.5 0 5
      vertex 2.66017 -0.00514221 5
    endloop
  endfacet
  facet normal 0.0320882 0.999485 0
    outer loop
      vertex 2.5 0 5
      vertex 2.66017 -0.00514221 -5
      vertex 2.5 0 -5
    endloop
  endfacet
  facet normal 0.031993 -0.999488 0
    outer loop
      vertex 2.5 0 -5
      vertex 2.66017 0.00512695 5
      vertex 2.5 0 5
    endloop
  endfacet
  facet normal 0.031993 -0.999488 0
    outer loop
      vertex 2.66017 0.00512695 5
      vertex 2.5 0 -5
      vertex 2.66017 0.00512695 -5
    endloop
  endfacet
  facet normal 0.0960691 -0.995375 0
    outer loop
      vertex 2.66017 0.00512695 -5
      vertex 2.81969 0.0205231 5
      vertex 2.66017 0.00512695 5
    endloop
  endfacet
  facet normal 0.0960691 -0.995375 0
    outer loop
      vertex 2.81969 0.0205231 5
      vertex 2.66017 0.00512695 -5
      vertex 2.81969 0.0205231 -5
    endloop
  endfacet
  facet normal 0.159583 -0.987185 0
    outer loop
      vertex 2.81969 0.0205231 -5
      vertex 2.97789 0.0460968 5
      vertex 2.81969 0.0205231 5
    endloop
  endfacet
  facet normal 0.159583 -0.987185 0
    outer loop
      vertex 2.97789 0.0460968 5
      vertex 2.81969 0.0205231 -5
      vertex 2.97789 0.0460968 -5
    endloop
  endfacet
  facet normal 0.222529 -0.974926 0
    outer loop
      vertex 2.97789 0.0460968 -5
      vertex 3.13412 0.0817566 5
      vertex 2.97789 0.0460968 5
    endloop
  endfacet
  facet normal 0.222529 -0.974926 0
    outer loop
      vertex 3.13412 0.0817566 5
      vertex 2.97789 0.0460968 -5
      vertex 3.13412 0.0817566 -5
    endloop
  endfacet
  facet normal 0.284475 -0.958683 0
    outer loop
      vertex 3.13412 0.0817566 -5
      vertex 3.28777 0.12735 5
      vertex 3.13412 0.0817566 5
    endloop
  endfacet
  facet normal 0.284475 -0.958683 0
    outer loop
      vertex 3.28777 0.12735 5
      vertex 3.13412 0.0817566 -5
      vertex 3.28777 0.12735 -5
    endloop
  endfacet
  facet normal 0.345355 -0.938472 0
    outer loop
      vertex 3.28777 0.12735 -5
      vertex 3.43816 0.182693 5
      vertex 3.28777 0.12735 5
    endloop
  endfacet
  facet normal 0.345355 -0.938472 0
    outer loop
      vertex 3.43816 0.182693 5
      vertex 3.28777 0.12735 -5
      vertex 3.43816 0.182693 -5
    endloop
  endfacet
  facet normal 0.404846 -0.914385 0
    outer loop
      vertex 3.43816 0.182693 -5
      vertex 3.5847 0.247574 5
      vertex 3.43816 0.182693 5
    endloop
  endfacet
  facet normal 0.404846 -0.914385 0
    outer loop
      vertex 3.5847 0.247574 5
      vertex 3.43816 0.182693 -5
      vertex 3.5847 0.247574 -5
    endloop
  endfacet
  facet normal 0.462532 -0.886603 0
    outer loop
      vertex 3.5847 0.247574 -5
      vertex 3.72679 0.321701 5
      vertex 3.5847 0.247574 5
    endloop
  endfacet
  facet normal 0.462532 -0.886603 0
    outer loop
      vertex 3.72679 0.321701 5
      vertex 3.5847 0.247574 -5
      vertex 3.72679 0.321701 -5
    endloop
  endfacet
  facet normal 0.518368 -0.855158 0
    outer loop
      vertex 3.72679 0.321701 -5
      vertex 3.86383 0.40477 5
      vertex 3.72679 0.321701 5
    endloop
  endfacet
  facet normal 0.518368 -0.855158 0
    outer loop
      vertex 3.86383 0.40477 5
      vertex 3.72679 0.321701 -5
      vertex 3.86383 0.40477 -5
    endloop
  endfacet
  facet normal 0.57213 -0.820163 0
    outer loop
      vertex 3.86383 0.40477 -5
      vertex 3.99527 0.49646 5
      vertex 3.86383 0.40477 5
    endloop
  endfacet
  facet normal 0.57213 -0.820163 0
    outer loop
      vertex 3.99527 0.49646 5
      vertex 3.86383 0.40477 -5
      vertex 3.99527 0.49646 -5
    endloop
  endfacet
  facet normal 0.623488 -0.781833 0
    outer loop
      vertex 3.99527 0.49646 -5
      vertex 4.12056 0.596375 5
      vertex 3.99527 0.49646 5
    endloop
  endfacet
  facet normal 0.623488 -0.781833 0
    outer loop
      vertex 4.12056 0.596375 5
      vertex 3.99527 0.49646 -5
      vertex 4.12056 0.596375 -5
    endloop
  endfacet
  facet normal 0.672288 -0.74029 0
    outer loop
      vertex 4.12056 0.596375 -5
      vertex 4.2392 0.704117 5
      vertex 4.12056 0.596375 5
    endloop
  endfacet
  facet normal 0.672288 -0.74029 0
    outer loop
      vertex 4.2392 0.704117 5
      vertex 4.12056 0.596375 -5
      vertex 4.2392 0.704117 -5
    endloop
  endfacet
  facet normal 0.718363 -0.695669 0
    outer loop
      vertex 4.2392 0.704117 5
      vertex 4.35069 0.819244 -5
      vertex 4.35069 0.819244 5
    endloop
  endfacet
  facet normal 0.718363 -0.695669 0
    outer loop
      vertex 4.35069 0.819244 -5
      vertex 4.2392 0.704117 5
      vertex 4.2392 0.704117 -5
    endloop
  endfacet
  facet normal 0.76145 -0.648223 0
    outer loop
      vertex 4.35069 0.819244 5
      vertex 4.45457 0.941269 -5
      vertex 4.45457 0.941269 5
    endloop
  endfacet
  facet normal 0.76145 -0.648223 0
    outer loop
      vertex 4.45457 0.941269 -5
      vertex 4.35069 0.819244 5
      vertex 4.35069 0.819244 -5
    endloop
  endfacet
  facet normal 0.801385 -0.598148 0
    outer loop
      vertex 4.45457 0.941269 5
      vertex 4.55043 1.0697 -5
      vertex 4.55043 1.0697 5
    endloop
  endfacet
  facet normal 0.801385 -0.598148 0
    outer loop
      vertex 4.55043 1.0697 -5
      vertex 4.45457 0.941269 5
      vertex 4.45457 0.941269 -5
    endloop
  endfacet
  facet normal 0.838106 -0.545508 0
    outer loop
      vertex 4.55043 1.0697 5
      vertex 4.63785 1.20401 -5
      vertex 4.63785 1.20401 5
    endloop
  endfacet
  facet normal 0.838106 -0.545508 0
    outer loop
      vertex 4.63785 1.20401 -5
      vertex 4.55043 1.0697 5
      vertex 4.55043 1.0697 -5
    endloop
  endfacet
  facet normal 0.871314 -0.490726 0
    outer loop
      vertex 4.63785 1.20401 5
      vertex 4.71649 1.34364 -5
      vertex 4.71649 1.34364 5
    endloop
  endfacet
  facet normal 0.871314 -0.490726 0
    outer loop
      vertex 4.71649 1.34364 -5
      vertex 4.63785 1.20401 5
      vertex 4.63785 1.20401 -5
    endloop
  endfacet
  facet normal 0.900967 -0.433887 0
    outer loop
      vertex 4.71649 1.34364 5
      vertex 4.78603 1.48804 -5
      vertex 4.78603 1.48804 5
    endloop
  endfacet
  facet normal 0.900967 -0.433887 0
    outer loop
      vertex 4.78603 1.48804 -5
      vertex 4.71649 1.34364 5
      vertex 4.71649 1.34364 -5
    endloop
  endfacet
  facet normal 0.926932 -0.375229 0
    outer loop
      vertex 4.78603 1.48804 5
      vertex 4.84616 1.63658 -5
      vertex 4.84616 1.63658 5
    endloop
  endfacet
  facet normal 0.926932 -0.375229 0
    outer loop
      vertex 4.84616 1.63658 -5
      vertex 4.78603 1.48804 5
      vertex 4.78603 1.48804 -5
    endloop
  endfacet
  facet normal 0.949038 -0.315161 0
    outer loop
      vertex 4.84616 1.63658 5
      vertex 4.89667 1.78868 -5
      vertex 4.89667 1.78868 5
    endloop
  endfacet
  facet normal 0.949038 -0.315161 0
    outer loop
      vertex 4.89667 1.78868 -5
      vertex 4.84616 1.63658 5
      vertex 4.84616 1.63658 -5
    endloop
  endfacet
  facet normal 0.967296 -0.253649 0
    outer loop
      vertex 4.89667 1.78868 5
      vertex 4.93732 1.9437 -5
      vertex 4.93732 1.9437 5
    endloop
  endfacet
  facet normal 0.967296 -0.253649 0
    outer loop
      vertex 4.93732 1.9437 -5
      vertex 4.89667 1.78868 5
      vertex 4.89667 1.78868 -5
    endloop
  endfacet
  facet normal 0.981576 -0.191073 0
    outer loop
      vertex 4.93732 1.9437 5
      vertex 4.96794 2.101 -5
      vertex 4.96794 2.101 5
    endloop
  endfacet
  facet normal 0.981576 -0.191073 0
    outer loop
      vertex 4.96794 2.101 -5
      vertex 4.93732 1.9437 5
      vertex 4.93732 1.9437 -5
    endloop
  endfacet
  facet normal 0.991791 -0.127866 0
    outer loop
      vertex 4.96794 2.101 5
      vertex 4.98843 2.25993 -5
      vertex 4.98843 2.25993 5
    endloop
  endfacet
  facet normal 0.991791 -0.127866 0
    outer loop
      vertex 4.98843 2.25993 -5
      vertex 4.96794 2.101 5
      vertex 4.96794 2.101 -5
    endloop
  endfacet
  facet normal 0.997945 -0.0640836 0
    outer loop
      vertex 4.98843 2.25993 5
      vertex 4.9987 2.41986 -5
      vertex 4.9987 2.41986 5
    endloop
  endfacet
  facet normal 0.997945 -0.0640836 0
    outer loop
      vertex 4.9987 2.41986 -5
      vertex 4.98843 2.25993 5
      vertex 4.98843 2.25993 -5
    endloop
  endfacet
  facet normal 1 -0 0
    outer loop
      vertex 4.9987 2.41986 5
      vertex 4.9987 2.58012 -5
      vertex 4.9987 2.58012 5
    endloop
  endfacet
  facet normal 1 0 0
    outer loop
      vertex 4.9987 2.58012 -5
      vertex 4.9987 2.41986 5
      vertex 4.9987 2.41986 -5
    endloop
  endfacet
  facet normal 0.997945 0.0640836 0
    outer loop
      vertex 4.9987 2.58012 5
      vertex 4.98843 2.74005 -5
      vertex 4.98843 2.74005 5
    endloop
  endfacet
  facet normal 0.997945 0.0640836 0
    outer loop
      vertex 4.98843 2.74005 -5
      vertex 4.9987 2.58012 5
      vertex 4.9987 2.58012 -5
    endloop
  endfacet
  facet normal 0.991792 0.127858 0
    outer loop
      vertex 4.98843 2.74005 5
      vertex 4.96794 2.89899 -5
      vertex 4.96794 2.89899 5
    endloop
  endfacet
  facet normal 0.991792 0.127858 0
    outer loop
      vertex 4.96794 2.89899 -5
      vertex 4.98843 2.74005 5
      vertex 4.98843 2.74005 -5
    endloop
  endfacet
  facet normal 0.981576 0.191073 0
    outer loop
      vertex 4.96794 2.89899 5
      vertex 4.93732 3.05629 -5
      vertex 4.93732 3.05629 5
    endloop
  endfacet
  facet normal 0.981576 0.191073 0
    outer loop
      vertex 4.93732 3.05629 -5
      vertex 4.96794 2.89899 5
      vertex 4.96794 2.89899 -5
    endloop
  endfacet
  facet normal 0.967292 0.253664 0
    outer loop
      vertex 4.93732 3.05629 5
      vertex 4.89667 3.2113 -5
      vertex 4.89667 3.2113 5
    endloop
  endfacet
  facet normal 0.967292 0.253664 0
    outer loop
      vertex 4.89667 3.2113 -5
      vertex 4.93732 3.05629 5
      vertex 4.93732 3.05629 -5
    endloop
  endfacet
  facet normal 0.949038 0.315161 0
    outer loop
      vertex 4.89667 3.2113 5
      vertex 4.84616 3.3634 -5
      vertex 4.84616 3.3634 5
    endloop
  endfacet
  facet normal 0.949038 0.315161 0
    outer loop
      vertex 4.84616 3.3634 -5
      vertex 4.89667 3.2113 5
      vertex 4.89667 3.2113 -5
    endloop
  endfacet
  facet normal 0.926941 0.375207 0
    outer loop
      vertex 4.84616 3.3634 5
      vertex 4.78603 3.51195 -5
      vertex 4.78603 3.51195 5
    endloop
  endfacet
  facet normal 0.926941 0.375207 0
    outer loop
      vertex 4.78603 3.51195 -5
      vertex 4.84616 3.3634 5
      vertex 4.84616 3.3634 -5
    endloop
  endfacet
  facet normal 0.900956 0.433911 0
    outer loop
      vertex 4.78603 3.51195 5
      vertex 4.71649 3.65634 -5
      vertex 4.71649 3.65634 5
    endloop
  endfacet
  facet normal 0.900956 0.433911 0
    outer loop
      vertex 4.71649 3.65634 -5
      vertex 4.78603 3.51195 5
      vertex 4.78603 3.51195 -5
    endloop
  endfacet
  facet normal 0.871314 0.490726 0
    outer loop
      vertex 4.71649 3.65634 5
      vertex 4.63785 3.79597 -5
      vertex 4.63785 3.79597 5
    endloop
  endfacet
  facet normal 0.871314 0.490726 0
    outer loop
      vertex 4.63785 3.79597 -5
      vertex 4.71649 3.65634 5
      vertex 4.71649 3.65634 -5
    endloop
  endfacet
  facet normal 0.838106 0.545508 0
    outer loop
      vertex 4.63785 3.79597 5
      vertex 4.55043 3.93028 -5
      vertex 4.55043 3.93028 5
    endloop
  endfacet
  facet normal 0.838106 0.545508 0
    outer loop
      vertex 4.55043 3.93028 -5
      vertex 4.63785 3.79597 5
      vertex 4.63785 3.79597 -5
    endloop
  endfacet
  facet normal 0.801405 0.598121 0
    outer loop
      vertex 4.55043 3.93028 5
      vertex 4.45457 4.05872 -5
      vertex 4.45457 4.05872 5
    endloop
  endfacet
  facet normal 0.801405 0.598121 0
    outer loop
      vertex 4.45457 4.05872 -5
      vertex 4.55043 3.93028 5
      vertex 4.55043 3.93028 -5
    endloop
  endfacet
  facet normal 0.761437 0.648239 0
    outer loop
      vertex 4.45457 4.05872 5
      vertex 4.35069 4.18074 -5
      vertex 4.35069 4.18074 5
    endloop
  endfacet
  facet normal 0.761437 0.648239 0
    outer loop
      vertex 4.35069 4.18074 -5
      vertex 4.45457 4.05872 5
      vertex 4.45457 4.05872 -5
    endloop
  endfacet
  facet normal 0.718372 0.695659 0
    outer loop
      vertex 4.35069 4.18074 5
      vertex 4.2392 4.29587 -5
      vertex 4.2392 4.29587 5
    endloop
  endfacet
  facet normal 0.718372 0.695659 0
    outer loop
      vertex 4.2392 4.29587 -5
      vertex 4.35069 4.18074 5
      vertex 4.35069 4.18074 -5
    endloop
  endfacet
  facet normal 0.672281 0.740296 -0
    outer loop
      vertex 4.2392 4.29587 -5
      vertex 4.12056 4.40361 5
      vertex 4.2392 4.29587 5
    endloop
  endfacet
  facet normal 0.672281 0.740296 0
    outer loop
      vertex 4.12056 4.40361 5
      vertex 4.2392 4.29587 -5
      vertex 4.12056 4.40361 -5
    endloop
  endfacet
  facet normal 0.623469 0.781848 -0
    outer loop
      vertex 4.12056 4.40361 -5
      vertex 3.99527 4.50352 5
      vertex 4.12056 4.40361 5
    endloop
  endfacet
  facet normal 0.623469 0.781848 0
    outer loop
      vertex 3.99527 4.50352 5
      vertex 4.12056 4.40361 -5
      vertex 3.99527 4.50352 -5
    endloop
  endfacet
  facet normal 0.57213 0.820163 -0
    outer loop
      vertex 3.99527 4.50352 -5
      vertex 3.86383 4.59521 5
      vertex 3.99527 4.50352 5
    endloop
  endfacet
  facet normal 0.57213 0.820163 0
    outer loop
      vertex 3.86383 4.59521 5
      vertex 3.99527 4.50352 -5
      vertex 3.86383 4.59521 -5
    endloop
  endfacet
  facet normal 0.518372 0.855155 -0
    outer loop
      vertex 3.86383 4.59521 -5
      vertex 3.72679 4.67828 5
      vertex 3.86383 4.59521 5
    endloop
  endfacet
  facet normal 0.518372 0.855155 0
    outer loop
      vertex 3.72679 4.67828 5
      vertex 3.86383 4.59521 -5
      vertex 3.72679 4.67828 -5
    endloop
  endfacet
  facet normal 0.462547 0.886595 -0
    outer loop
      vertex 3.72679 4.67828 -5
      vertex 3.5847 4.75241 5
      vertex 3.72679 4.67828 5
    endloop
  endfacet
  facet normal 0.462547 0.886595 0
    outer loop
      vertex 3.5847 4.75241 5
      vertex 3.72679 4.67828 -5
      vertex 3.5847 4.75241 -5
    endloop
  endfacet
  facet normal 0.404841 0.914387 -0
    outer loop
      vertex 3.5847 4.75241 -5
      vertex 3.43816 4.81729 5
      vertex 3.5847 4.75241 5
    endloop
  endfacet
  facet normal 0.404841 0.914387 0
    outer loop
      vertex 3.43816 4.81729 5
      vertex 3.5847 4.75241 -5
      vertex 3.43816 4.81729 -5
    endloop
  endfacet
  facet normal 0.345338 0.938478 -0
    outer loop
      vertex 3.43816 4.81729 -5
      vertex 3.28777 4.87263 5
      vertex 3.43816 4.81729 5
    endloop
  endfacet
  facet normal 0.345338 0.938478 0
    outer loop
      vertex 3.28777 4.87263 5
      vertex 3.43816 4.81729 -5
      vertex 3.28777 4.87263 -5
    endloop
  endfacet
  facet normal 0.284513 0.958672 -0
    outer loop
      vertex 3.28777 4.87263 -5
      vertex 3.13412 4.91823 5
      vertex 3.28777 4.87263 5
    endloop
  endfacet
  facet normal 0.284513 0.958672 0
    outer loop
      vertex 3.13412 4.91823 5
      vertex 3.28777 4.87263 -5
      vertex 3.13412 4.91823 -5
    endloop
  endfacet
  facet normal 0.22253 0.974926 -0
    outer loop
      vertex 3.13412 4.91823 -5
      vertex 2.97789 4.95389 5
      vertex 3.13412 4.91823 5
    endloop
  endfacet
  facet normal 0.22253 0.974926 0
    outer loop
      vertex 2.97789 4.95389 5
      vertex 3.13412 4.91823 -5
      vertex 2.97789 4.95389 -5
    endloop
  endfacet
  facet normal 0.15956 0.987188 -0
    outer loop
      vertex 2.97789 4.95389 -5
      vertex 2.81969 4.97946 5
      vertex 2.97789 4.95389 5
    endloop
  endfacet
  facet normal 0.15956 0.987188 0
    outer loop
      vertex 2.81969 4.97946 5
      vertex 2.97789 4.95389 -5
      vertex 2.81969 4.97946 -5
    endloop
  endfacet
  facet normal 0.0960929 0.995372 -0
    outer loop
      vertex 2.81969 4.97946 -5
      vertex 2.66017 4.99486 5
      vertex 2.81969 4.97946 5
    endloop
  endfacet
  facet normal 0.0960929 0.995372 0
    outer loop
      vertex 2.66017 4.99486 5
      vertex 2.81969 4.97946 -5
      vertex 2.66017 4.99486 -5
    endloop
  endfacet
  facet normal 0.0320744 0.999485 -0
    outer loop
      vertex 2.66017 4.99486 -5
      vertex 2.5 5 5
      vertex 2.66017 4.99486 5
    endloop
  endfacet
  facet normal 0.0320744 0.999485 0
    outer loop
      vertex 2.5 5 5
      vertex 2.66017 4.99486 -5
      vertex 2.5 5 -5
    endloop
  endfacet
  facet normal 0 1 -0
    outer loop
      vertex 2.5 5 -5
      vertex -5 5 5
      vertex 2.5 5 5
    endloop
  endfacet
  facet normal 0 1 0
    outer loop
      vertex -5 5 5
      vertex 2.5 5 -5
      vertex -5 5 -5
    endloop
  endfacet
  facet normal -1 0 0
    outer loop
      vertex -5 0 -5
      vertex -5 5 5
      vertex -5 5 -5
    endloop
  endfacet
  facet normal -1 -0 0
    outer loop
      vertex -5 5 5
      vertex -5 0 -5
      vertex -5 0 5
    endloop
  endfacet
  facet normal -0.999486 -0.0320429 0
    outer loop
      vertex -4.98973 -0.320343 -5
      vertex -5 0 5
      vertex -5 0 -5
    endloop
  endfacet
  facet normal -0.999486 -0.0320429 0
    outer loop
      vertex -5 0 5
      vertex -4.98973 -0.320343 -5
      vertex -4.98973 -0.320343 5
    endloop
  endfacet
  facet normal -0.995378 -0.0960337 0
    outer loop
      vertex -4.95895 -0.639374 -5
      vertex -4.98973 -0.320343 5
      vertex -4.98973 -0.320343 -5
    endloop
  endfacet
  facet normal -0.995378 -0.0960337 0
    outer loop
      vertex -4.98973 -0.320343 5
      vertex -4.95895 -0.639374 -5
      vertex -4.95895 -0.639374 5
    endloop
  endfacet
  facet normal 0.545516 -0.838101 0
    outer loop
      vertex 2.59195 -4.27571 -5
      vertex 2.86058 -4.10086 5
      vertex 2.59195 -4.27571 5
    endloop
  endfacet
  facet normal 0.545516 -0.838101 0
    outer loop
      vertex 2.86058 -4.10086 5
      vertex 2.59195 -4.27571 -5
      vertex 2.86058 -4.10086 -5
    endloop
  endfacet
  facet normal 0.820178 -0.572109 0
    outer loop
      vertex 4.00706 -2.99054 5
      vertex 4.19043 -2.72766 -5
      vertex 4.19043 -2.72766 5
    endloop
  endfacet
  facet normal 0.820178 -0.572109 0
    outer loop
      vertex 4.19043 -2.72766 -5
      vertex 4.00706 -2.99054 5
      vertex 4.00706 -2.99054 -5
    endloop
  endfacet
  facet normal 0.95865 -0.284588 0
    outer loop
      vertex 4.74527 -1.57553 5
      vertex 4.77688 -1.46905 -5
      vertex 4.77688 -1.46905 5
    endloop
  endfacet
  facet normal 0.95865 -0.284588 0
    outer loop
      vertex 4.77688 -1.46905 -5
      vertex 4.74527 -1.57553 5
      vertex 4.74527 -1.57553 -5
    endloop
  endfacet
  facet normal 0.695691 -0.718342 0
    outer loop
      vertex 3.3615 -3.70139 -5
      vertex 3.59174 -3.47841 5
      vertex 3.3615 -3.70139 5
    endloop
  endfacet
  facet normal 0.695691 -0.718342 0
    outer loop
      vertex 3.59174 -3.47841 5
      vertex 3.3615 -3.70139 -5
      vertex 3.59174 -3.47841 -5
    endloop
  endfacet
  facet normal 0.914415 -0.404777 0
    outer loop
      vertex 4.50484 -2.16942 5
      vertex 4.63458 -1.87633 -5
      vertex 4.63458 -1.87633 5
    endloop
  endfacet
  facet normal 0.914415 -0.404777 0
    outer loop
      vertex 4.63458 -1.87633 -5
      vertex 4.50484 -2.16942 5
      vertex 4.50484 -2.16942 -5
    endloop
  endfacet
  facet normal 0.78183 -0.623492 0
    outer loop
      vertex 3.80722 -3.24113 5
      vertex 4.00706 -2.99054 -5
      vertex 4.00706 -2.99054 5
    endloop
  endfacet
  facet normal 0.78183 -0.623492 0
    outer loop
      vertex 4.00706 -2.99054 -5
      vertex 3.80722 -3.24113 5
      vertex 3.80722 -3.24113 -5
    endloop
  endfacet
  facet normal 0.938476 -0.345345 0
    outer loop
      vertex 4.63458 -1.87633 5
      vertex 4.74527 -1.57553 -5
      vertex 4.74527 -1.57553 5
    endloop
  endfacet
  facet normal 0.938476 -0.345345 0
    outer loop
      vertex 4.74527 -1.57553 -5
      vertex 4.63458 -1.87633 5
      vertex 4.63458 -1.87633 -5
    endloop
  endfacet
  facet normal 0.886582 -0.462572 0
    outer loop
      vertex 4.35658 -2.45358 5
      vertex 4.50484 -2.16942 -5
      vertex 4.50484 -2.16942 5
    endloop
  endfacet
  facet normal 0.886582 -0.462572 0
    outer loop
      vertex 4.50484 -2.16942 -5
      vertex 4.35658 -2.45358 5
      vertex 4.35658 -2.45358 -5
    endloop
  endfacet
  facet normal 0.740296 -0.672281 0
    outer loop
      vertex 3.59174 -3.47841 5
      vertex 3.80722 -3.24113 -5
      vertex 3.80722 -3.24113 5
    endloop
  endfacet
  facet normal 0.740296 -0.672281 0
    outer loop
      vertex 3.80722 -3.24113 -5
      vertex 3.59174 -3.47841 5
      vertex 3.59174 -3.47841 -5
    endloop
  endfacet
  facet normal 0.648223 -0.76145 0
    outer loop
      vertex 3.11745 -3.90915 -5
      vertex 3.3615 -3.70139 5
      vertex 3.11745 -3.90915 5
    endloop
  endfacet
  facet normal 0.648223 -0.76145 0
    outer loop
      vertex 3.3615 -3.70139 5
      vertex 3.11745 -3.90915 -5
      vertex 3.3615 -3.70139 -5
    endloop
  endfacet
  facet normal 0.598116 -0.801409 0
    outer loop
      vertex 2.86058 -4.10086 -5
      vertex 3.11745 -3.90915 5
      vertex 2.86058 -4.10086 5
    endloop
  endfacet
  facet normal 0.598116 -0.801409 0
    outer loop
      vertex 3.11745 -3.90915 5
      vertex 2.86058 -4.10086 -5
      vertex 3.11745 -3.90915 -5
    endloop
  endfacet
  facet normal -0.598131 -0.801398 0
    outer loop
      vertex -3.11746 -3.90915 -5
      vertex -2.8606 -4.10086 5
      vertex -3.11746 -3.90915 5
    endloop
  endfacet
  facet normal -0.598131 -0.801398 -0
    outer loop
      vertex -2.8606 -4.10086 5
      vertex -3.11746 -3.90915 -5
      vertex -2.8606 -4.10086 -5
    endloop
  endfacet
  facet normal -0.914404 -0.404804 0
    outer loop
      vertex -4.50485 -2.16942 -5
      vertex -4.6346 -1.87633 5
      vertex -4.6346 -1.87633 -5
    endloop
  endfacet
  facet normal -0.914404 -0.404804 0
    outer loop
      vertex -4.6346 -1.87633 5
      vertex -4.50485 -2.16942 -5
      vertex -4.50485 -2.16942 5
    endloop
  endfacet
  facet normal 0.855141 -0.518395 0
    outer loop
      vertex 4.19043 -2.72766 5
      vertex 4.35658 -2.45358 -5
      vertex 4.35658 -2.45358 5
    endloop
  endfacet
  facet normal 0.855141 -0.518395 0
    outer loop
      vertex 4.35658 -2.45358 -5
      vertex 4.19043 -2.72766 5
      vertex 4.19043 -2.72766 -5
    endloop
  endfacet
  facet normal -0.19116 -0.981559 0
    outer loop
      vertex -1.11261 -4.87463 -5
      vertex -0.798004 -4.9359 5
      vertex -1.11261 -4.87463 5
    endloop
  endfacet
  facet normal -0.19116 -0.981559 -0
    outer loop
      vertex -0.798004 -4.9359 5
      vertex -1.11261 -4.87463 -5
      vertex -0.798004 -4.9359 -5
    endloop
  endfacet
  facet normal 0 -1 0
    outer loop
      vertex -0.160263 -4.99742 -5
      vertex 0.160248 -4.99742 5
      vertex -0.160263 -4.99742 5
    endloop
  endfacet
  facet normal 0 -1 -0
    outer loop
      vertex 0.160248 -4.99742 5
      vertex -0.160263 -4.99742 -5
      vertex 0.160248 -4.99742 -5
    endloop
  endfacet
  facet normal 0.191163 -0.981558 0
    outer loop
      vertex 0.797989 -4.9359 -5
      vertex 1.11259 -4.87463 5
      vertex 0.797989 -4.9359 5
    endloop
  endfacet
  facet normal 0.191163 -0.981558 0
    outer loop
      vertex 1.11259 -4.87463 5
      vertex 0.797989 -4.9359 -5
      vertex 1.11259 -4.87463 -5
    endloop
  endfacet
  facet normal 0.0640846 -0.997944 0
    outer loop
      vertex 0.160248 -4.99742 -5
      vertex 0.480103 -4.97688 5
      vertex 0.160248 -4.99742 5
    endloop
  endfacet
  facet normal 0.0640846 -0.997944 0
    outer loop
      vertex 0.480103 -4.97688 5
      vertex 0.160248 -4.99742 -5
      vertex 0.480103 -4.97688 -5
    endloop
  endfacet
  facet normal 0.433898 -0.900962 0
    outer loop
      vertex 2.02391 -4.57205 -5
      vertex 2.31268 -4.43298 5
      vertex 2.02391 -4.57205 5
    endloop
  endfacet
  facet normal 0.433898 -0.900962 0
    outer loop
      vertex 2.31268 -4.43298 5
      vertex 2.02391 -4.57205 -5
      vertex 2.31268 -4.43298 -5
    endloop
  endfacet
  facet normal 0.315076 -0.949066 0
    outer loop
      vertex 1.42262 -4.79333 -5
      vertex 1.72682 -4.69234 5
      vertex 1.42262 -4.79333 5
    endloop
  endfacet
  facet normal 0.315076 -0.949066 0
    outer loop
      vertex 1.72682 -4.69234 5
      vertex 1.42262 -4.79333 -5
      vertex 1.72682 -4.69234 -5
    endloop
  endfacet
  facet normal -0.648223 -0.76145 0
    outer loop
      vertex -3.36151 -3.70139 -5
      vertex -3.11746 -3.90915 5
      vertex -3.36151 -3.70139 5
    endloop
  endfacet
  facet normal -0.648223 -0.76145 -0
    outer loop
      vertex -3.11746 -3.90915 5
      vertex -3.36151 -3.70139 -5
      vertex -3.11746 -3.90915 -5
    endloop
  endfacet
  facet normal -0.433898 -0.900962 0
    outer loop
      vertex -2.3127 -4.43298 -5
      vertex -2.02393 -4.57205 5
      vertex -2.3127 -4.43298 5
    endloop
  endfacet
  facet normal -0.433898 -0.900962 -0
    outer loop
      vertex -2.02393 -4.57205 5
      vertex -2.3127 -4.43298 -5
      vertex -2.02393 -4.57205 -5
    endloop
  endfacet
  facet normal -0.820192 -0.572088 0
    outer loop
      vertex -4.00708 -2.99054 -5
      vertex -4.19044 -2.72766 5
      vertex -4.19044 -2.72766 -5
    endloop
  endfacet
  facet normal -0.820192 -0.572088 0
    outer loop
      vertex -4.19044 -2.72766 5
      vertex -4.00708 -2.99054 -5
      vertex -4.00708 -2.99054 5
    endloop
  endfacet
  facet normal -0.938476 -0.345345 0
    outer loop
      vertex -4.6346 -1.87633 -5
      vertex -4.74529 -1.57553 5
      vertex -4.74529 -1.57553 -5
    endloop
  endfacet
  facet normal -0.938476 -0.345345 0
    outer loop
      vertex -4.74529 -1.57553 5
      vertex -4.6346 -1.87633 -5
      vertex -4.6346 -1.87633 5
    endloop
  endfacet
  facet normal -0.958665 -0.284539 0
    outer loop
      vertex -4.74529 -1.57553 -5
      vertex -4.83649 -1.26826 5
      vertex -4.83649 -1.26826 -5
    endloop
  endfacet
  facet normal -0.958665 -0.284539 0
    outer loop
      vertex -4.83649 -1.26826 5
      vertex -4.74529 -1.57553 -5
      vertex -4.74529 -1.57553 5
    endloop
  endfacet
  facet normal -0.974929 -0.222516 0
    outer loop
      vertex -4.83649 -1.26826 -5
      vertex -4.90781 -0.95578 5
      vertex -4.90781 -0.95578 -5
    endloop
  endfacet
  facet normal -0.974929 -0.222516 0
    outer loop
      vertex -4.90781 -0.95578 5
      vertex -4.83649 -1.26826 -5
      vertex -4.83649 -1.26826 5
    endloop
  endfacet
  facet normal -0.987189 -0.159557 0
    outer loop
      vertex -4.90781 -0.95578 -5
      vertex -4.95895 -0.639374 5
      vertex -4.95895 -0.639374 -5
    endloop
  endfacet
  facet normal -0.987189 -0.159557 0
    outer loop
      vertex -4.95895 -0.639374 5
      vertex -4.90781 -0.95578 -5
      vertex -4.90781 -0.95578 5
    endloop
  endfacet
  facet normal -0.375298 -0.926904 0
    outer loop
      vertex -2.02393 -4.57205 -5
      vertex -1.72684 -4.69234 5
      vertex -2.02393 -4.57205 5
    endloop
  endfacet
  facet normal -0.375298 -0.926904 -0
    outer loop
      vertex -1.72684 -4.69234 5
      vertex -2.02393 -4.57205 -5
      vertex -1.72684 -4.69234 -5
    endloop
  endfacet
  facet normal -0.253656 -0.967294 0
    outer loop
      vertex -1.42264 -4.79333 -5
      vertex -1.11261 -4.87463 5
      vertex -1.42264 -4.79333 5
    endloop
  endfacet
  facet normal -0.253656 -0.967294 -0
    outer loop
      vertex -1.11261 -4.87463 5
      vertex -1.42264 -4.79333 -5
      vertex -1.11261 -4.87463 -5
    endloop
  endfacet
  facet normal -0.315076 -0.949066 0
    outer loop
      vertex -1.72684 -4.69234 -5
      vertex -1.42264 -4.79333 5
      vertex -1.72684 -4.69234 5
    endloop
  endfacet
  facet normal -0.315076 -0.949066 -0
    outer loop
      vertex -1.42264 -4.79333 5
      vertex -1.72684 -4.69234 -5
      vertex -1.42264 -4.79333 -5
    endloop
  endfacet
  facet normal -0.0640846 -0.997944 0
    outer loop
      vertex -0.480118 -4.97688 -5
      vertex -0.160263 -4.99742 5
      vertex -0.480118 -4.97688 5
    endloop
  endfacet
  facet normal -0.0640846 -0.997944 -0
    outer loop
      vertex -0.160263 -4.99742 5
      vertex -0.480118 -4.97688 -5
      vertex -0.160263 -4.99742 -5
    endloop
  endfacet
  facet normal 0.253656 -0.967294 0
    outer loop
      vertex 1.11259 -4.87463 -5
      vertex 1.42262 -4.79333 5
      vertex 1.11259 -4.87463 5
    endloop
  endfacet
  facet normal 0.253656 -0.967294 0
    outer loop
      vertex 1.42262 -4.79333 5
      vertex 1.11259 -4.87463 -5
      vertex 1.42262 -4.79333 -5
    endloop
  endfacet
  facet normal 0.127856 -0.991793 0
    outer loop
      vertex 0.480103 -4.97688 -5
      vertex 0.797989 -4.9359 5
      vertex 0.480103 -4.97688 5
    endloop
  endfacet
  facet normal 0.127856 -0.991793 0
    outer loop
      vertex 0.797989 -4.9359 5
      vertex 0.480103 -4.97688 -5
      vertex 0.797989 -4.9359 -5
    endloop
  endfacet
  facet normal 0.375298 -0.926904 0
    outer loop
      vertex 1.72682 -4.69234 -5
      vertex 2.02391 -4.57205 5
      vertex 1.72682 -4.69234 5
    endloop
  endfacet
  facet normal 0.375298 -0.926904 0
    outer loop
      vertex 2.02391 -4.57205 5
      vertex 1.72682 -4.69234 -5
      vertex 2.02391 -4.57205 -5
    endloop
  endfacet
  facet normal 0.490689 -0.871335 0
    outer loop
      vertex 2.31268 -4.43298 -5
      vertex 2.59195 -4.27571 5
      vertex 2.31268 -4.43298 5
    endloop
  endfacet
  facet normal 0.490689 -0.871335 0
    outer loop
      vertex 2.59195 -4.27571 5
      vertex 2.31268 -4.43298 -5
      vertex 2.59195 -4.27571 -5
    endloop
  endfacet
  facet normal -0.78183 -0.623492 0
    outer loop
      vertex -3.80724 -3.24113 -5
      vertex -4.00708 -2.99054 5
      vertex -4.00708 -2.99054 -5
    endloop
  endfacet
  facet normal -0.78183 -0.623492 0
    outer loop
      vertex -4.00708 -2.99054 5
      vertex -3.80724 -3.24113 -5
      vertex -3.80724 -3.24113 5
    endloop
  endfacet
  facet normal -0.695691 -0.718342 0
    outer loop
      vertex -3.59175 -3.47841 -5
      vertex -3.36151 -3.70139 5
      vertex -3.59175 -3.47841 5
    endloop
  endfacet
  facet normal -0.695691 -0.718342 -0
    outer loop
      vertex -3.36151 -3.70139 5
      vertex -3.59175 -3.47841 -5
      vertex -3.36151 -3.70139 -5
    endloop
  endfacet
  facet normal -0.74028 -0.672298 0
    outer loop
      vertex -3.59175 -3.47841 -5
      vertex -3.80724 -3.24113 5
      vertex -3.80724 -3.24113 -5
    endloop
  endfacet
  facet normal -0.74028 -0.672298 0
    outer loop
      vertex -3.80724 -3.24113 5
      vertex -3.59175 -3.47841 -5
      vertex -3.59175 -3.47841 5
    endloop
  endfacet
  facet normal -0.545501 -0.83811 0
    outer loop
      vertex -2.8606 -4.10086 -5
      vertex -2.59196 -4.27571 5
      vertex -2.8606 -4.10086 5
    endloop
  endfacet
  facet normal -0.545501 -0.83811 -0
    outer loop
      vertex -2.59196 -4.27571 5
      vertex -2.8606 -4.10086 -5
      vertex -2.59196 -4.27571 -5
    endloop
  endfacet
  facet normal -0.490703 -0.871327 0
    outer loop
      vertex -2.59196 -4.27571 -5
      vertex -2.3127 -4.43298 5
      vertex -2.59196 -4.27571 5
    endloop
  endfacet
  facet normal -0.490703 -0.871327 -0
    outer loop
      vertex -2.3127 -4.43298 5
      vertex -2.59196 -4.27571 -5
      vertex -2.3127 -4.43298 -5
    endloop
  endfacet
  facet normal -0.886594 -0.462548 0
    outer loop
      vertex -4.3566 -2.45358 -5
      vertex -4.50485 -2.16942 5
      vertex -4.50485 -2.16942 -5
    endloop
  endfacet
  facet normal -0.886594 -0.462548 0
    outer loop
      vertex -4.50485 -2.16942 5
      vertex -4.3566 -2.45358 -5
      vertex -4.3566 -2.45358 5
    endloop
  endfacet
  facet normal -0.855127 -0.518418 0
    outer loop
      vertex -4.19044 -2.72766 -5
      vertex -4.3566 -2.45358 5
      vertex -4.3566 -2.45358 -5
    endloop
  endfacet
  facet normal -0.855127 -0.518418 0
    outer loop
      vertex -4.3566 -2.45358 5
      vertex -4.19044 -2.72766 -5
      vertex -4.19044 -2.72766 5
    endloop
  endfacet
  facet normal -0.127856 -0.991793 0
    outer loop
      vertex -0.798004 -4.9359 -5
      vertex -0.480118 -4.97688 5
      vertex -0.798004 -4.9359 5
    endloop
  endfacet
  facet normal -0.127856 -0.991793 -0
    outer loop
      vertex -0.480118 -4.97688 5
      vertex -0.798004 -4.9359 -5
      vertex -0.480118 -4.97688 -5
    endloop
  endfacet
endsolid OpenSCAD_Model
