solid OpenSCAD_Model
  facet normal 0 -0 -1
    outer loop
      vertex 1.66087 -1.86856 -5
      vertex 3.32175 -3.73711 -5
      vertex 1.45212 -2.03503 -5
    endloop
  endfacet
  facet normal 0 0 -1
    outer loop
      vertex 1.66087 -1.86856 -5
      vertex 3.70139 -3.36151 -5
      vertex 3.32175 -3.73711 -5
    endloop
  endfacet
  facet normal -0 0 -1
    outer loop
      vertex 3.32175 -3.73711 -5
      vertex 2.90424 -4.07007 -5
      vertex 1.45212 -2.03503 -5
    endloop
  endfacet
  facet normal 0 0 -1
    outer loop
      vertex 1.66087 -1.86856 -5
      vertex 1.85069 -1.68076 -5
      vertex 3.70139 -3.36151 -5
    endloop
  endfacet
  facet normal 0 0 -1
    outer loop
      vertex 3.70139 -3.36151 -5
      vertex 1.85069 -1.68076 -5
      vertex 4.03879 -2.94757 -5
    endloop
  endfacet
  facet normal 0 0 -1
    outer loop
      vertex 4.33012 -2.5 -5
      vertex 2.01939 -1.47379 -5
      vertex 2.16505 -1.25 -5
    endloop
  endfacet
  facet normal -0 0 -1
    outer loop
      vertex 4.33012 -2.5 -5
      vertex 4.03879 -2.94757 -5
      vertex 2.01939 -1.47379 -5
    endloop
  endfacet
  facet normal 0 0 -1
    outer loop
      vertex 4.03879 -2.94757 -5
      vertex 1.85069 -1.68076 -5
      vertex 2.01939 -1.47379 -5
    endloop
  endfacet
  facet normal 0 0 -1
    outer loop
      vertex 1.45212 -2.03503 -5
      vertex 2.90424 -4.07007 -5
      vertex 2.45358 -4.3566 -5
    endloop
  endfacet
  facet normal 0 0 -1
    outer loop
      vertex 1.22679 -2.1783 -5
      vertex 1.45212 -2.03503 -5
      vertex 2.45358 -4.3566 -5
    endloop
  endfacet
  facet normal 0 0 -1
    outer loop
      vertex 0.987473 -2.29672 -5
      vertex 1.22679 -2.1783 -5
      vertex 2.45358 -4.3566 -5
    endloop
  endfacet
  facet normal 0 0 -1
    outer loop
      vertex 1.97495 -4.59343 -5
      vertex 0.987473 -2.29672 -5
      vertex 2.45358 -4.3566 -5
    endloop
  endfacet
  facet normal 0 0 -1
    outer loop
      vertex 1.97495 -4.59343 -5
      vertex 0.736877 -2.38895 -5
      vertex 0.987473 -2.29672 -5
    endloop
  endfacet
  facet normal -0 0 -1
    outer loop
      vertex 1.97495 -4.59343 -5
      vertex 1.47377 -4.77788 -5
      vertex 0.736877 -2.38895 -5
    endloop
  endfacet
  facet normal 0 0 -1
    outer loop
      vertex 0.736877 -2.38895 -5
      vertex 1.47377 -4.77788 -5
      vertex 0.95578 -4.90781 -5
    endloop
  endfacet
  facet normal 0 0 -1
    outer loop
      vertex 0.47789 -2.4539 -5
      vertex 0.736877 -2.38895 -5
      vertex 0.95578 -4.90781 -5
    endloop
  endfacet
  facet normal 0 0 -1
    outer loop
      vertex 0.426895 -4.98175 -5
      vertex 0.47789 -2.4539 -5
      vertex 0.95578 -4.90781 -5
    endloop
  endfacet
  facet normal 0 0 -1
    outer loop
      vertex 0.426895 -4.98175 -5
      vertex 0.21344 -2.49088 -5
      vertex 0.47789 -2.4539 -5
    endloop
  endfacet
  facet normal 0 0 -1
    outer loop
      vertex 0.426895 -4.98175 -5
      vertex -0.0534363 -2.49944 -5
      vertex 0.21344 -2.49088 -5
    endloop
  endfacet
  facet normal -0 0 -1
    outer loop
      vertex 0.426895 -4.98175 -5
      vertex -0.106857 -4.99887 -5
      vertex -0.0534363 -2.49944 -5
    endloop
  endfacet
  facet normal -0 0 -1
    outer loop
      vertex -0.0534363 -2.49944 -5
      vertex -0.639389 -4.95895 -5
      vertex -0.319702 -2.47948 -5
    endloop
  endfacet
  facet normal 0 0 -1
    outer loop
      vertex -0.639389 -4.95895 -5
      vertex -1.16464 -4.86249 -5
      vertex -0.582321 -2.43124 -5
    endloop
  endfacet
  facet normal 0 0 -1
    outer loop
      vertex -1.67659 -4.71054 -5
      vertex -2.16943 -4.50485 -5
      vertex -0.838303 -2.35527 -5
    endloop
  endfacet
  facet normal 0 0 -1
    outer loop
      vertex -3.0755 -3.94226 -5
      vertex -1.31876 -2.1239 -5
      vertex -2.63751 -4.24779 -5
    endloop
  endfacet
  facet normal 0 -0 -1
    outer loop
      vertex -1.73921 -1.79588 -5
      vertex -1.53775 -1.97113 -5
      vertex -3.0755 -3.94226 -5
    endloop
  endfacet
  facet normal 0 0 -1
    outer loop
      vertex -1.92084 -1.60014 -5
      vertex -3.84166 -3.20029 -5
      vertex -4.16106 -2.77231 -5
    endloop
  endfacet
  facet normal -0 0 -1
    outer loop
      vertex -2.08054 -1.38615 -5
      vertex -4.16106 -2.77231 -5
      vertex -2.21651 -1.15636 -5
    endloop
  endfacet
  facet normal 0 0 -1
    outer loop
      vertex -4.433 -2.3127 -5
      vertex -4.65437 -1.82671 -5
      vertex -2.32719 -0.913361 -5
    endloop
  endfacet
  facet normal 0 0 -1
    outer loop
      vertex -4.93591 -0.798004 -5
      vertex -2.46796 -0.399002 -5
      vertex -2.41133 -0.659943 -5
    endloop
  endfacet
  facet normal 0 0 -1
    outer loop
      vertex -4.99287 -0.267029 -5
      vertex -2.49644 -0.133514 -5
      vertex -4.93591 -0.798004 -5
    endloop
  endfacet
  facet normal 0 0 -1
    outer loop
      vertex -4.99287 -0.267029 -5
      vertex -4.99287 0.267014 -5
      vertex -2.49644 -0.133514 -5
    endloop
  endfacet
  facet normal 0 0 -1
    outer loop
      vertex -4.99287 0.267014 -5
      vertex -4.93591 0.797989 -5
      vertex -2.49644 0.133499 -5
    endloop
  endfacet
  facet normal 0 0 -1
    outer loop
      vertex -4.93591 0.797989 -5
      vertex -2.41133 0.659927 -5
      vertex -2.46796 0.398987 -5
    endloop
  endfacet
  facet normal 0 0 -1
    outer loop
      vertex -4.82265 1.31987 -5
      vertex -2.32719 0.913345 -5
      vertex -2.41133 0.659927 -5
    endloop
  endfacet
  facet normal 0 0 -1
    outer loop
      vertex -4.65437 1.82669 -5
      vertex -4.433 2.31268 -5
      vertex -2.32719 0.913345 -5
    endloop
  endfacet
  facet normal 0 0 -1
    outer loop
      vertex -4.433 2.31268 -5
      vertex -4.16106 2.77229 -5
      vertex -2.21651 1.15634 -5
    endloop
  endfacet
  facet normal 0 0 -1
    outer loop
      vertex -4.16106 2.77229 -5
      vertex -1.92084 1.60013 -5
      vertex -2.08054 1.38614 -5
    endloop
  endfacet
  facet normal 0 0 -1
    outer loop
      vertex -3.84166 3.20027 -5
      vertex -3.47842 3.59174 -5
      vertex -1.92084 1.60013 -5
    endloop
  endfacet
  facet normal 0 0 -1
    outer loop
      vertex -3.47842 3.59174 -5
      vertex -3.0755 3.94225 -5
      vertex -1.73921 1.79587 -5
    endloop
  endfacet
  facet normal 0 0 -1
    outer loop
      vertex -3.0755 3.94225 -5
      vertex -1.31876 2.12389 -5
      vertex -1.53775 1.97112 -5
    endloop
  endfacet
  facet normal 0 0 -1
    outer loop
      vertex -2.63751 4.24777 -5
      vertex -2.16943 4.50484 -5
      vertex -1.31876 2.12389 -5
    endloop
  endfacet
  facet normal 0 0 -1
    outer loop
      vertex -2.16943 4.50484 -5
      vertex -0.838303 2.35526 -5
      vertex -1.08472 2.25241 -5
    endloop
  endfacet
  facet normal 0 0 -1
    outer loop
      vertex -1.67659 4.71053 -5
      vertex -0.582321 2.43123 -5
      vertex -0.838303 2.35526 -5
    endloop
  endfacet
  facet normal 0 0 -1
    outer loop
      vertex -1.16464 4.86247 -5
      vertex -0.639389 4.95894 -5
      vertex -0.582321 2.43123 -5
    endloop
  endfacet
  facet normal 0 0 -1
    outer loop
      vertex -0.639389 4.95894 -5
      vertex -0.0534363 2.49942 -5
      vertex -0.319702 2.47946 -5
    endloop
  endfacet
  facet normal 0 0 -1
    outer loop
      vertex -0.106857 4.99886 -5
      vertex 0.426895 4.98174 -5
      vertex -0.0534363 2.49942 -5
    endloop
  endfacet
  facet normal 0 -0 -1
    outer loop
      vertex 0.426895 4.98174 -5
      vertex 0.47789 2.45389 -5
      vertex 0.21344 2.49086 -5
    endloop
  endfacet
  facet normal 0 0 -1
    outer loop
      vertex 0.95578 4.90779 -5
      vertex 0.736877 2.38893 -5
      vertex 0.47789 2.45389 -5
    endloop
  endfacet
  facet normal 0 -0 -1
    outer loop
      vertex 1.47377 4.77786 -5
      vertex 1.97495 4.59341 -5
      vertex 0.736877 2.38893 -5
    endloop
  endfacet
  facet normal 0 -0 -1
    outer loop
      vertex 1.97495 4.59341 -5
      vertex 2.45358 4.35658 -5
      vertex 0.987473 2.29671 -5
    endloop
  endfacet
  facet normal 0 0 -1
    outer loop
      vertex 2.45358 4.35658 -5
      vertex 1.45212 2.03502 -5
      vertex 1.22679 2.17828 -5
    endloop
  endfacet
  facet normal 0 -0 -1
    outer loop
      vertex 2.45358 4.35658 -5
      vertex 2.90424 4.07005 -5
      vertex 1.45212 2.03502 -5
    endloop
  endfacet
  facet normal 0 0 -1
    outer loop
      vertex 1.45212 2.03502 -5
      vertex 2.90424 4.07005 -5
      vertex 3.32175 3.73709 -5
    endloop
  endfacet
  facet normal 0 0 -1
    outer loop
      vertex 1.66087 1.86855 -5
      vertex 1.45212 2.03502 -5
      vertex 3.32175 3.73709 -5
    endloop
  endfacet
  facet normal -0 0 -1
    outer loop
      vertex 3.70139 3.3615 -5
      vertex 1.66087 1.86855 -5
      vertex 3.32175 3.73709 -5
    endloop
  endfacet
  facet normal 0 0 -1
    outer loop
      vertex 3.70139 3.3615 -5
      vertex 1.85069 1.68074 -5
      vertex 1.66087 1.86855 -5
    endloop
  endfacet
  facet normal 0 -0 -1
    outer loop
      vertex 3.70139 3.3615 -5
      vertex 4.03879 2.94756 -5
      vertex 1.85069 1.68074 -5
    endloop
  endfacet
  facet normal 0 0 -1
    outer loop
      vertex 1.85069 1.68074 -5
      vertex 4.03879 2.94756 -5
      vertex 2.01939 1.47377 -5
    endloop
  endfacet
  facet normal 0 0 -1
    outer loop
      vertex 2.01939 1.47377 -5
      vertex 4.03879 2.94756 -5
      vertex 2.16505 1.25 -5
    endloop
  endfacet
  facet normal 0 0 -1
    outer loop
      vertex 2.16505 1.25 -5
      vertex 4.03879 2.94756 -5
      vertex 4.33012 2.5 -5
    endloop
  endfacet
  facet normal 0 0 -1
    outer loop
      vertex 0.987473 2.29671 -5
      vertex 2.45358 4.35658 -5
      vertex 1.22679 2.17828 -5
    endloop
  endfacet
  facet normal 0 0 -1
    outer loop
      vertex 0.736877 2.38893 -5
      vertex 1.97495 4.59341 -5
      vertex 0.987473 2.29671 -5
    endloop
  endfacet
  facet normal 0 -0 -1
    outer loop
      vertex 0.95578 4.90779 -5
      vertex 1.47377 4.77786 -5
      vertex 0.736877 2.38893 -5
    endloop
  endfacet
  facet normal 0 0 -1
    outer loop
      vertex 0.426895 4.98174 -5
      vertex 0.95578 4.90779 -5
      vertex 0.47789 2.45389 -5
    endloop
  endfacet
  facet normal 0 0 -1
    outer loop
      vertex -0.0534363 2.49942 -5
      vertex 0.426895 4.98174 -5
      vertex 0.21344 2.49086 -5
    endloop
  endfacet
  facet normal 0 0 -1
    outer loop
      vertex -0.639389 4.95894 -5
      vertex -0.106857 4.99886 -5
      vertex -0.0534363 2.49942 -5
    endloop
  endfacet
  facet normal 0 0 -1
    outer loop
      vertex -0.582321 2.43123 -5
      vertex -0.639389 4.95894 -5
      vertex -0.319702 2.47946 -5
    endloop
  endfacet
  facet normal 0 0 -1
    outer loop
      vertex -1.67659 4.71053 -5
      vertex -1.16464 4.86247 -5
      vertex -0.582321 2.43123 -5
    endloop
  endfacet
  facet normal 0 0 -1
    outer loop
      vertex -2.16943 4.50484 -5
      vertex -1.67659 4.71053 -5
      vertex -0.838303 2.35526 -5
    endloop
  endfacet
  facet normal 0 0 -1
    outer loop
      vertex -1.31876 2.12389 -5
      vertex -2.16943 4.50484 -5
      vertex -1.08472 2.25241 -5
    endloop
  endfacet
  facet normal 0 0 -1
    outer loop
      vertex -3.0755 3.94225 -5
      vertex -2.63751 4.24777 -5
      vertex -1.31876 2.12389 -5
    endloop
  endfacet
  facet normal 0 0 -1
    outer loop
      vertex -1.73921 1.79587 -5
      vertex -3.0755 3.94225 -5
      vertex -1.53775 1.97112 -5
    endloop
  endfacet
  facet normal 0 0 -1
    outer loop
      vertex -1.92084 1.60013 -5
      vertex -3.47842 3.59174 -5
      vertex -1.73921 1.79587 -5
    endloop
  endfacet
  facet normal 0 0 -1
    outer loop
      vertex -4.16106 2.77229 -5
      vertex -3.84166 3.20027 -5
      vertex -1.92084 1.60013 -5
    endloop
  endfacet
  facet normal 0 0 -1
    outer loop
      vertex -2.21651 1.15634 -5
      vertex -4.16106 2.77229 -5
      vertex -2.08054 1.38614 -5
    endloop
  endfacet
  facet normal 0 0 -1
    outer loop
      vertex -2.32719 0.913345 -5
      vertex -4.433 2.31268 -5
      vertex -2.21651 1.15634 -5
    endloop
  endfacet
  facet normal 0 0 -1
    outer loop
      vertex -4.82265 1.31987 -5
      vertex -4.65437 1.82669 -5
      vertex -2.32719 0.913345 -5
    endloop
  endfacet
  facet normal 0 0 -1
    outer loop
      vertex -4.93591 0.797989 -5
      vertex -4.82265 1.31987 -5
      vertex -2.41133 0.659927 -5
    endloop
  endfacet
  facet normal 0 0 -1
    outer loop
      vertex -2.49644 0.133499 -5
      vertex -4.93591 0.797989 -5
      vertex -2.46796 0.398987 -5
    endloop
  endfacet
  facet normal 0 0 -1
    outer loop
      vertex -2.49644 -0.133514 -5
      vertex -4.99287 0.267014 -5
      vertex -2.49644 0.133499 -5
    endloop
  endfacet
  facet normal 0 0 -1
    outer loop
      vertex -4.93591 -0.798004 -5
      vertex -2.49644 -0.133514 -5
      vertex -2.46796 -0.399002 -5
    endloop
  endfacet
  facet normal 0 0 -1
    outer loop
      vertex -4.82265 -1.31989 -5
      vertex -4.93591 -0.798004 -5
      vertex -2.41133 -0.659943 -5
    endloop
  endfacet
  facet normal -0 0 -1
    outer loop
      vertex -2.32719 -0.913361 -5
      vertex -4.82265 -1.31989 -5
      vertex -2.41133 -0.659943 -5
    endloop
  endfacet
  facet normal 0 0 -1
    outer loop
      vertex -2.32719 -0.913361 -5
      vertex -4.65437 -1.82671 -5
      vertex -4.82265 -1.31989 -5
    endloop
  endfacet
  facet normal -0 0 -1
    outer loop
      vertex -2.21651 -1.15636 -5
      vertex -4.433 -2.3127 -5
      vertex -2.32719 -0.913361 -5
    endloop
  endfacet
  facet normal 0 0 -1
    outer loop
      vertex -2.21651 -1.15636 -5
      vertex -4.16106 -2.77231 -5
      vertex -4.433 -2.3127 -5
    endloop
  endfacet
  facet normal 0 -0 -1
    outer loop
      vertex -2.08054 -1.38615 -5
      vertex -1.92084 -1.60014 -5
      vertex -4.16106 -2.77231 -5
    endloop
  endfacet
  facet normal 0 0 -1
    outer loop
      vertex -1.92084 -1.60014 -5
      vertex -3.47842 -3.59175 -5
      vertex -3.84166 -3.20029 -5
    endloop
  endfacet
  facet normal 0 -0 -1
    outer loop
      vertex -1.92084 -1.60014 -5
      vertex -1.73921 -1.79588 -5
      vertex -3.47842 -3.59175 -5
    endloop
  endfacet
  facet normal 0 0 -1
    outer loop
      vertex -3.47842 -3.59175 -5
      vertex -1.73921 -1.79588 -5
      vertex -3.0755 -3.94226 -5
    endloop
  endfacet
  facet normal 0 0 -1
    outer loop
      vertex -3.0755 -3.94226 -5
      vertex -1.53775 -1.97113 -5
      vertex -1.31876 -2.1239 -5
    endloop
  endfacet
  facet normal 0 0 -1
    outer loop
      vertex -2.63751 -4.24779 -5
      vertex -1.31876 -2.1239 -5
      vertex -2.16943 -4.50485 -5
    endloop
  endfacet
  facet normal 0 0 -1
    outer loop
      vertex -2.16943 -4.50485 -5
      vertex -1.31876 -2.1239 -5
      vertex -1.08472 -2.25243 -5
    endloop
  endfacet
  facet normal -0 0 -1
    outer loop
      vertex -0.838303 -2.35527 -5
      vertex -2.16943 -4.50485 -5
      vertex -1.08472 -2.25243 -5
    endloop
  endfacet
  facet normal -0 0 -1
    outer loop
      vertex -0.582321 -2.43124 -5
      vertex -1.67659 -4.71054 -5
      vertex -0.838303 -2.35527 -5
    endloop
  endfacet
  facet normal 0 0 -1
    outer loop
      vertex -0.582321 -2.43124 -5
      vertex -1.16464 -4.86249 -5
      vertex -1.67659 -4.71054 -5
    endloop
  endfacet
  facet normal -0 0 -1
    outer loop
      vertex -0.319702 -2.47948 -5
      vertex -0.639389 -4.95895 -5
      vertex -0.582321 -2.43124 -5
    endloop
  endfacet
  facet normal 0 0 -1
    outer loop
      vertex -0.0534363 -2.49944 -5
      vertex -0.106857 -4.99887 -5
      vertex -0.639389 -4.95895 -5
    endloop
  endfacet
  facet normal -0 0 1
    outer loop
      vertex 1.45212 -2.03503 5
      vertex 3.32175 -3.73711 5
      vertex 1.66087 -1.86856 5
    endloop
  endfacet
  facet normal 0 -0 1
    outer loop
      vertex 3.32175 -3.73711 5
      vertex 3.70139 -3.36151 5
      vertex 1.66087 -1.86856 5
    endloop
  endfacet
  facet normal 0 0 1
    outer loop
      vertex 1.45212 -2.03503 5
      vertex 2.90424 -4.07007 5
      vertex 3.32175 -3.73711 5
    endloop
  endfacet
  facet normal 0 0 1
    outer loop
      vertex 3.70139 -3.36151 5
      vertex 1.85069 -1.68076 5
      vertex 1.66087 -1.86856 5
    endloop
  endfacet
  facet normal 0 0 1
    outer loop
      vertex 4.03879 -2.94757 5
      vertex 1.85069 -1.68076 5
      vertex 3.70139 -3.36151 5
    endloop
  endfacet
  facet normal 0 0 1
    outer loop
      vertex 2.16505 -1.25 5
      vertex 2.01939 -1.47379 5
      vertex 4.33012 -2.5 5
    endloop
  endfacet
  facet normal 0 0 1
    outer loop
      vertex 2.01939 -1.47379 5
      vertex 4.03879 -2.94757 5
      vertex 4.33012 -2.5 5
    endloop
  endfacet
  facet normal 0 0 1
    outer loop
      vertex 2.01939 -1.47379 5
      vertex 1.85069 -1.68076 5
      vertex 4.03879 -2.94757 5
    endloop
  endfacet
  facet normal 0 -0 1
    outer loop
      vertex 2.45358 -4.3566 5
      vertex 2.90424 -4.07007 5
      vertex 1.45212 -2.03503 5
    endloop
  endfacet
  facet normal 0 0 1
    outer loop
      vertex 2.45358 -4.3566 5
      vertex 1.45212 -2.03503 5
      vertex 1.22679 -2.1783 5
    endloop
  endfacet
  facet normal 0 0 1
    outer loop
      vertex 2.45358 -4.3566 5
      vertex 1.22679 -2.1783 5
      vertex 0.987473 -2.29672 5
    endloop
  endfacet
  facet normal 0 0 1
    outer loop
      vertex 2.45358 -4.3566 5
      vertex 0.987473 -2.29672 5
      vertex 1.97495 -4.59343 5
    endloop
  endfacet
  facet normal 0 0 1
    outer loop
      vertex 0.987473 -2.29672 5
      vertex 0.736877 -2.38895 5
      vertex 1.97495 -4.59343 5
    endloop
  endfacet
  facet normal 0 0 1
    outer loop
      vertex 0.736877 -2.38895 5
      vertex 1.47377 -4.77788 5
      vertex 1.97495 -4.59343 5
    endloop
  endfacet
  facet normal 0 -0 1
    outer loop
      vertex 0.95578 -4.90781 5
      vertex 1.47377 -4.77788 5
      vertex 0.736877 -2.38895 5
    endloop
  endfacet
  facet normal 0 0 1
    outer loop
      vertex 0.95578 -4.90781 5
      vertex 0.736877 -2.38895 5
      vertex 0.47789 -2.4539 5
    endloop
  endfacet
  facet normal 0 0 1
    outer loop
      vertex 0.95578 -4.90781 5
      vertex 0.47789 -2.4539 5
      vertex 0.426895 -4.98175 5
    endloop
  endfacet
  facet normal 0 0 1
    outer loop
      vertex 0.47789 -2.4539 5
      vertex 0.21344 -2.49088 5
      vertex 0.426895 -4.98175 5
    endloop
  endfacet
  facet normal 0 0 1
    outer loop
      vertex 0.21344 -2.49088 5
      vertex -0.0534363 -2.49944 5
      vertex 0.426895 -4.98175 5
    endloop
  endfacet
  facet normal 0 0 1
    outer loop
      vertex -0.0534363 -2.49944 5
      vertex -0.106857 -4.99887 5
      vertex 0.426895 -4.98175 5
    endloop
  endfacet
  facet normal 0 0 1
    outer loop
      vertex -0.319702 -2.47948 5
      vertex -0.639389 -4.95895 5
      vertex -0.0534363 -2.49944 5
    endloop
  endfacet
  facet normal 0 0 1
    outer loop
      vertex -0.582321 -2.43124 5
      vertex -1.16464 -4.86249 5
      vertex -0.639389 -4.95895 5
    endloop
  endfacet
  facet normal 0 0 1
    outer loop
      vertex -0.838303 -2.35527 5
      vertex -2.16943 -4.50485 5
      vertex -1.67659 -4.71054 5
    endloop
  endfacet
  facet normal 0 -0 1
    outer loop
      vertex -2.63751 -4.24779 5
      vertex -1.31876 -2.1239 5
      vertex -3.0755 -3.94226 5
    endloop
  endfacet
  facet normal 0 0 1
    outer loop
      vertex -3.0755 -3.94226 5
      vertex -1.53775 -1.97113 5
      vertex -1.73921 -1.79588 5
    endloop
  endfacet
  facet normal -0 0 1
    outer loop
      vertex -4.16106 -2.77231 5
      vertex -3.84166 -3.20029 5
      vertex -1.92084 -1.60014 5
    endloop
  endfacet
  facet normal 0 0 1
    outer loop
      vertex -2.21651 -1.15636 5
      vertex -4.16106 -2.77231 5
      vertex -2.08054 -1.38615 5
    endloop
  endfacet
  facet normal 0 0 1
    outer loop
      vertex -2.32719 -0.913361 5
      vertex -4.65437 -1.82671 5
      vertex -4.433 -2.3127 5
    endloop
  endfacet
  facet normal 0 0 1
    outer loop
      vertex -2.41133 -0.659943 5
      vertex -2.46796 -0.399002 5
      vertex -4.93591 -0.798004 5
    endloop
  endfacet
  facet normal 0 -0 1
    outer loop
      vertex -4.93591 -0.798004 5
      vertex -2.49644 -0.133514 5
      vertex -4.99287 -0.267029 5
    endloop
  endfacet
  facet normal 0 0 1
    outer loop
      vertex -2.49644 -0.133514 5
      vertex -4.99287 0.267014 5
      vertex -4.99287 -0.267029 5
    endloop
  endfacet
  facet normal 0 0 1
    outer loop
      vertex -2.49644 0.133499 5
      vertex -4.93591 0.797989 5
      vertex -4.99287 0.267014 5
    endloop
  endfacet
  facet normal 0 -0 1
    outer loop
      vertex -2.46796 0.398987 5
      vertex -2.41133 0.659927 5
      vertex -4.93591 0.797989 5
    endloop
  endfacet
  facet normal 0 -0 1
    outer loop
      vertex -2.41133 0.659927 5
      vertex -2.32719 0.913345 5
      vertex -4.82265 1.31987 5
    endloop
  endfacet
  facet normal 0 0 1
    outer loop
      vertex -2.32719 0.913345 5
      vertex -4.433 2.31268 5
      vertex -4.65437 1.82669 5
    endloop
  endfacet
  facet normal 0 0 1
    outer loop
      vertex -2.21651 1.15634 5
      vertex -4.16106 2.77229 5
      vertex -4.433 2.31268 5
    endloop
  endfacet
  facet normal 0 -0 1
    outer loop
      vertex -2.08054 1.38614 5
      vertex -1.92084 1.60013 5
      vertex -4.16106 2.77229 5
    endloop
  endfacet
  facet normal 0 0 1
    outer loop
      vertex -1.92084 1.60013 5
      vertex -3.47842 3.59174 5
      vertex -3.84166 3.20027 5
    endloop
  endfacet
  facet normal 0 0 1
    outer loop
      vertex -1.73921 1.79587 5
      vertex -3.0755 3.94225 5
      vertex -3.47842 3.59174 5
    endloop
  endfacet
  facet normal 0 -0 1
    outer loop
      vertex -1.53775 1.97112 5
      vertex -1.31876 2.12389 5
      vertex -3.0755 3.94225 5
    endloop
  endfacet
  facet normal 0 0 1
    outer loop
      vertex -1.31876 2.12389 5
      vertex -2.16943 4.50484 5
      vertex -2.63751 4.24777 5
    endloop
  endfacet
  facet normal 0 -0 1
    outer loop
      vertex -1.08472 2.25241 5
      vertex -0.838303 2.35526 5
      vertex -2.16943 4.50484 5
    endloop
  endfacet
  facet normal 0 -0 1
    outer loop
      vertex -0.838303 2.35526 5
      vertex -0.582321 2.43123 5
      vertex -1.67659 4.71053 5
    endloop
  endfacet
  facet normal 0 0 1
    outer loop
      vertex -0.582321 2.43123 5
      vertex -0.639389 4.95894 5
      vertex -1.16464 4.86247 5
    endloop
  endfacet
  facet normal 0 -0 1
    outer loop
      vertex -0.319702 2.47946 5
      vertex -0.0534363 2.49942 5
      vertex -0.639389 4.95894 5
    endloop
  endfacet
  facet normal 0 -0 1
    outer loop
      vertex -0.0534363 2.49942 5
      vertex 0.426895 4.98174 5
      vertex -0.106857 4.99886 5
    endloop
  endfacet
  facet normal -0 0 1
    outer loop
      vertex 0.21344 2.49086 5
      vertex 0.47789 2.45389 5
      vertex 0.426895 4.98174 5
    endloop
  endfacet
  facet normal -0 0 1
    outer loop
      vertex 0.47789 2.45389 5
      vertex 0.736877 2.38893 5
      vertex 0.95578 4.90779 5
    endloop
  endfacet
  facet normal 0 0 1
    outer loop
      vertex 0.736877 2.38893 5
      vertex 1.97495 4.59341 5
      vertex 1.47377 4.77786 5
    endloop
  endfacet
  facet normal 0 0 1
    outer loop
      vertex 0.987473 2.29671 5
      vertex 2.45358 4.35658 5
      vertex 1.97495 4.59341 5
    endloop
  endfacet
  facet normal -0 0 1
    outer loop
      vertex 1.22679 2.17828 5
      vertex 1.45212 2.03502 5
      vertex 2.45358 4.35658 5
    endloop
  endfacet
  facet normal 0 0 1
    outer loop
      vertex 1.45212 2.03502 5
      vertex 2.90424 4.07005 5
      vertex 2.45358 4.35658 5
    endloop
  endfacet
  facet normal 0 0 1
    outer loop
      vertex 3.32175 3.73709 5
      vertex 2.90424 4.07005 5
      vertex 1.45212 2.03502 5
    endloop
  endfacet
  facet normal 0 0 1
    outer loop
      vertex 3.32175 3.73709 5
      vertex 1.45212 2.03502 5
      vertex 1.66087 1.86855 5
    endloop
  endfacet
  facet normal 0 0 1
    outer loop
      vertex 3.32175 3.73709 5
      vertex 1.66087 1.86855 5
      vertex 3.70139 3.3615 5
    endloop
  endfacet
  facet normal -0 0 1
    outer loop
      vertex 1.66087 1.86855 5
      vertex 1.85069 1.68074 5
      vertex 3.70139 3.3615 5
    endloop
  endfacet
  facet normal 0 0 1
    outer loop
      vertex 1.85069 1.68074 5
      vertex 4.03879 2.94756 5
      vertex 3.70139 3.3615 5
    endloop
  endfacet
  facet normal 0 -0 1
    outer loop
      vertex 2.01939 1.47377 5
      vertex 4.03879 2.94756 5
      vertex 1.85069 1.68074 5
    endloop
  endfacet
  facet normal 0 -0 1
    outer loop
      vertex 2.16505 1.25 5
      vertex 4.03879 2.94756 5
      vertex 2.01939 1.47377 5
    endloop
  endfacet
  facet normal 0 0 1
    outer loop
      vertex 4.33012 2.5 5
      vertex 4.03879 2.94756 5
      vertex 2.16505 1.25 5
    endloop
  endfacet
  facet normal 0 -0 1
    outer loop
      vertex 1.22679 2.17828 5
      vertex 2.45358 4.35658 5
      vertex 0.987473 2.29671 5
    endloop
  endfacet
  facet normal 0 -0 1
    outer loop
      vertex 0.987473 2.29671 5
      vertex 1.97495 4.59341 5
      vertex 0.736877 2.38893 5
    endloop
  endfacet
  facet normal 0 0 1
    outer loop
      vertex 0.736877 2.38893 5
      vertex 1.47377 4.77786 5
      vertex 0.95578 4.90779 5
    endloop
  endfacet
  facet normal 0 -0 1
    outer loop
      vertex 0.47789 2.45389 5
      vertex 0.95578 4.90779 5
      vertex 0.426895 4.98174 5
    endloop
  endfacet
  facet normal 0 -0 1
    outer loop
      vertex 0.21344 2.49086 5
      vertex 0.426895 4.98174 5
      vertex -0.0534363 2.49942 5
    endloop
  endfacet
  facet normal 0 0 1
    outer loop
      vertex -0.0534363 2.49942 5
      vertex -0.106857 4.99886 5
      vertex -0.639389 4.95894 5
    endloop
  endfacet
  facet normal 0 0 1
    outer loop
      vertex -0.319702 2.47946 5
      vertex -0.639389 4.95894 5
      vertex -0.582321 2.43123 5
    endloop
  endfacet
  facet normal 0 0 1
    outer loop
      vertex -0.582321 2.43123 5
      vertex -1.16464 4.86247 5
      vertex -1.67659 4.71053 5
    endloop
  endfacet
  facet normal 0 0 1
    outer loop
      vertex -0.838303 2.35526 5
      vertex -1.67659 4.71053 5
      vertex -2.16943 4.50484 5
    endloop
  endfacet
  facet normal 0 0 1
    outer loop
      vertex -1.08472 2.25241 5
      vertex -2.16943 4.50484 5
      vertex -1.31876 2.12389 5
    endloop
  endfacet
  facet normal 0 0 1
    outer loop
      vertex -1.31876 2.12389 5
      vertex -2.63751 4.24777 5
      vertex -3.0755 3.94225 5
    endloop
  endfacet
  facet normal 0 0 1
    outer loop
      vertex -1.53775 1.97112 5
      vertex -3.0755 3.94225 5
      vertex -1.73921 1.79587 5
    endloop
  endfacet
  facet normal 0 0 1
    outer loop
      vertex -1.73921 1.79587 5
      vertex -3.47842 3.59174 5
      vertex -1.92084 1.60013 5
    endloop
  endfacet
  facet normal 0 0 1
    outer loop
      vertex -1.92084 1.60013 5
      vertex -3.84166 3.20027 5
      vertex -4.16106 2.77229 5
    endloop
  endfacet
  facet normal 0 0 1
    outer loop
      vertex -2.08054 1.38614 5
      vertex -4.16106 2.77229 5
      vertex -2.21651 1.15634 5
    endloop
  endfacet
  facet normal 0 0 1
    outer loop
      vertex -2.21651 1.15634 5
      vertex -4.433 2.31268 5
      vertex -2.32719 0.913345 5
    endloop
  endfacet
  facet normal 0 0 1
    outer loop
      vertex -2.32719 0.913345 5
      vertex -4.65437 1.82669 5
      vertex -4.82265 1.31987 5
    endloop
  endfacet
  facet normal 0 0 1
    outer loop
      vertex -2.41133 0.659927 5
      vertex -4.82265 1.31987 5
      vertex -4.93591 0.797989 5
    endloop
  endfacet
  facet normal 0 0 1
    outer loop
      vertex -2.46796 0.398987 5
      vertex -4.93591 0.797989 5
      vertex -2.49644 0.133499 5
    endloop
  endfacet
  facet normal 0 0 1
    outer loop
      vertex -2.49644 0.133499 5
      vertex -4.99287 0.267014 5
      vertex -2.49644 -0.133514 5
    endloop
  endfacet
  facet normal 0 0 1
    outer loop
      vertex -2.46796 -0.399002 5
      vertex -2.49644 -0.133514 5
      vertex -4.93591 -0.798004 5
    endloop
  endfacet
  facet normal 0 0 1
    outer loop
      vertex -2.41133 -0.659943 5
      vertex -4.93591 -0.798004 5
      vertex -4.82265 -1.31989 5
    endloop
  endfacet
  facet normal 0 0 1
    outer loop
      vertex -2.41133 -0.659943 5
      vertex -4.82265 -1.31989 5
      vertex -2.32719 -0.913361 5
    endloop
  endfacet
  facet normal -0 0 1
    outer loop
      vertex -4.82265 -1.31989 5
      vertex -4.65437 -1.82671 5
      vertex -2.32719 -0.913361 5
    endloop
  endfacet
  facet normal 0 0 1
    outer loop
      vertex -2.32719 -0.913361 5
      vertex -4.433 -2.3127 5
      vertex -2.21651 -1.15636 5
    endloop
  endfacet
  facet normal -0 0 1
    outer loop
      vertex -4.433 -2.3127 5
      vertex -4.16106 -2.77231 5
      vertex -2.21651 -1.15636 5
    endloop
  endfacet
  facet normal 0 0 1
    outer loop
      vertex -4.16106 -2.77231 5
      vertex -1.92084 -1.60014 5
      vertex -2.08054 -1.38615 5
    endloop
  endfacet
  facet normal -0 0 1
    outer loop
      vertex -3.84166 -3.20029 5
      vertex -3.47842 -3.59175 5
      vertex -1.92084 -1.60014 5
    endloop
  endfacet
  facet normal 0 0 1
    outer loop
      vertex -3.47842 -3.59175 5
      vertex -1.73921 -1.79588 5
      vertex -1.92084 -1.60014 5
    endloop
  endfacet
  facet normal 0 -0 1
    outer loop
      vertex -3.0755 -3.94226 5
      vertex -1.73921 -1.79588 5
      vertex -3.47842 -3.59175 5
    endloop
  endfacet
  facet normal 0 0 1
    outer loop
      vertex -1.31876 -2.1239 5
      vertex -1.53775 -1.97113 5
      vertex -3.0755 -3.94226 5
    endloop
  endfacet
  facet normal 0 -0 1
    outer loop
      vertex -2.16943 -4.50485 5
      vertex -1.31876 -2.1239 5
      vertex -2.63751 -4.24779 5
    endloop
  endfacet
  facet normal 0 0 1
    outer loop
      vertex -1.08472 -2.25243 5
      vertex -1.31876 -2.1239 5
      vertex -2.16943 -4.50485 5
    endloop
  endfacet
  facet normal 0 0 1
    outer loop
      vertex -1.08472 -2.25243 5
      vertex -2.16943 -4.50485 5
      vertex -0.838303 -2.35527 5
    endloop
  endfacet
  facet normal 0 0 1
    outer loop
      vertex -0.838303 -2.35527 5
      vertex -1.67659 -4.71054 5
      vertex -0.582321 -2.43124 5
    endloop
  endfacet
  facet normal -0 0 1
    outer loop
      vertex -1.67659 -4.71054 5
      vertex -1.16464 -4.86249 5
      vertex -0.582321 -2.43124 5
    endloop
  endfacet
  facet normal 0 0 1
    outer loop
      vertex -0.582321 -2.43124 5
      vertex -0.639389 -4.95895 5
      vertex -0.319702 -2.47948 5
    endloop
  endfacet
  facet normal -0 0 1
    outer loop
      vertex -0.639389 -4.95895 5
      vertex -0.106857 -4.99887 5
      vertex -0.0534363 -2.49944 5
    endloop
  endfacet
  facet normal 0.138457 -0.990368 0
    outer loop
      vertex 0.95578 -4.90781 -5
      vertex 0.426895 -4.98175 5
      vertex 0.426895 -4.98175 -5
    endloop
  endfacet
  facet normal 0.138457 -0.990368 0
    outer loop
      vertex 0.95578 -4.90781 -5
      vertex 0.95578 -4.90781 5
      vertex 0.426895 -4.98175 5
    endloop
  endfacet
  facet normal 0.243298 -0.969952 0
    outer loop
      vertex 1.47377 -4.77788 -5
      vertex 0.95578 -4.90781 5
      vertex 0.95578 -4.90781 -5
    endloop
  endfacet
  facet normal 0.243298 -0.969952 0
    outer loop
      vertex 1.47377 -4.77788 -5
      vertex 1.47377 -4.77788 5
      vertex 0.95578 -4.90781 5
    endloop
  endfacet
  facet normal 0.345383 -0.938462 0
    outer loop
      vertex 1.97495 -4.59343 -5
      vertex 1.47377 -4.77788 5
      vertex 1.47377 -4.77788 -5
    endloop
  endfacet
  facet normal 0.345383 -0.938462 0
    outer loop
      vertex 1.97495 -4.59343 -5
      vertex 1.97495 -4.59343 5
      vertex 1.47377 -4.77788 5
    endloop
  endfacet
  facet normal 0.443487 -0.896281 0
    outer loop
      vertex 2.45358 -4.3566 -5
      vertex 1.97495 -4.59343 5
      vertex 1.97495 -4.59343 -5
    endloop
  endfacet
  facet normal 0.443487 -0.896281 0
    outer loop
      vertex 2.45358 -4.3566 -5
      vertex 2.45358 -4.3566 5
      vertex 1.97495 -4.59343 5
    endloop
  endfacet
  facet normal 0.536537 -0.843877 0
    outer loop
      vertex 2.90424 -4.07007 -5
      vertex 2.45358 -4.3566 5
      vertex 2.45358 -4.3566 -5
    endloop
  endfacet
  facet normal 0.536537 -0.843877 0
    outer loop
      vertex 2.90424 -4.07007 -5
      vertex 2.90424 -4.07007 5
      vertex 2.45358 -4.3566 5
    endloop
  endfacet
  facet normal 0.623498 -0.781825 0
    outer loop
      vertex 3.32175 -3.73711 -5
      vertex 2.90424 -4.07007 5
      vertex 2.90424 -4.07007 -5
    endloop
  endfacet
  facet normal 0.623498 -0.781825 0
    outer loop
      vertex 3.32175 -3.73711 -5
      vertex 3.32175 -3.73711 5
      vertex 2.90424 -4.07007 5
    endloop
  endfacet
  facet normal 0.703314 -0.710879 0
    outer loop
      vertex 3.70139 -3.36151 -5
      vertex 3.32175 -3.73711 5
      vertex 3.32175 -3.73711 -5
    endloop
  endfacet
  facet normal 0.703314 -0.710879 0
    outer loop
      vertex 3.70139 -3.36151 -5
      vertex 3.70139 -3.36151 5
      vertex 3.32175 -3.73711 5
    endloop
  endfacet
  facet normal 0.775129 -0.631803 0
    outer loop
      vertex 4.03879 -2.94757 -5
      vertex 3.70139 -3.36151 5
      vertex 3.70139 -3.36151 -5
    endloop
  endfacet
  facet normal 0.775129 -0.631803 0
    outer loop
      vertex 4.03879 -2.94757 -5
      vertex 4.03879 -2.94757 5
      vertex 3.70139 -3.36151 5
    endloop
  endfacet
  facet normal 0.838093 -0.545527 0
    outer loop
      vertex 4.33012 -2.5 -5
      vertex 4.03879 -2.94757 5
      vertex 4.03879 -2.94757 -5
    endloop
  endfacet
  facet normal 0.838093 -0.545527 0
    outer loop
      vertex 4.33012 -2.5 -5
      vertex 4.33012 -2.5 5
      vertex 4.03879 -2.94757 5
    endloop
  endfacet
  facet normal 0.499999 0.866026 0
    outer loop
      vertex 2.16505 -1.25 -5
      vertex 4.33012 -2.5 5
      vertex 4.33012 -2.5 -5
    endloop
  endfacet
  facet normal 0.499999 0.866026 -0
    outer loop
      vertex 2.16505 -1.25 -5
      vertex 2.16505 -1.25 5
      vertex 4.33012 -2.5 5
    endloop
  endfacet
  facet normal -0.838107 0.545506 0
    outer loop
      vertex 2.01939 -1.47379 -5
      vertex 2.16505 -1.25 5
      vertex 2.16505 -1.25 -5
    endloop
  endfacet
  facet normal -0.838107 0.545506 0
    outer loop
      vertex 2.01939 -1.47379 -5
      vertex 2.01939 -1.47379 5
      vertex 2.16505 -1.25 5
    endloop
  endfacet
  facet normal -0.775129 0.631803 0
    outer loop
      vertex 1.85069 -1.68076 -5
      vertex 2.01939 -1.47379 5
      vertex 2.01939 -1.47379 -5
    endloop
  endfacet
  facet normal -0.775129 0.631803 0
    outer loop
      vertex 1.85069 -1.68076 -5
      vertex 1.85069 -1.68076 5
      vertex 2.01939 -1.47379 5
    endloop
  endfacet
  facet normal -0.703314 0.710879 0
    outer loop
      vertex 1.66087 -1.86856 -5
      vertex 1.85069 -1.68076 5
      vertex 1.85069 -1.68076 -5
    endloop
  endfacet
  facet normal -0.703314 0.710879 0
    outer loop
      vertex 1.66087 -1.86856 -5
      vertex 1.66087 -1.86856 5
      vertex 1.85069 -1.68076 5
    endloop
  endfacet
  facet normal -0.623484 0.781836 0
    outer loop
      vertex 1.45212 -2.03503 -5
      vertex 1.66087 -1.86856 5
      vertex 1.66087 -1.86856 -5
    endloop
  endfacet
  facet normal -0.623484 0.781836 0
    outer loop
      vertex 1.45212 -2.03503 -5
      vertex 1.45212 -2.03503 5
      vertex 1.66087 -1.86856 5
    endloop
  endfacet
  facet normal -0.536551 0.843868 0
    outer loop
      vertex 1.22679 -2.1783 -5
      vertex 1.45212 -2.03503 5
      vertex 1.45212 -2.03503 -5
    endloop
  endfacet
  facet normal -0.536551 0.843868 0
    outer loop
      vertex 1.22679 -2.1783 -5
      vertex 1.22679 -2.1783 5
      vertex 1.45212 -2.03503 5
    endloop
  endfacet
  facet normal -0.443499 0.896275 0
    outer loop
      vertex 0.987473 -2.29672 -5
      vertex 1.22679 -2.1783 5
      vertex 1.22679 -2.1783 -5
    endloop
  endfacet
  facet normal -0.443499 0.896275 0
    outer loop
      vertex 0.987473 -2.29672 -5
      vertex 0.987473 -2.29672 5
      vertex 1.22679 -2.1783 5
    endloop
  endfacet
  facet normal -0.345393 0.938458 0
    outer loop
      vertex 0.736877 -2.38895 -5
      vertex 0.987473 -2.29672 5
      vertex 0.987473 -2.29672 -5
    endloop
  endfacet
  facet normal -0.345393 0.938458 0
    outer loop
      vertex 0.736877 -2.38895 -5
      vertex 0.736877 -2.38895 5
      vertex 0.987473 -2.29672 5
    endloop
  endfacet
  facet normal -0.243252 0.969963 0
    outer loop
      vertex 0.47789 -2.4539 -5
      vertex 0.736877 -2.38895 5
      vertex 0.736877 -2.38895 -5
    endloop
  endfacet
  facet normal -0.243252 0.969963 0
    outer loop
      vertex 0.47789 -2.4539 -5
      vertex 0.47789 -2.4539 5
      vertex 0.736877 -2.38895 5
    endloop
  endfacet
  facet normal -0.13849 0.990364 0
    outer loop
      vertex 0.21344 -2.49088 -5
      vertex 0.47789 -2.4539 5
      vertex 0.47789 -2.4539 -5
    endloop
  endfacet
  facet normal -0.13849 0.990364 0
    outer loop
      vertex 0.21344 -2.49088 -5
      vertex 0.21344 -2.49088 5
      vertex 0.47789 -2.4539 5
    endloop
  endfacet
  facet normal -0.0320583 0.999486 0
    outer loop
      vertex -0.0534363 -2.49944 -5
      vertex 0.21344 -2.49088 5
      vertex 0.21344 -2.49088 -5
    endloop
  endfacet
  facet normal -0.0320583 0.999486 0
    outer loop
      vertex -0.0534363 -2.49944 -5
      vertex -0.0534363 -2.49944 5
      vertex 0.21344 -2.49088 5
    endloop
  endfacet
  facet normal 0.074753 0.997202 0
    outer loop
      vertex -0.319702 -2.47948 -5
      vertex -0.0534363 -2.49944 5
      vertex -0.0534363 -2.49944 -5
    endloop
  endfacet
  facet normal 0.074753 0.997202 -0
    outer loop
      vertex -0.319702 -2.47948 -5
      vertex -0.319702 -2.47948 5
      vertex -0.0534363 -2.49944 5
    endloop
  endfacet
  facet normal 0.180665 0.983545 0
    outer loop
      vertex -0.582321 -2.43124 -5
      vertex -0.319702 -2.47948 5
      vertex -0.319702 -2.47948 -5
    endloop
  endfacet
  facet normal 0.180665 0.983545 -0
    outer loop
      vertex -0.582321 -2.43124 -5
      vertex -0.582321 -2.43124 5
      vertex -0.319702 -2.47948 5
    endloop
  endfacet
  facet normal 0.284513 0.958672 0
    outer loop
      vertex -0.838303 -2.35527 -5
      vertex -0.582321 -2.43124 5
      vertex -0.582321 -2.43124 -5
    endloop
  endfacet
  facet normal 0.284513 0.958672 -0
    outer loop
      vertex -0.838303 -2.35527 -5
      vertex -0.838303 -2.35527 5
      vertex -0.582321 -2.43124 5
    endloop
  endfacet
  facet normal 0.385146 0.922856 0
    outer loop
      vertex -1.08472 -2.25243 -5
      vertex -0.838303 -2.35527 5
      vertex -0.838303 -2.35527 -5
    endloop
  endfacet
  facet normal 0.385146 0.922856 -0
    outer loop
      vertex -1.08472 -2.25243 -5
      vertex -1.08472 -2.25243 5
      vertex -0.838303 -2.35527 5
    endloop
  endfacet
  facet normal 0.481367 0.876519 0
    outer loop
      vertex -1.31876 -2.1239 -5
      vertex -1.08472 -2.25243 5
      vertex -1.08472 -2.25243 -5
    endloop
  endfacet
  facet normal 0.481367 0.876519 -0
    outer loop
      vertex -1.31876 -2.1239 -5
      vertex -1.31876 -2.1239 5
      vertex -1.08472 -2.25243 5
    endloop
  endfacet
  facet normal 0.572147 0.820151 0
    outer loop
      vertex -1.53775 -1.97113 -5
      vertex -1.31876 -2.1239 5
      vertex -1.31876 -2.1239 -5
    endloop
  endfacet
  facet normal 0.572147 0.820151 -0
    outer loop
      vertex -1.53775 -1.97113 -5
      vertex -1.53775 -1.97113 5
      vertex -1.31876 -2.1239 5
    endloop
  endfacet
  facet normal 0.656322 0.754481 0
    outer loop
      vertex -1.73921 -1.79588 -5
      vertex -1.53775 -1.97113 5
      vertex -1.53775 -1.97113 -5
    endloop
  endfacet
  facet normal 0.656322 0.754481 -0
    outer loop
      vertex -1.73921 -1.79588 -5
      vertex -1.73921 -1.79588 5
      vertex -1.53775 -1.97113 5
    endloop
  endfacet
  facet normal 0.733034 0.680193 0
    outer loop
      vertex -1.92084 -1.60014 -5
      vertex -1.73921 -1.79588 5
      vertex -1.73921 -1.79588 -5
    endloop
  endfacet
  facet normal 0.733034 0.680193 -0
    outer loop
      vertex -1.92084 -1.60014 -5
      vertex -1.92084 -1.60014 5
      vertex -1.73921 -1.79588 5
    endloop
  endfacet
  facet normal 0.801422 0.598099 0
    outer loop
      vertex -2.08054 -1.38615 -5
      vertex -1.92084 -1.60014 5
      vertex -1.92084 -1.60014 -5
    endloop
  endfacet
  facet normal 0.801422 0.598099 -0
    outer loop
      vertex -2.08054 -1.38615 -5
      vertex -2.08054 -1.38615 5
      vertex -1.92084 -1.60014 5
    endloop
  endfacet
  facet normal 0.860623 0.509243 0
    outer loop
      vertex -2.21651 -1.15636 -5
      vertex -2.08054 -1.38615 5
      vertex -2.08054 -1.38615 -5
    endloop
  endfacet
  facet normal 0.860623 0.509243 -0
    outer loop
      vertex -2.21651 -1.15636 -5
      vertex -2.21651 -1.15636 5
      vertex -2.08054 -1.38615 5
    endloop
  endfacet
  facet normal 0.910047 0.414504 0
    outer loop
      vertex -2.32719 -0.913361 -5
      vertex -2.21651 -1.15636 5
      vertex -2.21651 -1.15636 -5
    endloop
  endfacet
  facet normal 0.910047 0.414504 -0
    outer loop
      vertex -2.32719 -0.913361 -5
      vertex -2.32719 -0.913361 5
      vertex -2.21651 -1.15636 5
    endloop
  endfacet
  facet normal 0.949056 0.315106 0
    outer loop
      vertex -2.41133 -0.659943 -5
      vertex -2.32719 -0.913361 5
      vertex -2.32719 -0.913361 -5
    endloop
  endfacet
  facet normal 0.949056 0.315106 -0
    outer loop
      vertex -2.41133 -0.659943 -5
      vertex -2.41133 -0.659943 5
      vertex -2.32719 -0.913361 5
    endloop
  endfacet
  facet normal 0.977251 0.212085 0
    outer loop
      vertex -2.46796 -0.399002 -5
      vertex -2.41133 -0.659943 5
      vertex -2.41133 -0.659943 -5
    endloop
  endfacet
  facet normal 0.977251 0.212085 -0
    outer loop
      vertex -2.46796 -0.399002 -5
      vertex -2.46796 -0.399002 5
      vertex -2.41133 -0.659943 5
    endloop
  endfacet
  facet normal 0.994295 0.106662 0
    outer loop
      vertex -2.49644 -0.133514 -5
      vertex -2.46796 -0.399002 5
      vertex -2.46796 -0.399002 -5
    endloop
  endfacet
  facet normal 0.994295 0.106662 -0
    outer loop
      vertex -2.49644 -0.133514 -5
      vertex -2.49644 -0.133514 5
      vertex -2.46796 -0.399002 5
    endloop
  endfacet
  facet normal 1 0 0
    outer loop
      vertex -2.49644 0.133499 -5
      vertex -2.49644 -0.133514 5
      vertex -2.49644 -0.133514 -5
    endloop
  endfacet
  facet normal 1 0 -0
    outer loop
      vertex -2.49644 0.133499 -5
      vertex -2.49644 0.133499 5
      vertex -2.49644 -0.133514 5
    endloop
  endfacet
  facet normal 0.994295 -0.106662 0
    outer loop
      vertex -2.46796 0.398987 -5
      vertex -2.49644 0.133499 5
      vertex -2.49644 0.133499 -5
    endloop
  endfacet
  facet normal 0.994295 -0.106662 0
    outer loop
      vertex -2.46796 0.398987 -5
      vertex -2.46796 0.398987 5
      vertex -2.49644 0.133499 5
    endloop
  endfacet
  facet normal 0.977251 -0.212086 0
    outer loop
      vertex -2.41133 0.659927 -5
      vertex -2.46796 0.398987 5
      vertex -2.46796 0.398987 -5
    endloop
  endfacet
  facet normal 0.977251 -0.212086 0
    outer loop
      vertex -2.41133 0.659927 -5
      vertex -2.41133 0.659927 5
      vertex -2.46796 0.398987 5
    endloop
  endfacet
  facet normal 0.949056 -0.315106 0
    outer loop
      vertex -2.32719 0.913345 -5
      vertex -2.41133 0.659927 5
      vertex -2.41133 0.659927 -5
    endloop
  endfacet
  facet normal 0.949056 -0.315106 0
    outer loop
      vertex -2.32719 0.913345 -5
      vertex -2.32719 0.913345 5
      vertex -2.41133 0.659927 5
    endloop
  endfacet
  facet normal 0.910045 -0.41451 0
    outer loop
      vertex -2.21651 1.15634 -5
      vertex -2.32719 0.913345 5
      vertex -2.32719 0.913345 -5
    endloop
  endfacet
  facet normal 0.910045 -0.41451 0
    outer loop
      vertex -2.21651 1.15634 -5
      vertex -2.21651 1.15634 5
      vertex -2.32719 0.913345 5
    endloop
  endfacet
  facet normal 0.860633 -0.509226 0
    outer loop
      vertex -2.08054 1.38614 -5
      vertex -2.21651 1.15634 5
      vertex -2.21651 1.15634 -5
    endloop
  endfacet
  facet normal 0.860633 -0.509226 0
    outer loop
      vertex -2.08054 1.38614 -5
      vertex -2.08054 1.38614 5
      vertex -2.21651 1.15634 5
    endloop
  endfacet
  facet normal 0.801422 -0.598099 0
    outer loop
      vertex -1.92084 1.60013 -5
      vertex -2.08054 1.38614 5
      vertex -2.08054 1.38614 -5
    endloop
  endfacet
  facet normal 0.801422 -0.598099 0
    outer loop
      vertex -1.92084 1.60013 -5
      vertex -1.92084 1.60013 5
      vertex -2.08054 1.38614 5
    endloop
  endfacet
  facet normal 0.733034 -0.680193 0
    outer loop
      vertex -1.73921 1.79587 -5
      vertex -1.92084 1.60013 5
      vertex -1.92084 1.60013 -5
    endloop
  endfacet
  facet normal 0.733034 -0.680193 0
    outer loop
      vertex -1.73921 1.79587 -5
      vertex -1.73921 1.79587 5
      vertex -1.92084 1.60013 5
    endloop
  endfacet
  facet normal 0.656322 -0.754481 0
    outer loop
      vertex -1.53775 1.97112 -5
      vertex -1.73921 1.79587 5
      vertex -1.73921 1.79587 -5
    endloop
  endfacet
  facet normal 0.656322 -0.754481 0
    outer loop
      vertex -1.53775 1.97112 -5
      vertex -1.53775 1.97112 5
      vertex -1.73921 1.79587 5
    endloop
  endfacet
  facet normal 0.572147 -0.820151 0
    outer loop
      vertex -1.31876 2.12389 -5
      vertex -1.53775 1.97112 5
      vertex -1.53775 1.97112 -5
    endloop
  endfacet
  facet normal 0.572147 -0.820151 0
    outer loop
      vertex -1.31876 2.12389 -5
      vertex -1.31876 2.12389 5
      vertex -1.53775 1.97112 5
    endloop
  endfacet
  facet normal 0.481338 -0.876535 0
    outer loop
      vertex -1.08472 2.25241 -5
      vertex -1.31876 2.12389 5
      vertex -1.31876 2.12389 -5
    endloop
  endfacet
  facet normal 0.481338 -0.876535 0
    outer loop
      vertex -1.08472 2.25241 -5
      vertex -1.08472 2.25241 5
      vertex -1.31876 2.12389 5
    endloop
  endfacet
  facet normal 0.385178 -0.922842 0
    outer loop
      vertex -0.838303 2.35526 -5
      vertex -1.08472 2.25241 5
      vertex -1.08472 2.25241 -5
    endloop
  endfacet
  facet normal 0.385178 -0.922842 0
    outer loop
      vertex -0.838303 2.35526 -5
      vertex -0.838303 2.35526 5
      vertex -1.08472 2.25241 5
    endloop
  endfacet
  facet normal 0.284513 -0.958672 0
    outer loop
      vertex -0.582321 2.43123 -5
      vertex -0.838303 2.35526 5
      vertex -0.838303 2.35526 -5
    endloop
  endfacet
  facet normal 0.284513 -0.958672 0
    outer loop
      vertex -0.582321 2.43123 -5
      vertex -0.582321 2.43123 5
      vertex -0.838303 2.35526 5
    endloop
  endfacet
  facet normal 0.180629 -0.983551 0
    outer loop
      vertex -0.319702 2.47946 -5
      vertex -0.582321 2.43123 5
      vertex -0.582321 2.43123 -5
    endloop
  endfacet
  facet normal 0.180629 -0.983551 0
    outer loop
      vertex -0.319702 2.47946 -5
      vertex -0.319702 2.47946 5
      vertex -0.582321 2.43123 5
    endloop
  endfacet
  facet normal 0.074753 -0.997202 0
    outer loop
      vertex -0.0534363 2.49942 -5
      vertex -0.319702 2.47946 5
      vertex -0.319702 2.47946 -5
    endloop
  endfacet
  facet normal 0.074753 -0.997202 0
    outer loop
      vertex -0.0534363 2.49942 -5
      vertex -0.0534363 2.49942 5
      vertex -0.319702 2.47946 5
    endloop
  endfacet
  facet normal -0.0320583 -0.999486 0
    outer loop
      vertex 0.21344 2.49086 -5
      vertex -0.0534363 2.49942 5
      vertex -0.0534363 2.49942 -5
    endloop
  endfacet
  facet normal -0.0320583 -0.999486 0
    outer loop
      vertex 0.21344 2.49086 -5
      vertex 0.21344 2.49086 5
      vertex -0.0534363 2.49942 5
    endloop
  endfacet
  facet normal -0.138453 -0.990369 0
    outer loop
      vertex 0.47789 2.45389 -5
      vertex 0.21344 2.49086 5
      vertex 0.21344 2.49086 -5
    endloop
  endfacet
  facet normal -0.138453 -0.990369 0
    outer loop
      vertex 0.47789 2.45389 -5
      vertex 0.47789 2.45389 5
      vertex 0.21344 2.49086 5
    endloop
  endfacet
  facet normal -0.243287 -0.969954 0
    outer loop
      vertex 0.736877 2.38893 -5
      vertex 0.47789 2.45389 5
      vertex 0.47789 2.45389 -5
    endloop
  endfacet
  facet normal -0.243287 -0.969954 0
    outer loop
      vertex 0.736877 2.38893 -5
      vertex 0.736877 2.38893 5
      vertex 0.47789 2.45389 5
    endloop
  endfacet
  facet normal -0.34536 -0.93847 0
    outer loop
      vertex 0.987473 2.29671 -5
      vertex 0.736877 2.38893 5
      vertex 0.736877 2.38893 -5
    endloop
  endfacet
  facet normal -0.34536 -0.93847 0
    outer loop
      vertex 0.987473 2.29671 -5
      vertex 0.987473 2.29671 5
      vertex 0.736877 2.38893 5
    endloop
  endfacet
  facet normal -0.443529 -0.89626 0
    outer loop
      vertex 1.22679 2.17828 -5
      vertex 0.987473 2.29671 5
      vertex 0.987473 2.29671 -5
    endloop
  endfacet
  facet normal -0.443529 -0.89626 0
    outer loop
      vertex 1.22679 2.17828 -5
      vertex 1.22679 2.17828 5
      vertex 0.987473 2.29671 5
    endloop
  endfacet
  facet normal -0.536524 -0.843885 0
    outer loop
      vertex 1.45212 2.03502 -5
      vertex 1.22679 2.17828 5
      vertex 1.22679 2.17828 -5
    endloop
  endfacet
  facet normal -0.536524 -0.843885 0
    outer loop
      vertex 1.45212 2.03502 -5
      vertex 1.45212 2.03502 5
      vertex 1.22679 2.17828 5
    endloop
  endfacet
  facet normal -0.623484 -0.781836 0
    outer loop
      vertex 1.66087 1.86855 -5
      vertex 1.45212 2.03502 5
      vertex 1.45212 2.03502 -5
    endloop
  endfacet
  facet normal -0.623484 -0.781836 0
    outer loop
      vertex 1.66087 1.86855 -5
      vertex 1.66087 1.86855 5
      vertex 1.45212 2.03502 5
    endloop
  endfacet
  facet normal -0.703333 -0.71086 0
    outer loop
      vertex 1.85069 1.68074 -5
      vertex 1.66087 1.86855 5
      vertex 1.66087 1.86855 -5
    endloop
  endfacet
  facet normal -0.703333 -0.71086 0
    outer loop
      vertex 1.85069 1.68074 -5
      vertex 1.85069 1.68074 5
      vertex 1.66087 1.86855 5
    endloop
  endfacet
  facet normal -0.775129 -0.631803 0
    outer loop
      vertex 2.01939 1.47377 -5
      vertex 1.85069 1.68074 5
      vertex 1.85069 1.68074 -5
    endloop
  endfacet
  facet normal -0.775129 -0.631803 0
    outer loop
      vertex 2.01939 1.47377 -5
      vertex 2.01939 1.47377 5
      vertex 1.85069 1.68074 5
    endloop
  endfacet
  facet normal -0.838085 -0.54554 0
    outer loop
      vertex 2.16505 1.25 -5
      vertex 2.01939 1.47377 5
      vertex 2.01939 1.47377 -5
    endloop
  endfacet
  facet normal -0.838085 -0.54554 0
    outer loop
      vertex 2.16505 1.25 -5
      vertex 2.16505 1.25 5
      vertex 2.01939 1.47377 5
    endloop
  endfacet
  facet normal 0.499999 -0.866026 0
    outer loop
      vertex 4.33012 2.5 -5
      vertex 2.16505 1.25 5
      vertex 2.16505 1.25 -5
    endloop
  endfacet
  facet normal 0.499999 -0.866026 0
    outer loop
      vertex 4.33012 2.5 -5
      vertex 4.33012 2.5 5
      vertex 2.16505 1.25 5
    endloop
  endfacet
  facet normal 0.838087 0.545536 0
    outer loop
      vertex 4.03879 2.94756 -5
      vertex 4.33012 2.5 5
      vertex 4.33012 2.5 -5
    endloop
  endfacet
  facet normal 0.838087 0.545536 -0
    outer loop
      vertex 4.03879 2.94756 -5
      vertex 4.03879 2.94756 5
      vertex 4.33012 2.5 5
    endloop
  endfacet
  facet normal 0.775129 0.631803 0
    outer loop
      vertex 3.70139 3.3615 -5
      vertex 4.03879 2.94756 5
      vertex 4.03879 2.94756 -5
    endloop
  endfacet
  facet normal 0.775129 0.631803 -0
    outer loop
      vertex 3.70139 3.3615 -5
      vertex 3.70139 3.3615 5
      vertex 4.03879 2.94756 5
    endloop
  endfacet
  facet normal 0.703305 0.710888 0
    outer loop
      vertex 3.32175 3.73709 -5
      vertex 3.70139 3.3615 5
      vertex 3.70139 3.3615 -5
    endloop
  endfacet
  facet normal 0.703305 0.710888 -0
    outer loop
      vertex 3.32175 3.73709 -5
      vertex 3.32175 3.73709 5
      vertex 3.70139 3.3615 5
    endloop
  endfacet
  facet normal 0.623498 0.781825 0
    outer loop
      vertex 2.90424 4.07005 -5
      vertex 3.32175 3.73709 5
      vertex 3.32175 3.73709 -5
    endloop
  endfacet
  facet normal 0.623498 0.781825 -0
    outer loop
      vertex 2.90424 4.07005 -5
      vertex 2.90424 4.07005 5
      vertex 3.32175 3.73709 5
    endloop
  endfacet
  facet normal 0.536537 0.843877 0
    outer loop
      vertex 2.45358 4.35658 -5
      vertex 2.90424 4.07005 5
      vertex 2.90424 4.07005 -5
    endloop
  endfacet
  facet normal 0.536537 0.843877 -0
    outer loop
      vertex 2.45358 4.35658 -5
      vertex 2.45358 4.35658 5
      vertex 2.90424 4.07005 5
    endloop
  endfacet
  facet normal 0.443487 0.896281 0
    outer loop
      vertex 1.97495 4.59341 -5
      vertex 2.45358 4.35658 5
      vertex 2.45358 4.35658 -5
    endloop
  endfacet
  facet normal 0.443487 0.896281 -0
    outer loop
      vertex 1.97495 4.59341 -5
      vertex 1.97495 4.59341 5
      vertex 2.45358 4.35658 5
    endloop
  endfacet
  facet normal 0.345383 0.938462 0
    outer loop
      vertex 1.47377 4.77786 -5
      vertex 1.97495 4.59341 5
      vertex 1.97495 4.59341 -5
    endloop
  endfacet
  facet normal 0.345383 0.938462 -0
    outer loop
      vertex 1.47377 4.77786 -5
      vertex 1.47377 4.77786 5
      vertex 1.97495 4.59341 5
    endloop
  endfacet
  facet normal 0.243298 0.969952 0
    outer loop
      vertex 0.95578 4.90779 -5
      vertex 1.47377 4.77786 5
      vertex 1.47377 4.77786 -5
    endloop
  endfacet
  facet normal 0.243298 0.969952 -0
    outer loop
      vertex 0.95578 4.90779 -5
      vertex 0.95578 4.90779 5
      vertex 1.47377 4.77786 5
    endloop
  endfacet
  facet normal 0.138475 0.990366 0
    outer loop
      vertex 0.426895 4.98174 -5
      vertex 0.95578 4.90779 5
      vertex 0.95578 4.90779 -5
    endloop
  endfacet
  facet normal 0.138475 0.990366 -0
    outer loop
      vertex 0.426895 4.98174 -5
      vertex 0.426895 4.98174 5
      vertex 0.95578 4.90779 5
    endloop
  endfacet
  facet normal 0.0320583 0.999486 0
    outer loop
      vertex -0.106857 4.99886 -5
      vertex 0.426895 4.98174 5
      vertex 0.426895 4.98174 -5
    endloop
  endfacet
  facet normal 0.0320583 0.999486 -0
    outer loop
      vertex -0.106857 4.99886 -5
      vertex -0.106857 4.99886 5
      vertex 0.426895 4.98174 5
    endloop
  endfacet
  facet normal -0.0747529 0.997202 0
    outer loop
      vertex -0.639389 4.95894 -5
      vertex -0.106857 4.99886 5
      vertex -0.106857 4.99886 -5
    endloop
  endfacet
  facet normal -0.0747529 0.997202 0
    outer loop
      vertex -0.639389 4.95894 -5
      vertex -0.639389 4.95894 5
      vertex -0.106857 4.99886 5
    endloop
  endfacet
  facet normal -0.180643 0.983549 0
    outer loop
      vertex -1.16464 4.86247 -5
      vertex -0.639389 4.95894 5
      vertex -0.639389 4.95894 -5
    endloop
  endfacet
  facet normal -0.180643 0.983549 0
    outer loop
      vertex -1.16464 4.86247 -5
      vertex -1.16464 4.86247 5
      vertex -0.639389 4.95894 5
    endloop
  endfacet
  facet normal -0.284521 0.95867 0
    outer loop
      vertex -1.67659 4.71053 -5
      vertex -1.16464 4.86247 5
      vertex -1.16464 4.86247 -5
    endloop
  endfacet
  facet normal -0.284521 0.95867 0
    outer loop
      vertex -1.67659 4.71053 -5
      vertex -1.67659 4.71053 5
      vertex -1.16464 4.86247 5
    endloop
  endfacet
  facet normal -0.385158 0.922851 0
    outer loop
      vertex -2.16943 4.50484 -5
      vertex -1.67659 4.71053 5
      vertex -1.67659 4.71053 -5
    endloop
  endfacet
  facet normal -0.385158 0.922851 0
    outer loop
      vertex -2.16943 4.50484 -5
      vertex -2.16943 4.50484 5
      vertex -1.67659 4.71053 5
    endloop
  endfacet
  facet normal -0.481381 0.876511 0
    outer loop
      vertex -2.63751 4.24777 -5
      vertex -2.16943 4.50484 5
      vertex -2.16943 4.50484 -5
    endloop
  endfacet
  facet normal -0.481381 0.876511 0
    outer loop
      vertex -2.63751 4.24777 -5
      vertex -2.63751 4.24777 5
      vertex -2.16943 4.50484 5
    endloop
  endfacet
  facet normal -0.572113 0.820175 0
    outer loop
      vertex -3.0755 3.94225 -5
      vertex -2.63751 4.24777 5
      vertex -2.63751 4.24777 -5
    endloop
  endfacet
  facet normal -0.572113 0.820175 0
    outer loop
      vertex -3.0755 3.94225 -5
      vertex -3.0755 3.94225 5
      vertex -2.63751 4.24777 5
    endloop
  endfacet
  facet normal -0.656333 0.754471 0
    outer loop
      vertex -3.47842 3.59174 -5
      vertex -3.0755 3.94225 5
      vertex -3.0755 3.94225 -5
    endloop
  endfacet
  facet normal -0.656333 0.754471 0
    outer loop
      vertex -3.47842 3.59174 -5
      vertex -3.47842 3.59174 5
      vertex -3.0755 3.94225 5
    endloop
  endfacet
  facet normal -0.733044 0.680182 0
    outer loop
      vertex -3.84166 3.20027 -5
      vertex -3.47842 3.59174 5
      vertex -3.47842 3.59174 -5
    endloop
  endfacet
  facet normal -0.733044 0.680182 0
    outer loop
      vertex -3.84166 3.20027 -5
      vertex -3.84166 3.20027 5
      vertex -3.47842 3.59174 5
    endloop
  endfacet
  facet normal -0.801422 0.598099 0
    outer loop
      vertex -4.16106 2.77229 -5
      vertex -3.84166 3.20027 5
      vertex -3.84166 3.20027 -5
    endloop
  endfacet
  facet normal -0.801422 0.598099 0
    outer loop
      vertex -4.16106 2.77229 -5
      vertex -4.16106 2.77229 5
      vertex -3.84166 3.20027 5
    endloop
  endfacet
  facet normal -0.860637 0.509218 0
    outer loop
      vertex -4.433 2.31268 -5
      vertex -4.16106 2.77229 5
      vertex -4.16106 2.77229 -5
    endloop
  endfacet
  facet normal -0.860637 0.509218 0
    outer loop
      vertex -4.433 2.31268 -5
      vertex -4.433 2.31268 5
      vertex -4.16106 2.77229 5
    endloop
  endfacet
  facet normal -0.910038 0.414525 0
    outer loop
      vertex -4.65437 1.82669 -5
      vertex -4.433 2.31268 5
      vertex -4.433 2.31268 -5
    endloop
  endfacet
  facet normal -0.910038 0.414525 0
    outer loop
      vertex -4.65437 1.82669 -5
      vertex -4.65437 1.82669 5
      vertex -4.433 2.31268 5
    endloop
  endfacet
  facet normal -0.949053 0.315115 0
    outer loop
      vertex -4.82265 1.31987 -5
      vertex -4.65437 1.82669 5
      vertex -4.65437 1.82669 -5
    endloop
  endfacet
  facet normal -0.949053 0.315115 0
    outer loop
      vertex -4.82265 1.31987 -5
      vertex -4.82265 1.31987 5
      vertex -4.65437 1.82669 5
    endloop
  endfacet
  facet normal -0.977251 0.212086 0
    outer loop
      vertex -4.93591 0.797989 -5
      vertex -4.82265 1.31987 5
      vertex -4.82265 1.31987 -5
    endloop
  endfacet
  facet normal -0.977251 0.212086 0
    outer loop
      vertex -4.93591 0.797989 -5
      vertex -4.93591 0.797989 5
      vertex -4.82265 1.31987 5
    endloop
  endfacet
  facet normal -0.994295 0.106662 0
    outer loop
      vertex -4.99287 0.267014 -5
      vertex -4.93591 0.797989 5
      vertex -4.93591 0.797989 -5
    endloop
  endfacet
  facet normal -0.994295 0.106662 0
    outer loop
      vertex -4.99287 0.267014 -5
      vertex -4.99287 0.267014 5
      vertex -4.93591 0.797989 5
    endloop
  endfacet
  facet normal -1 0 0
    outer loop
      vertex -4.99287 -0.267029 -5
      vertex -4.99287 0.267014 5
      vertex -4.99287 0.267014 -5
    endloop
  endfacet
  facet normal -1 0 0
    outer loop
      vertex -4.99287 -0.267029 -5
      vertex -4.99287 -0.267029 5
      vertex -4.99287 0.267014 5
    endloop
  endfacet
  facet normal -0.994295 -0.106662 0
    outer loop
      vertex -4.93591 -0.798004 -5
      vertex -4.99287 -0.267029 5
      vertex -4.99287 -0.267029 -5
    endloop
  endfacet
  facet normal -0.994295 -0.106662 0
    outer loop
      vertex -4.93591 -0.798004 -5
      vertex -4.93591 -0.798004 5
      vertex -4.99287 -0.267029 5
    endloop
  endfacet
  facet normal -0.977252 -0.212084 0
    outer loop
      vertex -4.82265 -1.31989 -5
      vertex -4.93591 -0.798004 5
      vertex -4.93591 -0.798004 -5
    endloop
  endfacet
  facet normal -0.977252 -0.212084 0
    outer loop
      vertex -4.82265 -1.31989 -5
      vertex -4.82265 -1.31989 5
      vertex -4.93591 -0.798004 5
    endloop
  endfacet
  facet normal -0.949053 -0.315115 0
    outer loop
      vertex -4.65437 -1.82671 -5
      vertex -4.82265 -1.31989 5
      vertex -4.82265 -1.31989 -5
    endloop
  endfacet
  facet normal -0.949053 -0.315115 0
    outer loop
      vertex -4.65437 -1.82671 -5
      vertex -4.65437 -1.82671 5
      vertex -4.82265 -1.31989 5
    endloop
  endfacet
  facet normal -0.910038 -0.414525 0
    outer loop
      vertex -4.433 -2.3127 -5
      vertex -4.65437 -1.82671 5
      vertex -4.65437 -1.82671 -5
    endloop
  endfacet
  facet normal -0.910038 -0.414525 0
    outer loop
      vertex -4.433 -2.3127 -5
      vertex -4.433 -2.3127 5
      vertex -4.65437 -1.82671 5
    endloop
  endfacet
  facet normal -0.860637 -0.509218 0
    outer loop
      vertex -4.16106 -2.77231 -5
      vertex -4.433 -2.3127 5
      vertex -4.433 -2.3127 -5
    endloop
  endfacet
  facet normal -0.860637 -0.509218 0
    outer loop
      vertex -4.16106 -2.77231 -5
      vertex -4.16106 -2.77231 5
      vertex -4.433 -2.3127 5
    endloop
  endfacet
  facet normal -0.801422 -0.598099 0
    outer loop
      vertex -3.84166 -3.20029 -5
      vertex -4.16106 -2.77231 5
      vertex -4.16106 -2.77231 -5
    endloop
  endfacet
  facet normal -0.801422 -0.598099 0
    outer loop
      vertex -3.84166 -3.20029 -5
      vertex -3.84166 -3.20029 5
      vertex -4.16106 -2.77231 5
    endloop
  endfacet
  facet normal -0.733035 -0.680191 0
    outer loop
      vertex -3.47842 -3.59175 -5
      vertex -3.84166 -3.20029 5
      vertex -3.84166 -3.20029 -5
    endloop
  endfacet
  facet normal -0.733035 -0.680191 0
    outer loop
      vertex -3.47842 -3.59175 -5
      vertex -3.47842 -3.59175 5
      vertex -3.84166 -3.20029 5
    endloop
  endfacet
  facet normal -0.656333 -0.754471 0
    outer loop
      vertex -3.0755 -3.94226 -5
      vertex -3.47842 -3.59175 5
      vertex -3.47842 -3.59175 -5
    endloop
  endfacet
  facet normal -0.656333 -0.754471 0
    outer loop
      vertex -3.0755 -3.94226 -5
      vertex -3.0755 -3.94226 5
      vertex -3.47842 -3.59175 5
    endloop
  endfacet
  facet normal -0.572126 -0.820166 0
    outer loop
      vertex -2.63751 -4.24779 -5
      vertex -3.0755 -3.94226 5
      vertex -3.0755 -3.94226 -5
    endloop
  endfacet
  facet normal -0.572126 -0.820166 0
    outer loop
      vertex -2.63751 -4.24779 -5
      vertex -2.63751 -4.24779 5
      vertex -3.0755 -3.94226 5
    endloop
  endfacet
  facet normal -0.481367 -0.876519 0
    outer loop
      vertex -2.16943 -4.50485 -5
      vertex -2.63751 -4.24779 5
      vertex -2.63751 -4.24779 -5
    endloop
  endfacet
  facet normal -0.481367 -0.876519 0
    outer loop
      vertex -2.16943 -4.50485 -5
      vertex -2.16943 -4.50485 5
      vertex -2.63751 -4.24779 5
    endloop
  endfacet
  facet normal -0.385158 -0.922851 0
    outer loop
      vertex -1.67659 -4.71054 -5
      vertex -2.16943 -4.50485 5
      vertex -2.16943 -4.50485 -5
    endloop
  endfacet
  facet normal -0.385158 -0.922851 0
    outer loop
      vertex -1.67659 -4.71054 -5
      vertex -1.67659 -4.71054 5
      vertex -2.16943 -4.50485 5
    endloop
  endfacet
  facet normal -0.284538 -0.958665 0
    outer loop
      vertex -1.16464 -4.86249 -5
      vertex -1.67659 -4.71054 5
      vertex -1.67659 -4.71054 -5
    endloop
  endfacet
  facet normal -0.284538 -0.958665 0
    outer loop
      vertex -1.16464 -4.86249 -5
      vertex -1.16464 -4.86249 5
      vertex -1.67659 -4.71054 5
    endloop
  endfacet
  facet normal -0.180625 -0.983552 0
    outer loop
      vertex -0.639389 -4.95895 -5
      vertex -1.16464 -4.86249 5
      vertex -1.16464 -4.86249 -5
    endloop
  endfacet
  facet normal -0.180625 -0.983552 0
    outer loop
      vertex -0.639389 -4.95895 -5
      vertex -0.639389 -4.95895 5
      vertex -1.16464 -4.86249 5
    endloop
  endfacet
  facet normal -0.0747529 -0.997202 0
    outer loop
      vertex -0.106857 -4.99887 -5
      vertex -0.639389 -4.95895 5
      vertex -0.639389 -4.95895 -5
    endloop
  endfacet
  facet normal -0.0747529 -0.997202 0
    outer loop
      vertex -0.106857 -4.99887 -5
      vertex -0.106857 -4.99887 5
      vertex -0.639389 -4.95895 5
    endloop
  endfacet
  facet normal 0.0320583 -0.999486 0
    outer loop
      vertex 0.426895 -4.98175 -5
      vertex -0.106857 -4.99887 5
      vertex -0.106857 -4.99887 -5
    endloop
  endfacet
  facet normal 0.0320583 -0.999486 0
    outer loop
      vertex 0.426895 -4.98175 -5
      vertex 0.426895 -4.98175 5
      vertex -0.106857 -4.99887 5
    endloop
  endfacet
endsolid OpenSCAD_Model
