solid OpenSCAD_Model
  facet normal 0 -0 -1
    outer loop
      vertex -3.33913 -6.86855 -5
      vertex -1.67825 -8.73709 -5
      vertex -3.54788 -7.03502 -5
    endloop
  endfacet
  facet normal 0 0 -1
    outer loop
      vertex -3.33913 -6.86855 -5
      vertex -1.29861 -8.3615 -5
      vertex -1.67825 -8.73709 -5
    endloop
  endfacet
  facet normal -0 0 -1
    outer loop
      vertex -1.67825 -8.73709 -5
      vertex -2.09576 -9.07005 -5
      vertex -3.54788 -7.03502 -5
    endloop
  endfacet
  facet normal 0 0 -1
    outer loop
      vertex -3.33913 -6.86855 -5
      vertex -3.14931 -6.68074 -5
      vertex -1.29861 -8.3615 -5
    endloop
  endfacet
  facet normal 0 0 -1
    outer loop
      vertex -1.29861 -8.3615 -5
      vertex -3.14931 -6.68074 -5
      vertex -0.961212 -7.94756 -5
    endloop
  endfacet
  facet normal 0 0 -1
    outer loop
      vertex -0.961212 -7.94756 -5
      vertex -3.14931 -6.68074 -5
      vertex -2.98061 -6.47377 -5
    endloop
  endfacet
  facet normal 0 -0 -1
    outer loop
      vertex -2.83495 -6.25 -5
      vertex -0.961212 -7.94756 -5
      vertex -2.98061 -6.47377 -5
    endloop
  endfacet
  facet normal 0 0 -1
    outer loop
      vertex -3.54788 -7.03502 -5
      vertex -2.09576 -9.07005 -5
      vertex -2.54642 -9.35658 -5
    endloop
  endfacet
  facet normal 0 0 -1
    outer loop
      vertex -0.961212 -7.94756 -5
      vertex -2.83495 -6.25 -5
      vertex -0.669876 -7.5 -5
    endloop
  endfacet
  facet normal 0 0 -1
    outer loop
      vertex -3.77321 -7.17828 -5
      vertex -3.54788 -7.03502 -5
      vertex -2.54642 -9.35658 -5
    endloop
  endfacet
  facet normal 0 0 -1
    outer loop
      vertex -4.01253 -7.29671 -5
      vertex -3.77321 -7.17828 -5
      vertex -2.54642 -9.35658 -5
    endloop
  endfacet
  facet normal 0 0 -1
    outer loop
      vertex -3.02505 -9.59341 -5
      vertex -4.01253 -7.29671 -5
      vertex -2.54642 -9.35658 -5
    endloop
  endfacet
  facet normal 0 0 -1
    outer loop
      vertex -3.02505 -9.59341 -5
      vertex -4.26312 -7.38893 -5
      vertex -4.01253 -7.29671 -5
    endloop
  endfacet
  facet normal -0 0 -1
    outer loop
      vertex -3.02505 -9.59341 -5
      vertex -3.52623 -9.77786 -5
      vertex -4.26312 -7.38893 -5
    endloop
  endfacet
  facet normal 0 0 -1
    outer loop
      vertex -4.26312 -7.38893 -5
      vertex -3.52623 -9.77786 -5
      vertex -4.04422 -9.90779 -5
    endloop
  endfacet
  facet normal 0 0 -1
    outer loop
      vertex -4.52211 -7.45389 -5
      vertex -4.26312 -7.38893 -5
      vertex -4.04422 -9.90779 -5
    endloop
  endfacet
  facet normal 0 0 -1
    outer loop
      vertex -4.5731 -9.98174 -5
      vertex -4.52211 -7.45389 -5
      vertex -4.04422 -9.90779 -5
    endloop
  endfacet
  facet normal 0 0 -1
    outer loop
      vertex -4.5731 -9.98174 -5
      vertex -4.78656 -7.49086 -5
      vertex -4.52211 -7.45389 -5
    endloop
  endfacet
  facet normal 0 0 -1
    outer loop
      vertex -4.5731 -9.98174 -5
      vertex -5.05342 -7.49942 -5
      vertex -4.78656 -7.49086 -5
    endloop
  endfacet
  facet normal -0 0 -1
    outer loop
      vertex -4.5731 -9.98174 -5
      vertex -5.10684 -9.99886 -5
      vertex -5.05342 -7.49942 -5
    endloop
  endfacet
  facet normal -0 0 -1
    outer loop
      vertex -5.05342 -7.49942 -5
      vertex -5.63937 -9.95894 -5
      vertex -5.31969 -7.47946 -5
    endloop
  endfacet
  facet normal 0 0 -1
    outer loop
      vertex -5.63937 -9.95894 -5
      vertex -6.16463 -9.86247 -5
      vertex -5.58231 -7.43123 -5
    endloop
  endfacet
  facet normal 0 0 -1
    outer loop
      vertex -6.67657 -9.71053 -5
      vertex -7.16942 -9.50484 -5
      vertex -5.83829 -7.35526 -5
    endloop
  endfacet
  facet normal 0 0 -1
    outer loop
      vertex -8.07549 -8.94225 -5
      vertex -6.31874 -7.12389 -5
      vertex -7.6375 -9.24777 -5
    endloop
  endfacet
  facet normal 0 -0 -1
    outer loop
      vertex -6.7392 -6.79587 -5
      vertex -6.53773 -6.97112 -5
      vertex -8.07549 -8.94225 -5
    endloop
  endfacet
  facet normal 0 0 -1
    outer loop
      vertex -6.92082 -6.60013 -5
      vertex -8.84164 -8.20027 -5
      vertex -9.16104 -7.77229 -5
    endloop
  endfacet
  facet normal -0 0 -1
    outer loop
      vertex -7.08052 -6.38614 -5
      vertex -9.16104 -7.77229 -5
      vertex -7.21649 -6.15634 -5
    endloop
  endfacet
  facet normal 0 0 -1
    outer loop
      vertex -9.43298 -7.31268 -5
      vertex -9.65436 -6.82669 -5
      vertex -7.32718 -5.91335 -5
    endloop
  endfacet
  facet normal 0 0 -1
    outer loop
      vertex -9.9359 -5.79799 -5
      vertex -7.46794 -5.39899 -5
      vertex -7.41132 -5.65993 -5
    endloop
  endfacet
  facet normal 0 0 -1
    outer loop
      vertex -9.99286 -5.26701 -5
      vertex -7.49643 -5.1335 -5
      vertex -9.9359 -5.79799 -5
    endloop
  endfacet
  facet normal 0 0 -1
    outer loop
      vertex -9.99286 -5.26701 -5
      vertex -9.99286 -4.73299 -5
      vertex -7.49643 -5.1335 -5
    endloop
  endfacet
  facet normal 0 0 -1
    outer loop
      vertex -9.99286 -4.73299 -5
      vertex -9.9359 -4.20201 -5
      vertex -7.49643 -4.8665 -5
    endloop
  endfacet
  facet normal 0 0 -1
    outer loop
      vertex -9.9359 -4.20201 -5
      vertex -7.41132 -4.34007 -5
      vertex -7.46794 -4.60101 -5
    endloop
  endfacet
  facet normal 0 0 -1
    outer loop
      vertex -9.82263 -3.68013 -5
      vertex -7.32718 -4.08665 -5
      vertex -7.41132 -4.34007 -5
    endloop
  endfacet
  facet normal 0 0 -1
    outer loop
      vertex -9.65436 -3.17331 -5
      vertex -9.43298 -2.68732 -5
      vertex -7.32718 -4.08665 -5
    endloop
  endfacet
  facet normal 0 0 -1
    outer loop
      vertex -9.43298 -2.68732 -5
      vertex -9.16104 -2.22771 -5
      vertex -7.21649 -3.84366 -5
    endloop
  endfacet
  facet normal 0 0 -1
    outer loop
      vertex -9.16104 -2.22771 -5
      vertex -6.92082 -3.39987 -5
      vertex -7.08052 -3.61386 -5
    endloop
  endfacet
  facet normal 0 0 -1
    outer loop
      vertex -8.84164 -1.79973 -5
      vertex -8.47841 -1.40826 -5
      vertex -6.92082 -3.39987 -5
    endloop
  endfacet
  facet normal 0 0 -1
    outer loop
      vertex -8.47841 -1.40826 -5
      vertex -8.07549 -1.05775 -5
      vertex -6.7392 -3.20413 -5
    endloop
  endfacet
  facet normal 0 0 -1
    outer loop
      vertex -8.07549 -1.05775 -5
      vertex -6.31874 -2.87611 -5
      vertex -6.53773 -3.02888 -5
    endloop
  endfacet
  facet normal 0 0 -1
    outer loop
      vertex -7.6375 -0.752228 -5
      vertex -7.16942 -0.495163 -5
      vertex -6.31874 -2.87611 -5
    endloop
  endfacet
  facet normal 0 0 -1
    outer loop
      vertex -7.16942 -0.495163 -5
      vertex -5.83829 -2.64474 -5
      vertex -6.0847 -2.74759 -5
    endloop
  endfacet
  facet normal 0 0 -1
    outer loop
      vertex -6.67657 -0.289474 -5
      vertex -5.58231 -2.56877 -5
      vertex -5.83829 -2.64474 -5
    endloop
  endfacet
  facet normal 0 0 -1
    outer loop
      vertex -6.16463 -0.137527 -5
      vertex -5.63937 -0.0410614 -5
      vertex -5.58231 -2.56877 -5
    endloop
  endfacet
  facet normal 0 0 -1
    outer loop
      vertex -5.63937 -0.0410614 -5
      vertex -5.05342 -2.50058 -5
      vertex -5.31969 -2.52054 -5
    endloop
  endfacet
  facet normal 0 0 -1
    outer loop
      vertex -5.10684 -0.00114441 -5
      vertex -4.5731 -0.0182648 -5
      vertex -5.05342 -2.50058 -5
    endloop
  endfacet
  facet normal 0 -0 -1
    outer loop
      vertex -4.5731 -0.0182648 -5
      vertex -4.52211 -2.54611 -5
      vertex -4.78656 -2.50914 -5
    endloop
  endfacet
  facet normal 0 0 -1
    outer loop
      vertex -4.04422 -0.0922089 -5
      vertex -4.26312 -2.61107 -5
      vertex -4.52211 -2.54611 -5
    endloop
  endfacet
  facet normal 0 -0 -1
    outer loop
      vertex -3.52623 -0.222137 -5
      vertex -3.02505 -0.406586 -5
      vertex -4.26312 -2.61107 -5
    endloop
  endfacet
  facet normal 0 -0 -1
    outer loop
      vertex -3.02505 -0.406586 -5
      vertex -2.54642 -0.643417 -5
      vertex -4.01253 -2.70329 -5
    endloop
  endfacet
  facet normal 0 0 -1
    outer loop
      vertex -2.54642 -0.643417 -5
      vertex -3.54788 -2.96498 -5
      vertex -3.77321 -2.82172 -5
    endloop
  endfacet
  facet normal 0 -0 -1
    outer loop
      vertex -2.54642 -0.643417 -5
      vertex -2.09576 -0.929947 -5
      vertex -3.54788 -2.96498 -5
    endloop
  endfacet
  facet normal 0 0 -1
    outer loop
      vertex -3.54788 -2.96498 -5
      vertex -2.09576 -0.929947 -5
      vertex -1.67825 -1.26291 -5
    endloop
  endfacet
  facet normal 0 0 -1
    outer loop
      vertex -3.33913 -3.13145 -5
      vertex -3.54788 -2.96498 -5
      vertex -1.67825 -1.26291 -5
    endloop
  endfacet
  facet normal -0 0 -1
    outer loop
      vertex -1.29861 -1.6385 -5
      vertex -3.33913 -3.13145 -5
      vertex -1.67825 -1.26291 -5
    endloop
  endfacet
  facet normal 0 0 -1
    outer loop
      vertex -1.29861 -1.6385 -5
      vertex -3.14931 -3.31926 -5
      vertex -3.33913 -3.13145 -5
    endloop
  endfacet
  facet normal 0 -0 -1
    outer loop
      vertex -1.29861 -1.6385 -5
      vertex -0.961212 -2.05244 -5
      vertex -3.14931 -3.31926 -5
    endloop
  endfacet
  facet normal 0 0 -1
    outer loop
      vertex -3.14931 -3.31926 -5
      vertex -0.961212 -2.05244 -5
      vertex -2.98061 -3.52623 -5
    endloop
  endfacet
  facet normal 0 0 -1
    outer loop
      vertex -2.98061 -3.52623 -5
      vertex -0.961212 -2.05244 -5
      vertex -2.83495 -3.75 -5
    endloop
  endfacet
  facet normal 0 0 -1
    outer loop
      vertex -2.83495 -3.75 -5
      vertex -0.961212 -2.05244 -5
      vertex -0.669876 -2.5 -5
    endloop
  endfacet
  facet normal 0 0 -1
    outer loop
      vertex -4.01253 -2.70329 -5
      vertex -2.54642 -0.643417 -5
      vertex -3.77321 -2.82172 -5
    endloop
  endfacet
  facet normal 0 0 -1
    outer loop
      vertex -4.26312 -2.61107 -5
      vertex -3.02505 -0.406586 -5
      vertex -4.01253 -2.70329 -5
    endloop
  endfacet
  facet normal 0 -0 -1
    outer loop
      vertex -4.04422 -0.0922089 -5
      vertex -3.52623 -0.222137 -5
      vertex -4.26312 -2.61107 -5
    endloop
  endfacet
  facet normal 0 0 -1
    outer loop
      vertex -4.5731 -0.0182648 -5
      vertex -4.04422 -0.0922089 -5
      vertex -4.52211 -2.54611 -5
    endloop
  endfacet
  facet normal 0 0 -1
    outer loop
      vertex -5.05342 -2.50058 -5
      vertex -4.5731 -0.0182648 -5
      vertex -4.78656 -2.50914 -5
    endloop
  endfacet
  facet normal 0 0 -1
    outer loop
      vertex -5.63937 -0.0410614 -5
      vertex -5.10684 -0.00114441 -5
      vertex -5.05342 -2.50058 -5
    endloop
  endfacet
  facet normal 0 0 -1
    outer loop
      vertex -5.58231 -2.56877 -5
      vertex -5.63937 -0.0410614 -5
      vertex -5.31969 -2.52054 -5
    endloop
  endfacet
  facet normal 0 0 -1
    outer loop
      vertex -6.67657 -0.289474 -5
      vertex -6.16463 -0.137527 -5
      vertex -5.58231 -2.56877 -5
    endloop
  endfacet
  facet normal 0 0 -1
    outer loop
      vertex -7.16942 -0.495163 -5
      vertex -6.67657 -0.289474 -5
      vertex -5.83829 -2.64474 -5
    endloop
  endfacet
  facet normal 0 0 -1
    outer loop
      vertex -6.31874 -2.87611 -5
      vertex -7.16942 -0.495163 -5
      vertex -6.0847 -2.74759 -5
    endloop
  endfacet
  facet normal 0 0 -1
    outer loop
      vertex -8.07549 -1.05775 -5
      vertex -7.6375 -0.752228 -5
      vertex -6.31874 -2.87611 -5
    endloop
  endfacet
  facet normal 0 0 -1
    outer loop
      vertex -6.7392 -3.20413 -5
      vertex -8.07549 -1.05775 -5
      vertex -6.53773 -3.02888 -5
    endloop
  endfacet
  facet normal 0 0 -1
    outer loop
      vertex -6.92082 -3.39987 -5
      vertex -8.47841 -1.40826 -5
      vertex -6.7392 -3.20413 -5
    endloop
  endfacet
  facet normal 0 0 -1
    outer loop
      vertex -9.16104 -2.22771 -5
      vertex -8.84164 -1.79973 -5
      vertex -6.92082 -3.39987 -5
    endloop
  endfacet
  facet normal 0 0 -1
    outer loop
      vertex -7.21649 -3.84366 -5
      vertex -9.16104 -2.22771 -5
      vertex -7.08052 -3.61386 -5
    endloop
  endfacet
  facet normal 0 0 -1
    outer loop
      vertex -7.32718 -4.08665 -5
      vertex -9.43298 -2.68732 -5
      vertex -7.21649 -3.84366 -5
    endloop
  endfacet
  facet normal 0 0 -1
    outer loop
      vertex -9.82263 -3.68013 -5
      vertex -9.65436 -3.17331 -5
      vertex -7.32718 -4.08665 -5
    endloop
  endfacet
  facet normal 0 0 -1
    outer loop
      vertex -9.9359 -4.20201 -5
      vertex -9.82263 -3.68013 -5
      vertex -7.41132 -4.34007 -5
    endloop
  endfacet
  facet normal 0 0 -1
    outer loop
      vertex -7.49643 -4.8665 -5
      vertex -9.9359 -4.20201 -5
      vertex -7.46794 -4.60101 -5
    endloop
  endfacet
  facet normal 0 0 -1
    outer loop
      vertex -7.49643 -5.1335 -5
      vertex -9.99286 -4.73299 -5
      vertex -7.49643 -4.8665 -5
    endloop
  endfacet
  facet normal 0 0 -1
    outer loop
      vertex -9.9359 -5.79799 -5
      vertex -7.49643 -5.1335 -5
      vertex -7.46794 -5.39899 -5
    endloop
  endfacet
  facet normal 0 0 -1
    outer loop
      vertex -9.82263 -6.31987 -5
      vertex -9.9359 -5.79799 -5
      vertex -7.41132 -5.65993 -5
    endloop
  endfacet
  facet normal -0 0 -1
    outer loop
      vertex -7.32718 -5.91335 -5
      vertex -9.82263 -6.31987 -5
      vertex -7.41132 -5.65993 -5
    endloop
  endfacet
  facet normal 0 0 -1
    outer loop
      vertex -7.32718 -5.91335 -5
      vertex -9.65436 -6.82669 -5
      vertex -9.82263 -6.31987 -5
    endloop
  endfacet
  facet normal -0 0 -1
    outer loop
      vertex -7.21649 -6.15634 -5
      vertex -9.43298 -7.31268 -5
      vertex -7.32718 -5.91335 -5
    endloop
  endfacet
  facet normal 0 0 -1
    outer loop
      vertex -7.21649 -6.15634 -5
      vertex -9.16104 -7.77229 -5
      vertex -9.43298 -7.31268 -5
    endloop
  endfacet
  facet normal 0 -0 -1
    outer loop
      vertex -7.08052 -6.38614 -5
      vertex -6.92082 -6.60013 -5
      vertex -9.16104 -7.77229 -5
    endloop
  endfacet
  facet normal 0 0 -1
    outer loop
      vertex -6.92082 -6.60013 -5
      vertex -8.47841 -8.59174 -5
      vertex -8.84164 -8.20027 -5
    endloop
  endfacet
  facet normal 0 -0 -1
    outer loop
      vertex -6.92082 -6.60013 -5
      vertex -6.7392 -6.79587 -5
      vertex -8.47841 -8.59174 -5
    endloop
  endfacet
  facet normal 0 0 -1
    outer loop
      vertex -8.47841 -8.59174 -5
      vertex -6.7392 -6.79587 -5
      vertex -8.07549 -8.94225 -5
    endloop
  endfacet
  facet normal 0 0 -1
    outer loop
      vertex -8.07549 -8.94225 -5
      vertex -6.53773 -6.97112 -5
      vertex -6.31874 -7.12389 -5
    endloop
  endfacet
  facet normal 0 0 -1
    outer loop
      vertex -7.6375 -9.24777 -5
      vertex -6.31874 -7.12389 -5
      vertex -7.16942 -9.50484 -5
    endloop
  endfacet
  facet normal 0 0 -1
    outer loop
      vertex -7.16942 -9.50484 -5
      vertex -6.31874 -7.12389 -5
      vertex -6.0847 -7.25241 -5
    endloop
  endfacet
  facet normal -0 0 -1
    outer loop
      vertex -5.83829 -7.35526 -5
      vertex -7.16942 -9.50484 -5
      vertex -6.0847 -7.25241 -5
    endloop
  endfacet
  facet normal -0 0 -1
    outer loop
      vertex -5.58231 -7.43123 -5
      vertex -6.67657 -9.71053 -5
      vertex -5.83829 -7.35526 -5
    endloop
  endfacet
  facet normal 0 0 -1
    outer loop
      vertex -5.58231 -7.43123 -5
      vertex -6.16463 -9.86247 -5
      vertex -6.67657 -9.71053 -5
    endloop
  endfacet
  facet normal -0 0 -1
    outer loop
      vertex -5.31969 -7.47946 -5
      vertex -5.63937 -9.95894 -5
      vertex -5.58231 -7.43123 -5
    endloop
  endfacet
  facet normal 0 0 -1
    outer loop
      vertex -5.05342 -7.49942 -5
      vertex -5.10684 -9.99886 -5
      vertex -5.63937 -9.95894 -5
    endloop
  endfacet
  facet normal -0 0 1
    outer loop
      vertex -3.54788 -7.03502 5
      vertex -1.67825 -8.73709 5
      vertex -3.33913 -6.86855 5
    endloop
  endfacet
  facet normal 0 -0 1
    outer loop
      vertex -1.67825 -8.73709 5
      vertex -1.29861 -8.3615 5
      vertex -3.33913 -6.86855 5
    endloop
  endfacet
  facet normal 0 0 1
    outer loop
      vertex -3.54788 -7.03502 5
      vertex -2.09576 -9.07005 5
      vertex -1.67825 -8.73709 5
    endloop
  endfacet
  facet normal 0 0 1
    outer loop
      vertex -1.29861 -8.3615 5
      vertex -3.14931 -6.68074 5
      vertex -3.33913 -6.86855 5
    endloop
  endfacet
  facet normal 0 0 1
    outer loop
      vertex -0.961212 -7.94756 5
      vertex -3.14931 -6.68074 5
      vertex -1.29861 -8.3615 5
    endloop
  endfacet
  facet normal 0 0 1
    outer loop
      vertex -2.98061 -6.47377 5
      vertex -3.14931 -6.68074 5
      vertex -0.961212 -7.94756 5
    endloop
  endfacet
  facet normal -0 0 1
    outer loop
      vertex -2.98061 -6.47377 5
      vertex -0.961212 -7.94756 5
      vertex -2.83495 -6.25 5
    endloop
  endfacet
  facet normal 0 -0 1
    outer loop
      vertex -2.54642 -9.35658 5
      vertex -2.09576 -9.07005 5
      vertex -3.54788 -7.03502 5
    endloop
  endfacet
  facet normal 0 0 1
    outer loop
      vertex -0.669876 -7.5 5
      vertex -2.83495 -6.25 5
      vertex -0.961212 -7.94756 5
    endloop
  endfacet
  facet normal 0 0 1
    outer loop
      vertex -2.54642 -9.35658 5
      vertex -3.54788 -7.03502 5
      vertex -3.77321 -7.17828 5
    endloop
  endfacet
  facet normal 0 0 1
    outer loop
      vertex -2.54642 -9.35658 5
      vertex -3.77321 -7.17828 5
      vertex -4.01253 -7.29671 5
    endloop
  endfacet
  facet normal 0 0 1
    outer loop
      vertex -2.54642 -9.35658 5
      vertex -4.01253 -7.29671 5
      vertex -3.02505 -9.59341 5
    endloop
  endfacet
  facet normal 0 0 1
    outer loop
      vertex -4.01253 -7.29671 5
      vertex -4.26312 -7.38893 5
      vertex -3.02505 -9.59341 5
    endloop
  endfacet
  facet normal 0 0 1
    outer loop
      vertex -4.26312 -7.38893 5
      vertex -3.52623 -9.77786 5
      vertex -3.02505 -9.59341 5
    endloop
  endfacet
  facet normal 0 -0 1
    outer loop
      vertex -4.04422 -9.90779 5
      vertex -3.52623 -9.77786 5
      vertex -4.26312 -7.38893 5
    endloop
  endfacet
  facet normal 0 0 1
    outer loop
      vertex -4.04422 -9.90779 5
      vertex -4.26312 -7.38893 5
      vertex -4.52211 -7.45389 5
    endloop
  endfacet
  facet normal 0 0 1
    outer loop
      vertex -4.04422 -9.90779 5
      vertex -4.52211 -7.45389 5
      vertex -4.5731 -9.98174 5
    endloop
  endfacet
  facet normal 0 0 1
    outer loop
      vertex -4.52211 -7.45389 5
      vertex -4.78656 -7.49086 5
      vertex -4.5731 -9.98174 5
    endloop
  endfacet
  facet normal 0 0 1
    outer loop
      vertex -4.78656 -7.49086 5
      vertex -5.05342 -7.49942 5
      vertex -4.5731 -9.98174 5
    endloop
  endfacet
  facet normal 0 0 1
    outer loop
      vertex -5.05342 -7.49942 5
      vertex -5.10684 -9.99886 5
      vertex -4.5731 -9.98174 5
    endloop
  endfacet
  facet normal 0 0 1
    outer loop
      vertex -5.31969 -7.47946 5
      vertex -5.63937 -9.95894 5
      vertex -5.05342 -7.49942 5
    endloop
  endfacet
  facet normal 0 0 1
    outer loop
      vertex -5.58231 -7.43123 5
      vertex -6.16463 -9.86247 5
      vertex -5.63937 -9.95894 5
    endloop
  endfacet
  facet normal 0 0 1
    outer loop
      vertex -5.83829 -7.35526 5
      vertex -7.16942 -9.50484 5
      vertex -6.67657 -9.71053 5
    endloop
  endfacet
  facet normal 0 -0 1
    outer loop
      vertex -7.6375 -9.24777 5
      vertex -6.31874 -7.12389 5
      vertex -8.07549 -8.94225 5
    endloop
  endfacet
  facet normal 0 0 1
    outer loop
      vertex -8.07549 -8.94225 5
      vertex -6.53773 -6.97112 5
      vertex -6.7392 -6.79587 5
    endloop
  endfacet
  facet normal -0 0 1
    outer loop
      vertex -9.16104 -7.77229 5
      vertex -8.84164 -8.20027 5
      vertex -6.92082 -6.60013 5
    endloop
  endfacet
  facet normal 0 0 1
    outer loop
      vertex -7.21649 -6.15634 5
      vertex -9.16104 -7.77229 5
      vertex -7.08052 -6.38614 5
    endloop
  endfacet
  facet normal 0 0 1
    outer loop
      vertex -7.32718 -5.91335 5
      vertex -9.65436 -6.82669 5
      vertex -9.43298 -7.31268 5
    endloop
  endfacet
  facet normal 0 0 1
    outer loop
      vertex -7.41132 -5.65993 5
      vertex -7.46794 -5.39899 5
      vertex -9.9359 -5.79799 5
    endloop
  endfacet
  facet normal 0 -0 1
    outer loop
      vertex -9.9359 -5.79799 5
      vertex -7.49643 -5.1335 5
      vertex -9.99286 -5.26701 5
    endloop
  endfacet
  facet normal 0 0 1
    outer loop
      vertex -7.49643 -5.1335 5
      vertex -9.99286 -4.73299 5
      vertex -9.99286 -5.26701 5
    endloop
  endfacet
  facet normal 0 0 1
    outer loop
      vertex -7.49643 -4.8665 5
      vertex -9.9359 -4.20201 5
      vertex -9.99286 -4.73299 5
    endloop
  endfacet
  facet normal 0 -0 1
    outer loop
      vertex -7.46794 -4.60101 5
      vertex -7.41132 -4.34007 5
      vertex -9.9359 -4.20201 5
    endloop
  endfacet
  facet normal 0 -0 1
    outer loop
      vertex -7.41132 -4.34007 5
      vertex -7.32718 -4.08665 5
      vertex -9.82263 -3.68013 5
    endloop
  endfacet
  facet normal 0 0 1
    outer loop
      vertex -7.32718 -4.08665 5
      vertex -9.43298 -2.68732 5
      vertex -9.65436 -3.17331 5
    endloop
  endfacet
  facet normal 0 0 1
    outer loop
      vertex -7.21649 -3.84366 5
      vertex -9.16104 -2.22771 5
      vertex -9.43298 -2.68732 5
    endloop
  endfacet
  facet normal 0 -0 1
    outer loop
      vertex -7.08052 -3.61386 5
      vertex -6.92082 -3.39987 5
      vertex -9.16104 -2.22771 5
    endloop
  endfacet
  facet normal 0 0 1
    outer loop
      vertex -6.92082 -3.39987 5
      vertex -8.47841 -1.40826 5
      vertex -8.84164 -1.79973 5
    endloop
  endfacet
  facet normal 0 0 1
    outer loop
      vertex -6.7392 -3.20413 5
      vertex -8.07549 -1.05775 5
      vertex -8.47841 -1.40826 5
    endloop
  endfacet
  facet normal 0 -0 1
    outer loop
      vertex -6.53773 -3.02888 5
      vertex -6.31874 -2.87611 5
      vertex -8.07549 -1.05775 5
    endloop
  endfacet
  facet normal 0 0 1
    outer loop
      vertex -6.31874 -2.87611 5
      vertex -7.16942 -0.495163 5
      vertex -7.6375 -0.752228 5
    endloop
  endfacet
  facet normal 0 -0 1
    outer loop
      vertex -6.0847 -2.74759 5
      vertex -5.83829 -2.64474 5
      vertex -7.16942 -0.495163 5
    endloop
  endfacet
  facet normal 0 -0 1
    outer loop
      vertex -5.83829 -2.64474 5
      vertex -5.58231 -2.56877 5
      vertex -6.67657 -0.289474 5
    endloop
  endfacet
  facet normal 0 0 1
    outer loop
      vertex -5.58231 -2.56877 5
      vertex -5.63937 -0.0410614 5
      vertex -6.16463 -0.137527 5
    endloop
  endfacet
  facet normal 0 -0 1
    outer loop
      vertex -5.31969 -2.52054 5
      vertex -5.05342 -2.50058 5
      vertex -5.63937 -0.0410614 5
    endloop
  endfacet
  facet normal 0 -0 1
    outer loop
      vertex -5.05342 -2.50058 5
      vertex -4.5731 -0.0182648 5
      vertex -5.10684 -0.00114441 5
    endloop
  endfacet
  facet normal -0 0 1
    outer loop
      vertex -4.78656 -2.50914 5
      vertex -4.52211 -2.54611 5
      vertex -4.5731 -0.0182648 5
    endloop
  endfacet
  facet normal -0 0 1
    outer loop
      vertex -4.52211 -2.54611 5
      vertex -4.26312 -2.61107 5
      vertex -4.04422 -0.0922089 5
    endloop
  endfacet
  facet normal 0 0 1
    outer loop
      vertex -4.26312 -2.61107 5
      vertex -3.02505 -0.406586 5
      vertex -3.52623 -0.222137 5
    endloop
  endfacet
  facet normal 0 0 1
    outer loop
      vertex -4.01253 -2.70329 5
      vertex -2.54642 -0.643417 5
      vertex -3.02505 -0.406586 5
    endloop
  endfacet
  facet normal -0 0 1
    outer loop
      vertex -3.77321 -2.82172 5
      vertex -3.54788 -2.96498 5
      vertex -2.54642 -0.643417 5
    endloop
  endfacet
  facet normal 0 0 1
    outer loop
      vertex -3.54788 -2.96498 5
      vertex -2.09576 -0.929947 5
      vertex -2.54642 -0.643417 5
    endloop
  endfacet
  facet normal 0 0 1
    outer loop
      vertex -1.67825 -1.26291 5
      vertex -2.09576 -0.929947 5
      vertex -3.54788 -2.96498 5
    endloop
  endfacet
  facet normal 0 0 1
    outer loop
      vertex -1.67825 -1.26291 5
      vertex -3.54788 -2.96498 5
      vertex -3.33913 -3.13145 5
    endloop
  endfacet
  facet normal 0 0 1
    outer loop
      vertex -1.67825 -1.26291 5
      vertex -3.33913 -3.13145 5
      vertex -1.29861 -1.6385 5
    endloop
  endfacet
  facet normal -0 0 1
    outer loop
      vertex -3.33913 -3.13145 5
      vertex -3.14931 -3.31926 5
      vertex -1.29861 -1.6385 5
    endloop
  endfacet
  facet normal 0 0 1
    outer loop
      vertex -3.14931 -3.31926 5
      vertex -0.961212 -2.05244 5
      vertex -1.29861 -1.6385 5
    endloop
  endfacet
  facet normal 0 -0 1
    outer loop
      vertex -2.98061 -3.52623 5
      vertex -0.961212 -2.05244 5
      vertex -3.14931 -3.31926 5
    endloop
  endfacet
  facet normal 0 -0 1
    outer loop
      vertex -2.83495 -3.75 5
      vertex -0.961212 -2.05244 5
      vertex -2.98061 -3.52623 5
    endloop
  endfacet
  facet normal 0 0 1
    outer loop
      vertex -0.669876 -2.5 5
      vertex -0.961212 -2.05244 5
      vertex -2.83495 -3.75 5
    endloop
  endfacet
  facet normal 0 -0 1
    outer loop
      vertex -3.77321 -2.82172 5
      vertex -2.54642 -0.643417 5
      vertex -4.01253 -2.70329 5
    endloop
  endfacet
  facet normal 0 -0 1
    outer loop
      vertex -4.01253 -2.70329 5
      vertex -3.02505 -0.406586 5
      vertex -4.26312 -2.61107 5
    endloop
  endfacet
  facet normal 0 0 1
    outer loop
      vertex -4.26312 -2.61107 5
      vertex -3.52623 -0.222137 5
      vertex -4.04422 -0.0922089 5
    endloop
  endfacet
  facet normal 0 -0 1
    outer loop
      vertex -4.52211 -2.54611 5
      vertex -4.04422 -0.0922089 5
      vertex -4.5731 -0.0182648 5
    endloop
  endfacet
  facet normal 0 -0 1
    outer loop
      vertex -4.78656 -2.50914 5
      vertex -4.5731 -0.0182648 5
      vertex -5.05342 -2.50058 5
    endloop
  endfacet
  facet normal 0 0 1
    outer loop
      vertex -5.05342 -2.50058 5
      vertex -5.10684 -0.00114441 5
      vertex -5.63937 -0.0410614 5
    endloop
  endfacet
  facet normal 0 0 1
    outer loop
      vertex -5.31969 -2.52054 5
      vertex -5.63937 -0.0410614 5
      vertex -5.58231 -2.56877 5
    endloop
  endfacet
  facet normal 0 0 1
    outer loop
      vertex -5.58231 -2.56877 5
      vertex -6.16463 -0.137527 5
      vertex -6.67657 -0.289474 5
    endloop
  endfacet
  facet normal 0 0 1
    outer loop
      vertex -5.83829 -2.64474 5
      vertex -6.67657 -0.289474 5
      vertex -7.16942 -0.495163 5
    endloop
  endfacet
  facet normal 0 0 1
    outer loop
      vertex -6.0847 -2.74759 5
      vertex -7.16942 -0.495163 5
      vertex -6.31874 -2.87611 5
    endloop
  endfacet
  facet normal 0 0 1
    outer loop
      vertex -6.31874 -2.87611 5
      vertex -7.6375 -0.752228 5
      vertex -8.07549 -1.05775 5
    endloop
  endfacet
  facet normal 0 0 1
    outer loop
      vertex -6.53773 -3.02888 5
      vertex -8.07549 -1.05775 5
      vertex -6.7392 -3.20413 5
    endloop
  endfacet
  facet normal 0 0 1
    outer loop
      vertex -6.7392 -3.20413 5
      vertex -8.47841 -1.40826 5
      vertex -6.92082 -3.39987 5
    endloop
  endfacet
  facet normal 0 0 1
    outer loop
      vertex -6.92082 -3.39987 5
      vertex -8.84164 -1.79973 5
      vertex -9.16104 -2.22771 5
    endloop
  endfacet
  facet normal 0 0 1
    outer loop
      vertex -7.08052 -3.61386 5
      vertex -9.16104 -2.22771 5
      vertex -7.21649 -3.84366 5
    endloop
  endfacet
  facet normal 0 0 1
    outer loop
      vertex -7.21649 -3.84366 5
      vertex -9.43298 -2.68732 5
      vertex -7.32718 -4.08665 5
    endloop
  endfacet
  facet normal 0 0 1
    outer loop
      vertex -7.32718 -4.08665 5
      vertex -9.65436 -3.17331 5
      vertex -9.82263 -3.68013 5
    endloop
  endfacet
  facet normal 0 0 1
    outer loop
      vertex -7.41132 -4.34007 5
      vertex -9.82263 -3.68013 5
      vertex -9.9359 -4.20201 5
    endloop
  endfacet
  facet normal 0 0 1
    outer loop
      vertex -7.46794 -4.60101 5
      vertex -9.9359 -4.20201 5
      vertex -7.49643 -4.8665 5
    endloop
  endfacet
  facet normal 0 0 1
    outer loop
      vertex -7.49643 -4.8665 5
      vertex -9.99286 -4.73299 5
      vertex -7.49643 -5.1335 5
    endloop
  endfacet
  facet normal 0 0 1
    outer loop
      vertex -7.46794 -5.39899 5
      vertex -7.49643 -5.1335 5
      vertex -9.9359 -5.79799 5
    endloop
  endfacet
  facet normal 0 0 1
    outer loop
      vertex -7.41132 -5.65993 5
      vertex -9.9359 -5.79799 5
      vertex -9.82263 -6.31987 5
    endloop
  endfacet
  facet normal 0 0 1
    outer loop
      vertex -7.41132 -5.65993 5
      vertex -9.82263 -6.31987 5
      vertex -7.32718 -5.91335 5
    endloop
  endfacet
  facet normal -0 0 1
    outer loop
      vertex -9.82263 -6.31987 5
      vertex -9.65436 -6.82669 5
      vertex -7.32718 -5.91335 5
    endloop
  endfacet
  facet normal 0 0 1
    outer loop
      vertex -7.32718 -5.91335 5
      vertex -9.43298 -7.31268 5
      vertex -7.21649 -6.15634 5
    endloop
  endfacet
  facet normal -0 0 1
    outer loop
      vertex -9.43298 -7.31268 5
      vertex -9.16104 -7.77229 5
      vertex -7.21649 -6.15634 5
    endloop
  endfacet
  facet normal 0 0 1
    outer loop
      vertex -9.16104 -7.77229 5
      vertex -6.92082 -6.60013 5
      vertex -7.08052 -6.38614 5
    endloop
  endfacet
  facet normal -0 0 1
    outer loop
      vertex -8.84164 -8.20027 5
      vertex -8.47841 -8.59174 5
      vertex -6.92082 -6.60013 5
    endloop
  endfacet
  facet normal 0 0 1
    outer loop
      vertex -8.47841 -8.59174 5
      vertex -6.7392 -6.79587 5
      vertex -6.92082 -6.60013 5
    endloop
  endfacet
  facet normal 0 -0 1
    outer loop
      vertex -8.07549 -8.94225 5
      vertex -6.7392 -6.79587 5
      vertex -8.47841 -8.59174 5
    endloop
  endfacet
  facet normal 0 0 1
    outer loop
      vertex -6.31874 -7.12389 5
      vertex -6.53773 -6.97112 5
      vertex -8.07549 -8.94225 5
    endloop
  endfacet
  facet normal 0 -0 1
    outer loop
      vertex -7.16942 -9.50484 5
      vertex -6.31874 -7.12389 5
      vertex -7.6375 -9.24777 5
    endloop
  endfacet
  facet normal 0 0 1
    outer loop
      vertex -6.0847 -7.25241 5
      vertex -6.31874 -7.12389 5
      vertex -7.16942 -9.50484 5
    endloop
  endfacet
  facet normal 0 0 1
    outer loop
      vertex -6.0847 -7.25241 5
      vertex -7.16942 -9.50484 5
      vertex -5.83829 -7.35526 5
    endloop
  endfacet
  facet normal 0 0 1
    outer loop
      vertex -5.83829 -7.35526 5
      vertex -6.67657 -9.71053 5
      vertex -5.58231 -7.43123 5
    endloop
  endfacet
  facet normal -0 0 1
    outer loop
      vertex -6.67657 -9.71053 5
      vertex -6.16463 -9.86247 5
      vertex -5.58231 -7.43123 5
    endloop
  endfacet
  facet normal 0 0 1
    outer loop
      vertex -5.58231 -7.43123 5
      vertex -5.63937 -9.95894 5
      vertex -5.31969 -7.47946 5
    endloop
  endfacet
  facet normal -0 0 1
    outer loop
      vertex -5.63937 -9.95894 5
      vertex -5.10684 -9.99886 5
      vertex -5.05342 -7.49942 5
    endloop
  endfacet
  facet normal 0.138477 -0.990366 0
    outer loop
      vertex -4.04422 -9.90779 -5
      vertex -4.5731 -9.98174 5
      vertex -4.5731 -9.98174 -5
    endloop
  endfacet
  facet normal 0.138477 -0.990366 0
    outer loop
      vertex -4.04422 -9.90779 -5
      vertex -4.04422 -9.90779 5
      vertex -4.5731 -9.98174 5
    endloop
  endfacet
  facet normal 0.243298 -0.969952 0
    outer loop
      vertex -3.52623 -9.77786 -5
      vertex -4.04422 -9.90779 5
      vertex -4.04422 -9.90779 -5
    endloop
  endfacet
  facet normal 0.243298 -0.969952 0
    outer loop
      vertex -3.52623 -9.77786 -5
      vertex -3.52623 -9.77786 5
      vertex -4.04422 -9.90779 5
    endloop
  endfacet
  facet normal 0.345383 -0.938462 0
    outer loop
      vertex -3.02505 -9.59341 -5
      vertex -3.52623 -9.77786 5
      vertex -3.52623 -9.77786 -5
    endloop
  endfacet
  facet normal 0.345383 -0.938462 0
    outer loop
      vertex -3.02505 -9.59341 -5
      vertex -3.02505 -9.59341 5
      vertex -3.52623 -9.77786 5
    endloop
  endfacet
  facet normal 0.443487 -0.896281 0
    outer loop
      vertex -2.54642 -9.35658 -5
      vertex -3.02505 -9.59341 5
      vertex -3.02505 -9.59341 -5
    endloop
  endfacet
  facet normal 0.443487 -0.896281 0
    outer loop
      vertex -2.54642 -9.35658 -5
      vertex -2.54642 -9.35658 5
      vertex -3.02505 -9.59341 5
    endloop
  endfacet
  facet normal 0.536537 -0.843877 0
    outer loop
      vertex -2.09576 -9.07005 -5
      vertex -2.54642 -9.35658 5
      vertex -2.54642 -9.35658 -5
    endloop
  endfacet
  facet normal 0.536537 -0.843877 0
    outer loop
      vertex -2.09576 -9.07005 -5
      vertex -2.09576 -9.07005 5
      vertex -2.54642 -9.35658 5
    endloop
  endfacet
  facet normal 0.623498 -0.781825 0
    outer loop
      vertex -1.67825 -8.73709 -5
      vertex -2.09576 -9.07005 5
      vertex -2.09576 -9.07005 -5
    endloop
  endfacet
  facet normal 0.623498 -0.781825 0
    outer loop
      vertex -1.67825 -8.73709 -5
      vertex -1.67825 -8.73709 5
      vertex -2.09576 -9.07005 5
    endloop
  endfacet
  facet normal 0.703305 -0.710888 0
    outer loop
      vertex -1.29861 -8.3615 -5
      vertex -1.67825 -8.73709 5
      vertex -1.67825 -8.73709 -5
    endloop
  endfacet
  facet normal 0.703305 -0.710888 0
    outer loop
      vertex -1.29861 -8.3615 -5
      vertex -1.29861 -8.3615 5
      vertex -1.67825 -8.73709 5
    endloop
  endfacet
  facet normal 0.775131 -0.631801 0
    outer loop
      vertex -0.961212 -7.94756 -5
      vertex -1.29861 -8.3615 5
      vertex -1.29861 -8.3615 -5
    endloop
  endfacet
  facet normal 0.775131 -0.631801 0
    outer loop
      vertex -0.961212 -7.94756 -5
      vertex -0.961212 -7.94756 5
      vertex -1.29861 -8.3615 5
    endloop
  endfacet
  facet normal 0.838082 -0.545544 0
    outer loop
      vertex -0.669876 -7.5 -5
      vertex -0.961212 -7.94756 5
      vertex -0.961212 -7.94756 -5
    endloop
  endfacet
  facet normal 0.838082 -0.545544 0
    outer loop
      vertex -0.669876 -7.5 -5
      vertex -0.669876 -7.5 5
      vertex -0.961212 -7.94756 5
    endloop
  endfacet
  facet normal 0.499998 0.866026 0
    outer loop
      vertex -2.83495 -6.25 -5
      vertex -0.669876 -7.5 5
      vertex -0.669876 -7.5 -5
    endloop
  endfacet
  facet normal 0.499998 0.866026 -0
    outer loop
      vertex -2.83495 -6.25 -5
      vertex -2.83495 -6.25 5
      vertex -0.669876 -7.5 5
    endloop
  endfacet
  facet normal -0.838085 0.54554 0
    outer loop
      vertex -2.98061 -6.47377 -5
      vertex -2.83495 -6.25 5
      vertex -2.83495 -6.25 -5
    endloop
  endfacet
  facet normal -0.838085 0.54554 0
    outer loop
      vertex -2.98061 -6.47377 -5
      vertex -2.98061 -6.47377 5
      vertex -2.83495 -6.25 5
    endloop
  endfacet
  facet normal -0.775129 0.631803 0
    outer loop
      vertex -3.14931 -6.68074 -5
      vertex -2.98061 -6.47377 5
      vertex -2.98061 -6.47377 -5
    endloop
  endfacet
  facet normal -0.775129 0.631803 0
    outer loop
      vertex -3.14931 -6.68074 -5
      vertex -3.14931 -6.68074 5
      vertex -2.98061 -6.47377 5
    endloop
  endfacet
  facet normal -0.703333 0.71086 0
    outer loop
      vertex -3.33913 -6.86855 -5
      vertex -3.14931 -6.68074 5
      vertex -3.14931 -6.68074 -5
    endloop
  endfacet
  facet normal -0.703333 0.71086 0
    outer loop
      vertex -3.33913 -6.86855 -5
      vertex -3.33913 -6.86855 5
      vertex -3.14931 -6.68074 5
    endloop
  endfacet
  facet normal -0.623484 0.781836 0
    outer loop
      vertex -3.54788 -7.03502 -5
      vertex -3.33913 -6.86855 5
      vertex -3.33913 -6.86855 -5
    endloop
  endfacet
  facet normal -0.623484 0.781836 0
    outer loop
      vertex -3.54788 -7.03502 -5
      vertex -3.54788 -7.03502 5
      vertex -3.33913 -6.86855 5
    endloop
  endfacet
  facet normal -0.536524 0.843885 0
    outer loop
      vertex -3.77321 -7.17828 -5
      vertex -3.54788 -7.03502 5
      vertex -3.54788 -7.03502 -5
    endloop
  endfacet
  facet normal -0.536524 0.843885 0
    outer loop
      vertex -3.77321 -7.17828 -5
      vertex -3.77321 -7.17828 5
      vertex -3.54788 -7.03502 5
    endloop
  endfacet
  facet normal -0.443525 0.896262 0
    outer loop
      vertex -4.01253 -7.29671 -5
      vertex -3.77321 -7.17828 5
      vertex -3.77321 -7.17828 -5
    endloop
  endfacet
  facet normal -0.443525 0.896262 0
    outer loop
      vertex -4.01253 -7.29671 -5
      vertex -4.01253 -7.29671 5
      vertex -3.77321 -7.17828 5
    endloop
  endfacet
  facet normal -0.345367 0.938468 0
    outer loop
      vertex -4.26312 -7.38893 -5
      vertex -4.01253 -7.29671 5
      vertex -4.01253 -7.29671 -5
    endloop
  endfacet
  facet normal -0.345367 0.938468 0
    outer loop
      vertex -4.26312 -7.38893 -5
      vertex -4.26312 -7.38893 5
      vertex -4.01253 -7.29671 5
    endloop
  endfacet
  facet normal -0.243285 0.969955 0
    outer loop
      vertex -4.52211 -7.45389 -5
      vertex -4.26312 -7.38893 5
      vertex -4.26312 -7.38893 -5
    endloop
  endfacet
  facet normal -0.243285 0.969955 0
    outer loop
      vertex -4.52211 -7.45389 -5
      vertex -4.52211 -7.45389 5
      vertex -4.26312 -7.38893 5
    endloop
  endfacet
  facet normal -0.138453 0.990369 0
    outer loop
      vertex -4.78656 -7.49086 -5
      vertex -4.52211 -7.45389 5
      vertex -4.52211 -7.45389 -5
    endloop
  endfacet
  facet normal -0.138453 0.990369 0
    outer loop
      vertex -4.78656 -7.49086 -5
      vertex -4.78656 -7.49086 5
      vertex -4.52211 -7.45389 5
    endloop
  endfacet
  facet normal -0.0320603 0.999486 0
    outer loop
      vertex -5.05342 -7.49942 -5
      vertex -4.78656 -7.49086 5
      vertex -4.78656 -7.49086 -5
    endloop
  endfacet
  facet normal -0.0320603 0.999486 0
    outer loop
      vertex -5.05342 -7.49942 -5
      vertex -5.05342 -7.49942 5
      vertex -4.78656 -7.49086 5
    endloop
  endfacet
  facet normal 0.0747518 0.997202 0
    outer loop
      vertex -5.31969 -7.47946 -5
      vertex -5.05342 -7.49942 5
      vertex -5.05342 -7.49942 -5
    endloop
  endfacet
  facet normal 0.0747518 0.997202 -0
    outer loop
      vertex -5.31969 -7.47946 -5
      vertex -5.31969 -7.47946 5
      vertex -5.05342 -7.49942 5
    endloop
  endfacet
  facet normal 0.180629 0.983551 0
    outer loop
      vertex -5.58231 -7.43123 -5
      vertex -5.31969 -7.47946 5
      vertex -5.31969 -7.47946 -5
    endloop
  endfacet
  facet normal 0.180629 0.983551 -0
    outer loop
      vertex -5.58231 -7.43123 -5
      vertex -5.58231 -7.43123 5
      vertex -5.31969 -7.47946 5
    endloop
  endfacet
  facet normal 0.284515 0.958671 0
    outer loop
      vertex -5.83829 -7.35526 -5
      vertex -5.58231 -7.43123 5
      vertex -5.58231 -7.43123 -5
    endloop
  endfacet
  facet normal 0.284515 0.958671 -0
    outer loop
      vertex -5.83829 -7.35526 -5
      vertex -5.83829 -7.35526 5
      vertex -5.58231 -7.43123 5
    endloop
  endfacet
  facet normal 0.385187 0.922839 0
    outer loop
      vertex -6.0847 -7.25241 -5
      vertex -5.83829 -7.35526 5
      vertex -5.83829 -7.35526 -5
    endloop
  endfacet
  facet normal 0.385187 0.922839 -0
    outer loop
      vertex -6.0847 -7.25241 -5
      vertex -6.0847 -7.25241 5
      vertex -5.83829 -7.35526 5
    endloop
  endfacet
  facet normal 0.481338 0.876535 0
    outer loop
      vertex -6.31874 -7.12389 -5
      vertex -6.0847 -7.25241 5
      vertex -6.0847 -7.25241 -5
    endloop
  endfacet
  facet normal 0.481338 0.876535 -0
    outer loop
      vertex -6.31874 -7.12389 -5
      vertex -6.31874 -7.12389 5
      vertex -6.0847 -7.25241 5
    endloop
  endfacet
  facet normal 0.572147 0.820151 0
    outer loop
      vertex -6.53773 -6.97112 -5
      vertex -6.31874 -7.12389 5
      vertex -6.31874 -7.12389 -5
    endloop
  endfacet
  facet normal 0.572147 0.820151 -0
    outer loop
      vertex -6.53773 -6.97112 -5
      vertex -6.53773 -6.97112 5
      vertex -6.31874 -7.12389 5
    endloop
  endfacet
  facet normal 0.656304 0.754497 0
    outer loop
      vertex -6.7392 -6.79587 -5
      vertex -6.53773 -6.97112 5
      vertex -6.53773 -6.97112 -5
    endloop
  endfacet
  facet normal 0.656304 0.754497 -0
    outer loop
      vertex -6.7392 -6.79587 -5
      vertex -6.7392 -6.79587 5
      vertex -6.53773 -6.97112 5
    endloop
  endfacet
  facet normal 0.733052 0.680172 0
    outer loop
      vertex -6.92082 -6.60013 -5
      vertex -6.7392 -6.79587 5
      vertex -6.7392 -6.79587 -5
    endloop
  endfacet
  facet normal 0.733052 0.680172 -0
    outer loop
      vertex -6.92082 -6.60013 -5
      vertex -6.92082 -6.60013 5
      vertex -6.7392 -6.79587 5
    endloop
  endfacet
  facet normal 0.801422 0.598099 0
    outer loop
      vertex -7.08052 -6.38614 -5
      vertex -6.92082 -6.60013 5
      vertex -6.92082 -6.60013 -5
    endloop
  endfacet
  facet normal 0.801422 0.598099 -0
    outer loop
      vertex -7.08052 -6.38614 -5
      vertex -7.08052 -6.38614 5
      vertex -6.92082 -6.60013 5
    endloop
  endfacet
  facet normal 0.860633 0.509226 0
    outer loop
      vertex -7.21649 -6.15634 -5
      vertex -7.08052 -6.38614 5
      vertex -7.08052 -6.38614 -5
    endloop
  endfacet
  facet normal 0.860633 0.509226 -0
    outer loop
      vertex -7.21649 -6.15634 -5
      vertex -7.21649 -6.15634 5
      vertex -7.08052 -6.38614 5
    endloop
  endfacet
  facet normal 0.910028 0.414548 0
    outer loop
      vertex -7.32718 -5.91335 -5
      vertex -7.21649 -6.15634 5
      vertex -7.21649 -6.15634 -5
    endloop
  endfacet
  facet normal 0.910028 0.414548 -0
    outer loop
      vertex -7.32718 -5.91335 -5
      vertex -7.32718 -5.91335 5
      vertex -7.21649 -6.15634 5
    endloop
  endfacet
  facet normal 0.949057 0.315104 0
    outer loop
      vertex -7.41132 -5.65993 -5
      vertex -7.32718 -5.91335 5
      vertex -7.32718 -5.91335 -5
    endloop
  endfacet
  facet normal 0.949057 0.315104 -0
    outer loop
      vertex -7.41132 -5.65993 -5
      vertex -7.41132 -5.65993 5
      vertex -7.32718 -5.91335 5
    endloop
  endfacet
  facet normal 0.977259 0.21205 0
    outer loop
      vertex -7.46794 -5.39899 -5
      vertex -7.41132 -5.65993 5
      vertex -7.41132 -5.65993 -5
    endloop
  endfacet
  facet normal 0.977259 0.21205 -0
    outer loop
      vertex -7.46794 -5.39899 -5
      vertex -7.46794 -5.39899 5
      vertex -7.41132 -5.65993 5
    endloop
  endfacet
  facet normal 0.994291 0.106698 0
    outer loop
      vertex -7.49643 -5.1335 -5
      vertex -7.46794 -5.39899 5
      vertex -7.46794 -5.39899 -5
    endloop
  endfacet
  facet normal 0.994291 0.106698 -0
    outer loop
      vertex -7.49643 -5.1335 -5
      vertex -7.49643 -5.1335 5
      vertex -7.46794 -5.39899 5
    endloop
  endfacet
  facet normal 1 0 0
    outer loop
      vertex -7.49643 -4.8665 -5
      vertex -7.49643 -5.1335 5
      vertex -7.49643 -5.1335 -5
    endloop
  endfacet
  facet normal 1 0 -0
    outer loop
      vertex -7.49643 -4.8665 -5
      vertex -7.49643 -4.8665 5
      vertex -7.49643 -5.1335 5
    endloop
  endfacet
  facet normal 0.994291 -0.106698 0
    outer loop
      vertex -7.46794 -4.60101 -5
      vertex -7.49643 -4.8665 5
      vertex -7.49643 -4.8665 -5
    endloop
  endfacet
  facet normal 0.994291 -0.106698 0
    outer loop
      vertex -7.46794 -4.60101 -5
      vertex -7.46794 -4.60101 5
      vertex -7.49643 -4.8665 5
    endloop
  endfacet
  facet normal 0.977259 -0.21205 0
    outer loop
      vertex -7.41132 -4.34007 -5
      vertex -7.46794 -4.60101 5
      vertex -7.46794 -4.60101 -5
    endloop
  endfacet
  facet normal 0.977259 -0.21205 0
    outer loop
      vertex -7.41132 -4.34007 -5
      vertex -7.41132 -4.34007 5
      vertex -7.46794 -4.60101 5
    endloop
  endfacet
  facet normal 0.949057 -0.315104 0
    outer loop
      vertex -7.32718 -4.08665 -5
      vertex -7.41132 -4.34007 5
      vertex -7.41132 -4.34007 -5
    endloop
  endfacet
  facet normal 0.949057 -0.315104 0
    outer loop
      vertex -7.32718 -4.08665 -5
      vertex -7.32718 -4.08665 5
      vertex -7.41132 -4.34007 5
    endloop
  endfacet
  facet normal 0.910028 -0.414548 0
    outer loop
      vertex -7.21649 -3.84366 -5
      vertex -7.32718 -4.08665 5
      vertex -7.32718 -4.08665 -5
    endloop
  endfacet
  facet normal 0.910028 -0.414548 0
    outer loop
      vertex -7.21649 -3.84366 -5
      vertex -7.21649 -3.84366 5
      vertex -7.32718 -4.08665 5
    endloop
  endfacet
  facet normal 0.860633 -0.509226 0
    outer loop
      vertex -7.08052 -3.61386 -5
      vertex -7.21649 -3.84366 5
      vertex -7.21649 -3.84366 -5
    endloop
  endfacet
  facet normal 0.860633 -0.509226 0
    outer loop
      vertex -7.08052 -3.61386 -5
      vertex -7.08052 -3.61386 5
      vertex -7.21649 -3.84366 5
    endloop
  endfacet
  facet normal 0.801422 -0.598099 0
    outer loop
      vertex -6.92082 -3.39987 -5
      vertex -7.08052 -3.61386 5
      vertex -7.08052 -3.61386 -5
    endloop
  endfacet
  facet normal 0.801422 -0.598099 0
    outer loop
      vertex -6.92082 -3.39987 -5
      vertex -6.92082 -3.39987 5
      vertex -7.08052 -3.61386 5
    endloop
  endfacet
  facet normal 0.733052 -0.680172 0
    outer loop
      vertex -6.7392 -3.20413 -5
      vertex -6.92082 -3.39987 5
      vertex -6.92082 -3.39987 -5
    endloop
  endfacet
  facet normal 0.733052 -0.680172 0
    outer loop
      vertex -6.7392 -3.20413 -5
      vertex -6.7392 -3.20413 5
      vertex -6.92082 -3.39987 5
    endloop
  endfacet
  facet normal 0.656304 -0.754497 0
    outer loop
      vertex -6.53773 -3.02888 -5
      vertex -6.7392 -3.20413 5
      vertex -6.7392 -3.20413 -5
    endloop
  endfacet
  facet normal 0.656304 -0.754497 0
    outer loop
      vertex -6.53773 -3.02888 -5
      vertex -6.53773 -3.02888 5
      vertex -6.7392 -3.20413 5
    endloop
  endfacet
  facet normal 0.572147 -0.820151 0
    outer loop
      vertex -6.31874 -2.87611 -5
      vertex -6.53773 -3.02888 5
      vertex -6.53773 -3.02888 -5
    endloop
  endfacet
  facet normal 0.572147 -0.820151 0
    outer loop
      vertex -6.31874 -2.87611 -5
      vertex -6.31874 -2.87611 5
      vertex -6.53773 -3.02888 5
    endloop
  endfacet
  facet normal 0.481338 -0.876535 0
    outer loop
      vertex -6.0847 -2.74759 -5
      vertex -6.31874 -2.87611 5
      vertex -6.31874 -2.87611 -5
    endloop
  endfacet
  facet normal 0.481338 -0.876535 0
    outer loop
      vertex -6.0847 -2.74759 -5
      vertex -6.0847 -2.74759 5
      vertex -6.31874 -2.87611 5
    endloop
  endfacet
  facet normal 0.385187 -0.922839 0
    outer loop
      vertex -5.83829 -2.64474 -5
      vertex -6.0847 -2.74759 5
      vertex -6.0847 -2.74759 -5
    endloop
  endfacet
  facet normal 0.385187 -0.922839 0
    outer loop
      vertex -5.83829 -2.64474 -5
      vertex -5.83829 -2.64474 5
      vertex -6.0847 -2.74759 5
    endloop
  endfacet
  facet normal 0.284515 -0.958671 0
    outer loop
      vertex -5.58231 -2.56877 -5
      vertex -5.83829 -2.64474 5
      vertex -5.83829 -2.64474 -5
    endloop
  endfacet
  facet normal 0.284515 -0.958671 0
    outer loop
      vertex -5.58231 -2.56877 -5
      vertex -5.58231 -2.56877 5
      vertex -5.83829 -2.64474 5
    endloop
  endfacet
  facet normal 0.180629 -0.983551 0
    outer loop
      vertex -5.31969 -2.52054 -5
      vertex -5.58231 -2.56877 5
      vertex -5.58231 -2.56877 -5
    endloop
  endfacet
  facet normal 0.180629 -0.983551 0
    outer loop
      vertex -5.31969 -2.52054 -5
      vertex -5.31969 -2.52054 5
      vertex -5.58231 -2.56877 5
    endloop
  endfacet
  facet normal 0.0747518 -0.997202 0
    outer loop
      vertex -5.05342 -2.50058 -5
      vertex -5.31969 -2.52054 5
      vertex -5.31969 -2.52054 -5
    endloop
  endfacet
  facet normal 0.0747518 -0.997202 0
    outer loop
      vertex -5.05342 -2.50058 -5
      vertex -5.05342 -2.50058 5
      vertex -5.31969 -2.52054 5
    endloop
  endfacet
  facet normal -0.0320603 -0.999486 0
    outer loop
      vertex -4.78656 -2.50914 -5
      vertex -5.05342 -2.50058 5
      vertex -5.05342 -2.50058 -5
    endloop
  endfacet
  facet normal -0.0320603 -0.999486 0
    outer loop
      vertex -4.78656 -2.50914 -5
      vertex -4.78656 -2.50914 5
      vertex -5.05342 -2.50058 5
    endloop
  endfacet
  facet normal -0.138453 -0.990369 0
    outer loop
      vertex -4.52211 -2.54611 -5
      vertex -4.78656 -2.50914 5
      vertex -4.78656 -2.50914 -5
    endloop
  endfacet
  facet normal -0.138453 -0.990369 0
    outer loop
      vertex -4.52211 -2.54611 -5
      vertex -4.52211 -2.54611 5
      vertex -4.78656 -2.50914 5
    endloop
  endfacet
  facet normal -0.243285 -0.969955 0
    outer loop
      vertex -4.26312 -2.61107 -5
      vertex -4.52211 -2.54611 5
      vertex -4.52211 -2.54611 -5
    endloop
  endfacet
  facet normal -0.243285 -0.969955 0
    outer loop
      vertex -4.26312 -2.61107 -5
      vertex -4.26312 -2.61107 5
      vertex -4.52211 -2.54611 5
    endloop
  endfacet
  facet normal -0.345367 -0.938468 0
    outer loop
      vertex -4.01253 -2.70329 -5
      vertex -4.26312 -2.61107 5
      vertex -4.26312 -2.61107 -5
    endloop
  endfacet
  facet normal -0.345367 -0.938468 0
    outer loop
      vertex -4.01253 -2.70329 -5
      vertex -4.01253 -2.70329 5
      vertex -4.26312 -2.61107 5
    endloop
  endfacet
  facet normal -0.443525 -0.896262 0
    outer loop
      vertex -3.77321 -2.82172 -5
      vertex -4.01253 -2.70329 5
      vertex -4.01253 -2.70329 -5
    endloop
  endfacet
  facet normal -0.443525 -0.896262 0
    outer loop
      vertex -3.77321 -2.82172 -5
      vertex -3.77321 -2.82172 5
      vertex -4.01253 -2.70329 5
    endloop
  endfacet
  facet normal -0.536524 -0.843885 0
    outer loop
      vertex -3.54788 -2.96498 -5
      vertex -3.77321 -2.82172 5
      vertex -3.77321 -2.82172 -5
    endloop
  endfacet
  facet normal -0.536524 -0.843885 0
    outer loop
      vertex -3.54788 -2.96498 -5
      vertex -3.54788 -2.96498 5
      vertex -3.77321 -2.82172 5
    endloop
  endfacet
  facet normal -0.623484 -0.781836 0
    outer loop
      vertex -3.33913 -3.13145 -5
      vertex -3.54788 -2.96498 5
      vertex -3.54788 -2.96498 -5
    endloop
  endfacet
  facet normal -0.623484 -0.781836 0
    outer loop
      vertex -3.33913 -3.13145 -5
      vertex -3.33913 -3.13145 5
      vertex -3.54788 -2.96498 5
    endloop
  endfacet
  facet normal -0.703333 -0.71086 0
    outer loop
      vertex -3.14931 -3.31926 -5
      vertex -3.33913 -3.13145 5
      vertex -3.33913 -3.13145 -5
    endloop
  endfacet
  facet normal -0.703333 -0.71086 0
    outer loop
      vertex -3.14931 -3.31926 -5
      vertex -3.14931 -3.31926 5
      vertex -3.33913 -3.13145 5
    endloop
  endfacet
  facet normal -0.775129 -0.631803 0
    outer loop
      vertex -2.98061 -3.52623 -5
      vertex -3.14931 -3.31926 5
      vertex -3.14931 -3.31926 -5
    endloop
  endfacet
  facet normal -0.775129 -0.631803 0
    outer loop
      vertex -2.98061 -3.52623 -5
      vertex -2.98061 -3.52623 5
      vertex -3.14931 -3.31926 5
    endloop
  endfacet
  facet normal -0.838085 -0.54554 0
    outer loop
      vertex -2.83495 -3.75 -5
      vertex -2.98061 -3.52623 5
      vertex -2.98061 -3.52623 -5
    endloop
  endfacet
  facet normal -0.838085 -0.54554 0
    outer loop
      vertex -2.83495 -3.75 -5
      vertex -2.83495 -3.75 5
      vertex -2.98061 -3.52623 5
    endloop
  endfacet
  facet normal 0.499998 -0.866026 0
    outer loop
      vertex -0.669876 -2.5 -5
      vertex -2.83495 -3.75 5
      vertex -2.83495 -3.75 -5
    endloop
  endfacet
  facet normal 0.499998 -0.866026 0
    outer loop
      vertex -0.669876 -2.5 -5
      vertex -0.669876 -2.5 5
      vertex -2.83495 -3.75 5
    endloop
  endfacet
  facet normal 0.838082 0.545544 0
    outer loop
      vertex -0.961212 -2.05244 -5
      vertex -0.669876 -2.5 5
      vertex -0.669876 -2.5 -5
    endloop
  endfacet
  facet normal 0.838082 0.545544 -0
    outer loop
      vertex -0.961212 -2.05244 -5
      vertex -0.961212 -2.05244 5
      vertex -0.669876 -2.5 5
    endloop
  endfacet
  facet normal 0.775131 0.631801 0
    outer loop
      vertex -1.29861 -1.6385 -5
      vertex -0.961212 -2.05244 5
      vertex -0.961212 -2.05244 -5
    endloop
  endfacet
  facet normal 0.775131 0.631801 -0
    outer loop
      vertex -1.29861 -1.6385 -5
      vertex -1.29861 -1.6385 5
      vertex -0.961212 -2.05244 5
    endloop
  endfacet
  facet normal 0.703305 0.710888 0
    outer loop
      vertex -1.67825 -1.26291 -5
      vertex -1.29861 -1.6385 5
      vertex -1.29861 -1.6385 -5
    endloop
  endfacet
  facet normal 0.703305 0.710888 -0
    outer loop
      vertex -1.67825 -1.26291 -5
      vertex -1.67825 -1.26291 5
      vertex -1.29861 -1.6385 5
    endloop
  endfacet
  facet normal 0.623501 0.781822 0
    outer loop
      vertex -2.09576 -0.929947 -5
      vertex -1.67825 -1.26291 5
      vertex -1.67825 -1.26291 -5
    endloop
  endfacet
  facet normal 0.623501 0.781822 -0
    outer loop
      vertex -2.09576 -0.929947 -5
      vertex -2.09576 -0.929947 5
      vertex -1.67825 -1.26291 5
    endloop
  endfacet
  facet normal 0.536537 0.843877 0
    outer loop
      vertex -2.54642 -0.643417 -5
      vertex -2.09576 -0.929947 5
      vertex -2.09576 -0.929947 -5
    endloop
  endfacet
  facet normal 0.536537 0.843877 -0
    outer loop
      vertex -2.54642 -0.643417 -5
      vertex -2.54642 -0.643417 5
      vertex -2.09576 -0.929947 5
    endloop
  endfacet
  facet normal 0.443489 0.89628 0
    outer loop
      vertex -3.02505 -0.406586 -5
      vertex -2.54642 -0.643417 5
      vertex -2.54642 -0.643417 -5
    endloop
  endfacet
  facet normal 0.443489 0.89628 -0
    outer loop
      vertex -3.02505 -0.406586 -5
      vertex -3.02505 -0.406586 5
      vertex -2.54642 -0.643417 5
    endloop
  endfacet
  facet normal 0.345382 0.938462 0
    outer loop
      vertex -3.52623 -0.222137 -5
      vertex -3.02505 -0.406586 5
      vertex -3.02505 -0.406586 -5
    endloop
  endfacet
  facet normal 0.345382 0.938462 -0
    outer loop
      vertex -3.52623 -0.222137 -5
      vertex -3.52623 -0.222137 5
      vertex -3.02505 -0.406586 5
    endloop
  endfacet
  facet normal 0.243294 0.969952 0
    outer loop
      vertex -4.04422 -0.0922089 -5
      vertex -3.52623 -0.222137 5
      vertex -3.52623 -0.222137 -5
    endloop
  endfacet
  facet normal 0.243294 0.969952 -0
    outer loop
      vertex -4.04422 -0.0922089 -5
      vertex -4.04422 -0.0922089 5
      vertex -3.52623 -0.222137 5
    endloop
  endfacet
  facet normal 0.138466 0.990367 0
    outer loop
      vertex -4.5731 -0.0182648 -5
      vertex -4.04422 -0.0922089 5
      vertex -4.04422 -0.0922089 -5
    endloop
  endfacet
  facet normal 0.138466 0.990367 -0
    outer loop
      vertex -4.5731 -0.0182648 -5
      vertex -4.5731 -0.0182648 5
      vertex -4.04422 -0.0922089 5
    endloop
  endfacet
  facet normal 0.0320598 0.999486 0
    outer loop
      vertex -5.10684 -0.00114441 -5
      vertex -4.5731 -0.0182648 5
      vertex -4.5731 -0.0182648 -5
    endloop
  endfacet
  facet normal 0.0320598 0.999486 -0
    outer loop
      vertex -5.10684 -0.00114441 -5
      vertex -5.10684 -0.00114441 5
      vertex -4.5731 -0.0182648 5
    endloop
  endfacet
  facet normal -0.0747476 0.997202 0
    outer loop
      vertex -5.63937 -0.0410614 -5
      vertex -5.10684 -0.00114441 5
      vertex -5.10684 -0.00114441 -5
    endloop
  endfacet
  facet normal -0.0747476 0.997202 0
    outer loop
      vertex -5.63937 -0.0410614 -5
      vertex -5.63937 -0.0410614 5
      vertex -5.10684 -0.00114441 5
    endloop
  endfacet
  facet normal -0.180632 0.983551 0
    outer loop
      vertex -6.16463 -0.137527 -5
      vertex -5.63937 -0.0410614 5
      vertex -5.63937 -0.0410614 -5
    endloop
  endfacet
  facet normal -0.180632 0.983551 0
    outer loop
      vertex -6.16463 -0.137527 -5
      vertex -6.16463 -0.137527 5
      vertex -5.63937 -0.0410614 5
    endloop
  endfacet
  facet normal -0.284538 0.958665 0
    outer loop
      vertex -6.67657 -0.289474 -5
      vertex -6.16463 -0.137527 5
      vertex -6.16463 -0.137527 -5
    endloop
  endfacet
  facet normal -0.284538 0.958665 0
    outer loop
      vertex -6.67657 -0.289474 -5
      vertex -6.67657 -0.289474 5
      vertex -6.16463 -0.137527 5
    endloop
  endfacet
  facet normal -0.38515 0.922854 0
    outer loop
      vertex -7.16942 -0.495163 -5
      vertex -6.67657 -0.289474 5
      vertex -6.67657 -0.289474 -5
    endloop
  endfacet
  facet normal -0.38515 0.922854 0
    outer loop
      vertex -7.16942 -0.495163 -5
      vertex -7.16942 -0.495163 5
      vertex -6.67657 -0.289474 5
    endloop
  endfacet
  facet normal -0.481374 0.876515 0
    outer loop
      vertex -7.6375 -0.752228 -5
      vertex -7.16942 -0.495163 5
      vertex -7.16942 -0.495163 -5
    endloop
  endfacet
  facet normal -0.481374 0.876515 0
    outer loop
      vertex -7.6375 -0.752228 -5
      vertex -7.6375 -0.752228 5
      vertex -7.16942 -0.495163 5
    endloop
  endfacet
  facet normal -0.572116 0.820173 0
    outer loop
      vertex -8.07549 -1.05775 -5
      vertex -7.6375 -0.752228 5
      vertex -7.6375 -0.752228 -5
    endloop
  endfacet
  facet normal -0.572116 0.820173 0
    outer loop
      vertex -8.07549 -1.05775 -5
      vertex -8.07549 -1.05775 5
      vertex -7.6375 -0.752228 5
    endloop
  endfacet
  facet normal -0.656333 0.754471 0
    outer loop
      vertex -8.47841 -1.40826 -5
      vertex -8.07549 -1.05775 5
      vertex -8.07549 -1.05775 -5
    endloop
  endfacet
  facet normal -0.656333 0.754471 0
    outer loop
      vertex -8.47841 -1.40826 -5
      vertex -8.47841 -1.40826 5
      vertex -8.07549 -1.05775 5
    endloop
  endfacet
  facet normal -0.733053 0.680172 0
    outer loop
      vertex -8.84164 -1.79973 -5
      vertex -8.47841 -1.40826 5
      vertex -8.47841 -1.40826 -5
    endloop
  endfacet
  facet normal -0.733053 0.680172 0
    outer loop
      vertex -8.84164 -1.79973 -5
      vertex -8.84164 -1.79973 5
      vertex -8.47841 -1.40826 5
    endloop
  endfacet
  facet normal -0.801422 0.598099 0
    outer loop
      vertex -9.16104 -2.22771 -5
      vertex -8.84164 -1.79973 5
      vertex -8.84164 -1.79973 -5
    endloop
  endfacet
  facet normal -0.801422 0.598099 0
    outer loop
      vertex -9.16104 -2.22771 -5
      vertex -9.16104 -2.22771 5
      vertex -8.84164 -1.79973 5
    endloop
  endfacet
  facet normal -0.860637 0.509218 0
    outer loop
      vertex -9.43298 -2.68732 -5
      vertex -9.16104 -2.22771 5
      vertex -9.16104 -2.22771 -5
    endloop
  endfacet
  facet normal -0.860637 0.509218 0
    outer loop
      vertex -9.43298 -2.68732 -5
      vertex -9.43298 -2.68732 5
      vertex -9.16104 -2.22771 5
    endloop
  endfacet
  facet normal -0.910031 0.414541 0
    outer loop
      vertex -9.65436 -3.17331 -5
      vertex -9.43298 -2.68732 5
      vertex -9.43298 -2.68732 -5
    endloop
  endfacet
  facet normal -0.910031 0.414541 0
    outer loop
      vertex -9.65436 -3.17331 -5
      vertex -9.65436 -3.17331 5
      vertex -9.43298 -2.68732 5
    endloop
  endfacet
  facet normal -0.949059 0.315098 0
    outer loop
      vertex -9.82263 -3.68013 -5
      vertex -9.65436 -3.17331 5
      vertex -9.65436 -3.17331 -5
    endloop
  endfacet
  facet normal -0.949059 0.315098 0
    outer loop
      vertex -9.82263 -3.68013 -5
      vertex -9.82263 -3.68013 5
      vertex -9.65436 -3.17331 5
    endloop
  endfacet
  facet normal -0.977247 0.212104 0
    outer loop
      vertex -9.9359 -4.20201 -5
      vertex -9.82263 -3.68013 5
      vertex -9.82263 -3.68013 -5
    endloop
  endfacet
  facet normal -0.977247 0.212104 0
    outer loop
      vertex -9.9359 -4.20201 -5
      vertex -9.9359 -4.20201 5
      vertex -9.82263 -3.68013 5
    endloop
  endfacet
  facet normal -0.994295 0.106661 0
    outer loop
      vertex -9.99286 -4.73299 -5
      vertex -9.9359 -4.20201 5
      vertex -9.9359 -4.20201 -5
    endloop
  endfacet
  facet normal -0.994295 0.106661 0
    outer loop
      vertex -9.99286 -4.73299 -5
      vertex -9.99286 -4.73299 5
      vertex -9.9359 -4.20201 5
    endloop
  endfacet
  facet normal -1 0 0
    outer loop
      vertex -9.99286 -5.26701 -5
      vertex -9.99286 -4.73299 5
      vertex -9.99286 -4.73299 -5
    endloop
  endfacet
  facet normal -1 0 0
    outer loop
      vertex -9.99286 -5.26701 -5
      vertex -9.99286 -5.26701 5
      vertex -9.99286 -4.73299 5
    endloop
  endfacet
  facet normal -0.994295 -0.106661 0
    outer loop
      vertex -9.9359 -5.79799 -5
      vertex -9.99286 -5.26701 5
      vertex -9.99286 -5.26701 -5
    endloop
  endfacet
  facet normal -0.994295 -0.106661 0
    outer loop
      vertex -9.9359 -5.79799 -5
      vertex -9.9359 -5.79799 5
      vertex -9.99286 -5.26701 5
    endloop
  endfacet
  facet normal -0.977247 -0.212104 0
    outer loop
      vertex -9.82263 -6.31987 -5
      vertex -9.9359 -5.79799 5
      vertex -9.9359 -5.79799 -5
    endloop
  endfacet
  facet normal -0.977247 -0.212104 0
    outer loop
      vertex -9.82263 -6.31987 -5
      vertex -9.82263 -6.31987 5
      vertex -9.9359 -5.79799 5
    endloop
  endfacet
  facet normal -0.949059 -0.315098 0
    outer loop
      vertex -9.65436 -6.82669 -5
      vertex -9.82263 -6.31987 5
      vertex -9.82263 -6.31987 -5
    endloop
  endfacet
  facet normal -0.949059 -0.315098 0
    outer loop
      vertex -9.65436 -6.82669 -5
      vertex -9.65436 -6.82669 5
      vertex -9.82263 -6.31987 5
    endloop
  endfacet
  facet normal -0.910031 -0.414541 0
    outer loop
      vertex -9.43298 -7.31268 -5
      vertex -9.65436 -6.82669 5
      vertex -9.65436 -6.82669 -5
    endloop
  endfacet
  facet normal -0.910031 -0.414541 0
    outer loop
      vertex -9.43298 -7.31268 -5
      vertex -9.43298 -7.31268 5
      vertex -9.65436 -6.82669 5
    endloop
  endfacet
  facet normal -0.860637 -0.509218 0
    outer loop
      vertex -9.16104 -7.77229 -5
      vertex -9.43298 -7.31268 5
      vertex -9.43298 -7.31268 -5
    endloop
  endfacet
  facet normal -0.860637 -0.509218 0
    outer loop
      vertex -9.16104 -7.77229 -5
      vertex -9.16104 -7.77229 5
      vertex -9.43298 -7.31268 5
    endloop
  endfacet
  facet normal -0.801422 -0.598099 0
    outer loop
      vertex -8.84164 -8.20027 -5
      vertex -9.16104 -7.77229 5
      vertex -9.16104 -7.77229 -5
    endloop
  endfacet
  facet normal -0.801422 -0.598099 0
    outer loop
      vertex -8.84164 -8.20027 -5
      vertex -8.84164 -8.20027 5
      vertex -9.16104 -7.77229 5
    endloop
  endfacet
  facet normal -0.733053 -0.680172 0
    outer loop
      vertex -8.47841 -8.59174 -5
      vertex -8.84164 -8.20027 5
      vertex -8.84164 -8.20027 -5
    endloop
  endfacet
  facet normal -0.733053 -0.680172 0
    outer loop
      vertex -8.47841 -8.59174 -5
      vertex -8.47841 -8.59174 5
      vertex -8.84164 -8.20027 5
    endloop
  endfacet
  facet normal -0.656333 -0.754471 0
    outer loop
      vertex -8.07549 -8.94225 -5
      vertex -8.47841 -8.59174 5
      vertex -8.47841 -8.59174 -5
    endloop
  endfacet
  facet normal -0.656333 -0.754471 0
    outer loop
      vertex -8.07549 -8.94225 -5
      vertex -8.07549 -8.94225 5
      vertex -8.47841 -8.59174 5
    endloop
  endfacet
  facet normal -0.572113 -0.820175 0
    outer loop
      vertex -7.6375 -9.24777 -5
      vertex -8.07549 -8.94225 5
      vertex -8.07549 -8.94225 -5
    endloop
  endfacet
  facet normal -0.572113 -0.820175 0
    outer loop
      vertex -7.6375 -9.24777 -5
      vertex -7.6375 -9.24777 5
      vertex -8.07549 -8.94225 5
    endloop
  endfacet
  facet normal -0.481381 -0.876511 0
    outer loop
      vertex -7.16942 -9.50484 -5
      vertex -7.6375 -9.24777 5
      vertex -7.6375 -9.24777 -5
    endloop
  endfacet
  facet normal -0.481381 -0.876511 0
    outer loop
      vertex -7.16942 -9.50484 -5
      vertex -7.16942 -9.50484 5
      vertex -7.6375 -9.24777 5
    endloop
  endfacet
  facet normal -0.385151 -0.922854 0
    outer loop
      vertex -6.67657 -9.71053 -5
      vertex -7.16942 -9.50484 5
      vertex -7.16942 -9.50484 -5
    endloop
  endfacet
  facet normal -0.385151 -0.922854 0
    outer loop
      vertex -6.67657 -9.71053 -5
      vertex -6.67657 -9.71053 5
      vertex -7.16942 -9.50484 5
    endloop
  endfacet
  facet normal -0.284526 -0.958668 0
    outer loop
      vertex -6.16463 -9.86247 -5
      vertex -6.67657 -9.71053 5
      vertex -6.67657 -9.71053 -5
    endloop
  endfacet
  facet normal -0.284526 -0.958668 0
    outer loop
      vertex -6.16463 -9.86247 -5
      vertex -6.16463 -9.86247 5
      vertex -6.67657 -9.71053 5
    endloop
  endfacet
  facet normal -0.18064 -0.983549 0
    outer loop
      vertex -5.63937 -9.95894 -5
      vertex -6.16463 -9.86247 5
      vertex -6.16463 -9.86247 -5
    endloop
  endfacet
  facet normal -0.18064 -0.983549 0
    outer loop
      vertex -5.63937 -9.95894 -5
      vertex -5.63937 -9.95894 5
      vertex -6.16463 -9.86247 5
    endloop
  endfacet
  facet normal -0.0747532 -0.997202 0
    outer loop
      vertex -5.10684 -9.99886 -5
      vertex -5.63937 -9.95894 5
      vertex -5.63937 -9.95894 -5
    endloop
  endfacet
  facet normal -0.0747532 -0.997202 0
    outer loop
      vertex -5.10684 -9.99886 -5
      vertex -5.10684 -9.99886 5
      vertex -5.63937 -9.95894 5
    endloop
  endfacet
  facet normal 0.0320591 -0.999486 0
    outer loop
      vertex -4.5731 -9.98174 -5
      vertex -5.10684 -9.99886 5
      vertex -5.10684 -9.99886 -5
    endloop
  endfacet
  facet normal 0.0320591 -0.999486 0
    outer loop
      vertex -4.5731 -9.98174 -5
      vertex -4.5731 -9.98174 5
      vertex -5.10684 -9.99886 5
    endloop
  endfacet
endsolid OpenSCAD_Model
