solid OpenSCAD_Model
  facet normal -0 0 -1
    outer loop
      vertex 2.3205 -1.33975 -5
      vertex 2.01939 -1.47379 -5
      vertex 2.16505 -1.25 -5
    endloop
  endfacet
  facet normal 0 -0 -1
    outer loop
      vertex 2.01939 -1.47379 -5
      vertex 2.3205 -1.33975 -5
      vertex 1.99667 -1.50167 -5
    endloop
  endfacet
  facet normal 0 0 -1
    outer loop
      vertex -2.99576 -3.99788 -5
      vertex -0.0534363 -2.49944 -5
      vertex 0.00486952 -2.49757 -5
    endloop
  endfacet
  facet normal 0 0 -1
    outer loop
      vertex -2.99576 -3.99788 -5
      vertex -0.319702 -2.47948 -5
      vertex -0.0534363 -2.49944 -5
    endloop
  endfacet
  facet normal 0 0 -1
    outer loop
      vertex -2.99576 -3.99788 -5
      vertex -0.582321 -2.43124 -5
      vertex -0.319702 -2.47948 -5
    endloop
  endfacet
  facet normal 0 0 -1
    outer loop
      vertex -2.99576 -3.99788 -5
      vertex -0.838303 -2.35527 -5
      vertex -0.582321 -2.43124 -5
    endloop
  endfacet
  facet normal 0 0 -1
    outer loop
      vertex -2.99576 -3.99788 -5
      vertex -1.08472 -2.25243 -5
      vertex -0.838303 -2.35527 -5
    endloop
  endfacet
  facet normal 0 0 -1
    outer loop
      vertex -2.99576 -3.99788 -5
      vertex -1.31876 -2.1239 -5
      vertex -1.08472 -2.25243 -5
    endloop
  endfacet
  facet normal 0 0 -1
    outer loop
      vertex -2.99576 -3.99788 -5
      vertex -1.53775 -1.97113 -5
      vertex -1.31876 -2.1239 -5
    endloop
  endfacet
  facet normal 0 0 -1
    outer loop
      vertex -3.0755 -3.94226 -5
      vertex -1.53775 -1.97113 -5
      vertex -2.99576 -3.99788 -5
    endloop
  endfacet
  facet normal -0 0 -1
    outer loop
      vertex -1.53775 -1.97113 -5
      vertex -3.0755 -3.94226 -5
      vertex -1.73921 -1.79588 -5
    endloop
  endfacet
  facet normal 0 0 -1
    outer loop
      vertex -3.47842 -3.59175 -5
      vertex -1.73921 -1.79588 -5
      vertex -3.0755 -3.94226 -5
    endloop
  endfacet
  facet normal -0 0 -1
    outer loop
      vertex -1.73921 -1.79588 -5
      vertex -3.47842 -3.59175 -5
      vertex -1.79813 -1.73239 -5
    endloop
  endfacet
  facet normal 0 0 -1
    outer loop
      vertex -3.84166 -3.20029 -5
      vertex -1.79813 -1.73239 -5
      vertex -3.47842 -3.59175 -5
    endloop
  endfacet
  facet normal 0 0 -1
    outer loop
      vertex -1.79813 -1.73239 -5
      vertex -3.84166 -3.20029 -5
      vertex -4.08413 -2.87539 -5
    endloop
  endfacet
  facet normal 0 0 -1
    outer loop
      vertex -0.0534363 2.49942 -5
      vertex -2.99575 3.99788 -5
      vertex 0.00490213 2.49755 -5
    endloop
  endfacet
  facet normal 0 0 -1
    outer loop
      vertex -0.319702 2.47946 -5
      vertex -2.99575 3.99788 -5
      vertex -0.0534363 2.49942 -5
    endloop
  endfacet
  facet normal 0 0 -1
    outer loop
      vertex -0.582321 2.43123 -5
      vertex -2.99575 3.99788 -5
      vertex -0.319702 2.47946 -5
    endloop
  endfacet
  facet normal 0 0 -1
    outer loop
      vertex -0.838303 2.35526 -5
      vertex -2.99575 3.99788 -5
      vertex -0.582321 2.43123 -5
    endloop
  endfacet
  facet normal 0 0 -1
    outer loop
      vertex -1.08472 2.25241 -5
      vertex -2.99575 3.99788 -5
      vertex -0.838303 2.35526 -5
    endloop
  endfacet
  facet normal 0 0 -1
    outer loop
      vertex -1.31876 2.12389 -5
      vertex -2.99575 3.99788 -5
      vertex -1.08472 2.25241 -5
    endloop
  endfacet
  facet normal 0 0 -1
    outer loop
      vertex -1.53775 1.97112 -5
      vertex -2.99575 3.99788 -5
      vertex -1.31876 2.12389 -5
    endloop
  endfacet
  facet normal 0 0 -1
    outer loop
      vertex -3.0755 3.94225 -5
      vertex -1.53775 1.97112 -5
      vertex -1.73921 1.79587 -5
    endloop
  endfacet
  facet normal 0 0 -1
    outer loop
      vertex -3.47842 3.59174 -5
      vertex -1.73921 1.79587 -5
      vertex -1.79811 1.73239 -5
    endloop
  endfacet
  facet normal 0 0 -1
    outer loop
      vertex -1.53775 1.97112 -5
      vertex -3.0755 3.94225 -5
      vertex -2.99575 3.99788 -5
    endloop
  endfacet
  facet normal 0 0 -1
    outer loop
      vertex -1.73921 1.79587 -5
      vertex -3.47842 3.59174 -5
      vertex -3.0755 3.94225 -5
    endloop
  endfacet
  facet normal 0 0 -1
    outer loop
      vertex -1.79811 1.73239 -5
      vertex -3.84166 3.20027 -5
      vertex -3.47842 3.59174 -5
    endloop
  endfacet
  facet normal 0 -0 -1
    outer loop
      vertex -3.84166 3.20027 -5
      vertex -1.79811 1.73239 -5
      vertex -4.08411 2.8754 -5
    endloop
  endfacet
  facet normal 0 0 -1
    outer loop
      vertex 2.01939 1.47377 -5
      vertex 2.3205 1.33975 -5
      vertex 2.16505 1.25 -5
    endloop
  endfacet
  facet normal 0 0 -1
    outer loop
      vertex 2.3205 1.33975 -5
      vertex 2.01939 1.47377 -5
      vertex 1.99665 1.50168 -5
    endloop
  endfacet
  facet normal 0 0 1
    outer loop
      vertex 2.01939 -1.47379 5
      vertex 2.3205 -1.33975 5
      vertex 2.16505 -1.25 5
    endloop
  endfacet
  facet normal 0 0 1
    outer loop
      vertex 2.3205 -1.33975 5
      vertex 2.01939 -1.47379 5
      vertex 1.99667 -1.50167 5
    endloop
  endfacet
  facet normal -0 0 1
    outer loop
      vertex -0.0534363 -2.49944 5
      vertex -2.99576 -3.99788 5
      vertex 0.00486952 -2.49757 5
    endloop
  endfacet
  facet normal 0 0 1
    outer loop
      vertex -0.319702 -2.47948 5
      vertex -2.99576 -3.99788 5
      vertex -0.0534363 -2.49944 5
    endloop
  endfacet
  facet normal 0 0 1
    outer loop
      vertex -0.582321 -2.43124 5
      vertex -2.99576 -3.99788 5
      vertex -0.319702 -2.47948 5
    endloop
  endfacet
  facet normal 0 0 1
    outer loop
      vertex -0.838303 -2.35527 5
      vertex -2.99576 -3.99788 5
      vertex -0.582321 -2.43124 5
    endloop
  endfacet
  facet normal 0 0 1
    outer loop
      vertex -1.08472 -2.25243 5
      vertex -2.99576 -3.99788 5
      vertex -0.838303 -2.35527 5
    endloop
  endfacet
  facet normal 0 0 1
    outer loop
      vertex -1.31876 -2.1239 5
      vertex -2.99576 -3.99788 5
      vertex -1.08472 -2.25243 5
    endloop
  endfacet
  facet normal 0 0 1
    outer loop
      vertex -1.53775 -1.97113 5
      vertex -2.99576 -3.99788 5
      vertex -1.31876 -2.1239 5
    endloop
  endfacet
  facet normal 0 0 1
    outer loop
      vertex -3.0755 -3.94226 5
      vertex -1.53775 -1.97113 5
      vertex -1.73921 -1.79588 5
    endloop
  endfacet
  facet normal 0 0 1
    outer loop
      vertex -3.47842 -3.59175 5
      vertex -1.73921 -1.79588 5
      vertex -1.79813 -1.73239 5
    endloop
  endfacet
  facet normal 0 0 1
    outer loop
      vertex -1.53775 -1.97113 5
      vertex -3.0755 -3.94226 5
      vertex -2.99576 -3.99788 5
    endloop
  endfacet
  facet normal 0 0 1
    outer loop
      vertex -1.73921 -1.79588 5
      vertex -3.47842 -3.59175 5
      vertex -3.0755 -3.94226 5
    endloop
  endfacet
  facet normal 0 0 1
    outer loop
      vertex -1.79813 -1.73239 5
      vertex -3.84166 -3.20029 5
      vertex -3.47842 -3.59175 5
    endloop
  endfacet
  facet normal 0 -0 1
    outer loop
      vertex -3.84166 -3.20029 5
      vertex -1.79813 -1.73239 5
      vertex -4.08413 -2.87539 5
    endloop
  endfacet
  facet normal 0 0 1
    outer loop
      vertex -2.99575 3.99788 5
      vertex -0.0534363 2.49942 5
      vertex 0.00490213 2.49755 5
    endloop
  endfacet
  facet normal 0 0 1
    outer loop
      vertex -2.99575 3.99788 5
      vertex -0.319702 2.47946 5
      vertex -0.0534363 2.49942 5
    endloop
  endfacet
  facet normal 0 0 1
    outer loop
      vertex -2.99575 3.99788 5
      vertex -0.582321 2.43123 5
      vertex -0.319702 2.47946 5
    endloop
  endfacet
  facet normal 0 0 1
    outer loop
      vertex -2.99575 3.99788 5
      vertex -0.838303 2.35526 5
      vertex -0.582321 2.43123 5
    endloop
  endfacet
  facet normal 0 0 1
    outer loop
      vertex -2.99575 3.99788 5
      vertex -1.08472 2.25241 5
      vertex -0.838303 2.35526 5
    endloop
  endfacet
  facet normal 0 0 1
    outer loop
      vertex -2.99575 3.99788 5
      vertex -1.31876 2.12389 5
      vertex -1.08472 2.25241 5
    endloop
  endfacet
  facet normal 0 0 1
    outer loop
      vertex -2.99575 3.99788 5
      vertex -1.53775 1.97112 5
      vertex -1.31876 2.12389 5
    endloop
  endfacet
  facet normal -0 0 1
    outer loop
      vertex -3.0755 3.94225 5
      vertex -1.53775 1.97112 5
      vertex -2.99575 3.99788 5
    endloop
  endfacet
  facet normal 0 0 1
    outer loop
      vertex -1.53775 1.97112 5
      vertex -3.0755 3.94225 5
      vertex -1.73921 1.79587 5
    endloop
  endfacet
  facet normal -0 0 1
    outer loop
      vertex -3.47842 3.59174 5
      vertex -1.73921 1.79587 5
      vertex -3.0755 3.94225 5
    endloop
  endfacet
  facet normal 0 0 1
    outer loop
      vertex -1.73921 1.79587 5
      vertex -3.47842 3.59174 5
      vertex -1.79811 1.73239 5
    endloop
  endfacet
  facet normal -0 0 1
    outer loop
      vertex -3.84166 3.20027 5
      vertex -1.79811 1.73239 5
      vertex -3.47842 3.59174 5
    endloop
  endfacet
  facet normal 0 0 1
    outer loop
      vertex -1.79811 1.73239 5
      vertex -3.84166 3.20027 5
      vertex -4.08411 2.8754 5
    endloop
  endfacet
  facet normal 0 0 1
    outer loop
      vertex 2.3205 1.33975 5
      vertex 2.01939 1.47377 5
      vertex 2.16505 1.25 5
    endloop
  endfacet
  facet normal -0 -0 1
    outer loop
      vertex 2.01939 1.47377 5
      vertex 2.3205 1.33975 5
      vertex 1.99665 1.50168 5
    endloop
  endfacet
  facet normal 0.500004 0.866023 -0
    outer loop
      vertex 2.3205 -1.33975 -5
      vertex 2.16505 -1.25 5
      vertex 2.3205 -1.33975 5
    endloop
  endfacet
  facet normal 0.500004 0.866023 0
    outer loop
      vertex 2.16505 -1.25 5
      vertex 2.3205 -1.33975 -5
      vertex 2.16505 -1.25 -5
    endloop
  endfacet
  facet normal -0.838107 0.545506 0
    outer loop
      vertex 2.01939 -1.47379 -5
      vertex 2.16505 -1.25 5
      vertex 2.16505 -1.25 -5
    endloop
  endfacet
  facet normal -0.838107 0.545506 0
    outer loop
      vertex 2.16505 -1.25 5
      vertex 2.01939 -1.47379 -5
      vertex 2.01939 -1.47379 5
    endloop
  endfacet
  facet normal -0.775195 0.631722 0
    outer loop
      vertex 1.99667 -1.50167 -5
      vertex 2.01939 -1.47379 5
      vertex 2.01939 -1.47379 -5
    endloop
  endfacet
  facet normal -0.775195 0.631722 0
    outer loop
      vertex 2.01939 -1.47379 5
      vertex 1.99667 -1.50167 -5
      vertex 1.99667 -1.50167 5
    endloop
  endfacet
  facet normal -0.0320558 0.999486 0
    outer loop
      vertex 0.00486952 -2.49757 -5
      vertex -0.0534363 -2.49944 5
      vertex 0.00486952 -2.49757 5
    endloop
  endfacet
  facet normal -0.0320558 0.999486 0
    outer loop
      vertex -0.0534363 -2.49944 5
      vertex 0.00486952 -2.49757 -5
      vertex -0.0534363 -2.49944 -5
    endloop
  endfacet
  facet normal 0.074753 0.997202 -0
    outer loop
      vertex -0.0534363 -2.49944 -5
      vertex -0.319702 -2.47948 5
      vertex -0.0534363 -2.49944 5
    endloop
  endfacet
  facet normal 0.074753 0.997202 0
    outer loop
      vertex -0.319702 -2.47948 5
      vertex -0.0534363 -2.49944 -5
      vertex -0.319702 -2.47948 -5
    endloop
  endfacet
  facet normal 0.180665 0.983545 -0
    outer loop
      vertex -0.319702 -2.47948 -5
      vertex -0.582321 -2.43124 5
      vertex -0.319702 -2.47948 5
    endloop
  endfacet
  facet normal 0.180665 0.983545 0
    outer loop
      vertex -0.582321 -2.43124 5
      vertex -0.319702 -2.47948 -5
      vertex -0.582321 -2.43124 -5
    endloop
  endfacet
  facet normal 0.284513 0.958672 -0
    outer loop
      vertex -0.582321 -2.43124 -5
      vertex -0.838303 -2.35527 5
      vertex -0.582321 -2.43124 5
    endloop
  endfacet
  facet normal 0.284513 0.958672 0
    outer loop
      vertex -0.838303 -2.35527 5
      vertex -0.582321 -2.43124 -5
      vertex -0.838303 -2.35527 -5
    endloop
  endfacet
  facet normal 0.385146 0.922856 -0
    outer loop
      vertex -0.838303 -2.35527 -5
      vertex -1.08472 -2.25243 5
      vertex -0.838303 -2.35527 5
    endloop
  endfacet
  facet normal 0.385146 0.922856 0
    outer loop
      vertex -1.08472 -2.25243 5
      vertex -0.838303 -2.35527 -5
      vertex -1.08472 -2.25243 -5
    endloop
  endfacet
  facet normal 0.481367 0.876519 -0
    outer loop
      vertex -1.08472 -2.25243 -5
      vertex -1.31876 -2.1239 5
      vertex -1.08472 -2.25243 5
    endloop
  endfacet
  facet normal 0.481367 0.876519 0
    outer loop
      vertex -1.31876 -2.1239 5
      vertex -1.08472 -2.25243 -5
      vertex -1.31876 -2.1239 -5
    endloop
  endfacet
  facet normal 0.572147 0.820151 -0
    outer loop
      vertex -1.31876 -2.1239 -5
      vertex -1.53775 -1.97113 5
      vertex -1.31876 -2.1239 5
    endloop
  endfacet
  facet normal 0.572147 0.820151 0
    outer loop
      vertex -1.53775 -1.97113 5
      vertex -1.31876 -2.1239 -5
      vertex -1.53775 -1.97113 -5
    endloop
  endfacet
  facet normal 0.656322 0.754481 -0
    outer loop
      vertex -1.53775 -1.97113 -5
      vertex -1.73921 -1.79588 5
      vertex -1.53775 -1.97113 5
    endloop
  endfacet
  facet normal 0.656322 0.754481 0
    outer loop
      vertex -1.73921 -1.79588 5
      vertex -1.53775 -1.97113 -5
      vertex -1.73921 -1.79588 -5
    endloop
  endfacet
  facet normal 0.732995 0.680234 0
    outer loop
      vertex -1.73921 -1.79588 5
      vertex -1.79813 -1.73239 -5
      vertex -1.79813 -1.73239 5
    endloop
  endfacet
  facet normal 0.732995 0.680234 0
    outer loop
      vertex -1.79813 -1.73239 -5
      vertex -1.73921 -1.79588 5
      vertex -1.73921 -1.79588 -5
    endloop
  endfacet
  facet normal 0.733057 -0.680168 0
    outer loop
      vertex -1.79811 1.73239 5
      vertex -1.73921 1.79587 -5
      vertex -1.73921 1.79587 5
    endloop
  endfacet
  facet normal 0.733057 -0.680168 0
    outer loop
      vertex -1.73921 1.79587 -5
      vertex -1.79811 1.73239 5
      vertex -1.79811 1.73239 -5
    endloop
  endfacet
  facet normal 0.656322 -0.754481 0
    outer loop
      vertex -1.73921 1.79587 -5
      vertex -1.53775 1.97112 5
      vertex -1.73921 1.79587 5
    endloop
  endfacet
  facet normal 0.656322 -0.754481 0
    outer loop
      vertex -1.53775 1.97112 5
      vertex -1.73921 1.79587 -5
      vertex -1.53775 1.97112 -5
    endloop
  endfacet
  facet normal 0.572147 -0.820151 0
    outer loop
      vertex -1.53775 1.97112 -5
      vertex -1.31876 2.12389 5
      vertex -1.53775 1.97112 5
    endloop
  endfacet
  facet normal 0.572147 -0.820151 0
    outer loop
      vertex -1.31876 2.12389 5
      vertex -1.53775 1.97112 -5
      vertex -1.31876 2.12389 -5
    endloop
  endfacet
  facet normal 0.481338 -0.876535 0
    outer loop
      vertex -1.31876 2.12389 -5
      vertex -1.08472 2.25241 5
      vertex -1.31876 2.12389 5
    endloop
  endfacet
  facet normal 0.481338 -0.876535 0
    outer loop
      vertex -1.08472 2.25241 5
      vertex -1.31876 2.12389 -5
      vertex -1.08472 2.25241 -5
    endloop
  endfacet
  facet normal 0.385178 -0.922842 0
    outer loop
      vertex -1.08472 2.25241 -5
      vertex -0.838303 2.35526 5
      vertex -1.08472 2.25241 5
    endloop
  endfacet
  facet normal 0.385178 -0.922842 0
    outer loop
      vertex -0.838303 2.35526 5
      vertex -1.08472 2.25241 -5
      vertex -0.838303 2.35526 -5
    endloop
  endfacet
  facet normal 0.284513 -0.958672 0
    outer loop
      vertex -0.838303 2.35526 -5
      vertex -0.582321 2.43123 5
      vertex -0.838303 2.35526 5
    endloop
  endfacet
  facet normal 0.284513 -0.958672 0
    outer loop
      vertex -0.582321 2.43123 5
      vertex -0.838303 2.35526 -5
      vertex -0.582321 2.43123 -5
    endloop
  endfacet
  facet normal 0.180629 -0.983551 0
    outer loop
      vertex -0.582321 2.43123 -5
      vertex -0.319702 2.47946 5
      vertex -0.582321 2.43123 5
    endloop
  endfacet
  facet normal 0.180629 -0.983551 0
    outer loop
      vertex -0.319702 2.47946 5
      vertex -0.582321 2.43123 -5
      vertex -0.319702 2.47946 -5
    endloop
  endfacet
  facet normal 0.074753 -0.997202 0
    outer loop
      vertex -0.319702 2.47946 -5
      vertex -0.0534363 2.49942 5
      vertex -0.319702 2.47946 5
    endloop
  endfacet
  facet normal 0.074753 -0.997202 0
    outer loop
      vertex -0.0534363 2.49942 5
      vertex -0.319702 2.47946 -5
      vertex -0.0534363 2.49942 -5
    endloop
  endfacet
  facet normal -0.0320379 -0.999487 0
    outer loop
      vertex -0.0534363 2.49942 -5
      vertex 0.00490213 2.49755 5
      vertex -0.0534363 2.49942 5
    endloop
  endfacet
  facet normal -0.0320379 -0.999487 -0
    outer loop
      vertex 0.00490213 2.49755 5
      vertex -0.0534363 2.49942 -5
      vertex 0.00490213 2.49755 -5
    endloop
  endfacet
  facet normal -0.775255 -0.631648 0
    outer loop
      vertex 2.01939 1.47377 -5
      vertex 1.99665 1.50168 5
      vertex 1.99665 1.50168 -5
    endloop
  endfacet
  facet normal -0.775255 -0.631648 0
    outer loop
      vertex 1.99665 1.50168 5
      vertex 2.01939 1.47377 -5
      vertex 2.01939 1.47377 5
    endloop
  endfacet
  facet normal -0.838085 -0.54554 0
    outer loop
      vertex 2.16505 1.25 -5
      vertex 2.01939 1.47377 5
      vertex 2.01939 1.47377 -5
    endloop
  endfacet
  facet normal -0.838085 -0.54554 0
    outer loop
      vertex 2.01939 1.47377 5
      vertex 2.16505 1.25 -5
      vertex 2.16505 1.25 5
    endloop
  endfacet
  facet normal 0.500004 -0.866023 0
    outer loop
      vertex 2.16505 1.25 -5
      vertex 2.3205 1.33975 5
      vertex 2.16505 1.25 5
    endloop
  endfacet
  facet normal 0.500004 -0.866023 0
    outer loop
      vertex 2.3205 1.33975 5
      vertex 2.16505 1.25 -5
      vertex 2.3205 1.33975 -5
    endloop
  endfacet
  facet normal -0.572116 0.820173 0
    outer loop
      vertex -2.99575 3.99788 -5
      vertex -3.0755 3.94225 5
      vertex -2.99575 3.99788 5
    endloop
  endfacet
  facet normal -0.572116 0.820173 0
    outer loop
      vertex -3.0755 3.94225 5
      vertex -2.99575 3.99788 -5
      vertex -3.0755 3.94225 -5
    endloop
  endfacet
  facet normal -0.656333 0.754471 0
    outer loop
      vertex -3.0755 3.94225 -5
      vertex -3.47842 3.59174 5
      vertex -3.0755 3.94225 5
    endloop
  endfacet
  facet normal -0.656333 0.754471 0
    outer loop
      vertex -3.47842 3.59174 5
      vertex -3.0755 3.94225 -5
      vertex -3.47842 3.59174 -5
    endloop
  endfacet
  facet normal -0.733044 0.680182 0
    outer loop
      vertex -3.84166 3.20027 -5
      vertex -3.47842 3.59174 5
      vertex -3.47842 3.59174 -5
    endloop
  endfacet
  facet normal -0.733044 0.680182 0
    outer loop
      vertex -3.47842 3.59174 5
      vertex -3.84166 3.20027 -5
      vertex -3.84166 3.20027 5
    endloop
  endfacet
  facet normal -0.801422 0.5981 0
    outer loop
      vertex -4.08411 2.8754 -5
      vertex -3.84166 3.20027 5
      vertex -3.84166 3.20027 -5
    endloop
  endfacet
  facet normal -0.801422 0.5981 0
    outer loop
      vertex -3.84166 3.20027 5
      vertex -4.08411 2.8754 -5
      vertex -4.08411 2.8754 5
    endloop
  endfacet
  facet normal -0.801424 -0.598096 0
    outer loop
      vertex -3.84166 -3.20029 -5
      vertex -4.08413 -2.87539 5
      vertex -4.08413 -2.87539 -5
    endloop
  endfacet
  facet normal -0.801424 -0.598096 0
    outer loop
      vertex -4.08413 -2.87539 5
      vertex -3.84166 -3.20029 -5
      vertex -3.84166 -3.20029 5
    endloop
  endfacet
  facet normal -0.733035 -0.680191 0
    outer loop
      vertex -3.47842 -3.59175 -5
      vertex -3.84166 -3.20029 5
      vertex -3.84166 -3.20029 -5
    endloop
  endfacet
  facet normal -0.733035 -0.680191 0
    outer loop
      vertex -3.84166 -3.20029 5
      vertex -3.47842 -3.59175 -5
      vertex -3.47842 -3.59175 5
    endloop
  endfacet
  facet normal -0.656333 -0.754471 0
    outer loop
      vertex -3.47842 -3.59175 -5
      vertex -3.0755 -3.94226 5
      vertex -3.47842 -3.59175 5
    endloop
  endfacet
  facet normal -0.656333 -0.754471 -0
    outer loop
      vertex -3.0755 -3.94226 5
      vertex -3.47842 -3.59175 -5
      vertex -3.0755 -3.94226 -5
    endloop
  endfacet
  facet normal -0.572095 -0.820188 0
    outer loop
      vertex -3.0755 -3.94226 -5
      vertex -2.99576 -3.99788 5
      vertex -3.0755 -3.94226 5
    endloop
  endfacet
  facet normal -0.572095 -0.820188 -0
    outer loop
      vertex -2.99576 -3.99788 5
      vertex -3.0755 -3.94226 -5
      vertex -2.99576 -3.99788 -5
    endloop
  endfacet
  facet normal -0.447214 0.894427 0
    outer loop
      vertex -1.79813 -1.73239 -5
      vertex -4.08413 -2.87539 5
      vertex -1.79813 -1.73239 5
    endloop
  endfacet
  facet normal -0.447214 0.894427 0
    outer loop
      vertex -4.08413 -2.87539 5
      vertex -1.79813 -1.73239 -5
      vertex -4.08413 -2.87539 -5
    endloop
  endfacet
  facet normal 0.447212 -0.894428 0
    outer loop
      vertex -2.99576 -3.99788 -5
      vertex 0.00486952 -2.49757 5
      vertex -2.99576 -3.99788 5
    endloop
  endfacet
  facet normal 0.447212 -0.894428 0
    outer loop
      vertex 0.00486952 -2.49757 5
      vertex -2.99576 -3.99788 -5
      vertex 0.00486952 -2.49757 -5
    endloop
  endfacet
  facet normal 0.447225 -0.894422 0
    outer loop
      vertex 1.99667 -1.50167 -5
      vertex 2.3205 -1.33975 5
      vertex 1.99667 -1.50167 5
    endloop
  endfacet
  facet normal 0.447225 -0.894422 0
    outer loop
      vertex 2.3205 -1.33975 5
      vertex 1.99667 -1.50167 -5
      vertex 2.3205 -1.33975 -5
    endloop
  endfacet
  facet normal 0.447215 0.894427 -0
    outer loop
      vertex 0.00490213 2.49755 -5
      vertex -2.99575 3.99788 5
      vertex 0.00490213 2.49755 5
    endloop
  endfacet
  facet normal 0.447215 0.894427 0
    outer loop
      vertex -2.99575 3.99788 5
      vertex 0.00490213 2.49755 -5
      vertex -2.99575 3.99788 -5
    endloop
  endfacet
  facet normal 0.447225 0.894422 -0
    outer loop
      vertex 2.3205 1.33975 -5
      vertex 1.99665 1.50168 5
      vertex 2.3205 1.33975 5
    endloop
  endfacet
  facet normal 0.447225 0.894422 0
    outer loop
      vertex 1.99665 1.50168 5
      vertex 2.3205 1.33975 -5
      vertex 1.99665 1.50168 -5
    endloop
  endfacet
  facet normal -0.447217 -0.894426 0
    outer loop
      vertex -4.08411 2.8754 -5
      vertex -1.79811 1.73239 5
      vertex -4.08411 2.8754 5
    endloop
  endfacet
  facet normal -0.447217 -0.894426 -0
    outer loop
      vertex -1.79811 1.73239 5
      vertex -4.08411 2.8754 -5
      vertex -1.79811 1.73239 -5
    endloop
  endfacet
endsolid OpenSCAD_Model
