solid OpenSCAD_Model
  facet normal -1 0 0
    outer loop
      vertex -5 -2.50914 4.78656
      vertex -5 -0.0182648 4.5731
      vertex -5 -0.0922089 4.04422
    endloop
  endfacet
  facet normal -1 0 0
    outer loop
      vertex -5 -2.54611 4.52211
      vertex -5 -0.0922089 4.04422
      vertex -5 -0.222137 3.52623
    endloop
  endfacet
  facet normal -1 0 0
    outer loop
      vertex -5 -2.61107 4.26312
      vertex -5 -0.222137 3.52623
      vertex -5 -0.406586 3.02505
    endloop
  endfacet
  facet normal -1 0 0
    outer loop
      vertex -5 -2.70329 4.01253
      vertex -5 -0.406586 3.02505
      vertex -5 -0.643417 2.54642
    endloop
  endfacet
  facet normal -1 0 0
    outer loop
      vertex -5 -2.82172 3.77321
      vertex -5 -0.643417 2.54642
      vertex -5 -0.929947 2.09576
    endloop
  endfacet
  facet normal -1 0 0
    outer loop
      vertex -5 -2.96498 3.54788
      vertex -5 -0.929947 2.09576
      vertex -5 -1.26291 1.67825
    endloop
  endfacet
  facet normal -1 0 0
    outer loop
      vertex -5 -3.13145 3.33913
      vertex -5 -1.26291 1.67825
      vertex -5 -1.6385 1.29861
    endloop
  endfacet
  facet normal -1 0 0
    outer loop
      vertex -5 -3.31926 3.14931
      vertex -5 -1.6385 1.29861
      vertex -5 -2.05244 0.961212
    endloop
  endfacet
  facet normal -1 0 0
    outer loop
      vertex -5 -3.52623 2.98061
      vertex -5 -2.05244 0.961212
      vertex -5 -2.5 0.669876
    endloop
  endfacet
  facet normal -1 0 0
    outer loop
      vertex -5 -0.643417 2.54642
      vertex -5 -2.82172 3.77321
      vertex -5 -2.70329 4.01253
    endloop
  endfacet
  facet normal -1 -0 0
    outer loop
      vertex -5 -0.00457152 5
      vertex -5 -2.50914 4.78656
      vertex -5 -2.50229 5
    endloop
  endfacet
  facet normal -1 0 0
    outer loop
      vertex -5 -0.0182648 4.5731
      vertex -5 -2.50914 4.78656
      vertex -5 -0.00457152 5
    endloop
  endfacet
  facet normal -1 0 -0
    outer loop
      vertex -5 -2.50914 4.78656
      vertex -5 -0.0922089 4.04422
      vertex -5 -2.54611 4.52211
    endloop
  endfacet
  facet normal -1 0 0
    outer loop
      vertex -5 -0.222137 3.52623
      vertex -5 -2.61107 4.26312
      vertex -5 -2.54611 4.52211
    endloop
  endfacet
  facet normal -1 0 0
    outer loop
      vertex -5 -0.406586 3.02505
      vertex -5 -2.70329 4.01253
      vertex -5 -2.61107 4.26312
    endloop
  endfacet
  facet normal -1 0 0
    outer loop
      vertex -5 -0.929947 2.09576
      vertex -5 -2.96498 3.54788
      vertex -5 -2.82172 3.77321
    endloop
  endfacet
  facet normal -1 0 0
    outer loop
      vertex -5 -1.26291 1.67825
      vertex -5 -3.13145 3.33913
      vertex -5 -2.96498 3.54788
    endloop
  endfacet
  facet normal -1 0 0
    outer loop
      vertex -5 -1.6385 1.29861
      vertex -5 -3.31926 3.14931
      vertex -5 -3.13145 3.33913
    endloop
  endfacet
  facet normal -1 0 0
    outer loop
      vertex -5 -2.05244 0.961212
      vertex -5 -3.52623 2.98061
      vertex -5 -3.31926 3.14931
    endloop
  endfacet
  facet normal -1 0 -0
    outer loop
      vertex -5 -3.52623 2.98061
      vertex -5 -2.5 0.669876
      vertex -5 -3.75 2.83495
    endloop
  endfacet
  facet normal 0 -0.999485 0.0320768
    outer loop
      vertex 4.32235 -2.50914 4.78656
      vertex -5 -2.50229 5
      vertex -5 -2.50914 4.78656
    endloop
  endfacet
  facet normal 0 -0.999485 0.0320768
    outer loop
      vertex -5 -2.50229 5
      vertex 4.32235 -2.50914 4.78656
      vertex 4.32621 -2.50229 5
    endloop
  endfacet
  facet normal 0 -0.990369 0.138453
    outer loop
      vertex 4.30153 -2.54611 4.52211
      vertex -5 -2.50914 4.78656
      vertex -5 -2.54611 4.52211
    endloop
  endfacet
  facet normal 0 -0.990369 0.138453
    outer loop
      vertex -5 -2.50914 4.78656
      vertex 4.30153 -2.54611 4.52211
      vertex 4.32235 -2.50914 4.78656
    endloop
  endfacet
  facet normal 0 -0.969961 0.24326
    outer loop
      vertex -5 -2.54611 4.52211
      vertex 4.27571 -2.59196 4.33929
      vertex 4.30153 -2.54611 4.52211
    endloop
  endfacet
  facet normal 0 -0.969955 0.243285
    outer loop
      vertex 4.26328 -2.61107 4.26312
      vertex -5 -2.54611 4.52211
      vertex -5 -2.61107 4.26312
    endloop
  endfacet
  facet normal 1.77306e-06 -0.96994 0.243344
    outer loop
      vertex -5 -2.54611 4.52211
      vertex 4.26328 -2.61107 4.26312
      vertex 4.27571 -2.59196 4.33929
    endloop
  endfacet
  facet normal 0 -0.938468 0.345367
    outer loop
      vertex 4.20325 -2.70329 4.01253
      vertex -5 -2.61107 4.26312
      vertex -5 -2.70329 4.01253
    endloop
  endfacet
  facet normal 0 -0.938468 0.345367
    outer loop
      vertex -5 -2.61107 4.26312
      vertex 4.20325 -2.70329 4.01253
      vertex 4.26328 -2.61107 4.26312
    endloop
  endfacet
  facet normal 0 -0.896262 0.443525
    outer loop
      vertex 4.12617 -2.82172 3.77321
      vertex -5 -2.70329 4.01253
      vertex -5 -2.82172 3.77321
    endloop
  endfacet
  facet normal 0 -0.896262 0.443525
    outer loop
      vertex -5 -2.70329 4.01253
      vertex 4.12617 -2.82172 3.77321
      vertex 4.20325 -2.70329 4.01253
    endloop
  endfacet
  facet normal 0 -0.843885 0.536524
    outer loop
      vertex 4.02295 -2.96498 3.54788
      vertex 4.12617 -2.82172 3.77321
      vertex -5 -2.82172 3.77321
    endloop
  endfacet
  facet normal 0 -0.843885 0.536524
    outer loop
      vertex 4.02295 -2.96498 3.54788
      vertex -5 -2.82172 3.77321
      vertex -5 -2.96498 3.54788
    endloop
  endfacet
  facet normal -0.00066718 -0.843746 0.536742
    outer loop
      vertex 4.12617 -2.82172 3.77321
      vertex 4.02295 -2.96498 3.54788
      vertex 4.10086 -2.8606 3.71206
    endloop
  endfacet
  facet normal 0 -0.781836 0.623484
    outer loop
      vertex 3.89724 -3.13145 3.33913
      vertex 4.02295 -2.96498 3.54788
      vertex -5 -2.96498 3.54788
    endloop
  endfacet
  facet normal 0 -0.781836 0.623484
    outer loop
      vertex 3.89724 -3.13145 3.33913
      vertex -5 -2.96498 3.54788
      vertex -5 -3.13145 3.33913
    endloop
  endfacet
  facet normal 0.00147047 -0.782267 0.622942
    outer loop
      vertex 4.02295 -2.96498 3.54788
      vertex 3.89724 -3.13145 3.33913
      vertex 3.90915 -3.11746 3.35667
    endloop
  endfacet
  facet normal 0 -0.71086 0.703333
    outer loop
      vertex 3.73735 -3.31926 3.14931
      vertex -5 -3.13145 3.33913
      vertex -5 -3.31926 3.14931
    endloop
  endfacet
  facet normal 0 -0.71086 0.703333
    outer loop
      vertex -5 -3.13145 3.33913
      vertex 3.73735 -3.31926 3.14931
      vertex 3.89724 -3.13145 3.33913
    endloop
  endfacet
  facet normal 0.000447604 -0.632057 0.774922
    outer loop
      vertex 3.73735 -3.31926 3.14931
      vertex 3.54186 -3.52623 2.98061
      vertex 3.70139 -3.36151 3.11487
    endloop
  endfacet
  facet normal 0 -0.631803 0.775129
    outer loop
      vertex -5 -3.31926 3.14931
      vertex 3.54186 -3.52623 2.98061
      vertex 3.73735 -3.31926 3.14931
    endloop
  endfacet
  facet normal 0 -0.631803 0.775129
    outer loop
      vertex 3.54186 -3.52623 2.98061
      vertex -5 -3.31926 3.14931
      vertex -5 -3.52623 2.98061
    endloop
  endfacet
  facet normal 8.97185e-05 -0.545607 0.838041
    outer loop
      vertex 3.54186 -3.52623 2.98061
      vertex 3.30416 -3.75 2.83495
      vertex 3.47841 -3.59175 2.93796
    endloop
  endfacet
  facet normal 0 -0.54554 0.838085
    outer loop
      vertex -5 -3.52623 2.98061
      vertex 3.30416 -3.75 2.83495
      vertex 3.54186 -3.52623 2.98061
    endloop
  endfacet
  facet normal 0 -0.54554 0.838085
    outer loop
      vertex 3.30416 -3.75 2.83495
      vertex -5 -3.52623 2.98061
      vertex -5 -3.75 2.83495
    endloop
  endfacet
  facet normal 0 -0.866026 -0.499998
    outer loop
      vertex -5 -2.5 0.669876
      vertex 3.30416 -3.75 2.83495
      vertex -5 -3.75 2.83495
    endloop
  endfacet
  facet normal -6.65652e-07 -0.866028 -0.499996
    outer loop
      vertex 3.30416 -3.75 2.83495
      vertex -5 -2.5 0.669876
      vertex 3.47841 -3.59175 2.56085
    endloop
  endfacet
  facet normal -2.57056e-07 -0.866027 -0.499998
    outer loop
      vertex 3.47841 -3.59175 2.56085
      vertex -5 -2.5 0.669876
      vertex 3.70139 -3.36151 2.16206
    endloop
  endfacet
  facet normal -3.01163e-07 -0.866027 -0.499997
    outer loop
      vertex 3.70139 -3.36151 2.16206
      vertex -5 -2.5 0.669876
      vertex 3.90915 -3.11746 1.73935
    endloop
  endfacet
  facet normal -5.94641e-07 -0.866028 -0.499996
    outer loop
      vertex 3.90915 -3.11746 1.73935
      vertex -5 -2.5 0.669876
      vertex 4.10086 -2.8606 1.29445
    endloop
  endfacet
  facet normal 6.83404e-07 -0.86602 -0.50001
    outer loop
      vertex 4.10086 -2.8606 1.29445
      vertex -5 -2.5 0.669876
      vertex 4.27571 -2.59196 0.829164
    endloop
  endfacet
  facet normal 0 -0.866037 -0.49998
    outer loop
      vertex 4.27571 -2.59196 0.829164
      vertex -5 -2.5 0.669876
      vertex 4.3275 -2.5 0.669876
    endloop
  endfacet
  facet normal 0.000226109 0.545462 -0.838136
    outer loop
      vertex 4.3275 -2.5 0.669876
      vertex 4.55832 -2.05244 0.961212
      vertex 4.43298 -2.3127 0.7918
    endloop
  endfacet
  facet normal 0 0.545544 -0.838082
    outer loop
      vertex -5 -2.05244 0.961212
      vertex 4.3275 -2.5 0.669876
      vertex -5 -2.5 0.669876
    endloop
  endfacet
  facet normal 0 0.545544 -0.838082
    outer loop
      vertex 4.3275 -2.5 0.669876
      vertex -5 -2.05244 0.961212
      vertex 4.55832 -2.05244 0.961212
    endloop
  endfacet
  facet normal 0.000496799 0.631675 -0.775233
    outer loop
      vertex 4.57205 -2.02393 0.984458
      vertex 4.72166 -1.6385 1.29861
      vertex 4.69234 -1.72684 1.22661
    endloop
  endfacet
  facet normal 0.00244205 0.63122 -0.7756
    outer loop
      vertex 4.55832 -2.05244 0.961212
      vertex 4.72166 -1.6385 1.29861
      vertex 4.57205 -2.02393 0.984458
    endloop
  endfacet
  facet normal 0 0.631801 -0.775131
    outer loop
      vertex -5 -1.6385 1.29861
      vertex 4.55832 -2.05244 0.961212
      vertex -5 -2.05244 0.961212
    endloop
  endfacet
  facet normal 0 0.631801 -0.775131
    outer loop
      vertex 4.55832 -2.05244 0.961212
      vertex -5 -1.6385 1.29861
      vertex 4.72166 -1.6385 1.29861
    endloop
  endfacet
  facet normal 0.000260727 0.710849 -0.703344
    outer loop
      vertex 4.72166 -1.6385 1.29861
      vertex 4.83522 -1.26291 1.67825
      vertex 4.79333 -1.42264 1.5168
    endloop
  endfacet
  facet normal 0 0.710888 -0.703305
    outer loop
      vertex 4.83522 -1.26291 1.67825
      vertex 4.72166 -1.6385 1.29861
      vertex -5 -1.26291 1.67825
    endloop
  endfacet
  facet normal 0 0.710888 -0.703305
    outer loop
      vertex -5 -1.26291 1.67825
      vertex 4.72166 -1.6385 1.29861
      vertex -5 -1.6385 1.29861
    endloop
  endfacet
  facet normal 0 0.781815 -0.62351
    outer loop
      vertex 4.87463 -1.11261 1.86672
      vertex -5 -0.929947 2.09576
      vertex 4.9102 -0.929947 2.09576
    endloop
  endfacet
  facet normal 7.45673e-07 0.781831 -0.62349
    outer loop
      vertex 4.83522 -1.26291 1.67825
      vertex -5 -0.929947 2.09576
      vertex 4.87463 -1.11261 1.86672
    endloop
  endfacet
  facet normal 0 0.781822 -0.623501
    outer loop
      vertex -5 -0.929947 2.09576
      vertex 4.83522 -1.26291 1.67825
      vertex -5 -1.26291 1.67825
    endloop
  endfacet
  facet normal 0 0.843879 -0.536533
    outer loop
      vertex 4.9359 -0.798004 2.30328
      vertex -5 -0.643417 2.54642
      vertex 4.95583 -0.643417 2.54642
    endloop
  endfacet
  facet normal -2.96551e-07 0.843874 -0.536542
    outer loop
      vertex 4.9102 -0.929947 2.09576
      vertex -5 -0.643417 2.54642
      vertex 4.9359 -0.798004 2.30328
    endloop
  endfacet
  facet normal 0 0.843877 -0.536537
    outer loop
      vertex -5 -0.643417 2.54642
      vertex 4.9102 -0.929947 2.09576
      vertex -5 -0.929947 2.09576
    endloop
  endfacet
  facet normal 0 0.896272 -0.443504
    outer loop
      vertex 4.97688 -0.480118 2.87645
      vertex -5 -0.406586 3.02505
      vertex 4.9816 -0.406586 3.02505
    endloop
  endfacet
  facet normal 4.1732e-07 0.896284 -0.443482
    outer loop
      vertex 4.95583 -0.643417 2.54642
      vertex -5 -0.406586 3.02505
      vertex 4.97688 -0.480118 2.87645
    endloop
  endfacet
  facet normal 0 0.89628 -0.443489
    outer loop
      vertex -5 -0.406586 3.02505
      vertex 4.95583 -0.643417 2.54642
      vertex -5 -0.643417 2.54642
    endloop
  endfacet
  facet normal 0 0.938462 -0.345382
    outer loop
      vertex 4.9816 -0.406586 3.02505
      vertex -5 -0.222137 3.52623
      vertex 4.99345 -0.222137 3.52623
    endloop
  endfacet
  facet normal 0 0.938462 -0.345382
    outer loop
      vertex -5 -0.222137 3.52623
      vertex 4.9816 -0.406586 3.02505
      vertex -5 -0.406586 3.02505
    endloop
  endfacet
  facet normal 0 0.969952 -0.243298
    outer loop
      vertex 4.99742 -0.160263 3.77291
      vertex -5 -0.0922089 4.04422
      vertex 4.99742 -0.0922089 4.04422
    endloop
  endfacet
  facet normal 0 0.969953 -0.243291
    outer loop
      vertex -5 -0.222137 3.52623
      vertex 4.99742 -0.160263 3.77291
      vertex 4.99345 -0.222137 3.52623
    endloop
  endfacet
  facet normal 1.031e-07 0.969952 -0.243294
    outer loop
      vertex 4.99742 -0.160263 3.77291
      vertex -5 -0.222137 3.52623
      vertex -5 -0.0922089 4.04422
    endloop
  endfacet
  facet normal 0 0.990367 -0.138466
    outer loop
      vertex 4.99742 -0.0922089 4.04422
      vertex -5 -0.0182648 4.5731
      vertex 4.99742 -0.0182648 4.5731
    endloop
  endfacet
  facet normal 0 0.990367 -0.138466
    outer loop
      vertex -5 -0.0182648 4.5731
      vertex 4.99742 -0.0922089 4.04422
      vertex -5 -0.0922089 4.04422
    endloop
  endfacet
  facet normal 0 0.999486 -0.0320596
    outer loop
      vertex 4.99742 -0.0182648 4.5731
      vertex -5 -0.00457152 5
      vertex 4.99742 -0.00457152 5
    endloop
  endfacet
  facet normal 0 0.999486 -0.0320596
    outer loop
      vertex -5 -0.00457152 5
      vertex 4.99742 -0.0182648 4.5731
      vertex -5 -0.0182648 4.5731
    endloop
  endfacet
  facet normal 0 0 1
    outer loop
      vertex 4.99742 -0.00457152 5
      vertex 4.97688 -0.480118 5
      vertex 4.99742 -0.160263 5
    endloop
  endfacet
  facet normal 0 0 1
    outer loop
      vertex 4.99742 -0.00457152 5
      vertex 4.9359 -0.798004 5
      vertex 4.97688 -0.480118 5
    endloop
  endfacet
  facet normal 0 0 1
    outer loop
      vertex 4.99742 -0.00457152 5
      vertex 4.87463 -1.11261 5
      vertex 4.9359 -0.798004 5
    endloop
  endfacet
  facet normal 0 0 1
    outer loop
      vertex 4.99742 -0.00457152 5
      vertex 4.79333 -1.42264 5
      vertex 4.87463 -1.11261 5
    endloop
  endfacet
  facet normal 0 0 1
    outer loop
      vertex 4.99742 -0.00457152 5
      vertex 4.69234 -1.72684 5
      vertex 4.79333 -1.42264 5
    endloop
  endfacet
  facet normal 0 0 1
    outer loop
      vertex 4.99742 -0.00457152 5
      vertex 4.57205 -2.02393 5
      vertex 4.69234 -1.72684 5
    endloop
  endfacet
  facet normal 0 0 1
    outer loop
      vertex 4.99742 -0.00457152 5
      vertex 4.43298 -2.3127 5
      vertex 4.57205 -2.02393 5
    endloop
  endfacet
  facet normal 0 0 1
    outer loop
      vertex 4.99742 -0.00457152 5
      vertex 4.32621 -2.50229 5
      vertex 4.43298 -2.3127 5
    endloop
  endfacet
  facet normal -0 0 1
    outer loop
      vertex -5 -0.00457152 5
      vertex 4.32621 -2.50229 5
      vertex 4.99742 -0.00457152 5
    endloop
  endfacet
  facet normal 0 0 1
    outer loop
      vertex 4.32621 -2.50229 5
      vertex -5 -0.00457152 5
      vertex -5 -2.50229 5
    endloop
  endfacet
  facet normal 0.80138 -0.598156 0
    outer loop
      vertex 4.02295 -2.96498 3.54788
      vertex 4.10086 -2.8606 1.29445
      vertex 4.10086 -2.8606 3.71206
    endloop
  endfacet
  facet normal 0.801411 -0.598115 0
    outer loop
      vertex 3.90915 -3.11746 1.73935
      vertex 4.02295 -2.96498 3.54788
      vertex 3.90915 -3.11746 3.35667
    endloop
  endfacet
  facet normal 0.8014 -0.598129 1.91597e-06
    outer loop
      vertex 4.02295 -2.96498 3.54788
      vertex 3.90915 -3.11746 1.73935
      vertex 4.10086 -2.8606 1.29445
    endloop
  endfacet
  facet normal 0.981559 -0.19116 0
    outer loop
      vertex 4.87463 -1.11261 5
      vertex 4.9359 -0.798004 2.30328
      vertex 4.9359 -0.798004 5
    endloop
  endfacet
  facet normal 0.981554 -0.191184 -2.85909e-06
    outer loop
      vertex 4.9359 -0.798004 2.30328
      vertex 4.87463 -1.11261 5
      vertex 4.9102 -0.929947 2.09576
    endloop
  endfacet
  facet normal 0.981563 -0.19114 0
    outer loop
      vertex 4.9102 -0.929947 2.09576
      vertex 4.87463 -1.11261 5
      vertex 4.87463 -1.11261 1.86672
    endloop
  endfacet
  facet normal 1 -0 0
    outer loop
      vertex 4.99742 -0.160263 5
      vertex 4.99742 -0.0182648 4.5731
      vertex 4.99742 -0.00457152 5
    endloop
  endfacet
  facet normal 1 0 0
    outer loop
      vertex 4.99742 -0.0182648 4.5731
      vertex 4.99742 -0.160263 5
      vertex 4.99742 -0.0922089 4.04422
    endloop
  endfacet
  facet normal 1 0 0
    outer loop
      vertex 4.99742 -0.0922089 4.04422
      vertex 4.99742 -0.160263 5
      vertex 4.99742 -0.160263 3.77291
    endloop
  endfacet
  facet normal 0.761442 -0.648233 0
    outer loop
      vertex 3.89724 -3.13145 3.33913
      vertex 3.90915 -3.11746 1.73935
      vertex 3.90915 -3.11746 3.35667
    endloop
  endfacet
  facet normal 0.761432 -0.648244 7.31792e-06
    outer loop
      vertex 3.70139 -3.36151 2.16206
      vertex 3.89724 -3.13145 3.33913
      vertex 3.73735 -3.31926 3.14931
    endloop
  endfacet
  facet normal 0.761517 -0.648145 0
    outer loop
      vertex 3.70139 -3.36151 2.16206
      vertex 3.73735 -3.31926 3.14931
      vertex 3.70139 -3.36151 3.11487
    endloop
  endfacet
  facet normal 0.76145 -0.648223 1.4476e-07
    outer loop
      vertex 3.89724 -3.13145 3.33913
      vertex 3.70139 -3.36151 2.16206
      vertex 3.90915 -3.11746 1.73935
    endloop
  endfacet
  facet normal 0.900962 -0.433898 0
    outer loop
      vertex 4.43298 -2.3127 5
      vertex 4.57205 -2.02393 0.984458
      vertex 4.57205 -2.02393 5
    endloop
  endfacet
  facet normal 0.900962 -0.433898 0
    outer loop
      vertex 4.43298 -2.3127 0.7918
      vertex 4.57205 -2.02393 0.984458
      vertex 4.43298 -2.3127 5
    endloop
  endfacet
  facet normal 0.900948 -0.433928 5.43492e-05
    outer loop
      vertex 4.57205 -2.02393 0.984458
      vertex 4.43298 -2.3127 0.7918
      vertex 4.55832 -2.05244 0.961212
    endloop
  endfacet
  facet normal 0.967294 -0.253656 0
    outer loop
      vertex 4.79333 -1.42264 5
      vertex 4.87463 -1.11261 1.86672
      vertex 4.87463 -1.11261 5
    endloop
  endfacet
  facet normal 0.967299 -0.253637 2.02409e-06
    outer loop
      vertex 4.87463 -1.11261 1.86672
      vertex 4.79333 -1.42264 5
      vertex 4.83522 -1.26291 1.67825
    endloop
  endfacet
  facet normal 0.967289 -0.253676 0
    outer loop
      vertex 4.83522 -1.26291 1.67825
      vertex 4.79333 -1.42264 5
      vertex 4.79333 -1.42264 1.5168
    endloop
  endfacet
  facet normal 0.949066 -0.315076 0
    outer loop
      vertex 4.69234 -1.72684 5
      vertex 4.79333 -1.42264 1.5168
      vertex 4.79333 -1.42264 5
    endloop
  endfacet
  facet normal 0.949066 -0.315076 0
    outer loop
      vertex 4.69234 -1.72684 1.22661
      vertex 4.79333 -1.42264 1.5168
      vertex 4.69234 -1.72684 5
    endloop
  endfacet
  facet normal 0.949234 -0.314571 -0.000588054
    outer loop
      vertex 4.79333 -1.42264 1.5168
      vertex 4.69234 -1.72684 1.22661
      vertex 4.72166 -1.6385 1.29861
    endloop
  endfacet
  facet normal 0.926904 -0.375298 0
    outer loop
      vertex 4.57205 -2.02393 5
      vertex 4.69234 -1.72684 1.22661
      vertex 4.69234 -1.72684 5
    endloop
  endfacet
  facet normal 0.926904 -0.375298 0
    outer loop
      vertex 4.69234 -1.72684 1.22661
      vertex 4.57205 -2.02393 5
      vertex 4.57205 -2.02393 0.984458
    endloop
  endfacet
  facet normal 0.997944 -0.0640846 0
    outer loop
      vertex 4.97688 -0.480118 5
      vertex 4.99742 -0.160263 3.77291
      vertex 4.99742 -0.160263 5
    endloop
  endfacet
  facet normal 0.997946 -0.0640583 6.88135e-06
    outer loop
      vertex 4.99742 -0.160263 3.77291
      vertex 4.97688 -0.480118 5
      vertex 4.99345 -0.222137 3.52623
    endloop
  endfacet
  facet normal 0.997943 -0.0641081 -1.87811e-06
    outer loop
      vertex 4.99345 -0.222137 3.52623
      vertex 4.97688 -0.480118 5
      vertex 4.9816 -0.406586 3.02505
    endloop
  endfacet
  facet normal 0.997946 -0.0640579 0
    outer loop
      vertex 4.9816 -0.406586 3.02505
      vertex 4.97688 -0.480118 5
      vertex 4.97688 -0.480118 2.87645
    endloop
  endfacet
  facet normal 0.718328 -0.695704 1.09702e-05
    outer loop
      vertex 3.47841 -3.59175 2.56085
      vertex 3.70139 -3.36151 3.11487
      vertex 3.54186 -3.52623 2.98061
    endloop
  endfacet
  facet normal 0.718363 -0.695668 0
    outer loop
      vertex 3.47841 -3.59175 2.56085
      vertex 3.54186 -3.52623 2.98061
      vertex 3.47841 -3.59175 2.93796
    endloop
  endfacet
  facet normal 0.718342 -0.695691 0
    outer loop
      vertex 3.70139 -3.36151 3.11487
      vertex 3.47841 -3.59175 2.56085
      vertex 3.70139 -3.36151 2.16206
    endloop
  endfacet
  facet normal 0.672303 -0.740276 0
    outer loop
      vertex 3.47841 -3.59175 2.93796
      vertex 3.30416 -3.75 2.83495
      vertex 3.47841 -3.59175 2.56085
    endloop
  endfacet
  facet normal 0.838273 -0.54525 0
    outer loop
      vertex 4.26328 -2.61107 4.26312
      vertex 4.27571 -2.59196 0.829164
      vertex 4.27571 -2.59196 4.33929
    endloop
  endfacet
  facet normal 0.838085 -0.54554 -2.29082e-06
    outer loop
      vertex 4.20325 -2.70329 4.01253
      vertex 4.27571 -2.59196 0.829164
      vertex 4.26328 -2.61107 4.26312
    endloop
  endfacet
  facet normal 0.838118 -0.545489 2.52069e-07
    outer loop
      vertex 4.12617 -2.82172 3.77321
      vertex 4.27571 -2.59196 0.829164
      vertex 4.20325 -2.70329 4.01253
    endloop
  endfacet
  facet normal 0.838069 -0.545564 0
    outer loop
      vertex 4.10086 -2.8606 1.29445
      vertex 4.12617 -2.82172 3.77321
      vertex 4.10086 -2.8606 3.71206
    endloop
  endfacet
  facet normal 0.838109 -0.545503 -1.36061e-06
    outer loop
      vertex 4.12617 -2.82172 3.77321
      vertex 4.10086 -2.8606 1.29445
      vertex 4.27571 -2.59196 0.829164
    endloop
  endfacet
  facet normal 0.871327 -0.490703 0
    outer loop
      vertex 4.27571 -2.59196 4.33929
      vertex 4.43298 -2.3127 0.7918
      vertex 4.43298 -2.3127 5
    endloop
  endfacet
  facet normal 0.871329 -0.4907 -9.53666e-06
    outer loop
      vertex 4.32235 -2.50914 4.78656
      vertex 4.43298 -2.3127 5
      vertex 4.32621 -2.50229 5
    endloop
  endfacet
  facet normal 0.871323 -0.490709 2.18139e-06
    outer loop
      vertex 4.30153 -2.54611 4.52211
      vertex 4.43298 -2.3127 5
      vertex 4.32235 -2.50914 4.78656
    endloop
  endfacet
  facet normal 0.871313 -0.490728 1.41142e-05
    outer loop
      vertex 4.27571 -2.59196 4.33929
      vertex 4.43298 -2.3127 5
      vertex 4.30153 -2.54611 4.52211
    endloop
  endfacet
  facet normal 0.871327 -0.490703 0
    outer loop
      vertex 4.27571 -2.59196 0.829164
      vertex 4.43298 -2.3127 0.7918
      vertex 4.27571 -2.59196 4.33929
    endloop
  endfacet
  facet normal 0.871328 -0.490702 6.92447e-06
    outer loop
      vertex 4.43298 -2.3127 0.7918
      vertex 4.27571 -2.59196 0.829164
      vertex 4.3275 -2.5 0.669876
    endloop
  endfacet
  facet normal 0.991793 -0.127856 0
    outer loop
      vertex 4.9359 -0.798004 5
      vertex 4.97688 -0.480118 2.87645
      vertex 4.97688 -0.480118 5
    endloop
  endfacet
  facet normal 0.991794 -0.127849 1.0819e-06
    outer loop
      vertex 4.97688 -0.480118 2.87645
      vertex 4.9359 -0.798004 5
      vertex 4.95583 -0.643417 2.54642
    endloop
  endfacet
  facet normal 0.991791 -0.127866 0
    outer loop
      vertex 4.95583 -0.643417 2.54642
      vertex 4.9359 -0.798004 5
      vertex 4.9359 -0.798004 2.30328
    endloop
  endfacet
endsolid OpenSCAD_Model
