solid OpenSCAD_Model
  facet normal 0 0 -1
    outer loop
      vertex 3 -1.73205 -5
      vertex 4.03879 -2.94757 -5
      vertex 3.70139 -3.36151 -5
    endloop
  endfacet
  facet normal 0 0 -1
    outer loop
      vertex 3 -1.73205 -5
      vertex 3.70139 -3.36151 -5
      vertex 3.32175 -3.73711 -5
    endloop
  endfacet
  facet normal 0 0 -1
    outer loop
      vertex 3 -1.73205 -5
      vertex 3.32175 -3.73711 -5
      vertex 3 -3.9937 -5
    endloop
  endfacet
  facet normal 0 0 -1
    outer loop
      vertex 4.03879 -2.94757 -5
      vertex 3 -1.73205 -5
      vertex 4.33012 -2.5 -5
    endloop
  endfacet
  facet normal 0 0 -1
    outer loop
      vertex 1 -2.5 -5
      vertex 0.987473 -2.29672 -5
      vertex 1 -2.29052 -5
    endloop
  endfacet
  facet normal 0 0 -1
    outer loop
      vertex 1 -2.5 -5
      vertex 0.736877 -2.38895 -5
      vertex 0.987473 -2.29672 -5
    endloop
  endfacet
  facet normal 0 0 -1
    outer loop
      vertex 1 -2.5 -5
      vertex 0.47789 -2.4539 -5
      vertex 0.736877 -2.38895 -5
    endloop
  endfacet
  facet normal 0 0 -1
    outer loop
      vertex 1 -2.5 -5
      vertex 0.21344 -2.49088 -5
      vertex 0.47789 -2.4539 -5
    endloop
  endfacet
  facet normal 0 0 -1
    outer loop
      vertex 1 -2.5 -5
      vertex -0.0534363 -2.49944 -5
      vertex 0.21344 -2.49088 -5
    endloop
  endfacet
  facet normal 0 0 -1
    outer loop
      vertex -1 -2.5 -5
      vertex -0.0534363 -2.49944 -5
      vertex 1 -2.5 -5
    endloop
  endfacet
  facet normal 0 0 -1
    outer loop
      vertex -1 -2.5 -5
      vertex -0.319702 -2.47948 -5
      vertex -0.0534363 -2.49944 -5
    endloop
  endfacet
  facet normal 0 0 -1
    outer loop
      vertex -1 -2.5 -5
      vertex -0.582321 -2.43124 -5
      vertex -0.319702 -2.47948 -5
    endloop
  endfacet
  facet normal 0 0 -1
    outer loop
      vertex -1 -2.5 -5
      vertex -0.838303 -2.35527 -5
      vertex -0.582321 -2.43124 -5
    endloop
  endfacet
  facet normal -0 0 -1
    outer loop
      vertex -0.838303 -2.35527 -5
      vertex -1 -2.5 -5
      vertex -1 -2.28778 -5
    endloop
  endfacet
  facet normal 0 0 -1
    outer loop
      vertex 1 2.29051 -5
      vertex 0.987473 2.29671 -5
      vertex 1 3 -5
    endloop
  endfacet
  facet normal 0 0 -1
    outer loop
      vertex 3 1.73205 -5
      vertex 4.03879 2.94756 -5
      vertex 4.33012 2.5 -5
    endloop
  endfacet
  facet normal 0 0 -1
    outer loop
      vertex 4.03879 2.94756 -5
      vertex 3 3 -5
      vertex 3.70139 3.3615 -5
    endloop
  endfacet
  facet normal -0 0 -1
    outer loop
      vertex 4.03879 2.94756 -5
      vertex 3 1.73205 -5
      vertex 3 3 -5
    endloop
  endfacet
  facet normal -0 0 -1
    outer loop
      vertex 3.70139 3.3615 -5
      vertex 3 3 -5
      vertex 3.32175 3.73709 -5
    endloop
  endfacet
  facet normal 0 0 -1
    outer loop
      vertex 3 3 -5
      vertex 2.90424 4.07005 -5
      vertex 3.32175 3.73709 -5
    endloop
  endfacet
  facet normal 0 0 -1
    outer loop
      vertex 3 3 -5
      vertex 2.45358 4.35658 -5
      vertex 2.90424 4.07005 -5
    endloop
  endfacet
  facet normal 0 0 -1
    outer loop
      vertex 1 3 -5
      vertex 2.45358 4.35658 -5
      vertex 3 3 -5
    endloop
  endfacet
  facet normal -0 0 -1
    outer loop
      vertex 2.45358 4.35658 -5
      vertex 1 3 -5
      vertex 1.97495 4.59341 -5
    endloop
  endfacet
  facet normal -0 0 -1
    outer loop
      vertex 1.97495 4.59341 -5
      vertex 1 3 -5
      vertex 1.47377 4.77786 -5
    endloop
  endfacet
  facet normal 0 0 -1
    outer loop
      vertex 1 3 -5
      vertex 0.95578 4.90779 -5
      vertex 1.47377 4.77786 -5
    endloop
  endfacet
  facet normal 0 0 -1
    outer loop
      vertex 0.736877 2.38893 -5
      vertex 1 3 -5
      vertex 0.987473 2.29671 -5
    endloop
  endfacet
  facet normal 0 0 -1
    outer loop
      vertex 0.47789 2.45389 -5
      vertex 1 3 -5
      vertex 0.736877 2.38893 -5
    endloop
  endfacet
  facet normal 0 0 -1
    outer loop
      vertex 0.21344 2.49086 -5
      vertex 1 3 -5
      vertex 0.47789 2.45389 -5
    endloop
  endfacet
  facet normal 0 0 -1
    outer loop
      vertex 1 3 -5
      vertex 0.426895 4.98174 -5
      vertex 0.95578 4.90779 -5
    endloop
  endfacet
  facet normal 0 0 -1
    outer loop
      vertex -0.0534363 2.49942 -5
      vertex 1 3 -5
      vertex 0.21344 2.49086 -5
    endloop
  endfacet
  facet normal 0 0 -1
    outer loop
      vertex -0.106857 4.99886 -5
      vertex 1 3 -5
      vertex -0.0534363 2.49942 -5
    endloop
  endfacet
  facet normal 0 0 -1
    outer loop
      vertex 1 3 -5
      vertex -0.106857 4.99886 -5
      vertex 0.426895 4.98174 -5
    endloop
  endfacet
  facet normal 0 0 -1
    outer loop
      vertex -1 3 -5
      vertex -0.0534363 2.49942 -5
      vertex -0.319702 2.47946 -5
    endloop
  endfacet
  facet normal 0 0 -1
    outer loop
      vertex -1 3 -5
      vertex -0.319702 2.47946 -5
      vertex -0.582321 2.43123 -5
    endloop
  endfacet
  facet normal 0 0 -1
    outer loop
      vertex -0.0534363 2.49942 -5
      vertex -1 3 -5
      vertex -0.106857 4.99886 -5
    endloop
  endfacet
  facet normal 0 0 -1
    outer loop
      vertex -1 3 -5
      vertex -0.582321 2.43123 -5
      vertex -0.838303 2.35526 -5
    endloop
  endfacet
  facet normal 0 0 -1
    outer loop
      vertex -1 3 -5
      vertex -0.838303 2.35526 -5
      vertex -1 2.28777 -5
    endloop
  endfacet
  facet normal 0 0 -1
    outer loop
      vertex -0.106857 4.99886 -5
      vertex -1 3 -5
      vertex -0.639389 4.95894 -5
    endloop
  endfacet
  facet normal 0 0 -1
    outer loop
      vertex -1 3 -5
      vertex -1.16464 4.86247 -5
      vertex -0.639389 4.95894 -5
    endloop
  endfacet
  facet normal 0 0 -1
    outer loop
      vertex -1 3 -5
      vertex -1.67659 4.71053 -5
      vertex -1.16464 4.86247 -5
    endloop
  endfacet
  facet normal 0 0 -1
    outer loop
      vertex -1 3 -5
      vertex -2.16943 4.50484 -5
      vertex -1.67659 4.71053 -5
    endloop
  endfacet
  facet normal 0 0 -1
    outer loop
      vertex -1 3 -5
      vertex -2.63751 4.24777 -5
      vertex -2.16943 4.50484 -5
    endloop
  endfacet
  facet normal 0 0 -1
    outer loop
      vertex -1 3 -5
      vertex -3.0755 3.94225 -5
      vertex -2.63751 4.24777 -5
    endloop
  endfacet
  facet normal 0 0 -1
    outer loop
      vertex -1 3 -5
      vertex -3.47842 3.59174 -5
      vertex -3.0755 3.94225 -5
    endloop
  endfacet
  facet normal 0 0 -1
    outer loop
      vertex -1 3 -5
      vertex -3.84166 3.20027 -5
      vertex -3.47842 3.59174 -5
    endloop
  endfacet
  facet normal 0 -0 -1
    outer loop
      vertex -3.84166 3.20027 -5
      vertex -1 3 -5
      vertex -3.99112 3 -5
    endloop
  endfacet
  facet normal 0 0 1
    outer loop
      vertex 3 -1.73205 5
      vertex 4.03879 -2.94757 5
      vertex 4.33012 -2.5 5
    endloop
  endfacet
  facet normal 0 0 1
    outer loop
      vertex 4.03879 -2.94757 5
      vertex 3 -1.73205 5
      vertex 3.70139 -3.36151 5
    endloop
  endfacet
  facet normal 0 0 1
    outer loop
      vertex 3.70139 -3.36151 5
      vertex 3 -1.73205 5
      vertex 3.32175 -3.73711 5
    endloop
  endfacet
  facet normal 0 0 1
    outer loop
      vertex 3.32175 -3.73711 5
      vertex 3 -1.73205 5
      vertex 3 -3.9937 5
    endloop
  endfacet
  facet normal -0 0 1
    outer loop
      vertex 0.987473 -2.29672 5
      vertex 1 -2.5 5
      vertex 1 -2.29052 5
    endloop
  endfacet
  facet normal -0 0 1
    outer loop
      vertex 0.736877 -2.38895 5
      vertex 1 -2.5 5
      vertex 0.987473 -2.29672 5
    endloop
  endfacet
  facet normal -0 0 1
    outer loop
      vertex 0.47789 -2.4539 5
      vertex 1 -2.5 5
      vertex 0.736877 -2.38895 5
    endloop
  endfacet
  facet normal -0 0 1
    outer loop
      vertex 0.21344 -2.49088 5
      vertex 1 -2.5 5
      vertex 0.47789 -2.4539 5
    endloop
  endfacet
  facet normal -0 0 1
    outer loop
      vertex -0.0534363 -2.49944 5
      vertex 1 -2.5 5
      vertex 0.21344 -2.49088 5
    endloop
  endfacet
  facet normal 0 0 1
    outer loop
      vertex -0.0534363 -2.49944 5
      vertex -1 -2.5 5
      vertex 1 -2.5 5
    endloop
  endfacet
  facet normal 0 0 1
    outer loop
      vertex -0.319702 -2.47948 5
      vertex -1 -2.5 5
      vertex -0.0534363 -2.49944 5
    endloop
  endfacet
  facet normal 0 0 1
    outer loop
      vertex -0.582321 -2.43124 5
      vertex -1 -2.5 5
      vertex -0.319702 -2.47948 5
    endloop
  endfacet
  facet normal 0 0 1
    outer loop
      vertex -0.838303 -2.35527 5
      vertex -1 -2.5 5
      vertex -0.582321 -2.43124 5
    endloop
  endfacet
  facet normal 0 0 1
    outer loop
      vertex -1 -2.5 5
      vertex -0.838303 -2.35527 5
      vertex -1 -2.28778 5
    endloop
  endfacet
  facet normal 0 0 1
    outer loop
      vertex 2.90424 4.07005 5
      vertex 3 3 5
      vertex 3.32175 3.73709 5
    endloop
  endfacet
  facet normal 0 0 1
    outer loop
      vertex 2.45358 4.35658 5
      vertex 3 3 5
      vertex 2.90424 4.07005 5
    endloop
  endfacet
  facet normal 0 0 1
    outer loop
      vertex 1 3 5
      vertex 2.45358 4.35658 5
      vertex 1.97495 4.59341 5
    endloop
  endfacet
  facet normal 0 0 1
    outer loop
      vertex 1 3 5
      vertex 1.97495 4.59341 5
      vertex 1.47377 4.77786 5
    endloop
  endfacet
  facet normal 0 0 1
    outer loop
      vertex 2.45358 4.35658 5
      vertex 1 3 5
      vertex 3 3 5
    endloop
  endfacet
  facet normal 0 0 1
    outer loop
      vertex 1 3 5
      vertex 0.987473 2.29671 5
      vertex 1 2.29051 5
    endloop
  endfacet
  facet normal 0 0 1
    outer loop
      vertex 0.95578 4.90779 5
      vertex 1 3 5
      vertex 1.47377 4.77786 5
    endloop
  endfacet
  facet normal 0 0 1
    outer loop
      vertex 0.426895 4.98174 5
      vertex 1 3 5
      vertex 0.95578 4.90779 5
    endloop
  endfacet
  facet normal 0 0 1
    outer loop
      vertex 1 3 5
      vertex 0.736877 2.38893 5
      vertex 0.987473 2.29671 5
    endloop
  endfacet
  facet normal 0 0 1
    outer loop
      vertex 1 3 5
      vertex 0.47789 2.45389 5
      vertex 0.736877 2.38893 5
    endloop
  endfacet
  facet normal 0 0 1
    outer loop
      vertex -0.106857 4.99886 5
      vertex 1 3 5
      vertex 0.426895 4.98174 5
    endloop
  endfacet
  facet normal 0 0 1
    outer loop
      vertex 1 3 5
      vertex 0.21344 2.49086 5
      vertex 0.47789 2.45389 5
    endloop
  endfacet
  facet normal 0 0 1
    outer loop
      vertex 1 3 5
      vertex -0.0534363 2.49942 5
      vertex 0.21344 2.49086 5
    endloop
  endfacet
  facet normal 0 0 1
    outer loop
      vertex 1 3 5
      vertex -0.106857 4.99886 5
      vertex -0.0534363 2.49942 5
    endloop
  endfacet
  facet normal -0 0 1
    outer loop
      vertex -1 3 5
      vertex -0.0534363 2.49942 5
      vertex -0.106857 4.99886 5
    endloop
  endfacet
  facet normal 0 0 1
    outer loop
      vertex -0.0534363 2.49942 5
      vertex -1 3 5
      vertex -0.319702 2.47946 5
    endloop
  endfacet
  facet normal 0 0 1
    outer loop
      vertex -1 3 5
      vertex -0.106857 4.99886 5
      vertex -0.639389 4.95894 5
    endloop
  endfacet
  facet normal 0 0 1
    outer loop
      vertex -0.319702 2.47946 5
      vertex -1 3 5
      vertex -0.582321 2.43123 5
    endloop
  endfacet
  facet normal 0 0 1
    outer loop
      vertex -0.582321 2.43123 5
      vertex -1 3 5
      vertex -0.838303 2.35526 5
    endloop
  endfacet
  facet normal -0 0 1
    outer loop
      vertex -1.16464 4.86247 5
      vertex -1 3 5
      vertex -0.639389 4.95894 5
    endloop
  endfacet
  facet normal -0 0 1
    outer loop
      vertex -1.67659 4.71053 5
      vertex -1 3 5
      vertex -1.16464 4.86247 5
    endloop
  endfacet
  facet normal -0 0 1
    outer loop
      vertex -2.16943 4.50484 5
      vertex -1 3 5
      vertex -1.67659 4.71053 5
    endloop
  endfacet
  facet normal -0 0 1
    outer loop
      vertex -2.63751 4.24777 5
      vertex -1 3 5
      vertex -2.16943 4.50484 5
    endloop
  endfacet
  facet normal -0 0 1
    outer loop
      vertex -3.0755 3.94225 5
      vertex -1 3 5
      vertex -2.63751 4.24777 5
    endloop
  endfacet
  facet normal -0 0 1
    outer loop
      vertex -3.47842 3.59174 5
      vertex -1 3 5
      vertex -3.0755 3.94225 5
    endloop
  endfacet
  facet normal -0 0 1
    outer loop
      vertex -3.84166 3.20027 5
      vertex -1 3 5
      vertex -3.47842 3.59174 5
    endloop
  endfacet
  facet normal 0 0 1
    outer loop
      vertex -1 3 5
      vertex -3.84166 3.20027 5
      vertex -3.99112 3 5
    endloop
  endfacet
  facet normal -0 0 1
    outer loop
      vertex 3 3 5
      vertex 4.03879 2.94756 5
      vertex 3.70139 3.3615 5
    endloop
  endfacet
  facet normal 0 0 1
    outer loop
      vertex 3 3 5
      vertex 3.70139 3.3615 5
      vertex 3.32175 3.73709 5
    endloop
  endfacet
  facet normal 0 0 1
    outer loop
      vertex 3 1.73205 5
      vertex 4.03879 2.94756 5
      vertex 3 3 5
    endloop
  endfacet
  facet normal 0 0 1
    outer loop
      vertex 4.03879 2.94756 5
      vertex 3 1.73205 5
      vertex 4.33012 2.5 5
    endloop
  endfacet
  facet normal 0 0 1
    outer loop
      vertex -0.838303 2.35526 5
      vertex -1 3 5
      vertex -1 2.28777 5
    endloop
  endfacet
  facet normal 0.623494 -0.781828 0
    outer loop
      vertex 3 -3.9937 -5
      vertex 3.32175 -3.73711 5
      vertex 3 -3.9937 5
    endloop
  endfacet
  facet normal 0.623494 -0.781828 0
    outer loop
      vertex 3.32175 -3.73711 5
      vertex 3 -3.9937 -5
      vertex 3.32175 -3.73711 -5
    endloop
  endfacet
  facet normal 0.703314 -0.710879 0
    outer loop
      vertex 3.32175 -3.73711 -5
      vertex 3.70139 -3.36151 5
      vertex 3.32175 -3.73711 5
    endloop
  endfacet
  facet normal 0.703314 -0.710879 0
    outer loop
      vertex 3.70139 -3.36151 5
      vertex 3.32175 -3.73711 -5
      vertex 3.70139 -3.36151 -5
    endloop
  endfacet
  facet normal 0.775129 -0.631803 0
    outer loop
      vertex 3.70139 -3.36151 5
      vertex 4.03879 -2.94757 -5
      vertex 4.03879 -2.94757 5
    endloop
  endfacet
  facet normal 0.775129 -0.631803 0
    outer loop
      vertex 4.03879 -2.94757 -5
      vertex 3.70139 -3.36151 5
      vertex 3.70139 -3.36151 -5
    endloop
  endfacet
  facet normal 0.838093 -0.545527 0
    outer loop
      vertex 4.03879 -2.94757 5
      vertex 4.33012 -2.5 -5
      vertex 4.33012 -2.5 5
    endloop
  endfacet
  facet normal 0.838093 -0.545527 0
    outer loop
      vertex 4.33012 -2.5 -5
      vertex 4.03879 -2.94757 5
      vertex 4.03879 -2.94757 -5
    endloop
  endfacet
  facet normal 0.500002 0.866024 -0
    outer loop
      vertex 4.33012 -2.5 -5
      vertex 3 -1.73205 5
      vertex 4.33012 -2.5 5
    endloop
  endfacet
  facet normal 0.500002 0.866024 0
    outer loop
      vertex 3 -1.73205 5
      vertex 4.33012 -2.5 -5
      vertex 3 -1.73205 -5
    endloop
  endfacet
  facet normal -0.443575 0.896237 0
    outer loop
      vertex 1 -2.29052 -5
      vertex 0.987473 -2.29672 5
      vertex 1 -2.29052 5
    endloop
  endfacet
  facet normal -0.443575 0.896237 0
    outer loop
      vertex 0.987473 -2.29672 5
      vertex 1 -2.29052 -5
      vertex 0.987473 -2.29672 -5
    endloop
  endfacet
  facet normal -0.345393 0.938458 0
    outer loop
      vertex 0.987473 -2.29672 -5
      vertex 0.736877 -2.38895 5
      vertex 0.987473 -2.29672 5
    endloop
  endfacet
  facet normal -0.345393 0.938458 0
    outer loop
      vertex 0.736877 -2.38895 5
      vertex 0.987473 -2.29672 -5
      vertex 0.736877 -2.38895 -5
    endloop
  endfacet
  facet normal -0.243252 0.969963 0
    outer loop
      vertex 0.736877 -2.38895 -5
      vertex 0.47789 -2.4539 5
      vertex 0.736877 -2.38895 5
    endloop
  endfacet
  facet normal -0.243252 0.969963 0
    outer loop
      vertex 0.47789 -2.4539 5
      vertex 0.736877 -2.38895 -5
      vertex 0.47789 -2.4539 -5
    endloop
  endfacet
  facet normal -0.13849 0.990364 0
    outer loop
      vertex 0.47789 -2.4539 -5
      vertex 0.21344 -2.49088 5
      vertex 0.47789 -2.4539 5
    endloop
  endfacet
  facet normal -0.13849 0.990364 0
    outer loop
      vertex 0.21344 -2.49088 5
      vertex 0.47789 -2.4539 -5
      vertex 0.21344 -2.49088 -5
    endloop
  endfacet
  facet normal -0.0320583 0.999486 0
    outer loop
      vertex 0.21344 -2.49088 -5
      vertex -0.0534363 -2.49944 5
      vertex 0.21344 -2.49088 5
    endloop
  endfacet
  facet normal -0.0320583 0.999486 0
    outer loop
      vertex -0.0534363 -2.49944 5
      vertex 0.21344 -2.49088 -5
      vertex -0.0534363 -2.49944 -5
    endloop
  endfacet
  facet normal 0.074753 0.997202 -0
    outer loop
      vertex -0.0534363 -2.49944 -5
      vertex -0.319702 -2.47948 5
      vertex -0.0534363 -2.49944 5
    endloop
  endfacet
  facet normal 0.074753 0.997202 0
    outer loop
      vertex -0.319702 -2.47948 5
      vertex -0.0534363 -2.49944 -5
      vertex -0.319702 -2.47948 -5
    endloop
  endfacet
  facet normal 0.180665 0.983545 -0
    outer loop
      vertex -0.319702 -2.47948 -5
      vertex -0.582321 -2.43124 5
      vertex -0.319702 -2.47948 5
    endloop
  endfacet
  facet normal 0.180665 0.983545 0
    outer loop
      vertex -0.582321 -2.43124 5
      vertex -0.319702 -2.47948 -5
      vertex -0.582321 -2.43124 -5
    endloop
  endfacet
  facet normal 0.284513 0.958672 -0
    outer loop
      vertex -0.582321 -2.43124 -5
      vertex -0.838303 -2.35527 5
      vertex -0.582321 -2.43124 5
    endloop
  endfacet
  facet normal 0.284513 0.958672 0
    outer loop
      vertex -0.838303 -2.35527 5
      vertex -0.582321 -2.43124 -5
      vertex -0.838303 -2.35527 -5
    endloop
  endfacet
  facet normal 0.385181 0.922841 -0
    outer loop
      vertex -0.838303 -2.35527 -5
      vertex -1 -2.28778 5
      vertex -0.838303 -2.35527 5
    endloop
  endfacet
  facet normal 0.385181 0.922841 0
    outer loop
      vertex -1 -2.28778 5
      vertex -0.838303 -2.35527 -5
      vertex -1 -2.28778 -5
    endloop
  endfacet
  facet normal 0.385181 -0.922841 0
    outer loop
      vertex -1 2.28777 -5
      vertex -0.838303 2.35526 5
      vertex -1 2.28777 5
    endloop
  endfacet
  facet normal 0.385181 -0.922841 0
    outer loop
      vertex -0.838303 2.35526 5
      vertex -1 2.28777 -5
      vertex -0.838303 2.35526 -5
    endloop
  endfacet
  facet normal 0.284513 -0.958672 0
    outer loop
      vertex -0.838303 2.35526 -5
      vertex -0.582321 2.43123 5
      vertex -0.838303 2.35526 5
    endloop
  endfacet
  facet normal 0.284513 -0.958672 0
    outer loop
      vertex -0.582321 2.43123 5
      vertex -0.838303 2.35526 -5
      vertex -0.582321 2.43123 -5
    endloop
  endfacet
  facet normal 0.180629 -0.983551 0
    outer loop
      vertex -0.582321 2.43123 -5
      vertex -0.319702 2.47946 5
      vertex -0.582321 2.43123 5
    endloop
  endfacet
  facet normal 0.180629 -0.983551 0
    outer loop
      vertex -0.319702 2.47946 5
      vertex -0.582321 2.43123 -5
      vertex -0.319702 2.47946 -5
    endloop
  endfacet
  facet normal 0.074753 -0.997202 0
    outer loop
      vertex -0.319702 2.47946 -5
      vertex -0.0534363 2.49942 5
      vertex -0.319702 2.47946 5
    endloop
  endfacet
  facet normal 0.074753 -0.997202 0
    outer loop
      vertex -0.0534363 2.49942 5
      vertex -0.319702 2.47946 -5
      vertex -0.0534363 2.49942 -5
    endloop
  endfacet
  facet normal -0.0320583 -0.999486 0
    outer loop
      vertex -0.0534363 2.49942 -5
      vertex 0.21344 2.49086 5
      vertex -0.0534363 2.49942 5
    endloop
  endfacet
  facet normal -0.0320583 -0.999486 -0
    outer loop
      vertex 0.21344 2.49086 5
      vertex -0.0534363 2.49942 -5
      vertex 0.21344 2.49086 -5
    endloop
  endfacet
  facet normal -0.138453 -0.990369 0
    outer loop
      vertex 0.21344 2.49086 -5
      vertex 0.47789 2.45389 5
      vertex 0.21344 2.49086 5
    endloop
  endfacet
  facet normal -0.138453 -0.990369 -0
    outer loop
      vertex 0.47789 2.45389 5
      vertex 0.21344 2.49086 -5
      vertex 0.47789 2.45389 -5
    endloop
  endfacet
  facet normal -0.243287 -0.969954 0
    outer loop
      vertex 0.47789 2.45389 -5
      vertex 0.736877 2.38893 5
      vertex 0.47789 2.45389 5
    endloop
  endfacet
  facet normal -0.243287 -0.969954 -0
    outer loop
      vertex 0.736877 2.38893 5
      vertex 0.47789 2.45389 -5
      vertex 0.736877 2.38893 -5
    endloop
  endfacet
  facet normal -0.34536 -0.93847 0
    outer loop
      vertex 0.736877 2.38893 -5
      vertex 0.987473 2.29671 5
      vertex 0.736877 2.38893 5
    endloop
  endfacet
  facet normal -0.34536 -0.93847 -0
    outer loop
      vertex 0.987473 2.29671 5
      vertex 0.736877 2.38893 -5
      vertex 0.987473 2.29671 -5
    endloop
  endfacet
  facet normal -0.443575 -0.896237 0
    outer loop
      vertex 0.987473 2.29671 -5
      vertex 1 2.29051 5
      vertex 0.987473 2.29671 5
    endloop
  endfacet
  facet normal -0.443575 -0.896237 -0
    outer loop
      vertex 1 2.29051 5
      vertex 0.987473 2.29671 -5
      vertex 1 2.29051 -5
    endloop
  endfacet
  facet normal 0.500002 -0.866024 0
    outer loop
      vertex 3 1.73205 -5
      vertex 4.33012 2.5 5
      vertex 3 1.73205 5
    endloop
  endfacet
  facet normal 0.500002 -0.866024 0
    outer loop
      vertex 4.33012 2.5 5
      vertex 3 1.73205 -5
      vertex 4.33012 2.5 -5
    endloop
  endfacet
  facet normal 0.838087 0.545536 0
    outer loop
      vertex 4.33012 2.5 5
      vertex 4.03879 2.94756 -5
      vertex 4.03879 2.94756 5
    endloop
  endfacet
  facet normal 0.838087 0.545536 0
    outer loop
      vertex 4.03879 2.94756 -5
      vertex 4.33012 2.5 5
      vertex 4.33012 2.5 -5
    endloop
  endfacet
  facet normal 0.775129 0.631803 0
    outer loop
      vertex 4.03879 2.94756 5
      vertex 3.70139 3.3615 -5
      vertex 3.70139 3.3615 5
    endloop
  endfacet
  facet normal 0.775129 0.631803 0
    outer loop
      vertex 3.70139 3.3615 -5
      vertex 4.03879 2.94756 5
      vertex 4.03879 2.94756 -5
    endloop
  endfacet
  facet normal 0.703305 0.710888 -0
    outer loop
      vertex 3.70139 3.3615 -5
      vertex 3.32175 3.73709 5
      vertex 3.70139 3.3615 5
    endloop
  endfacet
  facet normal 0.703305 0.710888 0
    outer loop
      vertex 3.32175 3.73709 5
      vertex 3.70139 3.3615 -5
      vertex 3.32175 3.73709 -5
    endloop
  endfacet
  facet normal 0.623498 0.781825 -0
    outer loop
      vertex 3.32175 3.73709 -5
      vertex 2.90424 4.07005 5
      vertex 3.32175 3.73709 5
    endloop
  endfacet
  facet normal 0.623498 0.781825 0
    outer loop
      vertex 2.90424 4.07005 5
      vertex 3.32175 3.73709 -5
      vertex 2.90424 4.07005 -5
    endloop
  endfacet
  facet normal 0.536537 0.843877 -0
    outer loop
      vertex 2.90424 4.07005 -5
      vertex 2.45358 4.35658 5
      vertex 2.90424 4.07005 5
    endloop
  endfacet
  facet normal 0.536537 0.843877 0
    outer loop
      vertex 2.45358 4.35658 5
      vertex 2.90424 4.07005 -5
      vertex 2.45358 4.35658 -5
    endloop
  endfacet
  facet normal 0.443487 0.896281 -0
    outer loop
      vertex 2.45358 4.35658 -5
      vertex 1.97495 4.59341 5
      vertex 2.45358 4.35658 5
    endloop
  endfacet
  facet normal 0.443487 0.896281 0
    outer loop
      vertex 1.97495 4.59341 5
      vertex 2.45358 4.35658 -5
      vertex 1.97495 4.59341 -5
    endloop
  endfacet
  facet normal 0.345383 0.938462 -0
    outer loop
      vertex 1.97495 4.59341 -5
      vertex 1.47377 4.77786 5
      vertex 1.97495 4.59341 5
    endloop
  endfacet
  facet normal 0.345383 0.938462 0
    outer loop
      vertex 1.47377 4.77786 5
      vertex 1.97495 4.59341 -5
      vertex 1.47377 4.77786 -5
    endloop
  endfacet
  facet normal 0.243298 0.969952 -0
    outer loop
      vertex 1.47377 4.77786 -5
      vertex 0.95578 4.90779 5
      vertex 1.47377 4.77786 5
    endloop
  endfacet
  facet normal 0.243298 0.969952 0
    outer loop
      vertex 0.95578 4.90779 5
      vertex 1.47377 4.77786 -5
      vertex 0.95578 4.90779 -5
    endloop
  endfacet
  facet normal 0.138475 0.990366 -0
    outer loop
      vertex 0.95578 4.90779 -5
      vertex 0.426895 4.98174 5
      vertex 0.95578 4.90779 5
    endloop
  endfacet
  facet normal 0.138475 0.990366 0
    outer loop
      vertex 0.426895 4.98174 5
      vertex 0.95578 4.90779 -5
      vertex 0.426895 4.98174 -5
    endloop
  endfacet
  facet normal 0.0320583 0.999486 -0
    outer loop
      vertex 0.426895 4.98174 -5
      vertex -0.106857 4.99886 5
      vertex 0.426895 4.98174 5
    endloop
  endfacet
  facet normal 0.0320583 0.999486 0
    outer loop
      vertex -0.106857 4.99886 5
      vertex 0.426895 4.98174 -5
      vertex -0.106857 4.99886 -5
    endloop
  endfacet
  facet normal -0.0747529 0.997202 0
    outer loop
      vertex -0.106857 4.99886 -5
      vertex -0.639389 4.95894 5
      vertex -0.106857 4.99886 5
    endloop
  endfacet
  facet normal -0.0747529 0.997202 0
    outer loop
      vertex -0.639389 4.95894 5
      vertex -0.106857 4.99886 -5
      vertex -0.639389 4.95894 -5
    endloop
  endfacet
  facet normal -0.180643 0.983549 0
    outer loop
      vertex -0.639389 4.95894 -5
      vertex -1.16464 4.86247 5
      vertex -0.639389 4.95894 5
    endloop
  endfacet
  facet normal -0.180643 0.983549 0
    outer loop
      vertex -1.16464 4.86247 5
      vertex -0.639389 4.95894 -5
      vertex -1.16464 4.86247 -5
    endloop
  endfacet
  facet normal -0.284521 0.95867 0
    outer loop
      vertex -1.16464 4.86247 -5
      vertex -1.67659 4.71053 5
      vertex -1.16464 4.86247 5
    endloop
  endfacet
  facet normal -0.284521 0.95867 0
    outer loop
      vertex -1.67659 4.71053 5
      vertex -1.16464 4.86247 -5
      vertex -1.67659 4.71053 -5
    endloop
  endfacet
  facet normal -0.385158 0.922851 0
    outer loop
      vertex -1.67659 4.71053 -5
      vertex -2.16943 4.50484 5
      vertex -1.67659 4.71053 5
    endloop
  endfacet
  facet normal -0.385158 0.922851 0
    outer loop
      vertex -2.16943 4.50484 5
      vertex -1.67659 4.71053 -5
      vertex -2.16943 4.50484 -5
    endloop
  endfacet
  facet normal -0.481381 0.876511 0
    outer loop
      vertex -2.16943 4.50484 -5
      vertex -2.63751 4.24777 5
      vertex -2.16943 4.50484 5
    endloop
  endfacet
  facet normal -0.481381 0.876511 0
    outer loop
      vertex -2.63751 4.24777 5
      vertex -2.16943 4.50484 -5
      vertex -2.63751 4.24777 -5
    endloop
  endfacet
  facet normal -0.572113 0.820175 0
    outer loop
      vertex -2.63751 4.24777 -5
      vertex -3.0755 3.94225 5
      vertex -2.63751 4.24777 5
    endloop
  endfacet
  facet normal -0.572113 0.820175 0
    outer loop
      vertex -3.0755 3.94225 5
      vertex -2.63751 4.24777 -5
      vertex -3.0755 3.94225 -5
    endloop
  endfacet
  facet normal -0.656333 0.754471 0
    outer loop
      vertex -3.0755 3.94225 -5
      vertex -3.47842 3.59174 5
      vertex -3.0755 3.94225 5
    endloop
  endfacet
  facet normal -0.656333 0.754471 0
    outer loop
      vertex -3.47842 3.59174 5
      vertex -3.0755 3.94225 -5
      vertex -3.47842 3.59174 -5
    endloop
  endfacet
  facet normal -0.733044 0.680182 0
    outer loop
      vertex -3.84166 3.20027 -5
      vertex -3.47842 3.59174 5
      vertex -3.47842 3.59174 -5
    endloop
  endfacet
  facet normal -0.733044 0.680182 0
    outer loop
      vertex -3.47842 3.59174 5
      vertex -3.84166 3.20027 -5
      vertex -3.84166 3.20027 5
    endloop
  endfacet
  facet normal -0.801424 0.598097 0
    outer loop
      vertex -3.99112 3 -5
      vertex -3.84166 3.20027 5
      vertex -3.84166 3.20027 -5
    endloop
  endfacet
  facet normal -0.801424 0.598097 0
    outer loop
      vertex -3.84166 3.20027 5
      vertex -3.99112 3 -5
      vertex -3.99112 3 5
    endloop
  endfacet
  facet normal -1 0 0
    outer loop
      vertex -1 -2.5 -5
      vertex -1 -2.28778 5
      vertex -1 -2.28778 -5
    endloop
  endfacet
  facet normal -1 -0 0
    outer loop
      vertex -1 -2.28778 5
      vertex -1 -2.5 -5
      vertex -1 -2.5 5
    endloop
  endfacet
  facet normal -1 0 0
    outer loop
      vertex -1 2.28777 -5
      vertex -1 3 5
      vertex -1 3 -5
    endloop
  endfacet
  facet normal -1 -0 0
    outer loop
      vertex -1 3 5
      vertex -1 2.28777 -5
      vertex -1 2.28777 5
    endloop
  endfacet
  facet normal 0 -1 0
    outer loop
      vertex -1 -2.5 -5
      vertex 1 -2.5 5
      vertex -1 -2.5 5
    endloop
  endfacet
  facet normal 0 -1 -0
    outer loop
      vertex 1 -2.5 5
      vertex -1 -2.5 -5
      vertex 1 -2.5 -5
    endloop
  endfacet
  facet normal 1 -0 0
    outer loop
      vertex 1 -2.5 5
      vertex 1 -2.29052 -5
      vertex 1 -2.29052 5
    endloop
  endfacet
  facet normal 1 0 0
    outer loop
      vertex 1 -2.29052 -5
      vertex 1 -2.5 5
      vertex 1 -2.5 -5
    endloop
  endfacet
  facet normal 1 -0 0
    outer loop
      vertex 1 2.29051 5
      vertex 1 3 -5
      vertex 1 3 5
    endloop
  endfacet
  facet normal 1 0 0
    outer loop
      vertex 1 3 -5
      vertex 1 2.29051 5
      vertex 1 2.29051 -5
    endloop
  endfacet
  facet normal 0 -1 0
    outer loop
      vertex 1 3 -5
      vertex 3 3 5
      vertex 1 3 5
    endloop
  endfacet
  facet normal 0 -1 -0
    outer loop
      vertex 3 3 5
      vertex 1 3 -5
      vertex 3 3 -5
    endloop
  endfacet
  facet normal -1 0 0
    outer loop
      vertex 3 1.73205 -5
      vertex 3 3 5
      vertex 3 3 -5
    endloop
  endfacet
  facet normal -1 -0 0
    outer loop
      vertex 3 3 5
      vertex 3 1.73205 -5
      vertex 3 1.73205 5
    endloop
  endfacet
  facet normal -1 0 0
    outer loop
      vertex 3 -3.9937 -5
      vertex 3 -1.73205 5
      vertex 3 -1.73205 -5
    endloop
  endfacet
  facet normal -1 -0 0
    outer loop
      vertex 3 -1.73205 5
      vertex 3 -3.9937 -5
      vertex 3 -3.9937 5
    endloop
  endfacet
  facet normal 0 -1 0
    outer loop
      vertex -3.99112 3 -5
      vertex -1 3 5
      vertex -3.99112 3 5
    endloop
  endfacet
  facet normal 0 -1 -0
    outer loop
      vertex -1 3 5
      vertex -3.99112 3 -5
      vertex -1 3 -5
    endloop
  endfacet
endsolid OpenSCAD_Model
