solid OpenSCAD_Model
  facet normal 0 0 -1
    outer loop
      vertex -0.356964 -1.40723 -5
      vertex 1.26826 -4.83649 -5
      vertex 0.95578 -4.90781 -5
    endloop
  endfacet
  facet normal 0 0 -1
    outer loop
      vertex -0.187637 -1.28419 -5
      vertex 2.16942 -4.50485 -5
      vertex 1.87633 -4.6346 -5
    endloop
  endfacet
  facet normal -0 0 -1
    outer loop
      vertex 2.45358 -4.3566 -5
      vertex 2.16942 -4.50485 -5
      vertex -0.0350647 -1.14091 -5
    endloop
  endfacet
  facet normal 0 -0 -1
    outer loop
      vertex 0.0983582 -0.979645 -5
      vertex 2.72766 -4.19044 -5
      vertex -0.0350647 -1.14091 -5
    endloop
  endfacet
  facet normal -0 0 -1
    outer loop
      vertex 3.24113 -3.80724 -5
      vertex 2.99054 -4.00708 -5
      vertex 0.0983582 -0.979645 -5
    endloop
  endfacet
  facet normal 0 0 -1
    outer loop
      vertex 3.47841 -3.59175 -5
      vertex 0.0983582 -0.979645 -5
      vertex 0.21051 -0.802933 -5
    endloop
  endfacet
  facet normal -0 0 -1
    outer loop
      vertex 3.70139 -3.36151 -5
      vertex 3.47841 -3.59175 -5
      vertex 0.21051 -0.802933 -5
    endloop
  endfacet
  facet normal 0 0 -1
    outer loop
      vertex 1.57553 -4.74529 -5
      vertex -0.356964 -1.40723 -5
      vertex -0.187637 -1.28419 -5
    endloop
  endfacet
  facet normal 0 0 -1
    outer loop
      vertex 4.10086 -2.8606 -5
      vertex 0.299622 -0.613556 -5
      vertex 4.27571 -2.59196 -5
    endloop
  endfacet
  facet normal -0 0 -1
    outer loop
      vertex 4.69234 -1.72684 -5
      vertex 4.57205 -2.02393 -5
      vertex 0.364304 -0.41449 -5
    endloop
  endfacet
  facet normal 0 -0 -1
    outer loop
      vertex 0.416656 0 -5
      vertex 4.97688 -0.480118 -5
      vertex 0.403519 -0.208893 -5
    endloop
  endfacet
  facet normal 0 0 -1
    outer loop
      vertex 4.79333 -1.42264 -5
      vertex 0.403519 -0.208893 -5
      vertex 4.87463 -1.11261 -5
    endloop
  endfacet
  facet normal -0 0 -1
    outer loop
      vertex 4.79333 -1.42264 -5
      vertex 4.69234 -1.72684 -5
      vertex 0.364304 -0.41449 -5
    endloop
  endfacet
  facet normal -0 0 -1
    outer loop
      vertex 4.97688 -0.480118 -5
      vertex 4.9359 -0.798004 -5
      vertex 0.403519 -0.208893 -5
    endloop
  endfacet
  facet normal 0 0 -1
    outer loop
      vertex 0.299622 -0.613556 -5
      vertex 0.364304 -0.41449 -5
      vertex 4.43298 -2.3127 -5
    endloop
  endfacet
  facet normal -0 0 -1
    outer loop
      vertex 4.10086 -2.8606 -5
      vertex 3.90915 -3.11746 -5
      vertex 0.21051 -0.802933 -5
    endloop
  endfacet
  facet normal 0 0 -1
    outer loop
      vertex 0.364304 0.414474 -5
      vertex 4.79333 1.42262 -5
      vertex 0.403519 0.208878 -5
    endloop
  endfacet
  facet normal 0 -0 -1
    outer loop
      vertex 4.9359 0.797989 -5
      vertex 4.97688 0.480103 -5
      vertex 0.403519 0.208878 -5
    endloop
  endfacet
  facet normal 0 0 -1
    outer loop
      vertex 0.403519 0.208878 -5
      vertex 4.79333 1.42262 -5
      vertex 4.87463 1.11259 -5
    endloop
  endfacet
  facet normal 0 0 -1
    outer loop
      vertex 4.97688 0.480103 -5
      vertex 0.416656 0 -5
      vertex 0.403519 0.208878 -5
    endloop
  endfacet
  facet normal -0 0 -1
    outer loop
      vertex 4.69234 1.72682 -5
      vertex 0.364304 0.414474 -5
      vertex 4.57205 2.02391 -5
    endloop
  endfacet
  facet normal 0 0 -1
    outer loop
      vertex 0.416656 0 -5
      vertex 4.99742 0.160248 -5
      vertex 4.99742 -0.160263 -5
    endloop
  endfacet
  facet normal 0 0 -1
    outer loop
      vertex 0.299622 0.613541 -5
      vertex 4.10086 2.86058 -5
      vertex 4.27571 2.59195 -5
    endloop
  endfacet
  facet normal -0 0 -1
    outer loop
      vertex 4.43298 2.31268 -5
      vertex 0.299622 0.613541 -5
      vertex 4.27571 2.59195 -5
    endloop
  endfacet
  facet normal 0 -0 -1
    outer loop
      vertex 4.43298 2.31268 -5
      vertex 4.57205 2.02391 -5
      vertex 0.364304 0.414474 -5
    endloop
  endfacet
  facet normal 0 0 -1
    outer loop
      vertex 0.0983582 0.97963 -5
      vertex 2.72766 4.19043 -5
      vertex 2.99054 4.00706 -5
    endloop
  endfacet
  facet normal -0 0 -1
    outer loop
      vertex 3.70139 3.3615 -5
      vertex 0.21051 0.802917 -5
      vertex 3.47841 3.59174 -5
    endloop
  endfacet
  facet normal -0 0 -1
    outer loop
      vertex 3.47841 3.59174 -5
      vertex 0.0983582 0.97963 -5
      vertex 3.24113 3.80722 -5
    endloop
  endfacet
  facet normal -0 0 -1
    outer loop
      vertex 3.24113 3.80722 -5
      vertex 0.0983582 0.97963 -5
      vertex 2.99054 4.00706 -5
    endloop
  endfacet
  facet normal -0 0 -1
    outer loop
      vertex 3.90915 3.11745 -5
      vertex 0.21051 0.802917 -5
      vertex 3.70139 3.3615 -5
    endloop
  endfacet
  facet normal -0 0 -1
    outer loop
      vertex 2.72766 4.19043 -5
      vertex -0.0350647 1.1409 -5
      vertex 2.45358 4.35658 -5
    endloop
  endfacet
  facet normal -0 0 -1
    outer loop
      vertex 2.45358 4.35658 -5
      vertex -0.0350647 1.1409 -5
      vertex 2.16942 4.50484 -5
    endloop
  endfacet
  facet normal -0 0 -1
    outer loop
      vertex 2.16942 4.50484 -5
      vertex -0.187637 1.28418 -5
      vertex 1.87633 4.63458 -5
    endloop
  endfacet
  facet normal -0 0 -1
    outer loop
      vertex 1.87633 4.63458 -5
      vertex -0.187637 1.28418 -5
      vertex 1.57553 4.74527 -5
    endloop
  endfacet
  facet normal 0 0 -1
    outer loop
      vertex 1.57553 4.74527 -5
      vertex -0.187637 1.28418 -5
      vertex -0.356964 1.40721 -5
    endloop
  endfacet
  facet normal -0 0 -1
    outer loop
      vertex 1.26826 4.83647 -5
      vertex -0.356964 1.40721 -5
      vertex 0.95578 4.90779 -5
    endloop
  endfacet
  facet normal -0 0 -1
    outer loop
      vertex 0.95578 4.90779 -5
      vertex -0.356964 1.40721 -5
      vertex 0.639374 4.95894 -5
    endloop
  endfacet
  facet normal -0 0 -1
    outer loop
      vertex 0.639374 4.95894 -5
      vertex -0.540375 1.50804 -5
      vertex 0.320343 4.98972 -5
    endloop
  endfacet
  facet normal 0 0 -1
    outer loop
      vertex 0.21051 0.802917 -5
      vertex 4.10086 2.86058 -5
      vertex 0.299622 0.613541 -5
    endloop
  endfacet
  facet normal 0 0 -1
    outer loop
      vertex 0 5 -5
      vertex -0.734985 1.58508 -5
      vertex -0.937698 1.63713 -5
    endloop
  endfacet
  facet normal 0 0 -1
    outer loop
      vertex -1.35466 1.66338 -5
      vertex 0 5 -5
      vertex -1.14536 1.66338 -5
    endloop
  endfacet
  facet normal 0 0 -1
    outer loop
      vertex 0 5 -5
      vertex -0.540375 1.50804 -5
      vertex -0.734985 1.58508 -5
    endloop
  endfacet
  facet normal 0 0 -1
    outer loop
      vertex 0 5 -5
      vertex -1.56232 1.63713 -5
      vertex -1.76503 1.58508 -5
    endloop
  endfacet
  facet normal 0 0 -1
    outer loop
      vertex -5 5 -5
      vertex 0 5 -5
      vertex -1.76503 1.58508 -5
    endloop
  endfacet
  facet normal 0 0 -1
    outer loop
      vertex -2.14305 1.40721 -5
      vertex -5 5 -5
      vertex -1.95964 1.50804 -5
    endloop
  endfacet
  facet normal 0 -0 -1
    outer loop
      vertex 0 5 -5
      vertex 0.320343 4.98972 -5
      vertex -0.540375 1.50804 -5
    endloop
  endfacet
  facet normal 0 0 -1
    outer loop
      vertex -5 5 -5
      vertex -2.14305 1.40721 -5
      vertex -2.31238 1.28418 -5
    endloop
  endfacet
  facet normal 0 0 -1
    outer loop
      vertex -2.46495 1.1409 -5
      vertex -5 5 -5
      vertex -2.31238 1.28418 -5
    endloop
  endfacet
  facet normal 0 0 -1
    outer loop
      vertex -0.540375 -1.50806 -5
      vertex -0.356964 -1.40723 -5
      vertex 0.639374 -4.95895 -5
    endloop
  endfacet
  facet normal -0 -0 -1
    outer loop
      vertex -1.14536 -1.66339 -5
      vertex 0 -5 -5
      vertex -1.35466 -1.66339 -5
    endloop
  endfacet
  facet normal 0 0 -1
    outer loop
      vertex 0 -5 -5
      vertex -1.56232 -1.63715 -5
      vertex -1.35466 -1.66339 -5
    endloop
  endfacet
  facet normal 0 0 -1
    outer loop
      vertex 0 -5 -5
      vertex -1.76503 -1.5851 -5
      vertex -1.56232 -1.63715 -5
    endloop
  endfacet
  facet normal 0 0 -1
    outer loop
      vertex 0 -5 -5
      vertex -5 -5 -5
      vertex -1.76503 -1.5851 -5
    endloop
  endfacet
  facet normal -0 0 -1
    outer loop
      vertex -1.76503 -1.5851 -5
      vertex -5 -5 -5
      vertex -1.95964 -1.50806 -5
    endloop
  endfacet
  facet normal -0 0 -1
    outer loop
      vertex -1.95964 -1.50806 -5
      vertex -5 -5 -5
      vertex -2.14305 -1.40723 -5
    endloop
  endfacet
  facet normal -0 0 -1
    outer loop
      vertex -2.14305 -1.40723 -5
      vertex -5 -5 -5
      vertex -2.31238 -1.28419 -5
    endloop
  endfacet
  facet normal -0 0 -1
    outer loop
      vertex -2.31238 -1.28419 -5
      vertex -5 -5 -5
      vertex -2.46495 -1.14091 -5
    endloop
  endfacet
  facet normal -0 0 -1
    outer loop
      vertex -2.46495 -1.14091 -5
      vertex -5 -5 -5
      vertex -2.59837 -0.979645 -5
    endloop
  endfacet
  facet normal -0 0 -1
    outer loop
      vertex -2.59837 -0.979645 -5
      vertex -5 -5 -5
      vertex -2.71053 -0.802933 -5
    endloop
  endfacet
  facet normal -0 0 -1
    outer loop
      vertex -2.71053 -0.802933 -5
      vertex -5 -5 -5
      vertex -2.79964 -0.613556 -5
    endloop
  endfacet
  facet normal -0 0 -1
    outer loop
      vertex -2.79964 -0.613556 -5
      vertex -5 -5 -5
      vertex -2.86432 -0.41449 -5
    endloop
  endfacet
  facet normal -0 0 -1
    outer loop
      vertex -2.86432 -0.41449 -5
      vertex -5 -5 -5
      vertex -2.90353 -0.208893 -5
    endloop
  endfacet
  facet normal -0 0 -1
    outer loop
      vertex -2.90353 -0.208893 -5
      vertex -5 -5 -5
      vertex -2.91667 0 -5
    endloop
  endfacet
  facet normal -0 0 -1
    outer loop
      vertex -2.91667 0 -5
      vertex -5 -5 -5
      vertex -5 5 -5
    endloop
  endfacet
  facet normal -0 0 -1
    outer loop
      vertex -2.90353 0.208878 -5
      vertex -2.91667 0 -5
      vertex -5 5 -5
    endloop
  endfacet
  facet normal -0 0 -1
    outer loop
      vertex -2.86432 0.414474 -5
      vertex -2.90353 0.208878 -5
      vertex -5 5 -5
    endloop
  endfacet
  facet normal -0 0 -1
    outer loop
      vertex -2.79964 0.613541 -5
      vertex -2.86432 0.414474 -5
      vertex -5 5 -5
    endloop
  endfacet
  facet normal -0 0 -1
    outer loop
      vertex -2.71053 0.802917 -5
      vertex -2.79964 0.613541 -5
      vertex -5 5 -5
    endloop
  endfacet
  facet normal -0 0 -1
    outer loop
      vertex -2.46495 1.1409 -5
      vertex -2.59837 0.97963 -5
      vertex -5 5 -5
    endloop
  endfacet
  facet normal -0 0 -1
    outer loop
      vertex -2.59837 0.97963 -5
      vertex -2.71053 0.802917 -5
      vertex -5 5 -5
    endloop
  endfacet
  facet normal 0 0 -1
    outer loop
      vertex -1.95964 1.50804 -5
      vertex -5 5 -5
      vertex -1.76503 1.58508 -5
    endloop
  endfacet
  facet normal 0 0 -1
    outer loop
      vertex 0 5 -5
      vertex -1.35466 1.66338 -5
      vertex -1.56232 1.63713 -5
    endloop
  endfacet
  facet normal 0 0 -1
    outer loop
      vertex 0 5 -5
      vertex -0.937698 1.63713 -5
      vertex -1.14536 1.66338 -5
    endloop
  endfacet
  facet normal 0 0 -1
    outer loop
      vertex 0.639374 4.95894 -5
      vertex -0.356964 1.40721 -5
      vertex -0.540375 1.50804 -5
    endloop
  endfacet
  facet normal 0 -0 -1
    outer loop
      vertex 1.26826 4.83647 -5
      vertex 1.57553 4.74527 -5
      vertex -0.356964 1.40721 -5
    endloop
  endfacet
  facet normal 0 0 -1
    outer loop
      vertex 2.16942 4.50484 -5
      vertex -0.0350647 1.1409 -5
      vertex -0.187637 1.28418 -5
    endloop
  endfacet
  facet normal 0 0 -1
    outer loop
      vertex 2.72766 4.19043 -5
      vertex 0.0983582 0.97963 -5
      vertex -0.0350647 1.1409 -5
    endloop
  endfacet
  facet normal 0 0 -1
    outer loop
      vertex 3.47841 3.59174 -5
      vertex 0.21051 0.802917 -5
      vertex 0.0983582 0.97963 -5
    endloop
  endfacet
  facet normal 0 -0 -1
    outer loop
      vertex 3.90915 3.11745 -5
      vertex 4.10086 2.86058 -5
      vertex 0.21051 0.802917 -5
    endloop
  endfacet
  facet normal 0 0 -1
    outer loop
      vertex 4.43298 2.31268 -5
      vertex 0.364304 0.414474 -5
      vertex 0.299622 0.613541 -5
    endloop
  endfacet
  facet normal 0 -0 -1
    outer loop
      vertex 4.69234 1.72682 -5
      vertex 4.79333 1.42262 -5
      vertex 0.364304 0.414474 -5
    endloop
  endfacet
  facet normal 0 -0 -1
    outer loop
      vertex 4.87463 1.11259 -5
      vertex 4.9359 0.797989 -5
      vertex 0.403519 0.208878 -5
    endloop
  endfacet
  facet normal 0 -0 -1
    outer loop
      vertex 4.97688 0.480103 -5
      vertex 4.99742 0.160248 -5
      vertex 0.416656 0 -5
    endloop
  endfacet
  facet normal 0 0 -1
    outer loop
      vertex 0.416656 0 -5
      vertex 4.99742 -0.160263 -5
      vertex 4.97688 -0.480118 -5
    endloop
  endfacet
  facet normal 0 0 -1
    outer loop
      vertex 0.403519 -0.208893 -5
      vertex 4.9359 -0.798004 -5
      vertex 4.87463 -1.11261 -5
    endloop
  endfacet
  facet normal 0 0 -1
    outer loop
      vertex 0.364304 -0.41449 -5
      vertex 0.403519 -0.208893 -5
      vertex 4.79333 -1.42264 -5
    endloop
  endfacet
  facet normal 0 0 -1
    outer loop
      vertex 4.43298 -2.3127 -5
      vertex 0.364304 -0.41449 -5
      vertex 4.57205 -2.02393 -5
    endloop
  endfacet
  facet normal 0 0 -1
    outer loop
      vertex 4.27571 -2.59196 -5
      vertex 0.299622 -0.613556 -5
      vertex 4.43298 -2.3127 -5
    endloop
  endfacet
  facet normal 0 0 -1
    outer loop
      vertex 4.10086 -2.8606 -5
      vertex 0.21051 -0.802933 -5
      vertex 0.299622 -0.613556 -5
    endloop
  endfacet
  facet normal -0 0 -1
    outer loop
      vertex 3.90915 -3.11746 -5
      vertex 3.70139 -3.36151 -5
      vertex 0.21051 -0.802933 -5
    endloop
  endfacet
  facet normal -0 0 -1
    outer loop
      vertex 3.47841 -3.59175 -5
      vertex 3.24113 -3.80724 -5
      vertex 0.0983582 -0.979645 -5
    endloop
  endfacet
  facet normal 0 0 -1
    outer loop
      vertex 0.0983582 -0.979645 -5
      vertex 2.99054 -4.00708 -5
      vertex 2.72766 -4.19044 -5
    endloop
  endfacet
  facet normal 0 0 -1
    outer loop
      vertex -0.0350647 -1.14091 -5
      vertex 2.72766 -4.19044 -5
      vertex 2.45358 -4.3566 -5
    endloop
  endfacet
  facet normal 0 0 -1
    outer loop
      vertex -0.187637 -1.28419 -5
      vertex -0.0350647 -1.14091 -5
      vertex 2.16942 -4.50485 -5
    endloop
  endfacet
  facet normal 0 0 -1
    outer loop
      vertex 1.57553 -4.74529 -5
      vertex -0.187637 -1.28419 -5
      vertex 1.87633 -4.6346 -5
    endloop
  endfacet
  facet normal 0 0 -1
    outer loop
      vertex 1.26826 -4.83649 -5
      vertex -0.356964 -1.40723 -5
      vertex 1.57553 -4.74529 -5
    endloop
  endfacet
  facet normal -0 0 -1
    outer loop
      vertex 0.95578 -4.90781 -5
      vertex 0.639374 -4.95895 -5
      vertex -0.356964 -1.40723 -5
    endloop
  endfacet
  facet normal -0 0 -1
    outer loop
      vertex 0.639374 -4.95895 -5
      vertex 0.320343 -4.98973 -5
      vertex -0.540375 -1.50806 -5
    endloop
  endfacet
  facet normal 0 0 -1
    outer loop
      vertex -0.540375 -1.50806 -5
      vertex 0.320343 -4.98973 -5
      vertex 0 -5 -5
    endloop
  endfacet
  facet normal 0 0 -1
    outer loop
      vertex -0.734985 -1.5851 -5
      vertex -0.540375 -1.50806 -5
      vertex 0 -5 -5
    endloop
  endfacet
  facet normal 0 0 -1
    outer loop
      vertex -1.14536 -1.66339 -5
      vertex -0.937698 -1.63715 -5
      vertex 0 -5 -5
    endloop
  endfacet
  facet normal 0 0 -1
    outer loop
      vertex -0.937698 -1.63715 -5
      vertex -0.734985 -1.5851 -5
      vertex 0 -5 -5
    endloop
  endfacet
  facet normal 0 -0 1
    outer loop
      vertex 0.95578 -4.90781 5
      vertex 1.26826 -4.83649 5
      vertex -0.356964 -1.40723 5
    endloop
  endfacet
  facet normal 0 -0 1
    outer loop
      vertex 1.87633 -4.6346 5
      vertex 2.16942 -4.50485 5
      vertex -0.187637 -1.28419 5
    endloop
  endfacet
  facet normal 0 0 1
    outer loop
      vertex -0.0350647 -1.14091 5
      vertex 2.16942 -4.50485 5
      vertex 2.45358 -4.3566 5
    endloop
  endfacet
  facet normal -0 0 1
    outer loop
      vertex -0.0350647 -1.14091 5
      vertex 2.72766 -4.19044 5
      vertex 0.0983582 -0.979645 5
    endloop
  endfacet
  facet normal 0 0 1
    outer loop
      vertex 0.0983582 -0.979645 5
      vertex 2.99054 -4.00708 5
      vertex 3.24113 -3.80724 5
    endloop
  endfacet
  facet normal 0 0 1
    outer loop
      vertex 0.21051 -0.802933 5
      vertex 0.0983582 -0.979645 5
      vertex 3.47841 -3.59175 5
    endloop
  endfacet
  facet normal 0 0 1
    outer loop
      vertex 0.21051 -0.802933 5
      vertex 3.47841 -3.59175 5
      vertex 3.70139 -3.36151 5
    endloop
  endfacet
  facet normal 0 0 1
    outer loop
      vertex -0.187637 -1.28419 5
      vertex -0.356964 -1.40723 5
      vertex 1.57553 -4.74529 5
    endloop
  endfacet
  facet normal 0 0 1
    outer loop
      vertex 4.27571 -2.59196 5
      vertex 0.299622 -0.613556 5
      vertex 4.10086 -2.8606 5
    endloop
  endfacet
  facet normal 0 0 1
    outer loop
      vertex 0.364304 -0.41449 5
      vertex 4.57205 -2.02393 5
      vertex 4.69234 -1.72684 5
    endloop
  endfacet
  facet normal -0 0 1
    outer loop
      vertex 0.403519 -0.208893 5
      vertex 4.97688 -0.480118 5
      vertex 0.416656 0 5
    endloop
  endfacet
  facet normal 0 0 1
    outer loop
      vertex 4.87463 -1.11261 5
      vertex 0.403519 -0.208893 5
      vertex 4.79333 -1.42264 5
    endloop
  endfacet
  facet normal 0 0 1
    outer loop
      vertex 0.364304 -0.41449 5
      vertex 4.69234 -1.72684 5
      vertex 4.79333 -1.42264 5
    endloop
  endfacet
  facet normal 0 0 1
    outer loop
      vertex 0.403519 -0.208893 5
      vertex 4.9359 -0.798004 5
      vertex 4.97688 -0.480118 5
    endloop
  endfacet
  facet normal 0 0 1
    outer loop
      vertex 4.43298 -2.3127 5
      vertex 0.364304 -0.41449 5
      vertex 0.299622 -0.613556 5
    endloop
  endfacet
  facet normal 0 0 1
    outer loop
      vertex 0.21051 -0.802933 5
      vertex 3.90915 -3.11746 5
      vertex 4.10086 -2.8606 5
    endloop
  endfacet
  facet normal 0 -0 1
    outer loop
      vertex 0.403519 0.208878 5
      vertex 4.79333 1.42262 5
      vertex 0.364304 0.414474 5
    endloop
  endfacet
  facet normal 0 0 1
    outer loop
      vertex 0.403519 0.208878 5
      vertex 4.97688 0.480103 5
      vertex 4.9359 0.797989 5
    endloop
  endfacet
  facet normal 0 0 1
    outer loop
      vertex 4.87463 1.11259 5
      vertex 4.79333 1.42262 5
      vertex 0.403519 0.208878 5
    endloop
  endfacet
  facet normal -0 0 1
    outer loop
      vertex 0.403519 0.208878 5
      vertex 0.416656 0 5
      vertex 4.97688 0.480103 5
    endloop
  endfacet
  facet normal 0 0 1
    outer loop
      vertex 4.57205 2.02391 5
      vertex 0.364304 0.414474 5
      vertex 4.69234 1.72682 5
    endloop
  endfacet
  facet normal 0 -0 1
    outer loop
      vertex 4.99742 -0.160263 5
      vertex 4.99742 0.160248 5
      vertex 0.416656 0 5
    endloop
  endfacet
  facet normal 0 0 1
    outer loop
      vertex 4.27571 2.59195 5
      vertex 4.10086 2.86058 5
      vertex 0.299622 0.613541 5
    endloop
  endfacet
  facet normal 0 0 1
    outer loop
      vertex 4.27571 2.59195 5
      vertex 0.299622 0.613541 5
      vertex 4.43298 2.31268 5
    endloop
  endfacet
  facet normal 0 0 1
    outer loop
      vertex 0.364304 0.414474 5
      vertex 4.57205 2.02391 5
      vertex 4.43298 2.31268 5
    endloop
  endfacet
  facet normal 0 0 1
    outer loop
      vertex 2.99054 4.00706 5
      vertex 2.72766 4.19043 5
      vertex 0.0983582 0.97963 5
    endloop
  endfacet
  facet normal 0 0 1
    outer loop
      vertex 3.47841 3.59174 5
      vertex 0.21051 0.802917 5
      vertex 3.70139 3.3615 5
    endloop
  endfacet
  facet normal 0 0 1
    outer loop
      vertex 3.24113 3.80722 5
      vertex 0.0983582 0.97963 5
      vertex 3.47841 3.59174 5
    endloop
  endfacet
  facet normal 0 0 1
    outer loop
      vertex 2.99054 4.00706 5
      vertex 0.0983582 0.97963 5
      vertex 3.24113 3.80722 5
    endloop
  endfacet
  facet normal 0 0 1
    outer loop
      vertex 3.70139 3.3615 5
      vertex 0.21051 0.802917 5
      vertex 3.90915 3.11745 5
    endloop
  endfacet
  facet normal 0 0 1
    outer loop
      vertex 2.45358 4.35658 5
      vertex -0.0350647 1.1409 5
      vertex 2.72766 4.19043 5
    endloop
  endfacet
  facet normal 0 0 1
    outer loop
      vertex 2.16942 4.50484 5
      vertex -0.0350647 1.1409 5
      vertex 2.45358 4.35658 5
    endloop
  endfacet
  facet normal 0 0 1
    outer loop
      vertex 1.87633 4.63458 5
      vertex -0.187637 1.28418 5
      vertex 2.16942 4.50484 5
    endloop
  endfacet
  facet normal 0 0 1
    outer loop
      vertex 1.57553 4.74527 5
      vertex -0.187637 1.28418 5
      vertex 1.87633 4.63458 5
    endloop
  endfacet
  facet normal -0 0 1
    outer loop
      vertex -0.356964 1.40721 5
      vertex -0.187637 1.28418 5
      vertex 1.57553 4.74527 5
    endloop
  endfacet
  facet normal 0 0 1
    outer loop
      vertex 0.95578 4.90779 5
      vertex -0.356964 1.40721 5
      vertex 1.26826 4.83647 5
    endloop
  endfacet
  facet normal 0 0 1
    outer loop
      vertex 0.639374 4.95894 5
      vertex -0.356964 1.40721 5
      vertex 0.95578 4.90779 5
    endloop
  endfacet
  facet normal 0 0 1
    outer loop
      vertex 0.320343 4.98972 5
      vertex -0.540375 1.50804 5
      vertex 0.639374 4.95894 5
    endloop
  endfacet
  facet normal 0 -0 1
    outer loop
      vertex 0.299622 0.613541 5
      vertex 4.10086 2.86058 5
      vertex 0.21051 0.802917 5
    endloop
  endfacet
  facet normal -0 0 1
    outer loop
      vertex -0.937698 1.63713 5
      vertex -0.734985 1.58508 5
      vertex 0 5 5
    endloop
  endfacet
  facet normal 0 -0 1
    outer loop
      vertex -1.14536 1.66338 5
      vertex 0 5 5
      vertex -1.35466 1.66338 5
    endloop
  endfacet
  facet normal -0 0 1
    outer loop
      vertex -0.734985 1.58508 5
      vertex -0.540375 1.50804 5
      vertex 0 5 5
    endloop
  endfacet
  facet normal 0 0 1
    outer loop
      vertex -1.76503 1.58508 5
      vertex -1.56232 1.63713 5
      vertex 0 5 5
    endloop
  endfacet
  facet normal 0 -0 1
    outer loop
      vertex -1.76503 1.58508 5
      vertex 0 5 5
      vertex -5 5 5
    endloop
  endfacet
  facet normal 0 0 1
    outer loop
      vertex -1.95964 1.50804 5
      vertex -5 5 5
      vertex -2.14305 1.40721 5
    endloop
  endfacet
  facet normal 0 0 1
    outer loop
      vertex -0.540375 1.50804 5
      vertex 0.320343 4.98972 5
      vertex 0 5 5
    endloop
  endfacet
  facet normal 0 -0 1
    outer loop
      vertex -2.31238 1.28418 5
      vertex -2.14305 1.40721 5
      vertex -5 5 5
    endloop
  endfacet
  facet normal 0 0 1
    outer loop
      vertex -2.31238 1.28418 5
      vertex -5 5 5
      vertex -2.46495 1.1409 5
    endloop
  endfacet
  facet normal 0 0 1
    outer loop
      vertex 0.639374 -4.95895 5
      vertex -0.356964 -1.40723 5
      vertex -0.540375 -1.50806 5
    endloop
  endfacet
  facet normal -0 0 1
    outer loop
      vertex -1.35466 -1.66339 5
      vertex 0 -5 5
      vertex -1.14536 -1.66339 5
    endloop
  endfacet
  facet normal 0 0 1
    outer loop
      vertex -1.35466 -1.66339 5
      vertex -1.56232 -1.63715 5
      vertex 0 -5 5
    endloop
  endfacet
  facet normal 0 0 1
    outer loop
      vertex -1.56232 -1.63715 5
      vertex -1.76503 -1.5851 5
      vertex 0 -5 5
    endloop
  endfacet
  facet normal 0 0 1
    outer loop
      vertex -1.76503 -1.5851 5
      vertex -5 -5 5
      vertex 0 -5 5
    endloop
  endfacet
  facet normal 0 0 1
    outer loop
      vertex -1.95964 -1.50806 5
      vertex -5 -5 5
      vertex -1.76503 -1.5851 5
    endloop
  endfacet
  facet normal 0 0 1
    outer loop
      vertex -2.14305 -1.40723 5
      vertex -5 -5 5
      vertex -1.95964 -1.50806 5
    endloop
  endfacet
  facet normal 0 0 1
    outer loop
      vertex -2.31238 -1.28419 5
      vertex -5 -5 5
      vertex -2.14305 -1.40723 5
    endloop
  endfacet
  facet normal 0 0 1
    outer loop
      vertex -2.46495 -1.14091 5
      vertex -5 -5 5
      vertex -2.31238 -1.28419 5
    endloop
  endfacet
  facet normal 0 0 1
    outer loop
      vertex -2.59837 -0.979645 5
      vertex -5 -5 5
      vertex -2.46495 -1.14091 5
    endloop
  endfacet
  facet normal 0 0 1
    outer loop
      vertex -2.71053 -0.802933 5
      vertex -5 -5 5
      vertex -2.59837 -0.979645 5
    endloop
  endfacet
  facet normal 0 0 1
    outer loop
      vertex -2.79964 -0.613556 5
      vertex -5 -5 5
      vertex -2.71053 -0.802933 5
    endloop
  endfacet
  facet normal 0 0 1
    outer loop
      vertex -2.86432 -0.41449 5
      vertex -5 -5 5
      vertex -2.79964 -0.613556 5
    endloop
  endfacet
  facet normal 0 0 1
    outer loop
      vertex -2.90353 -0.208893 5
      vertex -5 -5 5
      vertex -2.86432 -0.41449 5
    endloop
  endfacet
  facet normal 0 0 1
    outer loop
      vertex -2.91667 0 5
      vertex -5 -5 5
      vertex -2.90353 -0.208893 5
    endloop
  endfacet
  facet normal 0 0 1
    outer loop
      vertex -5 5 5
      vertex -5 -5 5
      vertex -2.91667 0 5
    endloop
  endfacet
  facet normal 0 0 1
    outer loop
      vertex -5 5 5
      vertex -2.91667 0 5
      vertex -2.90353 0.208878 5
    endloop
  endfacet
  facet normal 0 0 1
    outer loop
      vertex -5 5 5
      vertex -2.90353 0.208878 5
      vertex -2.86432 0.414474 5
    endloop
  endfacet
  facet normal 0 0 1
    outer loop
      vertex -5 5 5
      vertex -2.86432 0.414474 5
      vertex -2.79964 0.613541 5
    endloop
  endfacet
  facet normal 0 0 1
    outer loop
      vertex -5 5 5
      vertex -2.79964 0.613541 5
      vertex -2.71053 0.802917 5
    endloop
  endfacet
  facet normal 0 0 1
    outer loop
      vertex -5 5 5
      vertex -2.59837 0.97963 5
      vertex -2.46495 1.1409 5
    endloop
  endfacet
  facet normal 0 0 1
    outer loop
      vertex -5 5 5
      vertex -2.71053 0.802917 5
      vertex -2.59837 0.97963 5
    endloop
  endfacet
  facet normal 0 0 1
    outer loop
      vertex -1.76503 1.58508 5
      vertex -5 5 5
      vertex -1.95964 1.50804 5
    endloop
  endfacet
  facet normal 0 0 1
    outer loop
      vertex -1.56232 1.63713 5
      vertex -1.35466 1.66338 5
      vertex 0 5 5
    endloop
  endfacet
  facet normal -0 0 1
    outer loop
      vertex -1.14536 1.66338 5
      vertex -0.937698 1.63713 5
      vertex 0 5 5
    endloop
  endfacet
  facet normal -0 0 1
    outer loop
      vertex -0.540375 1.50804 5
      vertex -0.356964 1.40721 5
      vertex 0.639374 4.95894 5
    endloop
  endfacet
  facet normal 0 0 1
    outer loop
      vertex -0.356964 1.40721 5
      vertex 1.57553 4.74527 5
      vertex 1.26826 4.83647 5
    endloop
  endfacet
  facet normal -0 0 1
    outer loop
      vertex -0.187637 1.28418 5
      vertex -0.0350647 1.1409 5
      vertex 2.16942 4.50484 5
    endloop
  endfacet
  facet normal -0 0 1
    outer loop
      vertex -0.0350647 1.1409 5
      vertex 0.0983582 0.97963 5
      vertex 2.72766 4.19043 5
    endloop
  endfacet
  facet normal -0 0 1
    outer loop
      vertex 0.0983582 0.97963 5
      vertex 0.21051 0.802917 5
      vertex 3.47841 3.59174 5
    endloop
  endfacet
  facet normal 0 0 1
    outer loop
      vertex 0.21051 0.802917 5
      vertex 4.10086 2.86058 5
      vertex 3.90915 3.11745 5
    endloop
  endfacet
  facet normal -0 0 1
    outer loop
      vertex 0.299622 0.613541 5
      vertex 0.364304 0.414474 5
      vertex 4.43298 2.31268 5
    endloop
  endfacet
  facet normal 0 0 1
    outer loop
      vertex 0.364304 0.414474 5
      vertex 4.79333 1.42262 5
      vertex 4.69234 1.72682 5
    endloop
  endfacet
  facet normal 0 0 1
    outer loop
      vertex 0.403519 0.208878 5
      vertex 4.9359 0.797989 5
      vertex 4.87463 1.11259 5
    endloop
  endfacet
  facet normal 0 0 1
    outer loop
      vertex 0.416656 0 5
      vertex 4.99742 0.160248 5
      vertex 4.97688 0.480103 5
    endloop
  endfacet
  facet normal 0 -0 1
    outer loop
      vertex 4.97688 -0.480118 5
      vertex 4.99742 -0.160263 5
      vertex 0.416656 0 5
    endloop
  endfacet
  facet normal 0 -0 1
    outer loop
      vertex 4.87463 -1.11261 5
      vertex 4.9359 -0.798004 5
      vertex 0.403519 -0.208893 5
    endloop
  endfacet
  facet normal 0 0 1
    outer loop
      vertex 4.79333 -1.42264 5
      vertex 0.403519 -0.208893 5
      vertex 0.364304 -0.41449 5
    endloop
  endfacet
  facet normal 0 0 1
    outer loop
      vertex 4.57205 -2.02393 5
      vertex 0.364304 -0.41449 5
      vertex 4.43298 -2.3127 5
    endloop
  endfacet
  facet normal 0 0 1
    outer loop
      vertex 4.43298 -2.3127 5
      vertex 0.299622 -0.613556 5
      vertex 4.27571 -2.59196 5
    endloop
  endfacet
  facet normal 0 0 1
    outer loop
      vertex 0.299622 -0.613556 5
      vertex 0.21051 -0.802933 5
      vertex 4.10086 -2.8606 5
    endloop
  endfacet
  facet normal 0 0 1
    outer loop
      vertex 0.21051 -0.802933 5
      vertex 3.70139 -3.36151 5
      vertex 3.90915 -3.11746 5
    endloop
  endfacet
  facet normal 0 0 1
    outer loop
      vertex 0.0983582 -0.979645 5
      vertex 3.24113 -3.80724 5
      vertex 3.47841 -3.59175 5
    endloop
  endfacet
  facet normal 0 -0 1
    outer loop
      vertex 2.72766 -4.19044 5
      vertex 2.99054 -4.00708 5
      vertex 0.0983582 -0.979645 5
    endloop
  endfacet
  facet normal 0 -0 1
    outer loop
      vertex 2.45358 -4.3566 5
      vertex 2.72766 -4.19044 5
      vertex -0.0350647 -1.14091 5
    endloop
  endfacet
  facet normal 0 0 1
    outer loop
      vertex 2.16942 -4.50485 5
      vertex -0.0350647 -1.14091 5
      vertex -0.187637 -1.28419 5
    endloop
  endfacet
  facet normal 0 0 1
    outer loop
      vertex 1.87633 -4.6346 5
      vertex -0.187637 -1.28419 5
      vertex 1.57553 -4.74529 5
    endloop
  endfacet
  facet normal 0 0 1
    outer loop
      vertex 1.57553 -4.74529 5
      vertex -0.356964 -1.40723 5
      vertex 1.26826 -4.83649 5
    endloop
  endfacet
  facet normal 0 0 1
    outer loop
      vertex -0.356964 -1.40723 5
      vertex 0.639374 -4.95895 5
      vertex 0.95578 -4.90781 5
    endloop
  endfacet
  facet normal 0 0 1
    outer loop
      vertex -0.540375 -1.50806 5
      vertex 0.320343 -4.98973 5
      vertex 0.639374 -4.95895 5
    endloop
  endfacet
  facet normal 0 -0 1
    outer loop
      vertex 0 -5 5
      vertex 0.320343 -4.98973 5
      vertex -0.540375 -1.50806 5
    endloop
  endfacet
  facet normal 0 0 1
    outer loop
      vertex 0 -5 5
      vertex -0.540375 -1.50806 5
      vertex -0.734985 -1.5851 5
    endloop
  endfacet
  facet normal 0 0 1
    outer loop
      vertex 0 -5 5
      vertex -0.937698 -1.63715 5
      vertex -1.14536 -1.66339 5
    endloop
  endfacet
  facet normal 0 0 1
    outer loop
      vertex 0 -5 5
      vertex -0.734985 -1.5851 5
      vertex -0.937698 -1.63715 5
    endloop
  endfacet
  facet normal 0.0960337 -0.995378 0
    outer loop
      vertex 0.639374 -4.95895 -5
      vertex 0.320343 -4.98973 5
      vertex 0.320343 -4.98973 -5
    endloop
  endfacet
  facet normal 0.0960337 -0.995378 0
    outer loop
      vertex 0.639374 -4.95895 -5
      vertex 0.639374 -4.95895 5
      vertex 0.320343 -4.98973 5
    endloop
  endfacet
  facet normal 0.159557 -0.987189 0
    outer loop
      vertex 0.95578 -4.90781 -5
      vertex 0.639374 -4.95895 5
      vertex 0.639374 -4.95895 -5
    endloop
  endfacet
  facet normal 0.159557 -0.987189 0
    outer loop
      vertex 0.95578 -4.90781 -5
      vertex 0.95578 -4.90781 5
      vertex 0.639374 -4.95895 5
    endloop
  endfacet
  facet normal 0.222516 -0.974929 0
    outer loop
      vertex 1.26826 -4.83649 -5
      vertex 0.95578 -4.90781 5
      vertex 0.95578 -4.90781 -5
    endloop
  endfacet
  facet normal 0.222516 -0.974929 0
    outer loop
      vertex 1.26826 -4.83649 -5
      vertex 1.26826 -4.83649 5
      vertex 0.95578 -4.90781 5
    endloop
  endfacet
  facet normal 0.284539 -0.958665 0
    outer loop
      vertex 1.57553 -4.74529 -5
      vertex 1.26826 -4.83649 5
      vertex 1.26826 -4.83649 -5
    endloop
  endfacet
  facet normal 0.284539 -0.958665 0
    outer loop
      vertex 1.57553 -4.74529 -5
      vertex 1.57553 -4.74529 5
      vertex 1.26826 -4.83649 5
    endloop
  endfacet
  facet normal 0.345345 -0.938476 0
    outer loop
      vertex 1.87633 -4.6346 -5
      vertex 1.57553 -4.74529 5
      vertex 1.57553 -4.74529 -5
    endloop
  endfacet
  facet normal 0.345345 -0.938476 0
    outer loop
      vertex 1.87633 -4.6346 -5
      vertex 1.87633 -4.6346 5
      vertex 1.57553 -4.74529 5
    endloop
  endfacet
  facet normal 0.404804 -0.914404 0
    outer loop
      vertex 2.16942 -4.50485 -5
      vertex 1.87633 -4.6346 5
      vertex 1.87633 -4.6346 -5
    endloop
  endfacet
  facet normal 0.404804 -0.914404 0
    outer loop
      vertex 2.16942 -4.50485 -5
      vertex 2.16942 -4.50485 5
      vertex 1.87633 -4.6346 5
    endloop
  endfacet
  facet normal 0.462548 -0.886594 0
    outer loop
      vertex 2.45358 -4.3566 -5
      vertex 2.16942 -4.50485 5
      vertex 2.16942 -4.50485 -5
    endloop
  endfacet
  facet normal 0.462548 -0.886594 0
    outer loop
      vertex 2.45358 -4.3566 -5
      vertex 2.45358 -4.3566 5
      vertex 2.16942 -4.50485 5
    endloop
  endfacet
  facet normal 0.518418 -0.855127 0
    outer loop
      vertex 2.72766 -4.19044 -5
      vertex 2.45358 -4.3566 5
      vertex 2.45358 -4.3566 -5
    endloop
  endfacet
  facet normal 0.518418 -0.855127 0
    outer loop
      vertex 2.72766 -4.19044 -5
      vertex 2.72766 -4.19044 5
      vertex 2.45358 -4.3566 5
    endloop
  endfacet
  facet normal 0.572088 -0.820192 0
    outer loop
      vertex 2.99054 -4.00708 -5
      vertex 2.72766 -4.19044 5
      vertex 2.72766 -4.19044 -5
    endloop
  endfacet
  facet normal 0.572088 -0.820192 0
    outer loop
      vertex 2.99054 -4.00708 -5
      vertex 2.99054 -4.00708 5
      vertex 2.72766 -4.19044 5
    endloop
  endfacet
  facet normal 0.623492 -0.78183 0
    outer loop
      vertex 3.24113 -3.80724 -5
      vertex 2.99054 -4.00708 5
      vertex 2.99054 -4.00708 -5
    endloop
  endfacet
  facet normal 0.623492 -0.78183 0
    outer loop
      vertex 3.24113 -3.80724 -5
      vertex 3.24113 -3.80724 5
      vertex 2.99054 -4.00708 5
    endloop
  endfacet
  facet normal 0.672298 -0.74028 0
    outer loop
      vertex 3.47841 -3.59175 -5
      vertex 3.24113 -3.80724 5
      vertex 3.24113 -3.80724 -5
    endloop
  endfacet
  facet normal 0.672298 -0.74028 0
    outer loop
      vertex 3.47841 -3.59175 -5
      vertex 3.47841 -3.59175 5
      vertex 3.24113 -3.80724 5
    endloop
  endfacet
  facet normal 0.718342 -0.695691 0
    outer loop
      vertex 3.70139 -3.36151 -5
      vertex 3.47841 -3.59175 5
      vertex 3.47841 -3.59175 -5
    endloop
  endfacet
  facet normal 0.718342 -0.695691 0
    outer loop
      vertex 3.70139 -3.36151 -5
      vertex 3.70139 -3.36151 5
      vertex 3.47841 -3.59175 5
    endloop
  endfacet
  facet normal 0.76145 -0.648223 0
    outer loop
      vertex 3.90915 -3.11746 -5
      vertex 3.70139 -3.36151 5
      vertex 3.70139 -3.36151 -5
    endloop
  endfacet
  facet normal 0.76145 -0.648223 0
    outer loop
      vertex 3.90915 -3.11746 -5
      vertex 3.90915 -3.11746 5
      vertex 3.70139 -3.36151 5
    endloop
  endfacet
  facet normal 0.801398 -0.598131 0
    outer loop
      vertex 4.10086 -2.8606 -5
      vertex 3.90915 -3.11746 5
      vertex 3.90915 -3.11746 -5
    endloop
  endfacet
  facet normal 0.801398 -0.598131 0
    outer loop
      vertex 4.10086 -2.8606 -5
      vertex 4.10086 -2.8606 5
      vertex 3.90915 -3.11746 5
    endloop
  endfacet
  facet normal 0.83811 -0.545501 0
    outer loop
      vertex 4.27571 -2.59196 -5
      vertex 4.10086 -2.8606 5
      vertex 4.10086 -2.8606 -5
    endloop
  endfacet
  facet normal 0.83811 -0.545501 0
    outer loop
      vertex 4.27571 -2.59196 -5
      vertex 4.27571 -2.59196 5
      vertex 4.10086 -2.8606 5
    endloop
  endfacet
  facet normal 0.871327 -0.490703 0
    outer loop
      vertex 4.43298 -2.3127 -5
      vertex 4.27571 -2.59196 5
      vertex 4.27571 -2.59196 -5
    endloop
  endfacet
  facet normal 0.871327 -0.490703 0
    outer loop
      vertex 4.43298 -2.3127 -5
      vertex 4.43298 -2.3127 5
      vertex 4.27571 -2.59196 5
    endloop
  endfacet
  facet normal 0.900962 -0.433898 0
    outer loop
      vertex 4.57205 -2.02393 -5
      vertex 4.43298 -2.3127 5
      vertex 4.43298 -2.3127 -5
    endloop
  endfacet
  facet normal 0.900962 -0.433898 0
    outer loop
      vertex 4.57205 -2.02393 -5
      vertex 4.57205 -2.02393 5
      vertex 4.43298 -2.3127 5
    endloop
  endfacet
  facet normal 0.926904 -0.375298 0
    outer loop
      vertex 4.69234 -1.72684 -5
      vertex 4.57205 -2.02393 5
      vertex 4.57205 -2.02393 -5
    endloop
  endfacet
  facet normal 0.926904 -0.375298 0
    outer loop
      vertex 4.69234 -1.72684 -5
      vertex 4.69234 -1.72684 5
      vertex 4.57205 -2.02393 5
    endloop
  endfacet
  facet normal 0.949066 -0.315076 0
    outer loop
      vertex 4.79333 -1.42264 -5
      vertex 4.69234 -1.72684 5
      vertex 4.69234 -1.72684 -5
    endloop
  endfacet
  facet normal 0.949066 -0.315076 0
    outer loop
      vertex 4.79333 -1.42264 -5
      vertex 4.79333 -1.42264 5
      vertex 4.69234 -1.72684 5
    endloop
  endfacet
  facet normal 0.967294 -0.253656 0
    outer loop
      vertex 4.87463 -1.11261 -5
      vertex 4.79333 -1.42264 5
      vertex 4.79333 -1.42264 -5
    endloop
  endfacet
  facet normal 0.967294 -0.253656 0
    outer loop
      vertex 4.87463 -1.11261 -5
      vertex 4.87463 -1.11261 5
      vertex 4.79333 -1.42264 5
    endloop
  endfacet
  facet normal 0.981559 -0.19116 0
    outer loop
      vertex 4.9359 -0.798004 -5
      vertex 4.87463 -1.11261 5
      vertex 4.87463 -1.11261 -5
    endloop
  endfacet
  facet normal 0.981559 -0.19116 0
    outer loop
      vertex 4.9359 -0.798004 -5
      vertex 4.9359 -0.798004 5
      vertex 4.87463 -1.11261 5
    endloop
  endfacet
  facet normal 0.991793 -0.127856 0
    outer loop
      vertex 4.97688 -0.480118 -5
      vertex 4.9359 -0.798004 5
      vertex 4.9359 -0.798004 -5
    endloop
  endfacet
  facet normal 0.991793 -0.127856 0
    outer loop
      vertex 4.97688 -0.480118 -5
      vertex 4.97688 -0.480118 5
      vertex 4.9359 -0.798004 5
    endloop
  endfacet
  facet normal 0.997944 -0.0640846 0
    outer loop
      vertex 4.99742 -0.160263 -5
      vertex 4.97688 -0.480118 5
      vertex 4.97688 -0.480118 -5
    endloop
  endfacet
  facet normal 0.997944 -0.0640846 0
    outer loop
      vertex 4.99742 -0.160263 -5
      vertex 4.99742 -0.160263 5
      vertex 4.97688 -0.480118 5
    endloop
  endfacet
  facet normal 1 0 0
    outer loop
      vertex 4.99742 0.160248 -5
      vertex 4.99742 -0.160263 5
      vertex 4.99742 -0.160263 -5
    endloop
  endfacet
  facet normal 1 0 -0
    outer loop
      vertex 4.99742 0.160248 -5
      vertex 4.99742 0.160248 5
      vertex 4.99742 -0.160263 5
    endloop
  endfacet
  facet normal 0.997944 0.0640846 0
    outer loop
      vertex 4.97688 0.480103 -5
      vertex 4.99742 0.160248 5
      vertex 4.99742 0.160248 -5
    endloop
  endfacet
  facet normal 0.997944 0.0640846 -0
    outer loop
      vertex 4.97688 0.480103 -5
      vertex 4.97688 0.480103 5
      vertex 4.99742 0.160248 5
    endloop
  endfacet
  facet normal 0.991793 0.127856 0
    outer loop
      vertex 4.9359 0.797989 -5
      vertex 4.97688 0.480103 5
      vertex 4.97688 0.480103 -5
    endloop
  endfacet
  facet normal 0.991793 0.127856 -0
    outer loop
      vertex 4.9359 0.797989 -5
      vertex 4.9359 0.797989 5
      vertex 4.97688 0.480103 5
    endloop
  endfacet
  facet normal 0.981558 0.191163 0
    outer loop
      vertex 4.87463 1.11259 -5
      vertex 4.9359 0.797989 5
      vertex 4.9359 0.797989 -5
    endloop
  endfacet
  facet normal 0.981558 0.191163 -0
    outer loop
      vertex 4.87463 1.11259 -5
      vertex 4.87463 1.11259 5
      vertex 4.9359 0.797989 5
    endloop
  endfacet
  facet normal 0.967294 0.253656 0
    outer loop
      vertex 4.79333 1.42262 -5
      vertex 4.87463 1.11259 5
      vertex 4.87463 1.11259 -5
    endloop
  endfacet
  facet normal 0.967294 0.253656 -0
    outer loop
      vertex 4.79333 1.42262 -5
      vertex 4.79333 1.42262 5
      vertex 4.87463 1.11259 5
    endloop
  endfacet
  facet normal 0.949066 0.315076 0
    outer loop
      vertex 4.69234 1.72682 -5
      vertex 4.79333 1.42262 5
      vertex 4.79333 1.42262 -5
    endloop
  endfacet
  facet normal 0.949066 0.315076 -0
    outer loop
      vertex 4.69234 1.72682 -5
      vertex 4.69234 1.72682 5
      vertex 4.79333 1.42262 5
    endloop
  endfacet
  facet normal 0.926904 0.375298 0
    outer loop
      vertex 4.57205 2.02391 -5
      vertex 4.69234 1.72682 5
      vertex 4.69234 1.72682 -5
    endloop
  endfacet
  facet normal 0.926904 0.375298 -0
    outer loop
      vertex 4.57205 2.02391 -5
      vertex 4.57205 2.02391 5
      vertex 4.69234 1.72682 5
    endloop
  endfacet
  facet normal 0.900962 0.433898 0
    outer loop
      vertex 4.43298 2.31268 -5
      vertex 4.57205 2.02391 5
      vertex 4.57205 2.02391 -5
    endloop
  endfacet
  facet normal 0.900962 0.433898 -0
    outer loop
      vertex 4.43298 2.31268 -5
      vertex 4.43298 2.31268 5
      vertex 4.57205 2.02391 5
    endloop
  endfacet
  facet normal 0.871335 0.490689 0
    outer loop
      vertex 4.27571 2.59195 -5
      vertex 4.43298 2.31268 5
      vertex 4.43298 2.31268 -5
    endloop
  endfacet
  facet normal 0.871335 0.490689 -0
    outer loop
      vertex 4.27571 2.59195 -5
      vertex 4.27571 2.59195 5
      vertex 4.43298 2.31268 5
    endloop
  endfacet
  facet normal 0.838101 0.545516 0
    outer loop
      vertex 4.10086 2.86058 -5
      vertex 4.27571 2.59195 5
      vertex 4.27571 2.59195 -5
    endloop
  endfacet
  facet normal 0.838101 0.545516 -0
    outer loop
      vertex 4.10086 2.86058 -5
      vertex 4.10086 2.86058 5
      vertex 4.27571 2.59195 5
    endloop
  endfacet
  facet normal 0.801409 0.598116 0
    outer loop
      vertex 3.90915 3.11745 -5
      vertex 4.10086 2.86058 5
      vertex 4.10086 2.86058 -5
    endloop
  endfacet
  facet normal 0.801409 0.598116 -0
    outer loop
      vertex 3.90915 3.11745 -5
      vertex 3.90915 3.11745 5
      vertex 4.10086 2.86058 5
    endloop
  endfacet
  facet normal 0.76145 0.648223 0
    outer loop
      vertex 3.70139 3.3615 -5
      vertex 3.90915 3.11745 5
      vertex 3.90915 3.11745 -5
    endloop
  endfacet
  facet normal 0.76145 0.648223 -0
    outer loop
      vertex 3.70139 3.3615 -5
      vertex 3.70139 3.3615 5
      vertex 3.90915 3.11745 5
    endloop
  endfacet
  facet normal 0.718342 0.695691 0
    outer loop
      vertex 3.47841 3.59174 -5
      vertex 3.70139 3.3615 5
      vertex 3.70139 3.3615 -5
    endloop
  endfacet
  facet normal 0.718342 0.695691 -0
    outer loop
      vertex 3.47841 3.59174 -5
      vertex 3.47841 3.59174 5
      vertex 3.70139 3.3615 5
    endloop
  endfacet
  facet normal 0.672281 0.740296 0
    outer loop
      vertex 3.24113 3.80722 -5
      vertex 3.47841 3.59174 5
      vertex 3.47841 3.59174 -5
    endloop
  endfacet
  facet normal 0.672281 0.740296 -0
    outer loop
      vertex 3.24113 3.80722 -5
      vertex 3.24113 3.80722 5
      vertex 3.47841 3.59174 5
    endloop
  endfacet
  facet normal 0.623492 0.78183 0
    outer loop
      vertex 2.99054 4.00706 -5
      vertex 3.24113 3.80722 5
      vertex 3.24113 3.80722 -5
    endloop
  endfacet
  facet normal 0.623492 0.78183 -0
    outer loop
      vertex 2.99054 4.00706 -5
      vertex 2.99054 4.00706 5
      vertex 3.24113 3.80722 5
    endloop
  endfacet
  facet normal 0.572109 0.820178 0
    outer loop
      vertex 2.72766 4.19043 -5
      vertex 2.99054 4.00706 5
      vertex 2.99054 4.00706 -5
    endloop
  endfacet
  facet normal 0.572109 0.820178 -0
    outer loop
      vertex 2.72766 4.19043 -5
      vertex 2.72766 4.19043 5
      vertex 2.99054 4.00706 5
    endloop
  endfacet
  facet normal 0.518395 0.855141 0
    outer loop
      vertex 2.45358 4.35658 -5
      vertex 2.72766 4.19043 5
      vertex 2.72766 4.19043 -5
    endloop
  endfacet
  facet normal 0.518395 0.855141 -0
    outer loop
      vertex 2.45358 4.35658 -5
      vertex 2.45358 4.35658 5
      vertex 2.72766 4.19043 5
    endloop
  endfacet
  facet normal 0.462572 0.886582 0
    outer loop
      vertex 2.16942 4.50484 -5
      vertex 2.45358 4.35658 5
      vertex 2.45358 4.35658 -5
    endloop
  endfacet
  facet normal 0.462572 0.886582 -0
    outer loop
      vertex 2.16942 4.50484 -5
      vertex 2.16942 4.50484 5
      vertex 2.45358 4.35658 5
    endloop
  endfacet
  facet normal 0.404777 0.914415 0
    outer loop
      vertex 1.87633 4.63458 -5
      vertex 2.16942 4.50484 5
      vertex 2.16942 4.50484 -5
    endloop
  endfacet
  facet normal 0.404777 0.914415 -0
    outer loop
      vertex 1.87633 4.63458 -5
      vertex 1.87633 4.63458 5
      vertex 2.16942 4.50484 5
    endloop
  endfacet
  facet normal 0.345345 0.938476 0
    outer loop
      vertex 1.57553 4.74527 -5
      vertex 1.87633 4.63458 5
      vertex 1.87633 4.63458 -5
    endloop
  endfacet
  facet normal 0.345345 0.938476 -0
    outer loop
      vertex 1.57553 4.74527 -5
      vertex 1.57553 4.74527 5
      vertex 1.87633 4.63458 5
    endloop
  endfacet
  facet normal 0.284539 0.958665 0
    outer loop
      vertex 1.26826 4.83647 -5
      vertex 1.57553 4.74527 5
      vertex 1.57553 4.74527 -5
    endloop
  endfacet
  facet normal 0.284539 0.958665 -0
    outer loop
      vertex 1.26826 4.83647 -5
      vertex 1.26826 4.83647 5
      vertex 1.57553 4.74527 5
    endloop
  endfacet
  facet normal 0.222516 0.974929 0
    outer loop
      vertex 0.95578 4.90779 -5
      vertex 1.26826 4.83647 5
      vertex 1.26826 4.83647 -5
    endloop
  endfacet
  facet normal 0.222516 0.974929 -0
    outer loop
      vertex 0.95578 4.90779 -5
      vertex 0.95578 4.90779 5
      vertex 1.26826 4.83647 5
    endloop
  endfacet
  facet normal 0.159588 0.987184 0
    outer loop
      vertex 0.639374 4.95894 -5
      vertex 0.95578 4.90779 5
      vertex 0.95578 4.90779 -5
    endloop
  endfacet
  facet normal 0.159588 0.987184 -0
    outer loop
      vertex 0.639374 4.95894 -5
      vertex 0.639374 4.95894 5
      vertex 0.95578 4.90779 5
    endloop
  endfacet
  facet normal 0.0960337 0.995378 0
    outer loop
      vertex 0.320343 4.98972 -5
      vertex 0.639374 4.95894 5
      vertex 0.639374 4.95894 -5
    endloop
  endfacet
  facet normal 0.0960337 0.995378 -0
    outer loop
      vertex 0.320343 4.98972 -5
      vertex 0.320343 4.98972 5
      vertex 0.639374 4.95894 5
    endloop
  endfacet
  facet normal 0.0320741 0.999485 0
    outer loop
      vertex 0 5 -5
      vertex 0.320343 4.98972 5
      vertex 0.320343 4.98972 -5
    endloop
  endfacet
  facet normal 0.0320741 0.999485 -0
    outer loop
      vertex 0 5 -5
      vertex 0 5 5
      vertex 0.320343 4.98972 5
    endloop
  endfacet
  facet normal 0 1 0
    outer loop
      vertex -5 5 -5
      vertex 0 5 5
      vertex 0 5 -5
    endloop
  endfacet
  facet normal 0 1 0
    outer loop
      vertex -5 5 -5
      vertex -5 5 5
      vertex 0 5 5
    endloop
  endfacet
  facet normal -1 0 0
    outer loop
      vertex -5 -5 -5
      vertex -5 5 5
      vertex -5 5 -5
    endloop
  endfacet
  facet normal -1 0 0
    outer loop
      vertex -5 -5 -5
      vertex -5 -5 5
      vertex -5 5 5
    endloop
  endfacet
  facet normal 0 -1 0
    outer loop
      vertex 0 -5 -5
      vertex -5 -5 5
      vertex -5 -5 -5
    endloop
  endfacet
  facet normal 0 -1 0
    outer loop
      vertex 0 -5 -5
      vertex 0 -5 5
      vertex -5 -5 5
    endloop
  endfacet
  facet normal 0.0320429 -0.999486 0
    outer loop
      vertex 0.320343 -4.98973 -5
      vertex 0 -5 5
      vertex 0 -5 -5
    endloop
  endfacet
  facet normal 0.0320429 -0.999486 0
    outer loop
      vertex 0.320343 -4.98973 -5
      vertex 0.320343 -4.98973 5
      vertex 0 -5 5
    endloop
  endfacet
  facet normal 0.125364 0.992111 -0
    outer loop
      vertex -1.56232 -1.63715 -5
      vertex -1.56232 -1.63715 5
      vertex -1.35466 -1.66339 -5
    endloop
  endfacet
  facet normal 0.125364 0.992111 0
    outer loop
      vertex -1.35466 -1.66339 5
      vertex -1.35466 -1.66339 -5
      vertex -1.56232 -1.63715 5
    endloop
  endfacet
  facet normal 0.248703 0.96858 -0
    outer loop
      vertex -1.76503 -1.5851 -5
      vertex -1.76503 -1.5851 5
      vertex -1.56232 -1.63715 -5
    endloop
  endfacet
  facet normal 0.248703 0.96858 0
    outer loop
      vertex -1.56232 -1.63715 5
      vertex -1.56232 -1.63715 -5
      vertex -1.76503 -1.5851 5
    endloop
  endfacet
  facet normal 0.368077 0.929795 -0
    outer loop
      vertex -1.95964 -1.50806 -5
      vertex -1.95964 -1.50806 5
      vertex -1.76503 -1.5851 -5
    endloop
  endfacet
  facet normal 0.368077 0.929795 0
    outer loop
      vertex -1.76503 -1.5851 5
      vertex -1.76503 -1.5851 -5
      vertex -1.95964 -1.50806 5
    endloop
  endfacet
  facet normal 0.481752 0.876308 -0
    outer loop
      vertex -2.14305 -1.40723 -5
      vertex -2.14305 -1.40723 5
      vertex -1.95964 -1.50806 -5
    endloop
  endfacet
  facet normal 0.481752 0.876308 0
    outer loop
      vertex -1.95964 -1.50806 5
      vertex -1.95964 -1.50806 -5
      vertex -2.14305 -1.40723 5
    endloop
  endfacet
  facet normal 0.587831 0.808984 -0
    outer loop
      vertex -2.31238 -1.28419 -5
      vertex -2.31238 -1.28419 5
      vertex -2.14305 -1.40723 -5
    endloop
  endfacet
  facet normal 0.587831 0.808984 0
    outer loop
      vertex -2.14305 -1.40723 5
      vertex -2.14305 -1.40723 -5
      vertex -2.31238 -1.28419 5
    endloop
  endfacet
  facet normal 0.684565 0.728951 -0
    outer loop
      vertex -2.46495 -1.14091 -5
      vertex -2.46495 -1.14091 5
      vertex -2.31238 -1.28419 -5
    endloop
  endfacet
  facet normal 0.684565 0.728951 0
    outer loop
      vertex -2.31238 -1.28419 5
      vertex -2.31238 -1.28419 -5
      vertex -2.46495 -1.14091 5
    endloop
  endfacet
  facet normal 0.77049 0.637452 -0
    outer loop
      vertex -2.59837 -0.979645 -5
      vertex -2.59837 -0.979645 5
      vertex -2.46495 -1.14091 -5
    endloop
  endfacet
  facet normal 0.77049 0.637452 0
    outer loop
      vertex -2.46495 -1.14091 5
      vertex -2.46495 -1.14091 -5
      vertex -2.59837 -0.979645 5
    endloop
  endfacet
  facet normal 0.844295 0.535878 -0
    outer loop
      vertex -2.71053 -0.802933 -5
      vertex -2.71053 -0.802933 5
      vertex -2.59837 -0.979645 -5
    endloop
  endfacet
  facet normal 0.844295 0.535878 0
    outer loop
      vertex -2.59837 -0.979645 5
      vertex -2.59837 -0.979645 -5
      vertex -2.71053 -0.802933 5
    endloop
  endfacet
  facet normal 0.904835 0.425763 -0
    outer loop
      vertex -2.79964 -0.613556 -5
      vertex -2.79964 -0.613556 5
      vertex -2.71053 -0.802933 -5
    endloop
  endfacet
  facet normal 0.904835 0.425763 0
    outer loop
      vertex -2.71053 -0.802933 5
      vertex -2.71053 -0.802933 -5
      vertex -2.79964 -0.613556 5
    endloop
  endfacet
  facet normal 0.951057 0.309015 -0
    outer loop
      vertex -2.86432 -0.41449 -5
      vertex -2.86432 -0.41449 5
      vertex -2.79964 -0.613556 -5
    endloop
  endfacet
  facet normal 0.951057 0.309015 0
    outer loop
      vertex -2.79964 -0.613556 5
      vertex -2.79964 -0.613556 -5
      vertex -2.86432 -0.41449 5
    endloop
  endfacet
  facet normal 0.982296 0.187336 -0
    outer loop
      vertex -2.90353 -0.208893 -5
      vertex -2.90353 -0.208893 5
      vertex -2.86432 -0.41449 -5
    endloop
  endfacet
  facet normal 0.982296 0.187336 0
    outer loop
      vertex -2.86432 -0.41449 5
      vertex -2.86432 -0.41449 -5
      vertex -2.90353 -0.208893 5
    endloop
  endfacet
  facet normal 0.998027 0.0627789 -0
    outer loop
      vertex -2.91667 0 -5
      vertex -2.91667 0 5
      vertex -2.90353 -0.208893 -5
    endloop
  endfacet
  facet normal 0.998027 0.0627789 0
    outer loop
      vertex -2.90353 -0.208893 5
      vertex -2.90353 -0.208893 -5
      vertex -2.91667 0 5
    endloop
  endfacet
  facet normal 0.998027 -0.0627834 0
    outer loop
      vertex -2.90353 0.208878 -5
      vertex -2.90353 0.208878 5
      vertex -2.91667 0 -5
    endloop
  endfacet
  facet normal 0.998027 -0.0627834 0
    outer loop
      vertex -2.91667 0 5
      vertex -2.91667 0 -5
      vertex -2.90353 0.208878 5
    endloop
  endfacet
  facet normal 0.982296 -0.187337 0
    outer loop
      vertex -2.86432 0.414474 -5
      vertex -2.86432 0.414474 5
      vertex -2.90353 0.208878 -5
    endloop
  endfacet
  facet normal 0.982296 -0.187337 0
    outer loop
      vertex -2.90353 0.208878 5
      vertex -2.90353 0.208878 -5
      vertex -2.86432 0.414474 5
    endloop
  endfacet
  facet normal 0.951058 -0.309014 0
    outer loop
      vertex -2.79964 0.613541 -5
      vertex -2.79964 0.613541 5
      vertex -2.86432 0.414474 -5
    endloop
  endfacet
  facet normal 0.951058 -0.309014 0
    outer loop
      vertex -2.86432 0.414474 5
      vertex -2.86432 0.414474 -5
      vertex -2.79964 0.613541 5
    endloop
  endfacet
  facet normal 0.904834 -0.425765 0
    outer loop
      vertex -2.71053 0.802917 -5
      vertex -2.71053 0.802917 5
      vertex -2.79964 0.613541 -5
    endloop
  endfacet
  facet normal 0.904834 -0.425765 0
    outer loop
      vertex -2.79964 0.613541 5
      vertex -2.79964 0.613541 -5
      vertex -2.71053 0.802917 5
    endloop
  endfacet
  facet normal 0.844297 -0.535876 0
    outer loop
      vertex -2.59837 0.97963 -5
      vertex -2.59837 0.97963 5
      vertex -2.71053 0.802917 -5
    endloop
  endfacet
  facet normal 0.844297 -0.535876 0
    outer loop
      vertex -2.71053 0.802917 5
      vertex -2.71053 0.802917 -5
      vertex -2.59837 0.97963 5
    endloop
  endfacet
  facet normal 0.7705 -0.637441 0
    outer loop
      vertex -2.46495 1.1409 -5
      vertex -2.46495 1.1409 5
      vertex -2.59837 0.97963 -5
    endloop
  endfacet
  facet normal 0.7705 -0.637441 0
    outer loop
      vertex -2.59837 0.97963 5
      vertex -2.59837 0.97963 -5
      vertex -2.46495 1.1409 5
    endloop
  endfacet
  facet normal 0.684565 -0.728951 0
    outer loop
      vertex -2.31238 1.28418 -5
      vertex -2.31238 1.28418 5
      vertex -2.46495 1.1409 -5
    endloop
  endfacet
  facet normal 0.684565 -0.728951 0
    outer loop
      vertex -2.46495 1.1409 5
      vertex -2.46495 1.1409 -5
      vertex -2.31238 1.28418 5
    endloop
  endfacet
  facet normal 0.587799 -0.809007 0
    outer loop
      vertex -2.14305 1.40721 -5
      vertex -2.14305 1.40721 5
      vertex -2.31238 1.28418 -5
    endloop
  endfacet
  facet normal 0.587799 -0.809007 0
    outer loop
      vertex -2.31238 1.28418 5
      vertex -2.31238 1.28418 -5
      vertex -2.14305 1.40721 5
    endloop
  endfacet
  facet normal 0.481752 -0.876308 0
    outer loop
      vertex -1.95964 1.50804 -5
      vertex -1.95964 1.50804 5
      vertex -2.14305 1.40721 -5
    endloop
  endfacet
  facet normal 0.481752 -0.876308 0
    outer loop
      vertex -2.14305 1.40721 5
      vertex -2.14305 1.40721 -5
      vertex -1.95964 1.50804 5
    endloop
  endfacet
  facet normal 0.368077 -0.929795 0
    outer loop
      vertex -1.76503 1.58508 -5
      vertex -1.76503 1.58508 5
      vertex -1.95964 1.50804 -5
    endloop
  endfacet
  facet normal 0.368077 -0.929795 0
    outer loop
      vertex -1.95964 1.50804 5
      vertex -1.95964 1.50804 -5
      vertex -1.76503 1.58508 5
    endloop
  endfacet
  facet normal 0.248703 -0.96858 0
    outer loop
      vertex -1.56232 1.63713 -5
      vertex -1.56232 1.63713 5
      vertex -1.76503 1.58508 -5
    endloop
  endfacet
  facet normal 0.248703 -0.96858 0
    outer loop
      vertex -1.76503 1.58508 5
      vertex -1.76503 1.58508 -5
      vertex -1.56232 1.63713 5
    endloop
  endfacet
  facet normal 0.125411 -0.992105 0
    outer loop
      vertex -1.35466 1.66338 -5
      vertex -1.35466 1.66338 5
      vertex -1.56232 1.63713 -5
    endloop
  endfacet
  facet normal 0.125411 -0.992105 0
    outer loop
      vertex -1.56232 1.63713 5
      vertex -1.56232 1.63713 -5
      vertex -1.35466 1.66338 5
    endloop
  endfacet
  facet normal 0 -1 0
    outer loop
      vertex -1.14536 1.66338 -5
      vertex -1.14536 1.66338 5
      vertex -1.35466 1.66338 -5
    endloop
  endfacet
  facet normal 0 -1 0
    outer loop
      vertex -1.35466 1.66338 5
      vertex -1.35466 1.66338 -5
      vertex -1.14536 1.66338 5
    endloop
  endfacet
  facet normal -0.125409 -0.992105 0
    outer loop
      vertex -0.937698 1.63713 -5
      vertex -0.937698 1.63713 5
      vertex -1.14536 1.66338 -5
    endloop
  endfacet
  facet normal -0.125409 -0.992105 -0
    outer loop
      vertex -1.14536 1.66338 5
      vertex -1.14536 1.66338 -5
      vertex -0.937698 1.63713 5
    endloop
  endfacet
  facet normal -0.2487 -0.968581 0
    outer loop
      vertex -0.734985 1.58508 -5
      vertex -0.734985 1.58508 5
      vertex -0.937698 1.63713 -5
    endloop
  endfacet
  facet normal -0.2487 -0.968581 -0
    outer loop
      vertex -0.937698 1.63713 5
      vertex -0.937698 1.63713 -5
      vertex -0.734985 1.58508 5
    endloop
  endfacet
  facet normal -0.368077 -0.929795 0
    outer loop
      vertex -0.540375 1.50804 -5
      vertex -0.540375 1.50804 5
      vertex -0.734985 1.58508 -5
    endloop
  endfacet
  facet normal -0.368077 -0.929795 -0
    outer loop
      vertex -0.734985 1.58508 5
      vertex -0.734985 1.58508 -5
      vertex -0.540375 1.50804 5
    endloop
  endfacet
  facet normal -0.48175 -0.876309 0
    outer loop
      vertex -0.356964 1.40721 -5
      vertex -0.356964 1.40721 5
      vertex -0.540375 1.50804 -5
    endloop
  endfacet
  facet normal -0.48175 -0.876309 -0
    outer loop
      vertex -0.540375 1.50804 5
      vertex -0.540375 1.50804 -5
      vertex -0.356964 1.40721 5
    endloop
  endfacet
  facet normal -0.587806 -0.809002 0
    outer loop
      vertex -0.187637 1.28418 -5
      vertex -0.187637 1.28418 5
      vertex -0.356964 1.40721 -5
    endloop
  endfacet
  facet normal -0.587806 -0.809002 -0
    outer loop
      vertex -0.356964 1.40721 5
      vertex -0.356964 1.40721 -5
      vertex -0.187637 1.28418 5
    endloop
  endfacet
  facet normal -0.68456 -0.728957 0
    outer loop
      vertex -0.0350647 1.1409 -5
      vertex -0.0350647 1.1409 5
      vertex -0.187637 1.28418 -5
    endloop
  endfacet
  facet normal -0.68456 -0.728957 -0
    outer loop
      vertex -0.187637 1.28418 5
      vertex -0.187637 1.28418 -5
      vertex -0.0350647 1.1409 5
    endloop
  endfacet
  facet normal -0.770493 -0.637449 0
    outer loop
      vertex 0.0983582 0.97963 -5
      vertex 0.0983582 0.97963 5
      vertex -0.0350647 1.1409 -5
    endloop
  endfacet
  facet normal -0.770493 -0.637449 -0
    outer loop
      vertex -0.0350647 1.1409 5
      vertex -0.0350647 1.1409 -5
      vertex 0.0983582 0.97963 5
    endloop
  endfacet
  facet normal -0.844314 -0.535848 0
    outer loop
      vertex 0.21051 0.802917 -5
      vertex 0.21051 0.802917 5
      vertex 0.0983582 0.97963 -5
    endloop
  endfacet
  facet normal -0.844314 -0.535848 -0
    outer loop
      vertex 0.0983582 0.97963 5
      vertex 0.0983582 0.97963 -5
      vertex 0.21051 0.802917 5
    endloop
  endfacet
  facet normal -0.90483 -0.425773 0
    outer loop
      vertex 0.299622 0.613541 -5
      vertex 0.299622 0.613541 5
      vertex 0.21051 0.802917 -5
    endloop
  endfacet
  facet normal -0.90483 -0.425773 -0
    outer loop
      vertex 0.21051 0.802917 5
      vertex 0.21051 0.802917 -5
      vertex 0.299622 0.613541 5
    endloop
  endfacet
  facet normal -0.951055 -0.309022 0
    outer loop
      vertex 0.364304 0.414474 -5
      vertex 0.364304 0.414474 5
      vertex 0.299622 0.613541 -5
    endloop
  endfacet
  facet normal -0.951055 -0.309022 -0
    outer loop
      vertex 0.299622 0.613541 5
      vertex 0.299622 0.613541 -5
      vertex 0.364304 0.414474 5
    endloop
  endfacet
  facet normal -0.982291 -0.18736 0
    outer loop
      vertex 0.403519 0.208878 -5
      vertex 0.403519 0.208878 5
      vertex 0.364304 0.414474 -5
    endloop
  endfacet
  facet normal -0.982291 -0.18736 -0
    outer loop
      vertex 0.364304 0.414474 5
      vertex 0.364304 0.414474 -5
      vertex 0.403519 0.208878 5
    endloop
  endfacet
  facet normal -0.998028 -0.0627692 0
    outer loop
      vertex 0.416656 0 -5
      vertex 0.416656 0 5
      vertex 0.403519 0.208878 -5
    endloop
  endfacet
  facet normal -0.998028 -0.0627692 -0
    outer loop
      vertex 0.403519 0.208878 5
      vertex 0.403519 0.208878 -5
      vertex 0.416656 0 5
    endloop
  endfacet
  facet normal -0.998028 0.0627647 0
    outer loop
      vertex 0.403519 -0.208893 -5
      vertex 0.403519 -0.208893 5
      vertex 0.416656 0 -5
    endloop
  endfacet
  facet normal -0.998028 0.0627647 0
    outer loop
      vertex 0.416656 0 5
      vertex 0.416656 0 -5
      vertex 0.403519 -0.208893 5
    endloop
  endfacet
  facet normal -0.982291 0.18736 0
    outer loop
      vertex 0.364304 -0.41449 -5
      vertex 0.364304 -0.41449 5
      vertex 0.403519 -0.208893 -5
    endloop
  endfacet
  facet normal -0.982291 0.18736 0
    outer loop
      vertex 0.403519 -0.208893 5
      vertex 0.403519 -0.208893 -5
      vertex 0.364304 -0.41449 5
    endloop
  endfacet
  facet normal -0.951054 0.309024 0
    outer loop
      vertex 0.299622 -0.613556 -5
      vertex 0.299622 -0.613556 5
      vertex 0.364304 -0.41449 -5
    endloop
  endfacet
  facet normal -0.951054 0.309024 0
    outer loop
      vertex 0.364304 -0.41449 5
      vertex 0.364304 -0.41449 -5
      vertex 0.299622 -0.613556 5
    endloop
  endfacet
  facet normal -0.904831 0.425771 0
    outer loop
      vertex 0.21051 -0.802933 -5
      vertex 0.21051 -0.802933 5
      vertex 0.299622 -0.613556 -5
    endloop
  endfacet
  facet normal -0.904831 0.425771 0
    outer loop
      vertex 0.299622 -0.613556 5
      vertex 0.299622 -0.613556 -5
      vertex 0.21051 -0.802933 5
    endloop
  endfacet
  facet normal -0.844313 0.53585 0
    outer loop
      vertex 0.0983582 -0.979645 -5
      vertex 0.0983582 -0.979645 5
      vertex 0.21051 -0.802933 -5
    endloop
  endfacet
  facet normal -0.844313 0.53585 0
    outer loop
      vertex 0.21051 -0.802933 5
      vertex 0.21051 -0.802933 -5
      vertex 0.0983582 -0.979645 5
    endloop
  endfacet
  facet normal -0.770483 0.637461 0
    outer loop
      vertex -0.0350647 -1.14091 -5
      vertex -0.0350647 -1.14091 5
      vertex 0.0983582 -0.979645 -5
    endloop
  endfacet
  facet normal -0.770483 0.637461 0
    outer loop
      vertex 0.0983582 -0.979645 5
      vertex 0.0983582 -0.979645 -5
      vertex -0.0350647 -1.14091 5
    endloop
  endfacet
  facet normal -0.68456 0.728957 0
    outer loop
      vertex -0.187637 -1.28419 -5
      vertex -0.187637 -1.28419 5
      vertex -0.0350647 -1.14091 -5
    endloop
  endfacet
  facet normal -0.68456 0.728957 0
    outer loop
      vertex -0.0350647 -1.14091 5
      vertex -0.0350647 -1.14091 -5
      vertex -0.187637 -1.28419 5
    endloop
  endfacet
  facet normal -0.587838 0.808979 0
    outer loop
      vertex -0.356964 -1.40723 -5
      vertex -0.356964 -1.40723 5
      vertex -0.187637 -1.28419 -5
    endloop
  endfacet
  facet normal -0.587838 0.808979 0
    outer loop
      vertex -0.187637 -1.28419 5
      vertex -0.187637 -1.28419 -5
      vertex -0.356964 -1.40723 5
    endloop
  endfacet
  facet normal -0.48175 0.876309 0
    outer loop
      vertex -0.540375 -1.50806 -5
      vertex -0.540375 -1.50806 5
      vertex -0.356964 -1.40723 -5
    endloop
  endfacet
  facet normal -0.48175 0.876309 0
    outer loop
      vertex -0.356964 -1.40723 5
      vertex -0.356964 -1.40723 -5
      vertex -0.540375 -1.50806 5
    endloop
  endfacet
  facet normal -0.368077 0.929795 0
    outer loop
      vertex -0.734985 -1.5851 -5
      vertex -0.734985 -1.5851 5
      vertex -0.540375 -1.50806 -5
    endloop
  endfacet
  facet normal -0.368077 0.929795 0
    outer loop
      vertex -0.540375 -1.50806 5
      vertex -0.540375 -1.50806 -5
      vertex -0.734985 -1.5851 5
    endloop
  endfacet
  facet normal -0.2487 0.968581 0
    outer loop
      vertex -0.937698 -1.63715 -5
      vertex -0.937698 -1.63715 5
      vertex -0.734985 -1.5851 -5
    endloop
  endfacet
  facet normal -0.2487 0.968581 0
    outer loop
      vertex -0.734985 -1.5851 5
      vertex -0.734985 -1.5851 -5
      vertex -0.937698 -1.63715 5
    endloop
  endfacet
  facet normal -0.125362 0.992111 0
    outer loop
      vertex -1.14536 -1.66339 -5
      vertex -1.14536 -1.66339 5
      vertex -0.937698 -1.63715 -5
    endloop
  endfacet
  facet normal -0.125362 0.992111 0
    outer loop
      vertex -0.937698 -1.63715 5
      vertex -0.937698 -1.63715 -5
      vertex -1.14536 -1.66339 5
    endloop
  endfacet
  facet normal 0 1 0
    outer loop
      vertex -1.35466 -1.66339 -5
      vertex -1.35466 -1.66339 5
      vertex -1.14536 -1.66339 -5
    endloop
  endfacet
  facet normal 0 1 0
    outer loop
      vertex -1.14536 -1.66339 5
      vertex -1.14536 -1.66339 -5
      vertex -1.35466 -1.66339 5
    endloop
  endfacet
endsolid OpenSCAD_Model
