solid OpenSCAD_Model
  facet normal -1 0 0
    outer loop
      vertex -5 -5 -5
      vertex -5 -3.33333 5
      vertex -5 -3.33333 -5
    endloop
  endfacet
  facet normal -1 -0 0
    outer loop
      vertex -5 -3.33333 5
      vertex -5 -5 -5
      vertex -5 -5 5
    endloop
  endfacet
  facet normal -1 0 0
    outer loop
      vertex -5 3.33334 -5
      vertex -5 5 5
      vertex -5 5 -5
    endloop
  endfacet
  facet normal -1 -0 0
    outer loop
      vertex -5 5 5
      vertex -5 3.33334 -5
      vertex -5 3.33334 5
    endloop
  endfacet
  facet normal 0 0 1
    outer loop
      vertex 4.99742 0.00128937 5
      vertex -1.66667 1.66667 5
      vertex 4.99742 -0.00128937 5
    endloop
  endfacet
  facet normal 0 0 1
    outer loop
      vertex -5 5 5
      vertex -1.66667 1.66667 5
      vertex 4.99742 0.00128937 5
    endloop
  endfacet
  facet normal 0 0 1
    outer loop
      vertex -1.66667 1.66667 5
      vertex -5 5 5
      vertex -5 3.33334 5
    endloop
  endfacet
  facet normal 0 0 1
    outer loop
      vertex -1.66667 -1.66666 5
      vertex 4.99742 -0.00128937 5
      vertex -1.66667 1.66667 5
    endloop
  endfacet
  facet normal 0 0 1
    outer loop
      vertex -5 -5 5
      vertex -1.66667 -1.66666 5
      vertex -5 -3.33333 5
    endloop
  endfacet
  facet normal -0 0 1
    outer loop
      vertex -1.66667 -1.66666 5
      vertex -5 -5 5
      vertex 4.99742 -0.00128937 5
    endloop
  endfacet
  facet normal -0 0 -1
    outer loop
      vertex 4.99742 -0.00128937 -5
      vertex -1.66667 -1.66666 -5
      vertex 4.99742 0.00128937 -5
    endloop
  endfacet
  facet normal 0 0 -1
    outer loop
      vertex -5 -5 -5
      vertex -1.66667 -1.66666 -5
      vertex 4.99742 -0.00128937 -5
    endloop
  endfacet
  facet normal 0 0 -1
    outer loop
      vertex -1.66667 -1.66666 -5
      vertex -5 -5 -5
      vertex -5 -3.33333 -5
    endloop
  endfacet
  facet normal 0 0 -1
    outer loop
      vertex -1.66667 1.66667 -5
      vertex 4.99742 0.00128937 -5
      vertex -1.66667 -1.66666 -5
    endloop
  endfacet
  facet normal 0 0 -1
    outer loop
      vertex -5 5 -5
      vertex -1.66667 1.66667 -5
      vertex -5 3.33334 -5
    endloop
  endfacet
  facet normal 0 0 -1
    outer loop
      vertex -1.66667 1.66667 -5
      vertex -5 5 -5
      vertex 4.99742 0.00128937 -5
    endloop
  endfacet
  facet normal 1 -0 0
    outer loop
      vertex 4.99742 -0.00128937 5
      vertex 4.99742 0.00128937 -5
      vertex 4.99742 0.00128937 5
    endloop
  endfacet
  facet normal 1 0 0
    outer loop
      vertex 4.99742 0.00128937 -5
      vertex 4.99742 -0.00128937 5
      vertex 4.99742 -0.00128937 -5
    endloop
  endfacet
  facet normal -1 0 0
    outer loop
      vertex -1.66667 -1.66666 -5
      vertex -1.66667 1.66667 5
      vertex -1.66667 1.66667 -5
    endloop
  endfacet
  facet normal -1 -0 0
    outer loop
      vertex -1.66667 1.66667 5
      vertex -1.66667 -1.66666 -5
      vertex -1.66667 -1.66666 5
    endloop
  endfacet
  facet normal -0.447215 0.894427 0
    outer loop
      vertex -1.66667 -1.66666 -5
      vertex -5 -3.33333 5
      vertex -1.66667 -1.66666 5
    endloop
  endfacet
  facet normal -0.447215 0.894427 0
    outer loop
      vertex -5 -3.33333 5
      vertex -1.66667 -1.66666 -5
      vertex -5 -3.33333 -5
    endloop
  endfacet
  facet normal 0.447214 -0.894427 0
    outer loop
      vertex -5 -5 -5
      vertex 4.99742 -0.00128937 5
      vertex -5 -5 5
    endloop
  endfacet
  facet normal 0.447214 -0.894427 0
    outer loop
      vertex 4.99742 -0.00128937 5
      vertex -5 -5 -5
      vertex 4.99742 -0.00128937 -5
    endloop
  endfacet
  facet normal 0.447214 0.894427 -0
    outer loop
      vertex 4.99742 0.00128937 -5
      vertex -5 5 5
      vertex 4.99742 0.00128937 5
    endloop
  endfacet
  facet normal 0.447214 0.894427 0
    outer loop
      vertex -5 5 5
      vertex 4.99742 0.00128937 -5
      vertex -5 5 -5
    endloop
  endfacet
  facet normal -0.447215 -0.894427 0
    outer loop
      vertex -5 3.33334 -5
      vertex -1.66667 1.66667 5
      vertex -5 3.33334 5
    endloop
  endfacet
  facet normal -0.447215 -0.894427 -0
    outer loop
      vertex -1.66667 1.66667 5
      vertex -5 3.33334 -5
      vertex -1.66667 1.66667 -5
    endloop
  endfacet
endsolid OpenSCAD_Model
