solid OpenSCAD_Model
  facet normal 0 0 1
    outer loop
      vertex 2.49942 0.0534363 5
      vertex 4.99742 0.0621401 5
      vertex 4.99742 0.125993 5
    endloop
  endfacet
  facet normal 0 0 1
    outer loop
      vertex 4.99742 0.0621401 5
      vertex 2.49942 0.0534363 5
      vertex 4.98317 -0.382248 5
    endloop
  endfacet
  facet normal 0 0 1
    outer loop
      vertex 2.49942 0.0534363 5
      vertex 4.99742 0.125993 5
      vertex 4.96254 0.591356 5
    endloop
  endfacet
  facet normal 0 0 1
    outer loop
      vertex 2.47946 0.319702 5
      vertex 4.96254 0.591356 5
      vertex 4.95024 0.686761 5
    endloop
  endfacet
  facet normal -0 0 1
    outer loop
      vertex 2.49086 -0.21344 5
      vertex 4.98317 -0.382248 5
      vertex 2.49942 0.0534363 5
    endloop
  endfacet
  facet normal 0 0 1
    outer loop
      vertex 4.98317 -0.382248 5
      vertex 2.49086 -0.21344 5
      vertex 4.97908 -0.445874 5
    endloop
  endfacet
  facet normal 0 0 1
    outer loop
      vertex 2.43123 0.582321 5
      vertex 4.95024 0.686761 5
      vertex 4.86595 1.14571 5
    endloop
  endfacet
  facet normal 0 0 1
    outer loop
      vertex 2.43123 0.582321 5
      vertex 4.86595 1.14571 5
      vertex 4.8497 1.20766 5
    endloop
  endfacet
  facet normal 0 0 1
    outer loop
      vertex 4.97908 -0.445874 5
      vertex 2.49086 -0.21344 5
      vertex 4.91445 -0.908122 5
    endloop
  endfacet
  facet normal -0 0 1
    outer loop
      vertex 2.45389 -0.47789 5
      vertex 4.91445 -0.908122 5
      vertex 2.49086 -0.21344 5
    endloop
  endfacet
  facet normal 0 0 1
    outer loop
      vertex 2.43123 0.582321 5
      vertex 4.8497 1.20766 5
      vertex 4.72326 1.63368 5
    endloop
  endfacet
  facet normal 0 0 1
    outer loop
      vertex 2.35526 0.838303 5
      vertex 4.72326 1.63368 5
      vertex 4.70314 1.69429 5
    endloop
  endfacet
  facet normal 0 0 1
    outer loop
      vertex 4.91445 -0.908122 5
      vertex 2.45389 -0.47789 5
      vertex 4.89609 -1.00244 5
    endloop
  endfacet
  facet normal -0 0 1
    outer loop
      vertex 2.38893 -0.736877 5
      vertex 4.89609 -1.00244 5
      vertex 2.45389 -0.47789 5
    endloop
  endfacet
  facet normal 0 0 1
    outer loop
      vertex 2.35526 0.838303 5
      vertex 4.70314 1.69429 5
      vertex 4.52346 2.1248 5
    endloop
  endfacet
  facet normal 0 0 1
    outer loop
      vertex 2.25241 1.08472 5
      vertex 4.52346 2.1248 5
      vertex 4.48155 2.21184 5
    endloop
  endfacet
  facet normal 0 0 1
    outer loop
      vertex 4.89609 -1.00244 5
      vertex 2.38893 -0.736877 5
      vertex 4.78251 -1.45524 5
    endloop
  endfacet
  facet normal 0 0 1
    outer loop
      vertex 4.78251 -1.45524 5
      vertex 2.38893 -0.736877 5
      vertex 4.76249 -1.51553 5
    endloop
  endfacet
  facet normal 0 0 1
    outer loop
      vertex 2.12389 1.31876 5
      vertex 4.48155 2.21184 5
      vertex 4.25705 2.62062 5
    endloop
  endfacet
  facet normal 0 0 1
    outer loop
      vertex 2.12389 1.31876 5
      vertex 4.25705 2.62062 5
      vertex 4.2221 2.67431 5
    endloop
  endfacet
  facet normal 0 0 1
    outer loop
      vertex 4.76249 -1.51553 5
      vertex 2.38893 -0.736877 5
      vertex 4.60871 -1.93339 5
    endloop
  endfacet
  facet normal -0 0 1
    outer loop
      vertex 2.29671 -0.987473 5
      vertex 4.60871 -1.93339 5
      vertex 2.38893 -0.736877 5
    endloop
  endfacet
  facet normal 0 0 1
    outer loop
      vertex 2.12389 1.31876 5
      vertex 4.2221 2.67431 5
      vertex 3.96784 3.03881 5
    endloop
  endfacet
  facet normal 0 0 1
    outer loop
      vertex 1.97112 1.53775 5
      vertex 3.96784 3.03881 5
      vertex 3.92965 3.08998 5
    endloop
  endfacet
  facet normal 0 0 1
    outer loop
      vertex 4.60871 -1.93339 5
      vertex 2.29671 -0.987473 5
      vertex 4.58499 -1.99197 5
    endloop
  endfacet
  facet normal 0 0 1
    outer loop
      vertex 4.58499 -1.99197 5
      vertex 2.29671 -0.987473 5
      vertex 4.37786 -2.41057 5
    endloop
  endfacet
  facet normal 0 0 1
    outer loop
      vertex 1.97112 1.53775 5
      vertex 3.92965 3.08998 5
      vertex 3.62343 3.44199 5
    endloop
  endfacet
  facet normal 0 0 1
    outer loop
      vertex 1.79587 1.73921 5
      vertex 3.62343 3.44199 5
      vertex 3.55633 3.51128 5
    endloop
  endfacet
  facet normal -0 0 1
    outer loop
      vertex 2.17828 -1.22679 5
      vertex 4.37786 -2.41057 5
      vertex 2.29671 -0.987473 5
    endloop
  endfacet
  facet normal 0 0 1
    outer loop
      vertex 4.37786 -2.41057 5
      vertex 2.17828 -1.22679 5
      vertex 4.33085 -2.49405 5
    endloop
  endfacet
  facet normal 0 0 1
    outer loop
      vertex 1.60013 1.92084 5
      vertex 3.55633 3.51128 5
      vertex 3.21447 3.82848 5
    endloop
  endfacet
  facet normal 0 0 1
    outer loop
      vertex 1.60013 1.92084 5
      vertex 3.21447 3.82848 5
      vertex 3.1641 3.86866 5
    endloop
  endfacet
  facet normal -0 0 1
    outer loop
      vertex 2.03502 -1.45212 5
      vertex 4.33085 -2.49405 5
      vertex 2.17828 -1.22679 5
    endloop
  endfacet
  facet normal 0 0 1
    outer loop
      vertex 4.33085 -2.49405 5
      vertex 2.03502 -1.45212 5
      vertex 4.08019 -2.88828 5
    endloop
  endfacet
  facet normal 0 0 1
    outer loop
      vertex 1.60013 1.92084 5
      vertex 3.1641 3.86866 5
      vertex 2.80836 4.13414 5
    endloop
  endfacet
  facet normal 0 0 1
    outer loop
      vertex 1.38614 2.08054 5
      vertex 2.80836 4.13414 5
      vertex 2.75568 4.17089 5
    endloop
  endfacet
  facet normal 0 0 1
    outer loop
      vertex 4.08019 -2.88828 5
      vertex 2.03502 -1.45212 5
      vertex 4.04256 -2.93871 5
    endloop
  endfacet
  facet normal 0 0 1
    outer loop
      vertex 4.04256 -2.93871 5
      vertex 2.03502 -1.45212 5
      vertex 3.76455 -3.28731 5
    endloop
  endfacet
  facet normal 0 0 1
    outer loop
      vertex 4.96254 0.591356 5
      vertex 2.47946 0.319702 5
      vertex 2.49942 0.0534363 5
    endloop
  endfacet
  facet normal 0 0 1
    outer loop
      vertex 4.95024 0.686761 5
      vertex 2.43123 0.582321 5
      vertex 2.47946 0.319702 5
    endloop
  endfacet
  facet normal 0 0 1
    outer loop
      vertex 4.72326 1.63368 5
      vertex 2.35526 0.838303 5
      vertex 2.43123 0.582321 5
    endloop
  endfacet
  facet normal 0 0 1
    outer loop
      vertex 1.38614 2.08054 5
      vertex 2.75568 4.17089 5
      vertex 2.35422 4.40842 5
    endloop
  endfacet
  facet normal 0 0 1
    outer loop
      vertex 1.15634 2.21651 5
      vertex 2.35422 4.40842 5
      vertex 2.2688 4.45299 5
    endloop
  endfacet
  facet normal 0 0 1
    outer loop
      vertex 4.52346 2.1248 5
      vertex 2.25241 1.08472 5
      vertex 2.35526 0.838303 5
    endloop
  endfacet
  facet normal 0 0 1
    outer loop
      vertex 4.48155 2.21184 5
      vertex 2.12389 1.31876 5
      vertex 2.25241 1.08472 5
    endloop
  endfacet
  facet normal 0 0 1
    outer loop
      vertex 3.96784 3.03881 5
      vertex 1.97112 1.53775 5
      vertex 2.12389 1.31876 5
    endloop
  endfacet
  facet normal 0 0 1
    outer loop
      vertex 0.913345 2.32719 5
      vertex 2.2688 4.45299 5
      vertex 1.84412 4.64644 5
    endloop
  endfacet
  facet normal 0 0 1
    outer loop
      vertex 3.62343 3.44199 5
      vertex 1.79587 1.73921 5
      vertex 1.97112 1.53775 5
    endloop
  endfacet
  facet normal 0 0 1
    outer loop
      vertex 0.913345 2.32719 5
      vertex 1.84412 4.64644 5
      vertex 1.78428 4.66846 5
    endloop
  endfacet
  facet normal 0 0 1
    outer loop
      vertex 3.55633 3.51128 5
      vertex 1.60013 1.92084 5
      vertex 1.79587 1.73921 5
    endloop
  endfacet
  facet normal 0 0 1
    outer loop
      vertex 2.80836 4.13414 5
      vertex 1.38614 2.08054 5
      vertex 1.60013 1.92084 5
    endloop
  endfacet
  facet normal 0 0 1
    outer loop
      vertex 0.913345 2.32719 5
      vertex 1.78428 4.66846 5
      vertex 1.36228 4.80857 5
    endloop
  endfacet
  facet normal 0 0 1
    outer loop
      vertex 0.659927 2.41133 5
      vertex 1.36228 4.80857 5
      vertex 1.30116 4.82671 5
    endloop
  endfacet
  facet normal 0 0 1
    outer loop
      vertex 2.35422 4.40842 5
      vertex 1.15634 2.21651 5
      vertex 1.38614 2.08054 5
    endloop
  endfacet
  facet normal 0 0 1
    outer loop
      vertex 2.2688 4.45299 5
      vertex 0.913345 2.32719 5
      vertex 1.15634 2.21651 5
    endloop
  endfacet
  facet normal 0 0 1
    outer loop
      vertex 0.659927 2.41133 5
      vertex 1.30116 4.82671 5
      vertex 0.845202 4.92567 5
    endloop
  endfacet
  facet normal 0 0 1
    outer loop
      vertex 0.398987 2.46796 5
      vertex 0.845202 4.92567 5
      vertex 0.7499 4.94107 5
    endloop
  endfacet
  facet normal 0 0 1
    outer loop
      vertex 1.36228 4.80857 5
      vertex 0.659927 2.41133 5
      vertex 0.913345 2.32719 5
    endloop
  endfacet
  facet normal 0 0 1
    outer loop
      vertex 0.845202 4.92567 5
      vertex 0.398987 2.46796 5
      vertex 0.659927 2.41133 5
    endloop
  endfacet
  facet normal 0 0 1
    outer loop
      vertex 0.133499 2.49644 5
      vertex 0.7499 4.94107 5
      vertex 0.286256 4.99081 5
    endloop
  endfacet
  facet normal 0 0 1
    outer loop
      vertex 0.133499 2.49644 5
      vertex 0.286256 4.99081 5
      vertex 0.221959 4.99287 5
    endloop
  endfacet
  facet normal 0 0 1
    outer loop
      vertex 0.7499 4.94107 5
      vertex 0.133499 2.49644 5
      vertex 0.398987 2.46796 5
    endloop
  endfacet
  facet normal 0 0 1
    outer loop
      vertex 0.221959 4.99287 5
      vertex -0.133514 2.49644 5
      vertex 0.133499 2.49644 5
    endloop
  endfacet
  facet normal -0 0 1
    outer loop
      vertex -0.267029 4.99287 5
      vertex -0.133514 2.49644 5
      vertex 0.221959 4.99287 5
    endloop
  endfacet
  facet normal 0 0 1
    outer loop
      vertex -0.267029 4.99287 5
      vertex -0.399002 2.46796 5
      vertex -0.133514 2.49644 5
    endloop
  endfacet
  facet normal -0 0 1
    outer loop
      vertex -0.798004 4.93591 5
      vertex -0.399002 2.46796 5
      vertex -0.267029 4.99287 5
    endloop
  endfacet
  facet normal 0 0 1
    outer loop
      vertex -0.399002 2.46796 5
      vertex -0.798004 4.93591 5
      vertex -0.659943 2.41133 5
    endloop
  endfacet
  facet normal -0 0 1
    outer loop
      vertex -1.31989 4.82265 5
      vertex -0.659943 2.41133 5
      vertex -0.798004 4.93591 5
    endloop
  endfacet
  facet normal 0 0 1
    outer loop
      vertex -0.659943 2.41133 5
      vertex -1.31989 4.82265 5
      vertex -0.913361 2.32719 5
    endloop
  endfacet
  facet normal -0 0 1
    outer loop
      vertex -1.82671 4.65437 5
      vertex -0.913361 2.32719 5
      vertex -1.31989 4.82265 5
    endloop
  endfacet
  facet normal 0 0 1
    outer loop
      vertex -0.913361 2.32719 5
      vertex -1.82671 4.65437 5
      vertex -1.15636 2.21651 5
    endloop
  endfacet
  facet normal -0 0 1
    outer loop
      vertex -2.3127 4.433 5
      vertex -1.15636 2.21651 5
      vertex -1.82671 4.65437 5
    endloop
  endfacet
  facet normal 0 0 1
    outer loop
      vertex -1.15636 2.21651 5
      vertex -2.3127 4.433 5
      vertex -1.38615 2.08054 5
    endloop
  endfacet
  facet normal -0 0 1
    outer loop
      vertex -2.77231 4.16106 5
      vertex -1.38615 2.08054 5
      vertex -2.3127 4.433 5
    endloop
  endfacet
  facet normal 0 0 1
    outer loop
      vertex -1.38615 2.08054 5
      vertex -2.77231 4.16106 5
      vertex -1.60014 1.92084 5
    endloop
  endfacet
  facet normal -0 0 1
    outer loop
      vertex -3.20029 3.84166 5
      vertex -1.60014 1.92084 5
      vertex -2.77231 4.16106 5
    endloop
  endfacet
  facet normal 0 0 1
    outer loop
      vertex -1.60014 1.92084 5
      vertex -3.20029 3.84166 5
      vertex -1.79588 1.73921 5
    endloop
  endfacet
  facet normal -0 0 1
    outer loop
      vertex -3.59175 3.47842 5
      vertex -1.79588 1.73921 5
      vertex -3.20029 3.84166 5
    endloop
  endfacet
  facet normal 0 0 1
    outer loop
      vertex -1.79588 1.73921 5
      vertex -3.59175 3.47842 5
      vertex -1.97113 1.53775 5
    endloop
  endfacet
  facet normal -0 0 1
    outer loop
      vertex -3.94226 3.0755 5
      vertex -1.97113 1.53775 5
      vertex -3.59175 3.47842 5
    endloop
  endfacet
  facet normal 0 0 1
    outer loop
      vertex -1.97113 1.53775 5
      vertex -3.94226 3.0755 5
      vertex -2.1239 1.31876 5
    endloop
  endfacet
  facet normal -0 0 1
    outer loop
      vertex -4.24779 2.63751 5
      vertex -2.1239 1.31876 5
      vertex -3.94226 3.0755 5
    endloop
  endfacet
  facet normal 0 0 1
    outer loop
      vertex -2.1239 1.31876 5
      vertex -4.24779 2.63751 5
      vertex -2.25243 1.08472 5
    endloop
  endfacet
  facet normal -0 0 1
    outer loop
      vertex -4.50485 2.16943 5
      vertex -2.25243 1.08472 5
      vertex -4.24779 2.63751 5
    endloop
  endfacet
  facet normal 0 0 1
    outer loop
      vertex -2.49944 0.0534363 5
      vertex -2.94757 -4.03879 5
      vertex -2.5 -4.33012 5
    endloop
  endfacet
  facet normal 0 0 1
    outer loop
      vertex -2.25243 1.08472 5
      vertex -4.50485 2.16943 5
      vertex -2.35527 0.838303 5
    endloop
  endfacet
  facet normal 0 0 1
    outer loop
      vertex -2.49944 0.0534363 5
      vertex -3.36151 -3.70139 5
      vertex -2.94757 -4.03879 5
    endloop
  endfacet
  facet normal -0 0 1
    outer loop
      vertex -4.71054 1.67659 5
      vertex -2.35527 0.838303 5
      vertex -4.50485 2.16943 5
    endloop
  endfacet
  facet normal 0 0 1
    outer loop
      vertex -2.49944 0.0534363 5
      vertex -3.73711 -3.32175 5
      vertex -3.36151 -3.70139 5
    endloop
  endfacet
  facet normal 0 0 1
    outer loop
      vertex -2.35527 0.838303 5
      vertex -4.71054 1.67659 5
      vertex -2.43124 0.582321 5
    endloop
  endfacet
  facet normal 0 0 1
    outer loop
      vertex -2.49944 0.0534363 5
      vertex -4.07007 -2.90424 5
      vertex -3.73711 -3.32175 5
    endloop
  endfacet
  facet normal -0 0 1
    outer loop
      vertex -4.86249 1.16464 5
      vertex -2.43124 0.582321 5
      vertex -4.71054 1.67659 5
    endloop
  endfacet
  facet normal 0 0 1
    outer loop
      vertex -2.49944 0.0534363 5
      vertex -4.3566 -2.45358 5
      vertex -4.07007 -2.90424 5
    endloop
  endfacet
  facet normal 0 0 1
    outer loop
      vertex -2.43124 0.582321 5
      vertex -4.86249 1.16464 5
      vertex -2.47948 0.319702 5
    endloop
  endfacet
  facet normal 0 0 1
    outer loop
      vertex -2.49944 0.0534363 5
      vertex -4.59343 -1.97495 5
      vertex -4.3566 -2.45358 5
    endloop
  endfacet
  facet normal -0 0 1
    outer loop
      vertex -4.95895 0.639389 5
      vertex -2.47948 0.319702 5
      vertex -4.86249 1.16464 5
    endloop
  endfacet
  facet normal 0 0 1
    outer loop
      vertex -2.49944 0.0534363 5
      vertex -4.77788 -1.47377 5
      vertex -4.59343 -1.97495 5
    endloop
  endfacet
  facet normal 0 0 1
    outer loop
      vertex -2.47948 0.319702 5
      vertex -4.95895 0.639389 5
      vertex -2.49944 0.0534363 5
    endloop
  endfacet
  facet normal 0 0 1
    outer loop
      vertex -2.49944 0.0534363 5
      vertex -4.90781 -0.95578 5
      vertex -4.77788 -1.47377 5
    endloop
  endfacet
  facet normal -0 0 1
    outer loop
      vertex -4.99887 0.106857 5
      vertex -2.49944 0.0534363 5
      vertex -4.95895 0.639389 5
    endloop
  endfacet
  facet normal 0 0 1
    outer loop
      vertex -2.49944 0.0534363 5
      vertex -4.98175 -0.426895 5
      vertex -4.90781 -0.95578 5
    endloop
  endfacet
  facet normal 0 0 1
    outer loop
      vertex -2.49944 0.0534363 5
      vertex -4.99887 0.106857 5
      vertex -4.98175 -0.426895 5
    endloop
  endfacet
  facet normal -0 0 1
    outer loop
      vertex 1.86855 -1.66087 5
      vertex 3.76455 -3.28731 5
      vertex 2.03502 -1.45212 5
    endloop
  endfacet
  facet normal 0 0 1
    outer loop
      vertex 3.76455 -3.28731 5
      vertex 1.86855 -1.66087 5
      vertex 3.72381 -3.33517 5
    endloop
  endfacet
  facet normal 0 0 1
    outer loop
      vertex 3.72381 -3.33517 5
      vertex 1.86855 -1.66087 5
      vertex 3.3952 -3.66732 5
    endloop
  endfacet
  facet normal -0 0 1
    outer loop
      vertex 1.68074 -1.85069 5
      vertex 3.3952 -3.66732 5
      vertex 1.86855 -1.66087 5
    endloop
  endfacet
  facet normal 0 0 1
    outer loop
      vertex 3.3952 -3.66732 5
      vertex 1.68074 -1.85069 5
      vertex 3.32434 -3.73167 5
    endloop
  endfacet
  facet normal -0 0 1
    outer loop
      vertex 1.47377 -2.01939 5
      vertex 3.32434 -3.73167 5
      vertex 1.68074 -1.85069 5
    endloop
  endfacet
  facet normal 0 0 1
    outer loop
      vertex 3.32434 -3.73167 5
      vertex 1.47377 -2.01939 5
      vertex 2.96223 -4.02683 5
    endloop
  endfacet
  facet normal 0 0 1
    outer loop
      vertex 2.96223 -4.02683 5
      vertex 1.47377 -2.01939 5
      vertex 2.91052 -4.0629 5
    endloop
  endfacet
  facet normal 0 0 1
    outer loop
      vertex 2.91052 -4.0629 5
      vertex 1.47377 -2.01939 5
      vertex 2.53723 -4.30589 5
    endloop
  endfacet
  facet normal -0 0 1
    outer loop
      vertex 1.25 -2.16505 5
      vertex 2.53723 -4.30589 5
      vertex 1.47377 -2.01939 5
    endloop
  endfacet
  facet normal 0 0 1
    outer loop
      vertex 2.53723 -4.30589 5
      vertex 1.25 -2.16505 5
      vertex 2.49929 -4.32889 5
    endloop
  endfacet
  facet normal 0 0 1
    outer loop
      vertex -1.47379 -2.01939 5
      vertex -2.5 -4.33012 5
      vertex -1.25 -2.16505 5
    endloop
  endfacet
  facet normal 0 0 1
    outer loop
      vertex -1.68076 -1.85069 5
      vertex -2.5 -4.33012 5
      vertex -1.47379 -2.01939 5
    endloop
  endfacet
  facet normal 0 0 1
    outer loop
      vertex -1.86856 -1.66087 5
      vertex -2.5 -4.33012 5
      vertex -1.68076 -1.85069 5
    endloop
  endfacet
  facet normal 0 0 1
    outer loop
      vertex -2.03503 -1.45212 5
      vertex -2.5 -4.33012 5
      vertex -1.86856 -1.66087 5
    endloop
  endfacet
  facet normal 0 0 1
    outer loop
      vertex -2.1783 -1.22679 5
      vertex -2.5 -4.33012 5
      vertex -2.03503 -1.45212 5
    endloop
  endfacet
  facet normal 0 0 1
    outer loop
      vertex -2.29672 -0.987473 5
      vertex -2.5 -4.33012 5
      vertex -2.1783 -1.22679 5
    endloop
  endfacet
  facet normal 0 0 1
    outer loop
      vertex -2.38895 -0.736877 5
      vertex -2.5 -4.33012 5
      vertex -2.29672 -0.987473 5
    endloop
  endfacet
  facet normal 0 0 1
    outer loop
      vertex -2.4539 -0.47789 5
      vertex -2.5 -4.33012 5
      vertex -2.38895 -0.736877 5
    endloop
  endfacet
  facet normal 0 0 1
    outer loop
      vertex -2.49088 -0.21344 5
      vertex -2.5 -4.33012 5
      vertex -2.4539 -0.47789 5
    endloop
  endfacet
  facet normal 0 0 1
    outer loop
      vertex -2.5 -4.33012 5
      vertex -2.49088 -0.21344 5
      vertex -2.49944 0.0534363 5
    endloop
  endfacet
  facet normal 0 0 -1
    outer loop
      vertex -4.3566 -2.45358 -5
      vertex -2.1783 -1.22679 -5
      vertex -4.07007 -2.90424 -5
    endloop
  endfacet
  facet normal -0 0 -1
    outer loop
      vertex -2.03503 -1.45212 -5
      vertex -4.07007 -2.90424 -5
      vertex -2.1783 -1.22679 -5
    endloop
  endfacet
  facet normal 0 0 -1
    outer loop
      vertex -4.07007 -2.90424 -5
      vertex -2.03503 -1.45212 -5
      vertex -3.73711 -3.32175 -5
    endloop
  endfacet
  facet normal -0 0 -1
    outer loop
      vertex -1.86856 -1.66087 -5
      vertex -3.73711 -3.32175 -5
      vertex -2.03503 -1.45212 -5
    endloop
  endfacet
  facet normal 0 0 -1
    outer loop
      vertex -3.73711 -3.32175 -5
      vertex -1.86856 -1.66087 -5
      vertex -3.36151 -3.70139 -5
    endloop
  endfacet
  facet normal -0 0 -1
    outer loop
      vertex -1.68076 -1.85069 -5
      vertex -3.36151 -3.70139 -5
      vertex -1.86856 -1.66087 -5
    endloop
  endfacet
  facet normal 0 0 -1
    outer loop
      vertex -3.36151 -3.70139 -5
      vertex -1.68076 -1.85069 -5
      vertex -2.94757 -4.03879 -5
    endloop
  endfacet
  facet normal -0 0 -1
    outer loop
      vertex -1.47379 -2.01939 -5
      vertex -2.94757 -4.03879 -5
      vertex -1.68076 -1.85069 -5
    endloop
  endfacet
  facet normal 0 0 -1
    outer loop
      vertex -2.94757 -4.03879 -5
      vertex -1.47379 -2.01939 -5
      vertex -2.5 -4.33012 -5
    endloop
  endfacet
  facet normal 0 0 -1
    outer loop
      vertex -2.5 -4.33012 -5
      vertex -1.47379 -2.01939 -5
      vertex -1.25 -2.16505 -5
    endloop
  endfacet
  facet normal 0 0 -1
    outer loop
      vertex 1.25 -2.16505 -5
      vertex 2.53723 -4.30589 -5
      vertex 2.49929 -4.32889 -5
    endloop
  endfacet
  facet normal 0 0 -1
    outer loop
      vertex 2.53723 -4.30589 -5
      vertex 2.49086 -0.21344 -5
      vertex 2.49942 0.0534363 -5
    endloop
  endfacet
  facet normal 0 0 -1
    outer loop
      vertex 2.53723 -4.30589 -5
      vertex 2.45389 -0.47789 -5
      vertex 2.49086 -0.21344 -5
    endloop
  endfacet
  facet normal 0 0 -1
    outer loop
      vertex 2.53723 -4.30589 -5
      vertex 2.38893 -0.736877 -5
      vertex 2.45389 -0.47789 -5
    endloop
  endfacet
  facet normal 0 0 -1
    outer loop
      vertex 2.53723 -4.30589 -5
      vertex 2.29671 -0.987473 -5
      vertex 2.38893 -0.736877 -5
    endloop
  endfacet
  facet normal 0 0 -1
    outer loop
      vertex 2.53723 -4.30589 -5
      vertex 2.17828 -1.22679 -5
      vertex 2.29671 -0.987473 -5
    endloop
  endfacet
  facet normal 0 0 -1
    outer loop
      vertex 2.53723 -4.30589 -5
      vertex 2.03502 -1.45212 -5
      vertex 2.17828 -1.22679 -5
    endloop
  endfacet
  facet normal 0 0 -1
    outer loop
      vertex 2.53723 -4.30589 -5
      vertex 1.86855 -1.66087 -5
      vertex 2.03502 -1.45212 -5
    endloop
  endfacet
  facet normal 0 0 -1
    outer loop
      vertex 2.53723 -4.30589 -5
      vertex 1.68074 -1.85069 -5
      vertex 1.86855 -1.66087 -5
    endloop
  endfacet
  facet normal 0 0 -1
    outer loop
      vertex 2.53723 -4.30589 -5
      vertex 1.47377 -2.01939 -5
      vertex 1.68074 -1.85069 -5
    endloop
  endfacet
  facet normal 0 0 -1
    outer loop
      vertex 2.53723 -4.30589 -5
      vertex 1.25 -2.16505 -5
      vertex 1.47377 -2.01939 -5
    endloop
  endfacet
  facet normal 0 0 -1
    outer loop
      vertex 2.49942 0.0534363 -5
      vertex 4.99742 0.0621401 -5
      vertex 4.98317 -0.382248 -5
    endloop
  endfacet
  facet normal 0 0 -1
    outer loop
      vertex 2.49942 0.0534363 -5
      vertex 4.98317 -0.382248 -5
      vertex 4.97908 -0.445874 -5
    endloop
  endfacet
  facet normal -0 0 -1
    outer loop
      vertex 4.99742 0.0621401 -5
      vertex 2.49942 0.0534363 -5
      vertex 4.99742 0.125993 -5
    endloop
  endfacet
  facet normal -0 0 -1
    outer loop
      vertex 4.99742 0.125993 -5
      vertex 2.49942 0.0534363 -5
      vertex 4.96254 0.591356 -5
    endloop
  endfacet
  facet normal 0 0 -1
    outer loop
      vertex 2.49942 0.0534363 -5
      vertex 4.97908 -0.445874 -5
      vertex 4.91445 -0.908122 -5
    endloop
  endfacet
  facet normal 0 0 -1
    outer loop
      vertex 2.49942 0.0534363 -5
      vertex 4.91445 -0.908122 -5
      vertex 4.89609 -1.00244 -5
    endloop
  endfacet
  facet normal 0 0 -1
    outer loop
      vertex 2.47946 0.319702 -5
      vertex 4.96254 0.591356 -5
      vertex 2.49942 0.0534363 -5
    endloop
  endfacet
  facet normal -0 0 -1
    outer loop
      vertex 4.96254 0.591356 -5
      vertex 2.47946 0.319702 -5
      vertex 4.95024 0.686761 -5
    endloop
  endfacet
  facet normal 0 0 -1
    outer loop
      vertex 2.49942 0.0534363 -5
      vertex 4.89609 -1.00244 -5
      vertex 4.78251 -1.45524 -5
    endloop
  endfacet
  facet normal 0 0 -1
    outer loop
      vertex 2.49942 0.0534363 -5
      vertex 4.78251 -1.45524 -5
      vertex 4.76249 -1.51553 -5
    endloop
  endfacet
  facet normal 0 0 -1
    outer loop
      vertex 2.43123 0.582321 -5
      vertex 4.95024 0.686761 -5
      vertex 2.47946 0.319702 -5
    endloop
  endfacet
  facet normal -0 0 -1
    outer loop
      vertex 4.95024 0.686761 -5
      vertex 2.43123 0.582321 -5
      vertex 4.86595 1.14571 -5
    endloop
  endfacet
  facet normal 0 0 -1
    outer loop
      vertex 2.49942 0.0534363 -5
      vertex 4.76249 -1.51553 -5
      vertex 4.60871 -1.93339 -5
    endloop
  endfacet
  facet normal 0 0 -1
    outer loop
      vertex 2.49942 0.0534363 -5
      vertex 4.60871 -1.93339 -5
      vertex 4.58499 -1.99197 -5
    endloop
  endfacet
  facet normal -0 0 -1
    outer loop
      vertex 4.86595 1.14571 -5
      vertex 2.43123 0.582321 -5
      vertex 4.8497 1.20766 -5
    endloop
  endfacet
  facet normal -0 0 -1
    outer loop
      vertex 4.8497 1.20766 -5
      vertex 2.43123 0.582321 -5
      vertex 4.72326 1.63368 -5
    endloop
  endfacet
  facet normal 0 0 -1
    outer loop
      vertex 2.49942 0.0534363 -5
      vertex 4.58499 -1.99197 -5
      vertex 4.37786 -2.41057 -5
    endloop
  endfacet
  facet normal 0 0 -1
    outer loop
      vertex 2.49942 0.0534363 -5
      vertex 4.37786 -2.41057 -5
      vertex 4.33085 -2.49405 -5
    endloop
  endfacet
  facet normal 0 0 -1
    outer loop
      vertex 2.35526 0.838303 -5
      vertex 4.72326 1.63368 -5
      vertex 2.43123 0.582321 -5
    endloop
  endfacet
  facet normal -0 0 -1
    outer loop
      vertex 4.72326 1.63368 -5
      vertex 2.35526 0.838303 -5
      vertex 4.70314 1.69429 -5
    endloop
  endfacet
  facet normal 0 0 -1
    outer loop
      vertex 2.49942 0.0534363 -5
      vertex 4.33085 -2.49405 -5
      vertex 4.08019 -2.88828 -5
    endloop
  endfacet
  facet normal 0 0 -1
    outer loop
      vertex 2.49942 0.0534363 -5
      vertex 4.08019 -2.88828 -5
      vertex 4.04256 -2.93871 -5
    endloop
  endfacet
  facet normal -0 0 -1
    outer loop
      vertex 4.70314 1.69429 -5
      vertex 2.35526 0.838303 -5
      vertex 4.52346 2.1248 -5
    endloop
  endfacet
  facet normal 0 0 -1
    outer loop
      vertex 2.25241 1.08472 -5
      vertex 4.52346 2.1248 -5
      vertex 2.35526 0.838303 -5
    endloop
  endfacet
  facet normal 0 0 -1
    outer loop
      vertex 2.49942 0.0534363 -5
      vertex 4.04256 -2.93871 -5
      vertex 3.76455 -3.28731 -5
    endloop
  endfacet
  facet normal 0 0 -1
    outer loop
      vertex 2.49942 0.0534363 -5
      vertex 3.76455 -3.28731 -5
      vertex 3.72381 -3.33517 -5
    endloop
  endfacet
  facet normal -0 0 -1
    outer loop
      vertex 4.52346 2.1248 -5
      vertex 2.25241 1.08472 -5
      vertex 4.48155 2.21184 -5
    endloop
  endfacet
  facet normal 0 0 -1
    outer loop
      vertex 2.12389 1.31876 -5
      vertex 4.48155 2.21184 -5
      vertex 2.25241 1.08472 -5
    endloop
  endfacet
  facet normal 0 0 -1
    outer loop
      vertex 2.49942 0.0534363 -5
      vertex 3.72381 -3.33517 -5
      vertex 3.3952 -3.66732 -5
    endloop
  endfacet
  facet normal 0 0 -1
    outer loop
      vertex 2.49942 0.0534363 -5
      vertex 3.3952 -3.66732 -5
      vertex 3.32434 -3.73167 -5
    endloop
  endfacet
  facet normal -0 0 -1
    outer loop
      vertex 4.48155 2.21184 -5
      vertex 2.12389 1.31876 -5
      vertex 4.25705 2.62062 -5
    endloop
  endfacet
  facet normal -0 0 -1
    outer loop
      vertex 4.25705 2.62062 -5
      vertex 2.12389 1.31876 -5
      vertex 4.2221 2.67431 -5
    endloop
  endfacet
  facet normal 0 0 -1
    outer loop
      vertex 2.49942 0.0534363 -5
      vertex 3.32434 -3.73167 -5
      vertex 2.96223 -4.02683 -5
    endloop
  endfacet
  facet normal 0 0 -1
    outer loop
      vertex 2.49942 0.0534363 -5
      vertex 2.96223 -4.02683 -5
      vertex 2.91052 -4.0629 -5
    endloop
  endfacet
  facet normal -0 0 -1
    outer loop
      vertex 4.2221 2.67431 -5
      vertex 2.12389 1.31876 -5
      vertex 3.96784 3.03881 -5
    endloop
  endfacet
  facet normal 0 0 -1
    outer loop
      vertex 1.97112 1.53775 -5
      vertex 3.96784 3.03881 -5
      vertex 2.12389 1.31876 -5
    endloop
  endfacet
  facet normal 0 0 -1
    outer loop
      vertex 2.49942 0.0534363 -5
      vertex 2.91052 -4.0629 -5
      vertex 2.53723 -4.30589 -5
    endloop
  endfacet
  facet normal -0 0 -1
    outer loop
      vertex 3.96784 3.03881 -5
      vertex 1.97112 1.53775 -5
      vertex 3.92965 3.08998 -5
    endloop
  endfacet
  facet normal -0 0 -1
    outer loop
      vertex 3.92965 3.08998 -5
      vertex 1.97112 1.53775 -5
      vertex 3.62343 3.44199 -5
    endloop
  endfacet
  facet normal 0 0 -1
    outer loop
      vertex 1.79587 1.73921 -5
      vertex 3.62343 3.44199 -5
      vertex 1.97112 1.53775 -5
    endloop
  endfacet
  facet normal -0 0 -1
    outer loop
      vertex 3.62343 3.44199 -5
      vertex 1.79587 1.73921 -5
      vertex 3.55633 3.51128 -5
    endloop
  endfacet
  facet normal 0 0 -1
    outer loop
      vertex 1.60013 1.92084 -5
      vertex 3.55633 3.51128 -5
      vertex 1.79587 1.73921 -5
    endloop
  endfacet
  facet normal -0 0 -1
    outer loop
      vertex 3.55633 3.51128 -5
      vertex 1.60013 1.92084 -5
      vertex 3.21447 3.82848 -5
    endloop
  endfacet
  facet normal -0 0 -1
    outer loop
      vertex 3.21447 3.82848 -5
      vertex 1.60013 1.92084 -5
      vertex 3.1641 3.86866 -5
    endloop
  endfacet
  facet normal -0 0 -1
    outer loop
      vertex 3.1641 3.86866 -5
      vertex 1.60013 1.92084 -5
      vertex 2.80836 4.13414 -5
    endloop
  endfacet
  facet normal 0 0 -1
    outer loop
      vertex 1.38614 2.08054 -5
      vertex 2.80836 4.13414 -5
      vertex 1.60013 1.92084 -5
    endloop
  endfacet
  facet normal -0 0 -1
    outer loop
      vertex 2.80836 4.13414 -5
      vertex 1.38614 2.08054 -5
      vertex 2.75568 4.17089 -5
    endloop
  endfacet
  facet normal -0 0 -1
    outer loop
      vertex 2.75568 4.17089 -5
      vertex 1.38614 2.08054 -5
      vertex 2.35422 4.40842 -5
    endloop
  endfacet
  facet normal 0 0 -1
    outer loop
      vertex 1.15634 2.21651 -5
      vertex 2.35422 4.40842 -5
      vertex 1.38614 2.08054 -5
    endloop
  endfacet
  facet normal -0 0 -1
    outer loop
      vertex 2.35422 4.40842 -5
      vertex 1.15634 2.21651 -5
      vertex 2.2688 4.45299 -5
    endloop
  endfacet
  facet normal 0 0 -1
    outer loop
      vertex 0.913345 2.32719 -5
      vertex 2.2688 4.45299 -5
      vertex 1.15634 2.21651 -5
    endloop
  endfacet
  facet normal -0 0 -1
    outer loop
      vertex 2.2688 4.45299 -5
      vertex 0.913345 2.32719 -5
      vertex 1.84412 4.64644 -5
    endloop
  endfacet
  facet normal -0 0 -1
    outer loop
      vertex 1.84412 4.64644 -5
      vertex 0.913345 2.32719 -5
      vertex 1.78428 4.66846 -5
    endloop
  endfacet
  facet normal -0 0 -1
    outer loop
      vertex 1.78428 4.66846 -5
      vertex 0.913345 2.32719 -5
      vertex 1.36228 4.80857 -5
    endloop
  endfacet
  facet normal 0 0 -1
    outer loop
      vertex 0.659927 2.41133 -5
      vertex 1.36228 4.80857 -5
      vertex 0.913345 2.32719 -5
    endloop
  endfacet
  facet normal -0 0 -1
    outer loop
      vertex 1.36228 4.80857 -5
      vertex 0.659927 2.41133 -5
      vertex 1.30116 4.82671 -5
    endloop
  endfacet
  facet normal -0 0 -1
    outer loop
      vertex 1.30116 4.82671 -5
      vertex 0.659927 2.41133 -5
      vertex 0.845202 4.92567 -5
    endloop
  endfacet
  facet normal 0 0 -1
    outer loop
      vertex 0.398987 2.46796 -5
      vertex 0.845202 4.92567 -5
      vertex 0.659927 2.41133 -5
    endloop
  endfacet
  facet normal -0 0 -1
    outer loop
      vertex 0.845202 4.92567 -5
      vertex 0.398987 2.46796 -5
      vertex 0.7499 4.94107 -5
    endloop
  endfacet
  facet normal 0 0 -1
    outer loop
      vertex 0.133499 2.49644 -5
      vertex 0.7499 4.94107 -5
      vertex 0.398987 2.46796 -5
    endloop
  endfacet
  facet normal -0 0 -1
    outer loop
      vertex 0.7499 4.94107 -5
      vertex 0.133499 2.49644 -5
      vertex 0.286256 4.99081 -5
    endloop
  endfacet
  facet normal -0 0 -1
    outer loop
      vertex 0.286256 4.99081 -5
      vertex 0.133499 2.49644 -5
      vertex 0.221959 4.99287 -5
    endloop
  endfacet
  facet normal 0 0 -1
    outer loop
      vertex -0.133514 2.49644 -5
      vertex 0.221959 4.99287 -5
      vertex 0.133499 2.49644 -5
    endloop
  endfacet
  facet normal 0 0 -1
    outer loop
      vertex -0.133514 2.49644 -5
      vertex -0.267029 4.99287 -5
      vertex 0.221959 4.99287 -5
    endloop
  endfacet
  facet normal 0 0 -1
    outer loop
      vertex -0.399002 2.46796 -5
      vertex -0.267029 4.99287 -5
      vertex -0.133514 2.49644 -5
    endloop
  endfacet
  facet normal 0 0 -1
    outer loop
      vertex -0.798004 4.93591 -5
      vertex -0.399002 2.46796 -5
      vertex -0.659943 2.41133 -5
    endloop
  endfacet
  facet normal 0 0 -1
    outer loop
      vertex -0.399002 2.46796 -5
      vertex -0.798004 4.93591 -5
      vertex -0.267029 4.99287 -5
    endloop
  endfacet
  facet normal 0 0 -1
    outer loop
      vertex -1.31989 4.82265 -5
      vertex -0.659943 2.41133 -5
      vertex -0.913361 2.32719 -5
    endloop
  endfacet
  facet normal 0 0 -1
    outer loop
      vertex -1.82671 4.65437 -5
      vertex -0.913361 2.32719 -5
      vertex -1.15636 2.21651 -5
    endloop
  endfacet
  facet normal 0 0 -1
    outer loop
      vertex -0.659943 2.41133 -5
      vertex -1.31989 4.82265 -5
      vertex -0.798004 4.93591 -5
    endloop
  endfacet
  facet normal 0 0 -1
    outer loop
      vertex -2.3127 4.433 -5
      vertex -1.15636 2.21651 -5
      vertex -1.38615 2.08054 -5
    endloop
  endfacet
  facet normal 0 0 -1
    outer loop
      vertex -2.77231 4.16106 -5
      vertex -1.38615 2.08054 -5
      vertex -1.60014 1.92084 -5
    endloop
  endfacet
  facet normal 0 0 -1
    outer loop
      vertex -3.20029 3.84166 -5
      vertex -1.60014 1.92084 -5
      vertex -1.79588 1.73921 -5
    endloop
  endfacet
  facet normal 0 0 -1
    outer loop
      vertex -0.913361 2.32719 -5
      vertex -1.82671 4.65437 -5
      vertex -1.31989 4.82265 -5
    endloop
  endfacet
  facet normal 0 0 -1
    outer loop
      vertex -3.59175 3.47842 -5
      vertex -1.79588 1.73921 -5
      vertex -1.97113 1.53775 -5
    endloop
  endfacet
  facet normal 0 0 -1
    outer loop
      vertex -3.94226 3.0755 -5
      vertex -1.97113 1.53775 -5
      vertex -2.1239 1.31876 -5
    endloop
  endfacet
  facet normal 0 0 -1
    outer loop
      vertex -4.24779 2.63751 -5
      vertex -2.1239 1.31876 -5
      vertex -2.25243 1.08472 -5
    endloop
  endfacet
  facet normal 0 0 -1
    outer loop
      vertex -1.15636 2.21651 -5
      vertex -2.3127 4.433 -5
      vertex -1.82671 4.65437 -5
    endloop
  endfacet
  facet normal 0 0 -1
    outer loop
      vertex -4.50485 2.16943 -5
      vertex -2.25243 1.08472 -5
      vertex -2.35527 0.838303 -5
    endloop
  endfacet
  facet normal 0 0 -1
    outer loop
      vertex -4.71054 1.67659 -5
      vertex -2.35527 0.838303 -5
      vertex -2.43124 0.582321 -5
    endloop
  endfacet
  facet normal 0 0 -1
    outer loop
      vertex -4.86249 1.16464 -5
      vertex -2.43124 0.582321 -5
      vertex -2.47948 0.319702 -5
    endloop
  endfacet
  facet normal 0 0 -1
    outer loop
      vertex -4.95895 0.639389 -5
      vertex -2.47948 0.319702 -5
      vertex -2.49944 0.0534363 -5
    endloop
  endfacet
  facet normal 0 0 -1
    outer loop
      vertex -1.38615 2.08054 -5
      vertex -2.77231 4.16106 -5
      vertex -2.3127 4.433 -5
    endloop
  endfacet
  facet normal -0 0 -1
    outer loop
      vertex -2.1783 -1.22679 -5
      vertex -4.3566 -2.45358 -5
      vertex -2.29672 -0.987473 -5
    endloop
  endfacet
  facet normal 0 0 -1
    outer loop
      vertex -4.59343 -1.97495 -5
      vertex -2.29672 -0.987473 -5
      vertex -4.3566 -2.45358 -5
    endloop
  endfacet
  facet normal 0 0 -1
    outer loop
      vertex -1.60014 1.92084 -5
      vertex -3.20029 3.84166 -5
      vertex -2.77231 4.16106 -5
    endloop
  endfacet
  facet normal -0 0 -1
    outer loop
      vertex -2.29672 -0.987473 -5
      vertex -4.59343 -1.97495 -5
      vertex -2.38895 -0.736877 -5
    endloop
  endfacet
  facet normal 0 0 -1
    outer loop
      vertex -1.79588 1.73921 -5
      vertex -3.59175 3.47842 -5
      vertex -3.20029 3.84166 -5
    endloop
  endfacet
  facet normal 0 0 -1
    outer loop
      vertex -4.77788 -1.47377 -5
      vertex -2.38895 -0.736877 -5
      vertex -4.59343 -1.97495 -5
    endloop
  endfacet
  facet normal 0 0 -1
    outer loop
      vertex -1.97113 1.53775 -5
      vertex -3.94226 3.0755 -5
      vertex -3.59175 3.47842 -5
    endloop
  endfacet
  facet normal -0 0 -1
    outer loop
      vertex -2.38895 -0.736877 -5
      vertex -4.77788 -1.47377 -5
      vertex -2.4539 -0.47789 -5
    endloop
  endfacet
  facet normal 0 0 -1
    outer loop
      vertex -2.1239 1.31876 -5
      vertex -4.24779 2.63751 -5
      vertex -3.94226 3.0755 -5
    endloop
  endfacet
  facet normal 0 0 -1
    outer loop
      vertex -4.90781 -0.95578 -5
      vertex -2.4539 -0.47789 -5
      vertex -4.77788 -1.47377 -5
    endloop
  endfacet
  facet normal 0 0 -1
    outer loop
      vertex -2.25243 1.08472 -5
      vertex -4.50485 2.16943 -5
      vertex -4.24779 2.63751 -5
    endloop
  endfacet
  facet normal -0 0 -1
    outer loop
      vertex -2.4539 -0.47789 -5
      vertex -4.90781 -0.95578 -5
      vertex -2.49088 -0.21344 -5
    endloop
  endfacet
  facet normal 0 0 -1
    outer loop
      vertex -2.35527 0.838303 -5
      vertex -4.71054 1.67659 -5
      vertex -4.50485 2.16943 -5
    endloop
  endfacet
  facet normal 0 0 -1
    outer loop
      vertex -4.98175 -0.426895 -5
      vertex -2.49088 -0.21344 -5
      vertex -4.90781 -0.95578 -5
    endloop
  endfacet
  facet normal 0 0 -1
    outer loop
      vertex -2.43124 0.582321 -5
      vertex -4.86249 1.16464 -5
      vertex -4.71054 1.67659 -5
    endloop
  endfacet
  facet normal -0 0 -1
    outer loop
      vertex -2.49088 -0.21344 -5
      vertex -4.98175 -0.426895 -5
      vertex -2.49944 0.0534363 -5
    endloop
  endfacet
  facet normal 0 0 -1
    outer loop
      vertex -2.47948 0.319702 -5
      vertex -4.95895 0.639389 -5
      vertex -4.86249 1.16464 -5
    endloop
  endfacet
  facet normal 0 0 -1
    outer loop
      vertex -4.99887 0.106857 -5
      vertex -2.49944 0.0534363 -5
      vertex -4.98175 -0.426895 -5
    endloop
  endfacet
  facet normal 0 0 -1
    outer loop
      vertex -2.49944 0.0534363 -5
      vertex -4.99887 0.106857 -5
      vertex -4.95895 0.639389 -5
    endloop
  endfacet
  facet normal 0.284526 0.958668 -0
    outer loop
      vertex 1.36228 4.80857 -5
      vertex 1.30116 4.82671 5
      vertex 1.36228 4.80857 5
    endloop
  endfacet
  facet normal 0.284526 0.958668 0
    outer loop
      vertex 1.30116 4.82671 5
      vertex 1.36228 4.80857 -5
      vertex 1.30116 4.82671 -5
    endloop
  endfacet
  facet normal 0.0320224 0.999487 -0
    outer loop
      vertex 0.286256 4.99081 -5
      vertex 0.221959 4.99287 5
      vertex 0.286256 4.99081 5
    endloop
  endfacet
  facet normal 0.0320224 0.999487 0
    outer loop
      vertex 0.221959 4.99287 5
      vertex 0.286256 4.99081 -5
      vertex 0.221959 4.99287 -5
    endloop
  endfacet
  facet normal 0.572145 0.820152 -0
    outer loop
      vertex 2.80836 4.13414 -5
      vertex 2.75568 4.17089 5
      vertex 2.80836 4.13414 5
    endloop
  endfacet
  facet normal 0.572145 0.820152 0
    outer loop
      vertex 2.75568 4.17089 5
      vertex 2.80836 4.13414 -5
      vertex 2.75568 4.17089 -5
    endloop
  endfacet
  facet normal 0.518402 -0.855137 0
    outer loop
      vertex 2.49929 -4.32889 -5
      vertex 2.53723 -4.30589 5
      vertex 2.49929 -4.32889 5
    endloop
  endfacet
  facet normal 0.518402 -0.855137 0
    outer loop
      vertex 2.53723 -4.30589 5
      vertex 2.49929 -4.32889 -5
      vertex 2.53723 -4.30589 -5
    endloop
  endfacet
  facet normal 0.159522 0.987194 -0
    outer loop
      vertex 0.845202 4.92567 -5
      vertex 0.7499 4.94107 5
      vertex 0.845202 4.92567 5
    endloop
  endfacet
  facet normal 0.159522 0.987194 0
    outer loop
      vertex 0.7499 4.94107 5
      vertex 0.845202 4.92567 -5
      vertex 0.7499 4.94107 -5
    endloop
  endfacet
  facet normal 0.462591 0.886572 -0
    outer loop
      vertex 2.35422 4.40842 -5
      vertex 2.2688 4.45299 5
      vertex 2.35422 4.40842 5
    endloop
  endfacet
  facet normal 0.462591 0.886572 0
    outer loop
      vertex 2.2688 4.45299 5
      vertex 2.35422 4.40842 -5
      vertex 2.2688 4.45299 -5
    endloop
  endfacet
  facet normal 0.718368 0.695663 0
    outer loop
      vertex 3.62343 3.44199 5
      vertex 3.55633 3.51128 -5
      vertex 3.55633 3.51128 5
    endloop
  endfacet
  facet normal 0.718368 0.695663 0
    outer loop
      vertex 3.55633 3.51128 -5
      vertex 3.62343 3.44199 5
      vertex 3.62343 3.44199 -5
    endloop
  endfacet
  facet normal 0.623597 0.781746 -0
    outer loop
      vertex 3.21447 3.82848 -5
      vertex 3.1641 3.86866 5
      vertex 3.21447 3.82848 5
    endloop
  endfacet
  facet normal 0.623597 0.781746 0
    outer loop
      vertex 3.1641 3.86866 5
      vertex 3.21447 3.82848 -5
      vertex 3.1641 3.86866 -5
    endloop
  endfacet
  facet normal 0.801407 0.598119 0
    outer loop
      vertex 3.96784 3.03881 5
      vertex 3.92965 3.08998 -5
      vertex 3.92965 3.08998 5
    endloop
  endfacet
  facet normal 0.801407 0.598119 0
    outer loop
      vertex 3.92965 3.08998 -5
      vertex 3.96784 3.03881 5
      vertex 3.96784 3.03881 -5
    endloop
  endfacet
  facet normal 0.838076 0.545553 0
    outer loop
      vertex 4.25705 2.62062 5
      vertex 4.2221 2.67431 -5
      vertex 4.2221 2.67431 5
    endloop
  endfacet
  facet normal 0.838076 0.545553 0
    outer loop
      vertex 4.2221 2.67431 -5
      vertex 4.25705 2.62062 5
      vertex 4.25705 2.62062 -5
    endloop
  endfacet
  facet normal 0.981576 -0.191074 0
    outer loop
      vertex 4.89609 -1.00244 5
      vertex 4.91445 -0.908122 -5
      vertex 4.91445 -0.908122 5
    endloop
  endfacet
  facet normal 0.981576 -0.191074 0
    outer loop
      vertex 4.91445 -0.908122 -5
      vertex 4.89609 -1.00244 5
      vertex 4.89609 -1.00244 -5
    endloop
  endfacet
  facet normal 0.991791 0.127866 0
    outer loop
      vertex 4.96254 0.591356 5
      vertex 4.95024 0.686761 -5
      vertex 4.95024 0.686761 5
    endloop
  endfacet
  facet normal 0.991791 0.127866 0
    outer loop
      vertex 4.95024 0.686761 -5
      vertex 4.96254 0.591356 5
      vertex 4.96254 0.591356 -5
    endloop
  endfacet
  facet normal 0.949074 0.315053 0
    outer loop
      vertex 4.72326 1.63368 5
      vertex 4.70314 1.69429 -5
      vertex 4.70314 1.69429 5
    endloop
  endfacet
  facet normal 0.949074 0.315053 0
    outer loop
      vertex 4.70314 1.69429 -5
      vertex 4.72326 1.63368 5
      vertex 4.72326 1.63368 -5
    endloop
  endfacet
  facet normal 0.871341 -0.490677 0
    outer loop
      vertex 4.33085 -2.49405 5
      vertex 4.37786 -2.41057 -5
      vertex 4.37786 -2.41057 5
    endloop
  endfacet
  facet normal 0.871341 -0.490677 0
    outer loop
      vertex 4.37786 -2.41057 -5
      vertex 4.33085 -2.49405 5
      vertex 4.33085 -2.49405 -5
    endloop
  endfacet
  facet normal 0.345342 0.938477 -0
    outer loop
      vertex 1.84412 4.64644 -5
      vertex 1.78428 4.66846 5
      vertex 1.84412 4.64644 5
    endloop
  endfacet
  facet normal 0.345342 0.938477 0
    outer loop
      vertex 1.78428 4.66846 5
      vertex 1.84412 4.64644 -5
      vertex 1.78428 4.66846 -5
    endloop
  endfacet
  facet normal 0.967276 0.253725 0
    outer loop
      vertex 4.86595 1.14571 5
      vertex 4.8497 1.20766 -5
      vertex 4.8497 1.20766 5
    endloop
  endfacet
  facet normal 0.967276 0.253725 0
    outer loop
      vertex 4.8497 1.20766 -5
      vertex 4.86595 1.14571 5
      vertex 4.86595 1.14571 -5
    endloop
  endfacet
  facet normal 0.900994 0.433831 0
    outer loop
      vertex 4.52346 2.1248 5
      vertex 4.48155 2.21184 -5
      vertex 4.48155 2.21184 5
    endloop
  endfacet
  facet normal 0.900994 0.433831 0
    outer loop
      vertex 4.48155 2.21184 -5
      vertex 4.52346 2.1248 5
      vertex 4.52346 2.1248 -5
    endloop
  endfacet
  facet normal 0.57211 -0.820177 0
    outer loop
      vertex 2.91052 -4.0629 -5
      vertex 2.96223 -4.02683 5
      vertex 2.91052 -4.0629 5
    endloop
  endfacet
  facet normal 0.57211 -0.820177 0
    outer loop
      vertex 2.96223 -4.02683 5
      vertex 2.91052 -4.0629 -5
      vertex 2.96223 -4.02683 -5
    endloop
  endfacet
  facet normal 0.926897 -0.375316 0
    outer loop
      vertex 4.58499 -1.99197 5
      vertex 4.60871 -1.93339 -5
      vertex 4.60871 -1.93339 5
    endloop
  endfacet
  facet normal 0.926897 -0.375316 0
    outer loop
      vertex 4.60871 -1.93339 -5
      vertex 4.58499 -1.99197 5
      vertex 4.58499 -1.99197 -5
    endloop
  endfacet
  facet normal 0.949045 -0.315141 0
    outer loop
      vertex 4.76249 -1.51553 5
      vertex 4.78251 -1.45524 -5
      vertex 4.78251 -1.45524 5
    endloop
  endfacet
  facet normal 0.949045 -0.315141 0
    outer loop
      vertex 4.78251 -1.45524 -5
      vertex 4.76249 -1.51553 5
      vertex 4.76249 -1.51553 -5
    endloop
  endfacet
  facet normal 0.672283 -0.740295 0
    outer loop
      vertex 3.32434 -3.73167 -5
      vertex 3.3952 -3.66732 5
      vertex 3.32434 -3.73167 5
    endloop
  endfacet
  facet normal 0.672283 -0.740295 0
    outer loop
      vertex 3.3952 -3.66732 5
      vertex 3.32434 -3.73167 -5
      vertex 3.3952 -3.66732 -5
    endloop
  endfacet
  facet normal 0.761476 -0.648193 0
    outer loop
      vertex 3.72381 -3.33517 5
      vertex 3.76455 -3.28731 -5
      vertex 3.76455 -3.28731 5
    endloop
  endfacet
  facet normal 0.761476 -0.648193 0
    outer loop
      vertex 3.76455 -3.28731 -5
      vertex 3.72381 -3.33517 5
      vertex 3.72381 -3.33517 -5
    endloop
  endfacet
  facet normal 0.801466 -0.59804 0
    outer loop
      vertex 4.04256 -2.93871 5
      vertex 4.08019 -2.88828 -5
      vertex 4.08019 -2.88828 5
    endloop
  endfacet
  facet normal 0.801466 -0.59804 0
    outer loop
      vertex 4.08019 -2.88828 -5
      vertex 4.04256 -2.93871 5
      vertex 4.04256 -2.93871 -5
    endloop
  endfacet
  facet normal 1 -0 0
    outer loop
      vertex 4.99742 0.0621401 5
      vertex 4.99742 0.125993 -5
      vertex 4.99742 0.125993 5
    endloop
  endfacet
  facet normal 1 0 0
    outer loop
      vertex 4.99742 0.125993 -5
      vertex 4.99742 0.0621401 5
      vertex 4.99742 0.0621401 -5
    endloop
  endfacet
  facet normal 0.99794 -0.0641495 0
    outer loop
      vertex 4.97908 -0.445874 5
      vertex 4.98317 -0.382248 -5
      vertex 4.98317 -0.382248 5
    endloop
  endfacet
  facet normal 0.99794 -0.0641495 0
    outer loop
      vertex 4.98317 -0.382248 -5
      vertex 4.97908 -0.445874 5
      vertex 4.97908 -0.445874 -5
    endloop
  endfacet
  facet normal -0.990368 -0.138457 0
    outer loop
      vertex -4.90781 -0.95578 -5
      vertex -4.98175 -0.426895 5
      vertex -4.98175 -0.426895 -5
    endloop
  endfacet
  facet normal -0.990368 -0.138457 0
    outer loop
      vertex -4.98175 -0.426895 5
      vertex -4.90781 -0.95578 -5
      vertex -4.90781 -0.95578 5
    endloop
  endfacet
  facet normal -0.969952 -0.243298 0
    outer loop
      vertex -4.77788 -1.47377 -5
      vertex -4.90781 -0.95578 5
      vertex -4.90781 -0.95578 -5
    endloop
  endfacet
  facet normal -0.969952 -0.243298 0
    outer loop
      vertex -4.90781 -0.95578 5
      vertex -4.77788 -1.47377 -5
      vertex -4.77788 -1.47377 5
    endloop
  endfacet
  facet normal -0.938462 -0.345383 0
    outer loop
      vertex -4.59343 -1.97495 -5
      vertex -4.77788 -1.47377 5
      vertex -4.77788 -1.47377 -5
    endloop
  endfacet
  facet normal -0.938462 -0.345383 0
    outer loop
      vertex -4.77788 -1.47377 5
      vertex -4.59343 -1.97495 -5
      vertex -4.59343 -1.97495 5
    endloop
  endfacet
  facet normal -0.896281 -0.443487 0
    outer loop
      vertex -4.3566 -2.45358 -5
      vertex -4.59343 -1.97495 5
      vertex -4.59343 -1.97495 -5
    endloop
  endfacet
  facet normal -0.896281 -0.443487 0
    outer loop
      vertex -4.59343 -1.97495 5
      vertex -4.3566 -2.45358 -5
      vertex -4.3566 -2.45358 5
    endloop
  endfacet
  facet normal -0.843877 -0.536537 0
    outer loop
      vertex -4.07007 -2.90424 -5
      vertex -4.3566 -2.45358 5
      vertex -4.3566 -2.45358 -5
    endloop
  endfacet
  facet normal -0.843877 -0.536537 0
    outer loop
      vertex -4.3566 -2.45358 5
      vertex -4.07007 -2.90424 -5
      vertex -4.07007 -2.90424 5
    endloop
  endfacet
  facet normal -0.781825 -0.623498 0
    outer loop
      vertex -3.73711 -3.32175 -5
      vertex -4.07007 -2.90424 5
      vertex -4.07007 -2.90424 -5
    endloop
  endfacet
  facet normal -0.781825 -0.623498 0
    outer loop
      vertex -4.07007 -2.90424 5
      vertex -3.73711 -3.32175 -5
      vertex -3.73711 -3.32175 5
    endloop
  endfacet
  facet normal -0.710879 -0.703314 0
    outer loop
      vertex -3.36151 -3.70139 -5
      vertex -3.73711 -3.32175 5
      vertex -3.73711 -3.32175 -5
    endloop
  endfacet
  facet normal -0.710879 -0.703314 0
    outer loop
      vertex -3.73711 -3.32175 5
      vertex -3.36151 -3.70139 -5
      vertex -3.36151 -3.70139 5
    endloop
  endfacet
  facet normal -0.631803 -0.775129 0
    outer loop
      vertex -3.36151 -3.70139 -5
      vertex -2.94757 -4.03879 5
      vertex -3.36151 -3.70139 5
    endloop
  endfacet
  facet normal -0.631803 -0.775129 -0
    outer loop
      vertex -2.94757 -4.03879 5
      vertex -3.36151 -3.70139 -5
      vertex -2.94757 -4.03879 -5
    endloop
  endfacet
  facet normal -0.545527 -0.838093 0
    outer loop
      vertex -2.94757 -4.03879 -5
      vertex -2.5 -4.33012 5
      vertex -2.94757 -4.03879 5
    endloop
  endfacet
  facet normal -0.545527 -0.838093 -0
    outer loop
      vertex -2.5 -4.33012 5
      vertex -2.94757 -4.03879 -5
      vertex -2.5 -4.33012 -5
    endloop
  endfacet
  facet normal 0.866026 -0.499999 0
    outer loop
      vertex -2.5 -4.33012 5
      vertex -1.25 -2.16505 -5
      vertex -1.25 -2.16505 5
    endloop
  endfacet
  facet normal 0.866026 -0.499999 0
    outer loop
      vertex -1.25 -2.16505 -5
      vertex -2.5 -4.33012 5
      vertex -2.5 -4.33012 -5
    endloop
  endfacet
  facet normal 0.545506 0.838107 -0
    outer loop
      vertex -1.25 -2.16505 -5
      vertex -1.47379 -2.01939 5
      vertex -1.25 -2.16505 5
    endloop
  endfacet
  facet normal 0.545506 0.838107 0
    outer loop
      vertex -1.47379 -2.01939 5
      vertex -1.25 -2.16505 -5
      vertex -1.47379 -2.01939 -5
    endloop
  endfacet
  facet normal 0.631803 0.775129 -0
    outer loop
      vertex -1.47379 -2.01939 -5
      vertex -1.68076 -1.85069 5
      vertex -1.47379 -2.01939 5
    endloop
  endfacet
  facet normal 0.631803 0.775129 0
    outer loop
      vertex -1.68076 -1.85069 5
      vertex -1.47379 -2.01939 -5
      vertex -1.68076 -1.85069 -5
    endloop
  endfacet
  facet normal 0.710879 0.703314 0
    outer loop
      vertex -1.68076 -1.85069 5
      vertex -1.86856 -1.66087 -5
      vertex -1.86856 -1.66087 5
    endloop
  endfacet
  facet normal 0.710879 0.703314 0
    outer loop
      vertex -1.86856 -1.66087 -5
      vertex -1.68076 -1.85069 5
      vertex -1.68076 -1.85069 -5
    endloop
  endfacet
  facet normal 0.781836 0.623484 0
    outer loop
      vertex -1.86856 -1.66087 5
      vertex -2.03503 -1.45212 -5
      vertex -2.03503 -1.45212 5
    endloop
  endfacet
  facet normal 0.781836 0.623484 0
    outer loop
      vertex -2.03503 -1.45212 -5
      vertex -1.86856 -1.66087 5
      vertex -1.86856 -1.66087 -5
    endloop
  endfacet
  facet normal 0.843868 0.536551 0
    outer loop
      vertex -2.03503 -1.45212 5
      vertex -2.1783 -1.22679 -5
      vertex -2.1783 -1.22679 5
    endloop
  endfacet
  facet normal 0.843868 0.536551 0
    outer loop
      vertex -2.1783 -1.22679 -5
      vertex -2.03503 -1.45212 5
      vertex -2.03503 -1.45212 -5
    endloop
  endfacet
  facet normal 0.896275 0.443499 0
    outer loop
      vertex -2.1783 -1.22679 5
      vertex -2.29672 -0.987473 -5
      vertex -2.29672 -0.987473 5
    endloop
  endfacet
  facet normal 0.896275 0.443499 0
    outer loop
      vertex -2.29672 -0.987473 -5
      vertex -2.1783 -1.22679 5
      vertex -2.1783 -1.22679 -5
    endloop
  endfacet
  facet normal 0.938458 0.345393 0
    outer loop
      vertex -2.29672 -0.987473 5
      vertex -2.38895 -0.736877 -5
      vertex -2.38895 -0.736877 5
    endloop
  endfacet
  facet normal 0.938458 0.345393 0
    outer loop
      vertex -2.38895 -0.736877 -5
      vertex -2.29672 -0.987473 5
      vertex -2.29672 -0.987473 -5
    endloop
  endfacet
  facet normal 0.969963 0.243252 0
    outer loop
      vertex -2.38895 -0.736877 5
      vertex -2.4539 -0.47789 -5
      vertex -2.4539 -0.47789 5
    endloop
  endfacet
  facet normal 0.969963 0.243252 0
    outer loop
      vertex -2.4539 -0.47789 -5
      vertex -2.38895 -0.736877 5
      vertex -2.38895 -0.736877 -5
    endloop
  endfacet
  facet normal 0.990364 0.13849 0
    outer loop
      vertex -2.4539 -0.47789 5
      vertex -2.49088 -0.21344 -5
      vertex -2.49088 -0.21344 5
    endloop
  endfacet
  facet normal 0.990364 0.13849 0
    outer loop
      vertex -2.49088 -0.21344 -5
      vertex -2.4539 -0.47789 5
      vertex -2.4539 -0.47789 -5
    endloop
  endfacet
  facet normal 0.999486 0.0320583 0
    outer loop
      vertex -2.49088 -0.21344 5
      vertex -2.49944 0.0534363 -5
      vertex -2.49944 0.0534363 5
    endloop
  endfacet
  facet normal 0.999486 0.0320583 0
    outer loop
      vertex -2.49944 0.0534363 -5
      vertex -2.49088 -0.21344 5
      vertex -2.49088 -0.21344 -5
    endloop
  endfacet
  facet normal 0.997202 -0.074753 0
    outer loop
      vertex -2.49944 0.0534363 5
      vertex -2.47948 0.319702 -5
      vertex -2.47948 0.319702 5
    endloop
  endfacet
  facet normal 0.997202 -0.074753 0
    outer loop
      vertex -2.47948 0.319702 -5
      vertex -2.49944 0.0534363 5
      vertex -2.49944 0.0534363 -5
    endloop
  endfacet
  facet normal 0.983545 -0.180665 0
    outer loop
      vertex -2.47948 0.319702 5
      vertex -2.43124 0.582321 -5
      vertex -2.43124 0.582321 5
    endloop
  endfacet
  facet normal 0.983545 -0.180665 0
    outer loop
      vertex -2.43124 0.582321 -5
      vertex -2.47948 0.319702 5
      vertex -2.47948 0.319702 -5
    endloop
  endfacet
  facet normal 0.958672 -0.284513 0
    outer loop
      vertex -2.43124 0.582321 5
      vertex -2.35527 0.838303 -5
      vertex -2.35527 0.838303 5
    endloop
  endfacet
  facet normal 0.958672 -0.284513 0
    outer loop
      vertex -2.35527 0.838303 -5
      vertex -2.43124 0.582321 5
      vertex -2.43124 0.582321 -5
    endloop
  endfacet
  facet normal 0.922856 -0.385146 0
    outer loop
      vertex -2.35527 0.838303 5
      vertex -2.25243 1.08472 -5
      vertex -2.25243 1.08472 5
    endloop
  endfacet
  facet normal 0.922856 -0.385146 0
    outer loop
      vertex -2.25243 1.08472 -5
      vertex -2.35527 0.838303 5
      vertex -2.35527 0.838303 -5
    endloop
  endfacet
  facet normal 0.876519 -0.481367 0
    outer loop
      vertex -2.25243 1.08472 5
      vertex -2.1239 1.31876 -5
      vertex -2.1239 1.31876 5
    endloop
  endfacet
  facet normal 0.876519 -0.481367 0
    outer loop
      vertex -2.1239 1.31876 -5
      vertex -2.25243 1.08472 5
      vertex -2.25243 1.08472 -5
    endloop
  endfacet
  facet normal 0.820151 -0.572147 0
    outer loop
      vertex -2.1239 1.31876 5
      vertex -1.97113 1.53775 -5
      vertex -1.97113 1.53775 5
    endloop
  endfacet
  facet normal 0.820151 -0.572147 0
    outer loop
      vertex -1.97113 1.53775 -5
      vertex -2.1239 1.31876 5
      vertex -2.1239 1.31876 -5
    endloop
  endfacet
  facet normal 0.754481 -0.656322 0
    outer loop
      vertex -1.97113 1.53775 5
      vertex -1.79588 1.73921 -5
      vertex -1.79588 1.73921 5
    endloop
  endfacet
  facet normal 0.754481 -0.656322 0
    outer loop
      vertex -1.79588 1.73921 -5
      vertex -1.97113 1.53775 5
      vertex -1.97113 1.53775 -5
    endloop
  endfacet
  facet normal 0.680193 -0.733034 0
    outer loop
      vertex -1.79588 1.73921 -5
      vertex -1.60014 1.92084 5
      vertex -1.79588 1.73921 5
    endloop
  endfacet
  facet normal 0.680193 -0.733034 0
    outer loop
      vertex -1.60014 1.92084 5
      vertex -1.79588 1.73921 -5
      vertex -1.60014 1.92084 -5
    endloop
  endfacet
  facet normal 0.598099 -0.801422 0
    outer loop
      vertex -1.60014 1.92084 -5
      vertex -1.38615 2.08054 5
      vertex -1.60014 1.92084 5
    endloop
  endfacet
  facet normal 0.598099 -0.801422 0
    outer loop
      vertex -1.38615 2.08054 5
      vertex -1.60014 1.92084 -5
      vertex -1.38615 2.08054 -5
    endloop
  endfacet
  facet normal 0.509243 -0.860623 0
    outer loop
      vertex -1.38615 2.08054 -5
      vertex -1.15636 2.21651 5
      vertex -1.38615 2.08054 5
    endloop
  endfacet
  facet normal 0.509243 -0.860623 0
    outer loop
      vertex -1.15636 2.21651 5
      vertex -1.38615 2.08054 -5
      vertex -1.15636 2.21651 -5
    endloop
  endfacet
  facet normal 0.414504 -0.910047 0
    outer loop
      vertex -1.15636 2.21651 -5
      vertex -0.913361 2.32719 5
      vertex -1.15636 2.21651 5
    endloop
  endfacet
  facet normal 0.414504 -0.910047 0
    outer loop
      vertex -0.913361 2.32719 5
      vertex -1.15636 2.21651 -5
      vertex -0.913361 2.32719 -5
    endloop
  endfacet
  facet normal 0.315106 -0.949056 0
    outer loop
      vertex -0.913361 2.32719 -5
      vertex -0.659943 2.41133 5
      vertex -0.913361 2.32719 5
    endloop
  endfacet
  facet normal 0.315106 -0.949056 0
    outer loop
      vertex -0.659943 2.41133 5
      vertex -0.913361 2.32719 -5
      vertex -0.659943 2.41133 -5
    endloop
  endfacet
  facet normal 0.212085 -0.977251 0
    outer loop
      vertex -0.659943 2.41133 -5
      vertex -0.399002 2.46796 5
      vertex -0.659943 2.41133 5
    endloop
  endfacet
  facet normal 0.212085 -0.977251 0
    outer loop
      vertex -0.399002 2.46796 5
      vertex -0.659943 2.41133 -5
      vertex -0.399002 2.46796 -5
    endloop
  endfacet
  facet normal 0.106662 -0.994295 0
    outer loop
      vertex -0.399002 2.46796 -5
      vertex -0.133514 2.49644 5
      vertex -0.399002 2.46796 5
    endloop
  endfacet
  facet normal 0.106662 -0.994295 0
    outer loop
      vertex -0.133514 2.49644 5
      vertex -0.399002 2.46796 -5
      vertex -0.133514 2.49644 -5
    endloop
  endfacet
  facet normal 0 -1 0
    outer loop
      vertex -0.133514 2.49644 -5
      vertex 0.133499 2.49644 5
      vertex -0.133514 2.49644 5
    endloop
  endfacet
  facet normal 0 -1 -0
    outer loop
      vertex 0.133499 2.49644 5
      vertex -0.133514 2.49644 -5
      vertex 0.133499 2.49644 -5
    endloop
  endfacet
  facet normal -0.106662 -0.994295 0
    outer loop
      vertex 0.133499 2.49644 -5
      vertex 0.398987 2.46796 5
      vertex 0.133499 2.49644 5
    endloop
  endfacet
  facet normal -0.106662 -0.994295 -0
    outer loop
      vertex 0.398987 2.46796 5
      vertex 0.133499 2.49644 -5
      vertex 0.398987 2.46796 -5
    endloop
  endfacet
  facet normal -0.212086 -0.977251 0
    outer loop
      vertex 0.398987 2.46796 -5
      vertex 0.659927 2.41133 5
      vertex 0.398987 2.46796 5
    endloop
  endfacet
  facet normal -0.212086 -0.977251 -0
    outer loop
      vertex 0.659927 2.41133 5
      vertex 0.398987 2.46796 -5
      vertex 0.659927 2.41133 -5
    endloop
  endfacet
  facet normal -0.315106 -0.949056 0
    outer loop
      vertex 0.659927 2.41133 -5
      vertex 0.913345 2.32719 5
      vertex 0.659927 2.41133 5
    endloop
  endfacet
  facet normal -0.315106 -0.949056 -0
    outer loop
      vertex 0.913345 2.32719 5
      vertex 0.659927 2.41133 -5
      vertex 0.913345 2.32719 -5
    endloop
  endfacet
  facet normal -0.41451 -0.910045 0
    outer loop
      vertex 0.913345 2.32719 -5
      vertex 1.15634 2.21651 5
      vertex 0.913345 2.32719 5
    endloop
  endfacet
  facet normal -0.41451 -0.910045 -0
    outer loop
      vertex 1.15634 2.21651 5
      vertex 0.913345 2.32719 -5
      vertex 1.15634 2.21651 -5
    endloop
  endfacet
  facet normal -0.509226 -0.860633 0
    outer loop
      vertex 1.15634 2.21651 -5
      vertex 1.38614 2.08054 5
      vertex 1.15634 2.21651 5
    endloop
  endfacet
  facet normal -0.509226 -0.860633 -0
    outer loop
      vertex 1.38614 2.08054 5
      vertex 1.15634 2.21651 -5
      vertex 1.38614 2.08054 -5
    endloop
  endfacet
  facet normal -0.598099 -0.801422 0
    outer loop
      vertex 1.38614 2.08054 -5
      vertex 1.60013 1.92084 5
      vertex 1.38614 2.08054 5
    endloop
  endfacet
  facet normal -0.598099 -0.801422 -0
    outer loop
      vertex 1.60013 1.92084 5
      vertex 1.38614 2.08054 -5
      vertex 1.60013 1.92084 -5
    endloop
  endfacet
  facet normal -0.680193 -0.733034 0
    outer loop
      vertex 1.60013 1.92084 -5
      vertex 1.79587 1.73921 5
      vertex 1.60013 1.92084 5
    endloop
  endfacet
  facet normal -0.680193 -0.733034 -0
    outer loop
      vertex 1.79587 1.73921 5
      vertex 1.60013 1.92084 -5
      vertex 1.79587 1.73921 -5
    endloop
  endfacet
  facet normal -0.754481 -0.656322 0
    outer loop
      vertex 1.97112 1.53775 -5
      vertex 1.79587 1.73921 5
      vertex 1.79587 1.73921 -5
    endloop
  endfacet
  facet normal -0.754481 -0.656322 0
    outer loop
      vertex 1.79587 1.73921 5
      vertex 1.97112 1.53775 -5
      vertex 1.97112 1.53775 5
    endloop
  endfacet
  facet normal -0.820151 -0.572147 0
    outer loop
      vertex 2.12389 1.31876 -5
      vertex 1.97112 1.53775 5
      vertex 1.97112 1.53775 -5
    endloop
  endfacet
  facet normal -0.820151 -0.572147 0
    outer loop
      vertex 1.97112 1.53775 5
      vertex 2.12389 1.31876 -5
      vertex 2.12389 1.31876 5
    endloop
  endfacet
  facet normal -0.876535 -0.481338 0
    outer loop
      vertex 2.25241 1.08472 -5
      vertex 2.12389 1.31876 5
      vertex 2.12389 1.31876 -5
    endloop
  endfacet
  facet normal -0.876535 -0.481338 0
    outer loop
      vertex 2.12389 1.31876 5
      vertex 2.25241 1.08472 -5
      vertex 2.25241 1.08472 5
    endloop
  endfacet
  facet normal -0.922842 -0.385178 0
    outer loop
      vertex 2.35526 0.838303 -5
      vertex 2.25241 1.08472 5
      vertex 2.25241 1.08472 -5
    endloop
  endfacet
  facet normal -0.922842 -0.385178 0
    outer loop
      vertex 2.25241 1.08472 5
      vertex 2.35526 0.838303 -5
      vertex 2.35526 0.838303 5
    endloop
  endfacet
  facet normal -0.958672 -0.284513 0
    outer loop
      vertex 2.43123 0.582321 -5
      vertex 2.35526 0.838303 5
      vertex 2.35526 0.838303 -5
    endloop
  endfacet
  facet normal -0.958672 -0.284513 0
    outer loop
      vertex 2.35526 0.838303 5
      vertex 2.43123 0.582321 -5
      vertex 2.43123 0.582321 5
    endloop
  endfacet
  facet normal -0.983551 -0.180629 0
    outer loop
      vertex 2.47946 0.319702 -5
      vertex 2.43123 0.582321 5
      vertex 2.43123 0.582321 -5
    endloop
  endfacet
  facet normal -0.983551 -0.180629 0
    outer loop
      vertex 2.43123 0.582321 5
      vertex 2.47946 0.319702 -5
      vertex 2.47946 0.319702 5
    endloop
  endfacet
  facet normal -0.997202 -0.074753 0
    outer loop
      vertex 2.49942 0.0534363 -5
      vertex 2.47946 0.319702 5
      vertex 2.47946 0.319702 -5
    endloop
  endfacet
  facet normal -0.997202 -0.074753 0
    outer loop
      vertex 2.47946 0.319702 5
      vertex 2.49942 0.0534363 -5
      vertex 2.49942 0.0534363 5
    endloop
  endfacet
  facet normal -0.999486 0.0320583 0
    outer loop
      vertex 2.49086 -0.21344 -5
      vertex 2.49942 0.0534363 5
      vertex 2.49942 0.0534363 -5
    endloop
  endfacet
  facet normal -0.999486 0.0320583 0
    outer loop
      vertex 2.49942 0.0534363 5
      vertex 2.49086 -0.21344 -5
      vertex 2.49086 -0.21344 5
    endloop
  endfacet
  facet normal -0.990369 0.138453 0
    outer loop
      vertex 2.45389 -0.47789 -5
      vertex 2.49086 -0.21344 5
      vertex 2.49086 -0.21344 -5
    endloop
  endfacet
  facet normal -0.990369 0.138453 0
    outer loop
      vertex 2.49086 -0.21344 5
      vertex 2.45389 -0.47789 -5
      vertex 2.45389 -0.47789 5
    endloop
  endfacet
  facet normal -0.969954 0.243287 0
    outer loop
      vertex 2.38893 -0.736877 -5
      vertex 2.45389 -0.47789 5
      vertex 2.45389 -0.47789 -5
    endloop
  endfacet
  facet normal -0.969954 0.243287 0
    outer loop
      vertex 2.45389 -0.47789 5
      vertex 2.38893 -0.736877 -5
      vertex 2.38893 -0.736877 5
    endloop
  endfacet
  facet normal -0.93847 0.34536 0
    outer loop
      vertex 2.29671 -0.987473 -5
      vertex 2.38893 -0.736877 5
      vertex 2.38893 -0.736877 -5
    endloop
  endfacet
  facet normal -0.93847 0.34536 0
    outer loop
      vertex 2.38893 -0.736877 5
      vertex 2.29671 -0.987473 -5
      vertex 2.29671 -0.987473 5
    endloop
  endfacet
  facet normal -0.89626 0.443529 0
    outer loop
      vertex 2.17828 -1.22679 -5
      vertex 2.29671 -0.987473 5
      vertex 2.29671 -0.987473 -5
    endloop
  endfacet
  facet normal -0.89626 0.443529 0
    outer loop
      vertex 2.29671 -0.987473 5
      vertex 2.17828 -1.22679 -5
      vertex 2.17828 -1.22679 5
    endloop
  endfacet
  facet normal -0.843885 0.536524 0
    outer loop
      vertex 2.03502 -1.45212 -5
      vertex 2.17828 -1.22679 5
      vertex 2.17828 -1.22679 -5
    endloop
  endfacet
  facet normal -0.843885 0.536524 0
    outer loop
      vertex 2.17828 -1.22679 5
      vertex 2.03502 -1.45212 -5
      vertex 2.03502 -1.45212 5
    endloop
  endfacet
  facet normal -0.781836 0.623484 0
    outer loop
      vertex 1.86855 -1.66087 -5
      vertex 2.03502 -1.45212 5
      vertex 2.03502 -1.45212 -5
    endloop
  endfacet
  facet normal -0.781836 0.623484 0
    outer loop
      vertex 2.03502 -1.45212 5
      vertex 1.86855 -1.66087 -5
      vertex 1.86855 -1.66087 5
    endloop
  endfacet
  facet normal -0.71086 0.703333 0
    outer loop
      vertex 1.68074 -1.85069 -5
      vertex 1.86855 -1.66087 5
      vertex 1.86855 -1.66087 -5
    endloop
  endfacet
  facet normal -0.71086 0.703333 0
    outer loop
      vertex 1.86855 -1.66087 5
      vertex 1.68074 -1.85069 -5
      vertex 1.68074 -1.85069 5
    endloop
  endfacet
  facet normal -0.631803 0.775129 0
    outer loop
      vertex 1.68074 -1.85069 -5
      vertex 1.47377 -2.01939 5
      vertex 1.68074 -1.85069 5
    endloop
  endfacet
  facet normal -0.631803 0.775129 0
    outer loop
      vertex 1.47377 -2.01939 5
      vertex 1.68074 -1.85069 -5
      vertex 1.47377 -2.01939 -5
    endloop
  endfacet
  facet normal -0.54554 0.838085 0
    outer loop
      vertex 1.47377 -2.01939 -5
      vertex 1.25 -2.16505 5
      vertex 1.47377 -2.01939 5
    endloop
  endfacet
  facet normal -0.54554 0.838085 0
    outer loop
      vertex 1.25 -2.16505 5
      vertex 1.47377 -2.01939 -5
      vertex 1.25 -2.16505 -5
    endloop
  endfacet
  facet normal -0.866026 -0.499999 0
    outer loop
      vertex 2.49929 -4.32889 -5
      vertex 1.25 -2.16505 5
      vertex 1.25 -2.16505 -5
    endloop
  endfacet
  facet normal -0.866026 -0.499999 0
    outer loop
      vertex 1.25 -2.16505 5
      vertex 2.49929 -4.32889 -5
      vertex 2.49929 -4.32889 5
    endloop
  endfacet
  facet normal 0.545543 -0.838083 0
    outer loop
      vertex 2.53723 -4.30589 -5
      vertex 2.91052 -4.0629 5
      vertex 2.53723 -4.30589 5
    endloop
  endfacet
  facet normal 0.545543 -0.838083 0
    outer loop
      vertex 2.91052 -4.0629 5
      vertex 2.53723 -4.30589 -5
      vertex 2.91052 -4.0629 -5
    endloop
  endfacet
  facet normal 0.631811 -0.775122 0
    outer loop
      vertex 2.96223 -4.02683 -5
      vertex 3.32434 -3.73167 5
      vertex 2.96223 -4.02683 5
    endloop
  endfacet
  facet normal 0.631811 -0.775122 0
    outer loop
      vertex 3.32434 -3.73167 5
      vertex 2.96223 -4.02683 -5
      vertex 3.32434 -3.73167 -5
    endloop
  endfacet
  facet normal 0.710885 -0.703308 0
    outer loop
      vertex 3.3952 -3.66732 5
      vertex 3.72381 -3.33517 -5
      vertex 3.72381 -3.33517 5
    endloop
  endfacet
  facet normal 0.710885 -0.703308 0
    outer loop
      vertex 3.72381 -3.33517 -5
      vertex 3.3952 -3.66732 5
      vertex 3.3952 -3.66732 -5
    endloop
  endfacet
  facet normal 0.78182 -0.623505 0
    outer loop
      vertex 3.76455 -3.28731 5
      vertex 4.04256 -2.93871 -5
      vertex 4.04256 -2.93871 5
    endloop
  endfacet
  facet normal 0.78182 -0.623505 0
    outer loop
      vertex 4.04256 -2.93871 -5
      vertex 3.76455 -3.28731 5
      vertex 3.76455 -3.28731 -5
    endloop
  endfacet
  facet normal 0.843869 -0.53655 0
    outer loop
      vertex 4.08019 -2.88828 5
      vertex 4.33085 -2.49405 -5
      vertex 4.33085 -2.49405 5
    endloop
  endfacet
  facet normal 0.843869 -0.53655 0
    outer loop
      vertex 4.33085 -2.49405 -5
      vertex 4.08019 -2.88828 5
      vertex 4.08019 -2.88828 -5
    endloop
  endfacet
  facet normal 0.896278 -0.443493 0
    outer loop
      vertex 4.37786 -2.41057 5
      vertex 4.58499 -1.99197 -5
      vertex 4.58499 -1.99197 5
    endloop
  endfacet
  facet normal 0.896278 -0.443493 0
    outer loop
      vertex 4.58499 -1.99197 -5
      vertex 4.37786 -2.41057 5
      vertex 4.37786 -2.41057 -5
    endloop
  endfacet
  facet normal 0.938466 -0.345372 0
    outer loop
      vertex 4.60871 -1.93339 5
      vertex 4.76249 -1.51553 -5
      vertex 4.76249 -1.51553 5
    endloop
  endfacet
  facet normal 0.938466 -0.345372 0
    outer loop
      vertex 4.76249 -1.51553 -5
      vertex 4.60871 -1.93339 5
      vertex 4.60871 -1.93339 -5
    endloop
  endfacet
  facet normal 0.969951 -0.243302 0
    outer loop
      vertex 4.78251 -1.45524 5
      vertex 4.89609 -1.00244 -5
      vertex 4.89609 -1.00244 5
    endloop
  endfacet
  facet normal 0.969951 -0.243302 0
    outer loop
      vertex 4.89609 -1.00244 -5
      vertex 4.78251 -1.45524 5
      vertex 4.78251 -1.45524 -5
    endloop
  endfacet
  facet normal 0.990367 -0.13847 0
    outer loop
      vertex 4.91445 -0.908122 5
      vertex 4.97908 -0.445874 -5
      vertex 4.97908 -0.445874 5
    endloop
  endfacet
  facet normal 0.990367 -0.13847 0
    outer loop
      vertex 4.97908 -0.445874 -5
      vertex 4.91445 -0.908122 5
      vertex 4.91445 -0.908122 -5
    endloop
  endfacet
  facet normal 0.999486 -0.0320501 0
    outer loop
      vertex 4.98317 -0.382248 5
      vertex 4.99742 0.0621401 -5
      vertex 4.99742 0.0621401 5
    endloop
  endfacet
  facet normal 0.999486 -0.0320501 0
    outer loop
      vertex 4.99742 0.0621401 -5
      vertex 4.98317 -0.382248 5
      vertex 4.98317 -0.382248 -5
    endloop
  endfacet
  facet normal 0.997203 0.0747426 0
    outer loop
      vertex 4.99742 0.125993 5
      vertex 4.96254 0.591356 -5
      vertex 4.96254 0.591356 5
    endloop
  endfacet
  facet normal 0.997203 0.0747426 0
    outer loop
      vertex 4.96254 0.591356 -5
      vertex 4.99742 0.125993 5
      vertex 4.99742 0.125993 -5
    endloop
  endfacet
  facet normal 0.98355 0.180638 0
    outer loop
      vertex 4.95024 0.686761 5
      vertex 4.86595 1.14571 -5
      vertex 4.86595 1.14571 5
    endloop
  endfacet
  facet normal 0.98355 0.180638 0
    outer loop
      vertex 4.86595 1.14571 -5
      vertex 4.95024 0.686761 5
      vertex 4.95024 0.686761 -5
    endloop
  endfacet
  facet normal 0.958668 0.284527 0
    outer loop
      vertex 4.8497 1.20766 5
      vertex 4.72326 1.63368 -5
      vertex 4.72326 1.63368 5
    endloop
  endfacet
  facet normal 0.958668 0.284527 0
    outer loop
      vertex 4.72326 1.63368 -5
      vertex 4.8497 1.20766 5
      vertex 4.8497 1.20766 -5
    endloop
  endfacet
  facet normal 0.922848 0.385165 0
    outer loop
      vertex 4.70314 1.69429 5
      vertex 4.52346 2.1248 -5
      vertex 4.52346 2.1248 5
    endloop
  endfacet
  facet normal 0.922848 0.385165 0
    outer loop
      vertex 4.52346 2.1248 -5
      vertex 4.70314 1.69429 5
      vertex 4.70314 1.69429 -5
    endloop
  endfacet
  facet normal 0.876514 0.481377 0
    outer loop
      vertex 4.48155 2.21184 5
      vertex 4.25705 2.62062 -5
      vertex 4.25705 2.62062 5
    endloop
  endfacet
  facet normal 0.876514 0.481377 0
    outer loop
      vertex 4.25705 2.62062 -5
      vertex 4.48155 2.21184 5
      vertex 4.48155 2.21184 -5
    endloop
  endfacet
  facet normal 0.820172 0.572118 0
    outer loop
      vertex 4.2221 2.67431 5
      vertex 3.96784 3.03881 -5
      vertex 3.96784 3.03881 5
    endloop
  endfacet
  facet normal 0.820172 0.572118 0
    outer loop
      vertex 3.96784 3.03881 -5
      vertex 4.2221 2.67431 5
      vertex 4.2221 2.67431 -5
    endloop
  endfacet
  facet normal 0.754474 0.65633 0
    outer loop
      vertex 3.92965 3.08998 5
      vertex 3.62343 3.44199 -5
      vertex 3.62343 3.44199 5
    endloop
  endfacet
  facet normal 0.754474 0.65633 0
    outer loop
      vertex 3.62343 3.44199 -5
      vertex 3.92965 3.08998 5
      vertex 3.92965 3.08998 -5
    endloop
  endfacet
  facet normal 0.680173 0.733052 -0
    outer loop
      vertex 3.55633 3.51128 -5
      vertex 3.21447 3.82848 5
      vertex 3.55633 3.51128 5
    endloop
  endfacet
  facet normal 0.680173 0.733052 0
    outer loop
      vertex 3.21447 3.82848 5
      vertex 3.55633 3.51128 -5
      vertex 3.21447 3.82848 -5
    endloop
  endfacet
  facet normal 0.598088 0.801431 -0
    outer loop
      vertex 3.1641 3.86866 -5
      vertex 2.80836 4.13414 5
      vertex 3.1641 3.86866 5
    endloop
  endfacet
  facet normal 0.598088 0.801431 0
    outer loop
      vertex 2.80836 4.13414 5
      vertex 3.1641 3.86866 -5
      vertex 2.80836 4.13414 -5
    endloop
  endfacet
  facet normal 0.509212 0.860641 -0
    outer loop
      vertex 2.75568 4.17089 -5
      vertex 2.35422 4.40842 5
      vertex 2.75568 4.17089 5
    endloop
  endfacet
  facet normal 0.509212 0.860641 0
    outer loop
      vertex 2.35422 4.40842 5
      vertex 2.75568 4.17089 -5
      vertex 2.35422 4.40842 -5
    endloop
  endfacet
  facet normal 0.414537 0.910032 -0
    outer loop
      vertex 2.2688 4.45299 -5
      vertex 1.84412 4.64644 5
      vertex 2.2688 4.45299 5
    endloop
  endfacet
  facet normal 0.414537 0.910032 0
    outer loop
      vertex 1.84412 4.64644 5
      vertex 2.2688 4.45299 -5
      vertex 1.84412 4.64644 -5
    endloop
  endfacet
  facet normal 0.315101 0.949058 -0
    outer loop
      vertex 1.78428 4.66846 -5
      vertex 1.36228 4.80857 5
      vertex 1.78428 4.66846 5
    endloop
  endfacet
  facet normal 0.315101 0.949058 0
    outer loop
      vertex 1.36228 4.80857 5
      vertex 1.78428 4.66846 -5
      vertex 1.36228 4.80857 -5
    endloop
  endfacet
  facet normal 0.2121 0.977248 -0
    outer loop
      vertex 1.30116 4.82671 -5
      vertex 0.845202 4.92567 5
      vertex 1.30116 4.82671 5
    endloop
  endfacet
  facet normal 0.2121 0.977248 0
    outer loop
      vertex 0.845202 4.92567 5
      vertex 1.30116 4.82671 -5
      vertex 0.845202 4.92567 -5
    endloop
  endfacet
  facet normal 0.106669 0.994295 -0
    outer loop
      vertex 0.7499 4.94107 -5
      vertex 0.286256 4.99081 5
      vertex 0.7499 4.94107 5
    endloop
  endfacet
  facet normal 0.106669 0.994295 0
    outer loop
      vertex 0.286256 4.99081 5
      vertex 0.7499 4.94107 -5
      vertex 0.286256 4.99081 -5
    endloop
  endfacet
  facet normal 0 1 -0
    outer loop
      vertex 0.221959 4.99287 -5
      vertex -0.267029 4.99287 5
      vertex 0.221959 4.99287 5
    endloop
  endfacet
  facet normal 0 1 0
    outer loop
      vertex -0.267029 4.99287 5
      vertex 0.221959 4.99287 -5
      vertex -0.267029 4.99287 -5
    endloop
  endfacet
  facet normal -0.106662 0.994295 0
    outer loop
      vertex -0.267029 4.99287 -5
      vertex -0.798004 4.93591 5
      vertex -0.267029 4.99287 5
    endloop
  endfacet
  facet normal -0.106662 0.994295 0
    outer loop
      vertex -0.798004 4.93591 5
      vertex -0.267029 4.99287 -5
      vertex -0.798004 4.93591 -5
    endloop
  endfacet
  facet normal -0.212084 0.977252 0
    outer loop
      vertex -0.798004 4.93591 -5
      vertex -1.31989 4.82265 5
      vertex -0.798004 4.93591 5
    endloop
  endfacet
  facet normal -0.212084 0.977252 0
    outer loop
      vertex -1.31989 4.82265 5
      vertex -0.798004 4.93591 -5
      vertex -1.31989 4.82265 -5
    endloop
  endfacet
  facet normal -0.315115 0.949053 0
    outer loop
      vertex -1.31989 4.82265 -5
      vertex -1.82671 4.65437 5
      vertex -1.31989 4.82265 5
    endloop
  endfacet
  facet normal -0.315115 0.949053 0
    outer loop
      vertex -1.82671 4.65437 5
      vertex -1.31989 4.82265 -5
      vertex -1.82671 4.65437 -5
    endloop
  endfacet
  facet normal -0.414525 0.910038 0
    outer loop
      vertex -1.82671 4.65437 -5
      vertex -2.3127 4.433 5
      vertex -1.82671 4.65437 5
    endloop
  endfacet
  facet normal -0.414525 0.910038 0
    outer loop
      vertex -2.3127 4.433 5
      vertex -1.82671 4.65437 -5
      vertex -2.3127 4.433 -5
    endloop
  endfacet
  facet normal -0.509218 0.860637 0
    outer loop
      vertex -2.3127 4.433 -5
      vertex -2.77231 4.16106 5
      vertex -2.3127 4.433 5
    endloop
  endfacet
  facet normal -0.509218 0.860637 0
    outer loop
      vertex -2.77231 4.16106 5
      vertex -2.3127 4.433 -5
      vertex -2.77231 4.16106 -5
    endloop
  endfacet
  facet normal -0.598099 0.801422 0
    outer loop
      vertex -2.77231 4.16106 -5
      vertex -3.20029 3.84166 5
      vertex -2.77231 4.16106 5
    endloop
  endfacet
  facet normal -0.598099 0.801422 0
    outer loop
      vertex -3.20029 3.84166 5
      vertex -2.77231 4.16106 -5
      vertex -3.20029 3.84166 -5
    endloop
  endfacet
  facet normal -0.680191 0.733035 0
    outer loop
      vertex -3.20029 3.84166 -5
      vertex -3.59175 3.47842 5
      vertex -3.20029 3.84166 5
    endloop
  endfacet
  facet normal -0.680191 0.733035 0
    outer loop
      vertex -3.59175 3.47842 5
      vertex -3.20029 3.84166 -5
      vertex -3.59175 3.47842 -5
    endloop
  endfacet
  facet normal -0.754471 0.656333 0
    outer loop
      vertex -3.94226 3.0755 -5
      vertex -3.59175 3.47842 5
      vertex -3.59175 3.47842 -5
    endloop
  endfacet
  facet normal -0.754471 0.656333 0
    outer loop
      vertex -3.59175 3.47842 5
      vertex -3.94226 3.0755 -5
      vertex -3.94226 3.0755 5
    endloop
  endfacet
  facet normal -0.820166 0.572126 0
    outer loop
      vertex -4.24779 2.63751 -5
      vertex -3.94226 3.0755 5
      vertex -3.94226 3.0755 -5
    endloop
  endfacet
  facet normal -0.820166 0.572126 0
    outer loop
      vertex -3.94226 3.0755 5
      vertex -4.24779 2.63751 -5
      vertex -4.24779 2.63751 5
    endloop
  endfacet
  facet normal -0.876519 0.481367 0
    outer loop
      vertex -4.50485 2.16943 -5
      vertex -4.24779 2.63751 5
      vertex -4.24779 2.63751 -5
    endloop
  endfacet
  facet normal -0.876519 0.481367 0
    outer loop
      vertex -4.24779 2.63751 5
      vertex -4.50485 2.16943 -5
      vertex -4.50485 2.16943 5
    endloop
  endfacet
  facet normal -0.922851 0.385158 0
    outer loop
      vertex -4.71054 1.67659 -5
      vertex -4.50485 2.16943 5
      vertex -4.50485 2.16943 -5
    endloop
  endfacet
  facet normal -0.922851 0.385158 0
    outer loop
      vertex -4.50485 2.16943 5
      vertex -4.71054 1.67659 -5
      vertex -4.71054 1.67659 5
    endloop
  endfacet
  facet normal -0.958665 0.284538 0
    outer loop
      vertex -4.86249 1.16464 -5
      vertex -4.71054 1.67659 5
      vertex -4.71054 1.67659 -5
    endloop
  endfacet
  facet normal -0.958665 0.284538 0
    outer loop
      vertex -4.71054 1.67659 5
      vertex -4.86249 1.16464 -5
      vertex -4.86249 1.16464 5
    endloop
  endfacet
  facet normal -0.983552 0.180625 0
    outer loop
      vertex -4.95895 0.639389 -5
      vertex -4.86249 1.16464 5
      vertex -4.86249 1.16464 -5
    endloop
  endfacet
  facet normal -0.983552 0.180625 0
    outer loop
      vertex -4.86249 1.16464 5
      vertex -4.95895 0.639389 -5
      vertex -4.95895 0.639389 5
    endloop
  endfacet
  facet normal -0.997202 0.0747529 0
    outer loop
      vertex -4.99887 0.106857 -5
      vertex -4.95895 0.639389 5
      vertex -4.95895 0.639389 -5
    endloop
  endfacet
  facet normal -0.997202 0.0747529 0
    outer loop
      vertex -4.95895 0.639389 5
      vertex -4.99887 0.106857 -5
      vertex -4.99887 0.106857 5
    endloop
  endfacet
  facet normal -0.999486 -0.0320583 0
    outer loop
      vertex -4.98175 -0.426895 -5
      vertex -4.99887 0.106857 5
      vertex -4.99887 0.106857 -5
    endloop
  endfacet
  facet normal -0.999486 -0.0320583 0
    outer loop
      vertex -4.99887 0.106857 5
      vertex -4.98175 -0.426895 -5
      vertex -4.98175 -0.426895 5
    endloop
  endfacet
endsolid OpenSCAD_Model
