solid OpenSCAD_Model
  facet normal 0.0320478 -0.999486 0
    outer loop
      vertex 0.0804427 -4.99742 -5
      vertex 0.23981 -4.99231 5
      vertex 0.0804427 -4.99742 5
    endloop
  endfacet
  facet normal 0.0320478 -0.999486 0
    outer loop
      vertex 0.23981 -4.99231 5
      vertex 0.0804427 -4.99742 -5
      vertex 0.23981 -4.99231 -5
    endloop
  endfacet
  facet normal 0.0960325 -0.995378 0
    outer loop
      vertex 0.400616 -4.98199 -5
      vertex 0.559097 -4.9667 5
      vertex 0.400616 -4.98199 5
    endloop
  endfacet
  facet normal 0.0960325 -0.995378 0
    outer loop
      vertex 0.559097 -4.9667 5
      vertex 0.400616 -4.98199 -5
      vertex 0.559097 -4.9667 -5
    endloop
  endfacet
  facet normal -1 0 0
    outer loop
      vertex -5 0 -5
      vertex -5 5 5
      vertex -5 5 -5
    endloop
  endfacet
  facet normal -1 -0 0
    outer loop
      vertex -5 5 5
      vertex -5 0 -5
      vertex -5 0 5
    endloop
  endfacet
  facet normal 0 0 1
    outer loop
      vertex 4.99742 0.160248 5
      vertex 4.99229 -0.240196 5
      vertex 4.99742 -0.0803234 5
    endloop
  endfacet
  facet normal 0 0 1
    outer loop
      vertex 4.99742 0.160248 5
      vertex 4.98202 -0.400113 5
      vertex 4.99229 -0.240196 5
    endloop
  endfacet
  facet normal 0 0 1
    outer loop
      vertex 4.97688 0.480103 5
      vertex 4.98202 -0.400113 5
      vertex 4.99742 0.160248 5
    endloop
  endfacet
  facet normal 0 0 1
    outer loop
      vertex 4.97688 0.480103 5
      vertex 4.96663 -0.559628 5
      vertex 4.98202 -0.400113 5
    endloop
  endfacet
  facet normal 0 0 1
    outer loop
      vertex 4.97688 0.480103 5
      vertex 4.94615 -0.718483 5
      vertex 4.96663 -0.559628 5
    endloop
  endfacet
  facet normal 0 0 1
    outer loop
      vertex 4.9359 0.797989 5
      vertex 4.94615 -0.718483 5
      vertex 4.97688 0.480103 5
    endloop
  endfacet
  facet normal 0 0 1
    outer loop
      vertex 4.9359 0.797989 5
      vertex 4.92058 -0.876659 5
      vertex 4.94615 -0.718483 5
    endloop
  endfacet
  facet normal 0 0 1
    outer loop
      vertex 4.9359 0.797989 5
      vertex 4.88996 -1.03391 5
      vertex 4.92058 -0.876659 5
    endloop
  endfacet
  facet normal 0 0 1
    outer loop
      vertex 4.87463 1.11259 5
      vertex 4.88996 -1.03391 5
      vertex 4.9359 0.797989 5
    endloop
  endfacet
  facet normal 0 0 1
    outer loop
      vertex 4.87463 1.11259 5
      vertex 4.8543 -1.19016 5
      vertex 4.88996 -1.03391 5
    endloop
  endfacet
  facet normal 0 0 1
    outer loop
      vertex 4.87463 1.11259 5
      vertex 4.81368 -1.34504 5
      vertex 4.8543 -1.19016 5
    endloop
  endfacet
  facet normal 0 0 1
    outer loop
      vertex 4.79333 1.42262 5
      vertex 4.81368 -1.34504 5
      vertex 4.87463 1.11259 5
    endloop
  endfacet
  facet normal 0 0 1
    outer loop
      vertex 4.79333 1.42262 5
      vertex 4.76802 -1.4989 5
      vertex 4.81368 -1.34504 5
    endloop
  endfacet
  facet normal 0 0 1
    outer loop
      vertex 4.79333 1.42262 5
      vertex 4.71768 -1.65052 5
      vertex 4.76802 -1.4989 5
    endloop
  endfacet
  facet normal 0 0 1
    outer loop
      vertex 4.69234 1.72682 5
      vertex 4.71768 -1.65052 5
      vertex 4.79333 1.42262 5
    endloop
  endfacet
  facet normal 0 0 1
    outer loop
      vertex 4.69234 1.72682 5
      vertex 4.66222 -1.80123 5
      vertex 4.71768 -1.65052 5
    endloop
  endfacet
  facet normal 0 0 1
    outer loop
      vertex 4.69234 1.72682 5
      vertex 4.60213 -1.94963 5
      vertex 4.66222 -1.80123 5
    endloop
  endfacet
  facet normal 0 0 1
    outer loop
      vertex 4.57205 2.02391 5
      vertex 4.60213 -1.94963 5
      vertex 4.69234 1.72682 5
    endloop
  endfacet
  facet normal 0 0 1
    outer loop
      vertex 4.57205 2.02391 5
      vertex 4.53729 -2.09611 5
      vertex 4.60213 -1.94963 5
    endloop
  endfacet
  facet normal 0 0 1
    outer loop
      vertex 4.57205 2.02391 5
      vertex 4.46776 -2.24048 5
      vertex 4.53729 -2.09611 5
    endloop
  endfacet
  facet normal 0 0 1
    outer loop
      vertex 4.43298 2.31268 5
      vertex 4.46776 -2.24048 5
      vertex 4.57205 2.02391 5
    endloop
  endfacet
  facet normal 0 0 1
    outer loop
      vertex 4.43298 2.31268 5
      vertex 4.3936 -2.38264 5
      vertex 4.46776 -2.24048 5
    endloop
  endfacet
  facet normal 0 0 1
    outer loop
      vertex 4.43298 2.31268 5
      vertex 4.31519 -2.52186 5
      vertex 4.3936 -2.38264 5
    endloop
  endfacet
  facet normal 0 0 1
    outer loop
      vertex 4.27571 2.59195 5
      vertex 4.31519 -2.52186 5
      vertex 4.43298 2.31268 5
    endloop
  endfacet
  facet normal 0 0 1
    outer loop
      vertex 4.27571 2.59195 5
      vertex 4.23172 -2.65955 5
      vertex 4.31519 -2.52186 5
    endloop
  endfacet
  facet normal 0 0 1
    outer loop
      vertex 4.27571 2.59195 5
      vertex 4.14492 -2.79291 5
      vertex 4.23172 -2.65955 5
    endloop
  endfacet
  facet normal 0 0 1
    outer loop
      vertex 4.10086 2.86058 5
      vertex 4.14492 -2.79291 5
      vertex 4.27571 2.59195 5
    endloop
  endfacet
  facet normal 0 0 1
    outer loop
      vertex 4.10086 2.86058 5
      vertex 4.05261 -2.92525 5
      vertex 4.14492 -2.79291 5
    endloop
  endfacet
  facet normal 0 0 1
    outer loop
      vertex 4.10086 2.86058 5
      vertex 3.95735 -3.05288 5
      vertex 4.05261 -2.92525 5
    endloop
  endfacet
  facet normal 0 0 1
    outer loop
      vertex 3.90915 3.11745 5
      vertex 3.95735 -3.05288 5
      vertex 4.10086 2.86058 5
    endloop
  endfacet
  facet normal 0 0 1
    outer loop
      vertex 3.90915 3.11745 5
      vertex 3.85693 -3.1788 5
      vertex 3.95735 -3.05288 5
    endloop
  endfacet
  facet normal 0 0 1
    outer loop
      vertex 3.90915 3.11745 5
      vertex 3.75361 -3.30017 5
      vertex 3.85693 -3.1788 5
    endloop
  endfacet
  facet normal 0 0 1
    outer loop
      vertex 3.70139 3.3615 5
      vertex 3.75361 -3.30017 5
      vertex 3.90915 3.11745 5
    endloop
  endfacet
  facet normal 0 0 1
    outer loop
      vertex 3.70139 3.3615 5
      vertex 3.64537 -3.41935 5
      vertex 3.75361 -3.30017 5
    endloop
  endfacet
  facet normal 0 0 1
    outer loop
      vertex 3.70139 3.3615 5
      vertex 3.5344 -3.53393 5
      vertex 3.64537 -3.41935 5
    endloop
  endfacet
  facet normal 0 0 1
    outer loop
      vertex 3.47841 3.59174 5
      vertex 3.5344 -3.53393 5
      vertex 3.70139 3.3615 5
    endloop
  endfacet
  facet normal 0 0 1
    outer loop
      vertex 3.47841 3.59174 5
      vertex 3.41886 -3.64584 5
      vertex 3.5344 -3.53393 5
    endloop
  endfacet
  facet normal 0 0 1
    outer loop
      vertex 3.47841 3.59174 5
      vertex 3.30067 -3.75317 5
      vertex 3.41886 -3.64584 5
    endloop
  endfacet
  facet normal 0 0 1
    outer loop
      vertex 3.24113 3.80722 5
      vertex 3.30067 -3.75317 5
      vertex 3.47841 3.59174 5
    endloop
  endfacet
  facet normal 0 0 1
    outer loop
      vertex 3.24113 3.80722 5
      vertex 3.17828 -3.85736 5
      vertex 3.30067 -3.75317 5
    endloop
  endfacet
  facet normal 0 0 1
    outer loop
      vertex 3.24113 3.80722 5
      vertex 3.0534 -3.95695 5
      vertex 3.17828 -3.85736 5
    endloop
  endfacet
  facet normal 0 0 1
    outer loop
      vertex 2.99054 4.00706 5
      vertex 3.0534 -3.95695 5
      vertex 3.24113 3.80722 5
    endloop
  endfacet
  facet normal 0 0 1
    outer loop
      vertex 2.99054 4.00706 5
      vertex 2.9247 -4.053 5
      vertex 3.0534 -3.95695 5
    endloop
  endfacet
  facet normal 0 0 1
    outer loop
      vertex 2.99054 4.00706 5
      vertex 2.79345 -4.14456 5
      vertex 2.9247 -4.053 5
    endloop
  endfacet
  facet normal 0 0 1
    outer loop
      vertex 2.72766 4.19043 5
      vertex 2.79345 -4.14456 5
      vertex 2.99054 4.00706 5
    endloop
  endfacet
  facet normal 0 0 1
    outer loop
      vertex 2.72766 4.19043 5
      vertex 2.65898 -4.23208 5
      vertex 2.79345 -4.14456 5
    endloop
  endfacet
  facet normal 0 0 1
    outer loop
      vertex 2.72766 4.19043 5
      vertex 2.52241 -4.31487 5
      vertex 2.65898 -4.23208 5
    endloop
  endfacet
  facet normal 0 0 1
    outer loop
      vertex 2.45358 4.35658 5
      vertex 2.52241 -4.31487 5
      vertex 2.72766 4.19043 5
    endloop
  endfacet
  facet normal 0 0 1
    outer loop
      vertex 2.45358 4.35658 5
      vertex 2.38206 -4.39391 5
      vertex 2.52241 -4.31487 5
    endloop
  endfacet
  facet normal 0 0 1
    outer loop
      vertex 2.45358 4.35658 5
      vertex 2.24104 -4.46748 5
      vertex 2.38206 -4.39391 5
    endloop
  endfacet
  facet normal 0 0 1
    outer loop
      vertex 2.16942 4.50484 5
      vertex 2.24104 -4.46748 5
      vertex 2.45358 4.35658 5
    endloop
  endfacet
  facet normal 0 0 1
    outer loop
      vertex 2.16942 4.50484 5
      vertex 2.09553 -4.53756 5
      vertex 2.24104 -4.46748 5
    endloop
  endfacet
  facet normal 0 0 1
    outer loop
      vertex 2.16942 4.50484 5
      vertex 1.9502 -4.6019 5
      vertex 2.09553 -4.53756 5
    endloop
  endfacet
  facet normal 0 0 1
    outer loop
      vertex 1.87633 4.63458 5
      vertex 1.9502 -4.6019 5
      vertex 2.16942 4.50484 5
    endloop
  endfacet
  facet normal 0 0 1
    outer loop
      vertex 1.87633 4.63458 5
      vertex 1.80065 -4.66245 5
      vertex 1.9502 -4.6019 5
    endloop
  endfacet
  facet normal 0 0 1
    outer loop
      vertex 1.87633 4.63458 5
      vertex 1.65109 -4.71748 5
      vertex 1.80065 -4.66245 5
    endloop
  endfacet
  facet normal 0 0 1
    outer loop
      vertex 1.57553 4.74527 5
      vertex 1.65109 -4.71748 5
      vertex 1.87633 4.63458 5
    endloop
  endfacet
  facet normal 0 0 1
    outer loop
      vertex 1.57553 4.74527 5
      vertex 1.49832 -4.7682 5
      vertex 1.65109 -4.71748 5
    endloop
  endfacet
  facet normal 0 0 1
    outer loop
      vertex 1.57553 4.74527 5
      vertex 1.34559 -4.81353 5
      vertex 1.49832 -4.7682 5
    endloop
  endfacet
  facet normal 0 0 1
    outer loop
      vertex 1.26826 4.83647 5
      vertex 1.34559 -4.81353 5
      vertex 1.57553 4.74527 5
    endloop
  endfacet
  facet normal 0 0 1
    outer loop
      vertex 1.26826 4.83647 5
      vertex 1.1896 -4.85444 5
      vertex 1.34559 -4.81353 5
    endloop
  endfacet
  facet normal 0 0 1
    outer loop
      vertex 1.26826 4.83647 5
      vertex 1.03445 -4.88985 5
      vertex 1.1896 -4.85444 5
    endloop
  endfacet
  facet normal 0 0 1
    outer loop
      vertex 0.95578 4.90779 5
      vertex 1.03445 -4.88985 5
      vertex 1.26826 4.83647 5
    endloop
  endfacet
  facet normal 0 0 1
    outer loop
      vertex 0.95578 4.90779 5
      vertex 0.876108 -4.92069 5
      vertex 1.03445 -4.88985 5
    endloop
  endfacet
  facet normal 0 0 1
    outer loop
      vertex 0.95578 4.90779 5
      vertex 0.71901 -4.94608 5
      vertex 0.876108 -4.92069 5
    endloop
  endfacet
  facet normal 0 0 1
    outer loop
      vertex 0.639374 4.95894 5
      vertex 0.71901 -4.94608 5
      vertex 0.95578 4.90779 5
    endloop
  endfacet
  facet normal 0 0 1
    outer loop
      vertex 0.639374 4.95894 5
      vertex 0.559097 -4.9667 5
      vertex 0.71901 -4.94608 5
    endloop
  endfacet
  facet normal 0 0 1
    outer loop
      vertex 0.639374 4.95894 5
      vertex 0.400616 -4.98199 5
      vertex 0.559097 -4.9667 5
    endloop
  endfacet
  facet normal 0 0 1
    outer loop
      vertex 0.320343 4.98972 5
      vertex 0.400616 -4.98199 5
      vertex 0.639374 4.95894 5
    endloop
  endfacet
  facet normal 0 0 1
    outer loop
      vertex 0.320343 4.98972 5
      vertex 0.23981 -4.99231 5
      vertex 0.400616 -4.98199 5
    endloop
  endfacet
  facet normal 0 0 1
    outer loop
      vertex 0.320343 4.98972 5
      vertex 0.0804427 -4.99742 5
      vertex 0.23981 -4.99231 5
    endloop
  endfacet
  facet normal 0 0 1
    outer loop
      vertex 0 5 5
      vertex 0.0804427 -4.99742 5
      vertex 0.320343 4.98972 5
    endloop
  endfacet
  facet normal 0 0 1
    outer loop
      vertex 0 5 5
      vertex -0.160263 -4.99742 5
      vertex 0.0804427 -4.99742 5
    endloop
  endfacet
  facet normal 0 0 1
    outer loop
      vertex 0 5 5
      vertex -0.480118 -4.97688 5
      vertex -0.160263 -4.99742 5
    endloop
  endfacet
  facet normal 0 0 1
    outer loop
      vertex 0 5 5
      vertex -0.798004 -4.9359 5
      vertex -0.480118 -4.97688 5
    endloop
  endfacet
  facet normal 0 0 1
    outer loop
      vertex 0 5 5
      vertex -1.11261 -4.87463 5
      vertex -0.798004 -4.9359 5
    endloop
  endfacet
  facet normal 0 0 1
    outer loop
      vertex 0 5 5
      vertex -1.42264 -4.79333 5
      vertex -1.11261 -4.87463 5
    endloop
  endfacet
  facet normal 0 0 1
    outer loop
      vertex 0 5 5
      vertex -1.72684 -4.69234 5
      vertex -1.42264 -4.79333 5
    endloop
  endfacet
  facet normal 0 0 1
    outer loop
      vertex 0 5 5
      vertex -2.02393 -4.57205 5
      vertex -1.72684 -4.69234 5
    endloop
  endfacet
  facet normal 0 0 1
    outer loop
      vertex 0 5 5
      vertex -2.3127 -4.43298 5
      vertex -2.02393 -4.57205 5
    endloop
  endfacet
  facet normal 0 0 1
    outer loop
      vertex 0 5 5
      vertex -2.59196 -4.27571 5
      vertex -2.3127 -4.43298 5
    endloop
  endfacet
  facet normal 0 0 1
    outer loop
      vertex 0 5 5
      vertex -2.8606 -4.10086 5
      vertex -2.59196 -4.27571 5
    endloop
  endfacet
  facet normal 0 0 1
    outer loop
      vertex 0 5 5
      vertex -3.11746 -3.90915 5
      vertex -2.8606 -4.10086 5
    endloop
  endfacet
  facet normal 0 0 1
    outer loop
      vertex 0 5 5
      vertex -3.36151 -3.70139 5
      vertex -3.11746 -3.90915 5
    endloop
  endfacet
  facet normal 0 0 1
    outer loop
      vertex 0 5 5
      vertex -3.59175 -3.47841 5
      vertex -3.36151 -3.70139 5
    endloop
  endfacet
  facet normal 0 0 1
    outer loop
      vertex 0 5 5
      vertex -3.80724 -3.24113 5
      vertex -3.59175 -3.47841 5
    endloop
  endfacet
  facet normal 0 0 1
    outer loop
      vertex 0 5 5
      vertex -4.00708 -2.99054 5
      vertex -3.80724 -3.24113 5
    endloop
  endfacet
  facet normal 0 0 1
    outer loop
      vertex 0 5 5
      vertex -4.19044 -2.72766 5
      vertex -4.00708 -2.99054 5
    endloop
  endfacet
  facet normal 0 0 1
    outer loop
      vertex 0 5 5
      vertex -4.3566 -2.45358 5
      vertex -4.19044 -2.72766 5
    endloop
  endfacet
  facet normal 0 0 1
    outer loop
      vertex 0 5 5
      vertex -4.50485 -2.16942 5
      vertex -4.3566 -2.45358 5
    endloop
  endfacet
  facet normal 0 0 1
    outer loop
      vertex 0 5 5
      vertex -4.6346 -1.87633 5
      vertex -4.50485 -2.16942 5
    endloop
  endfacet
  facet normal 0 0 1
    outer loop
      vertex 0 5 5
      vertex -4.74529 -1.57553 5
      vertex -4.6346 -1.87633 5
    endloop
  endfacet
  facet normal 0 0 1
    outer loop
      vertex 0 5 5
      vertex -4.83649 -1.26826 5
      vertex -4.74529 -1.57553 5
    endloop
  endfacet
  facet normal 0 0 1
    outer loop
      vertex 0 5 5
      vertex -4.90781 -0.95578 5
      vertex -4.83649 -1.26826 5
    endloop
  endfacet
  facet normal 0 0 1
    outer loop
      vertex 0 5 5
      vertex -4.95895 -0.639374 5
      vertex -4.90781 -0.95578 5
    endloop
  endfacet
  facet normal 0 0 1
    outer loop
      vertex 0 5 5
      vertex -4.98973 -0.320343 5
      vertex -4.95895 -0.639374 5
    endloop
  endfacet
  facet normal 0 0 1
    outer loop
      vertex -5 0 5
      vertex 0 5 5
      vertex -5 5 5
    endloop
  endfacet
  facet normal 0 0 1
    outer loop
      vertex 0 5 5
      vertex -5 0 5
      vertex -4.98973 -0.320343 5
    endloop
  endfacet
  facet normal 0 0 -1
    outer loop
      vertex 4.99229 -0.240196 -5
      vertex 4.99742 0.160248 -5
      vertex 4.99742 -0.0803234 -5
    endloop
  endfacet
  facet normal 0 0 -1
    outer loop
      vertex 4.98202 -0.400113 -5
      vertex 4.99742 0.160248 -5
      vertex 4.99229 -0.240196 -5
    endloop
  endfacet
  facet normal 0 0 -1
    outer loop
      vertex 4.98202 -0.400113 -5
      vertex 4.97688 0.480103 -5
      vertex 4.99742 0.160248 -5
    endloop
  endfacet
  facet normal 0 0 -1
    outer loop
      vertex 4.96663 -0.559628 -5
      vertex 4.97688 0.480103 -5
      vertex 4.98202 -0.400113 -5
    endloop
  endfacet
  facet normal 0 0 -1
    outer loop
      vertex 4.94615 -0.718483 -5
      vertex 4.97688 0.480103 -5
      vertex 4.96663 -0.559628 -5
    endloop
  endfacet
  facet normal 0 0 -1
    outer loop
      vertex 4.94615 -0.718483 -5
      vertex 4.9359 0.797989 -5
      vertex 4.97688 0.480103 -5
    endloop
  endfacet
  facet normal 0 0 -1
    outer loop
      vertex 4.92058 -0.876659 -5
      vertex 4.9359 0.797989 -5
      vertex 4.94615 -0.718483 -5
    endloop
  endfacet
  facet normal 0 0 -1
    outer loop
      vertex 4.88996 -1.03391 -5
      vertex 4.9359 0.797989 -5
      vertex 4.92058 -0.876659 -5
    endloop
  endfacet
  facet normal 0 0 -1
    outer loop
      vertex 4.88996 -1.03391 -5
      vertex 4.87463 1.11259 -5
      vertex 4.9359 0.797989 -5
    endloop
  endfacet
  facet normal 0 0 -1
    outer loop
      vertex 4.8543 -1.19016 -5
      vertex 4.87463 1.11259 -5
      vertex 4.88996 -1.03391 -5
    endloop
  endfacet
  facet normal 0 0 -1
    outer loop
      vertex 4.81368 -1.34504 -5
      vertex 4.87463 1.11259 -5
      vertex 4.8543 -1.19016 -5
    endloop
  endfacet
  facet normal 0 0 -1
    outer loop
      vertex 4.81368 -1.34504 -5
      vertex 4.79333 1.42262 -5
      vertex 4.87463 1.11259 -5
    endloop
  endfacet
  facet normal 0 0 -1
    outer loop
      vertex 4.76802 -1.4989 -5
      vertex 4.79333 1.42262 -5
      vertex 4.81368 -1.34504 -5
    endloop
  endfacet
  facet normal 0 0 -1
    outer loop
      vertex 4.71768 -1.65052 -5
      vertex 4.79333 1.42262 -5
      vertex 4.76802 -1.4989 -5
    endloop
  endfacet
  facet normal 0 0 -1
    outer loop
      vertex 4.71768 -1.65052 -5
      vertex 4.69234 1.72682 -5
      vertex 4.79333 1.42262 -5
    endloop
  endfacet
  facet normal 0 0 -1
    outer loop
      vertex 4.66222 -1.80123 -5
      vertex 4.69234 1.72682 -5
      vertex 4.71768 -1.65052 -5
    endloop
  endfacet
  facet normal 0 0 -1
    outer loop
      vertex 4.60213 -1.94963 -5
      vertex 4.69234 1.72682 -5
      vertex 4.66222 -1.80123 -5
    endloop
  endfacet
  facet normal 0 0 -1
    outer loop
      vertex 4.60213 -1.94963 -5
      vertex 4.57205 2.02391 -5
      vertex 4.69234 1.72682 -5
    endloop
  endfacet
  facet normal 0 0 -1
    outer loop
      vertex 4.53729 -2.09611 -5
      vertex 4.57205 2.02391 -5
      vertex 4.60213 -1.94963 -5
    endloop
  endfacet
  facet normal 0 0 -1
    outer loop
      vertex 4.46776 -2.24048 -5
      vertex 4.57205 2.02391 -5
      vertex 4.53729 -2.09611 -5
    endloop
  endfacet
  facet normal 0 0 -1
    outer loop
      vertex 4.46776 -2.24048 -5
      vertex 4.43298 2.31268 -5
      vertex 4.57205 2.02391 -5
    endloop
  endfacet
  facet normal 0 0 -1
    outer loop
      vertex 4.3936 -2.38264 -5
      vertex 4.43298 2.31268 -5
      vertex 4.46776 -2.24048 -5
    endloop
  endfacet
  facet normal 0 0 -1
    outer loop
      vertex 4.31519 -2.52186 -5
      vertex 4.43298 2.31268 -5
      vertex 4.3936 -2.38264 -5
    endloop
  endfacet
  facet normal 0 0 -1
    outer loop
      vertex 4.31519 -2.52186 -5
      vertex 4.27571 2.59195 -5
      vertex 4.43298 2.31268 -5
    endloop
  endfacet
  facet normal 0 0 -1
    outer loop
      vertex 4.23172 -2.65955 -5
      vertex 4.27571 2.59195 -5
      vertex 4.31519 -2.52186 -5
    endloop
  endfacet
  facet normal 0 0 -1
    outer loop
      vertex 4.14492 -2.79291 -5
      vertex 4.27571 2.59195 -5
      vertex 4.23172 -2.65955 -5
    endloop
  endfacet
  facet normal 0 0 -1
    outer loop
      vertex 4.14492 -2.79291 -5
      vertex 4.10086 2.86058 -5
      vertex 4.27571 2.59195 -5
    endloop
  endfacet
  facet normal 0 0 -1
    outer loop
      vertex 4.05261 -2.92525 -5
      vertex 4.10086 2.86058 -5
      vertex 4.14492 -2.79291 -5
    endloop
  endfacet
  facet normal 0 0 -1
    outer loop
      vertex 3.95735 -3.05288 -5
      vertex 4.10086 2.86058 -5
      vertex 4.05261 -2.92525 -5
    endloop
  endfacet
  facet normal 0 0 -1
    outer loop
      vertex 3.95735 -3.05288 -5
      vertex 3.90915 3.11745 -5
      vertex 4.10086 2.86058 -5
    endloop
  endfacet
  facet normal 0 0 -1
    outer loop
      vertex 3.85693 -3.1788 -5
      vertex 3.90915 3.11745 -5
      vertex 3.95735 -3.05288 -5
    endloop
  endfacet
  facet normal 0 0 -1
    outer loop
      vertex 3.75361 -3.30017 -5
      vertex 3.90915 3.11745 -5
      vertex 3.85693 -3.1788 -5
    endloop
  endfacet
  facet normal 0 0 -1
    outer loop
      vertex 3.75361 -3.30017 -5
      vertex 3.70139 3.3615 -5
      vertex 3.90915 3.11745 -5
    endloop
  endfacet
  facet normal 0 0 -1
    outer loop
      vertex 3.64537 -3.41935 -5
      vertex 3.70139 3.3615 -5
      vertex 3.75361 -3.30017 -5
    endloop
  endfacet
  facet normal 0 0 -1
    outer loop
      vertex 3.5344 -3.53393 -5
      vertex 3.70139 3.3615 -5
      vertex 3.64537 -3.41935 -5
    endloop
  endfacet
  facet normal 0 0 -1
    outer loop
      vertex 3.5344 -3.53393 -5
      vertex 3.47841 3.59174 -5
      vertex 3.70139 3.3615 -5
    endloop
  endfacet
  facet normal 0 0 -1
    outer loop
      vertex 3.41886 -3.64584 -5
      vertex 3.47841 3.59174 -5
      vertex 3.5344 -3.53393 -5
    endloop
  endfacet
  facet normal 0 0 -1
    outer loop
      vertex 3.30067 -3.75317 -5
      vertex 3.47841 3.59174 -5
      vertex 3.41886 -3.64584 -5
    endloop
  endfacet
  facet normal 0 0 -1
    outer loop
      vertex 3.30067 -3.75317 -5
      vertex 3.24113 3.80722 -5
      vertex 3.47841 3.59174 -5
    endloop
  endfacet
  facet normal 0 0 -1
    outer loop
      vertex 3.17828 -3.85736 -5
      vertex 3.24113 3.80722 -5
      vertex 3.30067 -3.75317 -5
    endloop
  endfacet
  facet normal 0 0 -1
    outer loop
      vertex 3.0534 -3.95695 -5
      vertex 3.24113 3.80722 -5
      vertex 3.17828 -3.85736 -5
    endloop
  endfacet
  facet normal 0 0 -1
    outer loop
      vertex 3.0534 -3.95695 -5
      vertex 2.99054 4.00706 -5
      vertex 3.24113 3.80722 -5
    endloop
  endfacet
  facet normal 0 0 -1
    outer loop
      vertex 2.9247 -4.053 -5
      vertex 2.99054 4.00706 -5
      vertex 3.0534 -3.95695 -5
    endloop
  endfacet
  facet normal 0 0 -1
    outer loop
      vertex 2.79345 -4.14456 -5
      vertex 2.99054 4.00706 -5
      vertex 2.9247 -4.053 -5
    endloop
  endfacet
  facet normal 0 0 -1
    outer loop
      vertex 2.79345 -4.14456 -5
      vertex 2.72766 4.19043 -5
      vertex 2.99054 4.00706 -5
    endloop
  endfacet
  facet normal 0 0 -1
    outer loop
      vertex 2.65898 -4.23208 -5
      vertex 2.72766 4.19043 -5
      vertex 2.79345 -4.14456 -5
    endloop
  endfacet
  facet normal 0 0 -1
    outer loop
      vertex 2.52241 -4.31487 -5
      vertex 2.72766 4.19043 -5
      vertex 2.65898 -4.23208 -5
    endloop
  endfacet
  facet normal 0 0 -1
    outer loop
      vertex 2.52241 -4.31487 -5
      vertex 2.45358 4.35658 -5
      vertex 2.72766 4.19043 -5
    endloop
  endfacet
  facet normal 0 0 -1
    outer loop
      vertex 2.38206 -4.39391 -5
      vertex 2.45358 4.35658 -5
      vertex 2.52241 -4.31487 -5
    endloop
  endfacet
  facet normal 0 0 -1
    outer loop
      vertex 2.24104 -4.46748 -5
      vertex 2.45358 4.35658 -5
      vertex 2.38206 -4.39391 -5
    endloop
  endfacet
  facet normal 0 0 -1
    outer loop
      vertex 2.24104 -4.46748 -5
      vertex 2.16942 4.50484 -5
      vertex 2.45358 4.35658 -5
    endloop
  endfacet
  facet normal 0 0 -1
    outer loop
      vertex 2.09553 -4.53756 -5
      vertex 2.16942 4.50484 -5
      vertex 2.24104 -4.46748 -5
    endloop
  endfacet
  facet normal 0 0 -1
    outer loop
      vertex 1.9502 -4.6019 -5
      vertex 2.16942 4.50484 -5
      vertex 2.09553 -4.53756 -5
    endloop
  endfacet
  facet normal 0 0 -1
    outer loop
      vertex 1.9502 -4.6019 -5
      vertex 1.87633 4.63458 -5
      vertex 2.16942 4.50484 -5
    endloop
  endfacet
  facet normal 0 0 -1
    outer loop
      vertex 1.80065 -4.66245 -5
      vertex 1.87633 4.63458 -5
      vertex 1.9502 -4.6019 -5
    endloop
  endfacet
  facet normal 0 0 -1
    outer loop
      vertex 1.65109 -4.71748 -5
      vertex 1.87633 4.63458 -5
      vertex 1.80065 -4.66245 -5
    endloop
  endfacet
  facet normal 0 0 -1
    outer loop
      vertex 1.65109 -4.71748 -5
      vertex 1.57553 4.74527 -5
      vertex 1.87633 4.63458 -5
    endloop
  endfacet
  facet normal 0 0 -1
    outer loop
      vertex 1.49832 -4.7682 -5
      vertex 1.57553 4.74527 -5
      vertex 1.65109 -4.71748 -5
    endloop
  endfacet
  facet normal 0 0 -1
    outer loop
      vertex 1.34559 -4.81353 -5
      vertex 1.57553 4.74527 -5
      vertex 1.49832 -4.7682 -5
    endloop
  endfacet
  facet normal 0 0 -1
    outer loop
      vertex 1.34559 -4.81353 -5
      vertex 1.26826 4.83647 -5
      vertex 1.57553 4.74527 -5
    endloop
  endfacet
  facet normal 0 0 -1
    outer loop
      vertex 1.1896 -4.85444 -5
      vertex 1.26826 4.83647 -5
      vertex 1.34559 -4.81353 -5
    endloop
  endfacet
  facet normal 0 0 -1
    outer loop
      vertex 1.03445 -4.88985 -5
      vertex 1.26826 4.83647 -5
      vertex 1.1896 -4.85444 -5
    endloop
  endfacet
  facet normal 0 0 -1
    outer loop
      vertex 1.03445 -4.88985 -5
      vertex 0.95578 4.90779 -5
      vertex 1.26826 4.83647 -5
    endloop
  endfacet
  facet normal 0 0 -1
    outer loop
      vertex 0.876108 -4.92069 -5
      vertex 0.95578 4.90779 -5
      vertex 1.03445 -4.88985 -5
    endloop
  endfacet
  facet normal 0 0 -1
    outer loop
      vertex 0.71901 -4.94608 -5
      vertex 0.95578 4.90779 -5
      vertex 0.876108 -4.92069 -5
    endloop
  endfacet
  facet normal 0 0 -1
    outer loop
      vertex 0.71901 -4.94608 -5
      vertex 0.639374 4.95894 -5
      vertex 0.95578 4.90779 -5
    endloop
  endfacet
  facet normal 0 0 -1
    outer loop
      vertex 0.559097 -4.9667 -5
      vertex 0.639374 4.95894 -5
      vertex 0.71901 -4.94608 -5
    endloop
  endfacet
  facet normal 0 0 -1
    outer loop
      vertex 0.400616 -4.98199 -5
      vertex 0.639374 4.95894 -5
      vertex 0.559097 -4.9667 -5
    endloop
  endfacet
  facet normal 0 0 -1
    outer loop
      vertex 0.400616 -4.98199 -5
      vertex 0.320343 4.98972 -5
      vertex 0.639374 4.95894 -5
    endloop
  endfacet
  facet normal 0 0 -1
    outer loop
      vertex 0.23981 -4.99231 -5
      vertex 0.320343 4.98972 -5
      vertex 0.400616 -4.98199 -5
    endloop
  endfacet
  facet normal 0 0 -1
    outer loop
      vertex 0.0804427 -4.99742 -5
      vertex 0.320343 4.98972 -5
      vertex 0.23981 -4.99231 -5
    endloop
  endfacet
  facet normal 0 0 -1
    outer loop
      vertex 0.0804427 -4.99742 -5
      vertex 0 5 -5
      vertex 0.320343 4.98972 -5
    endloop
  endfacet
  facet normal 0 0 -1
    outer loop
      vertex -0.160263 -4.99742 -5
      vertex 0 5 -5
      vertex 0.0804427 -4.99742 -5
    endloop
  endfacet
  facet normal 0 0 -1
    outer loop
      vertex -0.480118 -4.97688 -5
      vertex 0 5 -5
      vertex -0.160263 -4.99742 -5
    endloop
  endfacet
  facet normal 0 0 -1
    outer loop
      vertex -0.798004 -4.9359 -5
      vertex 0 5 -5
      vertex -0.480118 -4.97688 -5
    endloop
  endfacet
  facet normal 0 0 -1
    outer loop
      vertex -1.11261 -4.87463 -5
      vertex 0 5 -5
      vertex -0.798004 -4.9359 -5
    endloop
  endfacet
  facet normal 0 0 -1
    outer loop
      vertex -1.42264 -4.79333 -5
      vertex 0 5 -5
      vertex -1.11261 -4.87463 -5
    endloop
  endfacet
  facet normal 0 0 -1
    outer loop
      vertex -1.72684 -4.69234 -5
      vertex 0 5 -5
      vertex -1.42264 -4.79333 -5
    endloop
  endfacet
  facet normal 0 0 -1
    outer loop
      vertex -2.02393 -4.57205 -5
      vertex 0 5 -5
      vertex -1.72684 -4.69234 -5
    endloop
  endfacet
  facet normal 0 0 -1
    outer loop
      vertex -2.3127 -4.43298 -5
      vertex 0 5 -5
      vertex -2.02393 -4.57205 -5
    endloop
  endfacet
  facet normal 0 0 -1
    outer loop
      vertex -2.59196 -4.27571 -5
      vertex 0 5 -5
      vertex -2.3127 -4.43298 -5
    endloop
  endfacet
  facet normal 0 0 -1
    outer loop
      vertex -2.8606 -4.10086 -5
      vertex 0 5 -5
      vertex -2.59196 -4.27571 -5
    endloop
  endfacet
  facet normal 0 0 -1
    outer loop
      vertex -3.11746 -3.90915 -5
      vertex 0 5 -5
      vertex -2.8606 -4.10086 -5
    endloop
  endfacet
  facet normal 0 0 -1
    outer loop
      vertex -3.36151 -3.70139 -5
      vertex 0 5 -5
      vertex -3.11746 -3.90915 -5
    endloop
  endfacet
  facet normal 0 0 -1
    outer loop
      vertex -3.59175 -3.47841 -5
      vertex 0 5 -5
      vertex -3.36151 -3.70139 -5
    endloop
  endfacet
  facet normal 0 0 -1
    outer loop
      vertex -3.80724 -3.24113 -5
      vertex 0 5 -5
      vertex -3.59175 -3.47841 -5
    endloop
  endfacet
  facet normal 0 0 -1
    outer loop
      vertex -4.00708 -2.99054 -5
      vertex 0 5 -5
      vertex -3.80724 -3.24113 -5
    endloop
  endfacet
  facet normal 0 0 -1
    outer loop
      vertex -4.19044 -2.72766 -5
      vertex 0 5 -5
      vertex -4.00708 -2.99054 -5
    endloop
  endfacet
  facet normal 0 0 -1
    outer loop
      vertex -4.3566 -2.45358 -5
      vertex 0 5 -5
      vertex -4.19044 -2.72766 -5
    endloop
  endfacet
  facet normal 0 0 -1
    outer loop
      vertex -4.50485 -2.16942 -5
      vertex 0 5 -5
      vertex -4.3566 -2.45358 -5
    endloop
  endfacet
  facet normal 0 0 -1
    outer loop
      vertex -4.6346 -1.87633 -5
      vertex 0 5 -5
      vertex -4.50485 -2.16942 -5
    endloop
  endfacet
  facet normal 0 0 -1
    outer loop
      vertex -4.74529 -1.57553 -5
      vertex 0 5 -5
      vertex -4.6346 -1.87633 -5
    endloop
  endfacet
  facet normal 0 0 -1
    outer loop
      vertex -4.83649 -1.26826 -5
      vertex 0 5 -5
      vertex -4.74529 -1.57553 -5
    endloop
  endfacet
  facet normal 0 0 -1
    outer loop
      vertex -4.90781 -0.95578 -5
      vertex 0 5 -5
      vertex -4.83649 -1.26826 -5
    endloop
  endfacet
  facet normal 0 0 -1
    outer loop
      vertex -4.95895 -0.639374 -5
      vertex 0 5 -5
      vertex -4.90781 -0.95578 -5
    endloop
  endfacet
  facet normal 0 0 -1
    outer loop
      vertex -4.98973 -0.320343 -5
      vertex 0 5 -5
      vertex -4.95895 -0.639374 -5
    endloop
  endfacet
  facet normal 0 0 -1
    outer loop
      vertex -5 0 -5
      vertex 0 5 -5
      vertex -4.98973 -0.320343 -5
    endloop
  endfacet
  facet normal -0 0 -1
    outer loop
      vertex 0 5 -5
      vertex -5 0 -5
      vertex -5 5 -5
    endloop
  endfacet
  facet normal 0.900956 -0.433909 0
    outer loop
      vertex 4.46776 -2.24048 5
      vertex 4.53729 -2.09611 -5
      vertex 4.53729 -2.09611 5
    endloop
  endfacet
  facet normal 0.900956 -0.433909 0
    outer loop
      vertex 4.53729 -2.09611 -5
      vertex 4.46776 -2.24048 5
      vertex 4.46776 -2.24048 -5
    endloop
  endfacet
  facet normal 0 1 -0
    outer loop
      vertex 0 5 -5
      vertex -5 5 5
      vertex 0 5 5
    endloop
  endfacet
  facet normal 0 1 0
    outer loop
      vertex -5 5 5
      vertex 0 5 -5
      vertex -5 5 -5
    endloop
  endfacet
  facet normal 0.838101 0.545516 0
    outer loop
      vertex 4.27571 2.59195 5
      vertex 4.10086 2.86058 -5
      vertex 4.10086 2.86058 5
    endloop
  endfacet
  facet normal 0.838101 0.545516 0
    outer loop
      vertex 4.10086 2.86058 -5
      vertex 4.27571 2.59195 5
      vertex 4.27571 2.59195 -5
    endloop
  endfacet
  facet normal 0.623492 0.78183 -0
    outer loop
      vertex 3.24113 3.80722 -5
      vertex 2.99054 4.00706 5
      vertex 3.24113 3.80722 5
    endloop
  endfacet
  facet normal 0.623492 0.78183 0
    outer loop
      vertex 2.99054 4.00706 5
      vertex 3.24113 3.80722 -5
      vertex 2.99054 4.00706 -5
    endloop
  endfacet
  facet normal 0.0320741 0.999485 -0
    outer loop
      vertex 0.320343 4.98972 -5
      vertex 0 5 5
      vertex 0.320343 4.98972 5
    endloop
  endfacet
  facet normal 0.0320741 0.999485 0
    outer loop
      vertex 0 5 5
      vertex 0.320343 4.98972 -5
      vertex 0 5 -5
    endloop
  endfacet
  facet normal 0.284539 0.958665 -0
    outer loop
      vertex 1.57553 4.74527 -5
      vertex 1.26826 4.83647 5
      vertex 1.57553 4.74527 5
    endloop
  endfacet
  facet normal 0.284539 0.958665 0
    outer loop
      vertex 1.26826 4.83647 5
      vertex 1.57553 4.74527 -5
      vertex 1.26826 4.83647 -5
    endloop
  endfacet
  facet normal 0.871311 -0.490731 0
    outer loop
      vertex 4.31519 -2.52186 5
      vertex 4.3936 -2.38264 -5
      vertex 4.3936 -2.38264 5
    endloop
  endfacet
  facet normal 0.871311 -0.490731 0
    outer loop
      vertex 4.3936 -2.38264 -5
      vertex 4.31519 -2.52186 5
      vertex 4.31519 -2.52186 -5
    endloop
  endfacet
  facet normal 0.76145 0.648223 0
    outer loop
      vertex 3.90915 3.11745 5
      vertex 3.70139 3.3615 -5
      vertex 3.70139 3.3615 5
    endloop
  endfacet
  facet normal 0.76145 0.648223 0
    outer loop
      vertex 3.70139 3.3615 -5
      vertex 3.90915 3.11745 5
      vertex 3.90915 3.11745 -5
    endloop
  endfacet
  facet normal 0.718342 0.695691 0
    outer loop
      vertex 3.70139 3.3615 5
      vertex 3.47841 3.59174 -5
      vertex 3.47841 3.59174 5
    endloop
  endfacet
  facet normal 0.718342 0.695691 0
    outer loop
      vertex 3.47841 3.59174 -5
      vertex 3.70139 3.3615 5
      vertex 3.70139 3.3615 -5
    endloop
  endfacet
  facet normal 0.0960337 0.995378 -0
    outer loop
      vertex 0.639374 4.95894 -5
      vertex 0.320343 4.98972 5
      vertex 0.639374 4.95894 5
    endloop
  endfacet
  facet normal 0.0960337 0.995378 0
    outer loop
      vertex 0.320343 4.98972 5
      vertex 0.639374 4.95894 -5
      vertex 0.320343 4.98972 -5
    endloop
  endfacet
  facet normal 0.159588 0.987184 -0
    outer loop
      vertex 0.95578 4.90779 -5
      vertex 0.639374 4.95894 5
      vertex 0.95578 4.90779 5
    endloop
  endfacet
  facet normal 0.159588 0.987184 0
    outer loop
      vertex 0.639374 4.95894 5
      vertex 0.95578 4.90779 -5
      vertex 0.639374 4.95894 -5
    endloop
  endfacet
  facet normal 0.222516 0.974929 -0
    outer loop
      vertex 1.26826 4.83647 -5
      vertex 0.95578 4.90779 5
      vertex 1.26826 4.83647 5
    endloop
  endfacet
  facet normal 0.222516 0.974929 0
    outer loop
      vertex 0.95578 4.90779 5
      vertex 1.26826 4.83647 -5
      vertex 0.95578 4.90779 -5
    endloop
  endfacet
  facet normal 0.462572 0.886582 -0
    outer loop
      vertex 2.45358 4.35658 -5
      vertex 2.16942 4.50484 5
      vertex 2.45358 4.35658 5
    endloop
  endfacet
  facet normal 0.462572 0.886582 0
    outer loop
      vertex 2.16942 4.50484 5
      vertex 2.45358 4.35658 -5
      vertex 2.16942 4.50484 -5
    endloop
  endfacet
  facet normal 0.404777 0.914415 -0
    outer loop
      vertex 2.16942 4.50484 -5
      vertex 1.87633 4.63458 5
      vertex 2.16942 4.50484 5
    endloop
  endfacet
  facet normal 0.404777 0.914415 0
    outer loop
      vertex 1.87633 4.63458 5
      vertex 2.16942 4.50484 -5
      vertex 1.87633 4.63458 -5
    endloop
  endfacet
  facet normal 0.926904 0.375298 0
    outer loop
      vertex 4.69234 1.72682 5
      vertex 4.57205 2.02391 -5
      vertex 4.57205 2.02391 5
    endloop
  endfacet
  facet normal 0.926904 0.375298 0
    outer loop
      vertex 4.57205 2.02391 -5
      vertex 4.69234 1.72682 5
      vertex 4.69234 1.72682 -5
    endloop
  endfacet
  facet normal 0.967294 0.253656 0
    outer loop
      vertex 4.87463 1.11259 5
      vertex 4.79333 1.42262 -5
      vertex 4.79333 1.42262 5
    endloop
  endfacet
  facet normal 0.967294 0.253656 0
    outer loop
      vertex 4.79333 1.42262 -5
      vertex 4.87463 1.11259 5
      vertex 4.87463 1.11259 -5
    endloop
  endfacet
  facet normal 0.761458 -0.648215 0
    outer loop
      vertex 3.75361 -3.30017 5
      vertex 3.85693 -3.1788 -5
      vertex 3.85693 -3.1788 5
    endloop
  endfacet
  facet normal 0.761458 -0.648215 0
    outer loop
      vertex 3.85693 -3.1788 -5
      vertex 3.75361 -3.30017 5
      vertex 3.75361 -3.30017 -5
    endloop
  endfacet
  facet normal 0.345313 -0.938488 0
    outer loop
      vertex 1.65109 -4.71748 -5
      vertex 1.80065 -4.66245 5
      vertex 1.65109 -4.71748 5
    endloop
  endfacet
  facet normal 0.345313 -0.938488 0
    outer loop
      vertex 1.80065 -4.66245 5
      vertex 1.65109 -4.71748 -5
      vertex 1.80065 -4.66245 -5
    endloop
  endfacet
  facet normal 0.159549 -0.98719 0
    outer loop
      vertex 0.71901 -4.94608 -5
      vertex 0.876108 -4.92069 5
      vertex 0.71901 -4.94608 5
    endloop
  endfacet
  facet normal 0.159549 -0.98719 0
    outer loop
      vertex 0.876108 -4.92069 5
      vertex 0.71901 -4.94608 -5
      vertex 0.876108 -4.92069 -5
    endloop
  endfacet
  facet normal 0.801409 0.598116 0
    outer loop
      vertex 4.10086 2.86058 5
      vertex 3.90915 3.11745 -5
      vertex 3.90915 3.11745 5
    endloop
  endfacet
  facet normal 0.801409 0.598116 0
    outer loop
      vertex 3.90915 3.11745 -5
      vertex 4.10086 2.86058 5
      vertex 4.10086 2.86058 -5
    endloop
  endfacet
  facet normal 0.672281 0.740296 -0
    outer loop
      vertex 3.47841 3.59174 -5
      vertex 3.24113 3.80722 5
      vertex 3.47841 3.59174 5
    endloop
  endfacet
  facet normal 0.672281 0.740296 0
    outer loop
      vertex 3.24113 3.80722 5
      vertex 3.47841 3.59174 -5
      vertex 3.24113 3.80722 -5
    endloop
  endfacet
  facet normal 0.518395 0.855141 -0
    outer loop
      vertex 2.72766 4.19043 -5
      vertex 2.45358 4.35658 5
      vertex 2.72766 4.19043 5
    endloop
  endfacet
  facet normal 0.518395 0.855141 0
    outer loop
      vertex 2.45358 4.35658 5
      vertex 2.72766 4.19043 -5
      vertex 2.45358 4.35658 -5
    endloop
  endfacet
  facet normal 0.572109 0.820178 -0
    outer loop
      vertex 2.99054 4.00706 -5
      vertex 2.72766 4.19043 5
      vertex 2.99054 4.00706 5
    endloop
  endfacet
  facet normal 0.572109 0.820178 0
    outer loop
      vertex 2.72766 4.19043 5
      vertex 2.99054 4.00706 -5
      vertex 2.72766 4.19043 -5
    endloop
  endfacet
  facet normal 0.345345 0.938476 -0
    outer loop
      vertex 1.87633 4.63458 -5
      vertex 1.57553 4.74527 5
      vertex 1.87633 4.63458 5
    endloop
  endfacet
  facet normal 0.345345 0.938476 0
    outer loop
      vertex 1.57553 4.74527 5
      vertex 1.87633 4.63458 -5
      vertex 1.57553 4.74527 -5
    endloop
  endfacet
  facet normal 0.871335 0.490689 0
    outer loop
      vertex 4.43298 2.31268 5
      vertex 4.27571 2.59195 -5
      vertex 4.27571 2.59195 5
    endloop
  endfacet
  facet normal 0.871335 0.490689 0
    outer loop
      vertex 4.27571 2.59195 -5
      vertex 4.43298 2.31268 5
      vertex 4.43298 2.31268 -5
    endloop
  endfacet
  facet normal 0.981565 -0.191131 0
    outer loop
      vertex 4.88996 -1.03391 5
      vertex 4.92058 -0.876659 -5
      vertex 4.92058 -0.876659 5
    endloop
  endfacet
  facet normal 0.981565 -0.191131 0
    outer loop
      vertex 4.92058 -0.876659 -5
      vertex 4.88996 -1.03391 5
      vertex 4.88996 -1.03391 -5
    endloop
  endfacet
  facet normal 1 -0 0
    outer loop
      vertex 4.99742 -0.0803234 5
      vertex 4.99742 0.160248 -5
      vertex 4.99742 0.160248 5
    endloop
  endfacet
  facet normal 1 0 0
    outer loop
      vertex 4.99742 0.160248 -5
      vertex 4.99742 -0.0803234 5
      vertex 4.99742 -0.0803234 -5
    endloop
  endfacet
  facet normal 0.926896 -0.375318 0
    outer loop
      vertex 4.60213 -1.94963 5
      vertex 4.66222 -1.80123 -5
      vertex 4.66222 -1.80123 5
    endloop
  endfacet
  facet normal 0.926896 -0.375318 0
    outer loop
      vertex 4.66222 -1.80123 -5
      vertex 4.60213 -1.94963 5
      vertex 4.60213 -1.94963 -5
    endloop
  endfacet
  facet normal 0.991793 0.127856 0
    outer loop
      vertex 4.97688 0.480103 5
      vertex 4.9359 0.797989 -5
      vertex 4.9359 0.797989 5
    endloop
  endfacet
  facet normal 0.991793 0.127856 0
    outer loop
      vertex 4.9359 0.797989 -5
      vertex 4.97688 0.480103 5
      vertex 4.97688 0.480103 -5
    endloop
  endfacet
  facet normal 0.997944 0.0640846 0
    outer loop
      vertex 4.99742 0.160248 5
      vertex 4.97688 0.480103 -5
      vertex 4.97688 0.480103 5
    endloop
  endfacet
  facet normal 0.997944 0.0640846 0
    outer loop
      vertex 4.97688 0.480103 -5
      vertex 4.99742 0.160248 5
      vertex 4.99742 0.160248 -5
    endloop
  endfacet
  facet normal 0.949066 0.315076 0
    outer loop
      vertex 4.79333 1.42262 5
      vertex 4.69234 1.72682 -5
      vertex 4.69234 1.72682 5
    endloop
  endfacet
  facet normal 0.949066 0.315076 0
    outer loop
      vertex 4.69234 1.72682 -5
      vertex 4.79333 1.42262 5
      vertex 4.79333 1.42262 -5
    endloop
  endfacet
  facet normal 0.900962 0.433898 0
    outer loop
      vertex 4.57205 2.02391 5
      vertex 4.43298 2.31268 -5
      vertex 4.43298 2.31268 5
    endloop
  endfacet
  facet normal 0.900962 0.433898 0
    outer loop
      vertex 4.43298 2.31268 -5
      vertex 4.57205 2.02391 5
      vertex 4.57205 2.02391 -5
    endloop
  endfacet
  facet normal 0.981558 0.191163 0
    outer loop
      vertex 4.9359 0.797989 5
      vertex 4.87463 1.11259 -5
      vertex 4.87463 1.11259 5
    endloop
  endfacet
  facet normal 0.981558 0.191163 0
    outer loop
      vertex 4.87463 1.11259 -5
      vertex 4.9359 0.797989 5
      vertex 4.9359 0.797989 -5
    endloop
  endfacet
  facet normal 0.83811 -0.545501 0
    outer loop
      vertex 4.14492 -2.79291 5
      vertex 4.23172 -2.65955 -5
      vertex 4.23172 -2.65955 5
    endloop
  endfacet
  facet normal 0.83811 -0.545501 0
    outer loop
      vertex 4.23172 -2.65955 -5
      vertex 4.14492 -2.79291 5
      vertex 4.14492 -2.79291 -5
    endloop
  endfacet
  facet normal 0.718332 -0.6957 0
    outer loop
      vertex 3.5344 -3.53393 5
      vertex 3.64537 -3.41935 -5
      vertex 3.64537 -3.41935 5
    endloop
  endfacet
  facet normal 0.718332 -0.6957 0
    outer loop
      vertex 3.64537 -3.41935 -5
      vertex 3.5344 -3.53393 5
      vertex 3.5344 -3.53393 -5
    endloop
  endfacet
  facet normal 0.672277 -0.7403 0
    outer loop
      vertex 3.30067 -3.75317 -5
      vertex 3.41886 -3.64584 5
      vertex 3.30067 -3.75317 5
    endloop
  endfacet
  facet normal 0.672277 -0.7403 0
    outer loop
      vertex 3.41886 -3.64584 5
      vertex 3.30067 -3.75317 -5
      vertex 3.41886 -3.64584 -5
    endloop
  endfacet
  facet normal 0.801392 -0.59814 0
    outer loop
      vertex 3.95735 -3.05288 5
      vertex 4.05261 -2.92525 -5
      vertex 4.05261 -2.92525 5
    endloop
  endfacet
  facet normal 0.801392 -0.59814 0
    outer loop
      vertex 4.05261 -2.92525 -5
      vertex 3.95735 -3.05288 5
      vertex 3.95735 -3.05288 -5
    endloop
  endfacet
  facet normal 0.518395 -0.855141 0
    outer loop
      vertex 2.52241 -4.31487 -5
      vertex 2.65898 -4.23208 5
      vertex 2.52241 -4.31487 5
    endloop
  endfacet
  facet normal 0.518395 -0.855141 0
    outer loop
      vertex 2.65898 -4.23208 5
      vertex 2.52241 -4.31487 -5
      vertex 2.65898 -4.23208 -5
    endloop
  endfacet
  facet normal 0.462538 -0.886599 0
    outer loop
      vertex 2.24104 -4.46748 -5
      vertex 2.38206 -4.39391 5
      vertex 2.24104 -4.46748 5
    endloop
  endfacet
  facet normal 0.462538 -0.886599 0
    outer loop
      vertex 2.38206 -4.39391 5
      vertex 2.24104 -4.46748 -5
      vertex 2.38206 -4.39391 -5
    endloop
  endfacet
  facet normal 0.997944 -0.0640888 0
    outer loop
      vertex 4.98202 -0.400113 5
      vertex 4.99229 -0.240196 -5
      vertex 4.99229 -0.240196 5
    endloop
  endfacet
  facet normal 0.997944 -0.0640888 0
    outer loop
      vertex 4.99229 -0.240196 -5
      vertex 4.98202 -0.400113 5
      vertex 4.98202 -0.400113 -5
    endloop
  endfacet
  facet normal 0.949058 -0.315101 0
    outer loop
      vertex 4.71768 -1.65052 5
      vertex 4.76802 -1.4989 -5
      vertex 4.76802 -1.4989 5
    endloop
  endfacet
  facet normal 0.949058 -0.315101 0
    outer loop
      vertex 4.76802 -1.4989 -5
      vertex 4.71768 -1.65052 5
      vertex 4.71768 -1.65052 -5
    endloop
  endfacet
  facet normal 0.967286 -0.253688 0
    outer loop
      vertex 4.81368 -1.34504 5
      vertex 4.8543 -1.19016 -5
      vertex 4.8543 -1.19016 5
    endloop
  endfacet
  facet normal 0.967286 -0.253688 0
    outer loop
      vertex 4.8543 -1.19016 -5
      vertex 4.81368 -1.34504 5
      vertex 4.81368 -1.34504 -5
    endloop
  endfacet
  facet normal 0.572141 -0.820156 0
    outer loop
      vertex 2.79345 -4.14456 -5
      vertex 2.9247 -4.053 5
      vertex 2.79345 -4.14456 5
    endloop
  endfacet
  facet normal 0.572141 -0.820156 0
    outer loop
      vertex 2.9247 -4.053 5
      vertex 2.79345 -4.14456 -5
      vertex 2.9247 -4.053 -5
    endloop
  endfacet
  facet normal 0.623496 -0.781827 0
    outer loop
      vertex 3.0534 -3.95695 -5
      vertex 3.17828 -3.85736 5
      vertex 3.0534 -3.95695 5
    endloop
  endfacet
  facet normal 0.623496 -0.781827 0
    outer loop
      vertex 3.17828 -3.85736 5
      vertex 3.0534 -3.95695 -5
      vertex 3.17828 -3.85736 -5
    endloop
  endfacet
  facet normal 0.284531 -0.958667 0
    outer loop
      vertex 1.34559 -4.81353 -5
      vertex 1.49832 -4.7682 5
      vertex 1.34559 -4.81353 5
    endloop
  endfacet
  facet normal 0.284531 -0.958667 0
    outer loop
      vertex 1.49832 -4.7682 5
      vertex 1.34559 -4.81353 -5
      vertex 1.49832 -4.7682 -5
    endloop
  endfacet
  facet normal 0.404819 -0.914397 0
    outer loop
      vertex 1.9502 -4.6019 -5
      vertex 2.09553 -4.53756 5
      vertex 1.9502 -4.6019 5
    endloop
  endfacet
  facet normal 0.404819 -0.914397 0
    outer loop
      vertex 2.09553 -4.53756 5
      vertex 1.9502 -4.6019 -5
      vertex 2.09553 -4.53756 -5
    endloop
  endfacet
  facet normal 0.991792 -0.127864 0
    outer loop
      vertex 4.94615 -0.718483 5
      vertex 4.96663 -0.559628 -5
      vertex 4.96663 -0.559628 5
    endloop
  endfacet
  facet normal 0.991792 -0.127864 0
    outer loop
      vertex 4.96663 -0.559628 -5
      vertex 4.94615 -0.718483 5
      vertex 4.94615 -0.718483 -5
    endloop
  endfacet
  facet normal 0.222509 -0.974931 0
    outer loop
      vertex 1.03445 -4.88985 -5
      vertex 1.1896 -4.85444 5
      vertex 1.03445 -4.88985 5
    endloop
  endfacet
  facet normal 0.222509 -0.974931 0
    outer loop
      vertex 1.1896 -4.85444 5
      vertex 1.03445 -4.88985 -5
      vertex 1.1896 -4.85444 -5
    endloop
  endfacet
  facet normal -0.999486 -0.0320429 0
    outer loop
      vertex -4.98973 -0.320343 -5
      vertex -5 0 5
      vertex -5 0 -5
    endloop
  endfacet
  facet normal -0.999486 -0.0320429 0
    outer loop
      vertex -5 0 5
      vertex -4.98973 -0.320343 -5
      vertex -4.98973 -0.320343 5
    endloop
  endfacet
  facet normal -0.995378 -0.0960337 0
    outer loop
      vertex -4.95895 -0.639374 -5
      vertex -4.98973 -0.320343 5
      vertex -4.98973 -0.320343 -5
    endloop
  endfacet
  facet normal -0.995378 -0.0960337 0
    outer loop
      vertex -4.98973 -0.320343 5
      vertex -4.95895 -0.639374 -5
      vertex -4.95895 -0.639374 5
    endloop
  endfacet
  facet normal 0.54549 -0.838117 0
    outer loop
      vertex 2.65898 -4.23208 -5
      vertex 2.79345 -4.14456 5
      vertex 2.65898 -4.23208 5
    endloop
  endfacet
  facet normal 0.54549 -0.838117 0
    outer loop
      vertex 2.79345 -4.14456 5
      vertex 2.65898 -4.23208 -5
      vertex 2.79345 -4.14456 -5
    endloop
  endfacet
  facet normal 0.974932 -0.222503 0
    outer loop
      vertex 4.8543 -1.19016 5
      vertex 4.88996 -1.03391 -5
      vertex 4.88996 -1.03391 5
    endloop
  endfacet
  facet normal 0.974932 -0.222503 0
    outer loop
      vertex 4.88996 -1.03391 -5
      vertex 4.8543 -1.19016 5
      vertex 4.8543 -1.19016 -5
    endloop
  endfacet
  facet normal 0.820186 -0.572097 0
    outer loop
      vertex 4.05261 -2.92525 5
      vertex 4.14492 -2.79291 -5
      vertex 4.14492 -2.79291 5
    endloop
  endfacet
  facet normal 0.820186 -0.572097 0
    outer loop
      vertex 4.14492 -2.79291 -5
      vertex 4.05261 -2.92525 5
      vertex 4.05261 -2.92525 -5
    endloop
  endfacet
  facet normal 0.958676 -0.2845 0
    outer loop
      vertex 4.76802 -1.4989 5
      vertex 4.81368 -1.34504 -5
      vertex 4.81368 -1.34504 5
    endloop
  endfacet
  facet normal 0.958676 -0.2845 0
    outer loop
      vertex 4.81368 -1.34504 -5
      vertex 4.76802 -1.4989 5
      vertex 4.76802 -1.4989 -5
    endloop
  endfacet
  facet normal 0.695733 -0.7183 0
    outer loop
      vertex 3.41886 -3.64584 -5
      vertex 3.5344 -3.53393 5
      vertex 3.41886 -3.64584 5
    endloop
  endfacet
  facet normal 0.695733 -0.7183 0
    outer loop
      vertex 3.5344 -3.53393 5
      vertex 3.41886 -3.64584 -5
      vertex 3.5344 -3.53393 -5
    endloop
  endfacet
  facet normal 0.995378 -0.096034 0
    outer loop
      vertex 4.96663 -0.559628 5
      vertex 4.98202 -0.400113 -5
      vertex 4.98202 -0.400113 5
    endloop
  endfacet
  facet normal 0.995378 -0.096034 0
    outer loop
      vertex 4.98202 -0.400113 -5
      vertex 4.96663 -0.559628 5
      vertex 4.96663 -0.559628 -5
    endloop
  endfacet
  facet normal 0.999486 -0.0320715 0
    outer loop
      vertex 4.99229 -0.240196 5
      vertex 4.99742 -0.0803234 -5
      vertex 4.99742 -0.0803234 5
    endloop
  endfacet
  facet normal 0.999486 -0.0320715 0
    outer loop
      vertex 4.99742 -0.0803234 -5
      vertex 4.99229 -0.240196 5
      vertex 4.99229 -0.240196 -5
    endloop
  endfacet
  facet normal 0.914418 -0.404771 0
    outer loop
      vertex 4.53729 -2.09611 5
      vertex 4.60213 -1.94963 -5
      vertex 4.60213 -1.94963 5
    endloop
  endfacet
  facet normal 0.914418 -0.404771 0
    outer loop
      vertex 4.60213 -1.94963 -5
      vertex 4.53729 -2.09611 5
      vertex 4.53729 -2.09611 -5
    endloop
  endfacet
  facet normal 0.781825 -0.623498 0
    outer loop
      vertex 3.85693 -3.1788 5
      vertex 3.95735 -3.05288 -5
      vertex 3.95735 -3.05288 5
    endloop
  endfacet
  facet normal 0.781825 -0.623498 0
    outer loop
      vertex 3.95735 -3.05288 -5
      vertex 3.85693 -3.1788 5
      vertex 3.85693 -3.1788 -5
    endloop
  endfacet
  facet normal -0.958665 -0.284539 0
    outer loop
      vertex -4.74529 -1.57553 -5
      vertex -4.83649 -1.26826 5
      vertex -4.83649 -1.26826 -5
    endloop
  endfacet
  facet normal -0.958665 -0.284539 0
    outer loop
      vertex -4.83649 -1.26826 5
      vertex -4.74529 -1.57553 -5
      vertex -4.74529 -1.57553 5
    endloop
  endfacet
  facet normal 0.987184 -0.159584 0
    outer loop
      vertex 4.92058 -0.876659 5
      vertex 4.94615 -0.718483 -5
      vertex 4.94615 -0.718483 5
    endloop
  endfacet
  facet normal 0.987184 -0.159584 0
    outer loop
      vertex 4.94615 -0.718483 -5
      vertex 4.92058 -0.876659 5
      vertex 4.92058 -0.876659 -5
    endloop
  endfacet
  facet normal 0.938474 -0.34535 0
    outer loop
      vertex 4.66222 -1.80123 5
      vertex 4.71768 -1.65052 -5
      vertex 4.71768 -1.65052 5
    endloop
  endfacet
  facet normal 0.938474 -0.34535 0
    outer loop
      vertex 4.71768 -1.65052 -5
      vertex 4.66222 -1.80123 5
      vertex 4.66222 -1.80123 -5
    endloop
  endfacet
  facet normal 0.886612 -0.462515 0
    outer loop
      vertex 4.3936 -2.38264 5
      vertex 4.46776 -2.24048 -5
      vertex 4.46776 -2.24048 5
    endloop
  endfacet
  facet normal 0.886612 -0.462515 0
    outer loop
      vertex 4.46776 -2.24048 -5
      vertex 4.3936 -2.38264 5
      vertex 4.3936 -2.38264 -5
    endloop
  endfacet
  facet normal 0.740266 -0.672314 0
    outer loop
      vertex 3.64537 -3.41935 5
      vertex 3.75361 -3.30017 -5
      vertex 3.75361 -3.30017 5
    endloop
  endfacet
  facet normal 0.740266 -0.672314 0
    outer loop
      vertex 3.75361 -3.30017 -5
      vertex 3.64537 -3.41935 5
      vertex 3.64537 -3.41935 -5
    endloop
  endfacet
  facet normal 0.648221 -0.761452 0
    outer loop
      vertex 3.17828 -3.85736 -5
      vertex 3.30067 -3.75317 5
      vertex 3.17828 -3.85736 5
    endloop
  endfacet
  facet normal 0.648221 -0.761452 0
    outer loop
      vertex 3.30067 -3.75317 5
      vertex 3.17828 -3.85736 -5
      vertex 3.30067 -3.75317 -5
    endloop
  endfacet
  facet normal 0.598105 -0.801418 0
    outer loop
      vertex 2.9247 -4.053 -5
      vertex 3.0534 -3.95695 5
      vertex 2.9247 -4.053 5
    endloop
  endfacet
  facet normal 0.598105 -0.801418 0
    outer loop
      vertex 3.0534 -3.95695 5
      vertex 2.9247 -4.053 -5
      vertex 3.0534 -3.95695 -5
    endloop
  endfacet
  facet normal 0.855139 -0.518399 0
    outer loop
      vertex 4.23172 -2.65955 5
      vertex 4.31519 -2.52186 -5
      vertex 4.31519 -2.52186 5
    endloop
  endfacet
  facet normal 0.855139 -0.518399 0
    outer loop
      vertex 4.31519 -2.52186 -5
      vertex 4.23172 -2.65955 5
      vertex 4.23172 -2.65955 -5
    endloop
  endfacet
  facet normal -0.19116 -0.981559 0
    outer loop
      vertex -1.11261 -4.87463 -5
      vertex -0.798004 -4.9359 5
      vertex -1.11261 -4.87463 5
    endloop
  endfacet
  facet normal -0.19116 -0.981559 -0
    outer loop
      vertex -0.798004 -4.9359 5
      vertex -1.11261 -4.87463 -5
      vertex -0.798004 -4.9359 -5
    endloop
  endfacet
  facet normal 0 -1 0
    outer loop
      vertex -0.160263 -4.99742 -5
      vertex 0.0804427 -4.99742 5
      vertex -0.160263 -4.99742 5
    endloop
  endfacet
  facet normal 0 -1 -0
    outer loop
      vertex 0.0804427 -4.99742 5
      vertex -0.160263 -4.99742 -5
      vertex 0.0804427 -4.99742 -5
    endloop
  endfacet
  facet normal 0.191176 -0.981556 0
    outer loop
      vertex 0.876108 -4.92069 -5
      vertex 1.03445 -4.88985 5
      vertex 0.876108 -4.92069 5
    endloop
  endfacet
  facet normal 0.191176 -0.981556 0
    outer loop
      vertex 1.03445 -4.88985 5
      vertex 0.876108 -4.92069 -5
      vertex 1.03445 -4.88985 -5
    endloop
  endfacet
  facet normal 0.064045 -0.997947 0
    outer loop
      vertex 0.23981 -4.99231 -5
      vertex 0.400616 -4.98199 5
      vertex 0.23981 -4.99231 5
    endloop
  endfacet
  facet normal 0.064045 -0.997947 0
    outer loop
      vertex 0.400616 -4.98199 5
      vertex 0.23981 -4.99231 -5
      vertex 0.400616 -4.98199 -5
    endloop
  endfacet
  facet normal 0.433914 -0.900954 0
    outer loop
      vertex 2.09553 -4.53756 -5
      vertex 2.24104 -4.46748 5
      vertex 2.09553 -4.53756 5
    endloop
  endfacet
  facet normal 0.433914 -0.900954 0
    outer loop
      vertex 2.24104 -4.46748 5
      vertex 2.09553 -4.53756 -5
      vertex 2.24104 -4.46748 -5
    endloop
  endfacet
  facet normal 0.315091 -0.949062 0
    outer loop
      vertex 1.49832 -4.7682 -5
      vertex 1.65109 -4.71748 5
      vertex 1.49832 -4.7682 5
    endloop
  endfacet
  facet normal 0.315091 -0.949062 0
    outer loop
      vertex 1.65109 -4.71748 5
      vertex 1.49832 -4.7682 -5
      vertex 1.65109 -4.71748 -5
    endloop
  endfacet
  facet normal 0.4907 -0.871328 0
    outer loop
      vertex 2.38206 -4.39391 -5
      vertex 2.52241 -4.31487 5
      vertex 2.38206 -4.39391 5
    endloop
  endfacet
  facet normal 0.4907 -0.871328 0
    outer loop
      vertex 2.52241 -4.31487 5
      vertex 2.38206 -4.39391 -5
      vertex 2.52241 -4.31487 -5
    endloop
  endfacet
  facet normal -0.648223 -0.76145 0
    outer loop
      vertex -3.36151 -3.70139 -5
      vertex -3.11746 -3.90915 5
      vertex -3.36151 -3.70139 5
    endloop
  endfacet
  facet normal -0.648223 -0.76145 -0
    outer loop
      vertex -3.11746 -3.90915 5
      vertex -3.36151 -3.70139 -5
      vertex -3.11746 -3.90915 -5
    endloop
  endfacet
  facet normal -0.433898 -0.900962 0
    outer loop
      vertex -2.3127 -4.43298 -5
      vertex -2.02393 -4.57205 5
      vertex -2.3127 -4.43298 5
    endloop
  endfacet
  facet normal -0.433898 -0.900962 -0
    outer loop
      vertex -2.02393 -4.57205 5
      vertex -2.3127 -4.43298 -5
      vertex -2.02393 -4.57205 -5
    endloop
  endfacet
  facet normal -0.820192 -0.572088 0
    outer loop
      vertex -4.00708 -2.99054 -5
      vertex -4.19044 -2.72766 5
      vertex -4.19044 -2.72766 -5
    endloop
  endfacet
  facet normal -0.820192 -0.572088 0
    outer loop
      vertex -4.19044 -2.72766 5
      vertex -4.00708 -2.99054 -5
      vertex -4.00708 -2.99054 5
    endloop
  endfacet
  facet normal -0.938476 -0.345345 0
    outer loop
      vertex -4.6346 -1.87633 -5
      vertex -4.74529 -1.57553 5
      vertex -4.74529 -1.57553 -5
    endloop
  endfacet
  facet normal -0.938476 -0.345345 0
    outer loop
      vertex -4.74529 -1.57553 5
      vertex -4.6346 -1.87633 -5
      vertex -4.6346 -1.87633 5
    endloop
  endfacet
  facet normal -0.974929 -0.222516 0
    outer loop
      vertex -4.83649 -1.26826 -5
      vertex -4.90781 -0.95578 5
      vertex -4.90781 -0.95578 -5
    endloop
  endfacet
  facet normal -0.974929 -0.222516 0
    outer loop
      vertex -4.90781 -0.95578 5
      vertex -4.83649 -1.26826 -5
      vertex -4.83649 -1.26826 5
    endloop
  endfacet
  facet normal -0.987189 -0.159557 0
    outer loop
      vertex -4.90781 -0.95578 -5
      vertex -4.95895 -0.639374 5
      vertex -4.95895 -0.639374 -5
    endloop
  endfacet
  facet normal -0.987189 -0.159557 0
    outer loop
      vertex -4.95895 -0.639374 5
      vertex -4.90781 -0.95578 -5
      vertex -4.90781 -0.95578 5
    endloop
  endfacet
  facet normal -0.253656 -0.967294 0
    outer loop
      vertex -1.42264 -4.79333 -5
      vertex -1.11261 -4.87463 5
      vertex -1.42264 -4.79333 5
    endloop
  endfacet
  facet normal -0.253656 -0.967294 -0
    outer loop
      vertex -1.11261 -4.87463 5
      vertex -1.42264 -4.79333 -5
      vertex -1.11261 -4.87463 -5
    endloop
  endfacet
  facet normal -0.315076 -0.949066 0
    outer loop
      vertex -1.72684 -4.69234 -5
      vertex -1.42264 -4.79333 5
      vertex -1.72684 -4.69234 5
    endloop
  endfacet
  facet normal -0.315076 -0.949066 -0
    outer loop
      vertex -1.42264 -4.79333 5
      vertex -1.72684 -4.69234 -5
      vertex -1.42264 -4.79333 -5
    endloop
  endfacet
  facet normal -0.375298 -0.926904 0
    outer loop
      vertex -2.02393 -4.57205 -5
      vertex -1.72684 -4.69234 5
      vertex -2.02393 -4.57205 5
    endloop
  endfacet
  facet normal -0.375298 -0.926904 -0
    outer loop
      vertex -1.72684 -4.69234 5
      vertex -2.02393 -4.57205 -5
      vertex -1.72684 -4.69234 -5
    endloop
  endfacet
  facet normal -0.0640846 -0.997944 0
    outer loop
      vertex -0.480118 -4.97688 -5
      vertex -0.160263 -4.99742 5
      vertex -0.480118 -4.97688 5
    endloop
  endfacet
  facet normal -0.0640846 -0.997944 -0
    outer loop
      vertex -0.160263 -4.99742 5
      vertex -0.480118 -4.97688 -5
      vertex -0.160263 -4.99742 -5
    endloop
  endfacet
  facet normal 0.253681 -0.967288 0
    outer loop
      vertex 1.1896 -4.85444 -5
      vertex 1.34559 -4.81353 5
      vertex 1.1896 -4.85444 5
    endloop
  endfacet
  facet normal 0.253681 -0.967288 0
    outer loop
      vertex 1.34559 -4.81353 5
      vertex 1.1896 -4.85444 -5
      vertex 1.34559 -4.81353 -5
    endloop
  endfacet
  facet normal 0.127886 -0.991789 0
    outer loop
      vertex 0.559097 -4.9667 -5
      vertex 0.71901 -4.94608 5
      vertex 0.559097 -4.9667 5
    endloop
  endfacet
  facet normal 0.127886 -0.991789 0
    outer loop
      vertex 0.71901 -4.94608 5
      vertex 0.559097 -4.9667 -5
      vertex 0.71901 -4.94608 -5
    endloop
  endfacet
  facet normal 0.375288 -0.926908 0
    outer loop
      vertex 1.80065 -4.66245 -5
      vertex 1.9502 -4.6019 5
      vertex 1.80065 -4.66245 5
    endloop
  endfacet
  facet normal 0.375288 -0.926908 0
    outer loop
      vertex 1.9502 -4.6019 5
      vertex 1.80065 -4.66245 -5
      vertex 1.9502 -4.6019 -5
    endloop
  endfacet
  facet normal -0.695691 -0.718342 0
    outer loop
      vertex -3.59175 -3.47841 -5
      vertex -3.36151 -3.70139 5
      vertex -3.59175 -3.47841 5
    endloop
  endfacet
  facet normal -0.695691 -0.718342 -0
    outer loop
      vertex -3.36151 -3.70139 5
      vertex -3.59175 -3.47841 -5
      vertex -3.36151 -3.70139 -5
    endloop
  endfacet
  facet normal -0.74028 -0.672298 0
    outer loop
      vertex -3.59175 -3.47841 -5
      vertex -3.80724 -3.24113 5
      vertex -3.80724 -3.24113 -5
    endloop
  endfacet
  facet normal -0.74028 -0.672298 0
    outer loop
      vertex -3.80724 -3.24113 5
      vertex -3.59175 -3.47841 -5
      vertex -3.59175 -3.47841 5
    endloop
  endfacet
  facet normal -0.78183 -0.623492 0
    outer loop
      vertex -3.80724 -3.24113 -5
      vertex -4.00708 -2.99054 5
      vertex -4.00708 -2.99054 -5
    endloop
  endfacet
  facet normal -0.78183 -0.623492 0
    outer loop
      vertex -4.00708 -2.99054 5
      vertex -3.80724 -3.24113 -5
      vertex -3.80724 -3.24113 5
    endloop
  endfacet
  facet normal -0.545501 -0.83811 0
    outer loop
      vertex -2.8606 -4.10086 -5
      vertex -2.59196 -4.27571 5
      vertex -2.8606 -4.10086 5
    endloop
  endfacet
  facet normal -0.545501 -0.83811 -0
    outer loop
      vertex -2.59196 -4.27571 5
      vertex -2.8606 -4.10086 -5
      vertex -2.59196 -4.27571 -5
    endloop
  endfacet
  facet normal -0.598131 -0.801398 0
    outer loop
      vertex -3.11746 -3.90915 -5
      vertex -2.8606 -4.10086 5
      vertex -3.11746 -3.90915 5
    endloop
  endfacet
  facet normal -0.598131 -0.801398 -0
    outer loop
      vertex -2.8606 -4.10086 5
      vertex -3.11746 -3.90915 -5
      vertex -2.8606 -4.10086 -5
    endloop
  endfacet
  facet normal -0.490703 -0.871327 0
    outer loop
      vertex -2.59196 -4.27571 -5
      vertex -2.3127 -4.43298 5
      vertex -2.59196 -4.27571 5
    endloop
  endfacet
  facet normal -0.490703 -0.871327 -0
    outer loop
      vertex -2.3127 -4.43298 5
      vertex -2.59196 -4.27571 -5
      vertex -2.3127 -4.43298 -5
    endloop
  endfacet
  facet normal -0.886594 -0.462548 0
    outer loop
      vertex -4.3566 -2.45358 -5
      vertex -4.50485 -2.16942 5
      vertex -4.50485 -2.16942 -5
    endloop
  endfacet
  facet normal -0.886594 -0.462548 0
    outer loop
      vertex -4.50485 -2.16942 5
      vertex -4.3566 -2.45358 -5
      vertex -4.3566 -2.45358 5
    endloop
  endfacet
  facet normal -0.914404 -0.404804 0
    outer loop
      vertex -4.50485 -2.16942 -5
      vertex -4.6346 -1.87633 5
      vertex -4.6346 -1.87633 -5
    endloop
  endfacet
  facet normal -0.914404 -0.404804 0
    outer loop
      vertex -4.6346 -1.87633 5
      vertex -4.50485 -2.16942 -5
      vertex -4.50485 -2.16942 5
    endloop
  endfacet
  facet normal -0.855127 -0.518418 0
    outer loop
      vertex -4.19044 -2.72766 -5
      vertex -4.3566 -2.45358 5
      vertex -4.3566 -2.45358 -5
    endloop
  endfacet
  facet normal -0.855127 -0.518418 0
    outer loop
      vertex -4.3566 -2.45358 5
      vertex -4.19044 -2.72766 -5
      vertex -4.19044 -2.72766 5
    endloop
  endfacet
  facet normal -0.127856 -0.991793 0
    outer loop
      vertex -0.798004 -4.9359 -5
      vertex -0.480118 -4.97688 5
      vertex -0.798004 -4.9359 5
    endloop
  endfacet
  facet normal -0.127856 -0.991793 -0
    outer loop
      vertex -0.480118 -4.97688 5
      vertex -0.798004 -4.9359 -5
      vertex -0.480118 -4.97688 -5
    endloop
  endfacet
endsolid OpenSCAD_Model
