solid OpenSCAD_Model
  facet normal -1 0 0
    outer loop
      vertex -5 3 -5
      vertex -5 5 5
      vertex -5 5 -5
    endloop
  endfacet
  facet normal -1 -0 0
    outer loop
      vertex -5 5 5
      vertex -5 3 -5
      vertex -5 3 5
    endloop
  endfacet
  facet normal -0 0 1
    outer loop
      vertex -5 5 5
      vertex -1 3 5
      vertex 0 5 5
    endloop
  endfacet
  facet normal 0 0 1
    outer loop
      vertex -1 3 5
      vertex -5 5 5
      vertex -5 3 5
    endloop
  endfacet
  facet normal 0 0 1
    outer loop
      vertex 3 3 5
      vertex 4.99742 0.160248 5
      vertex 4.97688 0.480103 5
    endloop
  endfacet
  facet normal 0 0 1
    outer loop
      vertex 4.99742 0.160248 5
      vertex 3 3 5
      vertex 4.99742 -0.160263 5
    endloop
  endfacet
  facet normal 0 0 1
    outer loop
      vertex 3 3 5
      vertex 4.97688 0.480103 5
      vertex 4.9359 0.797989 5
    endloop
  endfacet
  facet normal 0 0 1
    outer loop
      vertex 4.99742 -0.160263 5
      vertex 3 3 5
      vertex 4.97688 -0.480118 5
    endloop
  endfacet
  facet normal 0 0 1
    outer loop
      vertex 3 3 5
      vertex 4.9359 0.797989 5
      vertex 4.87463 1.11259 5
    endloop
  endfacet
  facet normal 0 0 1
    outer loop
      vertex 4.97688 -0.480118 5
      vertex 3 3 5
      vertex 4.9359 -0.798004 5
    endloop
  endfacet
  facet normal 0 0 1
    outer loop
      vertex 3 3 5
      vertex 4.87463 1.11259 5
      vertex 4.79333 1.42262 5
    endloop
  endfacet
  facet normal 0 0 1
    outer loop
      vertex 4.9359 -0.798004 5
      vertex 3 3 5
      vertex 4.87463 -1.11261 5
    endloop
  endfacet
  facet normal 0 0 1
    outer loop
      vertex 3 3 5
      vertex 4.79333 1.42262 5
      vertex 4.69234 1.72682 5
    endloop
  endfacet
  facet normal 0 0 1
    outer loop
      vertex 4.87463 -1.11261 5
      vertex 3 3 5
      vertex 4.79333 -1.42264 5
    endloop
  endfacet
  facet normal 0 0 1
    outer loop
      vertex 3 3 5
      vertex 4.69234 1.72682 5
      vertex 4.57205 2.02391 5
    endloop
  endfacet
  facet normal 0 0 1
    outer loop
      vertex 4.79333 -1.42264 5
      vertex 3 3 5
      vertex 4.69234 -1.72684 5
    endloop
  endfacet
  facet normal 0 0 1
    outer loop
      vertex 3 3 5
      vertex 4.57205 2.02391 5
      vertex 4.43298 2.31268 5
    endloop
  endfacet
  facet normal 0 0 1
    outer loop
      vertex 4.69234 -1.72684 5
      vertex 3 3 5
      vertex 4.57205 -2.02393 5
    endloop
  endfacet
  facet normal 0 0 1
    outer loop
      vertex 3 3 5
      vertex 4.43298 2.31268 5
      vertex 4.27571 2.59195 5
    endloop
  endfacet
  facet normal 0 0 1
    outer loop
      vertex 4.57205 -2.02393 5
      vertex 3 3 5
      vertex 4.43298 -2.3127 5
    endloop
  endfacet
  facet normal 0 0 1
    outer loop
      vertex 3 3 5
      vertex 4.27571 2.59195 5
      vertex 4.10086 2.86058 5
    endloop
  endfacet
  facet normal 0 0 1
    outer loop
      vertex 4.43298 -2.3127 5
      vertex 3 3 5
      vertex 4.27571 -2.59196 5
    endloop
  endfacet
  facet normal -0 0 1
    outer loop
      vertex 3 3 5
      vertex 4.10086 2.86058 5
      vertex 3.90915 3.11745 5
    endloop
  endfacet
  facet normal 0 0 1
    outer loop
      vertex 4.27571 -2.59196 5
      vertex 3 3 5
      vertex 4.10086 -2.8606 5
    endloop
  endfacet
  facet normal 0 0 1
    outer loop
      vertex 3 3 5
      vertex 3.90915 3.11745 5
      vertex 3.70139 3.3615 5
    endloop
  endfacet
  facet normal 0 0 1
    outer loop
      vertex 4.10086 -2.8606 5
      vertex 3 3 5
      vertex 3.90915 -3.11746 5
    endloop
  endfacet
  facet normal 0 0 1
    outer loop
      vertex 3 3 5
      vertex 3.70139 3.3615 5
      vertex 3.47841 3.59174 5
    endloop
  endfacet
  facet normal 0 0 1
    outer loop
      vertex 3.90915 -3.11746 5
      vertex 3 3 5
      vertex 3.70139 -3.36151 5
    endloop
  endfacet
  facet normal 0 0 1
    outer loop
      vertex 3 3 5
      vertex 3.47841 3.59174 5
      vertex 3.24113 3.80722 5
    endloop
  endfacet
  facet normal 0 0 1
    outer loop
      vertex 3.70139 -3.36151 5
      vertex 3 3 5
      vertex 3.47841 -3.59175 5
    endloop
  endfacet
  facet normal 0 0 1
    outer loop
      vertex 3.47841 -3.59175 5
      vertex 3 3 5
      vertex 3.24113 -3.80724 5
    endloop
  endfacet
  facet normal 0 0 1
    outer loop
      vertex 2.99054 4.00706 5
      vertex 3 3 5
      vertex 3.24113 3.80722 5
    endloop
  endfacet
  facet normal 0 0 1
    outer loop
      vertex 2.72766 4.19043 5
      vertex 3 3 5
      vertex 2.99054 4.00706 5
    endloop
  endfacet
  facet normal 0 0 1
    outer loop
      vertex 2.45358 4.35658 5
      vertex 3 3 5
      vertex 2.72766 4.19043 5
    endloop
  endfacet
  facet normal 0 0 1
    outer loop
      vertex 1 3 5
      vertex 2.45358 4.35658 5
      vertex 2.16942 4.50484 5
    endloop
  endfacet
  facet normal 0 0 1
    outer loop
      vertex 1 3 5
      vertex 2.16942 4.50484 5
      vertex 1.87633 4.63458 5
    endloop
  endfacet
  facet normal 0 0 1
    outer loop
      vertex 1 3 5
      vertex 1.87633 4.63458 5
      vertex 1.57553 4.74527 5
    endloop
  endfacet
  facet normal 0 0 1
    outer loop
      vertex 1 3 5
      vertex 1.57553 4.74527 5
      vertex 1.26826 4.83647 5
    endloop
  endfacet
  facet normal 0 0 1
    outer loop
      vertex 2.45358 4.35658 5
      vertex 1 3 5
      vertex 3 3 5
    endloop
  endfacet
  facet normal 0 0 1
    outer loop
      vertex 0.95578 4.90779 5
      vertex 1 3 5
      vertex 1.26826 4.83647 5
    endloop
  endfacet
  facet normal 0 0 1
    outer loop
      vertex 0.639374 4.95894 5
      vertex 1 3 5
      vertex 0.95578 4.90779 5
    endloop
  endfacet
  facet normal 0 0 1
    outer loop
      vertex 0.320343 4.98972 5
      vertex 1 3 5
      vertex 0.639374 4.95894 5
    endloop
  endfacet
  facet normal 0 0 1
    outer loop
      vertex 0 5 5
      vertex 1 3 5
      vertex 0.320343 4.98972 5
    endloop
  endfacet
  facet normal 0 0 1
    outer loop
      vertex 1 3 5
      vertex 0 5 5
      vertex -1 3 5
    endloop
  endfacet
  facet normal 0 0 1
    outer loop
      vertex 1 3 5
      vertex -1 3 5
      vertex 1 -2.5 5
    endloop
  endfacet
  facet normal 0 0 1
    outer loop
      vertex 1 -2.5 5
      vertex -1 3 5
      vertex -1 -2.5 5
    endloop
  endfacet
  facet normal 0 0 1
    outer loop
      vertex 3.24113 -3.80724 5
      vertex 3 3 5
      vertex 3 -3.99954 5
    endloop
  endfacet
  facet normal 0 0 -1
    outer loop
      vertex -1 3 -5
      vertex 1 3 -5
      vertex 1 -2.5 -5
    endloop
  endfacet
  facet normal 0 -0 -1
    outer loop
      vertex 0 5 -5
      vertex 1 3 -5
      vertex -1 3 -5
    endloop
  endfacet
  facet normal 0 0 -1
    outer loop
      vertex 1 3 -5
      vertex 0.639374 4.95894 -5
      vertex 0.95578 4.90779 -5
    endloop
  endfacet
  facet normal 0 0 -1
    outer loop
      vertex 1 3 -5
      vertex 0.320343 4.98972 -5
      vertex 0.639374 4.95894 -5
    endloop
  endfacet
  facet normal 0 0 -1
    outer loop
      vertex -1 3 -5
      vertex 1 -2.5 -5
      vertex -1 -2.5 -5
    endloop
  endfacet
  facet normal 0 0 -1
    outer loop
      vertex 1 3 -5
      vertex 0 5 -5
      vertex 0.320343 4.98972 -5
    endloop
  endfacet
  facet normal 0 0 -1
    outer loop
      vertex -5 5 -5
      vertex -1 3 -5
      vertex -5 3 -5
    endloop
  endfacet
  facet normal 0 0 -1
    outer loop
      vertex -1 3 -5
      vertex -5 5 -5
      vertex 0 5 -5
    endloop
  endfacet
  facet normal 0 0 -1
    outer loop
      vertex 3 3 -5
      vertex 4.99742 -0.160263 -5
      vertex 4.97688 -0.480118 -5
    endloop
  endfacet
  facet normal 0 0 -1
    outer loop
      vertex 4.99742 -0.160263 -5
      vertex 3 3 -5
      vertex 4.99742 0.160248 -5
    endloop
  endfacet
  facet normal 0 0 -1
    outer loop
      vertex 3 3 -5
      vertex 4.97688 -0.480118 -5
      vertex 4.9359 -0.798004 -5
    endloop
  endfacet
  facet normal 0 0 -1
    outer loop
      vertex 4.99742 0.160248 -5
      vertex 3 3 -5
      vertex 4.97688 0.480103 -5
    endloop
  endfacet
  facet normal 0 0 -1
    outer loop
      vertex 3 3 -5
      vertex 4.9359 -0.798004 -5
      vertex 4.87463 -1.11261 -5
    endloop
  endfacet
  facet normal 0 0 -1
    outer loop
      vertex 4.97688 0.480103 -5
      vertex 3 3 -5
      vertex 4.9359 0.797989 -5
    endloop
  endfacet
  facet normal 0 0 -1
    outer loop
      vertex 3 3 -5
      vertex 4.87463 -1.11261 -5
      vertex 4.79333 -1.42264 -5
    endloop
  endfacet
  facet normal 0 0 -1
    outer loop
      vertex 4.9359 0.797989 -5
      vertex 3 3 -5
      vertex 4.87463 1.11259 -5
    endloop
  endfacet
  facet normal 0 0 -1
    outer loop
      vertex 3 3 -5
      vertex 4.79333 -1.42264 -5
      vertex 4.69234 -1.72684 -5
    endloop
  endfacet
  facet normal 0 0 -1
    outer loop
      vertex 4.87463 1.11259 -5
      vertex 3 3 -5
      vertex 4.79333 1.42262 -5
    endloop
  endfacet
  facet normal 0 0 -1
    outer loop
      vertex 3 3 -5
      vertex 4.69234 -1.72684 -5
      vertex 4.57205 -2.02393 -5
    endloop
  endfacet
  facet normal 0 0 -1
    outer loop
      vertex 4.79333 1.42262 -5
      vertex 3 3 -5
      vertex 4.69234 1.72682 -5
    endloop
  endfacet
  facet normal 0 0 -1
    outer loop
      vertex 3 3 -5
      vertex 4.57205 -2.02393 -5
      vertex 4.43298 -2.3127 -5
    endloop
  endfacet
  facet normal 0 0 -1
    outer loop
      vertex 4.69234 1.72682 -5
      vertex 3 3 -5
      vertex 4.57205 2.02391 -5
    endloop
  endfacet
  facet normal 0 0 -1
    outer loop
      vertex 3 3 -5
      vertex 4.43298 -2.3127 -5
      vertex 4.27571 -2.59196 -5
    endloop
  endfacet
  facet normal 0 0 -1
    outer loop
      vertex 4.57205 2.02391 -5
      vertex 3 3 -5
      vertex 4.43298 2.31268 -5
    endloop
  endfacet
  facet normal 0 0 -1
    outer loop
      vertex 3 3 -5
      vertex 4.27571 -2.59196 -5
      vertex 4.10086 -2.8606 -5
    endloop
  endfacet
  facet normal 0 0 -1
    outer loop
      vertex 4.43298 2.31268 -5
      vertex 3 3 -5
      vertex 4.27571 2.59195 -5
    endloop
  endfacet
  facet normal 0 0 -1
    outer loop
      vertex 3 3 -5
      vertex 4.10086 -2.8606 -5
      vertex 3.90915 -3.11746 -5
    endloop
  endfacet
  facet normal 0 0 -1
    outer loop
      vertex 4.27571 2.59195 -5
      vertex 3 3 -5
      vertex 4.10086 2.86058 -5
    endloop
  endfacet
  facet normal 0 0 -1
    outer loop
      vertex 3 3 -5
      vertex 3.90915 -3.11746 -5
      vertex 3.70139 -3.36151 -5
    endloop
  endfacet
  facet normal 0 0 -1
    outer loop
      vertex 4.10086 2.86058 -5
      vertex 3 3 -5
      vertex 3.90915 3.11745 -5
    endloop
  endfacet
  facet normal 0 0 -1
    outer loop
      vertex 3 3 -5
      vertex 3.70139 -3.36151 -5
      vertex 3.47841 -3.59175 -5
    endloop
  endfacet
  facet normal -0 0 -1
    outer loop
      vertex 3.90915 3.11745 -5
      vertex 3 3 -5
      vertex 3.70139 3.3615 -5
    endloop
  endfacet
  facet normal 0 0 -1
    outer loop
      vertex 3 3 -5
      vertex 3.47841 -3.59175 -5
      vertex 3.24113 -3.80724 -5
    endloop
  endfacet
  facet normal -0 0 -1
    outer loop
      vertex 3.70139 3.3615 -5
      vertex 3 3 -5
      vertex 3.47841 3.59174 -5
    endloop
  endfacet
  facet normal 0 0 -1
    outer loop
      vertex 3 3 -5
      vertex 3.24113 -3.80724 -5
      vertex 3 -3.99954 -5
    endloop
  endfacet
  facet normal -0 0 -1
    outer loop
      vertex 3.47841 3.59174 -5
      vertex 3 3 -5
      vertex 3.24113 3.80722 -5
    endloop
  endfacet
  facet normal 0 0 -1
    outer loop
      vertex 3 3 -5
      vertex 2.99054 4.00706 -5
      vertex 3.24113 3.80722 -5
    endloop
  endfacet
  facet normal 0 0 -1
    outer loop
      vertex 3 3 -5
      vertex 2.72766 4.19043 -5
      vertex 2.99054 4.00706 -5
    endloop
  endfacet
  facet normal 0 0 -1
    outer loop
      vertex 3 3 -5
      vertex 2.45358 4.35658 -5
      vertex 2.72766 4.19043 -5
    endloop
  endfacet
  facet normal 0 0 -1
    outer loop
      vertex 1 3 -5
      vertex 2.45358 4.35658 -5
      vertex 3 3 -5
    endloop
  endfacet
  facet normal -0 0 -1
    outer loop
      vertex 2.45358 4.35658 -5
      vertex 1 3 -5
      vertex 2.16942 4.50484 -5
    endloop
  endfacet
  facet normal -0 0 -1
    outer loop
      vertex 2.16942 4.50484 -5
      vertex 1 3 -5
      vertex 1.87633 4.63458 -5
    endloop
  endfacet
  facet normal -0 0 -1
    outer loop
      vertex 1.87633 4.63458 -5
      vertex 1 3 -5
      vertex 1.57553 4.74527 -5
    endloop
  endfacet
  facet normal -0 0 -1
    outer loop
      vertex 1.57553 4.74527 -5
      vertex 1 3 -5
      vertex 1.26826 4.83647 -5
    endloop
  endfacet
  facet normal -0 0 -1
    outer loop
      vertex 1.26826 4.83647 -5
      vertex 1 3 -5
      vertex 0.95578 4.90779 -5
    endloop
  endfacet
  facet normal 0 1 -0
    outer loop
      vertex 0 5 -5
      vertex -5 5 5
      vertex 0 5 5
    endloop
  endfacet
  facet normal 0 1 0
    outer loop
      vertex -5 5 5
      vertex 0 5 -5
      vertex -5 5 -5
    endloop
  endfacet
  facet normal 0.284539 0.958665 -0
    outer loop
      vertex 1.57553 4.74527 -5
      vertex 1.26826 4.83647 5
      vertex 1.57553 4.74527 5
    endloop
  endfacet
  facet normal 0.284539 0.958665 0
    outer loop
      vertex 1.26826 4.83647 5
      vertex 1.57553 4.74527 -5
      vertex 1.26826 4.83647 -5
    endloop
  endfacet
  facet normal 0.0320741 0.999485 -0
    outer loop
      vertex 0.320343 4.98972 -5
      vertex 0 5 5
      vertex 0.320343 4.98972 5
    endloop
  endfacet
  facet normal 0.0320741 0.999485 0
    outer loop
      vertex 0 5 5
      vertex 0.320343 4.98972 -5
      vertex 0 5 -5
    endloop
  endfacet
  facet normal 0.623492 0.78183 -0
    outer loop
      vertex 3.24113 3.80722 -5
      vertex 2.99054 4.00706 5
      vertex 3.24113 3.80722 5
    endloop
  endfacet
  facet normal 0.623492 0.78183 0
    outer loop
      vertex 2.99054 4.00706 5
      vertex 3.24113 3.80722 -5
      vertex 2.99054 4.00706 -5
    endloop
  endfacet
  facet normal 0.159588 0.987184 -0
    outer loop
      vertex 0.95578 4.90779 -5
      vertex 0.639374 4.95894 5
      vertex 0.95578 4.90779 5
    endloop
  endfacet
  facet normal 0.159588 0.987184 0
    outer loop
      vertex 0.639374 4.95894 5
      vertex 0.95578 4.90779 -5
      vertex 0.639374 4.95894 -5
    endloop
  endfacet
  facet normal 0.222516 0.974929 -0
    outer loop
      vertex 1.26826 4.83647 -5
      vertex 0.95578 4.90779 5
      vertex 1.26826 4.83647 5
    endloop
  endfacet
  facet normal 0.222516 0.974929 0
    outer loop
      vertex 0.95578 4.90779 5
      vertex 1.26826 4.83647 -5
      vertex 0.95578 4.90779 -5
    endloop
  endfacet
  facet normal 0.0960337 0.995378 -0
    outer loop
      vertex 0.639374 4.95894 -5
      vertex 0.320343 4.98972 5
      vertex 0.639374 4.95894 5
    endloop
  endfacet
  facet normal 0.0960337 0.995378 0
    outer loop
      vertex 0.320343 4.98972 5
      vertex 0.639374 4.95894 -5
      vertex 0.320343 4.98972 -5
    endloop
  endfacet
  facet normal 0.404777 0.914415 -0
    outer loop
      vertex 2.16942 4.50484 -5
      vertex 1.87633 4.63458 5
      vertex 2.16942 4.50484 5
    endloop
  endfacet
  facet normal 0.404777 0.914415 0
    outer loop
      vertex 1.87633 4.63458 5
      vertex 2.16942 4.50484 -5
      vertex 1.87633 4.63458 -5
    endloop
  endfacet
  facet normal 0.462572 0.886582 -0
    outer loop
      vertex 2.45358 4.35658 -5
      vertex 2.16942 4.50484 5
      vertex 2.45358 4.35658 5
    endloop
  endfacet
  facet normal 0.462572 0.886582 0
    outer loop
      vertex 2.16942 4.50484 5
      vertex 2.45358 4.35658 -5
      vertex 2.16942 4.50484 -5
    endloop
  endfacet
  facet normal 0.718342 0.695691 0
    outer loop
      vertex 3.70139 3.3615 5
      vertex 3.47841 3.59174 -5
      vertex 3.47841 3.59174 5
    endloop
  endfacet
  facet normal 0.718342 0.695691 0
    outer loop
      vertex 3.47841 3.59174 -5
      vertex 3.70139 3.3615 5
      vertex 3.70139 3.3615 -5
    endloop
  endfacet
  facet normal 0.76145 0.648223 0
    outer loop
      vertex 3.90915 3.11745 5
      vertex 3.70139 3.3615 -5
      vertex 3.70139 3.3615 5
    endloop
  endfacet
  facet normal 0.76145 0.648223 0
    outer loop
      vertex 3.70139 3.3615 -5
      vertex 3.90915 3.11745 5
      vertex 3.90915 3.11745 -5
    endloop
  endfacet
  facet normal 0.838101 0.545516 0
    outer loop
      vertex 4.27571 2.59195 5
      vertex 4.10086 2.86058 -5
      vertex 4.10086 2.86058 5
    endloop
  endfacet
  facet normal 0.838101 0.545516 0
    outer loop
      vertex 4.10086 2.86058 -5
      vertex 4.27571 2.59195 5
      vertex 4.27571 2.59195 -5
    endloop
  endfacet
  facet normal 0.967294 0.253656 0
    outer loop
      vertex 4.87463 1.11259 5
      vertex 4.79333 1.42262 -5
      vertex 4.79333 1.42262 5
    endloop
  endfacet
  facet normal 0.967294 0.253656 0
    outer loop
      vertex 4.79333 1.42262 -5
      vertex 4.87463 1.11259 5
      vertex 4.87463 1.11259 -5
    endloop
  endfacet
  facet normal 0.991793 0.127856 0
    outer loop
      vertex 4.97688 0.480103 5
      vertex 4.9359 0.797989 -5
      vertex 4.9359 0.797989 5
    endloop
  endfacet
  facet normal 0.991793 0.127856 0
    outer loop
      vertex 4.9359 0.797989 -5
      vertex 4.97688 0.480103 5
      vertex 4.97688 0.480103 -5
    endloop
  endfacet
  facet normal 0.871327 -0.490703 0
    outer loop
      vertex 4.27571 -2.59196 5
      vertex 4.43298 -2.3127 -5
      vertex 4.43298 -2.3127 5
    endloop
  endfacet
  facet normal 0.871327 -0.490703 0
    outer loop
      vertex 4.43298 -2.3127 -5
      vertex 4.27571 -2.59196 5
      vertex 4.27571 -2.59196 -5
    endloop
  endfacet
  facet normal 0.345345 0.938476 -0
    outer loop
      vertex 1.87633 4.63458 -5
      vertex 1.57553 4.74527 5
      vertex 1.87633 4.63458 5
    endloop
  endfacet
  facet normal 0.345345 0.938476 0
    outer loop
      vertex 1.57553 4.74527 5
      vertex 1.87633 4.63458 -5
      vertex 1.57553 4.74527 -5
    endloop
  endfacet
  facet normal 0.518395 0.855141 -0
    outer loop
      vertex 2.72766 4.19043 -5
      vertex 2.45358 4.35658 5
      vertex 2.72766 4.19043 5
    endloop
  endfacet
  facet normal 0.518395 0.855141 0
    outer loop
      vertex 2.45358 4.35658 5
      vertex 2.72766 4.19043 -5
      vertex 2.45358 4.35658 -5
    endloop
  endfacet
  facet normal 0.572109 0.820178 -0
    outer loop
      vertex 2.99054 4.00706 -5
      vertex 2.72766 4.19043 5
      vertex 2.99054 4.00706 5
    endloop
  endfacet
  facet normal 0.572109 0.820178 0
    outer loop
      vertex 2.72766 4.19043 5
      vertex 2.99054 4.00706 -5
      vertex 2.72766 4.19043 -5
    endloop
  endfacet
  facet normal 0.672281 0.740296 -0
    outer loop
      vertex 3.47841 3.59174 -5
      vertex 3.24113 3.80722 5
      vertex 3.47841 3.59174 5
    endloop
  endfacet
  facet normal 0.672281 0.740296 0
    outer loop
      vertex 3.24113 3.80722 5
      vertex 3.47841 3.59174 -5
      vertex 3.24113 3.80722 -5
    endloop
  endfacet
  facet normal 0.801409 0.598116 0
    outer loop
      vertex 4.10086 2.86058 5
      vertex 3.90915 3.11745 -5
      vertex 3.90915 3.11745 5
    endloop
  endfacet
  facet normal 0.801409 0.598116 0
    outer loop
      vertex 3.90915 3.11745 -5
      vertex 4.10086 2.86058 5
      vertex 4.10086 2.86058 -5
    endloop
  endfacet
  facet normal 0.981559 -0.19116 0
    outer loop
      vertex 4.87463 -1.11261 5
      vertex 4.9359 -0.798004 -5
      vertex 4.9359 -0.798004 5
    endloop
  endfacet
  facet normal 0.981559 -0.19116 0
    outer loop
      vertex 4.9359 -0.798004 -5
      vertex 4.87463 -1.11261 5
      vertex 4.87463 -1.11261 -5
    endloop
  endfacet
  facet normal 1 -0 0
    outer loop
      vertex 4.99742 -0.160263 5
      vertex 4.99742 0.160248 -5
      vertex 4.99742 0.160248 5
    endloop
  endfacet
  facet normal 1 0 0
    outer loop
      vertex 4.99742 0.160248 -5
      vertex 4.99742 -0.160263 5
      vertex 4.99742 -0.160263 -5
    endloop
  endfacet
  facet normal 0.981558 0.191163 0
    outer loop
      vertex 4.9359 0.797989 5
      vertex 4.87463 1.11259 -5
      vertex 4.87463 1.11259 5
    endloop
  endfacet
  facet normal 0.981558 0.191163 0
    outer loop
      vertex 4.87463 1.11259 -5
      vertex 4.9359 0.797989 5
      vertex 4.9359 0.797989 -5
    endloop
  endfacet
  facet normal 0.997944 0.0640846 0
    outer loop
      vertex 4.99742 0.160248 5
      vertex 4.97688 0.480103 -5
      vertex 4.97688 0.480103 5
    endloop
  endfacet
  facet normal 0.997944 0.0640846 0
    outer loop
      vertex 4.97688 0.480103 -5
      vertex 4.99742 0.160248 5
      vertex 4.99742 0.160248 -5
    endloop
  endfacet
  facet normal 0.926904 0.375298 0
    outer loop
      vertex 4.69234 1.72682 5
      vertex 4.57205 2.02391 -5
      vertex 4.57205 2.02391 5
    endloop
  endfacet
  facet normal 0.926904 0.375298 0
    outer loop
      vertex 4.57205 2.02391 -5
      vertex 4.69234 1.72682 5
      vertex 4.69234 1.72682 -5
    endloop
  endfacet
  facet normal 0.900962 0.433898 0
    outer loop
      vertex 4.57205 2.02391 5
      vertex 4.43298 2.31268 -5
      vertex 4.43298 2.31268 5
    endloop
  endfacet
  facet normal 0.900962 0.433898 0
    outer loop
      vertex 4.43298 2.31268 -5
      vertex 4.57205 2.02391 5
      vertex 4.57205 2.02391 -5
    endloop
  endfacet
  facet normal 0.949066 0.315076 0
    outer loop
      vertex 4.79333 1.42262 5
      vertex 4.69234 1.72682 -5
      vertex 4.69234 1.72682 5
    endloop
  endfacet
  facet normal 0.949066 0.315076 0
    outer loop
      vertex 4.69234 1.72682 -5
      vertex 4.79333 1.42262 5
      vertex 4.79333 1.42262 -5
    endloop
  endfacet
  facet normal 0.871335 0.490689 0
    outer loop
      vertex 4.43298 2.31268 5
      vertex 4.27571 2.59195 -5
      vertex 4.27571 2.59195 5
    endloop
  endfacet
  facet normal 0.871335 0.490689 0
    outer loop
      vertex 4.27571 2.59195 -5
      vertex 4.43298 2.31268 5
      vertex 4.43298 2.31268 -5
    endloop
  endfacet
  facet normal 0.76145 -0.648223 0
    outer loop
      vertex 3.70139 -3.36151 5
      vertex 3.90915 -3.11746 -5
      vertex 3.90915 -3.11746 5
    endloop
  endfacet
  facet normal 0.76145 -0.648223 0
    outer loop
      vertex 3.90915 -3.11746 -5
      vertex 3.70139 -3.36151 5
      vertex 3.70139 -3.36151 -5
    endloop
  endfacet
  facet normal 0.900962 -0.433898 0
    outer loop
      vertex 4.43298 -2.3127 5
      vertex 4.57205 -2.02393 -5
      vertex 4.57205 -2.02393 5
    endloop
  endfacet
  facet normal 0.900962 -0.433898 0
    outer loop
      vertex 4.57205 -2.02393 -5
      vertex 4.43298 -2.3127 5
      vertex 4.43298 -2.3127 -5
    endloop
  endfacet
  facet normal 0.967294 -0.253656 0
    outer loop
      vertex 4.79333 -1.42264 5
      vertex 4.87463 -1.11261 -5
      vertex 4.87463 -1.11261 5
    endloop
  endfacet
  facet normal 0.967294 -0.253656 0
    outer loop
      vertex 4.87463 -1.11261 -5
      vertex 4.79333 -1.42264 5
      vertex 4.79333 -1.42264 -5
    endloop
  endfacet
  facet normal 0.949066 -0.315076 0
    outer loop
      vertex 4.69234 -1.72684 5
      vertex 4.79333 -1.42264 -5
      vertex 4.79333 -1.42264 5
    endloop
  endfacet
  facet normal 0.949066 -0.315076 0
    outer loop
      vertex 4.79333 -1.42264 -5
      vertex 4.69234 -1.72684 5
      vertex 4.69234 -1.72684 -5
    endloop
  endfacet
  facet normal 0.926904 -0.375298 0
    outer loop
      vertex 4.57205 -2.02393 5
      vertex 4.69234 -1.72684 -5
      vertex 4.69234 -1.72684 5
    endloop
  endfacet
  facet normal 0.926904 -0.375298 0
    outer loop
      vertex 4.69234 -1.72684 -5
      vertex 4.57205 -2.02393 5
      vertex 4.57205 -2.02393 -5
    endloop
  endfacet
  facet normal 0.997944 -0.0640846 0
    outer loop
      vertex 4.97688 -0.480118 5
      vertex 4.99742 -0.160263 -5
      vertex 4.99742 -0.160263 5
    endloop
  endfacet
  facet normal 0.997944 -0.0640846 0
    outer loop
      vertex 4.99742 -0.160263 -5
      vertex 4.97688 -0.480118 5
      vertex 4.97688 -0.480118 -5
    endloop
  endfacet
  facet normal 0.718342 -0.695691 0
    outer loop
      vertex 3.47841 -3.59175 5
      vertex 3.70139 -3.36151 -5
      vertex 3.70139 -3.36151 5
    endloop
  endfacet
  facet normal 0.718342 -0.695691 0
    outer loop
      vertex 3.70139 -3.36151 -5
      vertex 3.47841 -3.59175 5
      vertex 3.47841 -3.59175 -5
    endloop
  endfacet
  facet normal 0.672298 -0.74028 0
    outer loop
      vertex 3.24113 -3.80724 -5
      vertex 3.47841 -3.59175 5
      vertex 3.24113 -3.80724 5
    endloop
  endfacet
  facet normal 0.672298 -0.74028 0
    outer loop
      vertex 3.47841 -3.59175 5
      vertex 3.24113 -3.80724 -5
      vertex 3.47841 -3.59175 -5
    endloop
  endfacet
  facet normal 0.6235 -0.781823 0
    outer loop
      vertex 3 -3.99954 -5
      vertex 3.24113 -3.80724 5
      vertex 3 -3.99954 5
    endloop
  endfacet
  facet normal 0.6235 -0.781823 0
    outer loop
      vertex 3.24113 -3.80724 5
      vertex 3 -3.99954 -5
      vertex 3.24113 -3.80724 -5
    endloop
  endfacet
  facet normal 0.83811 -0.545501 0
    outer loop
      vertex 4.10086 -2.8606 5
      vertex 4.27571 -2.59196 -5
      vertex 4.27571 -2.59196 5
    endloop
  endfacet
  facet normal 0.83811 -0.545501 0
    outer loop
      vertex 4.27571 -2.59196 -5
      vertex 4.10086 -2.8606 5
      vertex 4.10086 -2.8606 -5
    endloop
  endfacet
  facet normal 0.801398 -0.598131 0
    outer loop
      vertex 3.90915 -3.11746 5
      vertex 4.10086 -2.8606 -5
      vertex 4.10086 -2.8606 5
    endloop
  endfacet
  facet normal 0.801398 -0.598131 0
    outer loop
      vertex 4.10086 -2.8606 -5
      vertex 3.90915 -3.11746 5
      vertex 3.90915 -3.11746 -5
    endloop
  endfacet
  facet normal 0.991793 -0.127856 0
    outer loop
      vertex 4.9359 -0.798004 5
      vertex 4.97688 -0.480118 -5
      vertex 4.97688 -0.480118 5
    endloop
  endfacet
  facet normal 0.991793 -0.127856 0
    outer loop
      vertex 4.97688 -0.480118 -5
      vertex 4.9359 -0.798004 5
      vertex 4.9359 -0.798004 -5
    endloop
  endfacet
  facet normal -1 0 0
    outer loop
      vertex -1 -2.5 -5
      vertex -1 3 5
      vertex -1 3 -5
    endloop
  endfacet
  facet normal -1 -0 0
    outer loop
      vertex -1 3 5
      vertex -1 -2.5 -5
      vertex -1 -2.5 5
    endloop
  endfacet
  facet normal 0 -1 0
    outer loop
      vertex -1 -2.5 -5
      vertex 1 -2.5 5
      vertex -1 -2.5 5
    endloop
  endfacet
  facet normal 0 -1 -0
    outer loop
      vertex 1 -2.5 5
      vertex -1 -2.5 -5
      vertex 1 -2.5 -5
    endloop
  endfacet
  facet normal 1 -0 0
    outer loop
      vertex 1 -2.5 5
      vertex 1 3 -5
      vertex 1 3 5
    endloop
  endfacet
  facet normal 1 0 0
    outer loop
      vertex 1 3 -5
      vertex 1 -2.5 5
      vertex 1 -2.5 -5
    endloop
  endfacet
  facet normal 0 -1 0
    outer loop
      vertex 1 3 -5
      vertex 3 3 5
      vertex 1 3 5
    endloop
  endfacet
  facet normal 0 -1 -0
    outer loop
      vertex 3 3 5
      vertex 1 3 -5
      vertex 3 3 -5
    endloop
  endfacet
  facet normal -1 0 0
    outer loop
      vertex 3 -3.99954 -5
      vertex 3 3 5
      vertex 3 3 -5
    endloop
  endfacet
  facet normal -1 -0 0
    outer loop
      vertex 3 3 5
      vertex 3 -3.99954 -5
      vertex 3 -3.99954 5
    endloop
  endfacet
  facet normal 0 -1 0
    outer loop
      vertex -5 3 -5
      vertex -1 3 5
      vertex -5 3 5
    endloop
  endfacet
  facet normal 0 -1 -0
    outer loop
      vertex -1 3 5
      vertex -5 3 -5
      vertex -1 3 -5
    endloop
  endfacet
endsolid OpenSCAD_Model
