solid OpenSCAD_Model
  facet normal 0 0 -1
    outer loop
      vertex -3 2.33334 -5
      vertex -5 3.33334 -5
      vertex -3 3 -5
    endloop
  endfacet
  facet normal 0 0 -1
    outer loop
      vertex -5 5 -5
      vertex -3 3 -5
      vertex -5 3.33334 -5
    endloop
  endfacet
  facet normal 0 0 -1
    outer loop
      vertex -3 3 -5
      vertex -5 5 -5
      vertex -1 3 -5
    endloop
  endfacet
  facet normal 0 0 -1
    outer loop
      vertex -5 -5 -5
      vertex -3 -3 -5
      vertex -1 -3 -5
    endloop
  endfacet
  facet normal 0 0 -1
    outer loop
      vertex -5 -3.33333 -5
      vertex -3 -3 -5
      vertex -5 -5 -5
    endloop
  endfacet
  facet normal -0 0 -1
    outer loop
      vertex -3 -3 -5
      vertex -5 -3.33333 -5
      vertex -3 -2.33332 -5
    endloop
  endfacet
  facet normal 0 0 -1
    outer loop
      vertex -1.66667 -1 -5
      vertex 2.5 1 -5
      vertex 2.5 -1 -5
    endloop
  endfacet
  facet normal -0 0 -1
    outer loop
      vertex 2.5 1 -5
      vertex -1.66667 -1 -5
      vertex -1.66667 1 -5
    endloop
  endfacet
  facet normal 0 0 1
    outer loop
      vertex -3 -2.33332 5
      vertex -5 -3.33333 5
      vertex -3 -3 5
    endloop
  endfacet
  facet normal 0 0 1
    outer loop
      vertex -5 -5 5
      vertex -3 -3 5
      vertex -5 -3.33333 5
    endloop
  endfacet
  facet normal -0 0 1
    outer loop
      vertex -3 -3 5
      vertex -5 -5 5
      vertex -1 -3 5
    endloop
  endfacet
  facet normal 0 0 1
    outer loop
      vertex -5 5 5
      vertex -3 3 5
      vertex -1 3 5
    endloop
  endfacet
  facet normal -0 0 1
    outer loop
      vertex -5 3.33334 5
      vertex -3 3 5
      vertex -5 5 5
    endloop
  endfacet
  facet normal 0 0 1
    outer loop
      vertex -3 3 5
      vertex -5 3.33334 5
      vertex -3 2.33334 5
    endloop
  endfacet
  facet normal -0 0 1
    outer loop
      vertex -1.66667 1 5
      vertex 2.5 -1 5
      vertex 2.5 1 5
    endloop
  endfacet
  facet normal 0 0 1
    outer loop
      vertex 2.5 -1 5
      vertex -1.66667 1 5
      vertex -1.66667 -1 5
    endloop
  endfacet
  facet normal 0 1 -0
    outer loop
      vertex -1 -3 -5
      vertex -3 -3 5
      vertex -1 -3 5
    endloop
  endfacet
  facet normal 0 1 0
    outer loop
      vertex -3 -3 5
      vertex -1 -3 -5
      vertex -3 -3 -5
    endloop
  endfacet
  facet normal 1 -0 0
    outer loop
      vertex -3 -3 5
      vertex -3 -2.33332 -5
      vertex -3 -2.33332 5
    endloop
  endfacet
  facet normal 1 0 0
    outer loop
      vertex -3 -2.33332 -5
      vertex -3 -3 5
      vertex -3 -3 -5
    endloop
  endfacet
  facet normal 0 -1 0
    outer loop
      vertex -1.66667 -1 -5
      vertex 2.5 -1 5
      vertex -1.66667 -1 5
    endloop
  endfacet
  facet normal 0 -1 -0
    outer loop
      vertex 2.5 -1 5
      vertex -1.66667 -1 -5
      vertex 2.5 -1 -5
    endloop
  endfacet
  facet normal 1 -0 0
    outer loop
      vertex 2.5 -1 5
      vertex 2.5 1 -5
      vertex 2.5 1 5
    endloop
  endfacet
  facet normal 1 0 0
    outer loop
      vertex 2.5 1 -5
      vertex 2.5 -1 5
      vertex 2.5 -1 -5
    endloop
  endfacet
  facet normal 0 1 -0
    outer loop
      vertex 2.5 1 -5
      vertex -1.66667 1 5
      vertex 2.5 1 5
    endloop
  endfacet
  facet normal 0 1 0
    outer loop
      vertex -1.66667 1 5
      vertex 2.5 1 -5
      vertex -1.66667 1 -5
    endloop
  endfacet
  facet normal 1 -0 0
    outer loop
      vertex -3 2.33334 5
      vertex -3 3 -5
      vertex -3 3 5
    endloop
  endfacet
  facet normal 1 0 0
    outer loop
      vertex -3 3 -5
      vertex -3 2.33334 5
      vertex -3 2.33334 -5
    endloop
  endfacet
  facet normal 0 -1 0
    outer loop
      vertex -3 3 -5
      vertex -1 3 5
      vertex -3 3 5
    endloop
  endfacet
  facet normal 0 -1 -0
    outer loop
      vertex -1 3 5
      vertex -3 3 -5
      vertex -1 3 -5
    endloop
  endfacet
  facet normal -1 0 0
    outer loop
      vertex -5 3.33334 -5
      vertex -5 5 5
      vertex -5 5 -5
    endloop
  endfacet
  facet normal -1 -0 0
    outer loop
      vertex -5 5 5
      vertex -5 3.33334 -5
      vertex -5 3.33334 5
    endloop
  endfacet
  facet normal -1 0 0
    outer loop
      vertex -5 -5 -5
      vertex -5 -3.33333 5
      vertex -5 -3.33333 -5
    endloop
  endfacet
  facet normal -1 -0 0
    outer loop
      vertex -5 -3.33333 5
      vertex -5 -5 -5
      vertex -5 -5 5
    endloop
  endfacet
  facet normal -1 0 0
    outer loop
      vertex -1.66667 -1 -5
      vertex -1.66667 1 5
      vertex -1.66667 1 -5
    endloop
  endfacet
  facet normal -1 -0 0
    outer loop
      vertex -1.66667 1 5
      vertex -1.66667 -1 -5
      vertex -1.66667 -1 5
    endloop
  endfacet
  facet normal -0.447217 0.894425 0
    outer loop
      vertex -3 -2.33332 -5
      vertex -5 -3.33333 5
      vertex -3 -2.33332 5
    endloop
  endfacet
  facet normal -0.447217 0.894425 0
    outer loop
      vertex -5 -3.33333 5
      vertex -3 -2.33332 -5
      vertex -5 -3.33333 -5
    endloop
  endfacet
  facet normal 0.447214 -0.894427 0
    outer loop
      vertex -5 -5 -5
      vertex -1 -3 5
      vertex -5 -5 5
    endloop
  endfacet
  facet normal 0.447214 -0.894427 0
    outer loop
      vertex -1 -3 5
      vertex -5 -5 -5
      vertex -1 -3 -5
    endloop
  endfacet
  facet normal 0.447214 0.894427 -0
    outer loop
      vertex -1 3 -5
      vertex -5 5 5
      vertex -1 3 5
    endloop
  endfacet
  facet normal 0.447214 0.894427 0
    outer loop
      vertex -5 5 5
      vertex -1 3 -5
      vertex -5 5 -5
    endloop
  endfacet
  facet normal -0.447214 -0.894427 0
    outer loop
      vertex -5 3.33334 -5
      vertex -3 2.33334 5
      vertex -5 3.33334 5
    endloop
  endfacet
  facet normal -0.447214 -0.894427 -0
    outer loop
      vertex -3 2.33334 5
      vertex -5 3.33334 -5
      vertex -3 2.33334 -5
    endloop
  endfacet
endsolid OpenSCAD_Model
