solid OpenSCAD_Model
  facet normal 0 0 -1
    outer loop
      vertex -3 -3 -5
      vertex -0.0817719 -3.13412 -5
      vertex -0.127365 -3.28777 -5
    endloop
  endfacet
  facet normal 0 0 -1
    outer loop
      vertex -3 -3 -5
      vertex -0.127365 -3.28777 -5
      vertex -0.182709 -3.43816 -5
    endloop
  endfacet
  facet normal 0 0 -1
    outer loop
      vertex -3 -3 -5
      vertex -0.182709 -3.43816 -5
      vertex -0.247589 -3.5847 -5
    endloop
  endfacet
  facet normal 0 0 -1
    outer loop
      vertex -3 -3 -5
      vertex -0.247589 -3.5847 -5
      vertex -0.321716 -3.72679 -5
    endloop
  endfacet
  facet normal 0 0 -1
    outer loop
      vertex -3 -3 -5
      vertex -0.321716 -3.72679 -5
      vertex -0.404785 -3.86383 -5
    endloop
  endfacet
  facet normal 0 0 -1
    outer loop
      vertex -3 -3 -5
      vertex -0.404785 -3.86383 -5
      vertex -0.496475 -3.99527 -5
    endloop
  endfacet
  facet normal 0 0 -1
    outer loop
      vertex -3 -3 -5
      vertex -0.496475 -3.99527 -5
      vertex -0.59639 -4.12056 -5
    endloop
  endfacet
  facet normal 0 0 -1
    outer loop
      vertex -3 -3 -5
      vertex -0.59639 -4.12056 -5
      vertex -0.704132 -4.2392 -5
    endloop
  endfacet
  facet normal 0 0 -1
    outer loop
      vertex -3 -3 -5
      vertex -0.704132 -4.2392 -5
      vertex -0.81926 -4.35069 -5
    endloop
  endfacet
  facet normal 0 0 -1
    outer loop
      vertex -3 -3 -5
      vertex -0.81926 -4.35069 -5
      vertex -0.941284 -4.45457 -5
    endloop
  endfacet
  facet normal 0 0 -1
    outer loop
      vertex -3 -3 -5
      vertex -0.941284 -4.45457 -5
      vertex -1.06972 -4.55043 -5
    endloop
  endfacet
  facet normal 0 0 -1
    outer loop
      vertex -3 -3 -5
      vertex -1.06972 -4.55043 -5
      vertex -1.20403 -4.63785 -5
    endloop
  endfacet
  facet normal 0 0 -1
    outer loop
      vertex -3 -3 -5
      vertex -1.20403 -4.63785 -5
      vertex -1.34366 -4.71649 -5
    endloop
  endfacet
  facet normal 0 0 -1
    outer loop
      vertex -3 -3 -5
      vertex -1.34366 -4.71649 -5
      vertex -1.48805 -4.78603 -5
    endloop
  endfacet
  facet normal 0 0 -1
    outer loop
      vertex -3 -3 -5
      vertex -1.48805 -4.78603 -5
      vertex -1.6366 -4.84616 -5
    endloop
  endfacet
  facet normal 0 0 -1
    outer loop
      vertex -3 -3 -5
      vertex -1.6366 -4.84616 -5
      vertex -1.7887 -4.89667 -5
    endloop
  endfacet
  facet normal 0 0 -1
    outer loop
      vertex -3 -3 -5
      vertex -1.7887 -4.89667 -5
      vertex -1.94371 -4.93732 -5
    endloop
  endfacet
  facet normal 0 0 -1
    outer loop
      vertex -3 -3 -5
      vertex -1.94371 -4.93732 -5
      vertex -2.10101 -4.96794 -5
    endloop
  endfacet
  facet normal 0 0 -1
    outer loop
      vertex -3 -3 -5
      vertex -2.10101 -4.96794 -5
      vertex -2.25995 -4.98843 -5
    endloop
  endfacet
  facet normal 0 0 -1
    outer loop
      vertex -3 -3 -5
      vertex -2.25995 -4.98843 -5
      vertex -2.41988 -4.9987 -5
    endloop
  endfacet
  facet normal 0 0 -1
    outer loop
      vertex -3 -3 -5
      vertex -2.41988 -4.9987 -5
      vertex -2.58014 -4.9987 -5
    endloop
  endfacet
  facet normal 0 0 -1
    outer loop
      vertex -3 -3 -5
      vertex -2.58014 -4.9987 -5
      vertex -2.74007 -4.98843 -5
    endloop
  endfacet
  facet normal 0 0 -1
    outer loop
      vertex -3 -3 -5
      vertex -2.74007 -4.98843 -5
      vertex -2.899 -4.96794 -5
    endloop
  endfacet
  facet normal 0 0 -1
    outer loop
      vertex -0.0817719 -3.13412 -5
      vertex -3 -3 -5
      vertex -0.0511586 -3 -5
    endloop
  endfacet
  facet normal 0 0 -1
    outer loop
      vertex -5 -2.5 -5
      vertex -3 -1 -5
      vertex -3 -3 -5
    endloop
  endfacet
  facet normal -0 0 -1
    outer loop
      vertex -3 -1 -5
      vertex -5 -2.5 -5
      vertex -3 1 -5
    endloop
  endfacet
  facet normal 0 0 -1
    outer loop
      vertex -3.21132 -4.89667 -5
      vertex -3 -3 -5
      vertex -3.0563 -4.93732 -5
    endloop
  endfacet
  facet normal 0 0 -1
    outer loop
      vertex -3.0563 -4.93732 -5
      vertex -3 -3 -5
      vertex -2.899 -4.96794 -5
    endloop
  endfacet
  facet normal 0 0 -1
    outer loop
      vertex -3 -1 -5
      vertex 2.5 1 -5
      vertex 2.5 -1 -5
    endloop
  endfacet
  facet normal -0 0 -1
    outer loop
      vertex 2.5 1 -5
      vertex -3 -1 -5
      vertex -3 1 -5
    endloop
  endfacet
  facet normal 0 0 -1
    outer loop
      vertex -3 3 -5
      vertex 5 5 -5
      vertex 5 3 -5
    endloop
  endfacet
  facet normal 0 0 -1
    outer loop
      vertex -3.36342 -4.84616 -5
      vertex -3 -3 -5
      vertex -3.21132 -4.89667 -5
    endloop
  endfacet
  facet normal 0 0 -1
    outer loop
      vertex -3.51196 -4.78603 -5
      vertex -3 -3 -5
      vertex -3.36342 -4.84616 -5
    endloop
  endfacet
  facet normal 0 0 -1
    outer loop
      vertex -3.65636 -4.71649 -5
      vertex -3 -3 -5
      vertex -3.51196 -4.78603 -5
    endloop
  endfacet
  facet normal 0 0 -1
    outer loop
      vertex -3.79599 -4.63785 -5
      vertex -3 -3 -5
      vertex -3.65636 -4.71649 -5
    endloop
  endfacet
  facet normal 0 0 -1
    outer loop
      vertex -3.9303 -4.55043 -5
      vertex -3 -3 -5
      vertex -3.79599 -4.63785 -5
    endloop
  endfacet
  facet normal 0 0 -1
    outer loop
      vertex -4.05873 -4.45457 -5
      vertex -3 -3 -5
      vertex -3.9303 -4.55043 -5
    endloop
  endfacet
  facet normal 0 0 -1
    outer loop
      vertex -4.18076 -4.35069 -5
      vertex -3 -3 -5
      vertex -4.05873 -4.45457 -5
    endloop
  endfacet
  facet normal 0 0 -1
    outer loop
      vertex -4.29588 -4.2392 -5
      vertex -3 -3 -5
      vertex -4.18076 -4.35069 -5
    endloop
  endfacet
  facet normal 0 0 -1
    outer loop
      vertex -4.40363 -4.12056 -5
      vertex -3 -3 -5
      vertex -4.29588 -4.2392 -5
    endloop
  endfacet
  facet normal 0 0 -1
    outer loop
      vertex -4.50354 -3.99527 -5
      vertex -3 -3 -5
      vertex -4.40363 -4.12056 -5
    endloop
  endfacet
  facet normal 0 0 -1
    outer loop
      vertex -4.59523 -3.86383 -5
      vertex -3 -3 -5
      vertex -4.50354 -3.99527 -5
    endloop
  endfacet
  facet normal 0 0 -1
    outer loop
      vertex -4.6783 -3.72679 -5
      vertex -3 -3 -5
      vertex -4.59523 -3.86383 -5
    endloop
  endfacet
  facet normal 0 0 -1
    outer loop
      vertex -4.75243 -3.5847 -5
      vertex -3 -3 -5
      vertex -4.6783 -3.72679 -5
    endloop
  endfacet
  facet normal 0 0 -1
    outer loop
      vertex -4.81731 -3.43816 -5
      vertex -3 -3 -5
      vertex -4.75243 -3.5847 -5
    endloop
  endfacet
  facet normal 0 0 -1
    outer loop
      vertex -4.87265 -3.28777 -5
      vertex -3 -3 -5
      vertex -4.81731 -3.43816 -5
    endloop
  endfacet
  facet normal 0 0 -1
    outer loop
      vertex -4.91824 -3.13412 -5
      vertex -3 -3 -5
      vertex -4.87265 -3.28777 -5
    endloop
  endfacet
  facet normal 0 0 -1
    outer loop
      vertex -4.9539 -2.97789 -5
      vertex -3 -3 -5
      vertex -4.91824 -3.13412 -5
    endloop
  endfacet
  facet normal 0 0 -1
    outer loop
      vertex -4.97948 -2.81969 -5
      vertex -3 -3 -5
      vertex -4.9539 -2.97789 -5
    endloop
  endfacet
  facet normal 0 0 -1
    outer loop
      vertex -4.99487 -2.66017 -5
      vertex -3 -3 -5
      vertex -4.97948 -2.81969 -5
    endloop
  endfacet
  facet normal 0 0 -1
    outer loop
      vertex -3 -3 -5
      vertex -4.99487 -2.66017 -5
      vertex -5 -2.5 -5
    endloop
  endfacet
  facet normal 0 0 -1
    outer loop
      vertex -5 5 -5
      vertex -3 1 -5
      vertex -5 -2.5 -5
    endloop
  endfacet
  facet normal 0 0 -1
    outer loop
      vertex -3 3 -5
      vertex -5 5 -5
      vertex 5 5 -5
    endloop
  endfacet
  facet normal 0 0 -1
    outer loop
      vertex -3 1 -5
      vertex -5 5 -5
      vertex -3 3 -5
    endloop
  endfacet
  facet normal 0 0 -1
    outer loop
      vertex 4.87263 -3.28777 -5
      vertex 4.94884 -3 -5
      vertex 4.91823 -3.13412 -5
    endloop
  endfacet
  facet normal 0 0 -1
    outer loop
      vertex 4.81729 -3.43816 -5
      vertex 4.94884 -3 -5
      vertex 4.87263 -3.28777 -5
    endloop
  endfacet
  facet normal 0 0 -1
    outer loop
      vertex 4.75241 -3.5847 -5
      vertex 4.94884 -3 -5
      vertex 4.81729 -3.43816 -5
    endloop
  endfacet
  facet normal 0 0 -1
    outer loop
      vertex 4.67828 -3.72679 -5
      vertex 4.94884 -3 -5
      vertex 4.75241 -3.5847 -5
    endloop
  endfacet
  facet normal 0 0 -1
    outer loop
      vertex 4.59521 -3.86383 -5
      vertex 4.94884 -3 -5
      vertex 4.67828 -3.72679 -5
    endloop
  endfacet
  facet normal 0 0 -1
    outer loop
      vertex 4.50352 -3.99527 -5
      vertex 4.94884 -3 -5
      vertex 4.59521 -3.86383 -5
    endloop
  endfacet
  facet normal 0 0 -1
    outer loop
      vertex 4.40361 -4.12056 -5
      vertex 4.94884 -3 -5
      vertex 4.50352 -3.99527 -5
    endloop
  endfacet
  facet normal 0 0 -1
    outer loop
      vertex 4.29587 -4.2392 -5
      vertex 4.94884 -3 -5
      vertex 4.40361 -4.12056 -5
    endloop
  endfacet
  facet normal 0 0 -1
    outer loop
      vertex 4.18074 -4.35069 -5
      vertex 4.94884 -3 -5
      vertex 4.29587 -4.2392 -5
    endloop
  endfacet
  facet normal 0 0 -1
    outer loop
      vertex 4.05872 -4.45457 -5
      vertex 4.94884 -3 -5
      vertex 4.18074 -4.35069 -5
    endloop
  endfacet
  facet normal 0 0 -1
    outer loop
      vertex 3.93028 -4.55043 -5
      vertex 4.94884 -3 -5
      vertex 4.05872 -4.45457 -5
    endloop
  endfacet
  facet normal 0 0 -1
    outer loop
      vertex 3.79597 -4.63785 -5
      vertex 4.94884 -3 -5
      vertex 3.93028 -4.55043 -5
    endloop
  endfacet
  facet normal 0 0 -1
    outer loop
      vertex 3.65634 -4.71649 -5
      vertex 4.94884 -3 -5
      vertex 3.79597 -4.63785 -5
    endloop
  endfacet
  facet normal 0 0 -1
    outer loop
      vertex 3.51195 -4.78603 -5
      vertex 4.94884 -3 -5
      vertex 3.65634 -4.71649 -5
    endloop
  endfacet
  facet normal 0 0 -1
    outer loop
      vertex 3.3634 -4.84616 -5
      vertex 4.94884 -3 -5
      vertex 3.51195 -4.78603 -5
    endloop
  endfacet
  facet normal 0 0 -1
    outer loop
      vertex 3.2113 -4.89667 -5
      vertex 4.94884 -3 -5
      vertex 3.3634 -4.84616 -5
    endloop
  endfacet
  facet normal 0 0 -1
    outer loop
      vertex 3.05629 -4.93732 -5
      vertex 4.94884 -3 -5
      vertex 3.2113 -4.89667 -5
    endloop
  endfacet
  facet normal 0 0 -1
    outer loop
      vertex 2.89899 -4.96794 -5
      vertex 4.94884 -3 -5
      vertex 3.05629 -4.93732 -5
    endloop
  endfacet
  facet normal 0 0 -1
    outer loop
      vertex 2.74005 -4.98843 -5
      vertex 4.94884 -3 -5
      vertex 2.89899 -4.96794 -5
    endloop
  endfacet
  facet normal 0 0 -1
    outer loop
      vertex 2.58012 -4.9987 -5
      vertex 4.94884 -3 -5
      vertex 2.74005 -4.98843 -5
    endloop
  endfacet
  facet normal 0 0 -1
    outer loop
      vertex 2.41986 -4.9987 -5
      vertex 4.94884 -3 -5
      vertex 2.58012 -4.9987 -5
    endloop
  endfacet
  facet normal 0 0 -1
    outer loop
      vertex 2.25993 -4.98843 -5
      vertex 4.94884 -3 -5
      vertex 2.41986 -4.9987 -5
    endloop
  endfacet
  facet normal 0 0 -1
    outer loop
      vertex 2.101 -4.96794 -5
      vertex 4.94884 -3 -5
      vertex 2.25993 -4.98843 -5
    endloop
  endfacet
  facet normal 0 0 -1
    outer loop
      vertex 1.9437 -4.93732 -5
      vertex 4.94884 -3 -5
      vertex 2.101 -4.96794 -5
    endloop
  endfacet
  facet normal 0 0 -1
    outer loop
      vertex 1.78868 -4.89667 -5
      vertex 4.94884 -3 -5
      vertex 1.9437 -4.93732 -5
    endloop
  endfacet
  facet normal 0 0 -1
    outer loop
      vertex 1.63658 -4.84616 -5
      vertex 4.94884 -3 -5
      vertex 1.78868 -4.89667 -5
    endloop
  endfacet
  facet normal 0 0 -1
    outer loop
      vertex 1.48804 -4.78603 -5
      vertex 4.94884 -3 -5
      vertex 1.63658 -4.84616 -5
    endloop
  endfacet
  facet normal 0 0 -1
    outer loop
      vertex 1.34364 -4.71649 -5
      vertex 4.94884 -3 -5
      vertex 1.48804 -4.78603 -5
    endloop
  endfacet
  facet normal 0 0 -1
    outer loop
      vertex 1.20401 -4.63785 -5
      vertex 4.94884 -3 -5
      vertex 1.34364 -4.71649 -5
    endloop
  endfacet
  facet normal 0 0 -1
    outer loop
      vertex 1.0697 -4.55043 -5
      vertex 4.94884 -3 -5
      vertex 1.20401 -4.63785 -5
    endloop
  endfacet
  facet normal 0 0 -1
    outer loop
      vertex 0.941269 -4.45457 -5
      vertex 4.94884 -3 -5
      vertex 1.0697 -4.55043 -5
    endloop
  endfacet
  facet normal 0 0 -1
    outer loop
      vertex 0.819244 -4.35069 -5
      vertex 4.94884 -3 -5
      vertex 0.941269 -4.45457 -5
    endloop
  endfacet
  facet normal 0 0 -1
    outer loop
      vertex 0.704117 -4.2392 -5
      vertex 4.94884 -3 -5
      vertex 0.819244 -4.35069 -5
    endloop
  endfacet
  facet normal 0 0 -1
    outer loop
      vertex 0.596375 -4.12056 -5
      vertex 4.94884 -3 -5
      vertex 0.704117 -4.2392 -5
    endloop
  endfacet
  facet normal 0 0 -1
    outer loop
      vertex 0.49646 -3.99527 -5
      vertex 4.94884 -3 -5
      vertex 0.596375 -4.12056 -5
    endloop
  endfacet
  facet normal 0 0 -1
    outer loop
      vertex 0.40477 -3.86383 -5
      vertex 4.94884 -3 -5
      vertex 0.49646 -3.99527 -5
    endloop
  endfacet
  facet normal 0 0 -1
    outer loop
      vertex 0.321701 -3.72679 -5
      vertex 4.94884 -3 -5
      vertex 0.40477 -3.86383 -5
    endloop
  endfacet
  facet normal 0 0 -1
    outer loop
      vertex 0.247574 -3.5847 -5
      vertex 4.94884 -3 -5
      vertex 0.321701 -3.72679 -5
    endloop
  endfacet
  facet normal 0 0 -1
    outer loop
      vertex 0.182693 -3.43816 -5
      vertex 4.94884 -3 -5
      vertex 0.247574 -3.5847 -5
    endloop
  endfacet
  facet normal 0 0 -1
    outer loop
      vertex 0.12735 -3.28777 -5
      vertex 4.94884 -3 -5
      vertex 0.182693 -3.43816 -5
    endloop
  endfacet
  facet normal 0 0 -1
    outer loop
      vertex 0.0817566 -3.13412 -5
      vertex 4.94884 -3 -5
      vertex 0.12735 -3.28777 -5
    endloop
  endfacet
  facet normal -0 0 -1
    outer loop
      vertex 4.94884 -3 -5
      vertex 0.0817566 -3.13412 -5
      vertex 0.0511433 -3 -5
    endloop
  endfacet
  facet normal 0 0 1
    outer loop
      vertex 5 5 5
      vertex -3 3 5
      vertex 5 3 5
    endloop
  endfacet
  facet normal 0 0 1
    outer loop
      vertex -5 5 5
      vertex -3 1 5
      vertex -3 3 5
    endloop
  endfacet
  facet normal 0 0 1
    outer loop
      vertex -3 1 5
      vertex -5 -2.5 5
      vertex -3 -1 5
    endloop
  endfacet
  facet normal 0 0 1
    outer loop
      vertex -3 -1 5
      vertex -5 -2.5 5
      vertex -3 -3 5
    endloop
  endfacet
  facet normal -0 -0 1
    outer loop
      vertex -4.99487 -2.66017 5
      vertex -3 -3 5
      vertex -5 -2.5 5
    endloop
  endfacet
  facet normal 0 0 1
    outer loop
      vertex -3 -3 5
      vertex -3.21132 -4.89667 5
      vertex -3.0563 -4.93732 5
    endloop
  endfacet
  facet normal 0 0 1
    outer loop
      vertex -3 -3 5
      vertex -3.36342 -4.84616 5
      vertex -3.21132 -4.89667 5
    endloop
  endfacet
  facet normal 0 0 1
    outer loop
      vertex -3 -3 5
      vertex -3.51196 -4.78603 5
      vertex -3.36342 -4.84616 5
    endloop
  endfacet
  facet normal 0 0 1
    outer loop
      vertex -3 -3 5
      vertex -3.65636 -4.71649 5
      vertex -3.51196 -4.78603 5
    endloop
  endfacet
  facet normal 0 0 1
    outer loop
      vertex -3 -3 5
      vertex -3.79599 -4.63785 5
      vertex -3.65636 -4.71649 5
    endloop
  endfacet
  facet normal 0 0 1
    outer loop
      vertex -3 -3 5
      vertex -3.9303 -4.55043 5
      vertex -3.79599 -4.63785 5
    endloop
  endfacet
  facet normal 0 0 1
    outer loop
      vertex -3 -3 5
      vertex -4.05873 -4.45457 5
      vertex -3.9303 -4.55043 5
    endloop
  endfacet
  facet normal 0 0 1
    outer loop
      vertex -3 -3 5
      vertex -4.18076 -4.35069 5
      vertex -4.05873 -4.45457 5
    endloop
  endfacet
  facet normal 0 0 1
    outer loop
      vertex -3 -3 5
      vertex -4.29588 -4.2392 5
      vertex -4.18076 -4.35069 5
    endloop
  endfacet
  facet normal 0 0 1
    outer loop
      vertex -3 -3 5
      vertex -4.40363 -4.12056 5
      vertex -4.29588 -4.2392 5
    endloop
  endfacet
  facet normal 0 0 1
    outer loop
      vertex -3 -3 5
      vertex -4.50354 -3.99527 5
      vertex -4.40363 -4.12056 5
    endloop
  endfacet
  facet normal 0 0 1
    outer loop
      vertex -3 -3 5
      vertex -4.59523 -3.86383 5
      vertex -4.50354 -3.99527 5
    endloop
  endfacet
  facet normal 0 0 1
    outer loop
      vertex -3 -3 5
      vertex -4.6783 -3.72679 5
      vertex -4.59523 -3.86383 5
    endloop
  endfacet
  facet normal 0 0 1
    outer loop
      vertex -3 -3 5
      vertex -4.75243 -3.5847 5
      vertex -4.6783 -3.72679 5
    endloop
  endfacet
  facet normal 0 0 1
    outer loop
      vertex -3 -3 5
      vertex -4.81731 -3.43816 5
      vertex -4.75243 -3.5847 5
    endloop
  endfacet
  facet normal 0 0 1
    outer loop
      vertex -3 -3 5
      vertex -4.87265 -3.28777 5
      vertex -4.81731 -3.43816 5
    endloop
  endfacet
  facet normal 0 0 1
    outer loop
      vertex -3 -3 5
      vertex -4.91824 -3.13412 5
      vertex -4.87265 -3.28777 5
    endloop
  endfacet
  facet normal 0 0 1
    outer loop
      vertex -3 -3 5
      vertex -4.9539 -2.97789 5
      vertex -4.91824 -3.13412 5
    endloop
  endfacet
  facet normal 0 0 1
    outer loop
      vertex -3 -3 5
      vertex -4.97948 -2.81969 5
      vertex -4.9539 -2.97789 5
    endloop
  endfacet
  facet normal -0 0 1
    outer loop
      vertex -5 5 5
      vertex -3 3 5
      vertex 5 5 5
    endloop
  endfacet
  facet normal 0 0 1
    outer loop
      vertex -3 1 5
      vertex -5 5 5
      vertex -5 -2.5 5
    endloop
  endfacet
  facet normal 0 0 1
    outer loop
      vertex -3 -3 5
      vertex -4.99487 -2.66017 5
      vertex -4.97948 -2.81969 5
    endloop
  endfacet
  facet normal -0 0 1
    outer loop
      vertex -3 1 5
      vertex 2.5 -1 5
      vertex 2.5 1 5
    endloop
  endfacet
  facet normal 0 0 1
    outer loop
      vertex 2.5 -1 5
      vertex -3 1 5
      vertex -3 -1 5
    endloop
  endfacet
  facet normal -0 0 1
    outer loop
      vertex -3 -3 5
      vertex -0.0817719 -3.13412 5
      vertex -0.0511586 -3 5
    endloop
  endfacet
  facet normal 0 0 1
    outer loop
      vertex -0.0817719 -3.13412 5
      vertex -3 -3 5
      vertex -0.127365 -3.28777 5
    endloop
  endfacet
  facet normal 0 0 1
    outer loop
      vertex -0.127365 -3.28777 5
      vertex -3 -3 5
      vertex -0.182709 -3.43816 5
    endloop
  endfacet
  facet normal 0 0 1
    outer loop
      vertex -0.182709 -3.43816 5
      vertex -3 -3 5
      vertex -0.247589 -3.5847 5
    endloop
  endfacet
  facet normal 0 0 1
    outer loop
      vertex -0.247589 -3.5847 5
      vertex -3 -3 5
      vertex -0.321716 -3.72679 5
    endloop
  endfacet
  facet normal 0 0 1
    outer loop
      vertex -0.321716 -3.72679 5
      vertex -3 -3 5
      vertex -0.404785 -3.86383 5
    endloop
  endfacet
  facet normal 0 0 1
    outer loop
      vertex -0.404785 -3.86383 5
      vertex -3 -3 5
      vertex -0.496475 -3.99527 5
    endloop
  endfacet
  facet normal 0 0 1
    outer loop
      vertex -0.496475 -3.99527 5
      vertex -3 -3 5
      vertex -0.59639 -4.12056 5
    endloop
  endfacet
  facet normal 0 0 1
    outer loop
      vertex -0.59639 -4.12056 5
      vertex -3 -3 5
      vertex -0.704132 -4.2392 5
    endloop
  endfacet
  facet normal 0 0 1
    outer loop
      vertex -0.704132 -4.2392 5
      vertex -3 -3 5
      vertex -0.81926 -4.35069 5
    endloop
  endfacet
  facet normal 0 0 1
    outer loop
      vertex -0.81926 -4.35069 5
      vertex -3 -3 5
      vertex -0.941284 -4.45457 5
    endloop
  endfacet
  facet normal 0 0 1
    outer loop
      vertex -0.941284 -4.45457 5
      vertex -3 -3 5
      vertex -1.06972 -4.55043 5
    endloop
  endfacet
  facet normal 0 0 1
    outer loop
      vertex -1.06972 -4.55043 5
      vertex -3 -3 5
      vertex -1.20403 -4.63785 5
    endloop
  endfacet
  facet normal 0 0 1
    outer loop
      vertex -1.20403 -4.63785 5
      vertex -3 -3 5
      vertex -1.34366 -4.71649 5
    endloop
  endfacet
  facet normal 0 0 1
    outer loop
      vertex -1.34366 -4.71649 5
      vertex -3 -3 5
      vertex -1.48805 -4.78603 5
    endloop
  endfacet
  facet normal 0 0 1
    outer loop
      vertex -1.48805 -4.78603 5
      vertex -3 -3 5
      vertex -1.6366 -4.84616 5
    endloop
  endfacet
  facet normal 0 0 1
    outer loop
      vertex -1.6366 -4.84616 5
      vertex -3 -3 5
      vertex -1.7887 -4.89667 5
    endloop
  endfacet
  facet normal 0 0 1
    outer loop
      vertex -1.7887 -4.89667 5
      vertex -3 -3 5
      vertex -1.94371 -4.93732 5
    endloop
  endfacet
  facet normal 0 0 1
    outer loop
      vertex -1.94371 -4.93732 5
      vertex -3 -3 5
      vertex -2.10101 -4.96794 5
    endloop
  endfacet
  facet normal 0 0 1
    outer loop
      vertex -2.10101 -4.96794 5
      vertex -3 -3 5
      vertex -2.25995 -4.98843 5
    endloop
  endfacet
  facet normal 0 0 1
    outer loop
      vertex -2.25995 -4.98843 5
      vertex -3 -3 5
      vertex -2.41988 -4.9987 5
    endloop
  endfacet
  facet normal 0 0 1
    outer loop
      vertex -2.41988 -4.9987 5
      vertex -3 -3 5
      vertex -2.58014 -4.9987 5
    endloop
  endfacet
  facet normal 0 0 1
    outer loop
      vertex -2.58014 -4.9987 5
      vertex -3 -3 5
      vertex -2.74007 -4.98843 5
    endloop
  endfacet
  facet normal 0 0 1
    outer loop
      vertex -2.74007 -4.98843 5
      vertex -3 -3 5
      vertex -2.899 -4.96794 5
    endloop
  endfacet
  facet normal 0 0 1
    outer loop
      vertex -2.899 -4.96794 5
      vertex -3 -3 5
      vertex -3.0563 -4.93732 5
    endloop
  endfacet
  facet normal 0 0 1
    outer loop
      vertex 4.94884 -3 5
      vertex 4.87263 -3.28777 5
      vertex 4.91823 -3.13412 5
    endloop
  endfacet
  facet normal 0 0 1
    outer loop
      vertex 4.94884 -3 5
      vertex 4.81729 -3.43816 5
      vertex 4.87263 -3.28777 5
    endloop
  endfacet
  facet normal 0 0 1
    outer loop
      vertex 4.94884 -3 5
      vertex 4.75241 -3.5847 5
      vertex 4.81729 -3.43816 5
    endloop
  endfacet
  facet normal 0 0 1
    outer loop
      vertex 4.94884 -3 5
      vertex 4.67828 -3.72679 5
      vertex 4.75241 -3.5847 5
    endloop
  endfacet
  facet normal 0 0 1
    outer loop
      vertex 4.94884 -3 5
      vertex 4.59521 -3.86383 5
      vertex 4.67828 -3.72679 5
    endloop
  endfacet
  facet normal 0 0 1
    outer loop
      vertex 4.94884 -3 5
      vertex 4.50352 -3.99527 5
      vertex 4.59521 -3.86383 5
    endloop
  endfacet
  facet normal 0 0 1
    outer loop
      vertex 4.94884 -3 5
      vertex 4.40361 -4.12056 5
      vertex 4.50352 -3.99527 5
    endloop
  endfacet
  facet normal 0 0 1
    outer loop
      vertex 4.94884 -3 5
      vertex 4.29587 -4.2392 5
      vertex 4.40361 -4.12056 5
    endloop
  endfacet
  facet normal 0 0 1
    outer loop
      vertex 4.94884 -3 5
      vertex 4.18074 -4.35069 5
      vertex 4.29587 -4.2392 5
    endloop
  endfacet
  facet normal 0 0 1
    outer loop
      vertex 4.94884 -3 5
      vertex 4.05872 -4.45457 5
      vertex 4.18074 -4.35069 5
    endloop
  endfacet
  facet normal 0 0 1
    outer loop
      vertex 4.94884 -3 5
      vertex 3.93028 -4.55043 5
      vertex 4.05872 -4.45457 5
    endloop
  endfacet
  facet normal 0 0 1
    outer loop
      vertex 4.94884 -3 5
      vertex 3.79597 -4.63785 5
      vertex 3.93028 -4.55043 5
    endloop
  endfacet
  facet normal 0 0 1
    outer loop
      vertex 4.94884 -3 5
      vertex 3.65634 -4.71649 5
      vertex 3.79597 -4.63785 5
    endloop
  endfacet
  facet normal 0 0 1
    outer loop
      vertex 4.94884 -3 5
      vertex 3.51195 -4.78603 5
      vertex 3.65634 -4.71649 5
    endloop
  endfacet
  facet normal 0 0 1
    outer loop
      vertex 4.94884 -3 5
      vertex 3.3634 -4.84616 5
      vertex 3.51195 -4.78603 5
    endloop
  endfacet
  facet normal 0 0 1
    outer loop
      vertex 4.94884 -3 5
      vertex 3.2113 -4.89667 5
      vertex 3.3634 -4.84616 5
    endloop
  endfacet
  facet normal 0 0 1
    outer loop
      vertex 4.94884 -3 5
      vertex 3.05629 -4.93732 5
      vertex 3.2113 -4.89667 5
    endloop
  endfacet
  facet normal 0 0 1
    outer loop
      vertex 4.94884 -3 5
      vertex 2.89899 -4.96794 5
      vertex 3.05629 -4.93732 5
    endloop
  endfacet
  facet normal 0 0 1
    outer loop
      vertex 4.94884 -3 5
      vertex 2.74005 -4.98843 5
      vertex 2.89899 -4.96794 5
    endloop
  endfacet
  facet normal 0 0 1
    outer loop
      vertex 4.94884 -3 5
      vertex 2.58012 -4.9987 5
      vertex 2.74005 -4.98843 5
    endloop
  endfacet
  facet normal 0 0 1
    outer loop
      vertex 4.94884 -3 5
      vertex 2.41986 -4.9987 5
      vertex 2.58012 -4.9987 5
    endloop
  endfacet
  facet normal 0 0 1
    outer loop
      vertex 4.94884 -3 5
      vertex 2.25993 -4.98843 5
      vertex 2.41986 -4.9987 5
    endloop
  endfacet
  facet normal 0 0 1
    outer loop
      vertex 4.94884 -3 5
      vertex 2.101 -4.96794 5
      vertex 2.25993 -4.98843 5
    endloop
  endfacet
  facet normal 0 0 1
    outer loop
      vertex 4.94884 -3 5
      vertex 1.9437 -4.93732 5
      vertex 2.101 -4.96794 5
    endloop
  endfacet
  facet normal 0 0 1
    outer loop
      vertex 4.94884 -3 5
      vertex 1.78868 -4.89667 5
      vertex 1.9437 -4.93732 5
    endloop
  endfacet
  facet normal 0 0 1
    outer loop
      vertex 4.94884 -3 5
      vertex 1.63658 -4.84616 5
      vertex 1.78868 -4.89667 5
    endloop
  endfacet
  facet normal 0 0 1
    outer loop
      vertex 4.94884 -3 5
      vertex 1.48804 -4.78603 5
      vertex 1.63658 -4.84616 5
    endloop
  endfacet
  facet normal 0 0 1
    outer loop
      vertex 4.94884 -3 5
      vertex 1.34364 -4.71649 5
      vertex 1.48804 -4.78603 5
    endloop
  endfacet
  facet normal 0 0 1
    outer loop
      vertex 4.94884 -3 5
      vertex 1.20401 -4.63785 5
      vertex 1.34364 -4.71649 5
    endloop
  endfacet
  facet normal 0 0 1
    outer loop
      vertex 4.94884 -3 5
      vertex 1.0697 -4.55043 5
      vertex 1.20401 -4.63785 5
    endloop
  endfacet
  facet normal 0 0 1
    outer loop
      vertex 4.94884 -3 5
      vertex 0.941269 -4.45457 5
      vertex 1.0697 -4.55043 5
    endloop
  endfacet
  facet normal 0 0 1
    outer loop
      vertex 4.94884 -3 5
      vertex 0.819244 -4.35069 5
      vertex 0.941269 -4.45457 5
    endloop
  endfacet
  facet normal 0 0 1
    outer loop
      vertex 4.94884 -3 5
      vertex 0.704117 -4.2392 5
      vertex 0.819244 -4.35069 5
    endloop
  endfacet
  facet normal 0 0 1
    outer loop
      vertex 4.94884 -3 5
      vertex 0.596375 -4.12056 5
      vertex 0.704117 -4.2392 5
    endloop
  endfacet
  facet normal 0 0 1
    outer loop
      vertex 4.94884 -3 5
      vertex 0.49646 -3.99527 5
      vertex 0.596375 -4.12056 5
    endloop
  endfacet
  facet normal 0 0 1
    outer loop
      vertex 4.94884 -3 5
      vertex 0.40477 -3.86383 5
      vertex 0.49646 -3.99527 5
    endloop
  endfacet
  facet normal 0 0 1
    outer loop
      vertex 4.94884 -3 5
      vertex 0.321701 -3.72679 5
      vertex 0.40477 -3.86383 5
    endloop
  endfacet
  facet normal 0 0 1
    outer loop
      vertex 4.94884 -3 5
      vertex 0.247574 -3.5847 5
      vertex 0.321701 -3.72679 5
    endloop
  endfacet
  facet normal 0 0 1
    outer loop
      vertex 4.94884 -3 5
      vertex 0.182693 -3.43816 5
      vertex 0.247574 -3.5847 5
    endloop
  endfacet
  facet normal 0 0 1
    outer loop
      vertex 4.94884 -3 5
      vertex 0.12735 -3.28777 5
      vertex 0.182693 -3.43816 5
    endloop
  endfacet
  facet normal 0 0 1
    outer loop
      vertex 4.94884 -3 5
      vertex 0.0817566 -3.13412 5
      vertex 0.12735 -3.28777 5
    endloop
  endfacet
  facet normal 0 -0 1
    outer loop
      vertex 0.0817566 -3.13412 5
      vertex 4.94884 -3 5
      vertex 0.0511433 -3 5
    endloop
  endfacet
  facet normal 0 1 -0
    outer loop
      vertex -0.0511586 -3 -5
      vertex -3 -3 5
      vertex -0.0511586 -3 5
    endloop
  endfacet
  facet normal 0 1 0
    outer loop
      vertex -3 -3 5
      vertex -0.0511586 -3 -5
      vertex -3 -3 -5
    endloop
  endfacet
  facet normal 0 1 -0
    outer loop
      vertex 4.94884 -3 -5
      vertex 0.0511433 -3 5
      vertex 4.94884 -3 5
    endloop
  endfacet
  facet normal 0 1 0
    outer loop
      vertex 0.0511433 -3 5
      vertex 4.94884 -3 -5
      vertex 0.0511433 -3 -5
    endloop
  endfacet
  facet normal 1 -0 0
    outer loop
      vertex -3 -3 5
      vertex -3 -1 -5
      vertex -3 -1 5
    endloop
  endfacet
  facet normal 1 0 0
    outer loop
      vertex -3 -1 -5
      vertex -3 -3 5
      vertex -3 -3 -5
    endloop
  endfacet
  facet normal 0 -1 0
    outer loop
      vertex -3 -1 -5
      vertex 2.5 -1 5
      vertex -3 -1 5
    endloop
  endfacet
  facet normal 0 -1 -0
    outer loop
      vertex 2.5 -1 5
      vertex -3 -1 -5
      vertex 2.5 -1 -5
    endloop
  endfacet
  facet normal 1 -0 0
    outer loop
      vertex 2.5 -1 5
      vertex 2.5 1 -5
      vertex 2.5 1 5
    endloop
  endfacet
  facet normal 1 0 0
    outer loop
      vertex 2.5 1 -5
      vertex 2.5 -1 5
      vertex 2.5 -1 -5
    endloop
  endfacet
  facet normal 0 1 -0
    outer loop
      vertex 2.5 1 -5
      vertex -3 1 5
      vertex 2.5 1 5
    endloop
  endfacet
  facet normal 0 1 0
    outer loop
      vertex -3 1 5
      vertex 2.5 1 -5
      vertex -3 1 -5
    endloop
  endfacet
  facet normal 1 -0 0
    outer loop
      vertex -3 1 5
      vertex -3 3 -5
      vertex -3 3 5
    endloop
  endfacet
  facet normal 1 0 0
    outer loop
      vertex -3 3 -5
      vertex -3 1 5
      vertex -3 1 -5
    endloop
  endfacet
  facet normal 0 -1 0
    outer loop
      vertex -3 3 -5
      vertex 5 3 5
      vertex -3 3 5
    endloop
  endfacet
  facet normal 0 -1 -0
    outer loop
      vertex 5 3 5
      vertex -3 3 -5
      vertex 5 3 -5
    endloop
  endfacet
  facet normal 1 -0 0
    outer loop
      vertex 5 3 5
      vertex 5 5 -5
      vertex 5 5 5
    endloop
  endfacet
  facet normal 1 0 0
    outer loop
      vertex 5 5 -5
      vertex 5 3 5
      vertex 5 3 -5
    endloop
  endfacet
  facet normal 0 1 -0
    outer loop
      vertex 5 5 -5
      vertex -5 5 5
      vertex 5 5 5
    endloop
  endfacet
  facet normal 0 1 0
    outer loop
      vertex -5 5 5
      vertex 5 5 -5
      vertex -5 5 -5
    endloop
  endfacet
  facet normal -1 0 0
    outer loop
      vertex -5 -2.5 -5
      vertex -5 5 5
      vertex -5 5 -5
    endloop
  endfacet
  facet normal -1 -0 0
    outer loop
      vertex -5 5 5
      vertex -5 -2.5 -5
      vertex -5 -2.5 5
    endloop
  endfacet
  facet normal -0.995378 -0.096031 0
    outer loop
      vertex -4.97948 -2.81969 -5
      vertex -4.99487 -2.66017 5
      vertex -4.99487 -2.66017 -5
    endloop
  endfacet
  facet normal -0.995378 -0.096031 0
    outer loop
      vertex -4.99487 -2.66017 5
      vertex -4.97948 -2.81969 -5
      vertex -4.97948 -2.81969 5
    endloop
  endfacet
  facet normal -0.987178 -0.159621 0
    outer loop
      vertex -4.9539 -2.97789 -5
      vertex -4.97948 -2.81969 5
      vertex -4.97948 -2.81969 -5
    endloop
  endfacet
  facet normal -0.987178 -0.159621 0
    outer loop
      vertex -4.97948 -2.81969 5
      vertex -4.9539 -2.97789 -5
      vertex -4.9539 -2.97789 5
    endloop
  endfacet
  facet normal -0.974926 -0.22253 0
    outer loop
      vertex -4.91824 -3.13412 -5
      vertex -4.9539 -2.97789 5
      vertex -4.9539 -2.97789 -5
    endloop
  endfacet
  facet normal -0.974926 -0.22253 0
    outer loop
      vertex -4.9539 -2.97789 5
      vertex -4.91824 -3.13412 -5
      vertex -4.91824 -3.13412 5
    endloop
  endfacet
  facet normal -0.958689 -0.284456 0
    outer loop
      vertex -4.87265 -3.28777 -5
      vertex -4.91824 -3.13412 5
      vertex -4.91824 -3.13412 -5
    endloop
  endfacet
  facet normal -0.958689 -0.284456 0
    outer loop
      vertex -4.91824 -3.13412 5
      vertex -4.87265 -3.28777 -5
      vertex -4.87265 -3.28777 5
    endloop
  endfacet
  facet normal -0.938478 -0.345338 0
    outer loop
      vertex -4.81731 -3.43816 -5
      vertex -4.87265 -3.28777 5
      vertex -4.87265 -3.28777 -5
    endloop
  endfacet
  facet normal -0.938478 -0.345338 0
    outer loop
      vertex -4.87265 -3.28777 5
      vertex -4.81731 -3.43816 -5
      vertex -4.81731 -3.43816 5
    endloop
  endfacet
  facet normal -0.914387 -0.404841 0
    outer loop
      vertex -4.75243 -3.5847 -5
      vertex -4.81731 -3.43816 5
      vertex -4.81731 -3.43816 -5
    endloop
  endfacet
  facet normal -0.914387 -0.404841 0
    outer loop
      vertex -4.81731 -3.43816 5
      vertex -4.75243 -3.5847 -5
      vertex -4.75243 -3.5847 5
    endloop
  endfacet
  facet normal -0.886595 -0.462547 0
    outer loop
      vertex -4.6783 -3.72679 -5
      vertex -4.75243 -3.5847 5
      vertex -4.75243 -3.5847 -5
    endloop
  endfacet
  facet normal -0.886595 -0.462547 0
    outer loop
      vertex -4.75243 -3.5847 5
      vertex -4.6783 -3.72679 -5
      vertex -4.6783 -3.72679 5
    endloop
  endfacet
  facet normal -0.855155 -0.518372 0
    outer loop
      vertex -4.59523 -3.86383 -5
      vertex -4.6783 -3.72679 5
      vertex -4.6783 -3.72679 -5
    endloop
  endfacet
  facet normal -0.855155 -0.518372 0
    outer loop
      vertex -4.6783 -3.72679 5
      vertex -4.59523 -3.86383 -5
      vertex -4.59523 -3.86383 5
    endloop
  endfacet
  facet normal -0.820163 -0.57213 0
    outer loop
      vertex -4.50354 -3.99527 -5
      vertex -4.59523 -3.86383 5
      vertex -4.59523 -3.86383 -5
    endloop
  endfacet
  facet normal -0.820163 -0.57213 0
    outer loop
      vertex -4.59523 -3.86383 5
      vertex -4.50354 -3.99527 -5
      vertex -4.50354 -3.99527 5
    endloop
  endfacet
  facet normal -0.781848 -0.623469 0
    outer loop
      vertex -4.40363 -4.12056 -5
      vertex -4.50354 -3.99527 5
      vertex -4.50354 -3.99527 -5
    endloop
  endfacet
  facet normal -0.781848 -0.623469 0
    outer loop
      vertex -4.50354 -3.99527 5
      vertex -4.40363 -4.12056 -5
      vertex -4.40363 -4.12056 5
    endloop
  endfacet
  facet normal -0.740265 -0.672316 0
    outer loop
      vertex -4.29588 -4.2392 -5
      vertex -4.40363 -4.12056 5
      vertex -4.40363 -4.12056 -5
    endloop
  endfacet
  facet normal -0.740265 -0.672316 0
    outer loop
      vertex -4.40363 -4.12056 5
      vertex -4.29588 -4.2392 -5
      vertex -4.29588 -4.2392 5
    endloop
  endfacet
  facet normal -0.695691 -0.718342 0
    outer loop
      vertex -4.29588 -4.2392 -5
      vertex -4.18076 -4.35069 5
      vertex -4.29588 -4.2392 5
    endloop
  endfacet
  facet normal -0.695691 -0.718342 -0
    outer loop
      vertex -4.18076 -4.35069 5
      vertex -4.29588 -4.2392 -5
      vertex -4.18076 -4.35069 -5
    endloop
  endfacet
  facet normal -0.648208 -0.761463 0
    outer loop
      vertex -4.18076 -4.35069 -5
      vertex -4.05873 -4.45457 5
      vertex -4.18076 -4.35069 5
    endloop
  endfacet
  facet normal -0.648208 -0.761463 -0
    outer loop
      vertex -4.05873 -4.45457 5
      vertex -4.18076 -4.35069 -5
      vertex -4.05873 -4.45457 -5
    endloop
  endfacet
  facet normal -0.598151 -0.801383 0
    outer loop
      vertex -4.05873 -4.45457 -5
      vertex -3.9303 -4.55043 5
      vertex -4.05873 -4.45457 5
    endloop
  endfacet
  facet normal -0.598151 -0.801383 -0
    outer loop
      vertex -3.9303 -4.55043 5
      vertex -4.05873 -4.45457 -5
      vertex -3.9303 -4.55043 -5
    endloop
  endfacet
  facet normal -0.545508 -0.838106 0
    outer loop
      vertex -3.9303 -4.55043 -5
      vertex -3.79599 -4.63785 5
      vertex -3.9303 -4.55043 5
    endloop
  endfacet
  facet normal -0.545508 -0.838106 -0
    outer loop
      vertex -3.79599 -4.63785 5
      vertex -3.9303 -4.55043 -5
      vertex -3.79599 -4.63785 -5
    endloop
  endfacet
  facet normal -0.490726 -0.871314 0
    outer loop
      vertex -3.79599 -4.63785 -5
      vertex -3.65636 -4.71649 5
      vertex -3.79599 -4.63785 5
    endloop
  endfacet
  facet normal -0.490726 -0.871314 -0
    outer loop
      vertex -3.65636 -4.71649 5
      vertex -3.79599 -4.63785 -5
      vertex -3.65636 -4.71649 -5
    endloop
  endfacet
  facet normal -0.433887 -0.900967 0
    outer loop
      vertex -3.65636 -4.71649 -5
      vertex -3.51196 -4.78603 5
      vertex -3.65636 -4.71649 5
    endloop
  endfacet
  facet normal -0.433887 -0.900967 -0
    outer loop
      vertex -3.51196 -4.78603 5
      vertex -3.65636 -4.71649 -5
      vertex -3.51196 -4.78603 -5
    endloop
  endfacet
  facet normal -0.375229 -0.926932 0
    outer loop
      vertex -3.51196 -4.78603 -5
      vertex -3.36342 -4.84616 5
      vertex -3.51196 -4.78603 5
    endloop
  endfacet
  facet normal -0.375229 -0.926932 -0
    outer loop
      vertex -3.36342 -4.84616 5
      vertex -3.51196 -4.78603 -5
      vertex -3.36342 -4.84616 -5
    endloop
  endfacet
  facet normal -0.315161 -0.949038 0
    outer loop
      vertex -3.36342 -4.84616 -5
      vertex -3.21132 -4.89667 5
      vertex -3.36342 -4.84616 5
    endloop
  endfacet
  facet normal -0.315161 -0.949038 -0
    outer loop
      vertex -3.21132 -4.89667 5
      vertex -3.36342 -4.84616 -5
      vertex -3.21132 -4.89667 -5
    endloop
  endfacet
  facet normal -0.253649 -0.967296 0
    outer loop
      vertex -3.21132 -4.89667 -5
      vertex -3.0563 -4.93732 5
      vertex -3.21132 -4.89667 5
    endloop
  endfacet
  facet normal -0.253649 -0.967296 -0
    outer loop
      vertex -3.0563 -4.93732 5
      vertex -3.21132 -4.89667 -5
      vertex -3.0563 -4.93732 -5
    endloop
  endfacet
  facet normal -0.191073 -0.981576 0
    outer loop
      vertex -3.0563 -4.93732 -5
      vertex -2.899 -4.96794 5
      vertex -3.0563 -4.93732 5
    endloop
  endfacet
  facet normal -0.191073 -0.981576 -0
    outer loop
      vertex -2.899 -4.96794 5
      vertex -3.0563 -4.93732 -5
      vertex -2.899 -4.96794 -5
    endloop
  endfacet
  facet normal -0.127866 -0.991791 0
    outer loop
      vertex -2.899 -4.96794 -5
      vertex -2.74007 -4.98843 5
      vertex -2.899 -4.96794 5
    endloop
  endfacet
  facet normal -0.127866 -0.991791 -0
    outer loop
      vertex -2.74007 -4.98843 5
      vertex -2.899 -4.96794 -5
      vertex -2.74007 -4.98843 -5
    endloop
  endfacet
  facet normal -0.0640836 -0.997945 0
    outer loop
      vertex -2.74007 -4.98843 -5
      vertex -2.58014 -4.9987 5
      vertex -2.74007 -4.98843 5
    endloop
  endfacet
  facet normal -0.0640836 -0.997945 -0
    outer loop
      vertex -2.58014 -4.9987 5
      vertex -2.74007 -4.98843 -5
      vertex -2.58014 -4.9987 -5
    endloop
  endfacet
  facet normal 0 -1 0
    outer loop
      vertex -2.58014 -4.9987 -5
      vertex -2.41988 -4.9987 5
      vertex -2.58014 -4.9987 5
    endloop
  endfacet
  facet normal 0 -1 -0
    outer loop
      vertex -2.41988 -4.9987 5
      vertex -2.58014 -4.9987 -5
      vertex -2.41988 -4.9987 -5
    endloop
  endfacet
  facet normal 0.0640836 -0.997945 0
    outer loop
      vertex -2.41988 -4.9987 -5
      vertex -2.25995 -4.98843 5
      vertex -2.41988 -4.9987 5
    endloop
  endfacet
  facet normal 0.0640836 -0.997945 0
    outer loop
      vertex -2.25995 -4.98843 5
      vertex -2.41988 -4.9987 -5
      vertex -2.25995 -4.98843 -5
    endloop
  endfacet
  facet normal 0.127858 -0.991792 0
    outer loop
      vertex -2.25995 -4.98843 -5
      vertex -2.10101 -4.96794 5
      vertex -2.25995 -4.98843 5
    endloop
  endfacet
  facet normal 0.127858 -0.991792 0
    outer loop
      vertex -2.10101 -4.96794 5
      vertex -2.25995 -4.98843 -5
      vertex -2.10101 -4.96794 -5
    endloop
  endfacet
  facet normal 0.191073 -0.981576 0
    outer loop
      vertex -2.10101 -4.96794 -5
      vertex -1.94371 -4.93732 5
      vertex -2.10101 -4.96794 5
    endloop
  endfacet
  facet normal 0.191073 -0.981576 0
    outer loop
      vertex -1.94371 -4.93732 5
      vertex -2.10101 -4.96794 -5
      vertex -1.94371 -4.93732 -5
    endloop
  endfacet
  facet normal 0.253664 -0.967292 0
    outer loop
      vertex -1.94371 -4.93732 -5
      vertex -1.7887 -4.89667 5
      vertex -1.94371 -4.93732 5
    endloop
  endfacet
  facet normal 0.253664 -0.967292 0
    outer loop
      vertex -1.7887 -4.89667 5
      vertex -1.94371 -4.93732 -5
      vertex -1.7887 -4.89667 -5
    endloop
  endfacet
  facet normal 0.315161 -0.949038 0
    outer loop
      vertex -1.7887 -4.89667 -5
      vertex -1.6366 -4.84616 5
      vertex -1.7887 -4.89667 5
    endloop
  endfacet
  facet normal 0.315161 -0.949038 0
    outer loop
      vertex -1.6366 -4.84616 5
      vertex -1.7887 -4.89667 -5
      vertex -1.6366 -4.84616 -5
    endloop
  endfacet
  facet normal 0.375207 -0.926941 0
    outer loop
      vertex -1.6366 -4.84616 -5
      vertex -1.48805 -4.78603 5
      vertex -1.6366 -4.84616 5
    endloop
  endfacet
  facet normal 0.375207 -0.926941 0
    outer loop
      vertex -1.48805 -4.78603 5
      vertex -1.6366 -4.84616 -5
      vertex -1.48805 -4.78603 -5
    endloop
  endfacet
  facet normal 0.433911 -0.900956 0
    outer loop
      vertex -1.48805 -4.78603 -5
      vertex -1.34366 -4.71649 5
      vertex -1.48805 -4.78603 5
    endloop
  endfacet
  facet normal 0.433911 -0.900956 0
    outer loop
      vertex -1.34366 -4.71649 5
      vertex -1.48805 -4.78603 -5
      vertex -1.34366 -4.71649 -5
    endloop
  endfacet
  facet normal 0.490726 -0.871314 0
    outer loop
      vertex -1.34366 -4.71649 -5
      vertex -1.20403 -4.63785 5
      vertex -1.34366 -4.71649 5
    endloop
  endfacet
  facet normal 0.490726 -0.871314 0
    outer loop
      vertex -1.20403 -4.63785 5
      vertex -1.34366 -4.71649 -5
      vertex -1.20403 -4.63785 -5
    endloop
  endfacet
  facet normal 0.545508 -0.838106 0
    outer loop
      vertex -1.20403 -4.63785 -5
      vertex -1.06972 -4.55043 5
      vertex -1.20403 -4.63785 5
    endloop
  endfacet
  facet normal 0.545508 -0.838106 0
    outer loop
      vertex -1.06972 -4.55043 5
      vertex -1.20403 -4.63785 -5
      vertex -1.06972 -4.55043 -5
    endloop
  endfacet
  facet normal 0.598133 -0.801397 0
    outer loop
      vertex -1.06972 -4.55043 -5
      vertex -0.941284 -4.45457 5
      vertex -1.06972 -4.55043 5
    endloop
  endfacet
  facet normal 0.598133 -0.801397 0
    outer loop
      vertex -0.941284 -4.45457 5
      vertex -1.06972 -4.55043 -5
      vertex -0.941284 -4.45457 -5
    endloop
  endfacet
  facet normal 0.648226 -0.761448 0
    outer loop
      vertex -0.941284 -4.45457 -5
      vertex -0.81926 -4.35069 5
      vertex -0.941284 -4.45457 5
    endloop
  endfacet
  facet normal 0.648226 -0.761448 0
    outer loop
      vertex -0.81926 -4.35069 5
      vertex -0.941284 -4.45457 -5
      vertex -0.81926 -4.35069 -5
    endloop
  endfacet
  facet normal 0.695666 -0.718366 0
    outer loop
      vertex -0.81926 -4.35069 -5
      vertex -0.704132 -4.2392 5
      vertex -0.81926 -4.35069 5
    endloop
  endfacet
  facet normal 0.695666 -0.718366 0
    outer loop
      vertex -0.704132 -4.2392 5
      vertex -0.81926 -4.35069 -5
      vertex -0.704132 -4.2392 -5
    endloop
  endfacet
  facet normal 0.74029 -0.672288 0
    outer loop
      vertex -0.704132 -4.2392 5
      vertex -0.59639 -4.12056 -5
      vertex -0.59639 -4.12056 5
    endloop
  endfacet
  facet normal 0.74029 -0.672288 0
    outer loop
      vertex -0.59639 -4.12056 -5
      vertex -0.704132 -4.2392 5
      vertex -0.704132 -4.2392 -5
    endloop
  endfacet
  facet normal 0.781833 -0.623488 0
    outer loop
      vertex -0.59639 -4.12056 5
      vertex -0.496475 -3.99527 -5
      vertex -0.496475 -3.99527 5
    endloop
  endfacet
  facet normal 0.781833 -0.623488 0
    outer loop
      vertex -0.496475 -3.99527 -5
      vertex -0.59639 -4.12056 5
      vertex -0.59639 -4.12056 -5
    endloop
  endfacet
  facet normal 0.820163 -0.57213 0
    outer loop
      vertex -0.496475 -3.99527 5
      vertex -0.404785 -3.86383 -5
      vertex -0.404785 -3.86383 5
    endloop
  endfacet
  facet normal 0.820163 -0.57213 0
    outer loop
      vertex -0.404785 -3.86383 -5
      vertex -0.496475 -3.99527 5
      vertex -0.496475 -3.99527 -5
    endloop
  endfacet
  facet normal 0.855158 -0.518368 0
    outer loop
      vertex -0.404785 -3.86383 5
      vertex -0.321716 -3.72679 -5
      vertex -0.321716 -3.72679 5
    endloop
  endfacet
  facet normal 0.855158 -0.518368 0
    outer loop
      vertex -0.321716 -3.72679 -5
      vertex -0.404785 -3.86383 5
      vertex -0.404785 -3.86383 -5
    endloop
  endfacet
  facet normal 0.886603 -0.462532 0
    outer loop
      vertex -0.321716 -3.72679 5
      vertex -0.247589 -3.5847 -5
      vertex -0.247589 -3.5847 5
    endloop
  endfacet
  facet normal 0.886603 -0.462532 0
    outer loop
      vertex -0.247589 -3.5847 -5
      vertex -0.321716 -3.72679 5
      vertex -0.321716 -3.72679 -5
    endloop
  endfacet
  facet normal 0.914387 -0.404841 0
    outer loop
      vertex -0.247589 -3.5847 5
      vertex -0.182709 -3.43816 -5
      vertex -0.182709 -3.43816 5
    endloop
  endfacet
  facet normal 0.914387 -0.404841 0
    outer loop
      vertex -0.182709 -3.43816 -5
      vertex -0.247589 -3.5847 5
      vertex -0.247589 -3.5847 -5
    endloop
  endfacet
  facet normal 0.93847 -0.34536 0
    outer loop
      vertex -0.182709 -3.43816 5
      vertex -0.127365 -3.28777 -5
      vertex -0.127365 -3.28777 5
    endloop
  endfacet
  facet normal 0.93847 -0.34536 0
    outer loop
      vertex -0.127365 -3.28777 -5
      vertex -0.182709 -3.43816 5
      vertex -0.182709 -3.43816 -5
    endloop
  endfacet
  facet normal 0.958684 -0.284474 0
    outer loop
      vertex -0.127365 -3.28777 5
      vertex -0.0817719 -3.13412 -5
      vertex -0.0817719 -3.13412 5
    endloop
  endfacet
  facet normal 0.958684 -0.284474 0
    outer loop
      vertex -0.0817719 -3.13412 -5
      vertex -0.127365 -3.28777 5
      vertex -0.127365 -3.28777 -5
    endloop
  endfacet
  facet normal 0.974926 -0.22253 0
    outer loop
      vertex -0.0817719 -3.13412 5
      vertex -0.0511586 -3 -5
      vertex -0.0511586 -3 5
    endloop
  endfacet
  facet normal 0.974926 -0.22253 0
    outer loop
      vertex -0.0511586 -3 -5
      vertex -0.0817719 -3.13412 5
      vertex -0.0817719 -3.13412 -5
    endloop
  endfacet
  facet normal -0.974926 -0.22253 0
    outer loop
      vertex 0.0817566 -3.13412 -5
      vertex 0.0511433 -3 5
      vertex 0.0511433 -3 -5
    endloop
  endfacet
  facet normal -0.974926 -0.22253 0
    outer loop
      vertex 0.0511433 -3 5
      vertex 0.0817566 -3.13412 -5
      vertex 0.0817566 -3.13412 5
    endloop
  endfacet
  facet normal -0.958683 -0.284475 0
    outer loop
      vertex 0.12735 -3.28777 -5
      vertex 0.0817566 -3.13412 5
      vertex 0.0817566 -3.13412 -5
    endloop
  endfacet
  facet normal -0.958683 -0.284475 0
    outer loop
      vertex 0.0817566 -3.13412 5
      vertex 0.12735 -3.28777 -5
      vertex 0.12735 -3.28777 5
    endloop
  endfacet
  facet normal -0.938472 -0.345355 0
    outer loop
      vertex 0.182693 -3.43816 -5
      vertex 0.12735 -3.28777 5
      vertex 0.12735 -3.28777 -5
    endloop
  endfacet
  facet normal -0.938472 -0.345355 0
    outer loop
      vertex 0.12735 -3.28777 5
      vertex 0.182693 -3.43816 -5
      vertex 0.182693 -3.43816 5
    endloop
  endfacet
  facet normal -0.914385 -0.404846 0
    outer loop
      vertex 0.247574 -3.5847 -5
      vertex 0.182693 -3.43816 5
      vertex 0.182693 -3.43816 -5
    endloop
  endfacet
  facet normal -0.914385 -0.404846 0
    outer loop
      vertex 0.182693 -3.43816 5
      vertex 0.247574 -3.5847 -5
      vertex 0.247574 -3.5847 5
    endloop
  endfacet
  facet normal -0.886603 -0.462532 0
    outer loop
      vertex 0.321701 -3.72679 -5
      vertex 0.247574 -3.5847 5
      vertex 0.247574 -3.5847 -5
    endloop
  endfacet
  facet normal -0.886603 -0.462532 0
    outer loop
      vertex 0.247574 -3.5847 5
      vertex 0.321701 -3.72679 -5
      vertex 0.321701 -3.72679 5
    endloop
  endfacet
  facet normal -0.855158 -0.518368 0
    outer loop
      vertex 0.40477 -3.86383 -5
      vertex 0.321701 -3.72679 5
      vertex 0.321701 -3.72679 -5
    endloop
  endfacet
  facet normal -0.855158 -0.518368 0
    outer loop
      vertex 0.321701 -3.72679 5
      vertex 0.40477 -3.86383 -5
      vertex 0.40477 -3.86383 5
    endloop
  endfacet
  facet normal -0.820163 -0.57213 0
    outer loop
      vertex 0.49646 -3.99527 -5
      vertex 0.40477 -3.86383 5
      vertex 0.40477 -3.86383 -5
    endloop
  endfacet
  facet normal -0.820163 -0.57213 0
    outer loop
      vertex 0.40477 -3.86383 5
      vertex 0.49646 -3.99527 -5
      vertex 0.49646 -3.99527 5
    endloop
  endfacet
  facet normal -0.781833 -0.623488 0
    outer loop
      vertex 0.596375 -4.12056 -5
      vertex 0.49646 -3.99527 5
      vertex 0.49646 -3.99527 -5
    endloop
  endfacet
  facet normal -0.781833 -0.623488 0
    outer loop
      vertex 0.49646 -3.99527 5
      vertex 0.596375 -4.12056 -5
      vertex 0.596375 -4.12056 5
    endloop
  endfacet
  facet normal -0.74029 -0.672288 0
    outer loop
      vertex 0.704117 -4.2392 -5
      vertex 0.596375 -4.12056 5
      vertex 0.596375 -4.12056 -5
    endloop
  endfacet
  facet normal -0.74029 -0.672288 0
    outer loop
      vertex 0.596375 -4.12056 5
      vertex 0.704117 -4.2392 -5
      vertex 0.704117 -4.2392 5
    endloop
  endfacet
  facet normal -0.695669 -0.718363 0
    outer loop
      vertex 0.704117 -4.2392 -5
      vertex 0.819244 -4.35069 5
      vertex 0.704117 -4.2392 5
    endloop
  endfacet
  facet normal -0.695669 -0.718363 -0
    outer loop
      vertex 0.819244 -4.35069 5
      vertex 0.704117 -4.2392 -5
      vertex 0.819244 -4.35069 -5
    endloop
  endfacet
  facet normal -0.648223 -0.76145 0
    outer loop
      vertex 0.819244 -4.35069 -5
      vertex 0.941269 -4.45457 5
      vertex 0.819244 -4.35069 5
    endloop
  endfacet
  facet normal -0.648223 -0.76145 -0
    outer loop
      vertex 0.941269 -4.45457 5
      vertex 0.819244 -4.35069 -5
      vertex 0.941269 -4.45457 -5
    endloop
  endfacet
  facet normal -0.598148 -0.801385 0
    outer loop
      vertex 0.941269 -4.45457 -5
      vertex 1.0697 -4.55043 5
      vertex 0.941269 -4.45457 5
    endloop
  endfacet
  facet normal -0.598148 -0.801385 -0
    outer loop
      vertex 1.0697 -4.55043 5
      vertex 0.941269 -4.45457 -5
      vertex 1.0697 -4.55043 -5
    endloop
  endfacet
  facet normal -0.545508 -0.838106 0
    outer loop
      vertex 1.0697 -4.55043 -5
      vertex 1.20401 -4.63785 5
      vertex 1.0697 -4.55043 5
    endloop
  endfacet
  facet normal -0.545508 -0.838106 -0
    outer loop
      vertex 1.20401 -4.63785 5
      vertex 1.0697 -4.55043 -5
      vertex 1.20401 -4.63785 -5
    endloop
  endfacet
  facet normal -0.490726 -0.871314 0
    outer loop
      vertex 1.20401 -4.63785 -5
      vertex 1.34364 -4.71649 5
      vertex 1.20401 -4.63785 5
    endloop
  endfacet
  facet normal -0.490726 -0.871314 -0
    outer loop
      vertex 1.34364 -4.71649 5
      vertex 1.20401 -4.63785 -5
      vertex 1.34364 -4.71649 -5
    endloop
  endfacet
  facet normal -0.433887 -0.900967 0
    outer loop
      vertex 1.34364 -4.71649 -5
      vertex 1.48804 -4.78603 5
      vertex 1.34364 -4.71649 5
    endloop
  endfacet
  facet normal -0.433887 -0.900967 -0
    outer loop
      vertex 1.48804 -4.78603 5
      vertex 1.34364 -4.71649 -5
      vertex 1.48804 -4.78603 -5
    endloop
  endfacet
  facet normal -0.375229 -0.926932 0
    outer loop
      vertex 1.48804 -4.78603 -5
      vertex 1.63658 -4.84616 5
      vertex 1.48804 -4.78603 5
    endloop
  endfacet
  facet normal -0.375229 -0.926932 -0
    outer loop
      vertex 1.63658 -4.84616 5
      vertex 1.48804 -4.78603 -5
      vertex 1.63658 -4.84616 -5
    endloop
  endfacet
  facet normal -0.315161 -0.949038 0
    outer loop
      vertex 1.63658 -4.84616 -5
      vertex 1.78868 -4.89667 5
      vertex 1.63658 -4.84616 5
    endloop
  endfacet
  facet normal -0.315161 -0.949038 -0
    outer loop
      vertex 1.78868 -4.89667 5
      vertex 1.63658 -4.84616 -5
      vertex 1.78868 -4.89667 -5
    endloop
  endfacet
  facet normal -0.253649 -0.967296 0
    outer loop
      vertex 1.78868 -4.89667 -5
      vertex 1.9437 -4.93732 5
      vertex 1.78868 -4.89667 5
    endloop
  endfacet
  facet normal -0.253649 -0.967296 -0
    outer loop
      vertex 1.9437 -4.93732 5
      vertex 1.78868 -4.89667 -5
      vertex 1.9437 -4.93732 -5
    endloop
  endfacet
  facet normal -0.191073 -0.981576 0
    outer loop
      vertex 1.9437 -4.93732 -5
      vertex 2.101 -4.96794 5
      vertex 1.9437 -4.93732 5
    endloop
  endfacet
  facet normal -0.191073 -0.981576 -0
    outer loop
      vertex 2.101 -4.96794 5
      vertex 1.9437 -4.93732 -5
      vertex 2.101 -4.96794 -5
    endloop
  endfacet
  facet normal -0.127866 -0.991791 0
    outer loop
      vertex 2.101 -4.96794 -5
      vertex 2.25993 -4.98843 5
      vertex 2.101 -4.96794 5
    endloop
  endfacet
  facet normal -0.127866 -0.991791 -0
    outer loop
      vertex 2.25993 -4.98843 5
      vertex 2.101 -4.96794 -5
      vertex 2.25993 -4.98843 -5
    endloop
  endfacet
  facet normal -0.0640836 -0.997945 0
    outer loop
      vertex 2.25993 -4.98843 -5
      vertex 2.41986 -4.9987 5
      vertex 2.25993 -4.98843 5
    endloop
  endfacet
  facet normal -0.0640836 -0.997945 -0
    outer loop
      vertex 2.41986 -4.9987 5
      vertex 2.25993 -4.98843 -5
      vertex 2.41986 -4.9987 -5
    endloop
  endfacet
  facet normal 0 -1 0
    outer loop
      vertex 2.41986 -4.9987 -5
      vertex 2.58012 -4.9987 5
      vertex 2.41986 -4.9987 5
    endloop
  endfacet
  facet normal 0 -1 -0
    outer loop
      vertex 2.58012 -4.9987 5
      vertex 2.41986 -4.9987 -5
      vertex 2.58012 -4.9987 -5
    endloop
  endfacet
  facet normal 0.0640836 -0.997945 0
    outer loop
      vertex 2.58012 -4.9987 -5
      vertex 2.74005 -4.98843 5
      vertex 2.58012 -4.9987 5
    endloop
  endfacet
  facet normal 0.0640836 -0.997945 0
    outer loop
      vertex 2.74005 -4.98843 5
      vertex 2.58012 -4.9987 -5
      vertex 2.74005 -4.98843 -5
    endloop
  endfacet
  facet normal 0.127858 -0.991792 0
    outer loop
      vertex 2.74005 -4.98843 -5
      vertex 2.89899 -4.96794 5
      vertex 2.74005 -4.98843 5
    endloop
  endfacet
  facet normal 0.127858 -0.991792 0
    outer loop
      vertex 2.89899 -4.96794 5
      vertex 2.74005 -4.98843 -5
      vertex 2.89899 -4.96794 -5
    endloop
  endfacet
  facet normal 0.191073 -0.981576 0
    outer loop
      vertex 2.89899 -4.96794 -5
      vertex 3.05629 -4.93732 5
      vertex 2.89899 -4.96794 5
    endloop
  endfacet
  facet normal 0.191073 -0.981576 0
    outer loop
      vertex 3.05629 -4.93732 5
      vertex 2.89899 -4.96794 -5
      vertex 3.05629 -4.93732 -5
    endloop
  endfacet
  facet normal 0.253664 -0.967292 0
    outer loop
      vertex 3.05629 -4.93732 -5
      vertex 3.2113 -4.89667 5
      vertex 3.05629 -4.93732 5
    endloop
  endfacet
  facet normal 0.253664 -0.967292 0
    outer loop
      vertex 3.2113 -4.89667 5
      vertex 3.05629 -4.93732 -5
      vertex 3.2113 -4.89667 -5
    endloop
  endfacet
  facet normal 0.315161 -0.949038 0
    outer loop
      vertex 3.2113 -4.89667 -5
      vertex 3.3634 -4.84616 5
      vertex 3.2113 -4.89667 5
    endloop
  endfacet
  facet normal 0.315161 -0.949038 0
    outer loop
      vertex 3.3634 -4.84616 5
      vertex 3.2113 -4.89667 -5
      vertex 3.3634 -4.84616 -5
    endloop
  endfacet
  facet normal 0.375207 -0.926941 0
    outer loop
      vertex 3.3634 -4.84616 -5
      vertex 3.51195 -4.78603 5
      vertex 3.3634 -4.84616 5
    endloop
  endfacet
  facet normal 0.375207 -0.926941 0
    outer loop
      vertex 3.51195 -4.78603 5
      vertex 3.3634 -4.84616 -5
      vertex 3.51195 -4.78603 -5
    endloop
  endfacet
  facet normal 0.433911 -0.900956 0
    outer loop
      vertex 3.51195 -4.78603 -5
      vertex 3.65634 -4.71649 5
      vertex 3.51195 -4.78603 5
    endloop
  endfacet
  facet normal 0.433911 -0.900956 0
    outer loop
      vertex 3.65634 -4.71649 5
      vertex 3.51195 -4.78603 -5
      vertex 3.65634 -4.71649 -5
    endloop
  endfacet
  facet normal 0.490726 -0.871314 0
    outer loop
      vertex 3.65634 -4.71649 -5
      vertex 3.79597 -4.63785 5
      vertex 3.65634 -4.71649 5
    endloop
  endfacet
  facet normal 0.490726 -0.871314 0
    outer loop
      vertex 3.79597 -4.63785 5
      vertex 3.65634 -4.71649 -5
      vertex 3.79597 -4.63785 -5
    endloop
  endfacet
  facet normal 0.545508 -0.838106 0
    outer loop
      vertex 3.79597 -4.63785 -5
      vertex 3.93028 -4.55043 5
      vertex 3.79597 -4.63785 5
    endloop
  endfacet
  facet normal 0.545508 -0.838106 0
    outer loop
      vertex 3.93028 -4.55043 5
      vertex 3.79597 -4.63785 -5
      vertex 3.93028 -4.55043 -5
    endloop
  endfacet
  facet normal 0.598121 -0.801405 0
    outer loop
      vertex 3.93028 -4.55043 -5
      vertex 4.05872 -4.45457 5
      vertex 3.93028 -4.55043 5
    endloop
  endfacet
  facet normal 0.598121 -0.801405 0
    outer loop
      vertex 4.05872 -4.45457 5
      vertex 3.93028 -4.55043 -5
      vertex 4.05872 -4.45457 -5
    endloop
  endfacet
  facet normal 0.648239 -0.761437 0
    outer loop
      vertex 4.05872 -4.45457 -5
      vertex 4.18074 -4.35069 5
      vertex 4.05872 -4.45457 5
    endloop
  endfacet
  facet normal 0.648239 -0.761437 0
    outer loop
      vertex 4.18074 -4.35069 5
      vertex 4.05872 -4.45457 -5
      vertex 4.18074 -4.35069 -5
    endloop
  endfacet
  facet normal 0.695659 -0.718372 0
    outer loop
      vertex 4.18074 -4.35069 -5
      vertex 4.29587 -4.2392 5
      vertex 4.18074 -4.35069 5
    endloop
  endfacet
  facet normal 0.695659 -0.718372 0
    outer loop
      vertex 4.29587 -4.2392 5
      vertex 4.18074 -4.35069 -5
      vertex 4.29587 -4.2392 -5
    endloop
  endfacet
  facet normal 0.740296 -0.672281 0
    outer loop
      vertex 4.29587 -4.2392 5
      vertex 4.40361 -4.12056 -5
      vertex 4.40361 -4.12056 5
    endloop
  endfacet
  facet normal 0.740296 -0.672281 0
    outer loop
      vertex 4.40361 -4.12056 -5
      vertex 4.29587 -4.2392 5
      vertex 4.29587 -4.2392 -5
    endloop
  endfacet
  facet normal 0.781848 -0.623469 0
    outer loop
      vertex 4.40361 -4.12056 5
      vertex 4.50352 -3.99527 -5
      vertex 4.50352 -3.99527 5
    endloop
  endfacet
  facet normal 0.781848 -0.623469 0
    outer loop
      vertex 4.50352 -3.99527 -5
      vertex 4.40361 -4.12056 5
      vertex 4.40361 -4.12056 -5
    endloop
  endfacet
  facet normal 0.820163 -0.57213 0
    outer loop
      vertex 4.50352 -3.99527 5
      vertex 4.59521 -3.86383 -5
      vertex 4.59521 -3.86383 5
    endloop
  endfacet
  facet normal 0.820163 -0.57213 0
    outer loop
      vertex 4.59521 -3.86383 -5
      vertex 4.50352 -3.99527 5
      vertex 4.50352 -3.99527 -5
    endloop
  endfacet
  facet normal 0.855155 -0.518372 0
    outer loop
      vertex 4.59521 -3.86383 5
      vertex 4.67828 -3.72679 -5
      vertex 4.67828 -3.72679 5
    endloop
  endfacet
  facet normal 0.855155 -0.518372 0
    outer loop
      vertex 4.67828 -3.72679 -5
      vertex 4.59521 -3.86383 5
      vertex 4.59521 -3.86383 -5
    endloop
  endfacet
  facet normal 0.886595 -0.462547 0
    outer loop
      vertex 4.67828 -3.72679 5
      vertex 4.75241 -3.5847 -5
      vertex 4.75241 -3.5847 5
    endloop
  endfacet
  facet normal 0.886595 -0.462547 0
    outer loop
      vertex 4.75241 -3.5847 -5
      vertex 4.67828 -3.72679 5
      vertex 4.67828 -3.72679 -5
    endloop
  endfacet
  facet normal 0.914387 -0.404841 0
    outer loop
      vertex 4.75241 -3.5847 5
      vertex 4.81729 -3.43816 -5
      vertex 4.81729 -3.43816 5
    endloop
  endfacet
  facet normal 0.914387 -0.404841 0
    outer loop
      vertex 4.81729 -3.43816 -5
      vertex 4.75241 -3.5847 5
      vertex 4.75241 -3.5847 -5
    endloop
  endfacet
  facet normal 0.938478 -0.345338 0
    outer loop
      vertex 4.81729 -3.43816 5
      vertex 4.87263 -3.28777 -5
      vertex 4.87263 -3.28777 5
    endloop
  endfacet
  facet normal 0.938478 -0.345338 0
    outer loop
      vertex 4.87263 -3.28777 -5
      vertex 4.81729 -3.43816 5
      vertex 4.81729 -3.43816 -5
    endloop
  endfacet
  facet normal 0.958672 -0.284513 0
    outer loop
      vertex 4.87263 -3.28777 5
      vertex 4.91823 -3.13412 -5
      vertex 4.91823 -3.13412 5
    endloop
  endfacet
  facet normal 0.958672 -0.284513 0
    outer loop
      vertex 4.91823 -3.13412 -5
      vertex 4.87263 -3.28777 5
      vertex 4.87263 -3.28777 -5
    endloop
  endfacet
  facet normal 0.974931 -0.222507 0
    outer loop
      vertex 4.91823 -3.13412 5
      vertex 4.94884 -3 -5
      vertex 4.94884 -3 5
    endloop
  endfacet
  facet normal 0.974931 -0.222507 0
    outer loop
      vertex 4.94884 -3 -5
      vertex 4.91823 -3.13412 5
      vertex 4.91823 -3.13412 -5
    endloop
  endfacet
  facet normal -0.999487 -0.0320121 0
    outer loop
      vertex -4.99487 -2.66017 -5
      vertex -5 -2.5 5
      vertex -5 -2.5 -5
    endloop
  endfacet
  facet normal -0.999487 -0.0320121 0
    outer loop
      vertex -5 -2.5 5
      vertex -4.99487 -2.66017 -5
      vertex -4.99487 -2.66017 5
    endloop
  endfacet
endsolid OpenSCAD_Model
