solid OpenSCAD_Model
  facet normal -0 0 -1
    outer loop
      vertex -2.49088 -0.21344 -5
      vertex -3 -1 -5
      vertex -2.49944 0.0534363 -5
    endloop
  endfacet
  facet normal -0 0 -1
    outer loop
      vertex -2.4539 -0.47789 -5
      vertex -3 -1 -5
      vertex -2.49088 -0.21344 -5
    endloop
  endfacet
  facet normal -0 0 -1
    outer loop
      vertex -2.38895 -0.736877 -5
      vertex -3 -1 -5
      vertex -2.4539 -0.47789 -5
    endloop
  endfacet
  facet normal -0 0 -1
    outer loop
      vertex -2.29672 -0.987473 -5
      vertex -3 -1 -5
      vertex -2.38895 -0.736877 -5
    endloop
  endfacet
  facet normal 0 0 -1
    outer loop
      vertex -3 -1 -5
      vertex -2.29672 -0.987473 -5
      vertex -2.29052 -1 -5
    endloop
  endfacet
  facet normal 0 0 -1
    outer loop
      vertex -3 1 -5
      vertex -2.49944 0.0534363 -5
      vertex -3 -1 -5
    endloop
  endfacet
  facet normal 0 0 -1
    outer loop
      vertex -2.49944 0.0534363 -5
      vertex -3 1 -5
      vertex -2.47948 0.319702 -5
    endloop
  endfacet
  facet normal 0 0 -1
    outer loop
      vertex -2.47948 0.319702 -5
      vertex -3 1 -5
      vertex -2.43124 0.582321 -5
    endloop
  endfacet
  facet normal 0 0 -1
    outer loop
      vertex -2.35527 0.838303 -5
      vertex -3 1 -5
      vertex -2.28778 1 -5
    endloop
  endfacet
  facet normal 0 0 -1
    outer loop
      vertex -2.43124 0.582321 -5
      vertex -3 1 -5
      vertex -2.35527 0.838303 -5
    endloop
  endfacet
  facet normal 0 0 -1
    outer loop
      vertex -2.94757 -4.03879 -5
      vertex -1.73205 -3 -5
      vertex -2.5 -4.33012 -5
    endloop
  endfacet
  facet normal 0 0 -1
    outer loop
      vertex -2.94757 -4.03879 -5
      vertex -3 -3 -5
      vertex -1.73205 -3 -5
    endloop
  endfacet
  facet normal 0 0 -1
    outer loop
      vertex -4.3566 -2.45358 -5
      vertex -3 -1 -5
      vertex -3 -3 -5
    endloop
  endfacet
  facet normal 0 0 -1
    outer loop
      vertex -4.90781 -0.95578 -5
      vertex -3 -1 -5
      vertex -4.77788 -1.47377 -5
    endloop
  endfacet
  facet normal 0 -0 -1
    outer loop
      vertex -4.95895 0.639389 -5
      vertex -3 1 -5
      vertex -4.99887 0.106857 -5
    endloop
  endfacet
  facet normal 0 0 -1
    outer loop
      vertex -3.36151 -3.70139 -5
      vertex -3 -3 -5
      vertex -2.94757 -4.03879 -5
    endloop
  endfacet
  facet normal 0 0 -1
    outer loop
      vertex -3.73711 -3.32175 -5
      vertex -3 -3 -5
      vertex -3.36151 -3.70139 -5
    endloop
  endfacet
  facet normal 0 0 -1
    outer loop
      vertex -3 3 -5
      vertex -3.59175 3.47842 -5
      vertex -3.20029 3.84166 -5
    endloop
  endfacet
  facet normal 0 0 -1
    outer loop
      vertex -4.07007 -2.90424 -5
      vertex -3 -3 -5
      vertex -3.73711 -3.32175 -5
    endloop
  endfacet
  facet normal 0 0 -1
    outer loop
      vertex -3 3 -5
      vertex -3.94226 3.0755 -5
      vertex -3.59175 3.47842 -5
    endloop
  endfacet
  facet normal 0 0 -1
    outer loop
      vertex -4.3566 -2.45358 -5
      vertex -3 -3 -5
      vertex -4.07007 -2.90424 -5
    endloop
  endfacet
  facet normal -0 0 -1
    outer loop
      vertex -3 3 -5
      vertex -4.24779 2.63751 -5
      vertex -3.94226 3.0755 -5
    endloop
  endfacet
  facet normal 0 0 -1
    outer loop
      vertex -3 -1 -5
      vertex -4.3566 -2.45358 -5
      vertex -4.59343 -1.97495 -5
    endloop
  endfacet
  facet normal 0 0 -1
    outer loop
      vertex -3 1 -5
      vertex -4.24779 2.63751 -5
      vertex -3 3 -5
    endloop
  endfacet
  facet normal 0 0 -1
    outer loop
      vertex -3 -1 -5
      vertex -4.59343 -1.97495 -5
      vertex -4.77788 -1.47377 -5
    endloop
  endfacet
  facet normal 0 -0 -1
    outer loop
      vertex -4.24779 2.63751 -5
      vertex -3 1 -5
      vertex -4.50485 2.16943 -5
    endloop
  endfacet
  facet normal 0 0 -1
    outer loop
      vertex -4.98175 -0.426895 -5
      vertex -3 -1 -5
      vertex -4.90781 -0.95578 -5
    endloop
  endfacet
  facet normal 0 -0 -1
    outer loop
      vertex -4.50485 2.16943 -5
      vertex -3 1 -5
      vertex -4.71054 1.67659 -5
    endloop
  endfacet
  facet normal 0 0 -1
    outer loop
      vertex -4.99887 0.106857 -5
      vertex -3 -1 -5
      vertex -4.98175 -0.426895 -5
    endloop
  endfacet
  facet normal 0 -0 -1
    outer loop
      vertex -4.71054 1.67659 -5
      vertex -3 1 -5
      vertex -4.86249 1.16464 -5
    endloop
  endfacet
  facet normal 0 0 -1
    outer loop
      vertex -3 -1 -5
      vertex -4.99887 0.106857 -5
      vertex -3 1 -5
    endloop
  endfacet
  facet normal 0 -0 -1
    outer loop
      vertex -4.86249 1.16464 -5
      vertex -3 1 -5
      vertex -4.95895 0.639389 -5
    endloop
  endfacet
  facet normal 0 0 -1
    outer loop
      vertex 3.99491 3 -5
      vertex 3.59174 3.47842 -5
      vertex 3.94225 3.0755 -5
    endloop
  endfacet
  facet normal 0 0 -1
    outer loop
      vertex -3 3 -5
      vertex 3.59174 3.47842 -5
      vertex 3.99491 3 -5
    endloop
  endfacet
  facet normal -0 0 -1
    outer loop
      vertex 3.59174 3.47842 -5
      vertex -3 3 -5
      vertex 3.20027 3.84166 -5
    endloop
  endfacet
  facet normal -0 0 -1
    outer loop
      vertex 3.20027 3.84166 -5
      vertex -3 3 -5
      vertex 2.77229 4.16106 -5
    endloop
  endfacet
  facet normal -0 0 -1
    outer loop
      vertex 2.77229 4.16106 -5
      vertex -3 3 -5
      vertex 2.31268 4.433 -5
    endloop
  endfacet
  facet normal -0 0 -1
    outer loop
      vertex 2.31268 4.433 -5
      vertex -3 3 -5
      vertex 1.82669 4.65437 -5
    endloop
  endfacet
  facet normal -0 0 -1
    outer loop
      vertex 1.82669 4.65437 -5
      vertex -3 3 -5
      vertex 1.31987 4.82265 -5
    endloop
  endfacet
  facet normal -0 0 -1
    outer loop
      vertex 1.31987 4.82265 -5
      vertex -3 3 -5
      vertex 0.797989 4.93591 -5
    endloop
  endfacet
  facet normal -0 0 -1
    outer loop
      vertex 0.797989 4.93591 -5
      vertex -3 3 -5
      vertex 0.267014 4.99287 -5
    endloop
  endfacet
  facet normal -0 0 -1
    outer loop
      vertex 0.267014 4.99287 -5
      vertex -3 3 -5
      vertex -0.267029 4.99287 -5
    endloop
  endfacet
  facet normal 0 0 -1
    outer loop
      vertex -0.267029 4.99287 -5
      vertex -3 3 -5
      vertex -0.798004 4.93591 -5
    endloop
  endfacet
  facet normal 0 0 -1
    outer loop
      vertex -0.798004 4.93591 -5
      vertex -3 3 -5
      vertex -1.31989 4.82265 -5
    endloop
  endfacet
  facet normal 0 0 -1
    outer loop
      vertex -1.31989 4.82265 -5
      vertex -3 3 -5
      vertex -1.82671 4.65437 -5
    endloop
  endfacet
  facet normal 0 0 -1
    outer loop
      vertex -1.82671 4.65437 -5
      vertex -3 3 -5
      vertex -2.3127 4.433 -5
    endloop
  endfacet
  facet normal 0 0 -1
    outer loop
      vertex -2.3127 4.433 -5
      vertex -3 3 -5
      vertex -2.77231 4.16106 -5
    endloop
  endfacet
  facet normal 0 0 -1
    outer loop
      vertex -2.77231 4.16106 -5
      vertex -3 3 -5
      vertex -3.20029 3.84166 -5
    endloop
  endfacet
  facet normal 0 0 -1
    outer loop
      vertex 2.5 -1 -5
      vertex 2.49942 0.0534363 -5
      vertex 2.5 1 -5
    endloop
  endfacet
  facet normal 0 0 -1
    outer loop
      vertex 2.5 -1 -5
      vertex 2.49086 -0.21344 -5
      vertex 2.49942 0.0534363 -5
    endloop
  endfacet
  facet normal 0 0 -1
    outer loop
      vertex 2.5 -1 -5
      vertex 2.45389 -0.47789 -5
      vertex 2.49086 -0.21344 -5
    endloop
  endfacet
  facet normal 0 0 -1
    outer loop
      vertex 2.5 -1 -5
      vertex 2.38893 -0.736877 -5
      vertex 2.45389 -0.47789 -5
    endloop
  endfacet
  facet normal 0 0 -1
    outer loop
      vertex 2.5 -1 -5
      vertex 2.29671 -0.987473 -5
      vertex 2.38893 -0.736877 -5
    endloop
  endfacet
  facet normal 0 -0 -1
    outer loop
      vertex 2.29671 -0.987473 -5
      vertex 2.5 -1 -5
      vertex 2.29051 -1 -5
    endloop
  endfacet
  facet normal 0 0 -1
    outer loop
      vertex 2.47946 0.319702 -5
      vertex 2.5 1 -5
      vertex 2.49942 0.0534363 -5
    endloop
  endfacet
  facet normal 0 0 -1
    outer loop
      vertex 2.43123 0.582321 -5
      vertex 2.5 1 -5
      vertex 2.47946 0.319702 -5
    endloop
  endfacet
  facet normal 0 0 -1
    outer loop
      vertex 2.35526 0.838303 -5
      vertex 2.5 1 -5
      vertex 2.43123 0.582321 -5
    endloop
  endfacet
  facet normal -0 0 -1
    outer loop
      vertex 2.5 1 -5
      vertex 2.35526 0.838303 -5
      vertex 2.28777 1 -5
    endloop
  endfacet
  facet normal 0 0 -1
    outer loop
      vertex 1.73205 -3 -5
      vertex 3.73709 -3.32175 -5
      vertex 3.3615 -3.70139 -5
    endloop
  endfacet
  facet normal 0 0 -1
    outer loop
      vertex 1.73205 -3 -5
      vertex 3.3615 -3.70139 -5
      vertex 2.94756 -4.03879 -5
    endloop
  endfacet
  facet normal 0 0 -1
    outer loop
      vertex 1.73205 -3 -5
      vertex 2.94756 -4.03879 -5
      vertex 2.5 -4.33012 -5
    endloop
  endfacet
  facet normal 0 0 -1
    outer loop
      vertex 3.73709 -3.32175 -5
      vertex 1.73205 -3 -5
      vertex 3.99368 -3 -5
    endloop
  endfacet
  facet normal 0 0 1
    outer loop
      vertex 3.59174 3.47842 5
      vertex 3.99491 3 5
      vertex 3.94225 3.0755 5
    endloop
  endfacet
  facet normal 0 0 1
    outer loop
      vertex -3 3 5
      vertex 3.59174 3.47842 5
      vertex 3.20027 3.84166 5
    endloop
  endfacet
  facet normal 0 0 1
    outer loop
      vertex -3 3 5
      vertex 3.20027 3.84166 5
      vertex 2.77229 4.16106 5
    endloop
  endfacet
  facet normal 0 0 1
    outer loop
      vertex -3 3 5
      vertex 2.77229 4.16106 5
      vertex 2.31268 4.433 5
    endloop
  endfacet
  facet normal 0 0 1
    outer loop
      vertex -3 3 5
      vertex 2.31268 4.433 5
      vertex 1.82669 4.65437 5
    endloop
  endfacet
  facet normal 0 0 1
    outer loop
      vertex -3 3 5
      vertex 1.82669 4.65437 5
      vertex 1.31987 4.82265 5
    endloop
  endfacet
  facet normal 0 0 1
    outer loop
      vertex -3 3 5
      vertex 1.31987 4.82265 5
      vertex 0.797989 4.93591 5
    endloop
  endfacet
  facet normal 0 0 1
    outer loop
      vertex -3 3 5
      vertex 0.797989 4.93591 5
      vertex 0.267014 4.99287 5
    endloop
  endfacet
  facet normal 0 0 1
    outer loop
      vertex -3 3 5
      vertex 0.267014 4.99287 5
      vertex -0.267029 4.99287 5
    endloop
  endfacet
  facet normal 0 0 1
    outer loop
      vertex -3 3 5
      vertex -0.267029 4.99287 5
      vertex -0.798004 4.93591 5
    endloop
  endfacet
  facet normal 0 0 1
    outer loop
      vertex -3 3 5
      vertex -0.798004 4.93591 5
      vertex -1.31989 4.82265 5
    endloop
  endfacet
  facet normal 0 0 1
    outer loop
      vertex -3 3 5
      vertex -1.31989 4.82265 5
      vertex -1.82671 4.65437 5
    endloop
  endfacet
  facet normal 0 0 1
    outer loop
      vertex -3 3 5
      vertex -1.82671 4.65437 5
      vertex -2.3127 4.433 5
    endloop
  endfacet
  facet normal 0 0 1
    outer loop
      vertex -3 3 5
      vertex -2.3127 4.433 5
      vertex -2.77231 4.16106 5
    endloop
  endfacet
  facet normal 0 0 1
    outer loop
      vertex 3.59174 3.47842 5
      vertex -3 3 5
      vertex 3.99491 3 5
    endloop
  endfacet
  facet normal -0 0 1
    outer loop
      vertex -4.24779 2.63751 5
      vertex -3 1 5
      vertex -3 3 5
    endloop
  endfacet
  facet normal -0 0 1
    outer loop
      vertex -4.86249 1.16464 5
      vertex -3 1 5
      vertex -4.71054 1.67659 5
    endloop
  endfacet
  facet normal -0 0 1
    outer loop
      vertex -3.59175 3.47842 5
      vertex -3 3 5
      vertex -3.20029 3.84166 5
    endloop
  endfacet
  facet normal -0 0 1
    outer loop
      vertex -3.20029 3.84166 5
      vertex -3 3 5
      vertex -2.77231 4.16106 5
    endloop
  endfacet
  facet normal 0 0 1
    outer loop
      vertex -2.47948 0.319702 5
      vertex -3 1 5
      vertex -2.49944 0.0534363 5
    endloop
  endfacet
  facet normal 0 0 1
    outer loop
      vertex -2.43124 0.582321 5
      vertex -3 1 5
      vertex -2.47948 0.319702 5
    endloop
  endfacet
  facet normal 0 0 1
    outer loop
      vertex -2.35527 0.838303 5
      vertex -3 1 5
      vertex -2.43124 0.582321 5
    endloop
  endfacet
  facet normal -0 0 1
    outer loop
      vertex -3 1 5
      vertex -2.35527 0.838303 5
      vertex -2.28778 1 5
    endloop
  endfacet
  facet normal 0 0 1
    outer loop
      vertex -3 -1 5
      vertex -2.49944 0.0534363 5
      vertex -3 1 5
    endloop
  endfacet
  facet normal 0 0 1
    outer loop
      vertex -2.49944 0.0534363 5
      vertex -3 -1 5
      vertex -2.49088 -0.21344 5
    endloop
  endfacet
  facet normal 0 0 1
    outer loop
      vertex -2.49088 -0.21344 5
      vertex -3 -1 5
      vertex -2.4539 -0.47789 5
    endloop
  endfacet
  facet normal 0 0 1
    outer loop
      vertex -2.29672 -0.987473 5
      vertex -3 -1 5
      vertex -2.29052 -1 5
    endloop
  endfacet
  facet normal 0 0 1
    outer loop
      vertex -2.38895 -0.736877 5
      vertex -3 -1 5
      vertex -2.29672 -0.987473 5
    endloop
  endfacet
  facet normal 0 0 1
    outer loop
      vertex -2.4539 -0.47789 5
      vertex -3 -1 5
      vertex -2.38895 -0.736877 5
    endloop
  endfacet
  facet normal 0 0 1
    outer loop
      vertex -1.73205 -3 5
      vertex -2.94757 -4.03879 5
      vertex -2.5 -4.33012 5
    endloop
  endfacet
  facet normal -0 0 1
    outer loop
      vertex -3 -3 5
      vertex -2.94757 -4.03879 5
      vertex -1.73205 -3 5
    endloop
  endfacet
  facet normal 0 0 1
    outer loop
      vertex -3 -3 5
      vertex -3.36151 -3.70139 5
      vertex -2.94757 -4.03879 5
    endloop
  endfacet
  facet normal -0 0 1
    outer loop
      vertex -3.94226 3.0755 5
      vertex -3 3 5
      vertex -3.59175 3.47842 5
    endloop
  endfacet
  facet normal 0 0 1
    outer loop
      vertex -4.24779 2.63751 5
      vertex -3 3 5
      vertex -3.94226 3.0755 5
    endloop
  endfacet
  facet normal 0 0 1
    outer loop
      vertex -3 -3 5
      vertex -3.73711 -3.32175 5
      vertex -3.36151 -3.70139 5
    endloop
  endfacet
  facet normal 0 0 1
    outer loop
      vertex -3 1 5
      vertex -4.24779 2.63751 5
      vertex -4.50485 2.16943 5
    endloop
  endfacet
  facet normal 0 0 1
    outer loop
      vertex -3 -3 5
      vertex -4.07007 -2.90424 5
      vertex -3.73711 -3.32175 5
    endloop
  endfacet
  facet normal 0 0 1
    outer loop
      vertex -3 1 5
      vertex -4.50485 2.16943 5
      vertex -4.71054 1.67659 5
    endloop
  endfacet
  facet normal 0 0 1
    outer loop
      vertex -3 -3 5
      vertex -4.3566 -2.45358 5
      vertex -4.07007 -2.90424 5
    endloop
  endfacet
  facet normal 0 0 1
    outer loop
      vertex -4.95895 0.639389 5
      vertex -3 1 5
      vertex -4.86249 1.16464 5
    endloop
  endfacet
  facet normal 0 0 1
    outer loop
      vertex -3 -1 5
      vertex -4.3566 -2.45358 5
      vertex -3 -3 5
    endloop
  endfacet
  facet normal 0 0 1
    outer loop
      vertex -4.99887 0.106857 5
      vertex -3 1 5
      vertex -4.95895 0.639389 5
    endloop
  endfacet
  facet normal 0 -0 1
    outer loop
      vertex -4.3566 -2.45358 5
      vertex -3 -1 5
      vertex -4.59343 -1.97495 5
    endloop
  endfacet
  facet normal 0 0 1
    outer loop
      vertex -3 1 5
      vertex -4.99887 0.106857 5
      vertex -3 -1 5
    endloop
  endfacet
  facet normal 0 -0 1
    outer loop
      vertex -4.59343 -1.97495 5
      vertex -3 -1 5
      vertex -4.77788 -1.47377 5
    endloop
  endfacet
  facet normal -0 -0 1
    outer loop
      vertex -4.98175 -0.426895 5
      vertex -3 -1 5
      vertex -4.99887 0.106857 5
    endloop
  endfacet
  facet normal 0 -0 1
    outer loop
      vertex -4.77788 -1.47377 5
      vertex -3 -1 5
      vertex -4.90781 -0.95578 5
    endloop
  endfacet
  facet normal -0 -0 1
    outer loop
      vertex -4.90781 -0.95578 5
      vertex -3 -1 5
      vertex -4.98175 -0.426895 5
    endloop
  endfacet
  facet normal 0 0 1
    outer loop
      vertex 2.5 1 5
      vertex 2.49942 0.0534363 5
      vertex 2.5 -1 5
    endloop
  endfacet
  facet normal 0 0 1
    outer loop
      vertex 2.5 1 5
      vertex 2.47946 0.319702 5
      vertex 2.49942 0.0534363 5
    endloop
  endfacet
  facet normal 0 0 1
    outer loop
      vertex 2.5 1 5
      vertex 2.43123 0.582321 5
      vertex 2.47946 0.319702 5
    endloop
  endfacet
  facet normal 0 0 1
    outer loop
      vertex 2.5 1 5
      vertex 2.35526 0.838303 5
      vertex 2.43123 0.582321 5
    endloop
  endfacet
  facet normal 0 -0 1
    outer loop
      vertex 2.35526 0.838303 5
      vertex 2.5 1 5
      vertex 2.28777 1 5
    endloop
  endfacet
  facet normal -0 0 1
    outer loop
      vertex 2.49086 -0.21344 5
      vertex 2.5 -1 5
      vertex 2.49942 0.0534363 5
    endloop
  endfacet
  facet normal -0 0 1
    outer loop
      vertex 2.45389 -0.47789 5
      vertex 2.5 -1 5
      vertex 2.49086 -0.21344 5
    endloop
  endfacet
  facet normal -0 0 1
    outer loop
      vertex 2.38893 -0.736877 5
      vertex 2.5 -1 5
      vertex 2.45389 -0.47789 5
    endloop
  endfacet
  facet normal -0 0 1
    outer loop
      vertex 2.29671 -0.987473 5
      vertex 2.5 -1 5
      vertex 2.38893 -0.736877 5
    endloop
  endfacet
  facet normal 0 0 1
    outer loop
      vertex 2.5 -1 5
      vertex 2.29671 -0.987473 5
      vertex 2.29051 -1 5
    endloop
  endfacet
  facet normal -0 0 1
    outer loop
      vertex 1.73205 -3 5
      vertex 3.73709 -3.32175 5
      vertex 3.99368 -3 5
    endloop
  endfacet
  facet normal 0 0 1
    outer loop
      vertex 3.73709 -3.32175 5
      vertex 1.73205 -3 5
      vertex 3.3615 -3.70139 5
    endloop
  endfacet
  facet normal 0 0 1
    outer loop
      vertex 3.3615 -3.70139 5
      vertex 1.73205 -3 5
      vertex 2.94756 -4.03879 5
    endloop
  endfacet
  facet normal 0 0 1
    outer loop
      vertex 2.94756 -4.03879 5
      vertex 1.73205 -3 5
      vertex 2.5 -4.33012 5
    endloop
  endfacet
  facet normal 0 1 -0
    outer loop
      vertex -1.73205 -3 -5
      vertex -3 -3 5
      vertex -1.73205 -3 5
    endloop
  endfacet
  facet normal 0 1 0
    outer loop
      vertex -3 -3 5
      vertex -1.73205 -3 -5
      vertex -3 -3 -5
    endloop
  endfacet
  facet normal 0 1 -0
    outer loop
      vertex 3.99368 -3 -5
      vertex 1.73205 -3 5
      vertex 3.99368 -3 5
    endloop
  endfacet
  facet normal 0 1 0
    outer loop
      vertex 1.73205 -3 5
      vertex 3.99368 -3 -5
      vertex 1.73205 -3 -5
    endloop
  endfacet
  facet normal 1 -0 0
    outer loop
      vertex -3 -3 5
      vertex -3 -1 -5
      vertex -3 -1 5
    endloop
  endfacet
  facet normal 1 0 0
    outer loop
      vertex -3 -1 -5
      vertex -3 -3 5
      vertex -3 -3 -5
    endloop
  endfacet
  facet normal 0 -1 0
    outer loop
      vertex -3 -1 -5
      vertex -2.29052 -1 5
      vertex -3 -1 5
    endloop
  endfacet
  facet normal 0 -1 -0
    outer loop
      vertex -2.29052 -1 5
      vertex -3 -1 -5
      vertex -2.29052 -1 -5
    endloop
  endfacet
  facet normal 0 -1 0
    outer loop
      vertex 2.29051 -1 -5
      vertex 2.5 -1 5
      vertex 2.29051 -1 5
    endloop
  endfacet
  facet normal 0 -1 -0
    outer loop
      vertex 2.5 -1 5
      vertex 2.29051 -1 -5
      vertex 2.5 -1 -5
    endloop
  endfacet
  facet normal 1 -0 0
    outer loop
      vertex 2.5 -1 5
      vertex 2.5 1 -5
      vertex 2.5 1 5
    endloop
  endfacet
  facet normal 1 0 0
    outer loop
      vertex 2.5 1 -5
      vertex 2.5 -1 5
      vertex 2.5 -1 -5
    endloop
  endfacet
  facet normal 0 1 -0
    outer loop
      vertex -2.28778 1 -5
      vertex -3 1 5
      vertex -2.28778 1 5
    endloop
  endfacet
  facet normal 0 1 0
    outer loop
      vertex -3 1 5
      vertex -2.28778 1 -5
      vertex -3 1 -5
    endloop
  endfacet
  facet normal 0 1 -0
    outer loop
      vertex 2.5 1 -5
      vertex 2.28777 1 5
      vertex 2.5 1 5
    endloop
  endfacet
  facet normal 0 1 0
    outer loop
      vertex 2.28777 1 5
      vertex 2.5 1 -5
      vertex 2.28777 1 -5
    endloop
  endfacet
  facet normal 1 -0 0
    outer loop
      vertex -3 1 5
      vertex -3 3 -5
      vertex -3 3 5
    endloop
  endfacet
  facet normal 1 0 0
    outer loop
      vertex -3 3 -5
      vertex -3 1 5
      vertex -3 1 -5
    endloop
  endfacet
  facet normal 0 -1 0
    outer loop
      vertex -3 3 -5
      vertex 3.99491 3 5
      vertex -3 3 5
    endloop
  endfacet
  facet normal 0 -1 -0
    outer loop
      vertex 3.99491 3 5
      vertex -3 3 -5
      vertex 3.99491 3 -5
    endloop
  endfacet
  facet normal -0.990368 -0.138457 0
    outer loop
      vertex -4.90781 -0.95578 -5
      vertex -4.98175 -0.426895 5
      vertex -4.98175 -0.426895 -5
    endloop
  endfacet
  facet normal -0.990368 -0.138457 0
    outer loop
      vertex -4.98175 -0.426895 5
      vertex -4.90781 -0.95578 -5
      vertex -4.90781 -0.95578 5
    endloop
  endfacet
  facet normal -0.969952 -0.243298 0
    outer loop
      vertex -4.77788 -1.47377 -5
      vertex -4.90781 -0.95578 5
      vertex -4.90781 -0.95578 -5
    endloop
  endfacet
  facet normal -0.969952 -0.243298 0
    outer loop
      vertex -4.90781 -0.95578 5
      vertex -4.77788 -1.47377 -5
      vertex -4.77788 -1.47377 5
    endloop
  endfacet
  facet normal -0.938462 -0.345383 0
    outer loop
      vertex -4.59343 -1.97495 -5
      vertex -4.77788 -1.47377 5
      vertex -4.77788 -1.47377 -5
    endloop
  endfacet
  facet normal -0.938462 -0.345383 0
    outer loop
      vertex -4.77788 -1.47377 5
      vertex -4.59343 -1.97495 -5
      vertex -4.59343 -1.97495 5
    endloop
  endfacet
  facet normal -0.896281 -0.443487 0
    outer loop
      vertex -4.3566 -2.45358 -5
      vertex -4.59343 -1.97495 5
      vertex -4.59343 -1.97495 -5
    endloop
  endfacet
  facet normal -0.896281 -0.443487 0
    outer loop
      vertex -4.59343 -1.97495 5
      vertex -4.3566 -2.45358 -5
      vertex -4.3566 -2.45358 5
    endloop
  endfacet
  facet normal -0.843877 -0.536537 0
    outer loop
      vertex -4.07007 -2.90424 -5
      vertex -4.3566 -2.45358 5
      vertex -4.3566 -2.45358 -5
    endloop
  endfacet
  facet normal -0.843877 -0.536537 0
    outer loop
      vertex -4.3566 -2.45358 5
      vertex -4.07007 -2.90424 -5
      vertex -4.07007 -2.90424 5
    endloop
  endfacet
  facet normal -0.781825 -0.623498 0
    outer loop
      vertex -3.73711 -3.32175 -5
      vertex -4.07007 -2.90424 5
      vertex -4.07007 -2.90424 -5
    endloop
  endfacet
  facet normal -0.781825 -0.623498 0
    outer loop
      vertex -4.07007 -2.90424 5
      vertex -3.73711 -3.32175 -5
      vertex -3.73711 -3.32175 5
    endloop
  endfacet
  facet normal -0.710879 -0.703314 0
    outer loop
      vertex -3.36151 -3.70139 -5
      vertex -3.73711 -3.32175 5
      vertex -3.73711 -3.32175 -5
    endloop
  endfacet
  facet normal -0.710879 -0.703314 0
    outer loop
      vertex -3.73711 -3.32175 5
      vertex -3.36151 -3.70139 -5
      vertex -3.36151 -3.70139 5
    endloop
  endfacet
  facet normal -0.631803 -0.775129 0
    outer loop
      vertex -3.36151 -3.70139 -5
      vertex -2.94757 -4.03879 5
      vertex -3.36151 -3.70139 5
    endloop
  endfacet
  facet normal -0.631803 -0.775129 -0
    outer loop
      vertex -2.94757 -4.03879 5
      vertex -3.36151 -3.70139 -5
      vertex -2.94757 -4.03879 -5
    endloop
  endfacet
  facet normal -0.545527 -0.838093 0
    outer loop
      vertex -2.94757 -4.03879 -5
      vertex -2.5 -4.33012 5
      vertex -2.94757 -4.03879 5
    endloop
  endfacet
  facet normal -0.545527 -0.838093 -0
    outer loop
      vertex -2.5 -4.33012 5
      vertex -2.94757 -4.03879 -5
      vertex -2.5 -4.33012 -5
    endloop
  endfacet
  facet normal 0.866024 -0.500002 0
    outer loop
      vertex -2.5 -4.33012 5
      vertex -1.73205 -3 -5
      vertex -1.73205 -3 5
    endloop
  endfacet
  facet normal 0.866024 -0.500002 0
    outer loop
      vertex -1.73205 -3 -5
      vertex -2.5 -4.33012 5
      vertex -2.5 -4.33012 -5
    endloop
  endfacet
  facet normal 0.896237 0.443575 0
    outer loop
      vertex -2.29052 -1 5
      vertex -2.29672 -0.987473 -5
      vertex -2.29672 -0.987473 5
    endloop
  endfacet
  facet normal 0.896237 0.443575 0
    outer loop
      vertex -2.29672 -0.987473 -5
      vertex -2.29052 -1 5
      vertex -2.29052 -1 -5
    endloop
  endfacet
  facet normal 0.938458 0.345393 0
    outer loop
      vertex -2.29672 -0.987473 5
      vertex -2.38895 -0.736877 -5
      vertex -2.38895 -0.736877 5
    endloop
  endfacet
  facet normal 0.938458 0.345393 0
    outer loop
      vertex -2.38895 -0.736877 -5
      vertex -2.29672 -0.987473 5
      vertex -2.29672 -0.987473 -5
    endloop
  endfacet
  facet normal 0.969963 0.243252 0
    outer loop
      vertex -2.38895 -0.736877 5
      vertex -2.4539 -0.47789 -5
      vertex -2.4539 -0.47789 5
    endloop
  endfacet
  facet normal 0.969963 0.243252 0
    outer loop
      vertex -2.4539 -0.47789 -5
      vertex -2.38895 -0.736877 5
      vertex -2.38895 -0.736877 -5
    endloop
  endfacet
  facet normal 0.990364 0.13849 0
    outer loop
      vertex -2.4539 -0.47789 5
      vertex -2.49088 -0.21344 -5
      vertex -2.49088 -0.21344 5
    endloop
  endfacet
  facet normal 0.990364 0.13849 0
    outer loop
      vertex -2.49088 -0.21344 -5
      vertex -2.4539 -0.47789 5
      vertex -2.4539 -0.47789 -5
    endloop
  endfacet
  facet normal 0.999486 0.0320583 0
    outer loop
      vertex -2.49088 -0.21344 5
      vertex -2.49944 0.0534363 -5
      vertex -2.49944 0.0534363 5
    endloop
  endfacet
  facet normal 0.999486 0.0320583 0
    outer loop
      vertex -2.49944 0.0534363 -5
      vertex -2.49088 -0.21344 5
      vertex -2.49088 -0.21344 -5
    endloop
  endfacet
  facet normal 0.997202 -0.074753 0
    outer loop
      vertex -2.49944 0.0534363 5
      vertex -2.47948 0.319702 -5
      vertex -2.47948 0.319702 5
    endloop
  endfacet
  facet normal 0.997202 -0.074753 0
    outer loop
      vertex -2.47948 0.319702 -5
      vertex -2.49944 0.0534363 5
      vertex -2.49944 0.0534363 -5
    endloop
  endfacet
  facet normal 0.983545 -0.180665 0
    outer loop
      vertex -2.47948 0.319702 5
      vertex -2.43124 0.582321 -5
      vertex -2.43124 0.582321 5
    endloop
  endfacet
  facet normal 0.983545 -0.180665 0
    outer loop
      vertex -2.43124 0.582321 -5
      vertex -2.47948 0.319702 5
      vertex -2.47948 0.319702 -5
    endloop
  endfacet
  facet normal 0.958672 -0.284513 0
    outer loop
      vertex -2.43124 0.582321 5
      vertex -2.35527 0.838303 -5
      vertex -2.35527 0.838303 5
    endloop
  endfacet
  facet normal 0.958672 -0.284513 0
    outer loop
      vertex -2.35527 0.838303 -5
      vertex -2.43124 0.582321 5
      vertex -2.43124 0.582321 -5
    endloop
  endfacet
  facet normal 0.922841 -0.385181 0
    outer loop
      vertex -2.35527 0.838303 5
      vertex -2.28778 1 -5
      vertex -2.28778 1 5
    endloop
  endfacet
  facet normal 0.922841 -0.385181 0
    outer loop
      vertex -2.28778 1 -5
      vertex -2.35527 0.838303 5
      vertex -2.35527 0.838303 -5
    endloop
  endfacet
  facet normal -0.922841 -0.385181 0
    outer loop
      vertex 2.35526 0.838303 -5
      vertex 2.28777 1 5
      vertex 2.28777 1 -5
    endloop
  endfacet
  facet normal -0.922841 -0.385181 0
    outer loop
      vertex 2.28777 1 5
      vertex 2.35526 0.838303 -5
      vertex 2.35526 0.838303 5
    endloop
  endfacet
  facet normal -0.958672 -0.284513 0
    outer loop
      vertex 2.43123 0.582321 -5
      vertex 2.35526 0.838303 5
      vertex 2.35526 0.838303 -5
    endloop
  endfacet
  facet normal -0.958672 -0.284513 0
    outer loop
      vertex 2.35526 0.838303 5
      vertex 2.43123 0.582321 -5
      vertex 2.43123 0.582321 5
    endloop
  endfacet
  facet normal -0.983551 -0.180629 0
    outer loop
      vertex 2.47946 0.319702 -5
      vertex 2.43123 0.582321 5
      vertex 2.43123 0.582321 -5
    endloop
  endfacet
  facet normal -0.983551 -0.180629 0
    outer loop
      vertex 2.43123 0.582321 5
      vertex 2.47946 0.319702 -5
      vertex 2.47946 0.319702 5
    endloop
  endfacet
  facet normal -0.997202 -0.074753 0
    outer loop
      vertex 2.49942 0.0534363 -5
      vertex 2.47946 0.319702 5
      vertex 2.47946 0.319702 -5
    endloop
  endfacet
  facet normal -0.997202 -0.074753 0
    outer loop
      vertex 2.47946 0.319702 5
      vertex 2.49942 0.0534363 -5
      vertex 2.49942 0.0534363 5
    endloop
  endfacet
  facet normal -0.999486 0.0320583 0
    outer loop
      vertex 2.49086 -0.21344 -5
      vertex 2.49942 0.0534363 5
      vertex 2.49942 0.0534363 -5
    endloop
  endfacet
  facet normal -0.999486 0.0320583 0
    outer loop
      vertex 2.49942 0.0534363 5
      vertex 2.49086 -0.21344 -5
      vertex 2.49086 -0.21344 5
    endloop
  endfacet
  facet normal -0.990369 0.138453 0
    outer loop
      vertex 2.45389 -0.47789 -5
      vertex 2.49086 -0.21344 5
      vertex 2.49086 -0.21344 -5
    endloop
  endfacet
  facet normal -0.990369 0.138453 0
    outer loop
      vertex 2.49086 -0.21344 5
      vertex 2.45389 -0.47789 -5
      vertex 2.45389 -0.47789 5
    endloop
  endfacet
  facet normal -0.969954 0.243287 0
    outer loop
      vertex 2.38893 -0.736877 -5
      vertex 2.45389 -0.47789 5
      vertex 2.45389 -0.47789 -5
    endloop
  endfacet
  facet normal -0.969954 0.243287 0
    outer loop
      vertex 2.45389 -0.47789 5
      vertex 2.38893 -0.736877 -5
      vertex 2.38893 -0.736877 5
    endloop
  endfacet
  facet normal -0.93847 0.34536 0
    outer loop
      vertex 2.29671 -0.987473 -5
      vertex 2.38893 -0.736877 5
      vertex 2.38893 -0.736877 -5
    endloop
  endfacet
  facet normal -0.93847 0.34536 0
    outer loop
      vertex 2.38893 -0.736877 5
      vertex 2.29671 -0.987473 -5
      vertex 2.29671 -0.987473 5
    endloop
  endfacet
  facet normal -0.896237 0.443575 0
    outer loop
      vertex 2.29051 -1 -5
      vertex 2.29671 -0.987473 5
      vertex 2.29671 -0.987473 -5
    endloop
  endfacet
  facet normal -0.896237 0.443575 0
    outer loop
      vertex 2.29671 -0.987473 5
      vertex 2.29051 -1 -5
      vertex 2.29051 -1 5
    endloop
  endfacet
  facet normal -0.866024 -0.500002 0
    outer loop
      vertex 2.5 -4.33012 -5
      vertex 1.73205 -3 5
      vertex 1.73205 -3 -5
    endloop
  endfacet
  facet normal -0.866024 -0.500002 0
    outer loop
      vertex 1.73205 -3 5
      vertex 2.5 -4.33012 -5
      vertex 2.5 -4.33012 5
    endloop
  endfacet
  facet normal 0.545536 -0.838087 0
    outer loop
      vertex 2.5 -4.33012 -5
      vertex 2.94756 -4.03879 5
      vertex 2.5 -4.33012 5
    endloop
  endfacet
  facet normal 0.545536 -0.838087 0
    outer loop
      vertex 2.94756 -4.03879 5
      vertex 2.5 -4.33012 -5
      vertex 2.94756 -4.03879 -5
    endloop
  endfacet
  facet normal 0.631803 -0.775129 0
    outer loop
      vertex 2.94756 -4.03879 -5
      vertex 3.3615 -3.70139 5
      vertex 2.94756 -4.03879 5
    endloop
  endfacet
  facet normal 0.631803 -0.775129 0
    outer loop
      vertex 3.3615 -3.70139 5
      vertex 2.94756 -4.03879 -5
      vertex 3.3615 -3.70139 -5
    endloop
  endfacet
  facet normal 0.710888 -0.703305 0
    outer loop
      vertex 3.3615 -3.70139 5
      vertex 3.73709 -3.32175 -5
      vertex 3.73709 -3.32175 5
    endloop
  endfacet
  facet normal 0.710888 -0.703305 0
    outer loop
      vertex 3.73709 -3.32175 -5
      vertex 3.3615 -3.70139 5
      vertex 3.3615 -3.70139 -5
    endloop
  endfacet
  facet normal 0.781828 -0.623494 0
    outer loop
      vertex 3.73709 -3.32175 5
      vertex 3.99368 -3 -5
      vertex 3.99368 -3 5
    endloop
  endfacet
  facet normal 0.781828 -0.623494 0
    outer loop
      vertex 3.99368 -3 -5
      vertex 3.73709 -3.32175 5
      vertex 3.73709 -3.32175 -5
    endloop
  endfacet
  facet normal 0.8202 0.572076 0
    outer loop
      vertex 3.99491 3 5
      vertex 3.94225 3.0755 -5
      vertex 3.94225 3.0755 5
    endloop
  endfacet
  facet normal 0.8202 0.572076 0
    outer loop
      vertex 3.94225 3.0755 -5
      vertex 3.99491 3 5
      vertex 3.99491 3 -5
    endloop
  endfacet
  facet normal 0.754471 0.656333 0
    outer loop
      vertex 3.94225 3.0755 5
      vertex 3.59174 3.47842 -5
      vertex 3.59174 3.47842 5
    endloop
  endfacet
  facet normal 0.754471 0.656333 0
    outer loop
      vertex 3.59174 3.47842 -5
      vertex 3.94225 3.0755 5
      vertex 3.94225 3.0755 -5
    endloop
  endfacet
  facet normal 0.680182 0.733044 -0
    outer loop
      vertex 3.59174 3.47842 -5
      vertex 3.20027 3.84166 5
      vertex 3.59174 3.47842 5
    endloop
  endfacet
  facet normal 0.680182 0.733044 0
    outer loop
      vertex 3.20027 3.84166 5
      vertex 3.59174 3.47842 -5
      vertex 3.20027 3.84166 -5
    endloop
  endfacet
  facet normal 0.598099 0.801422 -0
    outer loop
      vertex 3.20027 3.84166 -5
      vertex 2.77229 4.16106 5
      vertex 3.20027 3.84166 5
    endloop
  endfacet
  facet normal 0.598099 0.801422 0
    outer loop
      vertex 2.77229 4.16106 5
      vertex 3.20027 3.84166 -5
      vertex 2.77229 4.16106 -5
    endloop
  endfacet
  facet normal 0.509218 0.860637 -0
    outer loop
      vertex 2.77229 4.16106 -5
      vertex 2.31268 4.433 5
      vertex 2.77229 4.16106 5
    endloop
  endfacet
  facet normal 0.509218 0.860637 0
    outer loop
      vertex 2.31268 4.433 5
      vertex 2.77229 4.16106 -5
      vertex 2.31268 4.433 -5
    endloop
  endfacet
  facet normal 0.414525 0.910038 -0
    outer loop
      vertex 2.31268 4.433 -5
      vertex 1.82669 4.65437 5
      vertex 2.31268 4.433 5
    endloop
  endfacet
  facet normal 0.414525 0.910038 0
    outer loop
      vertex 1.82669 4.65437 5
      vertex 2.31268 4.433 -5
      vertex 1.82669 4.65437 -5
    endloop
  endfacet
  facet normal 0.315115 0.949053 -0
    outer loop
      vertex 1.82669 4.65437 -5
      vertex 1.31987 4.82265 5
      vertex 1.82669 4.65437 5
    endloop
  endfacet
  facet normal 0.315115 0.949053 0
    outer loop
      vertex 1.31987 4.82265 5
      vertex 1.82669 4.65437 -5
      vertex 1.31987 4.82265 -5
    endloop
  endfacet
  facet normal 0.212086 0.977251 -0
    outer loop
      vertex 1.31987 4.82265 -5
      vertex 0.797989 4.93591 5
      vertex 1.31987 4.82265 5
    endloop
  endfacet
  facet normal 0.212086 0.977251 0
    outer loop
      vertex 0.797989 4.93591 5
      vertex 1.31987 4.82265 -5
      vertex 0.797989 4.93591 -5
    endloop
  endfacet
  facet normal 0.106662 0.994295 -0
    outer loop
      vertex 0.797989 4.93591 -5
      vertex 0.267014 4.99287 5
      vertex 0.797989 4.93591 5
    endloop
  endfacet
  facet normal 0.106662 0.994295 0
    outer loop
      vertex 0.267014 4.99287 5
      vertex 0.797989 4.93591 -5
      vertex 0.267014 4.99287 -5
    endloop
  endfacet
  facet normal 0 1 -0
    outer loop
      vertex 0.267014 4.99287 -5
      vertex -0.267029 4.99287 5
      vertex 0.267014 4.99287 5
    endloop
  endfacet
  facet normal 0 1 0
    outer loop
      vertex -0.267029 4.99287 5
      vertex 0.267014 4.99287 -5
      vertex -0.267029 4.99287 -5
    endloop
  endfacet
  facet normal -0.106662 0.994295 0
    outer loop
      vertex -0.267029 4.99287 -5
      vertex -0.798004 4.93591 5
      vertex -0.267029 4.99287 5
    endloop
  endfacet
  facet normal -0.106662 0.994295 0
    outer loop
      vertex -0.798004 4.93591 5
      vertex -0.267029 4.99287 -5
      vertex -0.798004 4.93591 -5
    endloop
  endfacet
  facet normal -0.212084 0.977252 0
    outer loop
      vertex -0.798004 4.93591 -5
      vertex -1.31989 4.82265 5
      vertex -0.798004 4.93591 5
    endloop
  endfacet
  facet normal -0.212084 0.977252 0
    outer loop
      vertex -1.31989 4.82265 5
      vertex -0.798004 4.93591 -5
      vertex -1.31989 4.82265 -5
    endloop
  endfacet
  facet normal -0.315115 0.949053 0
    outer loop
      vertex -1.31989 4.82265 -5
      vertex -1.82671 4.65437 5
      vertex -1.31989 4.82265 5
    endloop
  endfacet
  facet normal -0.315115 0.949053 0
    outer loop
      vertex -1.82671 4.65437 5
      vertex -1.31989 4.82265 -5
      vertex -1.82671 4.65437 -5
    endloop
  endfacet
  facet normal -0.414525 0.910038 0
    outer loop
      vertex -1.82671 4.65437 -5
      vertex -2.3127 4.433 5
      vertex -1.82671 4.65437 5
    endloop
  endfacet
  facet normal -0.414525 0.910038 0
    outer loop
      vertex -2.3127 4.433 5
      vertex -1.82671 4.65437 -5
      vertex -2.3127 4.433 -5
    endloop
  endfacet
  facet normal -0.509218 0.860637 0
    outer loop
      vertex -2.3127 4.433 -5
      vertex -2.77231 4.16106 5
      vertex -2.3127 4.433 5
    endloop
  endfacet
  facet normal -0.509218 0.860637 0
    outer loop
      vertex -2.77231 4.16106 5
      vertex -2.3127 4.433 -5
      vertex -2.77231 4.16106 -5
    endloop
  endfacet
  facet normal -0.598099 0.801422 0
    outer loop
      vertex -2.77231 4.16106 -5
      vertex -3.20029 3.84166 5
      vertex -2.77231 4.16106 5
    endloop
  endfacet
  facet normal -0.598099 0.801422 0
    outer loop
      vertex -3.20029 3.84166 5
      vertex -2.77231 4.16106 -5
      vertex -3.20029 3.84166 -5
    endloop
  endfacet
  facet normal -0.680191 0.733035 0
    outer loop
      vertex -3.20029 3.84166 -5
      vertex -3.59175 3.47842 5
      vertex -3.20029 3.84166 5
    endloop
  endfacet
  facet normal -0.680191 0.733035 0
    outer loop
      vertex -3.59175 3.47842 5
      vertex -3.20029 3.84166 -5
      vertex -3.59175 3.47842 -5
    endloop
  endfacet
  facet normal -0.754471 0.656333 0
    outer loop
      vertex -3.94226 3.0755 -5
      vertex -3.59175 3.47842 5
      vertex -3.59175 3.47842 -5
    endloop
  endfacet
  facet normal -0.754471 0.656333 0
    outer loop
      vertex -3.59175 3.47842 5
      vertex -3.94226 3.0755 -5
      vertex -3.94226 3.0755 5
    endloop
  endfacet
  facet normal -0.820166 0.572126 0
    outer loop
      vertex -4.24779 2.63751 -5
      vertex -3.94226 3.0755 5
      vertex -3.94226 3.0755 -5
    endloop
  endfacet
  facet normal -0.820166 0.572126 0
    outer loop
      vertex -3.94226 3.0755 5
      vertex -4.24779 2.63751 -5
      vertex -4.24779 2.63751 5
    endloop
  endfacet
  facet normal -0.876519 0.481367 0
    outer loop
      vertex -4.50485 2.16943 -5
      vertex -4.24779 2.63751 5
      vertex -4.24779 2.63751 -5
    endloop
  endfacet
  facet normal -0.876519 0.481367 0
    outer loop
      vertex -4.24779 2.63751 5
      vertex -4.50485 2.16943 -5
      vertex -4.50485 2.16943 5
    endloop
  endfacet
  facet normal -0.922851 0.385158 0
    outer loop
      vertex -4.71054 1.67659 -5
      vertex -4.50485 2.16943 5
      vertex -4.50485 2.16943 -5
    endloop
  endfacet
  facet normal -0.922851 0.385158 0
    outer loop
      vertex -4.50485 2.16943 5
      vertex -4.71054 1.67659 -5
      vertex -4.71054 1.67659 5
    endloop
  endfacet
  facet normal -0.958665 0.284538 0
    outer loop
      vertex -4.86249 1.16464 -5
      vertex -4.71054 1.67659 5
      vertex -4.71054 1.67659 -5
    endloop
  endfacet
  facet normal -0.958665 0.284538 0
    outer loop
      vertex -4.71054 1.67659 5
      vertex -4.86249 1.16464 -5
      vertex -4.86249 1.16464 5
    endloop
  endfacet
  facet normal -0.983552 0.180625 0
    outer loop
      vertex -4.95895 0.639389 -5
      vertex -4.86249 1.16464 5
      vertex -4.86249 1.16464 -5
    endloop
  endfacet
  facet normal -0.983552 0.180625 0
    outer loop
      vertex -4.86249 1.16464 5
      vertex -4.95895 0.639389 -5
      vertex -4.95895 0.639389 5
    endloop
  endfacet
  facet normal -0.997202 0.0747529 0
    outer loop
      vertex -4.99887 0.106857 -5
      vertex -4.95895 0.639389 5
      vertex -4.95895 0.639389 -5
    endloop
  endfacet
  facet normal -0.997202 0.0747529 0
    outer loop
      vertex -4.95895 0.639389 5
      vertex -4.99887 0.106857 -5
      vertex -4.99887 0.106857 5
    endloop
  endfacet
  facet normal -0.999486 -0.0320583 0
    outer loop
      vertex -4.98175 -0.426895 -5
      vertex -4.99887 0.106857 5
      vertex -4.99887 0.106857 -5
    endloop
  endfacet
  facet normal -0.999486 -0.0320583 0
    outer loop
      vertex -4.99887 0.106857 5
      vertex -4.98175 -0.426895 -5
      vertex -4.98175 -0.426895 5
    endloop
  endfacet
endsolid OpenSCAD_Model
