solid OpenSCAD_Model
  facet normal 0 0 -1
    outer loop
      vertex -3.21132 -4.89667 -5
      vertex -3 -1 -5
      vertex -3 -4.94828 -5
    endloop
  endfacet
  facet normal -0 0 -1
    outer loop
      vertex -3 -1 -5
      vertex -5 -2.5 -5
      vertex -3 1 -5
    endloop
  endfacet
  facet normal 0 0 -1
    outer loop
      vertex -3.21132 -4.89667 -5
      vertex -3 -4.94828 -5
      vertex -3.0563 -4.93732 -5
    endloop
  endfacet
  facet normal 0 0 -1
    outer loop
      vertex -3 -1 -5
      vertex 2.5 1 -5
      vertex 2.5 -1 -5
    endloop
  endfacet
  facet normal -0 0 -1
    outer loop
      vertex 2.5 1 -5
      vertex -3 -1 -5
      vertex -3 1 -5
    endloop
  endfacet
  facet normal 0 0 -1
    outer loop
      vertex -3 3 -5
      vertex 5 5 -5
      vertex 5 3 -5
    endloop
  endfacet
  facet normal 0 0 -1
    outer loop
      vertex -3.36342 -4.84616 -5
      vertex -3 -1 -5
      vertex -3.21132 -4.89667 -5
    endloop
  endfacet
  facet normal 0 0 -1
    outer loop
      vertex -3.51196 -4.78603 -5
      vertex -3 -1 -5
      vertex -3.36342 -4.84616 -5
    endloop
  endfacet
  facet normal 0 0 -1
    outer loop
      vertex -3.65636 -4.71649 -5
      vertex -3 -1 -5
      vertex -3.51196 -4.78603 -5
    endloop
  endfacet
  facet normal 0 0 -1
    outer loop
      vertex -3.79599 -4.63785 -5
      vertex -3 -1 -5
      vertex -3.65636 -4.71649 -5
    endloop
  endfacet
  facet normal 0 0 -1
    outer loop
      vertex -3.9303 -4.55043 -5
      vertex -3 -1 -5
      vertex -3.79599 -4.63785 -5
    endloop
  endfacet
  facet normal 0 0 -1
    outer loop
      vertex -4.05873 -4.45457 -5
      vertex -3 -1 -5
      vertex -3.9303 -4.55043 -5
    endloop
  endfacet
  facet normal 0 0 -1
    outer loop
      vertex -4.18076 -4.35069 -5
      vertex -3 -1 -5
      vertex -4.05873 -4.45457 -5
    endloop
  endfacet
  facet normal 0 0 -1
    outer loop
      vertex -4.29588 -4.2392 -5
      vertex -3 -1 -5
      vertex -4.18076 -4.35069 -5
    endloop
  endfacet
  facet normal 0 0 -1
    outer loop
      vertex -4.40363 -4.12056 -5
      vertex -3 -1 -5
      vertex -4.29588 -4.2392 -5
    endloop
  endfacet
  facet normal 0 0 -1
    outer loop
      vertex -4.50354 -3.99527 -5
      vertex -3 -1 -5
      vertex -4.40363 -4.12056 -5
    endloop
  endfacet
  facet normal 0 0 -1
    outer loop
      vertex -4.59523 -3.86383 -5
      vertex -3 -1 -5
      vertex -4.50354 -3.99527 -5
    endloop
  endfacet
  facet normal 0 0 -1
    outer loop
      vertex -4.6783 -3.72679 -5
      vertex -3 -1 -5
      vertex -4.59523 -3.86383 -5
    endloop
  endfacet
  facet normal 0 0 -1
    outer loop
      vertex -4.75243 -3.5847 -5
      vertex -3 -1 -5
      vertex -4.6783 -3.72679 -5
    endloop
  endfacet
  facet normal 0 0 -1
    outer loop
      vertex -4.81731 -3.43816 -5
      vertex -3 -1 -5
      vertex -4.75243 -3.5847 -5
    endloop
  endfacet
  facet normal 0 0 -1
    outer loop
      vertex -4.87265 -3.28777 -5
      vertex -3 -1 -5
      vertex -4.81731 -3.43816 -5
    endloop
  endfacet
  facet normal 0 0 -1
    outer loop
      vertex -4.91824 -3.13412 -5
      vertex -3 -1 -5
      vertex -4.87265 -3.28777 -5
    endloop
  endfacet
  facet normal 0 0 -1
    outer loop
      vertex -4.9539 -2.97789 -5
      vertex -3 -1 -5
      vertex -4.91824 -3.13412 -5
    endloop
  endfacet
  facet normal 0 0 -1
    outer loop
      vertex -4.97948 -2.81969 -5
      vertex -3 -1 -5
      vertex -4.9539 -2.97789 -5
    endloop
  endfacet
  facet normal 0 0 -1
    outer loop
      vertex -4.99487 -2.66017 -5
      vertex -3 -1 -5
      vertex -4.97948 -2.81969 -5
    endloop
  endfacet
  facet normal 0 0 -1
    outer loop
      vertex -3 -1 -5
      vertex -4.99487 -2.66017 -5
      vertex -5 -2.5 -5
    endloop
  endfacet
  facet normal 0 0 -1
    outer loop
      vertex -5 5 -5
      vertex -3 1 -5
      vertex -5 -2.5 -5
    endloop
  endfacet
  facet normal 0 0 -1
    outer loop
      vertex -3 3 -5
      vertex -5 5 -5
      vertex 5 5 -5
    endloop
  endfacet
  facet normal 0 0 -1
    outer loop
      vertex -3 1 -5
      vertex -5 5 -5
      vertex -3 3 -5
    endloop
  endfacet
  facet normal 0 0 1
    outer loop
      vertex 5 5 5
      vertex -3 3 5
      vertex 5 3 5
    endloop
  endfacet
  facet normal 0 0 1
    outer loop
      vertex -5 5 5
      vertex -3 1 5
      vertex -3 3 5
    endloop
  endfacet
  facet normal 0 0 1
    outer loop
      vertex -3 1 5
      vertex -5 -2.5 5
      vertex -3 -1 5
    endloop
  endfacet
  facet normal 0 -0 1
    outer loop
      vertex -4.99487 -2.66017 5
      vertex -3 -1 5
      vertex -5 -2.5 5
    endloop
  endfacet
  facet normal 0 0 1
    outer loop
      vertex -3 -1 5
      vertex -3.21132 -4.89667 5
      vertex -3 -4.94828 5
    endloop
  endfacet
  facet normal 0 0 1
    outer loop
      vertex -3 -4.94828 5
      vertex -3.21132 -4.89667 5
      vertex -3.0563 -4.93732 5
    endloop
  endfacet
  facet normal 0 0 1
    outer loop
      vertex -3 -1 5
      vertex -3.36342 -4.84616 5
      vertex -3.21132 -4.89667 5
    endloop
  endfacet
  facet normal 0 0 1
    outer loop
      vertex -3 -1 5
      vertex -3.51196 -4.78603 5
      vertex -3.36342 -4.84616 5
    endloop
  endfacet
  facet normal 0 0 1
    outer loop
      vertex -3 -1 5
      vertex -3.65636 -4.71649 5
      vertex -3.51196 -4.78603 5
    endloop
  endfacet
  facet normal 0 0 1
    outer loop
      vertex -3 -1 5
      vertex -3.79599 -4.63785 5
      vertex -3.65636 -4.71649 5
    endloop
  endfacet
  facet normal 0 0 1
    outer loop
      vertex -3 -1 5
      vertex -3.9303 -4.55043 5
      vertex -3.79599 -4.63785 5
    endloop
  endfacet
  facet normal 0 0 1
    outer loop
      vertex -3 -1 5
      vertex -4.05873 -4.45457 5
      vertex -3.9303 -4.55043 5
    endloop
  endfacet
  facet normal 0 0 1
    outer loop
      vertex -3 -1 5
      vertex -4.18076 -4.35069 5
      vertex -4.05873 -4.45457 5
    endloop
  endfacet
  facet normal 0 0 1
    outer loop
      vertex -3 -1 5
      vertex -4.29588 -4.2392 5
      vertex -4.18076 -4.35069 5
    endloop
  endfacet
  facet normal 0 0 1
    outer loop
      vertex -3 -1 5
      vertex -4.40363 -4.12056 5
      vertex -4.29588 -4.2392 5
    endloop
  endfacet
  facet normal 0 0 1
    outer loop
      vertex -3 -1 5
      vertex -4.50354 -3.99527 5
      vertex -4.40363 -4.12056 5
    endloop
  endfacet
  facet normal 0 0 1
    outer loop
      vertex -3 -1 5
      vertex -4.59523 -3.86383 5
      vertex -4.50354 -3.99527 5
    endloop
  endfacet
  facet normal 0 0 1
    outer loop
      vertex -3 -1 5
      vertex -4.6783 -3.72679 5
      vertex -4.59523 -3.86383 5
    endloop
  endfacet
  facet normal 0 0 1
    outer loop
      vertex -3 -1 5
      vertex -4.75243 -3.5847 5
      vertex -4.6783 -3.72679 5
    endloop
  endfacet
  facet normal 0 0 1
    outer loop
      vertex -3 -1 5
      vertex -4.81731 -3.43816 5
      vertex -4.75243 -3.5847 5
    endloop
  endfacet
  facet normal 0 0 1
    outer loop
      vertex -3 -1 5
      vertex -4.87265 -3.28777 5
      vertex -4.81731 -3.43816 5
    endloop
  endfacet
  facet normal 0 0 1
    outer loop
      vertex -3 -1 5
      vertex -4.91824 -3.13412 5
      vertex -4.87265 -3.28777 5
    endloop
  endfacet
  facet normal 0 0 1
    outer loop
      vertex -3 -1 5
      vertex -4.9539 -2.97789 5
      vertex -4.91824 -3.13412 5
    endloop
  endfacet
  facet normal 0 0 1
    outer loop
      vertex -3 -1 5
      vertex -4.97948 -2.81969 5
      vertex -4.9539 -2.97789 5
    endloop
  endfacet
  facet normal -0 0 1
    outer loop
      vertex -5 5 5
      vertex -3 3 5
      vertex 5 5 5
    endloop
  endfacet
  facet normal 0 0 1
    outer loop
      vertex -3 1 5
      vertex -5 5 5
      vertex -5 -2.5 5
    endloop
  endfacet
  facet normal 0 0 1
    outer loop
      vertex -3 -1 5
      vertex -4.99487 -2.66017 5
      vertex -4.97948 -2.81969 5
    endloop
  endfacet
  facet normal -0 0 1
    outer loop
      vertex -3 1 5
      vertex 2.5 -1 5
      vertex 2.5 1 5
    endloop
  endfacet
  facet normal 0 0 1
    outer loop
      vertex 2.5 -1 5
      vertex -3 1 5
      vertex -3 -1 5
    endloop
  endfacet
  facet normal 0 -1 0
    outer loop
      vertex -3 -1 -5
      vertex 2.5 -1 5
      vertex -3 -1 5
    endloop
  endfacet
  facet normal 0 -1 -0
    outer loop
      vertex 2.5 -1 5
      vertex -3 -1 -5
      vertex 2.5 -1 -5
    endloop
  endfacet
  facet normal 1 -0 0
    outer loop
      vertex 2.5 -1 5
      vertex 2.5 1 -5
      vertex 2.5 1 5
    endloop
  endfacet
  facet normal 1 0 0
    outer loop
      vertex 2.5 1 -5
      vertex 2.5 -1 5
      vertex 2.5 -1 -5
    endloop
  endfacet
  facet normal 0 1 -0
    outer loop
      vertex 2.5 1 -5
      vertex -3 1 5
      vertex 2.5 1 5
    endloop
  endfacet
  facet normal 0 1 0
    outer loop
      vertex -3 1 5
      vertex 2.5 1 -5
      vertex -3 1 -5
    endloop
  endfacet
  facet normal 1 -0 0
    outer loop
      vertex -3 1 5
      vertex -3 3 -5
      vertex -3 3 5
    endloop
  endfacet
  facet normal 1 0 0
    outer loop
      vertex -3 3 -5
      vertex -3 1 5
      vertex -3 1 -5
    endloop
  endfacet
  facet normal 0 -1 0
    outer loop
      vertex -3 3 -5
      vertex 5 3 5
      vertex -3 3 5
    endloop
  endfacet
  facet normal 0 -1 -0
    outer loop
      vertex 5 3 5
      vertex -3 3 -5
      vertex 5 3 -5
    endloop
  endfacet
  facet normal 1 -0 0
    outer loop
      vertex 5 3 5
      vertex 5 5 -5
      vertex 5 5 5
    endloop
  endfacet
  facet normal 1 0 0
    outer loop
      vertex 5 5 -5
      vertex 5 3 5
      vertex 5 3 -5
    endloop
  endfacet
  facet normal 0 1 -0
    outer loop
      vertex 5 5 -5
      vertex -5 5 5
      vertex 5 5 5
    endloop
  endfacet
  facet normal 0 1 0
    outer loop
      vertex -5 5 5
      vertex 5 5 -5
      vertex -5 5 -5
    endloop
  endfacet
  facet normal -1 0 0
    outer loop
      vertex -5 -2.5 -5
      vertex -5 5 5
      vertex -5 5 -5
    endloop
  endfacet
  facet normal -1 -0 0
    outer loop
      vertex -5 5 5
      vertex -5 -2.5 -5
      vertex -5 -2.5 5
    endloop
  endfacet
  facet normal 1 -0 0
    outer loop
      vertex -3 -4.94828 5
      vertex -3 -1 -5
      vertex -3 -1 5
    endloop
  endfacet
  facet normal 1 0 0
    outer loop
      vertex -3 -1 -5
      vertex -3 -4.94828 5
      vertex -3 -4.94828 -5
    endloop
  endfacet
  facet normal -0.995378 -0.096031 0
    outer loop
      vertex -4.97948 -2.81969 -5
      vertex -4.99487 -2.66017 5
      vertex -4.99487 -2.66017 -5
    endloop
  endfacet
  facet normal -0.995378 -0.096031 0
    outer loop
      vertex -4.99487 -2.66017 5
      vertex -4.97948 -2.81969 -5
      vertex -4.97948 -2.81969 5
    endloop
  endfacet
  facet normal -0.987178 -0.159621 0
    outer loop
      vertex -4.9539 -2.97789 -5
      vertex -4.97948 -2.81969 5
      vertex -4.97948 -2.81969 -5
    endloop
  endfacet
  facet normal -0.987178 -0.159621 0
    outer loop
      vertex -4.97948 -2.81969 5
      vertex -4.9539 -2.97789 -5
      vertex -4.9539 -2.97789 5
    endloop
  endfacet
  facet normal -0.974926 -0.22253 0
    outer loop
      vertex -4.91824 -3.13412 -5
      vertex -4.9539 -2.97789 5
      vertex -4.9539 -2.97789 -5
    endloop
  endfacet
  facet normal -0.974926 -0.22253 0
    outer loop
      vertex -4.9539 -2.97789 5
      vertex -4.91824 -3.13412 -5
      vertex -4.91824 -3.13412 5
    endloop
  endfacet
  facet normal -0.958689 -0.284456 0
    outer loop
      vertex -4.87265 -3.28777 -5
      vertex -4.91824 -3.13412 5
      vertex -4.91824 -3.13412 -5
    endloop
  endfacet
  facet normal -0.958689 -0.284456 0
    outer loop
      vertex -4.91824 -3.13412 5
      vertex -4.87265 -3.28777 -5
      vertex -4.87265 -3.28777 5
    endloop
  endfacet
  facet normal -0.938478 -0.345338 0
    outer loop
      vertex -4.81731 -3.43816 -5
      vertex -4.87265 -3.28777 5
      vertex -4.87265 -3.28777 -5
    endloop
  endfacet
  facet normal -0.938478 -0.345338 0
    outer loop
      vertex -4.87265 -3.28777 5
      vertex -4.81731 -3.43816 -5
      vertex -4.81731 -3.43816 5
    endloop
  endfacet
  facet normal -0.914387 -0.404841 0
    outer loop
      vertex -4.75243 -3.5847 -5
      vertex -4.81731 -3.43816 5
      vertex -4.81731 -3.43816 -5
    endloop
  endfacet
  facet normal -0.914387 -0.404841 0
    outer loop
      vertex -4.81731 -3.43816 5
      vertex -4.75243 -3.5847 -5
      vertex -4.75243 -3.5847 5
    endloop
  endfacet
  facet normal -0.886595 -0.462547 0
    outer loop
      vertex -4.6783 -3.72679 -5
      vertex -4.75243 -3.5847 5
      vertex -4.75243 -3.5847 -5
    endloop
  endfacet
  facet normal -0.886595 -0.462547 0
    outer loop
      vertex -4.75243 -3.5847 5
      vertex -4.6783 -3.72679 -5
      vertex -4.6783 -3.72679 5
    endloop
  endfacet
  facet normal -0.855155 -0.518372 0
    outer loop
      vertex -4.59523 -3.86383 -5
      vertex -4.6783 -3.72679 5
      vertex -4.6783 -3.72679 -5
    endloop
  endfacet
  facet normal -0.855155 -0.518372 0
    outer loop
      vertex -4.6783 -3.72679 5
      vertex -4.59523 -3.86383 -5
      vertex -4.59523 -3.86383 5
    endloop
  endfacet
  facet normal -0.820163 -0.57213 0
    outer loop
      vertex -4.50354 -3.99527 -5
      vertex -4.59523 -3.86383 5
      vertex -4.59523 -3.86383 -5
    endloop
  endfacet
  facet normal -0.820163 -0.57213 0
    outer loop
      vertex -4.59523 -3.86383 5
      vertex -4.50354 -3.99527 -5
      vertex -4.50354 -3.99527 5
    endloop
  endfacet
  facet normal -0.781848 -0.623469 0
    outer loop
      vertex -4.40363 -4.12056 -5
      vertex -4.50354 -3.99527 5
      vertex -4.50354 -3.99527 -5
    endloop
  endfacet
  facet normal -0.781848 -0.623469 0
    outer loop
      vertex -4.50354 -3.99527 5
      vertex -4.40363 -4.12056 -5
      vertex -4.40363 -4.12056 5
    endloop
  endfacet
  facet normal -0.740265 -0.672316 0
    outer loop
      vertex -4.29588 -4.2392 -5
      vertex -4.40363 -4.12056 5
      vertex -4.40363 -4.12056 -5
    endloop
  endfacet
  facet normal -0.740265 -0.672316 0
    outer loop
      vertex -4.40363 -4.12056 5
      vertex -4.29588 -4.2392 -5
      vertex -4.29588 -4.2392 5
    endloop
  endfacet
  facet normal -0.695691 -0.718342 0
    outer loop
      vertex -4.29588 -4.2392 -5
      vertex -4.18076 -4.35069 5
      vertex -4.29588 -4.2392 5
    endloop
  endfacet
  facet normal -0.695691 -0.718342 -0
    outer loop
      vertex -4.18076 -4.35069 5
      vertex -4.29588 -4.2392 -5
      vertex -4.18076 -4.35069 -5
    endloop
  endfacet
  facet normal -0.648208 -0.761463 0
    outer loop
      vertex -4.18076 -4.35069 -5
      vertex -4.05873 -4.45457 5
      vertex -4.18076 -4.35069 5
    endloop
  endfacet
  facet normal -0.648208 -0.761463 -0
    outer loop
      vertex -4.05873 -4.45457 5
      vertex -4.18076 -4.35069 -5
      vertex -4.05873 -4.45457 -5
    endloop
  endfacet
  facet normal -0.598151 -0.801383 0
    outer loop
      vertex -4.05873 -4.45457 -5
      vertex -3.9303 -4.55043 5
      vertex -4.05873 -4.45457 5
    endloop
  endfacet
  facet normal -0.598151 -0.801383 -0
    outer loop
      vertex -3.9303 -4.55043 5
      vertex -4.05873 -4.45457 -5
      vertex -3.9303 -4.55043 -5
    endloop
  endfacet
  facet normal -0.545508 -0.838106 0
    outer loop
      vertex -3.9303 -4.55043 -5
      vertex -3.79599 -4.63785 5
      vertex -3.9303 -4.55043 5
    endloop
  endfacet
  facet normal -0.545508 -0.838106 -0
    outer loop
      vertex -3.79599 -4.63785 5
      vertex -3.9303 -4.55043 -5
      vertex -3.79599 -4.63785 -5
    endloop
  endfacet
  facet normal -0.490726 -0.871314 0
    outer loop
      vertex -3.79599 -4.63785 -5
      vertex -3.65636 -4.71649 5
      vertex -3.79599 -4.63785 5
    endloop
  endfacet
  facet normal -0.490726 -0.871314 -0
    outer loop
      vertex -3.65636 -4.71649 5
      vertex -3.79599 -4.63785 -5
      vertex -3.65636 -4.71649 -5
    endloop
  endfacet
  facet normal -0.433887 -0.900967 0
    outer loop
      vertex -3.65636 -4.71649 -5
      vertex -3.51196 -4.78603 5
      vertex -3.65636 -4.71649 5
    endloop
  endfacet
  facet normal -0.433887 -0.900967 -0
    outer loop
      vertex -3.51196 -4.78603 5
      vertex -3.65636 -4.71649 -5
      vertex -3.51196 -4.78603 -5
    endloop
  endfacet
  facet normal -0.375229 -0.926932 0
    outer loop
      vertex -3.51196 -4.78603 -5
      vertex -3.36342 -4.84616 5
      vertex -3.51196 -4.78603 5
    endloop
  endfacet
  facet normal -0.375229 -0.926932 -0
    outer loop
      vertex -3.36342 -4.84616 5
      vertex -3.51196 -4.78603 -5
      vertex -3.36342 -4.84616 -5
    endloop
  endfacet
  facet normal -0.315161 -0.949038 0
    outer loop
      vertex -3.36342 -4.84616 -5
      vertex -3.21132 -4.89667 5
      vertex -3.36342 -4.84616 5
    endloop
  endfacet
  facet normal -0.315161 -0.949038 -0
    outer loop
      vertex -3.21132 -4.89667 5
      vertex -3.36342 -4.84616 -5
      vertex -3.21132 -4.89667 -5
    endloop
  endfacet
  facet normal -0.253649 -0.967296 0
    outer loop
      vertex -3.21132 -4.89667 -5
      vertex -3.0563 -4.93732 5
      vertex -3.21132 -4.89667 5
    endloop
  endfacet
  facet normal -0.253649 -0.967296 -0
    outer loop
      vertex -3.0563 -4.93732 5
      vertex -3.21132 -4.89667 -5
      vertex -3.0563 -4.93732 -5
    endloop
  endfacet
  facet normal -0.191084 -0.981574 0
    outer loop
      vertex -3.0563 -4.93732 -5
      vertex -3 -4.94828 5
      vertex -3.0563 -4.93732 5
    endloop
  endfacet
  facet normal -0.191084 -0.981574 -0
    outer loop
      vertex -3 -4.94828 5
      vertex -3.0563 -4.93732 -5
      vertex -3 -4.94828 -5
    endloop
  endfacet
  facet normal -0.999487 -0.0320121 0
    outer loop
      vertex -4.99487 -2.66017 -5
      vertex -5 -2.5 5
      vertex -5 -2.5 -5
    endloop
  endfacet
  facet normal -0.999487 -0.0320121 0
    outer loop
      vertex -5 -2.5 5
      vertex -4.99487 -2.66017 -5
      vertex -4.99487 -2.66017 5
    endloop
  endfacet
endsolid OpenSCAD_Model
