solid OpenSCAD_Model
  facet normal 0 0 -1
    outer loop
      vertex -3.11746 -3.90915 -5
      vertex -3 -1 -5
      vertex -3 -3.99682 -5
    endloop
  endfacet
  facet normal 0 0 -1
    outer loop
      vertex -3.36151 -3.70139 -5
      vertex -3 -1 -5
      vertex -3.11746 -3.90915 -5
    endloop
  endfacet
  facet normal 0 0 -1
    outer loop
      vertex -3.59175 -3.47841 -5
      vertex -3 -1 -5
      vertex -3.36151 -3.70139 -5
    endloop
  endfacet
  facet normal 0 0 -1
    outer loop
      vertex -3 -1 -5
      vertex 2.5 1 -5
      vertex 2.5 -1 -5
    endloop
  endfacet
  facet normal -0 0 -1
    outer loop
      vertex 2.5 1 -5
      vertex -3 -1 -5
      vertex -3 1 -5
    endloop
  endfacet
  facet normal 0 0 -1
    outer loop
      vertex -3 3 -5
      vertex 5 5 -5
      vertex 5 3 -5
    endloop
  endfacet
  facet normal 0 0 -1
    outer loop
      vertex -3.80724 -3.24113 -5
      vertex -3 -1 -5
      vertex -3.59175 -3.47841 -5
    endloop
  endfacet
  facet normal 0 0 -1
    outer loop
      vertex -4.00708 -2.99054 -5
      vertex -3 -1 -5
      vertex -3.80724 -3.24113 -5
    endloop
  endfacet
  facet normal 0 0 -1
    outer loop
      vertex -4.19044 -2.72766 -5
      vertex -3 -1 -5
      vertex -4.00708 -2.99054 -5
    endloop
  endfacet
  facet normal 0 0 -1
    outer loop
      vertex -4.3566 -2.45358 -5
      vertex -3 -1 -5
      vertex -4.19044 -2.72766 -5
    endloop
  endfacet
  facet normal 0 0 -1
    outer loop
      vertex -4.50485 -2.16942 -5
      vertex -3 -1 -5
      vertex -4.3566 -2.45358 -5
    endloop
  endfacet
  facet normal 0 0 -1
    outer loop
      vertex -4.6346 -1.87633 -5
      vertex -3 -1 -5
      vertex -4.50485 -2.16942 -5
    endloop
  endfacet
  facet normal 0 0 -1
    outer loop
      vertex -4.74529 -1.57553 -5
      vertex -3 -1 -5
      vertex -4.6346 -1.87633 -5
    endloop
  endfacet
  facet normal 0 0 -1
    outer loop
      vertex -4.83649 -1.26826 -5
      vertex -3 -1 -5
      vertex -4.74529 -1.57553 -5
    endloop
  endfacet
  facet normal 0 0 -1
    outer loop
      vertex -4.90781 -0.95578 -5
      vertex -3 -1 -5
      vertex -4.83649 -1.26826 -5
    endloop
  endfacet
  facet normal 0 0 -1
    outer loop
      vertex -4.95895 -0.639374 -5
      vertex -3 -1 -5
      vertex -4.90781 -0.95578 -5
    endloop
  endfacet
  facet normal 0 0 -1
    outer loop
      vertex -4.98973 -0.320343 -5
      vertex -3 -1 -5
      vertex -4.95895 -0.639374 -5
    endloop
  endfacet
  facet normal 0 0 -1
    outer loop
      vertex -5 0 -5
      vertex -3 -1 -5
      vertex -4.98973 -0.320343 -5
    endloop
  endfacet
  facet normal 0 0 -1
    outer loop
      vertex -3 -1 -5
      vertex -5 0 -5
      vertex -3 1 -5
    endloop
  endfacet
  facet normal -0 0 -1
    outer loop
      vertex -3 1 -5
      vertex -5 0 -5
      vertex -3 3 -5
    endloop
  endfacet
  facet normal 0 0 -1
    outer loop
      vertex -3 3 -5
      vertex -5 5 -5
      vertex 5 5 -5
    endloop
  endfacet
  facet normal 0 0 -1
    outer loop
      vertex -5 5 -5
      vertex -3 3 -5
      vertex -5 0 -5
    endloop
  endfacet
  facet normal 0 0 1
    outer loop
      vertex 5 5 5
      vertex -3 3 5
      vertex 5 3 5
    endloop
  endfacet
  facet normal 0 0 1
    outer loop
      vertex -5 0 5
      vertex -3 1 5
      vertex -3 3 5
    endloop
  endfacet
  facet normal 0 0 1
    outer loop
      vertex -3 1 5
      vertex -5 0 5
      vertex -3 -1 5
    endloop
  endfacet
  facet normal 0 -0 1
    outer loop
      vertex -3.11746 -3.90915 5
      vertex -3 -1 5
      vertex -3.36151 -3.70139 5
    endloop
  endfacet
  facet normal 0 0 1
    outer loop
      vertex -3 -1 5
      vertex -3.11746 -3.90915 5
      vertex -3 -3.99682 5
    endloop
  endfacet
  facet normal 0 0 1
    outer loop
      vertex -3 -1 5
      vertex -3.59175 -3.47841 5
      vertex -3.36151 -3.70139 5
    endloop
  endfacet
  facet normal 0 0 1
    outer loop
      vertex -3 -1 5
      vertex -3.80724 -3.24113 5
      vertex -3.59175 -3.47841 5
    endloop
  endfacet
  facet normal 0 0 1
    outer loop
      vertex -3 -1 5
      vertex -4.00708 -2.99054 5
      vertex -3.80724 -3.24113 5
    endloop
  endfacet
  facet normal 0 0 1
    outer loop
      vertex -3 -1 5
      vertex -4.19044 -2.72766 5
      vertex -4.00708 -2.99054 5
    endloop
  endfacet
  facet normal 0 0 1
    outer loop
      vertex -3 -1 5
      vertex -4.3566 -2.45358 5
      vertex -4.19044 -2.72766 5
    endloop
  endfacet
  facet normal 0 0 1
    outer loop
      vertex -3 -1 5
      vertex -4.50485 -2.16942 5
      vertex -4.3566 -2.45358 5
    endloop
  endfacet
  facet normal 0 0 1
    outer loop
      vertex -3 -1 5
      vertex -4.6346 -1.87633 5
      vertex -4.50485 -2.16942 5
    endloop
  endfacet
  facet normal 0 0 1
    outer loop
      vertex -3 -1 5
      vertex -4.74529 -1.57553 5
      vertex -4.6346 -1.87633 5
    endloop
  endfacet
  facet normal 0 0 1
    outer loop
      vertex -3 -1 5
      vertex -4.83649 -1.26826 5
      vertex -4.74529 -1.57553 5
    endloop
  endfacet
  facet normal 0 0 1
    outer loop
      vertex -3 -1 5
      vertex -4.90781 -0.95578 5
      vertex -4.83649 -1.26826 5
    endloop
  endfacet
  facet normal 0 0 1
    outer loop
      vertex -3 -1 5
      vertex -4.95895 -0.639374 5
      vertex -4.90781 -0.95578 5
    endloop
  endfacet
  facet normal 0 0 1
    outer loop
      vertex -3 -1 5
      vertex -4.98973 -0.320343 5
      vertex -4.95895 -0.639374 5
    endloop
  endfacet
  facet normal -0 0 1
    outer loop
      vertex -5 5 5
      vertex -3 3 5
      vertex 5 5 5
    endloop
  endfacet
  facet normal 0 0 1
    outer loop
      vertex -5 0 5
      vertex -3 3 5
      vertex -5 5 5
    endloop
  endfacet
  facet normal 0 0 1
    outer loop
      vertex -3 -1 5
      vertex -5 0 5
      vertex -4.98973 -0.320343 5
    endloop
  endfacet
  facet normal -0 0 1
    outer loop
      vertex -3 1 5
      vertex 2.5 -1 5
      vertex 2.5 1 5
    endloop
  endfacet
  facet normal 0 0 1
    outer loop
      vertex 2.5 -1 5
      vertex -3 1 5
      vertex -3 -1 5
    endloop
  endfacet
  facet normal 0 -1 0
    outer loop
      vertex -3 -1 -5
      vertex 2.5 -1 5
      vertex -3 -1 5
    endloop
  endfacet
  facet normal 0 -1 -0
    outer loop
      vertex 2.5 -1 5
      vertex -3 -1 -5
      vertex 2.5 -1 -5
    endloop
  endfacet
  facet normal 1 -0 0
    outer loop
      vertex 2.5 -1 5
      vertex 2.5 1 -5
      vertex 2.5 1 5
    endloop
  endfacet
  facet normal 1 0 0
    outer loop
      vertex 2.5 1 -5
      vertex 2.5 -1 5
      vertex 2.5 -1 -5
    endloop
  endfacet
  facet normal 0 1 -0
    outer loop
      vertex 2.5 1 -5
      vertex -3 1 5
      vertex 2.5 1 5
    endloop
  endfacet
  facet normal 0 1 0
    outer loop
      vertex -3 1 5
      vertex 2.5 1 -5
      vertex -3 1 -5
    endloop
  endfacet
  facet normal 1 -0 0
    outer loop
      vertex -3 1 5
      vertex -3 3 -5
      vertex -3 3 5
    endloop
  endfacet
  facet normal 1 0 0
    outer loop
      vertex -3 3 -5
      vertex -3 1 5
      vertex -3 1 -5
    endloop
  endfacet
  facet normal 0 -1 0
    outer loop
      vertex -3 3 -5
      vertex 5 3 5
      vertex -3 3 5
    endloop
  endfacet
  facet normal 0 -1 -0
    outer loop
      vertex 5 3 5
      vertex -3 3 -5
      vertex 5 3 -5
    endloop
  endfacet
  facet normal 1 -0 0
    outer loop
      vertex 5 3 5
      vertex 5 5 -5
      vertex 5 5 5
    endloop
  endfacet
  facet normal 1 0 0
    outer loop
      vertex 5 5 -5
      vertex 5 3 5
      vertex 5 3 -5
    endloop
  endfacet
  facet normal 0 1 -0
    outer loop
      vertex 5 5 -5
      vertex -5 5 5
      vertex 5 5 5
    endloop
  endfacet
  facet normal 0 1 0
    outer loop
      vertex -5 5 5
      vertex 5 5 -5
      vertex -5 5 -5
    endloop
  endfacet
  facet normal -1 0 0
    outer loop
      vertex -5 0 -5
      vertex -5 5 5
      vertex -5 5 -5
    endloop
  endfacet
  facet normal -1 -0 0
    outer loop
      vertex -5 5 5
      vertex -5 0 -5
      vertex -5 0 5
    endloop
  endfacet
  facet normal 1 -0 0
    outer loop
      vertex -3 -3.99682 5
      vertex -3 -1 -5
      vertex -3 -1 5
    endloop
  endfacet
  facet normal 1 0 0
    outer loop
      vertex -3 -1 -5
      vertex -3 -3.99682 5
      vertex -3 -3.99682 -5
    endloop
  endfacet
  facet normal -0.999486 -0.0320429 0
    outer loop
      vertex -4.98973 -0.320343 -5
      vertex -5 0 5
      vertex -5 0 -5
    endloop
  endfacet
  facet normal -0.999486 -0.0320429 0
    outer loop
      vertex -5 0 5
      vertex -4.98973 -0.320343 -5
      vertex -4.98973 -0.320343 5
    endloop
  endfacet
  facet normal -0.995378 -0.0960337 0
    outer loop
      vertex -4.95895 -0.639374 -5
      vertex -4.98973 -0.320343 5
      vertex -4.98973 -0.320343 -5
    endloop
  endfacet
  facet normal -0.995378 -0.0960337 0
    outer loop
      vertex -4.98973 -0.320343 5
      vertex -4.95895 -0.639374 -5
      vertex -4.95895 -0.639374 5
    endloop
  endfacet
  facet normal -0.958665 -0.284539 0
    outer loop
      vertex -4.74529 -1.57553 -5
      vertex -4.83649 -1.26826 5
      vertex -4.83649 -1.26826 -5
    endloop
  endfacet
  facet normal -0.958665 -0.284539 0
    outer loop
      vertex -4.83649 -1.26826 5
      vertex -4.74529 -1.57553 -5
      vertex -4.74529 -1.57553 5
    endloop
  endfacet
  facet normal -0.648223 -0.76145 0
    outer loop
      vertex -3.36151 -3.70139 -5
      vertex -3.11746 -3.90915 5
      vertex -3.36151 -3.70139 5
    endloop
  endfacet
  facet normal -0.648223 -0.76145 -0
    outer loop
      vertex -3.11746 -3.90915 5
      vertex -3.36151 -3.70139 -5
      vertex -3.11746 -3.90915 -5
    endloop
  endfacet
  facet normal -0.820192 -0.572088 0
    outer loop
      vertex -4.00708 -2.99054 -5
      vertex -4.19044 -2.72766 5
      vertex -4.19044 -2.72766 -5
    endloop
  endfacet
  facet normal -0.820192 -0.572088 0
    outer loop
      vertex -4.19044 -2.72766 5
      vertex -4.00708 -2.99054 -5
      vertex -4.00708 -2.99054 5
    endloop
  endfacet
  facet normal -0.938476 -0.345345 0
    outer loop
      vertex -4.6346 -1.87633 -5
      vertex -4.74529 -1.57553 5
      vertex -4.74529 -1.57553 -5
    endloop
  endfacet
  facet normal -0.938476 -0.345345 0
    outer loop
      vertex -4.74529 -1.57553 5
      vertex -4.6346 -1.87633 -5
      vertex -4.6346 -1.87633 5
    endloop
  endfacet
  facet normal -0.974929 -0.222516 0
    outer loop
      vertex -4.83649 -1.26826 -5
      vertex -4.90781 -0.95578 5
      vertex -4.90781 -0.95578 -5
    endloop
  endfacet
  facet normal -0.974929 -0.222516 0
    outer loop
      vertex -4.90781 -0.95578 5
      vertex -4.83649 -1.26826 -5
      vertex -4.83649 -1.26826 5
    endloop
  endfacet
  facet normal -0.987189 -0.159557 0
    outer loop
      vertex -4.90781 -0.95578 -5
      vertex -4.95895 -0.639374 5
      vertex -4.95895 -0.639374 -5
    endloop
  endfacet
  facet normal -0.987189 -0.159557 0
    outer loop
      vertex -4.95895 -0.639374 5
      vertex -4.90781 -0.95578 -5
      vertex -4.90781 -0.95578 5
    endloop
  endfacet
  facet normal -0.695691 -0.718342 0
    outer loop
      vertex -3.59175 -3.47841 -5
      vertex -3.36151 -3.70139 5
      vertex -3.59175 -3.47841 5
    endloop
  endfacet
  facet normal -0.695691 -0.718342 -0
    outer loop
      vertex -3.36151 -3.70139 5
      vertex -3.59175 -3.47841 -5
      vertex -3.36151 -3.70139 -5
    endloop
  endfacet
  facet normal -0.74028 -0.672298 0
    outer loop
      vertex -3.59175 -3.47841 -5
      vertex -3.80724 -3.24113 5
      vertex -3.80724 -3.24113 -5
    endloop
  endfacet
  facet normal -0.74028 -0.672298 0
    outer loop
      vertex -3.80724 -3.24113 5
      vertex -3.59175 -3.47841 -5
      vertex -3.59175 -3.47841 5
    endloop
  endfacet
  facet normal -0.78183 -0.623492 0
    outer loop
      vertex -3.80724 -3.24113 -5
      vertex -4.00708 -2.99054 5
      vertex -4.00708 -2.99054 -5
    endloop
  endfacet
  facet normal -0.78183 -0.623492 0
    outer loop
      vertex -4.00708 -2.99054 5
      vertex -3.80724 -3.24113 -5
      vertex -3.80724 -3.24113 5
    endloop
  endfacet
  facet normal -0.598143 -0.80139 0
    outer loop
      vertex -3.11746 -3.90915 -5
      vertex -3 -3.99682 5
      vertex -3.11746 -3.90915 5
    endloop
  endfacet
  facet normal -0.598143 -0.80139 -0
    outer loop
      vertex -3 -3.99682 5
      vertex -3.11746 -3.90915 -5
      vertex -3 -3.99682 -5
    endloop
  endfacet
  facet normal -0.886594 -0.462548 0
    outer loop
      vertex -4.3566 -2.45358 -5
      vertex -4.50485 -2.16942 5
      vertex -4.50485 -2.16942 -5
    endloop
  endfacet
  facet normal -0.886594 -0.462548 0
    outer loop
      vertex -4.50485 -2.16942 5
      vertex -4.3566 -2.45358 -5
      vertex -4.3566 -2.45358 5
    endloop
  endfacet
  facet normal -0.914404 -0.404804 0
    outer loop
      vertex -4.50485 -2.16942 -5
      vertex -4.6346 -1.87633 5
      vertex -4.6346 -1.87633 -5
    endloop
  endfacet
  facet normal -0.914404 -0.404804 0
    outer loop
      vertex -4.6346 -1.87633 5
      vertex -4.50485 -2.16942 -5
      vertex -4.50485 -2.16942 5
    endloop
  endfacet
  facet normal -0.855127 -0.518418 0
    outer loop
      vertex -4.19044 -2.72766 -5
      vertex -4.3566 -2.45358 5
      vertex -4.3566 -2.45358 -5
    endloop
  endfacet
  facet normal -0.855127 -0.518418 0
    outer loop
      vertex -4.3566 -2.45358 5
      vertex -4.19044 -2.72766 -5
      vertex -4.19044 -2.72766 5
    endloop
  endfacet
endsolid OpenSCAD_Model
