solid OpenSCAD_Model
  facet normal 0 0 -1
    outer loop
      vertex 3.33333 5 -5
      vertex 5 5 -5
      vertex 3.33333 -1.66667 -5
    endloop
  endfacet
  facet normal 0 -0 -1
    outer loop
      vertex 5 5 -5
      vertex 5 -5 -5
      vertex 3.33333 -1.66667 -5
    endloop
  endfacet
  facet normal 0 0 -1
    outer loop
      vertex 3.33333 -1.66667 -5
      vertex 3.30595 -1.24042 -5
      vertex 3.32648 -1.45311 -5
    endloop
  endfacet
  facet normal 0 0 -1
    outer loop
      vertex -3.33334 -1.66667 -5
      vertex -5 5 -5
      vertex -3.33334 5 -5
    endloop
  endfacet
  facet normal -0 0 -1
    outer loop
      vertex -3.33334 -1.66667 -5
      vertex -5 -5 -5
      vertex -5 5 -5
    endloop
  endfacet
  facet normal -0 -0 -1
    outer loop
      vertex 3.33333 -1.66667 -5
      vertex 3.33333 -3.33334 -5
      vertex -3.33334 -1.66667 -5
    endloop
  endfacet
  facet normal 0 0 -1
    outer loop
      vertex 3.33333 -1.66667 -5
      vertex -3.33334 -1.66667 -5
      vertex 3.30595 -1.24042 -5
    endloop
  endfacet
  facet normal 0 -0 -1
    outer loop
      vertex -3.22432 -0.821152 -5
      vertex -3.00323 -0.220398 -5
      vertex -3.27187 -1.02948 -5
    endloop
  endfacet
  facet normal 0 0 -1
    outer loop
      vertex 3.00322 -0.220398 -5
      vertex 3.16351 -0.616318 -5
      vertex 3.2243 -0.821152 -5
    endloop
  endfacet
  facet normal 0 0 -1
    outer loop
      vertex 3.27185 -1.02948 -5
      vertex 3.00322 -0.220398 -5
      vertex 3.2243 -0.821152 -5
    endloop
  endfacet
  facet normal 0 0 -1
    outer loop
      vertex 3.16351 -0.616318 -5
      vertex 3.00322 -0.220398 -5
      vertex 3.08972 -0.415787 -5
    endloop
  endfacet
  facet normal 0 0 -1
    outer loop
      vertex 3.27185 -1.02948 -5
      vertex 2.53815 0.49408 -5
      vertex 3.00322 -0.220398 -5
    endloop
  endfacet
  facet normal 0 0 -1
    outer loop
      vertex 2.67137 0.327026 -5
      vertex 2.79362 0.151779 -5
      vertex 2.90439 -0.0309448 -5
    endloop
  endfacet
  facet normal 0 0 -1
    outer loop
      vertex 3.00322 -0.220398 -5
      vertex 2.67137 0.327026 -5
      vertex 2.90439 -0.0309448 -5
    endloop
  endfacet
  facet normal 0 0 -1
    outer loop
      vertex 3.00322 -0.220398 -5
      vertex 2.53815 0.49408 -5
      vertex 2.67137 0.327026 -5
    endloop
  endfacet
  facet normal 0 0 -1
    outer loop
      vertex 1.90704 1.06723 -5
      vertex 2.39449 0.652267 -5
      vertex 2.53815 0.49408 -5
    endloop
  endfacet
  facet normal 0 0 -1
    outer loop
      vertex 3.27185 -1.02948 -5
      vertex 1.90704 1.06723 -5
      vertex 2.53815 0.49408 -5
    endloop
  endfacet
  facet normal 0 0 -1
    outer loop
      vertex 2.39449 0.652267 -5
      vertex 1.90704 1.06723 -5
      vertex 2.241 0.800919 -5
    endloop
  endfacet
  facet normal 0 0 -1
    outer loop
      vertex 2.241 0.800919 -5
      vertex 1.90704 1.06723 -5
      vertex 2.07829 0.939438 -5
    endloop
  endfacet
  facet normal 0 -0 -1
    outer loop
      vertex -1.15123 1.46155 -5
      vertex 1.15121 1.46155 -5
      vertex -1.90706 1.06723 -5
    endloop
  endfacet
  facet normal 0 0 -1
    outer loop
      vertex 1.90704 1.06723 -5
      vertex 1.54179 1.28865 -5
      vertex 1.72797 1.18381 -5
    endloop
  endfacet
  facet normal 0 0 -1
    outer loop
      vertex 1.90704 1.06723 -5
      vertex 1.34927 1.38136 -5
      vertex 1.54179 1.28865 -5
    endloop
  endfacet
  facet normal 0 0 -1
    outer loop
      vertex 1.90704 1.06723 -5
      vertex 1.15121 1.46155 -5
      vertex 1.34927 1.38136 -5
    endloop
  endfacet
  facet normal 0 -0 -1
    outer loop
      vertex -0.948425 1.52888 -5
      vertex 0.94841 1.52888 -5
      vertex -1.15123 1.46155 -5
    endloop
  endfacet
  facet normal 0 -0 -1
    outer loop
      vertex -0.106842 1.66495 -5
      vertex 0.106827 1.66495 -5
      vertex -0.948425 1.52888 -5
    endloop
  endfacet
  facet normal 0 0 -1
    outer loop
      vertex 0.94841 1.52888 -5
      vertex 0.106827 1.66495 -5
      vertex 0.74173 1.58308 -5
    endloop
  endfacet
  facet normal 0 0 -1
    outer loop
      vertex 0.74173 1.58308 -5
      vertex 0.106827 1.66495 -5
      vertex 0.531998 1.62393 -5
    endloop
  endfacet
  facet normal 0 0 -1
    outer loop
      vertex 0.531998 1.62393 -5
      vertex 0.106827 1.66495 -5
      vertex 0.320068 1.65126 -5
    endloop
  endfacet
  facet normal 0 -0 -1
    outer loop
      vertex -0.741745 1.58308 -5
      vertex -0.106842 1.66495 -5
      vertex -0.948425 1.52888 -5
    endloop
  endfacet
  facet normal 0 0 -1
    outer loop
      vertex -0.741745 1.58308 -5
      vertex -0.532013 1.62393 -5
      vertex -0.106842 1.66495 -5
    endloop
  endfacet
  facet normal 0 0 -1
    outer loop
      vertex -0.106842 1.66495 -5
      vertex -0.532013 1.62393 -5
      vertex -0.320084 1.65126 -5
    endloop
  endfacet
  facet normal 0 0 -1
    outer loop
      vertex -0.948425 1.52888 -5
      vertex 0.106827 1.66495 -5
      vertex 0.94841 1.52888 -5
    endloop
  endfacet
  facet normal 0 0 -1
    outer loop
      vertex -1.15123 1.46155 -5
      vertex 0.94841 1.52888 -5
      vertex 1.15121 1.46155 -5
    endloop
  endfacet
  facet normal 0 0 -1
    outer loop
      vertex -1.90706 1.06723 -5
      vertex 1.15121 1.46155 -5
      vertex 1.90704 1.06723 -5
    endloop
  endfacet
  facet normal 0 0 -1
    outer loop
      vertex -3.27187 -1.02948 -5
      vertex -1.90706 1.06723 -5
      vertex 1.90704 1.06723 -5
    endloop
  endfacet
  facet normal 0 0 -1
    outer loop
      vertex -1.15123 1.46155 -5
      vertex -1.90706 1.06723 -5
      vertex -1.34929 1.38136 -5
    endloop
  endfacet
  facet normal 0 0 -1
    outer loop
      vertex -1.34929 1.38136 -5
      vertex -1.90706 1.06723 -5
      vertex -1.54181 1.28865 -5
    endloop
  endfacet
  facet normal 0 0 -1
    outer loop
      vertex -1.54181 1.28865 -5
      vertex -1.90706 1.06723 -5
      vertex -1.72798 1.18381 -5
    endloop
  endfacet
  facet normal 0 -0 -1
    outer loop
      vertex -3.00323 -0.220398 -5
      vertex -2.53816 0.49408 -5
      vertex -3.27187 -1.02948 -5
    endloop
  endfacet
  facet normal 0 0 -1
    outer loop
      vertex -1.90706 1.06723 -5
      vertex -2.24101 0.800919 -5
      vertex -2.07831 0.939438 -5
    endloop
  endfacet
  facet normal 0 0 -1
    outer loop
      vertex -1.90706 1.06723 -5
      vertex -2.3945 0.652267 -5
      vertex -2.24101 0.800919 -5
    endloop
  endfacet
  facet normal 0 0 -1
    outer loop
      vertex -1.90706 1.06723 -5
      vertex -2.53816 0.49408 -5
      vertex -2.3945 0.652267 -5
    endloop
  endfacet
  facet normal 0 0 -1
    outer loop
      vertex -3.27187 -1.02948 -5
      vertex -2.53816 0.49408 -5
      vertex -1.90706 1.06723 -5
    endloop
  endfacet
  facet normal 0 0 -1
    outer loop
      vertex -3.00323 -0.220398 -5
      vertex -2.9044 -0.0309448 -5
      vertex -2.67139 0.327026 -5
    endloop
  endfacet
  facet normal 0 0 -1
    outer loop
      vertex -2.67139 0.327026 -5
      vertex -2.9044 -0.0309448 -5
      vertex -2.79364 0.151779 -5
    endloop
  endfacet
  facet normal 0 0 -1
    outer loop
      vertex -2.53816 0.49408 -5
      vertex -3.00323 -0.220398 -5
      vertex -2.67139 0.327026 -5
    endloop
  endfacet
  facet normal 0 0 -1
    outer loop
      vertex -3.27187 -1.02948 -5
      vertex 1.90704 1.06723 -5
      vertex 3.27185 -1.02948 -5
    endloop
  endfacet
  facet normal 0 0 -1
    outer loop
      vertex -3.00323 -0.220398 -5
      vertex -3.16353 -0.616318 -5
      vertex -3.08974 -0.415787 -5
    endloop
  endfacet
  facet normal 0 0 -1
    outer loop
      vertex -3.00323 -0.220398 -5
      vertex -3.22432 -0.821152 -5
      vertex -3.16353 -0.616318 -5
    endloop
  endfacet
  facet normal 0 0 -1
    outer loop
      vertex -3.30597 -1.24042 -5
      vertex -3.27187 -1.02948 -5
      vertex 3.27185 -1.02948 -5
    endloop
  endfacet
  facet normal 0 0 -1
    outer loop
      vertex 3.30595 -1.24042 -5
      vertex -3.30597 -1.24042 -5
      vertex 3.27185 -1.02948 -5
    endloop
  endfacet
  facet normal -0 0 -1
    outer loop
      vertex 3.30595 -1.24042 -5
      vertex -3.33334 -1.66667 -5
      vertex -3.30597 -1.24042 -5
    endloop
  endfacet
  facet normal 0 0 -1
    outer loop
      vertex -3.30597 -1.24042 -5
      vertex -3.33334 -1.66667 -5
      vertex -3.32649 -1.45311 -5
    endloop
  endfacet
  facet normal 0 0 -1
    outer loop
      vertex 3.33333 -3.33334 -5
      vertex -3.33334 -3.33334 -5
      vertex -3.33334 -1.66667 -5
    endloop
  endfacet
  facet normal 0 0 1
    outer loop
      vertex 3.33333 -1.66667 5
      vertex 5 5 5
      vertex 3.33333 5 5
    endloop
  endfacet
  facet normal -0 0 1
    outer loop
      vertex 3.33333 -1.66667 5
      vertex 5 -5 5
      vertex 5 5 5
    endloop
  endfacet
  facet normal 0 0 1
    outer loop
      vertex 3.32648 -1.45311 5
      vertex 3.30595 -1.24042 5
      vertex 3.33333 -1.66667 5
    endloop
  endfacet
  facet normal 0 0 1
    outer loop
      vertex -3.33334 5 5
      vertex -5 5 5
      vertex -3.33334 -1.66667 5
    endloop
  endfacet
  facet normal 0 0 1
    outer loop
      vertex -5 5 5
      vertex -5 -5 5
      vertex -3.33334 -1.66667 5
    endloop
  endfacet
  facet normal -0 0 1
    outer loop
      vertex -3.33334 -1.66667 5
      vertex 3.33333 -3.33334 5
      vertex 3.33333 -1.66667 5
    endloop
  endfacet
  facet normal 0 0 1
    outer loop
      vertex 3.30595 -1.24042 5
      vertex -3.33334 -1.66667 5
      vertex 3.33333 -1.66667 5
    endloop
  endfacet
  facet normal 0 0 1
    outer loop
      vertex -3.27187 -1.02948 5
      vertex -3.00323 -0.220398 5
      vertex -3.22432 -0.821152 5
    endloop
  endfacet
  facet normal 0 0 1
    outer loop
      vertex 3.2243 -0.821152 5
      vertex 3.16351 -0.616318 5
      vertex 3.00322 -0.220398 5
    endloop
  endfacet
  facet normal 0 0 1
    outer loop
      vertex 3.2243 -0.821152 5
      vertex 3.00322 -0.220398 5
      vertex 3.27185 -1.02948 5
    endloop
  endfacet
  facet normal 0 0 1
    outer loop
      vertex 3.08972 -0.415787 5
      vertex 3.00322 -0.220398 5
      vertex 3.16351 -0.616318 5
    endloop
  endfacet
  facet normal 0 0 1
    outer loop
      vertex 3.00322 -0.220398 5
      vertex 2.53815 0.49408 5
      vertex 3.27185 -1.02948 5
    endloop
  endfacet
  facet normal 0 0 1
    outer loop
      vertex 2.90439 -0.0309448 5
      vertex 2.79362 0.151779 5
      vertex 2.67137 0.327026 5
    endloop
  endfacet
  facet normal 0 0 1
    outer loop
      vertex 2.90439 -0.0309448 5
      vertex 2.67137 0.327026 5
      vertex 3.00322 -0.220398 5
    endloop
  endfacet
  facet normal 0 0 1
    outer loop
      vertex 2.67137 0.327026 5
      vertex 2.53815 0.49408 5
      vertex 3.00322 -0.220398 5
    endloop
  endfacet
  facet normal 0 0 1
    outer loop
      vertex 2.53815 0.49408 5
      vertex 2.39449 0.652267 5
      vertex 1.90704 1.06723 5
    endloop
  endfacet
  facet normal 0 0 1
    outer loop
      vertex 2.53815 0.49408 5
      vertex 1.90704 1.06723 5
      vertex 3.27185 -1.02948 5
    endloop
  endfacet
  facet normal 0 0 1
    outer loop
      vertex 2.241 0.800919 5
      vertex 1.90704 1.06723 5
      vertex 2.39449 0.652267 5
    endloop
  endfacet
  facet normal 0 0 1
    outer loop
      vertex 2.07829 0.939438 5
      vertex 1.90704 1.06723 5
      vertex 2.241 0.800919 5
    endloop
  endfacet
  facet normal 0 0 1
    outer loop
      vertex -1.90706 1.06723 5
      vertex 1.15121 1.46155 5
      vertex -1.15123 1.46155 5
    endloop
  endfacet
  facet normal 0 0 1
    outer loop
      vertex 1.72797 1.18381 5
      vertex 1.54179 1.28865 5
      vertex 1.90704 1.06723 5
    endloop
  endfacet
  facet normal 0 0 1
    outer loop
      vertex 1.54179 1.28865 5
      vertex 1.34927 1.38136 5
      vertex 1.90704 1.06723 5
    endloop
  endfacet
  facet normal 0 0 1
    outer loop
      vertex 1.34927 1.38136 5
      vertex 1.15121 1.46155 5
      vertex 1.90704 1.06723 5
    endloop
  endfacet
  facet normal 0 0 1
    outer loop
      vertex -1.15123 1.46155 5
      vertex 0.94841 1.52888 5
      vertex -0.948425 1.52888 5
    endloop
  endfacet
  facet normal 0 0 1
    outer loop
      vertex -0.948425 1.52888 5
      vertex 0.106827 1.66495 5
      vertex -0.106842 1.66495 5
    endloop
  endfacet
  facet normal 0 0 1
    outer loop
      vertex 0.74173 1.58308 5
      vertex 0.106827 1.66495 5
      vertex 0.94841 1.52888 5
    endloop
  endfacet
  facet normal 0 0 1
    outer loop
      vertex 0.531998 1.62393 5
      vertex 0.106827 1.66495 5
      vertex 0.74173 1.58308 5
    endloop
  endfacet
  facet normal 0 0 1
    outer loop
      vertex 0.320068 1.65126 5
      vertex 0.106827 1.66495 5
      vertex 0.531998 1.62393 5
    endloop
  endfacet
  facet normal 0 0 1
    outer loop
      vertex -0.948425 1.52888 5
      vertex -0.106842 1.66495 5
      vertex -0.741745 1.58308 5
    endloop
  endfacet
  facet normal 0 0 1
    outer loop
      vertex -0.106842 1.66495 5
      vertex -0.532013 1.62393 5
      vertex -0.741745 1.58308 5
    endloop
  endfacet
  facet normal -0 0 1
    outer loop
      vertex -0.320084 1.65126 5
      vertex -0.532013 1.62393 5
      vertex -0.106842 1.66495 5
    endloop
  endfacet
  facet normal 0 0 1
    outer loop
      vertex 0.94841 1.52888 5
      vertex 0.106827 1.66495 5
      vertex -0.948425 1.52888 5
    endloop
  endfacet
  facet normal 0 0 1
    outer loop
      vertex 1.15121 1.46155 5
      vertex 0.94841 1.52888 5
      vertex -1.15123 1.46155 5
    endloop
  endfacet
  facet normal 0 0 1
    outer loop
      vertex 1.90704 1.06723 5
      vertex 1.15121 1.46155 5
      vertex -1.90706 1.06723 5
    endloop
  endfacet
  facet normal 0 0 1
    outer loop
      vertex 1.90704 1.06723 5
      vertex -1.90706 1.06723 5
      vertex -3.27187 -1.02948 5
    endloop
  endfacet
  facet normal -0 0 1
    outer loop
      vertex -1.34929 1.38136 5
      vertex -1.90706 1.06723 5
      vertex -1.15123 1.46155 5
    endloop
  endfacet
  facet normal -0 0 1
    outer loop
      vertex -1.54181 1.28865 5
      vertex -1.90706 1.06723 5
      vertex -1.34929 1.38136 5
    endloop
  endfacet
  facet normal -0 0 1
    outer loop
      vertex -1.72798 1.18381 5
      vertex -1.90706 1.06723 5
      vertex -1.54181 1.28865 5
    endloop
  endfacet
  facet normal 0 0 1
    outer loop
      vertex -3.27187 -1.02948 5
      vertex -2.53816 0.49408 5
      vertex -3.00323 -0.220398 5
    endloop
  endfacet
  facet normal -0 0 1
    outer loop
      vertex -2.07831 0.939438 5
      vertex -2.24101 0.800919 5
      vertex -1.90706 1.06723 5
    endloop
  endfacet
  facet normal -0 0 1
    outer loop
      vertex -2.24101 0.800919 5
      vertex -2.3945 0.652267 5
      vertex -1.90706 1.06723 5
    endloop
  endfacet
  facet normal -0 0 1
    outer loop
      vertex -2.3945 0.652267 5
      vertex -2.53816 0.49408 5
      vertex -1.90706 1.06723 5
    endloop
  endfacet
  facet normal 0 0 1
    outer loop
      vertex -1.90706 1.06723 5
      vertex -2.53816 0.49408 5
      vertex -3.27187 -1.02948 5
    endloop
  endfacet
  facet normal 0 0 1
    outer loop
      vertex -2.67139 0.327026 5
      vertex -2.9044 -0.0309448 5
      vertex -3.00323 -0.220398 5
    endloop
  endfacet
  facet normal -0 0 1
    outer loop
      vertex -2.79364 0.151779 5
      vertex -2.9044 -0.0309448 5
      vertex -2.67139 0.327026 5
    endloop
  endfacet
  facet normal -0 0 1
    outer loop
      vertex -2.67139 0.327026 5
      vertex -3.00323 -0.220398 5
      vertex -2.53816 0.49408 5
    endloop
  endfacet
  facet normal 0 0 1
    outer loop
      vertex 3.27185 -1.02948 5
      vertex 1.90704 1.06723 5
      vertex -3.27187 -1.02948 5
    endloop
  endfacet
  facet normal -0 0 1
    outer loop
      vertex -3.08974 -0.415787 5
      vertex -3.16353 -0.616318 5
      vertex -3.00323 -0.220398 5
    endloop
  endfacet
  facet normal -0 0 1
    outer loop
      vertex -3.16353 -0.616318 5
      vertex -3.22432 -0.821152 5
      vertex -3.00323 -0.220398 5
    endloop
  endfacet
  facet normal 0 0 1
    outer loop
      vertex 3.27185 -1.02948 5
      vertex -3.27187 -1.02948 5
      vertex -3.30597 -1.24042 5
    endloop
  endfacet
  facet normal 0 0 1
    outer loop
      vertex 3.27185 -1.02948 5
      vertex -3.30597 -1.24042 5
      vertex 3.30595 -1.24042 5
    endloop
  endfacet
  facet normal -0 0 1
    outer loop
      vertex -3.30597 -1.24042 5
      vertex -3.33334 -1.66667 5
      vertex 3.30595 -1.24042 5
    endloop
  endfacet
  facet normal -0 0 1
    outer loop
      vertex -3.32649 -1.45311 5
      vertex -3.33334 -1.66667 5
      vertex -3.30597 -1.24042 5
    endloop
  endfacet
  facet normal 0 0 1
    outer loop
      vertex -3.33334 -1.66667 5
      vertex -3.33334 -3.33334 5
      vertex 3.33333 -3.33334 5
    endloop
  endfacet
  facet normal 0 1 0
    outer loop
      vertex 3.33333 5 -5
      vertex 5 5 5
      vertex 5 5 -5
    endloop
  endfacet
  facet normal 0 1 0
    outer loop
      vertex 3.33333 5 -5
      vertex 3.33333 5 5
      vertex 5 5 5
    endloop
  endfacet
  facet normal -1 0 0
    outer loop
      vertex 3.33333 -1.66667 -5
      vertex 3.33333 5 5
      vertex 3.33333 5 -5
    endloop
  endfacet
  facet normal -1 0 0
    outer loop
      vertex 3.33333 -1.66667 -5
      vertex 3.33333 -1.66667 5
      vertex 3.33333 5 5
    endloop
  endfacet
  facet normal -0.894427 -0.447215 0
    outer loop
      vertex 5 -5 -5
      vertex 3.33333 -1.66667 5
      vertex 3.33333 -1.66667 -5
    endloop
  endfacet
  facet normal -0.894427 -0.447215 0
    outer loop
      vertex 5 -5 -5
      vertex 5 -5 5
      vertex 3.33333 -1.66667 5
    endloop
  endfacet
  facet normal 1 0 0
    outer loop
      vertex 5 5 -5
      vertex 5 -5 5
      vertex 5 -5 -5
    endloop
  endfacet
  facet normal 1 0 -0
    outer loop
      vertex 5 5 -5
      vertex 5 5 5
      vertex 5 -5 5
    endloop
  endfacet
  facet normal 1 0 0
    outer loop
      vertex -3.33334 5 -5
      vertex -3.33334 -1.66667 5
      vertex -3.33334 -1.66667 -5
    endloop
  endfacet
  facet normal 1 0 -0
    outer loop
      vertex -3.33334 5 -5
      vertex -3.33334 5 5
      vertex -3.33334 -1.66667 5
    endloop
  endfacet
  facet normal 0 1 0
    outer loop
      vertex -5 5 -5
      vertex -3.33334 5 5
      vertex -3.33334 5 -5
    endloop
  endfacet
  facet normal 0 1 0
    outer loop
      vertex -5 5 -5
      vertex -5 5 5
      vertex -3.33334 5 5
    endloop
  endfacet
  facet normal -1 0 0
    outer loop
      vertex -5 -5 -5
      vertex -5 5 5
      vertex -5 5 -5
    endloop
  endfacet
  facet normal -1 0 0
    outer loop
      vertex -5 -5 -5
      vertex -5 -5 5
      vertex -5 5 5
    endloop
  endfacet
  facet normal 0.894428 -0.447213 0
    outer loop
      vertex -3.33334 -1.66667 -5
      vertex -5 -5 5
      vertex -5 -5 -5
    endloop
  endfacet
  facet normal 0.894428 -0.447213 0
    outer loop
      vertex -3.33334 -1.66667 -5
      vertex -3.33334 -1.66667 5
      vertex -5 -5 5
    endloop
  endfacet
  facet normal 0.999486 0.0320588 0
    outer loop
      vertex 3.32648 -1.45311 -5
      vertex 3.33333 -1.66667 5
      vertex 3.33333 -1.66667 -5
    endloop
  endfacet
  facet normal 0.999486 0.0320588 -0
    outer loop
      vertex 3.32648 -1.45311 -5
      vertex 3.32648 -1.45311 5
      vertex 3.33333 -1.66667 5
    endloop
  endfacet
  facet normal 0.995374 0.0960789 0
    outer loop
      vertex 3.30595 -1.24042 -5
      vertex 3.32648 -1.45311 5
      vertex 3.32648 -1.45311 -5
    endloop
  endfacet
  facet normal 0.995374 0.0960789 -0
    outer loop
      vertex 3.30595 -1.24042 -5
      vertex 3.30595 -1.24042 5
      vertex 3.32648 -1.45311 5
    endloop
  endfacet
  facet normal 0.987184 0.159586 0
    outer loop
      vertex 3.27185 -1.02948 -5
      vertex 3.30595 -1.24042 5
      vertex 3.30595 -1.24042 -5
    endloop
  endfacet
  facet normal 0.987184 0.159586 -0
    outer loop
      vertex 3.27185 -1.02948 -5
      vertex 3.27185 -1.02948 5
      vertex 3.30595 -1.24042 5
    endloop
  endfacet
  facet normal 0.974927 0.222523 0
    outer loop
      vertex 3.2243 -0.821152 -5
      vertex 3.27185 -1.02948 5
      vertex 3.27185 -1.02948 -5
    endloop
  endfacet
  facet normal 0.974927 0.222523 -0
    outer loop
      vertex 3.2243 -0.821152 -5
      vertex 3.2243 -0.821152 5
      vertex 3.27185 -1.02948 5
    endloop
  endfacet
  facet normal 0.958673 0.284512 0
    outer loop
      vertex 3.16351 -0.616318 -5
      vertex 3.2243 -0.821152 5
      vertex 3.2243 -0.821152 -5
    endloop
  endfacet
  facet normal 0.958673 0.284512 -0
    outer loop
      vertex 3.16351 -0.616318 -5
      vertex 3.16351 -0.616318 5
      vertex 3.2243 -0.821152 5
    endloop
  endfacet
  facet normal 0.938479 0.345335 0
    outer loop
      vertex 3.08972 -0.415787 -5
      vertex 3.16351 -0.616318 5
      vertex 3.16351 -0.616318 -5
    endloop
  endfacet
  facet normal 0.938479 0.345335 -0
    outer loop
      vertex 3.08972 -0.415787 -5
      vertex 3.08972 -0.415787 5
      vertex 3.16351 -0.616318 5
    endloop
  endfacet
  facet normal 0.9144 0.404811 0
    outer loop
      vertex 3.00322 -0.220398 -5
      vertex 3.08972 -0.415787 5
      vertex 3.08972 -0.415787 -5
    endloop
  endfacet
  facet normal 0.9144 0.404811 -0
    outer loop
      vertex 3.00322 -0.220398 -5
      vertex 3.00322 -0.220398 5
      vertex 3.08972 -0.415787 5
    endloop
  endfacet
  facet normal 0.886614 0.46251 0
    outer loop
      vertex 2.90439 -0.0309448 -5
      vertex 3.00322 -0.220398 5
      vertex 3.00322 -0.220398 -5
    endloop
  endfacet
  facet normal 0.886614 0.46251 -0
    outer loop
      vertex 2.90439 -0.0309448 -5
      vertex 2.90439 -0.0309448 5
      vertex 3.00322 -0.220398 5
    endloop
  endfacet
  facet normal 0.855139 0.518399 0
    outer loop
      vertex 2.79362 0.151779 -5
      vertex 2.90439 -0.0309448 5
      vertex 2.90439 -0.0309448 -5
    endloop
  endfacet
  facet normal 0.855139 0.518399 -0
    outer loop
      vertex 2.79362 0.151779 -5
      vertex 2.79362 0.151779 5
      vertex 2.90439 -0.0309448 5
    endloop
  endfacet
  facet normal 0.820161 0.572133 0
    outer loop
      vertex 2.67137 0.327026 -5
      vertex 2.79362 0.151779 5
      vertex 2.79362 0.151779 -5
    endloop
  endfacet
  facet normal 0.820161 0.572133 -0
    outer loop
      vertex 2.67137 0.327026 -5
      vertex 2.67137 0.327026 5
      vertex 2.79362 0.151779 5
    endloop
  endfacet
  facet normal 0.781834 0.623487 0
    outer loop
      vertex 2.53815 0.49408 -5
      vertex 2.67137 0.327026 5
      vertex 2.67137 0.327026 -5
    endloop
  endfacet
  facet normal 0.781834 0.623487 -0
    outer loop
      vertex 2.53815 0.49408 -5
      vertex 2.53815 0.49408 5
      vertex 2.67137 0.327026 5
    endloop
  endfacet
  facet normal 0.740281 0.672298 0
    outer loop
      vertex 2.39449 0.652267 -5
      vertex 2.53815 0.49408 5
      vertex 2.53815 0.49408 -5
    endloop
  endfacet
  facet normal 0.740281 0.672298 -0
    outer loop
      vertex 2.39449 0.652267 -5
      vertex 2.39449 0.652267 5
      vertex 2.53815 0.49408 5
    endloop
  endfacet
  facet normal 0.695695 0.718337 0
    outer loop
      vertex 2.241 0.800919 -5
      vertex 2.39449 0.652267 5
      vertex 2.39449 0.652267 -5
    endloop
  endfacet
  facet normal 0.695695 0.718337 -0
    outer loop
      vertex 2.241 0.800919 -5
      vertex 2.241 0.800919 5
      vertex 2.39449 0.652267 5
    endloop
  endfacet
  facet normal 0.648234 0.761441 0
    outer loop
      vertex 2.07829 0.939438 -5
      vertex 2.241 0.800919 5
      vertex 2.241 0.800919 -5
    endloop
  endfacet
  facet normal 0.648234 0.761441 -0
    outer loop
      vertex 2.07829 0.939438 -5
      vertex 2.07829 0.939438 5
      vertex 2.241 0.800919 5
    endloop
  endfacet
  facet normal 0.598065 0.801448 0
    outer loop
      vertex 1.90704 1.06723 -5
      vertex 2.07829 0.939438 5
      vertex 2.07829 0.939438 -5
    endloop
  endfacet
  facet normal 0.598065 0.801448 -0
    outer loop
      vertex 1.90704 1.06723 -5
      vertex 1.90704 1.06723 5
      vertex 2.07829 0.939438 5
    endloop
  endfacet
  facet normal 0.545595 0.838049 0
    outer loop
      vertex 1.72797 1.18381 -5
      vertex 1.90704 1.06723 5
      vertex 1.90704 1.06723 -5
    endloop
  endfacet
  facet normal 0.545595 0.838049 -0
    outer loop
      vertex 1.72797 1.18381 -5
      vertex 1.72797 1.18381 5
      vertex 1.90704 1.06723 5
    endloop
  endfacet
  facet normal 0.490666 0.871348 0
    outer loop
      vertex 1.54179 1.28865 -5
      vertex 1.72797 1.18381 5
      vertex 1.72797 1.18381 -5
    endloop
  endfacet
  facet normal 0.490666 0.871348 -0
    outer loop
      vertex 1.54179 1.28865 -5
      vertex 1.54179 1.28865 5
      vertex 1.72797 1.18381 5
    endloop
  endfacet
  facet normal 0.433873 0.900974 0
    outer loop
      vertex 1.34927 1.38136 -5
      vertex 1.54179 1.28865 5
      vertex 1.54179 1.28865 -5
    endloop
  endfacet
  facet normal 0.433873 0.900974 -0
    outer loop
      vertex 1.34927 1.38136 -5
      vertex 1.34927 1.38136 5
      vertex 1.54179 1.28865 5
    endloop
  endfacet
  facet normal 0.375285 0.92691 0
    outer loop
      vertex 1.15121 1.46155 -5
      vertex 1.34927 1.38136 5
      vertex 1.34927 1.38136 -5
    endloop
  endfacet
  facet normal 0.375285 0.92691 -0
    outer loop
      vertex 1.15121 1.46155 -5
      vertex 1.15121 1.46155 5
      vertex 1.34927 1.38136 5
    endloop
  endfacet
  facet normal 0.31509 0.949062 0
    outer loop
      vertex 0.94841 1.52888 -5
      vertex 1.15121 1.46155 5
      vertex 1.15121 1.46155 -5
    endloop
  endfacet
  facet normal 0.31509 0.949062 -0
    outer loop
      vertex 0.94841 1.52888 -5
      vertex 0.94841 1.52888 5
      vertex 1.15121 1.46155 5
    endloop
  endfacet
  facet normal 0.253664 0.967292 0
    outer loop
      vertex 0.74173 1.58308 -5
      vertex 0.94841 1.52888 5
      vertex 0.94841 1.52888 -5
    endloop
  endfacet
  facet normal 0.253664 0.967292 -0
    outer loop
      vertex 0.74173 1.58308 -5
      vertex 0.74173 1.58308 5
      vertex 0.94841 1.52888 5
    endloop
  endfacet
  facet normal 0.19118 0.981555 0
    outer loop
      vertex 0.531998 1.62393 -5
      vertex 0.74173 1.58308 5
      vertex 0.74173 1.58308 -5
    endloop
  endfacet
  facet normal 0.19118 0.981555 -0
    outer loop
      vertex 0.531998 1.62393 -5
      vertex 0.531998 1.62393 5
      vertex 0.74173 1.58308 5
    endloop
  endfacet
  facet normal 0.127899 0.991787 0
    outer loop
      vertex 0.320068 1.65126 -5
      vertex 0.531998 1.62393 5
      vertex 0.531998 1.62393 -5
    endloop
  endfacet
  facet normal 0.127899 0.991787 -0
    outer loop
      vertex 0.320068 1.65126 -5
      vertex 0.320068 1.65126 5
      vertex 0.531998 1.62393 5
    endloop
  endfacet
  facet normal 0.0640678 0.997946 0
    outer loop
      vertex 0.106827 1.66495 -5
      vertex 0.320068 1.65126 5
      vertex 0.320068 1.65126 -5
    endloop
  endfacet
  facet normal 0.0640678 0.997946 -0
    outer loop
      vertex 0.106827 1.66495 -5
      vertex 0.106827 1.66495 5
      vertex 0.320068 1.65126 5
    endloop
  endfacet
  facet normal 0 1 0
    outer loop
      vertex -0.106842 1.66495 -5
      vertex 0.106827 1.66495 5
      vertex 0.106827 1.66495 -5
    endloop
  endfacet
  facet normal 0 1 0
    outer loop
      vertex -0.106842 1.66495 -5
      vertex -0.106842 1.66495 5
      vertex 0.106827 1.66495 5
    endloop
  endfacet
  facet normal -0.0640675 0.997946 0
    outer loop
      vertex -0.320084 1.65126 -5
      vertex -0.106842 1.66495 5
      vertex -0.106842 1.66495 -5
    endloop
  endfacet
  facet normal -0.0640675 0.997946 0
    outer loop
      vertex -0.320084 1.65126 -5
      vertex -0.320084 1.65126 5
      vertex -0.106842 1.66495 5
    endloop
  endfacet
  facet normal -0.127899 0.991787 0
    outer loop
      vertex -0.532013 1.62393 -5
      vertex -0.320084 1.65126 5
      vertex -0.320084 1.65126 -5
    endloop
  endfacet
  facet normal -0.127899 0.991787 0
    outer loop
      vertex -0.532013 1.62393 -5
      vertex -0.532013 1.62393 5
      vertex -0.320084 1.65126 5
    endloop
  endfacet
  facet normal -0.19118 0.981555 0
    outer loop
      vertex -0.741745 1.58308 -5
      vertex -0.532013 1.62393 5
      vertex -0.532013 1.62393 -5
    endloop
  endfacet
  facet normal -0.19118 0.981555 0
    outer loop
      vertex -0.741745 1.58308 -5
      vertex -0.741745 1.58308 5
      vertex -0.532013 1.62393 5
    endloop
  endfacet
  facet normal -0.253664 0.967292 0
    outer loop
      vertex -0.948425 1.52888 -5
      vertex -0.741745 1.58308 5
      vertex -0.741745 1.58308 -5
    endloop
  endfacet
  facet normal -0.253664 0.967292 0
    outer loop
      vertex -0.948425 1.52888 -5
      vertex -0.948425 1.52888 5
      vertex -0.741745 1.58308 5
    endloop
  endfacet
  facet normal -0.315083 0.949064 0
    outer loop
      vertex -1.15123 1.46155 -5
      vertex -0.948425 1.52888 5
      vertex -0.948425 1.52888 -5
    endloop
  endfacet
  facet normal -0.315083 0.949064 0
    outer loop
      vertex -1.15123 1.46155 -5
      vertex -1.15123 1.46155 5
      vertex -0.948425 1.52888 5
    endloop
  endfacet
  facet normal -0.375285 0.92691 0
    outer loop
      vertex -1.34929 1.38136 -5
      vertex -1.15123 1.46155 5
      vertex -1.15123 1.46155 -5
    endloop
  endfacet
  facet normal -0.375285 0.92691 0
    outer loop
      vertex -1.34929 1.38136 -5
      vertex -1.34929 1.38136 5
      vertex -1.15123 1.46155 5
    endloop
  endfacet
  facet normal -0.433873 0.900974 0
    outer loop
      vertex -1.54181 1.28865 -5
      vertex -1.34929 1.38136 5
      vertex -1.34929 1.38136 -5
    endloop
  endfacet
  facet normal -0.433873 0.900974 0
    outer loop
      vertex -1.54181 1.28865 -5
      vertex -1.54181 1.28865 5
      vertex -1.34929 1.38136 5
    endloop
  endfacet
  facet normal -0.490686 0.871337 0
    outer loop
      vertex -1.72798 1.18381 -5
      vertex -1.54181 1.28865 5
      vertex -1.54181 1.28865 -5
    endloop
  endfacet
  facet normal -0.490686 0.871337 0
    outer loop
      vertex -1.72798 1.18381 -5
      vertex -1.72798 1.18381 5
      vertex -1.54181 1.28865 5
    endloop
  endfacet
  facet normal -0.545574 0.838063 0
    outer loop
      vertex -1.90706 1.06723 -5
      vertex -1.72798 1.18381 5
      vertex -1.72798 1.18381 -5
    endloop
  endfacet
  facet normal -0.545574 0.838063 0
    outer loop
      vertex -1.90706 1.06723 -5
      vertex -1.90706 1.06723 5
      vertex -1.72798 1.18381 5
    endloop
  endfacet
  facet normal -0.598065 0.801448 0
    outer loop
      vertex -2.07831 0.939438 -5
      vertex -1.90706 1.06723 5
      vertex -1.90706 1.06723 -5
    endloop
  endfacet
  facet normal -0.598065 0.801448 0
    outer loop
      vertex -2.07831 0.939438 -5
      vertex -2.07831 0.939438 5
      vertex -1.90706 1.06723 5
    endloop
  endfacet
  facet normal -0.648257 0.761422 0
    outer loop
      vertex -2.24101 0.800919 -5
      vertex -2.07831 0.939438 5
      vertex -2.07831 0.939438 -5
    endloop
  endfacet
  facet normal -0.648257 0.761422 0
    outer loop
      vertex -2.24101 0.800919 -5
      vertex -2.24101 0.800919 5
      vertex -2.07831 0.939438 5
    endloop
  endfacet
  facet normal -0.695695 0.718337 0
    outer loop
      vertex -2.3945 0.652267 -5
      vertex -2.24101 0.800919 5
      vertex -2.24101 0.800919 -5
    endloop
  endfacet
  facet normal -0.695695 0.718337 0
    outer loop
      vertex -2.3945 0.652267 -5
      vertex -2.3945 0.652267 5
      vertex -2.24101 0.800919 5
    endloop
  endfacet
  facet normal -0.740281 0.672298 0
    outer loop
      vertex -2.53816 0.49408 -5
      vertex -2.3945 0.652267 5
      vertex -2.3945 0.652267 -5
    endloop
  endfacet
  facet normal -0.740281 0.672298 0
    outer loop
      vertex -2.53816 0.49408 -5
      vertex -2.53816 0.49408 5
      vertex -2.3945 0.652267 5
    endloop
  endfacet
  facet normal -0.781811 0.623515 0
    outer loop
      vertex -2.67139 0.327026 -5
      vertex -2.53816 0.49408 5
      vertex -2.53816 0.49408 -5
    endloop
  endfacet
  facet normal -0.781811 0.623515 0
    outer loop
      vertex -2.67139 0.327026 -5
      vertex -2.67139 0.327026 5
      vertex -2.53816 0.49408 5
    endloop
  endfacet
  facet normal -0.820161 0.572133 0
    outer loop
      vertex -2.79364 0.151779 -5
      vertex -2.67139 0.327026 5
      vertex -2.67139 0.327026 -5
    endloop
  endfacet
  facet normal -0.820161 0.572133 0
    outer loop
      vertex -2.79364 0.151779 -5
      vertex -2.79364 0.151779 5
      vertex -2.67139 0.327026 5
    endloop
  endfacet
  facet normal -0.85516 0.518364 0
    outer loop
      vertex -2.9044 -0.0309448 -5
      vertex -2.79364 0.151779 5
      vertex -2.79364 0.151779 -5
    endloop
  endfacet
  facet normal -0.85516 0.518364 0
    outer loop
      vertex -2.9044 -0.0309448 -5
      vertex -2.9044 -0.0309448 5
      vertex -2.79364 0.151779 5
    endloop
  endfacet
  facet normal -0.886614 0.46251 0
    outer loop
      vertex -3.00323 -0.220398 -5
      vertex -2.9044 -0.0309448 5
      vertex -2.9044 -0.0309448 -5
    endloop
  endfacet
  facet normal -0.886614 0.46251 0
    outer loop
      vertex -3.00323 -0.220398 -5
      vertex -3.00323 -0.220398 5
      vertex -2.9044 -0.0309448 5
    endloop
  endfacet
  facet normal -0.914383 0.40485 0
    outer loop
      vertex -3.08974 -0.415787 -5
      vertex -3.00323 -0.220398 5
      vertex -3.00323 -0.220398 -5
    endloop
  endfacet
  facet normal -0.914383 0.40485 0
    outer loop
      vertex -3.08974 -0.415787 -5
      vertex -3.08974 -0.415787 5
      vertex -3.00323 -0.220398 5
    endloop
  endfacet
  facet normal -0.938479 0.345335 0
    outer loop
      vertex -3.16353 -0.616318 -5
      vertex -3.08974 -0.415787 5
      vertex -3.08974 -0.415787 -5
    endloop
  endfacet
  facet normal -0.938479 0.345335 0
    outer loop
      vertex -3.16353 -0.616318 -5
      vertex -3.16353 -0.616318 5
      vertex -3.08974 -0.415787 5
    endloop
  endfacet
  facet normal -0.958673 0.284512 0
    outer loop
      vertex -3.22432 -0.821152 -5
      vertex -3.16353 -0.616318 5
      vertex -3.16353 -0.616318 -5
    endloop
  endfacet
  facet normal -0.958673 0.284512 0
    outer loop
      vertex -3.22432 -0.821152 -5
      vertex -3.22432 -0.821152 5
      vertex -3.16353 -0.616318 5
    endloop
  endfacet
  facet normal -0.974927 0.222523 0
    outer loop
      vertex -3.27187 -1.02948 -5
      vertex -3.22432 -0.821152 5
      vertex -3.22432 -0.821152 -5
    endloop
  endfacet
  facet normal -0.974927 0.222523 0
    outer loop
      vertex -3.27187 -1.02948 -5
      vertex -3.27187 -1.02948 5
      vertex -3.22432 -0.821152 5
    endloop
  endfacet
  facet normal -0.987184 0.159586 0
    outer loop
      vertex -3.30597 -1.24042 -5
      vertex -3.27187 -1.02948 5
      vertex -3.27187 -1.02948 -5
    endloop
  endfacet
  facet normal -0.987184 0.159586 0
    outer loop
      vertex -3.30597 -1.24042 -5
      vertex -3.30597 -1.24042 5
      vertex -3.27187 -1.02948 5
    endloop
  endfacet
  facet normal -0.995378 0.0960325 0
    outer loop
      vertex -3.32649 -1.45311 -5
      vertex -3.30597 -1.24042 5
      vertex -3.30597 -1.24042 -5
    endloop
  endfacet
  facet normal -0.995378 0.0960325 0
    outer loop
      vertex -3.32649 -1.45311 -5
      vertex -3.32649 -1.45311 5
      vertex -3.30597 -1.24042 5
    endloop
  endfacet
  facet normal -0.999486 0.0320588 0
    outer loop
      vertex -3.33334 -1.66667 -5
      vertex -3.32649 -1.45311 5
      vertex -3.32649 -1.45311 -5
    endloop
  endfacet
  facet normal -0.999486 0.0320588 0
    outer loop
      vertex -3.33334 -1.66667 -5
      vertex -3.33334 -1.66667 5
      vertex -3.32649 -1.45311 5
    endloop
  endfacet
  facet normal -1 0 0
    outer loop
      vertex -3.33334 -3.33334 -5
      vertex -3.33334 -1.66667 5
      vertex -3.33334 -1.66667 -5
    endloop
  endfacet
  facet normal -1 0 0
    outer loop
      vertex -3.33334 -3.33334 -5
      vertex -3.33334 -3.33334 5
      vertex -3.33334 -1.66667 5
    endloop
  endfacet
  facet normal 0 -1 0
    outer loop
      vertex 3.33333 -3.33334 -5
      vertex -3.33334 -3.33334 5
      vertex -3.33334 -3.33334 -5
    endloop
  endfacet
  facet normal 0 -1 0
    outer loop
      vertex 3.33333 -3.33334 -5
      vertex 3.33333 -3.33334 5
      vertex -3.33334 -3.33334 5
    endloop
  endfacet
  facet normal 1 0 0
    outer loop
      vertex 3.33333 -1.66667 -5
      vertex 3.33333 -3.33334 5
      vertex 3.33333 -3.33334 -5
    endloop
  endfacet
  facet normal 1 0 -0
    outer loop
      vertex 3.33333 -1.66667 -5
      vertex 3.33333 -1.66667 5
      vertex 3.33333 -3.33334 5
    endloop
  endfacet
endsolid OpenSCAD_Model
