solid OpenSCAD_Model
  facet normal 0 0 -1
    outer loop
      vertex 0 -2.50002 -5
      vertex 0 -1.66667 -5
      vertex 1.66666 -1.66667 -5
    endloop
  endfacet
  facet normal -0 0 -1
    outer loop
      vertex 5 5 -5
      vertex 1.66667 1.66667 -5
      vertex 3.33333 5 -5
    endloop
  endfacet
  facet normal 0 0 -1
    outer loop
      vertex -3.33334 5 -5
      vertex 0 0 -5
      vertex -1.66669 1.66669 -5
    endloop
  endfacet
  facet normal 0 0 -1
    outer loop
      vertex 0 0 -5
      vertex 1.66667 1.66667 -5
      vertex 0 -1.66667 -5
    endloop
  endfacet
  facet normal 0 0 -1
    outer loop
      vertex -5 5 -5
      vertex -1.66669 1.66669 -5
      vertex -0.555557 -1.66667 -5
    endloop
  endfacet
  facet normal 0 0 -1
    outer loop
      vertex -1.66669 1.66669 -5
      vertex 0 -1.66667 -5
      vertex -0.555557 -1.66667 -5
    endloop
  endfacet
  facet normal 0 0 -1
    outer loop
      vertex 0 -2.50002 -5
      vertex 1.66666 -1.66667 -5
      vertex 1.66666 -5 -5
    endloop
  endfacet
  facet normal 0 0 -1
    outer loop
      vertex -1.66667 -1.66667 -5
      vertex -0.555557 -1.66667 -5
      vertex 0 -2.50002 -5
    endloop
  endfacet
  facet normal 0 0 -1
    outer loop
      vertex -1.66667 -1.66667 -5
      vertex 0 -2.50002 -5
      vertex -1.66667 -5 -5
    endloop
  endfacet
  facet normal 0 0 -1
    outer loop
      vertex -1.66667 -5 -5
      vertex 0 -2.50002 -5
      vertex 0 -5 -5
    endloop
  endfacet
  facet normal 0 0 1
    outer loop
      vertex 1.66666 -1.66667 5
      vertex 0 -1.66667 5
      vertex 0 -2.50002 5
    endloop
  endfacet
  facet normal -0 0 1
    outer loop
      vertex 3.33333 5 5
      vertex 1.66667 1.66667 5
      vertex 5 5 5
    endloop
  endfacet
  facet normal -0 -0 1
    outer loop
      vertex -1.66669 1.66669 5
      vertex 0 0 5
      vertex -3.33334 5 5
    endloop
  endfacet
  facet normal 0 0 1
    outer loop
      vertex 0 -1.66667 5
      vertex 1.66667 1.66667 5
      vertex 0 0 5
    endloop
  endfacet
  facet normal 0 0 1
    outer loop
      vertex -0.555557 -1.66667 5
      vertex -1.66669 1.66669 5
      vertex -5 5 5
    endloop
  endfacet
  facet normal 0 -0 1
    outer loop
      vertex -0.555557 -1.66667 5
      vertex 0 -1.66667 5
      vertex -1.66669 1.66669 5
    endloop
  endfacet
  facet normal 0 -0 1
    outer loop
      vertex 1.66666 -5 5
      vertex 1.66666 -1.66667 5
      vertex 0 -2.50002 5
    endloop
  endfacet
  facet normal 0 0 1
    outer loop
      vertex 0 -2.50002 5
      vertex -0.555557 -1.66667 5
      vertex -1.66667 -1.66667 5
    endloop
  endfacet
  facet normal 0 0 1
    outer loop
      vertex -1.66667 -5 5
      vertex 0 -2.50002 5
      vertex -1.66667 -1.66667 5
    endloop
  endfacet
  facet normal 0 -0 1
    outer loop
      vertex 0 -5 5
      vertex 0 -2.50002 5
      vertex -1.66667 -5 5
    endloop
  endfacet
  facet normal 0.707107 -0.707107 0
    outer loop
      vertex 5 5 -5
      vertex 1.66667 1.66667 5
      vertex 1.66667 1.66667 -5
    endloop
  endfacet
  facet normal 0.707107 -0.707107 0
    outer loop
      vertex 5 5 -5
      vertex 5 5 5
      vertex 1.66667 1.66667 5
    endloop
  endfacet
  facet normal 0 1 0
    outer loop
      vertex 3.33333 5 -5
      vertex 5 5 5
      vertex 5 5 -5
    endloop
  endfacet
  facet normal 0 1 0
    outer loop
      vertex 3.33333 5 -5
      vertex 3.33333 5 5
      vertex 5 5 5
    endloop
  endfacet
  facet normal -0.894428 0.447213 0
    outer loop
      vertex 1.66667 1.66667 -5
      vertex 3.33333 5 5
      vertex 3.33333 5 -5
    endloop
  endfacet
  facet normal -0.894428 0.447213 0
    outer loop
      vertex 1.66667 1.66667 -5
      vertex 1.66667 1.66667 5
      vertex 3.33333 5 5
    endloop
  endfacet
  facet normal -0.707107 0.707107 0
    outer loop
      vertex 0 0 -5
      vertex 1.66667 1.66667 5
      vertex 1.66667 1.66667 -5
    endloop
  endfacet
  facet normal -0.707107 0.707107 0
    outer loop
      vertex 0 0 -5
      vertex 0 0 5
      vertex 1.66667 1.66667 5
    endloop
  endfacet
  facet normal 0.83205 0.554701 0
    outer loop
      vertex -3.33334 5 -5
      vertex 0 0 5
      vertex 0 0 -5
    endloop
  endfacet
  facet normal 0.83205 0.554701 -0
    outer loop
      vertex -3.33334 5 -5
      vertex -3.33334 5 5
      vertex 0 0 5
    endloop
  endfacet
  facet normal -0.894428 -0.447213 0
    outer loop
      vertex -1.66669 1.66669 -5
      vertex -3.33334 5 5
      vertex -3.33334 5 -5
    endloop
  endfacet
  facet normal -0.894428 -0.447213 0
    outer loop
      vertex -1.66669 1.66669 -5
      vertex -1.66669 1.66669 5
      vertex -3.33334 5 5
    endloop
  endfacet
  facet normal -0.707107 -0.707107 0
    outer loop
      vertex 0 0 -5
      vertex -1.66669 1.66669 5
      vertex -1.66669 1.66669 -5
    endloop
  endfacet
  facet normal -0.707107 -0.707107 0
    outer loop
      vertex 0 0 -5
      vertex 0 0 5
      vertex -1.66669 1.66669 5
    endloop
  endfacet
  facet normal -1 0 0
    outer loop
      vertex 0 -1.66667 -5
      vertex 0 0 5
      vertex 0 0 -5
    endloop
  endfacet
  facet normal -1 0 0
    outer loop
      vertex 0 -1.66667 -5
      vertex 0 -1.66667 5
      vertex 0 0 5
    endloop
  endfacet
  facet normal 0.894427 -0.447214 0
    outer loop
      vertex 1.66667 1.66667 -5
      vertex 0 -1.66667 5
      vertex 0 -1.66667 -5
    endloop
  endfacet
  facet normal 0.894427 -0.447214 0
    outer loop
      vertex 1.66667 1.66667 -5
      vertex 1.66667 1.66667 5
      vertex 0 -1.66667 5
    endloop
  endfacet
  facet normal 0 1 0
    outer loop
      vertex 0 -1.66667 -5
      vertex 1.66666 -1.66667 5
      vertex 1.66666 -1.66667 -5
    endloop
  endfacet
  facet normal 0 1 0
    outer loop
      vertex 0 -1.66667 -5
      vertex 0 -1.66667 5
      vertex 1.66666 -1.66667 5
    endloop
  endfacet
  facet normal 0.894426 0.447216 0
    outer loop
      vertex -1.66669 1.66669 -5
      vertex 0 -1.66667 5
      vertex 0 -1.66667 -5
    endloop
  endfacet
  facet normal 0.894426 0.447216 -0
    outer loop
      vertex -1.66669 1.66669 -5
      vertex -1.66669 1.66669 5
      vertex 0 -1.66667 5
    endloop
  endfacet
  facet normal 0.707107 0.707107 0
    outer loop
      vertex -5 5 -5
      vertex -1.66669 1.66669 5
      vertex -1.66669 1.66669 -5
    endloop
  endfacet
  facet normal 0.707107 0.707107 -0
    outer loop
      vertex -5 5 -5
      vertex -5 5 5
      vertex -1.66669 1.66669 5
    endloop
  endfacet
  facet normal -0.832051 -0.5547 0
    outer loop
      vertex -0.555557 -1.66667 -5
      vertex -5 5 5
      vertex -5 5 -5
    endloop
  endfacet
  facet normal -0.832051 -0.5547 0
    outer loop
      vertex -0.555557 -1.66667 -5
      vertex -0.555557 -1.66667 5
      vertex -5 5 5
    endloop
  endfacet
  facet normal 0 -1 0
    outer loop
      vertex 0 -1.66667 -5
      vertex -0.555557 -1.66667 5
      vertex -0.555557 -1.66667 -5
    endloop
  endfacet
  facet normal 0 -1 0
    outer loop
      vertex 0 -1.66667 -5
      vertex 0 -1.66667 5
      vertex -0.555557 -1.66667 5
    endloop
  endfacet
  facet normal -1 0 0
    outer loop
      vertex 0 -2.50002 -5
      vertex 0 -1.66667 5
      vertex 0 -1.66667 -5
    endloop
  endfacet
  facet normal -1 0 0
    outer loop
      vertex 0 -2.50002 -5
      vertex 0 -2.50002 5
      vertex 0 -1.66667 5
    endloop
  endfacet
  facet normal -0.832049 -0.554702 0
    outer loop
      vertex 1.66666 -5 -5
      vertex 0 -2.50002 5
      vertex 0 -2.50002 -5
    endloop
  endfacet
  facet normal -0.832049 -0.554702 0
    outer loop
      vertex 1.66666 -5 -5
      vertex 1.66666 -5 5
      vertex 0 -2.50002 5
    endloop
  endfacet
  facet normal 1 0 0
    outer loop
      vertex 1.66666 -1.66667 -5
      vertex 1.66666 -5 5
      vertex 1.66666 -5 -5
    endloop
  endfacet
  facet normal 1 0 -0
    outer loop
      vertex 1.66666 -1.66667 -5
      vertex 1.66666 -1.66667 5
      vertex 1.66666 -5 5
    endloop
  endfacet
  facet normal 0.832055 0.554694 0
    outer loop
      vertex -0.555557 -1.66667 -5
      vertex 0 -2.50002 5
      vertex 0 -2.50002 -5
    endloop
  endfacet
  facet normal 0.832055 0.554694 -0
    outer loop
      vertex -0.555557 -1.66667 -5
      vertex -0.555557 -1.66667 5
      vertex 0 -2.50002 5
    endloop
  endfacet
  facet normal 0 1 0
    outer loop
      vertex -1.66667 -1.66667 -5
      vertex -0.555557 -1.66667 5
      vertex -0.555557 -1.66667 -5
    endloop
  endfacet
  facet normal 0 1 0
    outer loop
      vertex -1.66667 -1.66667 -5
      vertex -1.66667 -1.66667 5
      vertex -0.555557 -1.66667 5
    endloop
  endfacet
  facet normal -1 0 0
    outer loop
      vertex -1.66667 -5 -5
      vertex -1.66667 -1.66667 5
      vertex -1.66667 -1.66667 -5
    endloop
  endfacet
  facet normal -1 0 0
    outer loop
      vertex -1.66667 -5 -5
      vertex -1.66667 -5 5
      vertex -1.66667 -1.66667 5
    endloop
  endfacet
  facet normal 0 -1 0
    outer loop
      vertex 0 -5 -5
      vertex -1.66667 -5 5
      vertex -1.66667 -5 -5
    endloop
  endfacet
  facet normal 0 -1 0
    outer loop
      vertex 0 -5 -5
      vertex 0 -5 5
      vertex -1.66667 -5 5
    endloop
  endfacet
  facet normal 1 0 0
    outer loop
      vertex 0 -2.50002 -5
      vertex 0 -5 5
      vertex 0 -5 -5
    endloop
  endfacet
  facet normal 1 0 -0
    outer loop
      vertex 0 -2.50002 -5
      vertex 0 -2.50002 5
      vertex 0 -5 5
    endloop
  endfacet
endsolid OpenSCAD_Model
