solid OpenSCAD_Model
  facet normal -0 0 -1
    outer loop
      vertex 0.639374 -4.95895 -5
      vertex 0.320343 -4.98973 -5
      vertex 0.20929 -3.32677 -5
    endloop
  endfacet
  facet normal 0 -0 -1
    outer loop
      vertex 1.03004 -3.1702 -5
      vertex 1.26826 -4.83649 -5
      vertex 0.624603 -3.27429 -5
    endloop
  endfacet
  facet normal 0 0 -1
    outer loop
      vertex 1.57553 -4.74529 -5
      vertex 1.03004 -3.1702 -5
      vertex 1.87633 -4.6346 -5
    endloop
  endfacet
  facet normal -0 0 -1
    outer loop
      vertex 2.16942 -4.50485 -5
      vertex 1.87633 -4.6346 -5
      vertex 1.41925 -3.0161 -5
    endloop
  endfacet
  facet normal 0 0 -1
    outer loop
      vertex 2.45358 -4.3566 -5
      vertex 1.41925 -3.0161 -5
      vertex 1.78609 -2.81444 -5
    endloop
  endfacet
  facet normal 0 0 -1
    outer loop
      vertex 2.72766 -4.19044 -5
      vertex 1.78609 -2.81444 -5
      vertex 2.99054 -4.00708 -5
    endloop
  endfacet
  facet normal 0 0 -1
    outer loop
      vertex 2.99054 -4.00708 -5
      vertex 2.12474 -2.56839 -5
      vertex 3.24113 -3.80724 -5
    endloop
  endfacet
  facet normal 0 0 -1
    outer loop
      vertex 0.639374 -4.95895 -5
      vertex 0.624603 -3.27429 -5
      vertex 0.95578 -4.90781 -5
    endloop
  endfacet
  facet normal 0 0 -1
    outer loop
      vertex 2.42989 -2.28183 -5
      vertex 3.90915 -3.11746 -5
      vertex 3.70139 -3.36151 -5
    endloop
  endfacet
  facet normal 0 0 -1
    outer loop
      vertex 4.27571 -2.59196 -5
      vertex 2.69672 -1.95929 -5
      vertex 2.92102 -1.60585 -5
    endloop
  endfacet
  facet normal 0 0 -1
    outer loop
      vertex 4.87463 -1.11261 -5
      vertex 3.22861 -0.828979 -5
      vertex 4.9359 -0.798004 -5
    endloop
  endfacet
  facet normal 0 0 -1
    outer loop
      vertex 3.09924 -1.2271 -5
      vertex 4.69234 -1.72684 -5
      vertex 4.57205 -2.02393 -5
    endloop
  endfacet
  facet normal 0 0 -1
    outer loop
      vertex 4.43298 -2.3127 -5
      vertex 2.92102 -1.60585 -5
      vertex 4.57205 -2.02393 -5
    endloop
  endfacet
  facet normal 0 0 -1
    outer loop
      vertex 4.79333 -1.42264 -5
      vertex 3.09924 -1.2271 -5
      vertex 3.22861 -0.828979 -5
    endloop
  endfacet
  facet normal 0 0 -1
    outer loop
      vertex 2.69672 -1.95929 -5
      vertex 4.10086 -2.8606 -5
      vertex 3.90915 -3.11746 -5
    endloop
  endfacet
  facet normal 0 0 -1
    outer loop
      vertex 3.47841 -3.59175 -5
      vertex 2.12474 -2.56839 -5
      vertex 2.42989 -2.28183 -5
    endloop
  endfacet
  facet normal 0 0 -1
    outer loop
      vertex 3.30704 0.41777 -5
      vertex 4.97688 0.480103 -5
      vertex 4.99742 0.160248 -5
    endloop
  endfacet
  facet normal -0 0 -1
    outer loop
      vertex 4.99742 -0.160263 -5
      vertex 3.30704 -0.417786 -5
      vertex 3.33333 0 -5
    endloop
  endfacet
  facet normal 0 0 -1
    outer loop
      vertex 4.99742 -0.160263 -5
      vertex 3.33333 0 -5
      vertex 4.99742 0.160248 -5
    endloop
  endfacet
  facet normal 0 0 -1
    outer loop
      vertex 4.97688 -0.480118 -5
      vertex 3.30704 -0.417786 -5
      vertex 4.99742 -0.160263 -5
    endloop
  endfacet
  facet normal -0 0 -1
    outer loop
      vertex 4.9359 0.797989 -5
      vertex 3.30704 0.41777 -5
      vertex 3.22861 0.828964 -5
    endloop
  endfacet
  facet normal 0 -0 -1
    outer loop
      vertex 3.30704 -0.417786 -5
      vertex 4.9359 -0.798004 -5
      vertex 3.22861 -0.828979 -5
    endloop
  endfacet
  facet normal -0 0 -1
    outer loop
      vertex 4.79333 1.42262 -5
      vertex 3.09924 1.22708 -5
      vertex 4.69234 1.72682 -5
    endloop
  endfacet
  facet normal 0 0 -1
    outer loop
      vertex 4.79333 1.42262 -5
      vertex 3.22861 0.828964 -5
      vertex 3.09924 1.22708 -5
    endloop
  endfacet
  facet normal 0 0 -1
    outer loop
      vertex 3.22861 0.828964 -5
      vertex 4.87463 1.11259 -5
      vertex 4.9359 0.797989 -5
    endloop
  endfacet
  facet normal -0 0 -1
    outer loop
      vertex 3.90915 3.11745 -5
      vertex 2.42989 2.28181 -5
      vertex 3.70139 3.3615 -5
    endloop
  endfacet
  facet normal 0 0 -1
    outer loop
      vertex 4.27571 2.59195 -5
      vertex 2.92102 1.60583 -5
      vertex 2.69672 1.95927 -5
    endloop
  endfacet
  facet normal -0 0 -1
    outer loop
      vertex 4.10086 2.86058 -5
      vertex 2.69672 1.95927 -5
      vertex 3.90915 3.11745 -5
    endloop
  endfacet
  facet normal 0 0 -1
    outer loop
      vertex 3.90915 3.11745 -5
      vertex 2.69672 1.95927 -5
      vertex 2.42989 2.28181 -5
    endloop
  endfacet
  facet normal 0 -0 -1
    outer loop
      vertex 4.43298 2.31268 -5
      vertex 4.57205 2.02391 -5
      vertex 2.92102 1.60583 -5
    endloop
  endfacet
  facet normal 0 0 -1
    outer loop
      vertex 3.47841 3.59174 -5
      vertex 2.42989 2.28181 -5
      vertex 2.12474 2.56837 -5
    endloop
  endfacet
  facet normal -0 0 -1
    outer loop
      vertex 3.24113 3.80722 -5
      vertex 2.12474 2.56837 -5
      vertex 2.99054 4.00706 -5
    endloop
  endfacet
  facet normal 0 0 -1
    outer loop
      vertex 2.99054 4.00706 -5
      vertex 2.12474 2.56837 -5
      vertex 1.78609 2.81442 -5
    endloop
  endfacet
  facet normal -0 0 -1
    outer loop
      vertex 2.72766 4.19043 -5
      vertex 1.78609 2.81442 -5
      vertex 2.45358 4.35658 -5
    endloop
  endfacet
  facet normal 0 0 -1
    outer loop
      vertex 2.45358 4.35658 -5
      vertex 1.78609 2.81442 -5
      vertex 1.41925 3.01608 -5
    endloop
  endfacet
  facet normal -0 0 -1
    outer loop
      vertex 2.16942 4.50484 -5
      vertex 1.41925 3.01608 -5
      vertex 1.87633 4.63458 -5
    endloop
  endfacet
  facet normal 0 0 -1
    outer loop
      vertex 1.87633 4.63458 -5
      vertex 1.41925 3.01608 -5
      vertex 1.03004 3.17018 -5
    endloop
  endfacet
  facet normal -0 0 -1
    outer loop
      vertex 1.57553 4.74527 -5
      vertex 1.03004 3.17018 -5
      vertex 1.26826 4.83647 -5
    endloop
  endfacet
  facet normal 0 0 -1
    outer loop
      vertex 0.624603 3.27428 -5
      vertex 0.20929 3.32675 -5
      vertex 0.639374 4.95894 -5
    endloop
  endfacet
  facet normal -0 0 -1
    outer loop
      vertex 0.639374 4.95894 -5
      vertex 0.20929 3.32675 -5
      vertex 0.320343 4.98972 -5
    endloop
  endfacet
  facet normal -0 0 -1
    outer loop
      vertex 0.95578 4.90779 -5
      vertex 0.624603 3.27428 -5
      vertex 0.639374 4.95894 -5
    endloop
  endfacet
  facet normal 0 -0 -1
    outer loop
      vertex 0 5 -5
      vertex 0.20929 3.32675 -5
      vertex -0.209305 3.32675 -5
    endloop
  endfacet
  facet normal 0 0 -1
    outer loop
      vertex -1.03006 3.17018 -5
      vertex 0 5 -5
      vertex -0.624619 3.27428 -5
    endloop
  endfacet
  facet normal -0 0 -1
    outer loop
      vertex -1.03006 3.17018 -5
      vertex -1.41927 3.01608 -5
      vertex 0 5 -5
    endloop
  endfacet
  facet normal -0 0 -1
    outer loop
      vertex 0.320343 -4.98973 -5
      vertex 0 -5 -5
      vertex 0.20929 -3.32677 -5
    endloop
  endfacet
  facet normal 0 0 -1
    outer loop
      vertex -5 5 -5
      vertex -1.7861 2.81442 -5
      vertex -2.12476 2.56837 -5
    endloop
  endfacet
  facet normal 0 0 -1
    outer loop
      vertex -5 -5 -5
      vertex -3.33334 0 -5
      vertex -3.30705 -0.417786 -5
    endloop
  endfacet
  facet normal 0 0 -1
    outer loop
      vertex 0 -5 -5
      vertex -0.624619 -3.27429 -5
      vertex -0.209305 -3.32677 -5
    endloop
  endfacet
  facet normal -0 0 -1
    outer loop
      vertex 0.20929 -3.32677 -5
      vertex 0 -5 -5
      vertex -0.209305 -3.32677 -5
    endloop
  endfacet
  facet normal 0 0 -1
    outer loop
      vertex 0.624603 3.27428 -5
      vertex 1.26826 4.83647 -5
      vertex 1.03004 3.17018 -5
    endloop
  endfacet
  facet normal -0 0 -1
    outer loop
      vertex -1.41927 3.01608 -5
      vertex -1.7861 2.81442 -5
      vertex -5 5 -5
    endloop
  endfacet
  facet normal 0 0 -1
    outer loop
      vertex 0 -5 -5
      vertex -1.03006 -3.1702 -5
      vertex -0.624619 -3.27429 -5
    endloop
  endfacet
  facet normal 0 0 -1
    outer loop
      vertex 0 -5 -5
      vertex -1.41927 -3.0161 -5
      vertex -1.03006 -3.1702 -5
    endloop
  endfacet
  facet normal 0 0 -1
    outer loop
      vertex 0 -5 -5
      vertex -5 -5 -5
      vertex -1.41927 -3.0161 -5
    endloop
  endfacet
  facet normal -0 0 -1
    outer loop
      vertex -1.41927 -3.0161 -5
      vertex -5 -5 -5
      vertex -1.7861 -2.81444 -5
    endloop
  endfacet
  facet normal -0 0 -1
    outer loop
      vertex -1.7861 -2.81444 -5
      vertex -5 -5 -5
      vertex -2.12476 -2.56839 -5
    endloop
  endfacet
  facet normal -0 0 -1
    outer loop
      vertex -2.12476 -2.56839 -5
      vertex -5 -5 -5
      vertex -2.4299 -2.28183 -5
    endloop
  endfacet
  facet normal -0 0 -1
    outer loop
      vertex -2.4299 -2.28183 -5
      vertex -5 -5 -5
      vertex -2.69673 -1.95929 -5
    endloop
  endfacet
  facet normal -0 0 -1
    outer loop
      vertex -2.69673 -1.95929 -5
      vertex -5 -5 -5
      vertex -2.92104 -1.60585 -5
    endloop
  endfacet
  facet normal -0 0 -1
    outer loop
      vertex -2.92104 -1.60585 -5
      vertex -5 -5 -5
      vertex -3.09926 -1.2271 -5
    endloop
  endfacet
  facet normal -0 0 -1
    outer loop
      vertex -3.09926 -1.2271 -5
      vertex -5 -5 -5
      vertex -3.22862 -0.828979 -5
    endloop
  endfacet
  facet normal -0 0 -1
    outer loop
      vertex -3.22862 -0.828979 -5
      vertex -5 -5 -5
      vertex -3.30705 -0.417786 -5
    endloop
  endfacet
  facet normal 0 0 -1
    outer loop
      vertex -5 -5 -5
      vertex -5 5 -5
      vertex -3.33334 0 -5
    endloop
  endfacet
  facet normal 0 0 -1
    outer loop
      vertex -3.33334 0 -5
      vertex -5 5 -5
      vertex -3.30705 0.41777 -5
    endloop
  endfacet
  facet normal 0 0 -1
    outer loop
      vertex -3.30705 0.41777 -5
      vertex -5 5 -5
      vertex -3.22862 0.828964 -5
    endloop
  endfacet
  facet normal 0 0 -1
    outer loop
      vertex -3.22862 0.828964 -5
      vertex -5 5 -5
      vertex -3.09926 1.22708 -5
    endloop
  endfacet
  facet normal 0 0 -1
    outer loop
      vertex -3.09926 1.22708 -5
      vertex -5 5 -5
      vertex -2.92104 1.60583 -5
    endloop
  endfacet
  facet normal 0 0 -1
    outer loop
      vertex -2.92104 1.60583 -5
      vertex -5 5 -5
      vertex -2.69673 1.95927 -5
    endloop
  endfacet
  facet normal 0 0 -1
    outer loop
      vertex -2.69673 1.95927 -5
      vertex -5 5 -5
      vertex -2.4299 2.28181 -5
    endloop
  endfacet
  facet normal 0 0 -1
    outer loop
      vertex -2.4299 2.28181 -5
      vertex -5 5 -5
      vertex -2.12476 2.56837 -5
    endloop
  endfacet
  facet normal -0 0 -1
    outer loop
      vertex 0 5 -5
      vertex -1.41927 3.01608 -5
      vertex -5 5 -5
    endloop
  endfacet
  facet normal 0 0 -1
    outer loop
      vertex -0.624619 3.27428 -5
      vertex 0 5 -5
      vertex -0.209305 3.32675 -5
    endloop
  endfacet
  facet normal 0 0 -1
    outer loop
      vertex 0.20929 3.32675 -5
      vertex 0 5 -5
      vertex 0.320343 4.98972 -5
    endloop
  endfacet
  facet normal 0 -0 -1
    outer loop
      vertex 0.95578 4.90779 -5
      vertex 1.26826 4.83647 -5
      vertex 0.624603 3.27428 -5
    endloop
  endfacet
  facet normal 0 -0 -1
    outer loop
      vertex 1.57553 4.74527 -5
      vertex 1.87633 4.63458 -5
      vertex 1.03004 3.17018 -5
    endloop
  endfacet
  facet normal 0 -0 -1
    outer loop
      vertex 2.16942 4.50484 -5
      vertex 2.45358 4.35658 -5
      vertex 1.41925 3.01608 -5
    endloop
  endfacet
  facet normal 0 -0 -1
    outer loop
      vertex 2.72766 4.19043 -5
      vertex 2.99054 4.00706 -5
      vertex 1.78609 2.81442 -5
    endloop
  endfacet
  facet normal 0 -0 -1
    outer loop
      vertex 3.24113 3.80722 -5
      vertex 3.47841 3.59174 -5
      vertex 2.12474 2.56837 -5
    endloop
  endfacet
  facet normal 0 0 -1
    outer loop
      vertex 2.42989 2.28181 -5
      vertex 3.47841 3.59174 -5
      vertex 3.70139 3.3615 -5
    endloop
  endfacet
  facet normal 0 -0 -1
    outer loop
      vertex 4.10086 2.86058 -5
      vertex 4.27571 2.59195 -5
      vertex 2.69672 1.95927 -5
    endloop
  endfacet
  facet normal 0 -0 -1
    outer loop
      vertex 4.27571 2.59195 -5
      vertex 4.43298 2.31268 -5
      vertex 2.92102 1.60583 -5
    endloop
  endfacet
  facet normal 0 0 -1
    outer loop
      vertex 3.09924 1.22708 -5
      vertex 4.57205 2.02391 -5
      vertex 4.69234 1.72682 -5
    endloop
  endfacet
  facet normal 0 0 -1
    outer loop
      vertex 2.92102 1.60583 -5
      vertex 4.57205 2.02391 -5
      vertex 3.09924 1.22708 -5
    endloop
  endfacet
  facet normal 0 -0 -1
    outer loop
      vertex 4.79333 1.42262 -5
      vertex 4.87463 1.11259 -5
      vertex 3.22861 0.828964 -5
    endloop
  endfacet
  facet normal 0 -0 -1
    outer loop
      vertex 4.9359 0.797989 -5
      vertex 4.97688 0.480103 -5
      vertex 3.30704 0.41777 -5
    endloop
  endfacet
  facet normal 0 0 -1
    outer loop
      vertex 3.33333 0 -5
      vertex 3.30704 0.41777 -5
      vertex 4.99742 0.160248 -5
    endloop
  endfacet
  facet normal -0 0 -1
    outer loop
      vertex 4.97688 -0.480118 -5
      vertex 4.9359 -0.798004 -5
      vertex 3.30704 -0.417786 -5
    endloop
  endfacet
  facet normal -0 0 -1
    outer loop
      vertex 4.87463 -1.11261 -5
      vertex 4.79333 -1.42264 -5
      vertex 3.22861 -0.828979 -5
    endloop
  endfacet
  facet normal -0 0 -1
    outer loop
      vertex 4.79333 -1.42264 -5
      vertex 4.69234 -1.72684 -5
      vertex 3.09924 -1.2271 -5
    endloop
  endfacet
  facet normal 0 -0 -1
    outer loop
      vertex 3.09924 -1.2271 -5
      vertex 4.57205 -2.02393 -5
      vertex 2.92102 -1.60585 -5
    endloop
  endfacet
  facet normal 0 0 -1
    outer loop
      vertex 2.92102 -1.60585 -5
      vertex 4.43298 -2.3127 -5
      vertex 4.27571 -2.59196 -5
    endloop
  endfacet
  facet normal 0 0 -1
    outer loop
      vertex 2.69672 -1.95929 -5
      vertex 4.27571 -2.59196 -5
      vertex 4.10086 -2.8606 -5
    endloop
  endfacet
  facet normal 0 0 -1
    outer loop
      vertex 2.42989 -2.28183 -5
      vertex 2.69672 -1.95929 -5
      vertex 3.90915 -3.11746 -5
    endloop
  endfacet
  facet normal 0 0 -1
    outer loop
      vertex 3.47841 -3.59175 -5
      vertex 2.42989 -2.28183 -5
      vertex 3.70139 -3.36151 -5
    endloop
  endfacet
  facet normal 0 0 -1
    outer loop
      vertex 3.24113 -3.80724 -5
      vertex 2.12474 -2.56839 -5
      vertex 3.47841 -3.59175 -5
    endloop
  endfacet
  facet normal 0 0 -1
    outer loop
      vertex 2.99054 -4.00708 -5
      vertex 1.78609 -2.81444 -5
      vertex 2.12474 -2.56839 -5
    endloop
  endfacet
  facet normal -0 0 -1
    outer loop
      vertex 2.72766 -4.19044 -5
      vertex 2.45358 -4.3566 -5
      vertex 1.78609 -2.81444 -5
    endloop
  endfacet
  facet normal -0 0 -1
    outer loop
      vertex 2.45358 -4.3566 -5
      vertex 2.16942 -4.50485 -5
      vertex 1.41925 -3.0161 -5
    endloop
  endfacet
  facet normal 0 -0 -1
    outer loop
      vertex 1.41925 -3.0161 -5
      vertex 1.87633 -4.6346 -5
      vertex 1.03004 -3.1702 -5
    endloop
  endfacet
  facet normal 0 0 -1
    outer loop
      vertex 1.03004 -3.1702 -5
      vertex 1.57553 -4.74529 -5
      vertex 1.26826 -4.83649 -5
    endloop
  endfacet
  facet normal 0 0 -1
    outer loop
      vertex 0.20929 -3.32677 -5
      vertex 0.624603 -3.27429 -5
      vertex 0.639374 -4.95895 -5
    endloop
  endfacet
  facet normal 0 0 -1
    outer loop
      vertex 0.624603 -3.27429 -5
      vertex 1.26826 -4.83649 -5
      vertex 0.95578 -4.90781 -5
    endloop
  endfacet
  facet normal 0 0 1
    outer loop
      vertex 0.20929 -3.32677 5
      vertex 0.320343 -4.98973 5
      vertex 0.639374 -4.95895 5
    endloop
  endfacet
  facet normal -0 0 1
    outer loop
      vertex 0.624603 -3.27429 5
      vertex 1.26826 -4.83649 5
      vertex 1.03004 -3.1702 5
    endloop
  endfacet
  facet normal 0 0 1
    outer loop
      vertex 1.87633 -4.6346 5
      vertex 1.03004 -3.1702 5
      vertex 1.57553 -4.74529 5
    endloop
  endfacet
  facet normal 0 0 1
    outer loop
      vertex 1.41925 -3.0161 5
      vertex 1.87633 -4.6346 5
      vertex 2.16942 -4.50485 5
    endloop
  endfacet
  facet normal 0 0 1
    outer loop
      vertex 1.78609 -2.81444 5
      vertex 1.41925 -3.0161 5
      vertex 2.45358 -4.3566 5
    endloop
  endfacet
  facet normal 0 0 1
    outer loop
      vertex 2.99054 -4.00708 5
      vertex 1.78609 -2.81444 5
      vertex 2.72766 -4.19044 5
    endloop
  endfacet
  facet normal 0 0 1
    outer loop
      vertex 3.24113 -3.80724 5
      vertex 2.12474 -2.56839 5
      vertex 2.99054 -4.00708 5
    endloop
  endfacet
  facet normal 0 0 1
    outer loop
      vertex 0.95578 -4.90781 5
      vertex 0.624603 -3.27429 5
      vertex 0.639374 -4.95895 5
    endloop
  endfacet
  facet normal 0 -0 1
    outer loop
      vertex 3.70139 -3.36151 5
      vertex 3.90915 -3.11746 5
      vertex 2.42989 -2.28183 5
    endloop
  endfacet
  facet normal 0 0 1
    outer loop
      vertex 2.92102 -1.60585 5
      vertex 2.69672 -1.95929 5
      vertex 4.27571 -2.59196 5
    endloop
  endfacet
  facet normal 0 0 1
    outer loop
      vertex 4.9359 -0.798004 5
      vertex 3.22861 -0.828979 5
      vertex 4.87463 -1.11261 5
    endloop
  endfacet
  facet normal 0 -0 1
    outer loop
      vertex 4.57205 -2.02393 5
      vertex 4.69234 -1.72684 5
      vertex 3.09924 -1.2271 5
    endloop
  endfacet
  facet normal 0 0 1
    outer loop
      vertex 4.57205 -2.02393 5
      vertex 2.92102 -1.60585 5
      vertex 4.43298 -2.3127 5
    endloop
  endfacet
  facet normal 0 0 1
    outer loop
      vertex 3.22861 -0.828979 5
      vertex 3.09924 -1.2271 5
      vertex 4.79333 -1.42264 5
    endloop
  endfacet
  facet normal 0 -0 1
    outer loop
      vertex 3.90915 -3.11746 5
      vertex 4.10086 -2.8606 5
      vertex 2.69672 -1.95929 5
    endloop
  endfacet
  facet normal 0 0 1
    outer loop
      vertex 2.42989 -2.28183 5
      vertex 2.12474 -2.56839 5
      vertex 3.47841 -3.59175 5
    endloop
  endfacet
  facet normal 0 0 1
    outer loop
      vertex 4.99742 0.160248 5
      vertex 4.97688 0.480103 5
      vertex 3.30704 0.41777 5
    endloop
  endfacet
  facet normal 0 0 1
    outer loop
      vertex 3.33333 0 5
      vertex 3.30704 -0.417786 5
      vertex 4.99742 -0.160263 5
    endloop
  endfacet
  facet normal 0 0 1
    outer loop
      vertex 4.99742 0.160248 5
      vertex 3.33333 0 5
      vertex 4.99742 -0.160263 5
    endloop
  endfacet
  facet normal 0 0 1
    outer loop
      vertex 4.99742 -0.160263 5
      vertex 3.30704 -0.417786 5
      vertex 4.97688 -0.480118 5
    endloop
  endfacet
  facet normal 0 0 1
    outer loop
      vertex 3.22861 0.828964 5
      vertex 3.30704 0.41777 5
      vertex 4.9359 0.797989 5
    endloop
  endfacet
  facet normal 0 0 1
    outer loop
      vertex 3.22861 -0.828979 5
      vertex 4.9359 -0.798004 5
      vertex 3.30704 -0.417786 5
    endloop
  endfacet
  facet normal 0 0 1
    outer loop
      vertex 4.69234 1.72682 5
      vertex 3.09924 1.22708 5
      vertex 4.79333 1.42262 5
    endloop
  endfacet
  facet normal -0 0 1
    outer loop
      vertex 3.09924 1.22708 5
      vertex 3.22861 0.828964 5
      vertex 4.79333 1.42262 5
    endloop
  endfacet
  facet normal 0 0 1
    outer loop
      vertex 4.9359 0.797989 5
      vertex 4.87463 1.11259 5
      vertex 3.22861 0.828964 5
    endloop
  endfacet
  facet normal 0 0 1
    outer loop
      vertex 3.70139 3.3615 5
      vertex 2.42989 2.28181 5
      vertex 3.90915 3.11745 5
    endloop
  endfacet
  facet normal -0 0 1
    outer loop
      vertex 2.69672 1.95927 5
      vertex 2.92102 1.60583 5
      vertex 4.27571 2.59195 5
    endloop
  endfacet
  facet normal 0 0 1
    outer loop
      vertex 3.90915 3.11745 5
      vertex 2.69672 1.95927 5
      vertex 4.10086 2.86058 5
    endloop
  endfacet
  facet normal -0 0 1
    outer loop
      vertex 2.42989 2.28181 5
      vertex 2.69672 1.95927 5
      vertex 3.90915 3.11745 5
    endloop
  endfacet
  facet normal 0 0 1
    outer loop
      vertex 2.92102 1.60583 5
      vertex 4.57205 2.02391 5
      vertex 4.43298 2.31268 5
    endloop
  endfacet
  facet normal -0 0 1
    outer loop
      vertex 2.12474 2.56837 5
      vertex 2.42989 2.28181 5
      vertex 3.47841 3.59174 5
    endloop
  endfacet
  facet normal 0 0 1
    outer loop
      vertex 2.99054 4.00706 5
      vertex 2.12474 2.56837 5
      vertex 3.24113 3.80722 5
    endloop
  endfacet
  facet normal -0 0 1
    outer loop
      vertex 1.78609 2.81442 5
      vertex 2.12474 2.56837 5
      vertex 2.99054 4.00706 5
    endloop
  endfacet
  facet normal 0 0 1
    outer loop
      vertex 2.45358 4.35658 5
      vertex 1.78609 2.81442 5
      vertex 2.72766 4.19043 5
    endloop
  endfacet
  facet normal -0 0 1
    outer loop
      vertex 1.41925 3.01608 5
      vertex 1.78609 2.81442 5
      vertex 2.45358 4.35658 5
    endloop
  endfacet
  facet normal 0 0 1
    outer loop
      vertex 1.87633 4.63458 5
      vertex 1.41925 3.01608 5
      vertex 2.16942 4.50484 5
    endloop
  endfacet
  facet normal -0 0 1
    outer loop
      vertex 1.03004 3.17018 5
      vertex 1.41925 3.01608 5
      vertex 1.87633 4.63458 5
    endloop
  endfacet
  facet normal 0 0 1
    outer loop
      vertex 1.26826 4.83647 5
      vertex 1.03004 3.17018 5
      vertex 1.57553 4.74527 5
    endloop
  endfacet
  facet normal 0 0 1
    outer loop
      vertex 0.639374 4.95894 5
      vertex 0.20929 3.32675 5
      vertex 0.624603 3.27428 5
    endloop
  endfacet
  facet normal 0 0 1
    outer loop
      vertex 0.320343 4.98972 5
      vertex 0.20929 3.32675 5
      vertex 0.639374 4.95894 5
    endloop
  endfacet
  facet normal 0 0 1
    outer loop
      vertex 0.639374 4.95894 5
      vertex 0.624603 3.27428 5
      vertex 0.95578 4.90779 5
    endloop
  endfacet
  facet normal 0 0 1
    outer loop
      vertex -0.209305 3.32675 5
      vertex 0.20929 3.32675 5
      vertex 0 5 5
    endloop
  endfacet
  facet normal 0 -0 1
    outer loop
      vertex -0.624619 3.27428 5
      vertex 0 5 5
      vertex -1.03006 3.17018 5
    endloop
  endfacet
  facet normal 0 0 1
    outer loop
      vertex 0 5 5
      vertex -1.41927 3.01608 5
      vertex -1.03006 3.17018 5
    endloop
  endfacet
  facet normal 0 0 1
    outer loop
      vertex 0.20929 -3.32677 5
      vertex 0 -5 5
      vertex 0.320343 -4.98973 5
    endloop
  endfacet
  facet normal 0 -0 1
    outer loop
      vertex -2.12476 2.56837 5
      vertex -1.7861 2.81442 5
      vertex -5 5 5
    endloop
  endfacet
  facet normal 0 0 1
    outer loop
      vertex -3.30705 -0.417786 5
      vertex -3.33334 0 5
      vertex -5 -5 5
    endloop
  endfacet
  facet normal 0 0 1
    outer loop
      vertex -0.209305 -3.32677 5
      vertex -0.624619 -3.27429 5
      vertex 0 -5 5
    endloop
  endfacet
  facet normal -0 0 1
    outer loop
      vertex -0.209305 -3.32677 5
      vertex 0 -5 5
      vertex 0.20929 -3.32677 5
    endloop
  endfacet
  facet normal 0 -0 1
    outer loop
      vertex 1.03004 3.17018 5
      vertex 1.26826 4.83647 5
      vertex 0.624603 3.27428 5
    endloop
  endfacet
  facet normal 0 0 1
    outer loop
      vertex -5 5 5
      vertex -1.7861 2.81442 5
      vertex -1.41927 3.01608 5
    endloop
  endfacet
  facet normal 0 0 1
    outer loop
      vertex -0.624619 -3.27429 5
      vertex -1.03006 -3.1702 5
      vertex 0 -5 5
    endloop
  endfacet
  facet normal 0 0 1
    outer loop
      vertex -1.03006 -3.1702 5
      vertex -1.41927 -3.0161 5
      vertex 0 -5 5
    endloop
  endfacet
  facet normal 0 0 1
    outer loop
      vertex -1.41927 -3.0161 5
      vertex -5 -5 5
      vertex 0 -5 5
    endloop
  endfacet
  facet normal 0 0 1
    outer loop
      vertex -1.7861 -2.81444 5
      vertex -5 -5 5
      vertex -1.41927 -3.0161 5
    endloop
  endfacet
  facet normal 0 0 1
    outer loop
      vertex -2.12476 -2.56839 5
      vertex -5 -5 5
      vertex -1.7861 -2.81444 5
    endloop
  endfacet
  facet normal 0 0 1
    outer loop
      vertex -2.4299 -2.28183 5
      vertex -5 -5 5
      vertex -2.12476 -2.56839 5
    endloop
  endfacet
  facet normal 0 0 1
    outer loop
      vertex -2.69673 -1.95929 5
      vertex -5 -5 5
      vertex -2.4299 -2.28183 5
    endloop
  endfacet
  facet normal 0 0 1
    outer loop
      vertex -2.92104 -1.60585 5
      vertex -5 -5 5
      vertex -2.69673 -1.95929 5
    endloop
  endfacet
  facet normal 0 0 1
    outer loop
      vertex -3.09926 -1.2271 5
      vertex -5 -5 5
      vertex -2.92104 -1.60585 5
    endloop
  endfacet
  facet normal 0 0 1
    outer loop
      vertex -3.22862 -0.828979 5
      vertex -5 -5 5
      vertex -3.09926 -1.2271 5
    endloop
  endfacet
  facet normal 0 0 1
    outer loop
      vertex -3.30705 -0.417786 5
      vertex -5 -5 5
      vertex -3.22862 -0.828979 5
    endloop
  endfacet
  facet normal 0 0 1
    outer loop
      vertex -3.33334 0 5
      vertex -5 5 5
      vertex -5 -5 5
    endloop
  endfacet
  facet normal 0 0 1
    outer loop
      vertex -3.30705 0.41777 5
      vertex -5 5 5
      vertex -3.33334 0 5
    endloop
  endfacet
  facet normal 0 0 1
    outer loop
      vertex -3.22862 0.828964 5
      vertex -5 5 5
      vertex -3.30705 0.41777 5
    endloop
  endfacet
  facet normal 0 0 1
    outer loop
      vertex -3.09926 1.22708 5
      vertex -5 5 5
      vertex -3.22862 0.828964 5
    endloop
  endfacet
  facet normal 0 0 1
    outer loop
      vertex -2.92104 1.60583 5
      vertex -5 5 5
      vertex -3.09926 1.22708 5
    endloop
  endfacet
  facet normal 0 0 1
    outer loop
      vertex -2.69673 1.95927 5
      vertex -5 5 5
      vertex -2.92104 1.60583 5
    endloop
  endfacet
  facet normal 0 0 1
    outer loop
      vertex -2.4299 2.28181 5
      vertex -5 5 5
      vertex -2.69673 1.95927 5
    endloop
  endfacet
  facet normal 0 0 1
    outer loop
      vertex -2.12476 2.56837 5
      vertex -5 5 5
      vertex -2.4299 2.28181 5
    endloop
  endfacet
  facet normal -0 0 1
    outer loop
      vertex -5 5 5
      vertex -1.41927 3.01608 5
      vertex 0 5 5
    endloop
  endfacet
  facet normal 0 -0 1
    outer loop
      vertex -0.209305 3.32675 5
      vertex 0 5 5
      vertex -0.624619 3.27428 5
    endloop
  endfacet
  facet normal 0 0 1
    outer loop
      vertex 0.320343 4.98972 5
      vertex 0 5 5
      vertex 0.20929 3.32675 5
    endloop
  endfacet
  facet normal 0 0 1
    outer loop
      vertex 0.624603 3.27428 5
      vertex 1.26826 4.83647 5
      vertex 0.95578 4.90779 5
    endloop
  endfacet
  facet normal 0 0 1
    outer loop
      vertex 1.03004 3.17018 5
      vertex 1.87633 4.63458 5
      vertex 1.57553 4.74527 5
    endloop
  endfacet
  facet normal 0 0 1
    outer loop
      vertex 1.41925 3.01608 5
      vertex 2.45358 4.35658 5
      vertex 2.16942 4.50484 5
    endloop
  endfacet
  facet normal 0 0 1
    outer loop
      vertex 1.78609 2.81442 5
      vertex 2.99054 4.00706 5
      vertex 2.72766 4.19043 5
    endloop
  endfacet
  facet normal 0 0 1
    outer loop
      vertex 2.12474 2.56837 5
      vertex 3.47841 3.59174 5
      vertex 3.24113 3.80722 5
    endloop
  endfacet
  facet normal 0 0 1
    outer loop
      vertex 3.70139 3.3615 5
      vertex 3.47841 3.59174 5
      vertex 2.42989 2.28181 5
    endloop
  endfacet
  facet normal 0 0 1
    outer loop
      vertex 2.69672 1.95927 5
      vertex 4.27571 2.59195 5
      vertex 4.10086 2.86058 5
    endloop
  endfacet
  facet normal 0 0 1
    outer loop
      vertex 2.92102 1.60583 5
      vertex 4.43298 2.31268 5
      vertex 4.27571 2.59195 5
    endloop
  endfacet
  facet normal 0 0 1
    outer loop
      vertex 4.69234 1.72682 5
      vertex 4.57205 2.02391 5
      vertex 3.09924 1.22708 5
    endloop
  endfacet
  facet normal 0 -0 1
    outer loop
      vertex 3.09924 1.22708 5
      vertex 4.57205 2.02391 5
      vertex 2.92102 1.60583 5
    endloop
  endfacet
  facet normal 0 0 1
    outer loop
      vertex 3.22861 0.828964 5
      vertex 4.87463 1.11259 5
      vertex 4.79333 1.42262 5
    endloop
  endfacet
  facet normal 0 0 1
    outer loop
      vertex 3.30704 0.41777 5
      vertex 4.97688 0.480103 5
      vertex 4.9359 0.797989 5
    endloop
  endfacet
  facet normal 0 0 1
    outer loop
      vertex 4.99742 0.160248 5
      vertex 3.30704 0.41777 5
      vertex 3.33333 0 5
    endloop
  endfacet
  facet normal 0 0 1
    outer loop
      vertex 3.30704 -0.417786 5
      vertex 4.9359 -0.798004 5
      vertex 4.97688 -0.480118 5
    endloop
  endfacet
  facet normal 0 0 1
    outer loop
      vertex 3.22861 -0.828979 5
      vertex 4.79333 -1.42264 5
      vertex 4.87463 -1.11261 5
    endloop
  endfacet
  facet normal 0 0 1
    outer loop
      vertex 3.09924 -1.2271 5
      vertex 4.69234 -1.72684 5
      vertex 4.79333 -1.42264 5
    endloop
  endfacet
  facet normal -0 0 1
    outer loop
      vertex 2.92102 -1.60585 5
      vertex 4.57205 -2.02393 5
      vertex 3.09924 -1.2271 5
    endloop
  endfacet
  facet normal 0 -0 1
    outer loop
      vertex 4.27571 -2.59196 5
      vertex 4.43298 -2.3127 5
      vertex 2.92102 -1.60585 5
    endloop
  endfacet
  facet normal 0 -0 1
    outer loop
      vertex 4.10086 -2.8606 5
      vertex 4.27571 -2.59196 5
      vertex 2.69672 -1.95929 5
    endloop
  endfacet
  facet normal 0 0 1
    outer loop
      vertex 3.90915 -3.11746 5
      vertex 2.69672 -1.95929 5
      vertex 2.42989 -2.28183 5
    endloop
  endfacet
  facet normal 0 0 1
    outer loop
      vertex 3.70139 -3.36151 5
      vertex 2.42989 -2.28183 5
      vertex 3.47841 -3.59175 5
    endloop
  endfacet
  facet normal 0 0 1
    outer loop
      vertex 3.47841 -3.59175 5
      vertex 2.12474 -2.56839 5
      vertex 3.24113 -3.80724 5
    endloop
  endfacet
  facet normal 0 0 1
    outer loop
      vertex 2.12474 -2.56839 5
      vertex 1.78609 -2.81444 5
      vertex 2.99054 -4.00708 5
    endloop
  endfacet
  facet normal 0 0 1
    outer loop
      vertex 1.78609 -2.81444 5
      vertex 2.45358 -4.3566 5
      vertex 2.72766 -4.19044 5
    endloop
  endfacet
  facet normal 0 0 1
    outer loop
      vertex 1.41925 -3.0161 5
      vertex 2.16942 -4.50485 5
      vertex 2.45358 -4.3566 5
    endloop
  endfacet
  facet normal -0 0 1
    outer loop
      vertex 1.03004 -3.1702 5
      vertex 1.87633 -4.6346 5
      vertex 1.41925 -3.0161 5
    endloop
  endfacet
  facet normal 0 -0 1
    outer loop
      vertex 1.26826 -4.83649 5
      vertex 1.57553 -4.74529 5
      vertex 1.03004 -3.1702 5
    endloop
  endfacet
  facet normal 0 0 1
    outer loop
      vertex 0.639374 -4.95895 5
      vertex 0.624603 -3.27429 5
      vertex 0.20929 -3.32677 5
    endloop
  endfacet
  facet normal 0 -0 1
    outer loop
      vertex 0.95578 -4.90781 5
      vertex 1.26826 -4.83649 5
      vertex 0.624603 -3.27429 5
    endloop
  endfacet
  facet normal 0.0960337 -0.995378 0
    outer loop
      vertex 0.639374 -4.95895 -5
      vertex 0.320343 -4.98973 5
      vertex 0.320343 -4.98973 -5
    endloop
  endfacet
  facet normal 0.0960337 -0.995378 0
    outer loop
      vertex 0.639374 -4.95895 -5
      vertex 0.639374 -4.95895 5
      vertex 0.320343 -4.98973 5
    endloop
  endfacet
  facet normal 0.159557 -0.987189 0
    outer loop
      vertex 0.95578 -4.90781 -5
      vertex 0.639374 -4.95895 5
      vertex 0.639374 -4.95895 -5
    endloop
  endfacet
  facet normal 0.159557 -0.987189 0
    outer loop
      vertex 0.95578 -4.90781 -5
      vertex 0.95578 -4.90781 5
      vertex 0.639374 -4.95895 5
    endloop
  endfacet
  facet normal 0.222516 -0.974929 0
    outer loop
      vertex 1.26826 -4.83649 -5
      vertex 0.95578 -4.90781 5
      vertex 0.95578 -4.90781 -5
    endloop
  endfacet
  facet normal 0.222516 -0.974929 0
    outer loop
      vertex 1.26826 -4.83649 -5
      vertex 1.26826 -4.83649 5
      vertex 0.95578 -4.90781 5
    endloop
  endfacet
  facet normal 0.284539 -0.958665 0
    outer loop
      vertex 1.57553 -4.74529 -5
      vertex 1.26826 -4.83649 5
      vertex 1.26826 -4.83649 -5
    endloop
  endfacet
  facet normal 0.284539 -0.958665 0
    outer loop
      vertex 1.57553 -4.74529 -5
      vertex 1.57553 -4.74529 5
      vertex 1.26826 -4.83649 5
    endloop
  endfacet
  facet normal 0.345345 -0.938476 0
    outer loop
      vertex 1.87633 -4.6346 -5
      vertex 1.57553 -4.74529 5
      vertex 1.57553 -4.74529 -5
    endloop
  endfacet
  facet normal 0.345345 -0.938476 0
    outer loop
      vertex 1.87633 -4.6346 -5
      vertex 1.87633 -4.6346 5
      vertex 1.57553 -4.74529 5
    endloop
  endfacet
  facet normal 0.404804 -0.914404 0
    outer loop
      vertex 2.16942 -4.50485 -5
      vertex 1.87633 -4.6346 5
      vertex 1.87633 -4.6346 -5
    endloop
  endfacet
  facet normal 0.404804 -0.914404 0
    outer loop
      vertex 2.16942 -4.50485 -5
      vertex 2.16942 -4.50485 5
      vertex 1.87633 -4.6346 5
    endloop
  endfacet
  facet normal 0.462548 -0.886594 0
    outer loop
      vertex 2.45358 -4.3566 -5
      vertex 2.16942 -4.50485 5
      vertex 2.16942 -4.50485 -5
    endloop
  endfacet
  facet normal 0.462548 -0.886594 0
    outer loop
      vertex 2.45358 -4.3566 -5
      vertex 2.45358 -4.3566 5
      vertex 2.16942 -4.50485 5
    endloop
  endfacet
  facet normal 0.518418 -0.855127 0
    outer loop
      vertex 2.72766 -4.19044 -5
      vertex 2.45358 -4.3566 5
      vertex 2.45358 -4.3566 -5
    endloop
  endfacet
  facet normal 0.518418 -0.855127 0
    outer loop
      vertex 2.72766 -4.19044 -5
      vertex 2.72766 -4.19044 5
      vertex 2.45358 -4.3566 5
    endloop
  endfacet
  facet normal 0.572088 -0.820192 0
    outer loop
      vertex 2.99054 -4.00708 -5
      vertex 2.72766 -4.19044 5
      vertex 2.72766 -4.19044 -5
    endloop
  endfacet
  facet normal 0.572088 -0.820192 0
    outer loop
      vertex 2.99054 -4.00708 -5
      vertex 2.99054 -4.00708 5
      vertex 2.72766 -4.19044 5
    endloop
  endfacet
  facet normal 0.623492 -0.78183 0
    outer loop
      vertex 3.24113 -3.80724 -5
      vertex 2.99054 -4.00708 5
      vertex 2.99054 -4.00708 -5
    endloop
  endfacet
  facet normal 0.623492 -0.78183 0
    outer loop
      vertex 3.24113 -3.80724 -5
      vertex 3.24113 -3.80724 5
      vertex 2.99054 -4.00708 5
    endloop
  endfacet
  facet normal 0.672298 -0.74028 0
    outer loop
      vertex 3.47841 -3.59175 -5
      vertex 3.24113 -3.80724 5
      vertex 3.24113 -3.80724 -5
    endloop
  endfacet
  facet normal 0.672298 -0.74028 0
    outer loop
      vertex 3.47841 -3.59175 -5
      vertex 3.47841 -3.59175 5
      vertex 3.24113 -3.80724 5
    endloop
  endfacet
  facet normal 0.718342 -0.695691 0
    outer loop
      vertex 3.70139 -3.36151 -5
      vertex 3.47841 -3.59175 5
      vertex 3.47841 -3.59175 -5
    endloop
  endfacet
  facet normal 0.718342 -0.695691 0
    outer loop
      vertex 3.70139 -3.36151 -5
      vertex 3.70139 -3.36151 5
      vertex 3.47841 -3.59175 5
    endloop
  endfacet
  facet normal 0.76145 -0.648223 0
    outer loop
      vertex 3.90915 -3.11746 -5
      vertex 3.70139 -3.36151 5
      vertex 3.70139 -3.36151 -5
    endloop
  endfacet
  facet normal 0.76145 -0.648223 0
    outer loop
      vertex 3.90915 -3.11746 -5
      vertex 3.90915 -3.11746 5
      vertex 3.70139 -3.36151 5
    endloop
  endfacet
  facet normal 0.801398 -0.598131 0
    outer loop
      vertex 4.10086 -2.8606 -5
      vertex 3.90915 -3.11746 5
      vertex 3.90915 -3.11746 -5
    endloop
  endfacet
  facet normal 0.801398 -0.598131 0
    outer loop
      vertex 4.10086 -2.8606 -5
      vertex 4.10086 -2.8606 5
      vertex 3.90915 -3.11746 5
    endloop
  endfacet
  facet normal 0.83811 -0.545501 0
    outer loop
      vertex 4.27571 -2.59196 -5
      vertex 4.10086 -2.8606 5
      vertex 4.10086 -2.8606 -5
    endloop
  endfacet
  facet normal 0.83811 -0.545501 0
    outer loop
      vertex 4.27571 -2.59196 -5
      vertex 4.27571 -2.59196 5
      vertex 4.10086 -2.8606 5
    endloop
  endfacet
  facet normal 0.871327 -0.490703 0
    outer loop
      vertex 4.43298 -2.3127 -5
      vertex 4.27571 -2.59196 5
      vertex 4.27571 -2.59196 -5
    endloop
  endfacet
  facet normal 0.871327 -0.490703 0
    outer loop
      vertex 4.43298 -2.3127 -5
      vertex 4.43298 -2.3127 5
      vertex 4.27571 -2.59196 5
    endloop
  endfacet
  facet normal 0.900962 -0.433898 0
    outer loop
      vertex 4.57205 -2.02393 -5
      vertex 4.43298 -2.3127 5
      vertex 4.43298 -2.3127 -5
    endloop
  endfacet
  facet normal 0.900962 -0.433898 0
    outer loop
      vertex 4.57205 -2.02393 -5
      vertex 4.57205 -2.02393 5
      vertex 4.43298 -2.3127 5
    endloop
  endfacet
  facet normal 0.926904 -0.375298 0
    outer loop
      vertex 4.69234 -1.72684 -5
      vertex 4.57205 -2.02393 5
      vertex 4.57205 -2.02393 -5
    endloop
  endfacet
  facet normal 0.926904 -0.375298 0
    outer loop
      vertex 4.69234 -1.72684 -5
      vertex 4.69234 -1.72684 5
      vertex 4.57205 -2.02393 5
    endloop
  endfacet
  facet normal 0.949066 -0.315076 0
    outer loop
      vertex 4.79333 -1.42264 -5
      vertex 4.69234 -1.72684 5
      vertex 4.69234 -1.72684 -5
    endloop
  endfacet
  facet normal 0.949066 -0.315076 0
    outer loop
      vertex 4.79333 -1.42264 -5
      vertex 4.79333 -1.42264 5
      vertex 4.69234 -1.72684 5
    endloop
  endfacet
  facet normal 0.967294 -0.253656 0
    outer loop
      vertex 4.87463 -1.11261 -5
      vertex 4.79333 -1.42264 5
      vertex 4.79333 -1.42264 -5
    endloop
  endfacet
  facet normal 0.967294 -0.253656 0
    outer loop
      vertex 4.87463 -1.11261 -5
      vertex 4.87463 -1.11261 5
      vertex 4.79333 -1.42264 5
    endloop
  endfacet
  facet normal 0.981559 -0.19116 0
    outer loop
      vertex 4.9359 -0.798004 -5
      vertex 4.87463 -1.11261 5
      vertex 4.87463 -1.11261 -5
    endloop
  endfacet
  facet normal 0.981559 -0.19116 0
    outer loop
      vertex 4.9359 -0.798004 -5
      vertex 4.9359 -0.798004 5
      vertex 4.87463 -1.11261 5
    endloop
  endfacet
  facet normal 0.991793 -0.127856 0
    outer loop
      vertex 4.97688 -0.480118 -5
      vertex 4.9359 -0.798004 5
      vertex 4.9359 -0.798004 -5
    endloop
  endfacet
  facet normal 0.991793 -0.127856 0
    outer loop
      vertex 4.97688 -0.480118 -5
      vertex 4.97688 -0.480118 5
      vertex 4.9359 -0.798004 5
    endloop
  endfacet
  facet normal 0.997944 -0.0640846 0
    outer loop
      vertex 4.99742 -0.160263 -5
      vertex 4.97688 -0.480118 5
      vertex 4.97688 -0.480118 -5
    endloop
  endfacet
  facet normal 0.997944 -0.0640846 0
    outer loop
      vertex 4.99742 -0.160263 -5
      vertex 4.99742 -0.160263 5
      vertex 4.97688 -0.480118 5
    endloop
  endfacet
  facet normal 1 0 0
    outer loop
      vertex 4.99742 0.160248 -5
      vertex 4.99742 -0.160263 5
      vertex 4.99742 -0.160263 -5
    endloop
  endfacet
  facet normal 1 0 -0
    outer loop
      vertex 4.99742 0.160248 -5
      vertex 4.99742 0.160248 5
      vertex 4.99742 -0.160263 5
    endloop
  endfacet
  facet normal 0.997944 0.0640846 0
    outer loop
      vertex 4.97688 0.480103 -5
      vertex 4.99742 0.160248 5
      vertex 4.99742 0.160248 -5
    endloop
  endfacet
  facet normal 0.997944 0.0640846 -0
    outer loop
      vertex 4.97688 0.480103 -5
      vertex 4.97688 0.480103 5
      vertex 4.99742 0.160248 5
    endloop
  endfacet
  facet normal 0.991793 0.127856 0
    outer loop
      vertex 4.9359 0.797989 -5
      vertex 4.97688 0.480103 5
      vertex 4.97688 0.480103 -5
    endloop
  endfacet
  facet normal 0.991793 0.127856 -0
    outer loop
      vertex 4.9359 0.797989 -5
      vertex 4.9359 0.797989 5
      vertex 4.97688 0.480103 5
    endloop
  endfacet
  facet normal 0.981558 0.191163 0
    outer loop
      vertex 4.87463 1.11259 -5
      vertex 4.9359 0.797989 5
      vertex 4.9359 0.797989 -5
    endloop
  endfacet
  facet normal 0.981558 0.191163 -0
    outer loop
      vertex 4.87463 1.11259 -5
      vertex 4.87463 1.11259 5
      vertex 4.9359 0.797989 5
    endloop
  endfacet
  facet normal 0.967294 0.253656 0
    outer loop
      vertex 4.79333 1.42262 -5
      vertex 4.87463 1.11259 5
      vertex 4.87463 1.11259 -5
    endloop
  endfacet
  facet normal 0.967294 0.253656 -0
    outer loop
      vertex 4.79333 1.42262 -5
      vertex 4.79333 1.42262 5
      vertex 4.87463 1.11259 5
    endloop
  endfacet
  facet normal 0.949066 0.315076 0
    outer loop
      vertex 4.69234 1.72682 -5
      vertex 4.79333 1.42262 5
      vertex 4.79333 1.42262 -5
    endloop
  endfacet
  facet normal 0.949066 0.315076 -0
    outer loop
      vertex 4.69234 1.72682 -5
      vertex 4.69234 1.72682 5
      vertex 4.79333 1.42262 5
    endloop
  endfacet
  facet normal 0.926904 0.375298 0
    outer loop
      vertex 4.57205 2.02391 -5
      vertex 4.69234 1.72682 5
      vertex 4.69234 1.72682 -5
    endloop
  endfacet
  facet normal 0.926904 0.375298 -0
    outer loop
      vertex 4.57205 2.02391 -5
      vertex 4.57205 2.02391 5
      vertex 4.69234 1.72682 5
    endloop
  endfacet
  facet normal 0.900962 0.433898 0
    outer loop
      vertex 4.43298 2.31268 -5
      vertex 4.57205 2.02391 5
      vertex 4.57205 2.02391 -5
    endloop
  endfacet
  facet normal 0.900962 0.433898 -0
    outer loop
      vertex 4.43298 2.31268 -5
      vertex 4.43298 2.31268 5
      vertex 4.57205 2.02391 5
    endloop
  endfacet
  facet normal 0.871335 0.490689 0
    outer loop
      vertex 4.27571 2.59195 -5
      vertex 4.43298 2.31268 5
      vertex 4.43298 2.31268 -5
    endloop
  endfacet
  facet normal 0.871335 0.490689 -0
    outer loop
      vertex 4.27571 2.59195 -5
      vertex 4.27571 2.59195 5
      vertex 4.43298 2.31268 5
    endloop
  endfacet
  facet normal 0.838101 0.545516 0
    outer loop
      vertex 4.10086 2.86058 -5
      vertex 4.27571 2.59195 5
      vertex 4.27571 2.59195 -5
    endloop
  endfacet
  facet normal 0.838101 0.545516 -0
    outer loop
      vertex 4.10086 2.86058 -5
      vertex 4.10086 2.86058 5
      vertex 4.27571 2.59195 5
    endloop
  endfacet
  facet normal 0.801409 0.598116 0
    outer loop
      vertex 3.90915 3.11745 -5
      vertex 4.10086 2.86058 5
      vertex 4.10086 2.86058 -5
    endloop
  endfacet
  facet normal 0.801409 0.598116 -0
    outer loop
      vertex 3.90915 3.11745 -5
      vertex 3.90915 3.11745 5
      vertex 4.10086 2.86058 5
    endloop
  endfacet
  facet normal 0.76145 0.648223 0
    outer loop
      vertex 3.70139 3.3615 -5
      vertex 3.90915 3.11745 5
      vertex 3.90915 3.11745 -5
    endloop
  endfacet
  facet normal 0.76145 0.648223 -0
    outer loop
      vertex 3.70139 3.3615 -5
      vertex 3.70139 3.3615 5
      vertex 3.90915 3.11745 5
    endloop
  endfacet
  facet normal 0.718342 0.695691 0
    outer loop
      vertex 3.47841 3.59174 -5
      vertex 3.70139 3.3615 5
      vertex 3.70139 3.3615 -5
    endloop
  endfacet
  facet normal 0.718342 0.695691 -0
    outer loop
      vertex 3.47841 3.59174 -5
      vertex 3.47841 3.59174 5
      vertex 3.70139 3.3615 5
    endloop
  endfacet
  facet normal 0.672281 0.740296 0
    outer loop
      vertex 3.24113 3.80722 -5
      vertex 3.47841 3.59174 5
      vertex 3.47841 3.59174 -5
    endloop
  endfacet
  facet normal 0.672281 0.740296 -0
    outer loop
      vertex 3.24113 3.80722 -5
      vertex 3.24113 3.80722 5
      vertex 3.47841 3.59174 5
    endloop
  endfacet
  facet normal 0.623492 0.78183 0
    outer loop
      vertex 2.99054 4.00706 -5
      vertex 3.24113 3.80722 5
      vertex 3.24113 3.80722 -5
    endloop
  endfacet
  facet normal 0.623492 0.78183 -0
    outer loop
      vertex 2.99054 4.00706 -5
      vertex 2.99054 4.00706 5
      vertex 3.24113 3.80722 5
    endloop
  endfacet
  facet normal 0.572109 0.820178 0
    outer loop
      vertex 2.72766 4.19043 -5
      vertex 2.99054 4.00706 5
      vertex 2.99054 4.00706 -5
    endloop
  endfacet
  facet normal 0.572109 0.820178 -0
    outer loop
      vertex 2.72766 4.19043 -5
      vertex 2.72766 4.19043 5
      vertex 2.99054 4.00706 5
    endloop
  endfacet
  facet normal 0.518395 0.855141 0
    outer loop
      vertex 2.45358 4.35658 -5
      vertex 2.72766 4.19043 5
      vertex 2.72766 4.19043 -5
    endloop
  endfacet
  facet normal 0.518395 0.855141 -0
    outer loop
      vertex 2.45358 4.35658 -5
      vertex 2.45358 4.35658 5
      vertex 2.72766 4.19043 5
    endloop
  endfacet
  facet normal 0.462572 0.886582 0
    outer loop
      vertex 2.16942 4.50484 -5
      vertex 2.45358 4.35658 5
      vertex 2.45358 4.35658 -5
    endloop
  endfacet
  facet normal 0.462572 0.886582 -0
    outer loop
      vertex 2.16942 4.50484 -5
      vertex 2.16942 4.50484 5
      vertex 2.45358 4.35658 5
    endloop
  endfacet
  facet normal 0.404777 0.914415 0
    outer loop
      vertex 1.87633 4.63458 -5
      vertex 2.16942 4.50484 5
      vertex 2.16942 4.50484 -5
    endloop
  endfacet
  facet normal 0.404777 0.914415 -0
    outer loop
      vertex 1.87633 4.63458 -5
      vertex 1.87633 4.63458 5
      vertex 2.16942 4.50484 5
    endloop
  endfacet
  facet normal 0.345345 0.938476 0
    outer loop
      vertex 1.57553 4.74527 -5
      vertex 1.87633 4.63458 5
      vertex 1.87633 4.63458 -5
    endloop
  endfacet
  facet normal 0.345345 0.938476 -0
    outer loop
      vertex 1.57553 4.74527 -5
      vertex 1.57553 4.74527 5
      vertex 1.87633 4.63458 5
    endloop
  endfacet
  facet normal 0.284539 0.958665 0
    outer loop
      vertex 1.26826 4.83647 -5
      vertex 1.57553 4.74527 5
      vertex 1.57553 4.74527 -5
    endloop
  endfacet
  facet normal 0.284539 0.958665 -0
    outer loop
      vertex 1.26826 4.83647 -5
      vertex 1.26826 4.83647 5
      vertex 1.57553 4.74527 5
    endloop
  endfacet
  facet normal 0.222516 0.974929 0
    outer loop
      vertex 0.95578 4.90779 -5
      vertex 1.26826 4.83647 5
      vertex 1.26826 4.83647 -5
    endloop
  endfacet
  facet normal 0.222516 0.974929 -0
    outer loop
      vertex 0.95578 4.90779 -5
      vertex 0.95578 4.90779 5
      vertex 1.26826 4.83647 5
    endloop
  endfacet
  facet normal 0.159588 0.987184 0
    outer loop
      vertex 0.639374 4.95894 -5
      vertex 0.95578 4.90779 5
      vertex 0.95578 4.90779 -5
    endloop
  endfacet
  facet normal 0.159588 0.987184 -0
    outer loop
      vertex 0.639374 4.95894 -5
      vertex 0.639374 4.95894 5
      vertex 0.95578 4.90779 5
    endloop
  endfacet
  facet normal 0.0960337 0.995378 0
    outer loop
      vertex 0.320343 4.98972 -5
      vertex 0.639374 4.95894 5
      vertex 0.639374 4.95894 -5
    endloop
  endfacet
  facet normal 0.0960337 0.995378 -0
    outer loop
      vertex 0.320343 4.98972 -5
      vertex 0.320343 4.98972 5
      vertex 0.639374 4.95894 5
    endloop
  endfacet
  facet normal 0.0320741 0.999485 0
    outer loop
      vertex 0 5 -5
      vertex 0.320343 4.98972 5
      vertex 0.320343 4.98972 -5
    endloop
  endfacet
  facet normal 0.0320741 0.999485 -0
    outer loop
      vertex 0 5 -5
      vertex 0 5 5
      vertex 0.320343 4.98972 5
    endloop
  endfacet
  facet normal 0 1 0
    outer loop
      vertex -5 5 -5
      vertex 0 5 5
      vertex 0 5 -5
    endloop
  endfacet
  facet normal 0 1 0
    outer loop
      vertex -5 5 -5
      vertex -5 5 5
      vertex 0 5 5
    endloop
  endfacet
  facet normal -1 0 0
    outer loop
      vertex -5 -5 -5
      vertex -5 5 5
      vertex -5 5 -5
    endloop
  endfacet
  facet normal -1 0 0
    outer loop
      vertex -5 -5 -5
      vertex -5 -5 5
      vertex -5 5 5
    endloop
  endfacet
  facet normal 0 -1 0
    outer loop
      vertex 0 -5 -5
      vertex -5 -5 5
      vertex -5 -5 -5
    endloop
  endfacet
  facet normal 0 -1 0
    outer loop
      vertex 0 -5 -5
      vertex 0 -5 5
      vertex -5 -5 5
    endloop
  endfacet
  facet normal 0.0320429 -0.999486 0
    outer loop
      vertex 0.320343 -4.98973 -5
      vertex 0 -5 5
      vertex 0 -5 -5
    endloop
  endfacet
  facet normal 0.0320429 -0.999486 0
    outer loop
      vertex 0.320343 -4.98973 -5
      vertex 0.320343 -4.98973 5
      vertex 0 -5 5
    endloop
  endfacet
  facet normal 0.125365 0.992111 -0
    outer loop
      vertex -0.624619 -3.27429 -5
      vertex -0.624619 -3.27429 5
      vertex -0.209305 -3.32677 -5
    endloop
  endfacet
  facet normal 0.125365 0.992111 0
    outer loop
      vertex -0.209305 -3.32677 5
      vertex -0.209305 -3.32677 -5
      vertex -0.624619 -3.27429 5
    endloop
  endfacet
  facet normal 0.248668 0.968589 -0
    outer loop
      vertex -1.03006 -3.1702 -5
      vertex -1.03006 -3.1702 5
      vertex -0.624619 -3.27429 -5
    endloop
  endfacet
  facet normal 0.248668 0.968589 0
    outer loop
      vertex -0.624619 -3.27429 5
      vertex -0.624619 -3.27429 -5
      vertex -1.03006 -3.1702 5
    endloop
  endfacet
  facet normal 0.368126 0.929776 -0
    outer loop
      vertex -1.41927 -3.0161 -5
      vertex -1.41927 -3.0161 5
      vertex -1.03006 -3.1702 -5
    endloop
  endfacet
  facet normal 0.368126 0.929776 0
    outer loop
      vertex -1.03006 -3.1702 5
      vertex -1.03006 -3.1702 -5
      vertex -1.41927 -3.0161 5
    endloop
  endfacet
  facet normal 0.481742 0.876313 -0
    outer loop
      vertex -1.7861 -2.81444 -5
      vertex -1.7861 -2.81444 5
      vertex -1.41927 -3.0161 -5
    endloop
  endfacet
  facet normal 0.481742 0.876313 0
    outer loop
      vertex -1.41927 -3.0161 5
      vertex -1.41927 -3.0161 -5
      vertex -1.7861 -2.81444 5
    endloop
  endfacet
  facet normal 0.587784 0.809018 -0
    outer loop
      vertex -2.12476 -2.56839 -5
      vertex -2.12476 -2.56839 5
      vertex -1.7861 -2.81444 -5
    endloop
  endfacet
  facet normal 0.587784 0.809018 0
    outer loop
      vertex -1.7861 -2.81444 5
      vertex -1.7861 -2.81444 -5
      vertex -2.12476 -2.56839 5
    endloop
  endfacet
  facet normal 0.684565 0.728951 -0
    outer loop
      vertex -2.4299 -2.28183 -5
      vertex -2.4299 -2.28183 5
      vertex -2.12476 -2.56839 -5
    endloop
  endfacet
  facet normal 0.684565 0.728951 0
    outer loop
      vertex -2.12476 -2.56839 5
      vertex -2.12476 -2.56839 -5
      vertex -2.4299 -2.28183 5
    endloop
  endfacet
  facet normal 0.770511 0.637426 -0
    outer loop
      vertex -2.69673 -1.95929 -5
      vertex -2.69673 -1.95929 5
      vertex -2.4299 -2.28183 -5
    endloop
  endfacet
  facet normal 0.770511 0.637426 0
    outer loop
      vertex -2.4299 -2.28183 5
      vertex -2.4299 -2.28183 -5
      vertex -2.69673 -1.95929 5
    endloop
  endfacet
  facet normal 0.844317 0.535844 -0
    outer loop
      vertex -2.92104 -1.60585 -5
      vertex -2.92104 -1.60585 5
      vertex -2.69673 -1.95929 -5
    endloop
  endfacet
  facet normal 0.844317 0.535844 0
    outer loop
      vertex -2.69673 -1.95929 5
      vertex -2.69673 -1.95929 -5
      vertex -2.92104 -1.60585 5
    endloop
  endfacet
  facet normal 0.904833 0.425767 -0
    outer loop
      vertex -3.09926 -1.2271 -5
      vertex -3.09926 -1.2271 5
      vertex -2.92104 -1.60585 -5
    endloop
  endfacet
  facet normal 0.904833 0.425767 0
    outer loop
      vertex -2.92104 -1.60585 5
      vertex -2.92104 -1.60585 -5
      vertex -3.09926 -1.2271 5
    endloop
  endfacet
  facet normal 0.951055 0.309023 -0
    outer loop
      vertex -3.22862 -0.828979 -5
      vertex -3.22862 -0.828979 5
      vertex -3.09926 -1.2271 -5
    endloop
  endfacet
  facet normal 0.951055 0.309023 0
    outer loop
      vertex -3.09926 -1.2271 5
      vertex -3.09926 -1.2271 -5
      vertex -3.22862 -0.828979 5
    endloop
  endfacet
  facet normal 0.982291 0.18736 -0
    outer loop
      vertex -3.30705 -0.417786 -5
      vertex -3.30705 -0.417786 5
      vertex -3.22862 -0.828979 -5
    endloop
  endfacet
  facet normal 0.982291 0.18736 0
    outer loop
      vertex -3.22862 -0.828979 5
      vertex -3.22862 -0.828979 -5
      vertex -3.30705 -0.417786 5
    endloop
  endfacet
  facet normal 0.998026 0.0628027 -0
    outer loop
      vertex -3.33334 0 -5
      vertex -3.33334 0 5
      vertex -3.30705 -0.417786 -5
    endloop
  endfacet
  facet normal 0.998026 0.0628027 0
    outer loop
      vertex -3.30705 -0.417786 5
      vertex -3.30705 -0.417786 -5
      vertex -3.33334 0 5
    endloop
  endfacet
  facet normal 0.998026 -0.0628051 0
    outer loop
      vertex -3.30705 0.41777 -5
      vertex -3.30705 0.41777 5
      vertex -3.33334 0 -5
    endloop
  endfacet
  facet normal 0.998026 -0.0628051 0
    outer loop
      vertex -3.33334 0 5
      vertex -3.33334 0 -5
      vertex -3.30705 0.41777 5
    endloop
  endfacet
  facet normal 0.982291 -0.18736 0
    outer loop
      vertex -3.22862 0.828964 -5
      vertex -3.22862 0.828964 5
      vertex -3.30705 0.41777 -5
    endloop
  endfacet
  facet normal 0.982291 -0.18736 0
    outer loop
      vertex -3.30705 0.41777 5
      vertex -3.30705 0.41777 -5
      vertex -3.22862 0.828964 5
    endloop
  endfacet
  facet normal 0.951054 -0.309026 0
    outer loop
      vertex -3.09926 1.22708 -5
      vertex -3.09926 1.22708 5
      vertex -3.22862 0.828964 -5
    endloop
  endfacet
  facet normal 0.951054 -0.309026 0
    outer loop
      vertex -3.22862 0.828964 5
      vertex -3.22862 0.828964 -5
      vertex -3.09926 1.22708 5
    endloop
  endfacet
  facet normal 0.904833 -0.425767 0
    outer loop
      vertex -2.92104 1.60583 -5
      vertex -2.92104 1.60583 5
      vertex -3.09926 1.22708 -5
    endloop
  endfacet
  facet normal 0.904833 -0.425767 0
    outer loop
      vertex -3.09926 1.22708 5
      vertex -3.09926 1.22708 -5
      vertex -2.92104 1.60583 5
    endloop
  endfacet
  facet normal 0.844317 -0.535844 0
    outer loop
      vertex -2.69673 1.95927 -5
      vertex -2.69673 1.95927 5
      vertex -2.92104 1.60583 -5
    endloop
  endfacet
  facet normal 0.844317 -0.535844 0
    outer loop
      vertex -2.92104 1.60583 5
      vertex -2.92104 1.60583 -5
      vertex -2.69673 1.95927 5
    endloop
  endfacet
  facet normal 0.770511 -0.637426 0
    outer loop
      vertex -2.4299 2.28181 -5
      vertex -2.4299 2.28181 5
      vertex -2.69673 1.95927 -5
    endloop
  endfacet
  facet normal 0.770511 -0.637426 0
    outer loop
      vertex -2.69673 1.95927 5
      vertex -2.69673 1.95927 -5
      vertex -2.4299 2.28181 5
    endloop
  endfacet
  facet normal 0.684565 -0.728951 0
    outer loop
      vertex -2.12476 2.56837 -5
      vertex -2.12476 2.56837 5
      vertex -2.4299 2.28181 -5
    endloop
  endfacet
  facet normal 0.684565 -0.728951 0
    outer loop
      vertex -2.4299 2.28181 5
      vertex -2.4299 2.28181 -5
      vertex -2.12476 2.56837 5
    endloop
  endfacet
  facet normal 0.587784 -0.809018 0
    outer loop
      vertex -1.7861 2.81442 -5
      vertex -1.7861 2.81442 5
      vertex -2.12476 2.56837 -5
    endloop
  endfacet
  facet normal 0.587784 -0.809018 0
    outer loop
      vertex -2.12476 2.56837 5
      vertex -2.12476 2.56837 -5
      vertex -1.7861 2.81442 5
    endloop
  endfacet
  facet normal 0.481742 -0.876313 0
    outer loop
      vertex -1.41927 3.01608 -5
      vertex -1.41927 3.01608 5
      vertex -1.7861 2.81442 -5
    endloop
  endfacet
  facet normal 0.481742 -0.876313 0
    outer loop
      vertex -1.7861 2.81442 5
      vertex -1.7861 2.81442 -5
      vertex -1.41927 3.01608 5
    endloop
  endfacet
  facet normal 0.368126 -0.929776 0
    outer loop
      vertex -1.03006 3.17018 -5
      vertex -1.03006 3.17018 5
      vertex -1.41927 3.01608 -5
    endloop
  endfacet
  facet normal 0.368126 -0.929776 0
    outer loop
      vertex -1.41927 3.01608 5
      vertex -1.41927 3.01608 -5
      vertex -1.03006 3.17018 5
    endloop
  endfacet
  facet normal 0.248691 -0.968583 0
    outer loop
      vertex -0.624619 3.27428 -5
      vertex -0.624619 3.27428 5
      vertex -1.03006 3.17018 -5
    endloop
  endfacet
  facet normal 0.248691 -0.968583 0
    outer loop
      vertex -1.03006 3.17018 5
      vertex -1.03006 3.17018 -5
      vertex -0.624619 3.27428 5
    endloop
  endfacet
  facet normal 0.125342 -0.992114 0
    outer loop
      vertex -0.209305 3.32675 -5
      vertex -0.209305 3.32675 5
      vertex -0.624619 3.27428 -5
    endloop
  endfacet
  facet normal 0.125342 -0.992114 0
    outer loop
      vertex -0.624619 3.27428 5
      vertex -0.624619 3.27428 -5
      vertex -0.209305 3.32675 5
    endloop
  endfacet
  facet normal 0 -1 0
    outer loop
      vertex 0.20929 3.32675 -5
      vertex 0.20929 3.32675 5
      vertex -0.209305 3.32675 -5
    endloop
  endfacet
  facet normal 0 -1 0
    outer loop
      vertex -0.209305 3.32675 5
      vertex -0.209305 3.32675 -5
      vertex 0.20929 3.32675 5
    endloop
  endfacet
  facet normal -0.125342 -0.992114 0
    outer loop
      vertex 0.624603 3.27428 -5
      vertex 0.624603 3.27428 5
      vertex 0.20929 3.32675 -5
    endloop
  endfacet
  facet normal -0.125342 -0.992114 -0
    outer loop
      vertex 0.20929 3.32675 5
      vertex 0.20929 3.32675 -5
      vertex 0.624603 3.27428 5
    endloop
  endfacet
  facet normal -0.248693 -0.968582 0
    outer loop
      vertex 1.03004 3.17018 -5
      vertex 1.03004 3.17018 5
      vertex 0.624603 3.27428 -5
    endloop
  endfacet
  facet normal -0.248693 -0.968582 -0
    outer loop
      vertex 0.624603 3.27428 5
      vertex 0.624603 3.27428 -5
      vertex 1.03004 3.17018 5
    endloop
  endfacet
  facet normal -0.368126 -0.929776 0
    outer loop
      vertex 1.41925 3.01608 -5
      vertex 1.41925 3.01608 5
      vertex 1.03004 3.17018 -5
    endloop
  endfacet
  facet normal -0.368126 -0.929776 -0
    outer loop
      vertex 1.03004 3.17018 5
      vertex 1.03004 3.17018 -5
      vertex 1.41925 3.01608 5
    endloop
  endfacet
  facet normal -0.481732 -0.876319 0
    outer loop
      vertex 1.78609 2.81442 -5
      vertex 1.78609 2.81442 5
      vertex 1.41925 3.01608 -5
    endloop
  endfacet
  facet normal -0.481732 -0.876319 -0
    outer loop
      vertex 1.41925 3.01608 5
      vertex 1.41925 3.01608 -5
      vertex 1.78609 2.81442 5
    endloop
  endfacet
  facet normal -0.587795 -0.80901 0
    outer loop
      vertex 2.12474 2.56837 -5
      vertex 2.12474 2.56837 5
      vertex 1.78609 2.81442 -5
    endloop
  endfacet
  facet normal -0.587795 -0.80901 -0
    outer loop
      vertex 1.78609 2.81442 5
      vertex 1.78609 2.81442 -5
      vertex 2.12474 2.56837 5
    endloop
  endfacet
  facet normal -0.684554 -0.728963 0
    outer loop
      vertex 2.42989 2.28181 -5
      vertex 2.42989 2.28181 5
      vertex 2.12474 2.56837 -5
    endloop
  endfacet
  facet normal -0.684554 -0.728963 -0
    outer loop
      vertex 2.12474 2.56837 5
      vertex 2.12474 2.56837 -5
      vertex 2.42989 2.28181 5
    endloop
  endfacet
  facet normal -0.770511 -0.637426 0
    outer loop
      vertex 2.69672 1.95927 -5
      vertex 2.69672 1.95927 5
      vertex 2.42989 2.28181 -5
    endloop
  endfacet
  facet normal -0.770511 -0.637426 -0
    outer loop
      vertex 2.42989 2.28181 5
      vertex 2.42989 2.28181 -5
      vertex 2.69672 1.95927 5
    endloop
  endfacet
  facet normal -0.844328 -0.535827 0
    outer loop
      vertex 2.92102 1.60583 -5
      vertex 2.92102 1.60583 5
      vertex 2.69672 1.95927 -5
    endloop
  endfacet
  facet normal -0.844328 -0.535827 -0
    outer loop
      vertex 2.69672 1.95927 5
      vertex 2.69672 1.95927 -5
      vertex 2.92102 1.60583 5
    endloop
  endfacet
  facet normal -0.904833 -0.425767 0
    outer loop
      vertex 3.09924 1.22708 -5
      vertex 3.09924 1.22708 5
      vertex 2.92102 1.60583 -5
    endloop
  endfacet
  facet normal -0.904833 -0.425767 -0
    outer loop
      vertex 2.92102 1.60583 5
      vertex 2.92102 1.60583 -5
      vertex 3.09924 1.22708 5
    endloop
  endfacet
  facet normal -0.951046 -0.309048 0
    outer loop
      vertex 3.22861 0.828964 -5
      vertex 3.22861 0.828964 5
      vertex 3.09924 1.22708 -5
    endloop
  endfacet
  facet normal -0.951046 -0.309048 -0
    outer loop
      vertex 3.09924 1.22708 5
      vertex 3.09924 1.22708 -5
      vertex 3.22861 0.828964 5
    endloop
  endfacet
  facet normal -0.982291 -0.18736 0
    outer loop
      vertex 3.30704 0.41777 -5
      vertex 3.30704 0.41777 5
      vertex 3.22861 0.828964 -5
    endloop
  endfacet
  facet normal -0.982291 -0.18736 -0
    outer loop
      vertex 3.22861 0.828964 5
      vertex 3.22861 0.828964 -5
      vertex 3.30704 0.41777 5
    endloop
  endfacet
  facet normal -0.998026 -0.0628051 0
    outer loop
      vertex 3.33333 0 -5
      vertex 3.33333 0 5
      vertex 3.30704 0.41777 -5
    endloop
  endfacet
  facet normal -0.998026 -0.0628051 -0
    outer loop
      vertex 3.30704 0.41777 5
      vertex 3.30704 0.41777 -5
      vertex 3.33333 0 5
    endloop
  endfacet
  facet normal -0.998026 0.0628027 0
    outer loop
      vertex 3.30704 -0.417786 -5
      vertex 3.30704 -0.417786 5
      vertex 3.33333 0 -5
    endloop
  endfacet
  facet normal -0.998026 0.0628027 0
    outer loop
      vertex 3.33333 0 5
      vertex 3.33333 0 -5
      vertex 3.30704 -0.417786 5
    endloop
  endfacet
  facet normal -0.982291 0.18736 0
    outer loop
      vertex 3.22861 -0.828979 -5
      vertex 3.22861 -0.828979 5
      vertex 3.30704 -0.417786 -5
    endloop
  endfacet
  facet normal -0.982291 0.18736 0
    outer loop
      vertex 3.30704 -0.417786 5
      vertex 3.30704 -0.417786 -5
      vertex 3.22861 -0.828979 5
    endloop
  endfacet
  facet normal -0.951048 0.309044 0
    outer loop
      vertex 3.09924 -1.2271 -5
      vertex 3.09924 -1.2271 5
      vertex 3.22861 -0.828979 -5
    endloop
  endfacet
  facet normal -0.951048 0.309044 0
    outer loop
      vertex 3.22861 -0.828979 5
      vertex 3.22861 -0.828979 -5
      vertex 3.09924 -1.2271 5
    endloop
  endfacet
  facet normal -0.904833 0.425767 0
    outer loop
      vertex 2.92102 -1.60585 -5
      vertex 2.92102 -1.60585 5
      vertex 3.09924 -1.2271 -5
    endloop
  endfacet
  facet normal -0.904833 0.425767 0
    outer loop
      vertex 3.09924 -1.2271 5
      vertex 3.09924 -1.2271 -5
      vertex 2.92102 -1.60585 5
    endloop
  endfacet
  facet normal -0.844328 0.535827 0
    outer loop
      vertex 2.69672 -1.95929 -5
      vertex 2.69672 -1.95929 5
      vertex 2.92102 -1.60585 -5
    endloop
  endfacet
  facet normal -0.844328 0.535827 0
    outer loop
      vertex 2.92102 -1.60585 5
      vertex 2.92102 -1.60585 -5
      vertex 2.69672 -1.95929 5
    endloop
  endfacet
  facet normal -0.770511 0.637426 0
    outer loop
      vertex 2.42989 -2.28183 -5
      vertex 2.42989 -2.28183 5
      vertex 2.69672 -1.95929 -5
    endloop
  endfacet
  facet normal -0.770511 0.637426 0
    outer loop
      vertex 2.69672 -1.95929 5
      vertex 2.69672 -1.95929 -5
      vertex 2.42989 -2.28183 5
    endloop
  endfacet
  facet normal -0.684554 0.728963 0
    outer loop
      vertex 2.12474 -2.56839 -5
      vertex 2.12474 -2.56839 5
      vertex 2.42989 -2.28183 -5
    endloop
  endfacet
  facet normal -0.684554 0.728963 0
    outer loop
      vertex 2.42989 -2.28183 5
      vertex 2.42989 -2.28183 -5
      vertex 2.12474 -2.56839 5
    endloop
  endfacet
  facet normal -0.587795 0.80901 0
    outer loop
      vertex 1.78609 -2.81444 -5
      vertex 1.78609 -2.81444 5
      vertex 2.12474 -2.56839 -5
    endloop
  endfacet
  facet normal -0.587795 0.80901 0
    outer loop
      vertex 2.12474 -2.56839 5
      vertex 2.12474 -2.56839 -5
      vertex 1.78609 -2.81444 5
    endloop
  endfacet
  facet normal -0.481732 0.876319 0
    outer loop
      vertex 1.41925 -3.0161 -5
      vertex 1.41925 -3.0161 5
      vertex 1.78609 -2.81444 -5
    endloop
  endfacet
  facet normal -0.481732 0.876319 0
    outer loop
      vertex 1.78609 -2.81444 5
      vertex 1.78609 -2.81444 -5
      vertex 1.41925 -3.0161 5
    endloop
  endfacet
  facet normal -0.368126 0.929776 0
    outer loop
      vertex 1.03004 -3.1702 -5
      vertex 1.03004 -3.1702 5
      vertex 1.41925 -3.0161 -5
    endloop
  endfacet
  facet normal -0.368126 0.929776 0
    outer loop
      vertex 1.41925 -3.0161 5
      vertex 1.41925 -3.0161 -5
      vertex 1.03004 -3.1702 5
    endloop
  endfacet
  facet normal -0.248671 0.968588 0
    outer loop
      vertex 0.624603 -3.27429 -5
      vertex 0.624603 -3.27429 5
      vertex 1.03004 -3.1702 -5
    endloop
  endfacet
  facet normal -0.248671 0.968588 0
    outer loop
      vertex 1.03004 -3.1702 5
      vertex 1.03004 -3.1702 -5
      vertex 0.624603 -3.27429 5
    endloop
  endfacet
  facet normal -0.125366 0.992111 0
    outer loop
      vertex 0.20929 -3.32677 -5
      vertex 0.20929 -3.32677 5
      vertex 0.624603 -3.27429 -5
    endloop
  endfacet
  facet normal -0.125366 0.992111 0
    outer loop
      vertex 0.624603 -3.27429 5
      vertex 0.624603 -3.27429 -5
      vertex 0.20929 -3.32677 5
    endloop
  endfacet
  facet normal 0 1 0
    outer loop
      vertex -0.209305 -3.32677 -5
      vertex -0.209305 -3.32677 5
      vertex 0.20929 -3.32677 -5
    endloop
  endfacet
  facet normal 0 1 0
    outer loop
      vertex 0.20929 -3.32677 5
      vertex 0.20929 -3.32677 -5
      vertex -0.209305 -3.32677 5
    endloop
  endfacet
endsolid OpenSCAD_Model
