solid OpenSCAD_Model
  facet normal 0 -0 -1
    outer loop
      vertex 0 0 -5
      vertex 3.61111 -3.61111 -5
      vertex -3.33334 -5 -5
    endloop
  endfacet
  facet normal -0 0 -1
    outer loop
      vertex 0 0 -5
      vertex -5 -5 -5
      vertex -5 5 -5
    endloop
  endfacet
  facet normal 0 0 -1
    outer loop
      vertex 0 0 -5
      vertex 5 5 -5
      vertex 5 3.33333 -5
    endloop
  endfacet
  facet normal 0 0 -1
    outer loop
      vertex 0 0 -5
      vertex -5 5 -5
      vertex 5 5 -5
    endloop
  endfacet
  facet normal 0 0 -1
    outer loop
      vertex -3.33334 -5 -5
      vertex -5 -5 -5
      vertex 0 0 -5
    endloop
  endfacet
  facet normal 0 -0 -1
    outer loop
      vertex 5 -3.33334 -5
      vertex 5 -5 -5
      vertex 3.61111 -3.61111 -5
    endloop
  endfacet
  facet normal 0 0 1
    outer loop
      vertex -3.33334 -5 5
      vertex 3.61111 -3.61111 5
      vertex 0 0 5
    endloop
  endfacet
  facet normal 0 0 1
    outer loop
      vertex -5 5 5
      vertex -5 -5 5
      vertex 0 0 5
    endloop
  endfacet
  facet normal 0 -0 1
    outer loop
      vertex 5 3.33333 5
      vertex 5 5 5
      vertex 0 0 5
    endloop
  endfacet
  facet normal 0 0 1
    outer loop
      vertex 5 5 5
      vertex -5 5 5
      vertex 0 0 5
    endloop
  endfacet
  facet normal 0 0 1
    outer loop
      vertex 0 0 5
      vertex -5 -5 5
      vertex -3.33334 -5 5
    endloop
  endfacet
  facet normal -0 0 1
    outer loop
      vertex 3.61111 -3.61111 5
      vertex 5 -5 5
      vertex 5 -3.33334 5
    endloop
  endfacet
  facet normal 0.707107 0.707107 0
    outer loop
      vertex 0 0 -5
      vertex 3.61111 -3.61111 5
      vertex 3.61111 -3.61111 -5
    endloop
  endfacet
  facet normal 0.707107 0.707107 -0
    outer loop
      vertex 0 0 -5
      vertex 0 0 5
      vertex 3.61111 -3.61111 5
    endloop
  endfacet
  facet normal 0.5547 -0.832051 0
    outer loop
      vertex 5 3.33333 -5
      vertex 0 0 5
      vertex 0 0 -5
    endloop
  endfacet
  facet normal 0.5547 -0.832051 0
    outer loop
      vertex 5 3.33333 -5
      vertex 5 3.33333 5
      vertex 0 0 5
    endloop
  endfacet
  facet normal 1 0 0
    outer loop
      vertex 5 5 -5
      vertex 5 3.33333 5
      vertex 5 3.33333 -5
    endloop
  endfacet
  facet normal 1 0 -0
    outer loop
      vertex 5 5 -5
      vertex 5 5 5
      vertex 5 3.33333 5
    endloop
  endfacet
  facet normal 0 1 0
    outer loop
      vertex -5 5 -5
      vertex 5 5 5
      vertex 5 5 -5
    endloop
  endfacet
  facet normal 0 1 0
    outer loop
      vertex -5 5 -5
      vertex -5 5 5
      vertex 5 5 5
    endloop
  endfacet
  facet normal -1 0 0
    outer loop
      vertex -5 -5 -5
      vertex -5 5 5
      vertex -5 5 -5
    endloop
  endfacet
  facet normal -1 0 0
    outer loop
      vertex -5 -5 -5
      vertex -5 -5 5
      vertex -5 5 5
    endloop
  endfacet
  facet normal 0 -1 0
    outer loop
      vertex -3.33334 -5 -5
      vertex -5 -5 5
      vertex -5 -5 -5
    endloop
  endfacet
  facet normal 0 -1 0
    outer loop
      vertex -3.33334 -5 -5
      vertex -3.33334 -5 5
      vertex -5 -5 5
    endloop
  endfacet
  facet normal 0.196116 -0.980581 0
    outer loop
      vertex 3.61111 -3.61111 -5
      vertex -3.33334 -5 5
      vertex -3.33334 -5 -5
    endloop
  endfacet
  facet normal 0.196116 -0.980581 0
    outer loop
      vertex 3.61111 -3.61111 -5
      vertex 3.61111 -3.61111 5
      vertex -3.33334 -5 5
    endloop
  endfacet
  facet normal -0.196111 0.980582 0
    outer loop
      vertex 3.61111 -3.61111 -5
      vertex 5 -3.33334 5
      vertex 5 -3.33334 -5
    endloop
  endfacet
  facet normal -0.196111 0.980582 0
    outer loop
      vertex 3.61111 -3.61111 -5
      vertex 3.61111 -3.61111 5
      vertex 5 -3.33334 5
    endloop
  endfacet
  facet normal -0.707107 -0.707107 0
    outer loop
      vertex 5 -5 -5
      vertex 3.61111 -3.61111 5
      vertex 3.61111 -3.61111 -5
    endloop
  endfacet
  facet normal -0.707107 -0.707107 0
    outer loop
      vertex 5 -5 -5
      vertex 5 -5 5
      vertex 3.61111 -3.61111 5
    endloop
  endfacet
  facet normal 1 0 0
    outer loop
      vertex 5 -3.33334 -5
      vertex 5 -5 5
      vertex 5 -5 -5
    endloop
  endfacet
  facet normal 1 0 -0
    outer loop
      vertex 5 -3.33334 -5
      vertex 5 -3.33334 5
      vertex 5 -5 5
    endloop
  endfacet
endsolid OpenSCAD_Model
