solid OpenSCAD_Model
  facet normal 0 0 -1
    outer loop
      vertex 5 5 -5
      vertex 3.59174 -1.52159 -5
      vertex 3.3615 -1.29861 -5
    endloop
  endfacet
  facet normal 0 0 -1
    outer loop
      vertex 3.30595 -4.57375 -5
      vertex 3.32648 -4.78644 -5
      vertex 3.33333 -5 -5
    endloop
  endfacet
  facet normal 0 0 -1
    outer loop
      vertex 2.90439 -3.36429 -5
      vertex 3.00322 -3.55373 -5
      vertex 3.2243 -4.1545 -5
    endloop
  endfacet
  facet normal 0 0 -1
    outer loop
      vertex 2.07829 -2.39391 -5
      vertex 1.72797 -2.14954 -5
      vertex 1.90704 -2.2661 -5
    endloop
  endfacet
  facet normal 0 0 -1
    outer loop
      vertex 3.00322 -3.55373 -5
      vertex 3.08972 -3.74911 -5
      vertex 3.16351 -3.94965 -5
    endloop
  endfacet
  facet normal 0 0 -1
    outer loop
      vertex 3.2243 -4.1545 -5
      vertex 3.00322 -3.55373 -5
      vertex 3.16351 -3.94965 -5
    endloop
  endfacet
  facet normal 0 0 -1
    outer loop
      vertex 2.53815 -2.83925 -5
      vertex 2.07829 -2.39391 -5
      vertex 2.39449 -2.68106 -5
    endloop
  endfacet
  facet normal 0 0 -1
    outer loop
      vertex 2.53815 -2.83925 -5
      vertex 2.79362 -3.18156 -5
      vertex 2.90439 -3.36429 -5
    endloop
  endfacet
  facet normal 0 0 -1
    outer loop
      vertex 2.53815 -2.83925 -5
      vertex 2.67137 -3.0063 -5
      vertex 2.79362 -3.18156 -5
    endloop
  endfacet
  facet normal 0 0 -1
    outer loop
      vertex 2.53815 -2.83925 -5
      vertex 1.72797 -2.14954 -5
      vertex 2.07829 -2.39391 -5
    endloop
  endfacet
  facet normal -0 -0 -1
    outer loop
      vertex 2.53815 -2.83925 -5
      vertex 2.90439 -3.36429 -5
      vertex 1.72797 -2.14954 -5
    endloop
  endfacet
  facet normal -0 -0 -1
    outer loop
      vertex 2.90439 -3.36429 -5
      vertex 3.2243 -4.1545 -5
      vertex 1.72797 -2.14954 -5
    endloop
  endfacet
  facet normal 0 0 -1
    outer loop
      vertex 2.39449 -2.68106 -5
      vertex 2.07829 -2.39391 -5
      vertex 2.241 -2.53241 -5
    endloop
  endfacet
  facet normal -0 -0 -1
    outer loop
      vertex 1.72797 -2.14954 -5
      vertex 3.2243 -4.1545 -5
      vertex 0.320068 -1.68208 -5
    endloop
  endfacet
  facet normal -0 0 -1
    outer loop
      vertex 0.320068 -1.68208 -5
      vertex -3.22432 -4.1545 -5
      vertex -0.320084 -1.68208 -5
    endloop
  endfacet
  facet normal 0 0 -1
    outer loop
      vertex 1.15121 -1.87178 -5
      vertex 1.34927 -1.95197 -5
      vertex 1.72797 -2.14954 -5
    endloop
  endfacet
  facet normal 0 0 -1
    outer loop
      vertex 1.72797 -2.14954 -5
      vertex 1.34927 -1.95197 -5
      vertex 1.54179 -2.04468 -5
    endloop
  endfacet
  facet normal -0 -0 -1
    outer loop
      vertex 0.94841 -1.80444 -5
      vertex 1.15121 -1.87178 -5
      vertex 0.320068 -1.68208 -5
    endloop
  endfacet
  facet normal -0 -0 -1
    outer loop
      vertex 0.74173 -1.75024 -5
      vertex 0.94841 -1.80444 -5
      vertex 0.320068 -1.68208 -5
    endloop
  endfacet
  facet normal 0 0 -1
    outer loop
      vertex 0.320068 -1.68208 -5
      vertex 1.15121 -1.87178 -5
      vertex 1.72797 -2.14954 -5
    endloop
  endfacet
  facet normal 0 0 -1
    outer loop
      vertex 0.320068 -1.68208 -5
      vertex 0.531998 -1.7094 -5
      vertex 0.74173 -1.75024 -5
    endloop
  endfacet
  facet normal 0 -0 -1
    outer loop
      vertex 0.320068 -1.68208 -5
      vertex 3.2243 -4.1545 -5
      vertex -3.22432 -4.1545 -5
    endloop
  endfacet
  facet normal 0 0 -1
    outer loop
      vertex -1.72798 -2.14954 -5
      vertex -3.22432 -4.1545 -5
      vertex -2.9044 -3.36429 -5
    endloop
  endfacet
  facet normal 0 0 -1
    outer loop
      vertex -0.320084 -1.68208 -5
      vertex -0.106842 -1.66838 -5
      vertex 0.106827 -1.66838 -5
    endloop
  endfacet
  facet normal 0 0 -1
    outer loop
      vertex 0.320068 -1.68208 -5
      vertex -0.320084 -1.68208 -5
      vertex 0.106827 -1.66838 -5
    endloop
  endfacet
  facet normal 0 0 -1
    outer loop
      vertex -1.15123 -1.87178 -5
      vertex -0.948425 -1.80444 -5
      vertex -0.320084 -1.68208 -5
    endloop
  endfacet
  facet normal 0 0 -1
    outer loop
      vertex -0.320084 -1.68208 -5
      vertex -0.741745 -1.75024 -5
      vertex -0.532013 -1.7094 -5
    endloop
  endfacet
  facet normal 0 0 -1
    outer loop
      vertex -0.320084 -1.68208 -5
      vertex -0.948425 -1.80444 -5
      vertex -0.741745 -1.75024 -5
    endloop
  endfacet
  facet normal 0 -0 -1
    outer loop
      vertex -1.34929 -1.95197 -5
      vertex -1.15123 -1.87178 -5
      vertex -1.72798 -2.14954 -5
    endloop
  endfacet
  facet normal 0 -0 -1
    outer loop
      vertex -1.54181 -2.04468 -5
      vertex -1.34929 -1.95197 -5
      vertex -1.72798 -2.14954 -5
    endloop
  endfacet
  facet normal 0 0 -1
    outer loop
      vertex -1.72798 -2.14954 -5
      vertex -1.15123 -1.87178 -5
      vertex -0.320084 -1.68208 -5
    endloop
  endfacet
  facet normal 0 -0 -1
    outer loop
      vertex -1.72798 -2.14954 -5
      vertex -0.320084 -1.68208 -5
      vertex -3.22432 -4.1545 -5
    endloop
  endfacet
  facet normal 0 -0 -1
    outer loop
      vertex -2.3945 -2.68106 -5
      vertex -2.07831 -2.39391 -5
      vertex -2.53816 -2.83925 -5
    endloop
  endfacet
  facet normal 0 0 -1
    outer loop
      vertex -1.72798 -2.14954 -5
      vertex -2.07831 -2.39391 -5
      vertex -1.90706 -2.2661 -5
    endloop
  endfacet
  facet normal 0 0 -1
    outer loop
      vertex -2.53816 -2.83925 -5
      vertex -2.07831 -2.39391 -5
      vertex -1.72798 -2.14954 -5
    endloop
  endfacet
  facet normal 0 0 -1
    outer loop
      vertex -2.07831 -2.39391 -5
      vertex -2.3945 -2.68106 -5
      vertex -2.24101 -2.53241 -5
    endloop
  endfacet
  facet normal 0 -0 -1
    outer loop
      vertex -2.79364 -3.18156 -5
      vertex -2.53816 -2.83925 -5
      vertex -2.9044 -3.36429 -5
    endloop
  endfacet
  facet normal 0 0 -1
    outer loop
      vertex -2.79364 -3.18156 -5
      vertex -2.67139 -3.0063 -5
      vertex -2.53816 -2.83925 -5
    endloop
  endfacet
  facet normal 0 0 -1
    outer loop
      vertex -2.9044 -3.36429 -5
      vertex -2.53816 -2.83925 -5
      vertex -1.72798 -2.14954 -5
    endloop
  endfacet
  facet normal 0 -0 -1
    outer loop
      vertex -3.22432 -4.1545 -5
      vertex 3.2243 -4.1545 -5
      vertex -3.27187 -4.36281 -5
    endloop
  endfacet
  facet normal 0 -0 -1
    outer loop
      vertex -3.16353 -3.94965 -5
      vertex -3.00323 -3.55373 -5
      vertex -3.22432 -4.1545 -5
    endloop
  endfacet
  facet normal 0 0 -1
    outer loop
      vertex -3.22432 -4.1545 -5
      vertex -3.00323 -3.55373 -5
      vertex -2.9044 -3.36429 -5
    endloop
  endfacet
  facet normal 0 0 -1
    outer loop
      vertex -3.00323 -3.55373 -5
      vertex -3.16353 -3.94965 -5
      vertex -3.08974 -3.74911 -5
    endloop
  endfacet
  facet normal 0 0 -1
    outer loop
      vertex -3.27187 -4.36281 -5
      vertex 3.2243 -4.1545 -5
      vertex 3.27185 -4.36281 -5
    endloop
  endfacet
  facet normal 0 0 -1
    outer loop
      vertex -3.30597 -4.57375 -5
      vertex -3.27187 -4.36281 -5
      vertex 3.27185 -4.36281 -5
    endloop
  endfacet
  facet normal 0 0 -1
    outer loop
      vertex 3.30595 -4.57375 -5
      vertex -3.30597 -4.57375 -5
      vertex 3.27185 -4.36281 -5
    endloop
  endfacet
  facet normal -0 0 -1
    outer loop
      vertex 3.30595 -4.57375 -5
      vertex -3.33334 -5 -5
      vertex -3.30597 -4.57375 -5
    endloop
  endfacet
  facet normal 0 0 -1
    outer loop
      vertex -3.30597 -4.57375 -5
      vertex -3.33334 -5 -5
      vertex -3.32649 -4.78644 -5
    endloop
  endfacet
  facet normal 0 -0 -1
    outer loop
      vertex 3.30595 -4.57375 -5
      vertex 3.33333 -5 -5
      vertex -3.33334 -5 -5
    endloop
  endfacet
  facet normal 0 0 -1
    outer loop
      vertex -4.3566 -2.54642 -5
      vertex -5 -1.66667 -5
      vertex -4.19044 -2.27234 -5
    endloop
  endfacet
  facet normal 0 0 -1
    outer loop
      vertex -4.19044 -2.27234 -5
      vertex -5 -1.66667 -5
      vertex -4.00708 -2.00946 -5
    endloop
  endfacet
  facet normal 0 0 -1
    outer loop
      vertex -4.00708 -2.00946 -5
      vertex -5 -1.66667 -5
      vertex -3.80724 -1.75887 -5
    endloop
  endfacet
  facet normal 0 0 -1
    outer loop
      vertex -3.80724 -1.75887 -5
      vertex -5 -1.66667 -5
      vertex -3.59175 -1.52159 -5
    endloop
  endfacet
  facet normal -0 0 -1
    outer loop
      vertex -3.59175 -1.52159 -5
      vertex -5 -1.66667 -5
      vertex -3.36151 -1.29861 -5
    endloop
  endfacet
  facet normal -0 0 -1
    outer loop
      vertex -3.36151 -1.29861 -5
      vertex -5 -1.66667 -5
      vertex -3.11746 -1.09085 -5
    endloop
  endfacet
  facet normal -0 0 -1
    outer loop
      vertex -3.11746 -1.09085 -5
      vertex -5 -1.66667 -5
      vertex -5 5 -5
    endloop
  endfacet
  facet normal 0 0 -1
    outer loop
      vertex -2.8606 -0.899139 -5
      vertex -5 5 -5
      vertex -2.59196 -0.724289 -5
    endloop
  endfacet
  facet normal 0 0 -1
    outer loop
      vertex -2.59196 -0.724289 -5
      vertex -5 5 -5
      vertex -2.3127 -0.567017 -5
    endloop
  endfacet
  facet normal 0 0 -1
    outer loop
      vertex -2.3127 -0.567017 -5
      vertex -5 5 -5
      vertex -2.02393 -0.427948 -5
    endloop
  endfacet
  facet normal 0 0 -1
    outer loop
      vertex -2.02393 -0.427948 -5
      vertex -5 5 -5
      vertex -1.72684 -0.307663 -5
    endloop
  endfacet
  facet normal 0 0 -1
    outer loop
      vertex -1.72684 -0.307663 -5
      vertex -5 5 -5
      vertex -1.42264 -0.206665 -5
    endloop
  endfacet
  facet normal 0 0 -1
    outer loop
      vertex -1.42264 -0.206665 -5
      vertex -5 5 -5
      vertex -1.11261 -0.125366 -5
    endloop
  endfacet
  facet normal 0 0 -1
    outer loop
      vertex -1.11261 -0.125366 -5
      vertex -5 5 -5
      vertex -0.798004 -0.0641022 -5
    endloop
  endfacet
  facet normal 0 0 -1
    outer loop
      vertex -0.798004 -0.0641022 -5
      vertex -5 5 -5
      vertex -0.480118 -0.0231171 -5
    endloop
  endfacet
  facet normal 0 0 -1
    outer loop
      vertex -0.480118 -0.0231171 -5
      vertex -5 5 -5
      vertex -0.160263 -0.00257874 -5
    endloop
  endfacet
  facet normal 0 0 -1
    outer loop
      vertex -0.160263 -0.00257874 -5
      vertex -5 5 -5
      vertex 0.160248 -0.00257874 -5
    endloop
  endfacet
  facet normal 0 0 -1
    outer loop
      vertex 0.160248 -0.00257874 -5
      vertex -5 5 -5
      vertex 5 5 -5
    endloop
  endfacet
  facet normal 0 0 -1
    outer loop
      vertex 0.480103 -0.0231171 -5
      vertex 0.160248 -0.00257874 -5
      vertex 5 5 -5
    endloop
  endfacet
  facet normal 0 0 -1
    outer loop
      vertex 0.797989 -0.0641022 -5
      vertex 0.480103 -0.0231171 -5
      vertex 5 5 -5
    endloop
  endfacet
  facet normal 0 0 -1
    outer loop
      vertex 1.11259 -0.125366 -5
      vertex 0.797989 -0.0641022 -5
      vertex 5 5 -5
    endloop
  endfacet
  facet normal 0 0 -1
    outer loop
      vertex 1.42262 -0.206665 -5
      vertex 1.11259 -0.125366 -5
      vertex 5 5 -5
    endloop
  endfacet
  facet normal 0 0 -1
    outer loop
      vertex 1.72682 -0.307663 -5
      vertex 1.42262 -0.206665 -5
      vertex 5 5 -5
    endloop
  endfacet
  facet normal 0 0 -1
    outer loop
      vertex 2.02391 -0.427948 -5
      vertex 1.72682 -0.307663 -5
      vertex 5 5 -5
    endloop
  endfacet
  facet normal 0 0 -1
    outer loop
      vertex 2.31268 -0.567017 -5
      vertex 2.02391 -0.427948 -5
      vertex 5 5 -5
    endloop
  endfacet
  facet normal 0 0 -1
    outer loop
      vertex 2.59195 -0.724289 -5
      vertex 2.31268 -0.567017 -5
      vertex 5 5 -5
    endloop
  endfacet
  facet normal 0 0 -1
    outer loop
      vertex 2.86058 -0.899139 -5
      vertex 2.59195 -0.724289 -5
      vertex 5 5 -5
    endloop
  endfacet
  facet normal 0 0 -1
    outer loop
      vertex 3.11745 -1.09085 -5
      vertex 2.86058 -0.899139 -5
      vertex 5 5 -5
    endloop
  endfacet
  facet normal 0 0 -1
    outer loop
      vertex 3.80722 -1.75887 -5
      vertex 3.59174 -1.52159 -5
      vertex 5 5 -5
    endloop
  endfacet
  facet normal 0 0 -1
    outer loop
      vertex 4.00706 -2.00946 -5
      vertex 3.80722 -1.75887 -5
      vertex 5 5 -5
    endloop
  endfacet
  facet normal 0 0 -1
    outer loop
      vertex 4.19043 -2.27234 -5
      vertex 4.00706 -2.00946 -5
      vertex 5 5 -5
    endloop
  endfacet
  facet normal 0 0 -1
    outer loop
      vertex 4.35658 -2.54642 -5
      vertex 4.19043 -2.27234 -5
      vertex 5 5 -5
    endloop
  endfacet
  facet normal 0 0 -1
    outer loop
      vertex 4.50484 -2.83058 -5
      vertex 4.35658 -2.54642 -5
      vertex 5 5 -5
    endloop
  endfacet
  facet normal 0 0 -1
    outer loop
      vertex 4.63458 -3.12367 -5
      vertex 4.50484 -2.83058 -5
      vertex 5 5 -5
    endloop
  endfacet
  facet normal 0 0 -1
    outer loop
      vertex 4.74527 -3.42447 -5
      vertex 4.63458 -3.12367 -5
      vertex 5 5 -5
    endloop
  endfacet
  facet normal 0 0 -1
    outer loop
      vertex 4.83647 -3.73174 -5
      vertex 4.74527 -3.42447 -5
      vertex 5 5 -5
    endloop
  endfacet
  facet normal 0 0 -1
    outer loop
      vertex 4.90779 -4.04422 -5
      vertex 4.83647 -3.73174 -5
      vertex 5 5 -5
    endloop
  endfacet
  facet normal 0 0 -1
    outer loop
      vertex 4.95894 -4.36063 -5
      vertex 4.90779 -4.04422 -5
      vertex 5 5 -5
    endloop
  endfacet
  facet normal 0 0 -1
    outer loop
      vertex 4.98972 -4.67966 -5
      vertex 4.95894 -4.36063 -5
      vertex 5 5 -5
    endloop
  endfacet
  facet normal 0 0 -1
    outer loop
      vertex 5 -5 -5
      vertex 4.98972 -4.67966 -5
      vertex 5 5 -5
    endloop
  endfacet
  facet normal 0 0 -1
    outer loop
      vertex 3.11745 -1.09085 -5
      vertex 5 5 -5
      vertex 3.3615 -1.29861 -5
    endloop
  endfacet
  facet normal -0 0 -1
    outer loop
      vertex -2.8606 -0.899139 -5
      vertex -3.11746 -1.09085 -5
      vertex -5 5 -5
    endloop
  endfacet
  facet normal -0 0 -1
    outer loop
      vertex -4.3566 -2.54642 -5
      vertex -4.46053 -2.74562 -5
      vertex -5 -1.66667 -5
    endloop
  endfacet
  facet normal 0 -0 -1
    outer loop
      vertex -4.46053 -2.74562 -5
      vertex -3.33334 -5 -5
      vertex -4.50485 -2.83058 -5
    endloop
  endfacet
  facet normal 0 -0 -1
    outer loop
      vertex -4.50485 -2.83058 -5
      vertex -3.33334 -5 -5
      vertex -4.6346 -3.12367 -5
    endloop
  endfacet
  facet normal 0 -0 -1
    outer loop
      vertex -4.6346 -3.12367 -5
      vertex -3.33334 -5 -5
      vertex -4.74529 -3.42447 -5
    endloop
  endfacet
  facet normal 0 -0 -1
    outer loop
      vertex -4.74529 -3.42447 -5
      vertex -3.33334 -5 -5
      vertex -4.83649 -3.73174 -5
    endloop
  endfacet
  facet normal 0 -0 -1
    outer loop
      vertex -4.83649 -3.73174 -5
      vertex -3.33334 -5 -5
      vertex -4.90781 -4.04422 -5
    endloop
  endfacet
  facet normal 0 -0 -1
    outer loop
      vertex -4.90781 -4.04422 -5
      vertex -3.33334 -5 -5
      vertex -4.95895 -4.36063 -5
    endloop
  endfacet
  facet normal 0 -0 -1
    outer loop
      vertex -4.95895 -4.36063 -5
      vertex -3.33334 -5 -5
      vertex -4.98973 -4.67966 -5
    endloop
  endfacet
  facet normal 0 -0 -1
    outer loop
      vertex -4.98973 -4.67966 -5
      vertex -3.33334 -5 -5
      vertex -5 -5 -5
    endloop
  endfacet
  facet normal -0 0 1
    outer loop
      vertex 3.3615 -1.29861 5
      vertex 3.59174 -1.52159 5
      vertex 5 5 5
    endloop
  endfacet
  facet normal 0 0 1
    outer loop
      vertex 3.33333 -5 5
      vertex 3.32648 -4.78644 5
      vertex 3.30595 -4.57375 5
    endloop
  endfacet
  facet normal 0 0 1
    outer loop
      vertex 3.2243 -4.1545 5
      vertex 3.00322 -3.55373 5
      vertex 2.90439 -3.36429 5
    endloop
  endfacet
  facet normal 0 0 1
    outer loop
      vertex 1.90704 -2.2661 5
      vertex 1.72797 -2.14954 5
      vertex 2.07829 -2.39391 5
    endloop
  endfacet
  facet normal 0 0 1
    outer loop
      vertex 3.16351 -3.94965 5
      vertex 3.08972 -3.74911 5
      vertex 3.00322 -3.55373 5
    endloop
  endfacet
  facet normal 0 0 1
    outer loop
      vertex 3.16351 -3.94965 5
      vertex 3.00322 -3.55373 5
      vertex 3.2243 -4.1545 5
    endloop
  endfacet
  facet normal 0 0 1
    outer loop
      vertex 2.39449 -2.68106 5
      vertex 2.07829 -2.39391 5
      vertex 2.53815 -2.83925 5
    endloop
  endfacet
  facet normal 0 0 1
    outer loop
      vertex 2.90439 -3.36429 5
      vertex 2.79362 -3.18156 5
      vertex 2.53815 -2.83925 5
    endloop
  endfacet
  facet normal 0 0 1
    outer loop
      vertex 2.79362 -3.18156 5
      vertex 2.67137 -3.0063 5
      vertex 2.53815 -2.83925 5
    endloop
  endfacet
  facet normal 0 0 1
    outer loop
      vertex 2.07829 -2.39391 5
      vertex 1.72797 -2.14954 5
      vertex 2.53815 -2.83925 5
    endloop
  endfacet
  facet normal 0 0 1
    outer loop
      vertex 1.72797 -2.14954 5
      vertex 2.90439 -3.36429 5
      vertex 2.53815 -2.83925 5
    endloop
  endfacet
  facet normal 0 0 1
    outer loop
      vertex 1.72797 -2.14954 5
      vertex 3.2243 -4.1545 5
      vertex 2.90439 -3.36429 5
    endloop
  endfacet
  facet normal 0 0 1
    outer loop
      vertex 2.241 -2.53241 5
      vertex 2.07829 -2.39391 5
      vertex 2.39449 -2.68106 5
    endloop
  endfacet
  facet normal 0 0 1
    outer loop
      vertex 0.320068 -1.68208 5
      vertex 3.2243 -4.1545 5
      vertex 1.72797 -2.14954 5
    endloop
  endfacet
  facet normal -0 0 1
    outer loop
      vertex -0.320084 -1.68208 5
      vertex -3.22432 -4.1545 5
      vertex 0.320068 -1.68208 5
    endloop
  endfacet
  facet normal 0 0 1
    outer loop
      vertex 1.72797 -2.14954 5
      vertex 1.34927 -1.95197 5
      vertex 1.15121 -1.87178 5
    endloop
  endfacet
  facet normal 0 0 1
    outer loop
      vertex 1.54179 -2.04468 5
      vertex 1.34927 -1.95197 5
      vertex 1.72797 -2.14954 5
    endloop
  endfacet
  facet normal 0 0 1
    outer loop
      vertex 0.320068 -1.68208 5
      vertex 1.15121 -1.87178 5
      vertex 0.94841 -1.80444 5
    endloop
  endfacet
  facet normal 0 0 1
    outer loop
      vertex 0.320068 -1.68208 5
      vertex 0.94841 -1.80444 5
      vertex 0.74173 -1.75024 5
    endloop
  endfacet
  facet normal 0 0 1
    outer loop
      vertex 1.72797 -2.14954 5
      vertex 1.15121 -1.87178 5
      vertex 0.320068 -1.68208 5
    endloop
  endfacet
  facet normal 0 0 1
    outer loop
      vertex 0.74173 -1.75024 5
      vertex 0.531998 -1.7094 5
      vertex 0.320068 -1.68208 5
    endloop
  endfacet
  facet normal 0 0 1
    outer loop
      vertex -3.22432 -4.1545 5
      vertex 3.2243 -4.1545 5
      vertex 0.320068 -1.68208 5
    endloop
  endfacet
  facet normal -0 0 1
    outer loop
      vertex -2.9044 -3.36429 5
      vertex -3.22432 -4.1545 5
      vertex -1.72798 -2.14954 5
    endloop
  endfacet
  facet normal 0 0 1
    outer loop
      vertex 0.106827 -1.66838 5
      vertex -0.106842 -1.66838 5
      vertex -0.320084 -1.68208 5
    endloop
  endfacet
  facet normal 0 0 1
    outer loop
      vertex 0.106827 -1.66838 5
      vertex -0.320084 -1.68208 5
      vertex 0.320068 -1.68208 5
    endloop
  endfacet
  facet normal 0 0 1
    outer loop
      vertex -0.320084 -1.68208 5
      vertex -0.948425 -1.80444 5
      vertex -1.15123 -1.87178 5
    endloop
  endfacet
  facet normal -0 0 1
    outer loop
      vertex -0.532013 -1.7094 5
      vertex -0.741745 -1.75024 5
      vertex -0.320084 -1.68208 5
    endloop
  endfacet
  facet normal -0 0 1
    outer loop
      vertex -0.741745 -1.75024 5
      vertex -0.948425 -1.80444 5
      vertex -0.320084 -1.68208 5
    endloop
  endfacet
  facet normal 0 0 1
    outer loop
      vertex -1.72798 -2.14954 5
      vertex -1.15123 -1.87178 5
      vertex -1.34929 -1.95197 5
    endloop
  endfacet
  facet normal 0 0 1
    outer loop
      vertex -1.72798 -2.14954 5
      vertex -1.34929 -1.95197 5
      vertex -1.54181 -2.04468 5
    endloop
  endfacet
  facet normal 0 0 1
    outer loop
      vertex -0.320084 -1.68208 5
      vertex -1.15123 -1.87178 5
      vertex -1.72798 -2.14954 5
    endloop
  endfacet
  facet normal 0 0 1
    outer loop
      vertex -3.22432 -4.1545 5
      vertex -0.320084 -1.68208 5
      vertex -1.72798 -2.14954 5
    endloop
  endfacet
  facet normal 0 0 1
    outer loop
      vertex -2.53816 -2.83925 5
      vertex -2.07831 -2.39391 5
      vertex -2.3945 -2.68106 5
    endloop
  endfacet
  facet normal -0 0 1
    outer loop
      vertex -1.90706 -2.2661 5
      vertex -2.07831 -2.39391 5
      vertex -1.72798 -2.14954 5
    endloop
  endfacet
  facet normal 0 0 1
    outer loop
      vertex -1.72798 -2.14954 5
      vertex -2.07831 -2.39391 5
      vertex -2.53816 -2.83925 5
    endloop
  endfacet
  facet normal -0 0 1
    outer loop
      vertex -2.24101 -2.53241 5
      vertex -2.3945 -2.68106 5
      vertex -2.07831 -2.39391 5
    endloop
  endfacet
  facet normal 0 0 1
    outer loop
      vertex -2.9044 -3.36429 5
      vertex -2.53816 -2.83925 5
      vertex -2.79364 -3.18156 5
    endloop
  endfacet
  facet normal 0 0 1
    outer loop
      vertex -2.53816 -2.83925 5
      vertex -2.67139 -3.0063 5
      vertex -2.79364 -3.18156 5
    endloop
  endfacet
  facet normal 0 0 1
    outer loop
      vertex -1.72798 -2.14954 5
      vertex -2.53816 -2.83925 5
      vertex -2.9044 -3.36429 5
    endloop
  endfacet
  facet normal 0 0 1
    outer loop
      vertex -3.27187 -4.36281 5
      vertex 3.2243 -4.1545 5
      vertex -3.22432 -4.1545 5
    endloop
  endfacet
  facet normal 0 0 1
    outer loop
      vertex -3.22432 -4.1545 5
      vertex -3.00323 -3.55373 5
      vertex -3.16353 -3.94965 5
    endloop
  endfacet
  facet normal 0 0 1
    outer loop
      vertex -2.9044 -3.36429 5
      vertex -3.00323 -3.55373 5
      vertex -3.22432 -4.1545 5
    endloop
  endfacet
  facet normal -0 0 1
    outer loop
      vertex -3.08974 -3.74911 5
      vertex -3.16353 -3.94965 5
      vertex -3.00323 -3.55373 5
    endloop
  endfacet
  facet normal 0 0 1
    outer loop
      vertex 3.27185 -4.36281 5
      vertex 3.2243 -4.1545 5
      vertex -3.27187 -4.36281 5
    endloop
  endfacet
  facet normal 0 0 1
    outer loop
      vertex 3.27185 -4.36281 5
      vertex -3.27187 -4.36281 5
      vertex -3.30597 -4.57375 5
    endloop
  endfacet
  facet normal 0 0 1
    outer loop
      vertex 3.27185 -4.36281 5
      vertex -3.30597 -4.57375 5
      vertex 3.30595 -4.57375 5
    endloop
  endfacet
  facet normal -0 0 1
    outer loop
      vertex -3.30597 -4.57375 5
      vertex -3.33334 -5 5
      vertex 3.30595 -4.57375 5
    endloop
  endfacet
  facet normal -0 0 1
    outer loop
      vertex -3.32649 -4.78644 5
      vertex -3.33334 -5 5
      vertex -3.30597 -4.57375 5
    endloop
  endfacet
  facet normal 0 0 1
    outer loop
      vertex -3.33334 -5 5
      vertex 3.33333 -5 5
      vertex 3.30595 -4.57375 5
    endloop
  endfacet
  facet normal 0 0 1
    outer loop
      vertex -4.19044 -2.27234 5
      vertex -5 -1.66667 5
      vertex -4.3566 -2.54642 5
    endloop
  endfacet
  facet normal 0 0 1
    outer loop
      vertex -4.00708 -2.00946 5
      vertex -5 -1.66667 5
      vertex -4.19044 -2.27234 5
    endloop
  endfacet
  facet normal 0 0 1
    outer loop
      vertex -3.80724 -1.75887 5
      vertex -5 -1.66667 5
      vertex -4.00708 -2.00946 5
    endloop
  endfacet
  facet normal 0 0 1
    outer loop
      vertex -3.59175 -1.52159 5
      vertex -5 -1.66667 5
      vertex -3.80724 -1.75887 5
    endloop
  endfacet
  facet normal 0 0 1
    outer loop
      vertex -3.36151 -1.29861 5
      vertex -5 -1.66667 5
      vertex -3.59175 -1.52159 5
    endloop
  endfacet
  facet normal 0 0 1
    outer loop
      vertex -3.11746 -1.09085 5
      vertex -5 -1.66667 5
      vertex -3.36151 -1.29861 5
    endloop
  endfacet
  facet normal 0 0 1
    outer loop
      vertex -5 5 5
      vertex -5 -1.66667 5
      vertex -3.11746 -1.09085 5
    endloop
  endfacet
  facet normal 0 0 1
    outer loop
      vertex -2.59196 -0.724289 5
      vertex -5 5 5
      vertex -2.8606 -0.899139 5
    endloop
  endfacet
  facet normal 0 0 1
    outer loop
      vertex -2.3127 -0.567017 5
      vertex -5 5 5
      vertex -2.59196 -0.724289 5
    endloop
  endfacet
  facet normal 0 0 1
    outer loop
      vertex -2.02393 -0.427948 5
      vertex -5 5 5
      vertex -2.3127 -0.567017 5
    endloop
  endfacet
  facet normal 0 0 1
    outer loop
      vertex -1.72684 -0.307663 5
      vertex -5 5 5
      vertex -2.02393 -0.427948 5
    endloop
  endfacet
  facet normal 0 0 1
    outer loop
      vertex -1.42264 -0.206665 5
      vertex -5 5 5
      vertex -1.72684 -0.307663 5
    endloop
  endfacet
  facet normal 0 0 1
    outer loop
      vertex -1.11261 -0.125366 5
      vertex -5 5 5
      vertex -1.42264 -0.206665 5
    endloop
  endfacet
  facet normal 0 0 1
    outer loop
      vertex -0.798004 -0.0641022 5
      vertex -5 5 5
      vertex -1.11261 -0.125366 5
    endloop
  endfacet
  facet normal 0 0 1
    outer loop
      vertex -0.480118 -0.0231171 5
      vertex -5 5 5
      vertex -0.798004 -0.0641022 5
    endloop
  endfacet
  facet normal 0 0 1
    outer loop
      vertex -0.160263 -0.00257874 5
      vertex -5 5 5
      vertex -0.480118 -0.0231171 5
    endloop
  endfacet
  facet normal 0 0 1
    outer loop
      vertex 0.160248 -0.00257874 5
      vertex -5 5 5
      vertex -0.160263 -0.00257874 5
    endloop
  endfacet
  facet normal 0 0 1
    outer loop
      vertex 5 5 5
      vertex -5 5 5
      vertex 0.160248 -0.00257874 5
    endloop
  endfacet
  facet normal 0 0 1
    outer loop
      vertex 5 5 5
      vertex 0.160248 -0.00257874 5
      vertex 0.480103 -0.0231171 5
    endloop
  endfacet
  facet normal 0 0 1
    outer loop
      vertex 5 5 5
      vertex 0.480103 -0.0231171 5
      vertex 0.797989 -0.0641022 5
    endloop
  endfacet
  facet normal 0 0 1
    outer loop
      vertex 5 5 5
      vertex 0.797989 -0.0641022 5
      vertex 1.11259 -0.125366 5
    endloop
  endfacet
  facet normal 0 0 1
    outer loop
      vertex 5 5 5
      vertex 1.11259 -0.125366 5
      vertex 1.42262 -0.206665 5
    endloop
  endfacet
  facet normal 0 0 1
    outer loop
      vertex 5 5 5
      vertex 1.42262 -0.206665 5
      vertex 1.72682 -0.307663 5
    endloop
  endfacet
  facet normal 0 0 1
    outer loop
      vertex 5 5 5
      vertex 1.72682 -0.307663 5
      vertex 2.02391 -0.427948 5
    endloop
  endfacet
  facet normal 0 0 1
    outer loop
      vertex 5 5 5
      vertex 2.02391 -0.427948 5
      vertex 2.31268 -0.567017 5
    endloop
  endfacet
  facet normal 0 0 1
    outer loop
      vertex 5 5 5
      vertex 2.31268 -0.567017 5
      vertex 2.59195 -0.724289 5
    endloop
  endfacet
  facet normal 0 0 1
    outer loop
      vertex 5 5 5
      vertex 2.59195 -0.724289 5
      vertex 2.86058 -0.899139 5
    endloop
  endfacet
  facet normal 0 0 1
    outer loop
      vertex 5 5 5
      vertex 2.86058 -0.899139 5
      vertex 3.11745 -1.09085 5
    endloop
  endfacet
  facet normal 0 0 1
    outer loop
      vertex 5 5 5
      vertex 3.59174 -1.52159 5
      vertex 3.80722 -1.75887 5
    endloop
  endfacet
  facet normal 0 0 1
    outer loop
      vertex 5 5 5
      vertex 3.80722 -1.75887 5
      vertex 4.00706 -2.00946 5
    endloop
  endfacet
  facet normal 0 0 1
    outer loop
      vertex 5 5 5
      vertex 4.00706 -2.00946 5
      vertex 4.19043 -2.27234 5
    endloop
  endfacet
  facet normal 0 0 1
    outer loop
      vertex 5 5 5
      vertex 4.19043 -2.27234 5
      vertex 4.35658 -2.54642 5
    endloop
  endfacet
  facet normal 0 0 1
    outer loop
      vertex 5 5 5
      vertex 4.35658 -2.54642 5
      vertex 4.50484 -2.83058 5
    endloop
  endfacet
  facet normal 0 0 1
    outer loop
      vertex 5 5 5
      vertex 4.50484 -2.83058 5
      vertex 4.63458 -3.12367 5
    endloop
  endfacet
  facet normal 0 0 1
    outer loop
      vertex 5 5 5
      vertex 4.63458 -3.12367 5
      vertex 4.74527 -3.42447 5
    endloop
  endfacet
  facet normal 0 0 1
    outer loop
      vertex 5 5 5
      vertex 4.74527 -3.42447 5
      vertex 4.83647 -3.73174 5
    endloop
  endfacet
  facet normal 0 0 1
    outer loop
      vertex 5 5 5
      vertex 4.83647 -3.73174 5
      vertex 4.90779 -4.04422 5
    endloop
  endfacet
  facet normal 0 0 1
    outer loop
      vertex 5 5 5
      vertex 4.90779 -4.04422 5
      vertex 4.95894 -4.36063 5
    endloop
  endfacet
  facet normal 0 0 1
    outer loop
      vertex 5 5 5
      vertex 4.95894 -4.36063 5
      vertex 4.98972 -4.67966 5
    endloop
  endfacet
  facet normal 0 0 1
    outer loop
      vertex 5 5 5
      vertex 4.98972 -4.67966 5
      vertex 5 -5 5
    endloop
  endfacet
  facet normal 0 -0 1
    outer loop
      vertex 3.3615 -1.29861 5
      vertex 5 5 5
      vertex 3.11745 -1.09085 5
    endloop
  endfacet
  facet normal 0 0 1
    outer loop
      vertex -5 5 5
      vertex -3.11746 -1.09085 5
      vertex -2.8606 -0.899139 5
    endloop
  endfacet
  facet normal 0 0 1
    outer loop
      vertex -5 -1.66667 5
      vertex -4.46053 -2.74562 5
      vertex -4.3566 -2.54642 5
    endloop
  endfacet
  facet normal -0 0 1
    outer loop
      vertex -4.50485 -2.83058 5
      vertex -3.33334 -5 5
      vertex -4.46053 -2.74562 5
    endloop
  endfacet
  facet normal -0 0 1
    outer loop
      vertex -4.6346 -3.12367 5
      vertex -3.33334 -5 5
      vertex -4.50485 -2.83058 5
    endloop
  endfacet
  facet normal -0 0 1
    outer loop
      vertex -4.74529 -3.42447 5
      vertex -3.33334 -5 5
      vertex -4.6346 -3.12367 5
    endloop
  endfacet
  facet normal -0 0 1
    outer loop
      vertex -4.83649 -3.73174 5
      vertex -3.33334 -5 5
      vertex -4.74529 -3.42447 5
    endloop
  endfacet
  facet normal -0 0 1
    outer loop
      vertex -4.90781 -4.04422 5
      vertex -3.33334 -5 5
      vertex -4.83649 -3.73174 5
    endloop
  endfacet
  facet normal -0 0 1
    outer loop
      vertex -4.95895 -4.36063 5
      vertex -3.33334 -5 5
      vertex -4.90781 -4.04422 5
    endloop
  endfacet
  facet normal -0 0 1
    outer loop
      vertex -4.98973 -4.67966 5
      vertex -3.33334 -5 5
      vertex -4.95895 -4.36063 5
    endloop
  endfacet
  facet normal 0 0 1
    outer loop
      vertex -5 -5 5
      vertex -3.33334 -5 5
      vertex -4.98973 -4.67966 5
    endloop
  endfacet
  facet normal 0.995374 0.0960789 0
    outer loop
      vertex 3.30595 -4.57375 -5
      vertex 3.32648 -4.78644 5
      vertex 3.32648 -4.78644 -5
    endloop
  endfacet
  facet normal 0.995374 0.0960789 -0
    outer loop
      vertex 3.30595 -4.57375 -5
      vertex 3.30595 -4.57375 5
      vertex 3.32648 -4.78644 5
    endloop
  endfacet
  facet normal 0.987184 0.159586 0
    outer loop
      vertex 3.27185 -4.36281 -5
      vertex 3.30595 -4.57375 5
      vertex 3.30595 -4.57375 -5
    endloop
  endfacet
  facet normal 0.987184 0.159586 -0
    outer loop
      vertex 3.27185 -4.36281 -5
      vertex 3.27185 -4.36281 5
      vertex 3.30595 -4.57375 5
    endloop
  endfacet
  facet normal 0.974923 0.222541 0
    outer loop
      vertex 3.2243 -4.1545 -5
      vertex 3.27185 -4.36281 5
      vertex 3.27185 -4.36281 -5
    endloop
  endfacet
  facet normal 0.974923 0.222541 -0
    outer loop
      vertex 3.2243 -4.1545 -5
      vertex 3.2243 -4.1545 5
      vertex 3.27185 -4.36281 5
    endloop
  endfacet
  facet normal 0.958679 0.284491 0
    outer loop
      vertex 3.16351 -3.94965 -5
      vertex 3.2243 -4.1545 5
      vertex 3.2243 -4.1545 -5
    endloop
  endfacet
  facet normal 0.958679 0.284491 -0
    outer loop
      vertex 3.16351 -3.94965 -5
      vertex 3.16351 -3.94965 5
      vertex 3.2243 -4.1545 5
    endloop
  endfacet
  facet normal 0.938484 0.345321 0
    outer loop
      vertex 3.08972 -3.74911 -5
      vertex 3.16351 -3.94965 5
      vertex 3.16351 -3.94965 -5
    endloop
  endfacet
  facet normal 0.938484 0.345321 -0
    outer loop
      vertex 3.08972 -3.74911 -5
      vertex 3.08972 -3.74911 5
      vertex 3.16351 -3.94965 5
    endloop
  endfacet
  facet normal 0.914393 0.404827 0
    outer loop
      vertex 3.00322 -3.55373 -5
      vertex 3.08972 -3.74911 5
      vertex 3.08972 -3.74911 -5
    endloop
  endfacet
  facet normal 0.914393 0.404827 -0
    outer loop
      vertex 3.00322 -3.55373 -5
      vertex 3.00322 -3.55373 5
      vertex 3.08972 -3.74911 5
    endloop
  endfacet
  facet normal 0.886601 0.462536 0
    outer loop
      vertex 2.90439 -3.36429 -5
      vertex 3.00322 -3.55373 5
      vertex 3.00322 -3.55373 -5
    endloop
  endfacet
  facet normal 0.886601 0.462536 -0
    outer loop
      vertex 2.90439 -3.36429 -5
      vertex 2.90439 -3.36429 5
      vertex 3.00322 -3.55373 5
    endloop
  endfacet
  facet normal 0.855147 0.518386 0
    outer loop
      vertex 2.79362 -3.18156 -5
      vertex 2.90439 -3.36429 5
      vertex 2.90439 -3.36429 -5
    endloop
  endfacet
  facet normal 0.855147 0.518386 -0
    outer loop
      vertex 2.79362 -3.18156 -5
      vertex 2.79362 -3.18156 5
      vertex 2.90439 -3.36429 5
    endloop
  endfacet
  facet normal 0.820181 0.572105 0
    outer loop
      vertex 2.67137 -3.0063 -5
      vertex 2.79362 -3.18156 5
      vertex 2.79362 -3.18156 -5
    endloop
  endfacet
  facet normal 0.820181 0.572105 -0
    outer loop
      vertex 2.67137 -3.0063 -5
      vertex 2.67137 -3.0063 5
      vertex 2.79362 -3.18156 5
    endloop
  endfacet
  facet normal 0.781827 0.623496 0
    outer loop
      vertex 2.53815 -2.83925 -5
      vertex 2.67137 -3.0063 5
      vertex 2.67137 -3.0063 -5
    endloop
  endfacet
  facet normal 0.781827 0.623496 -0
    outer loop
      vertex 2.53815 -2.83925 -5
      vertex 2.53815 -2.83925 5
      vertex 2.67137 -3.0063 5
    endloop
  endfacet
  facet normal 0.740287 0.672291 0
    outer loop
      vertex 2.39449 -2.68106 -5
      vertex 2.53815 -2.83925 5
      vertex 2.53815 -2.83925 -5
    endloop
  endfacet
  facet normal 0.740287 0.672291 -0
    outer loop
      vertex 2.39449 -2.68106 -5
      vertex 2.39449 -2.68106 5
      vertex 2.53815 -2.83925 5
    endloop
  endfacet
  facet normal 0.69569 0.718342 0
    outer loop
      vertex 2.241 -2.53241 -5
      vertex 2.39449 -2.68106 5
      vertex 2.39449 -2.68106 -5
    endloop
  endfacet
  facet normal 0.69569 0.718342 -0
    outer loop
      vertex 2.241 -2.53241 -5
      vertex 2.241 -2.53241 5
      vertex 2.39449 -2.68106 5
    endloop
  endfacet
  facet normal 0.648182 0.761485 0
    outer loop
      vertex 2.07829 -2.39391 -5
      vertex 2.241 -2.53241 5
      vertex 2.241 -2.53241 -5
    endloop
  endfacet
  facet normal 0.648182 0.761485 -0
    outer loop
      vertex 2.07829 -2.39391 -5
      vertex 2.07829 -2.39391 5
      vertex 2.241 -2.53241 5
    endloop
  endfacet
  facet normal 0.598119 0.801407 0
    outer loop
      vertex 1.90704 -2.2661 -5
      vertex 2.07829 -2.39391 5
      vertex 2.07829 -2.39391 -5
    endloop
  endfacet
  facet normal 0.598119 0.801407 -0
    outer loop
      vertex 1.90704 -2.2661 -5
      vertex 1.90704 -2.2661 5
      vertex 2.07829 -2.39391 5
    endloop
  endfacet
  facet normal 0.545529 0.838092 0
    outer loop
      vertex 1.72797 -2.14954 -5
      vertex 1.90704 -2.2661 5
      vertex 1.90704 -2.2661 -5
    endloop
  endfacet
  facet normal 0.545529 0.838092 -0
    outer loop
      vertex 1.72797 -2.14954 -5
      vertex 1.72797 -2.14954 5
      vertex 1.90704 -2.2661 5
    endloop
  endfacet
  facet normal 0.490737 0.871308 0
    outer loop
      vertex 1.54179 -2.04468 -5
      vertex 1.72797 -2.14954 5
      vertex 1.72797 -2.14954 -5
    endloop
  endfacet
  facet normal 0.490737 0.871308 -0
    outer loop
      vertex 1.54179 -2.04468 -5
      vertex 1.54179 -2.04468 5
      vertex 1.72797 -2.14954 5
    endloop
  endfacet
  facet normal 0.433873 0.900974 0
    outer loop
      vertex 1.34927 -1.95197 -5
      vertex 1.54179 -2.04468 5
      vertex 1.54179 -2.04468 -5
    endloop
  endfacet
  facet normal 0.433873 0.900974 -0
    outer loop
      vertex 1.34927 -1.95197 -5
      vertex 1.34927 -1.95197 5
      vertex 1.54179 -2.04468 5
    endloop
  endfacet
  facet normal 0.375285 0.92691 0
    outer loop
      vertex 1.15121 -1.87178 -5
      vertex 1.34927 -1.95197 5
      vertex 1.34927 -1.95197 -5
    endloop
  endfacet
  facet normal 0.375285 0.92691 -0
    outer loop
      vertex 1.15121 -1.87178 -5
      vertex 1.15121 -1.87178 5
      vertex 1.34927 -1.95197 5
    endloop
  endfacet
  facet normal 0.315133 0.949048 0
    outer loop
      vertex 0.94841 -1.80444 -5
      vertex 1.15121 -1.87178 5
      vertex 1.15121 -1.87178 -5
    endloop
  endfacet
  facet normal 0.315133 0.949048 -0
    outer loop
      vertex 0.94841 -1.80444 -5
      vertex 0.94841 -1.80444 5
      vertex 1.15121 -1.87178 5
    endloop
  endfacet
  facet normal 0.253664 0.967292 0
    outer loop
      vertex 0.74173 -1.75024 -5
      vertex 0.94841 -1.80444 5
      vertex 0.94841 -1.80444 -5
    endloop
  endfacet
  facet normal 0.253664 0.967292 -0
    outer loop
      vertex 0.74173 -1.75024 -5
      vertex 0.74173 -1.75024 5
      vertex 0.94841 -1.80444 5
    endloop
  endfacet
  facet normal 0.191135 0.981564 0
    outer loop
      vertex 0.531998 -1.7094 -5
      vertex 0.74173 -1.75024 5
      vertex 0.74173 -1.75024 -5
    endloop
  endfacet
  facet normal 0.191135 0.981564 -0
    outer loop
      vertex 0.531998 -1.7094 -5
      vertex 0.531998 -1.7094 5
      vertex 0.74173 -1.75024 5
    endloop
  endfacet
  facet normal 0.127853 0.991793 0
    outer loop
      vertex 0.320068 -1.68208 -5
      vertex 0.531998 -1.7094 5
      vertex 0.531998 -1.7094 -5
    endloop
  endfacet
  facet normal 0.127853 0.991793 -0
    outer loop
      vertex 0.320068 -1.68208 -5
      vertex 0.320068 -1.68208 5
      vertex 0.531998 -1.7094 5
    endloop
  endfacet
  facet normal 0.0641144 0.997943 0
    outer loop
      vertex 0.106827 -1.66838 -5
      vertex 0.320068 -1.68208 5
      vertex 0.320068 -1.68208 -5
    endloop
  endfacet
  facet normal 0.0641144 0.997943 -0
    outer loop
      vertex 0.106827 -1.66838 -5
      vertex 0.106827 -1.66838 5
      vertex 0.320068 -1.68208 5
    endloop
  endfacet
  facet normal 0 1 0
    outer loop
      vertex -0.106842 -1.66838 -5
      vertex 0.106827 -1.66838 5
      vertex 0.106827 -1.66838 -5
    endloop
  endfacet
  facet normal 0 1 0
    outer loop
      vertex -0.106842 -1.66838 -5
      vertex -0.106842 -1.66838 5
      vertex 0.106827 -1.66838 5
    endloop
  endfacet
  facet normal -0.0641141 0.997943 0
    outer loop
      vertex -0.320084 -1.68208 -5
      vertex -0.106842 -1.66838 5
      vertex -0.106842 -1.66838 -5
    endloop
  endfacet
  facet normal -0.0641141 0.997943 0
    outer loop
      vertex -0.320084 -1.68208 -5
      vertex -0.320084 -1.68208 5
      vertex -0.106842 -1.66838 5
    endloop
  endfacet
  facet normal -0.127853 0.991793 0
    outer loop
      vertex -0.532013 -1.7094 -5
      vertex -0.320084 -1.68208 5
      vertex -0.320084 -1.68208 -5
    endloop
  endfacet
  facet normal -0.127853 0.991793 0
    outer loop
      vertex -0.532013 -1.7094 -5
      vertex -0.532013 -1.7094 5
      vertex -0.320084 -1.68208 5
    endloop
  endfacet
  facet normal -0.191135 0.981564 0
    outer loop
      vertex -0.741745 -1.75024 -5
      vertex -0.532013 -1.7094 5
      vertex -0.532013 -1.7094 -5
    endloop
  endfacet
  facet normal -0.191135 0.981564 0
    outer loop
      vertex -0.741745 -1.75024 -5
      vertex -0.741745 -1.75024 5
      vertex -0.532013 -1.7094 5
    endloop
  endfacet
  facet normal -0.253664 0.967292 0
    outer loop
      vertex -0.948425 -1.80444 -5
      vertex -0.741745 -1.75024 5
      vertex -0.741745 -1.75024 -5
    endloop
  endfacet
  facet normal -0.253664 0.967292 0
    outer loop
      vertex -0.948425 -1.80444 -5
      vertex -0.948425 -1.80444 5
      vertex -0.741745 -1.75024 5
    endloop
  endfacet
  facet normal -0.315126 0.94905 0
    outer loop
      vertex -1.15123 -1.87178 -5
      vertex -0.948425 -1.80444 5
      vertex -0.948425 -1.80444 -5
    endloop
  endfacet
  facet normal -0.315126 0.94905 0
    outer loop
      vertex -1.15123 -1.87178 -5
      vertex -1.15123 -1.87178 5
      vertex -0.948425 -1.80444 5
    endloop
  endfacet
  facet normal -0.375285 0.92691 0
    outer loop
      vertex -1.34929 -1.95197 -5
      vertex -1.15123 -1.87178 5
      vertex -1.15123 -1.87178 -5
    endloop
  endfacet
  facet normal -0.375285 0.92691 0
    outer loop
      vertex -1.34929 -1.95197 -5
      vertex -1.34929 -1.95197 5
      vertex -1.15123 -1.87178 5
    endloop
  endfacet
  facet normal -0.433873 0.900974 0
    outer loop
      vertex -1.54181 -2.04468 -5
      vertex -1.34929 -1.95197 5
      vertex -1.34929 -1.95197 -5
    endloop
  endfacet
  facet normal -0.433873 0.900974 0
    outer loop
      vertex -1.54181 -2.04468 -5
      vertex -1.54181 -2.04468 5
      vertex -1.34929 -1.95197 5
    endloop
  endfacet
  facet normal -0.490757 0.871297 0
    outer loop
      vertex -1.72798 -2.14954 -5
      vertex -1.54181 -2.04468 5
      vertex -1.54181 -2.04468 -5
    endloop
  endfacet
  facet normal -0.490757 0.871297 0
    outer loop
      vertex -1.72798 -2.14954 -5
      vertex -1.72798 -2.14954 5
      vertex -1.54181 -2.04468 5
    endloop
  endfacet
  facet normal -0.545508 0.838106 0
    outer loop
      vertex -1.90706 -2.2661 -5
      vertex -1.72798 -2.14954 5
      vertex -1.72798 -2.14954 -5
    endloop
  endfacet
  facet normal -0.545508 0.838106 0
    outer loop
      vertex -1.90706 -2.2661 -5
      vertex -1.90706 -2.2661 5
      vertex -1.72798 -2.14954 5
    endloop
  endfacet
  facet normal -0.598119 0.801407 0
    outer loop
      vertex -2.07831 -2.39391 -5
      vertex -1.90706 -2.2661 5
      vertex -1.90706 -2.2661 -5
    endloop
  endfacet
  facet normal -0.598119 0.801407 0
    outer loop
      vertex -2.07831 -2.39391 -5
      vertex -2.07831 -2.39391 5
      vertex -1.90706 -2.2661 5
    endloop
  endfacet
  facet normal -0.648205 0.761466 0
    outer loop
      vertex -2.24101 -2.53241 -5
      vertex -2.07831 -2.39391 5
      vertex -2.07831 -2.39391 -5
    endloop
  endfacet
  facet normal -0.648205 0.761466 0
    outer loop
      vertex -2.24101 -2.53241 -5
      vertex -2.24101 -2.53241 5
      vertex -2.07831 -2.39391 5
    endloop
  endfacet
  facet normal -0.69569 0.718342 0
    outer loop
      vertex -2.3945 -2.68106 -5
      vertex -2.24101 -2.53241 5
      vertex -2.24101 -2.53241 -5
    endloop
  endfacet
  facet normal -0.69569 0.718342 0
    outer loop
      vertex -2.3945 -2.68106 -5
      vertex -2.3945 -2.68106 5
      vertex -2.24101 -2.53241 5
    endloop
  endfacet
  facet normal -0.740287 0.672291 0
    outer loop
      vertex -2.53816 -2.83925 -5
      vertex -2.3945 -2.68106 5
      vertex -2.3945 -2.68106 -5
    endloop
  endfacet
  facet normal -0.740287 0.672291 0
    outer loop
      vertex -2.53816 -2.83925 -5
      vertex -2.53816 -2.83925 5
      vertex -2.3945 -2.68106 5
    endloop
  endfacet
  facet normal -0.781804 0.623524 0
    outer loop
      vertex -2.67139 -3.0063 -5
      vertex -2.53816 -2.83925 5
      vertex -2.53816 -2.83925 -5
    endloop
  endfacet
  facet normal -0.781804 0.623524 0
    outer loop
      vertex -2.67139 -3.0063 -5
      vertex -2.67139 -3.0063 5
      vertex -2.53816 -2.83925 5
    endloop
  endfacet
  facet normal -0.820181 0.572105 0
    outer loop
      vertex -2.79364 -3.18156 -5
      vertex -2.67139 -3.0063 5
      vertex -2.67139 -3.0063 -5
    endloop
  endfacet
  facet normal -0.820181 0.572105 0
    outer loop
      vertex -2.79364 -3.18156 -5
      vertex -2.79364 -3.18156 5
      vertex -2.67139 -3.0063 5
    endloop
  endfacet
  facet normal -0.855168 0.518352 0
    outer loop
      vertex -2.9044 -3.36429 -5
      vertex -2.79364 -3.18156 5
      vertex -2.79364 -3.18156 -5
    endloop
  endfacet
  facet normal -0.855168 0.518352 0
    outer loop
      vertex -2.9044 -3.36429 -5
      vertex -2.9044 -3.36429 5
      vertex -2.79364 -3.18156 5
    endloop
  endfacet
  facet normal -0.886601 0.462536 0
    outer loop
      vertex -3.00323 -3.55373 -5
      vertex -2.9044 -3.36429 5
      vertex -2.9044 -3.36429 -5
    endloop
  endfacet
  facet normal -0.886601 0.462536 0
    outer loop
      vertex -3.00323 -3.55373 -5
      vertex -3.00323 -3.55373 5
      vertex -2.9044 -3.36429 5
    endloop
  endfacet
  facet normal -0.914376 0.404866 0
    outer loop
      vertex -3.08974 -3.74911 -5
      vertex -3.00323 -3.55373 5
      vertex -3.00323 -3.55373 -5
    endloop
  endfacet
  facet normal -0.914376 0.404866 0
    outer loop
      vertex -3.08974 -3.74911 -5
      vertex -3.08974 -3.74911 5
      vertex -3.00323 -3.55373 5
    endloop
  endfacet
  facet normal -0.938484 0.345321 0
    outer loop
      vertex -3.16353 -3.94965 -5
      vertex -3.08974 -3.74911 5
      vertex -3.08974 -3.74911 -5
    endloop
  endfacet
  facet normal -0.938484 0.345321 0
    outer loop
      vertex -3.16353 -3.94965 -5
      vertex -3.16353 -3.94965 5
      vertex -3.08974 -3.74911 5
    endloop
  endfacet
  facet normal -0.958679 0.284491 0
    outer loop
      vertex -3.22432 -4.1545 -5
      vertex -3.16353 -3.94965 5
      vertex -3.16353 -3.94965 -5
    endloop
  endfacet
  facet normal -0.958679 0.284491 0
    outer loop
      vertex -3.22432 -4.1545 -5
      vertex -3.22432 -4.1545 5
      vertex -3.16353 -3.94965 5
    endloop
  endfacet
  facet normal -0.974923 0.222541 0
    outer loop
      vertex -3.27187 -4.36281 -5
      vertex -3.22432 -4.1545 5
      vertex -3.22432 -4.1545 -5
    endloop
  endfacet
  facet normal -0.974923 0.222541 0
    outer loop
      vertex -3.27187 -4.36281 -5
      vertex -3.27187 -4.36281 5
      vertex -3.22432 -4.1545 5
    endloop
  endfacet
  facet normal -0.987184 0.159586 0
    outer loop
      vertex -3.30597 -4.57375 -5
      vertex -3.27187 -4.36281 5
      vertex -3.27187 -4.36281 -5
    endloop
  endfacet
  facet normal -0.987184 0.159586 0
    outer loop
      vertex -3.30597 -4.57375 -5
      vertex -3.30597 -4.57375 5
      vertex -3.27187 -4.36281 5
    endloop
  endfacet
  facet normal -0.995378 0.0960325 0
    outer loop
      vertex -3.32649 -4.78644 -5
      vertex -3.30597 -4.57375 5
      vertex -3.30597 -4.57375 -5
    endloop
  endfacet
  facet normal -0.995378 0.0960325 0
    outer loop
      vertex -3.32649 -4.78644 -5
      vertex -3.32649 -4.78644 5
      vertex -3.30597 -4.57375 5
    endloop
  endfacet
  facet normal -0.999486 0.0320588 0
    outer loop
      vertex -3.33334 -5 -5
      vertex -3.32649 -4.78644 5
      vertex -3.32649 -4.78644 -5
    endloop
  endfacet
  facet normal -0.999486 0.0320588 0
    outer loop
      vertex -3.33334 -5 -5
      vertex -3.33334 -5 5
      vertex -3.32649 -4.78644 5
    endloop
  endfacet
  facet normal 0.894427 0.447214 0
    outer loop
      vertex -4.46053 -2.74562 -5
      vertex -3.33334 -5 5
      vertex -3.33334 -5 -5
    endloop
  endfacet
  facet normal 0.894427 0.447214 -0
    outer loop
      vertex -4.46053 -2.74562 -5
      vertex -4.46053 -2.74562 5
      vertex -3.33334 -5 5
    endloop
  endfacet
  facet normal 0.886586 -0.462564 0
    outer loop
      vertex -4.3566 -2.54642 -5
      vertex -4.46053 -2.74562 5
      vertex -4.46053 -2.74562 -5
    endloop
  endfacet
  facet normal 0.886586 -0.462564 0
    outer loop
      vertex -4.3566 -2.54642 -5
      vertex -4.3566 -2.54642 5
      vertex -4.46053 -2.74562 5
    endloop
  endfacet
  facet normal 0.855127 -0.518418 0
    outer loop
      vertex -4.19044 -2.27234 -5
      vertex -4.3566 -2.54642 5
      vertex -4.3566 -2.54642 -5
    endloop
  endfacet
  facet normal 0.855127 -0.518418 0
    outer loop
      vertex -4.19044 -2.27234 -5
      vertex -4.19044 -2.27234 5
      vertex -4.3566 -2.54642 5
    endloop
  endfacet
  facet normal 0.820192 -0.572088 0
    outer loop
      vertex -4.00708 -2.00946 -5
      vertex -4.19044 -2.27234 5
      vertex -4.19044 -2.27234 -5
    endloop
  endfacet
  facet normal 0.820192 -0.572088 0
    outer loop
      vertex -4.00708 -2.00946 -5
      vertex -4.00708 -2.00946 5
      vertex -4.19044 -2.27234 5
    endloop
  endfacet
  facet normal 0.78183 -0.623492 0
    outer loop
      vertex -3.80724 -1.75887 -5
      vertex -4.00708 -2.00946 5
      vertex -4.00708 -2.00946 -5
    endloop
  endfacet
  facet normal 0.78183 -0.623492 0
    outer loop
      vertex -3.80724 -1.75887 -5
      vertex -3.80724 -1.75887 5
      vertex -4.00708 -2.00946 5
    endloop
  endfacet
  facet normal 0.74028 -0.672298 0
    outer loop
      vertex -3.59175 -1.52159 -5
      vertex -3.80724 -1.75887 5
      vertex -3.80724 -1.75887 -5
    endloop
  endfacet
  facet normal 0.74028 -0.672298 0
    outer loop
      vertex -3.59175 -1.52159 -5
      vertex -3.59175 -1.52159 5
      vertex -3.80724 -1.75887 5
    endloop
  endfacet
  facet normal 0.695691 -0.718342 0
    outer loop
      vertex -3.36151 -1.29861 -5
      vertex -3.59175 -1.52159 5
      vertex -3.59175 -1.52159 -5
    endloop
  endfacet
  facet normal 0.695691 -0.718342 0
    outer loop
      vertex -3.36151 -1.29861 -5
      vertex -3.36151 -1.29861 5
      vertex -3.59175 -1.52159 5
    endloop
  endfacet
  facet normal 0.648223 -0.76145 0
    outer loop
      vertex -3.11746 -1.09085 -5
      vertex -3.36151 -1.29861 5
      vertex -3.36151 -1.29861 -5
    endloop
  endfacet
  facet normal 0.648223 -0.76145 0
    outer loop
      vertex -3.11746 -1.09085 -5
      vertex -3.11746 -1.09085 5
      vertex -3.36151 -1.29861 5
    endloop
  endfacet
  facet normal 0.598133 -0.801397 0
    outer loop
      vertex -2.8606 -0.899139 -5
      vertex -3.11746 -1.09085 5
      vertex -3.11746 -1.09085 -5
    endloop
  endfacet
  facet normal 0.598133 -0.801397 0
    outer loop
      vertex -2.8606 -0.899139 -5
      vertex -2.8606 -0.899139 5
      vertex -3.11746 -1.09085 5
    endloop
  endfacet
  facet normal 0.545501 -0.83811 0
    outer loop
      vertex -2.59196 -0.724289 -5
      vertex -2.8606 -0.899139 5
      vertex -2.8606 -0.899139 -5
    endloop
  endfacet
  facet normal 0.545501 -0.83811 0
    outer loop
      vertex -2.59196 -0.724289 -5
      vertex -2.59196 -0.724289 5
      vertex -2.8606 -0.899139 5
    endloop
  endfacet
  facet normal 0.490707 -0.871324 0
    outer loop
      vertex -2.3127 -0.567017 -5
      vertex -2.59196 -0.724289 5
      vertex -2.59196 -0.724289 -5
    endloop
  endfacet
  facet normal 0.490707 -0.871324 0
    outer loop
      vertex -2.3127 -0.567017 -5
      vertex -2.3127 -0.567017 5
      vertex -2.59196 -0.724289 5
    endloop
  endfacet
  facet normal 0.433896 -0.900963 0
    outer loop
      vertex -2.02393 -0.427948 -5
      vertex -2.3127 -0.567017 5
      vertex -2.3127 -0.567017 -5
    endloop
  endfacet
  facet normal 0.433896 -0.900963 0
    outer loop
      vertex -2.02393 -0.427948 -5
      vertex -2.02393 -0.427948 5
      vertex -2.3127 -0.567017 5
    endloop
  endfacet
  facet normal 0.375285 -0.92691 0
    outer loop
      vertex -1.72684 -0.307663 -5
      vertex -2.02393 -0.427948 5
      vertex -2.02393 -0.427948 -5
    endloop
  endfacet
  facet normal 0.375285 -0.92691 0
    outer loop
      vertex -1.72684 -0.307663 -5
      vertex -1.72684 -0.307663 5
      vertex -2.02393 -0.427948 5
    endloop
  endfacet
  facet normal 0.315099 -0.949059 0
    outer loop
      vertex -1.42264 -0.206665 -5
      vertex -1.72684 -0.307663 5
      vertex -1.72684 -0.307663 -5
    endloop
  endfacet
  facet normal 0.315099 -0.949059 0
    outer loop
      vertex -1.42264 -0.206665 -5
      vertex -1.42264 -0.206665 5
      vertex -1.72684 -0.307663 5
    endloop
  endfacet
  facet normal 0.253653 -0.967295 0
    outer loop
      vertex -1.11261 -0.125366 -5
      vertex -1.42264 -0.206665 5
      vertex -1.42264 -0.206665 -5
    endloop
  endfacet
  facet normal 0.253653 -0.967295 0
    outer loop
      vertex -1.11261 -0.125366 -5
      vertex -1.11261 -0.125366 5
      vertex -1.42264 -0.206665 5
    endloop
  endfacet
  facet normal 0.191141 -0.981563 0
    outer loop
      vertex -0.798004 -0.0641022 -5
      vertex -1.11261 -0.125366 5
      vertex -1.11261 -0.125366 -5
    endloop
  endfacet
  facet normal 0.191141 -0.981563 0
    outer loop
      vertex -0.798004 -0.0641022 -5
      vertex -0.798004 -0.0641022 5
      vertex -1.11261 -0.125366 5
    endloop
  endfacet
  facet normal 0.127872 -0.991791 0
    outer loop
      vertex -0.480118 -0.0231171 -5
      vertex -0.798004 -0.0641022 5
      vertex -0.798004 -0.0641022 -5
    endloop
  endfacet
  facet normal 0.127872 -0.991791 0
    outer loop
      vertex -0.480118 -0.0231171 -5
      vertex -0.480118 -0.0231171 5
      vertex -0.798004 -0.0641022 5
    endloop
  endfacet
  facet normal 0.0640795 -0.997945 0
    outer loop
      vertex -0.160263 -0.00257874 -5
      vertex -0.480118 -0.0231171 5
      vertex -0.480118 -0.0231171 -5
    endloop
  endfacet
  facet normal 0.0640795 -0.997945 0
    outer loop
      vertex -0.160263 -0.00257874 -5
      vertex -0.160263 -0.00257874 5
      vertex -0.480118 -0.0231171 5
    endloop
  endfacet
  facet normal 0 -1 0
    outer loop
      vertex 0.160248 -0.00257874 -5
      vertex -0.160263 -0.00257874 5
      vertex -0.160263 -0.00257874 -5
    endloop
  endfacet
  facet normal 0 -1 0
    outer loop
      vertex 0.160248 -0.00257874 -5
      vertex 0.160248 -0.00257874 5
      vertex -0.160263 -0.00257874 5
    endloop
  endfacet
  facet normal -0.0640795 -0.997945 0
    outer loop
      vertex 0.480103 -0.0231171 -5
      vertex 0.160248 -0.00257874 5
      vertex 0.160248 -0.00257874 -5
    endloop
  endfacet
  facet normal -0.0640795 -0.997945 0
    outer loop
      vertex 0.480103 -0.0231171 -5
      vertex 0.480103 -0.0231171 5
      vertex 0.160248 -0.00257874 5
    endloop
  endfacet
  facet normal -0.127872 -0.991791 0
    outer loop
      vertex 0.797989 -0.0641022 -5
      vertex 0.480103 -0.0231171 5
      vertex 0.480103 -0.0231171 -5
    endloop
  endfacet
  facet normal -0.127872 -0.991791 0
    outer loop
      vertex 0.797989 -0.0641022 -5
      vertex 0.797989 -0.0641022 5
      vertex 0.480103 -0.0231171 5
    endloop
  endfacet
  facet normal -0.191144 -0.981562 0
    outer loop
      vertex 1.11259 -0.125366 -5
      vertex 0.797989 -0.0641022 5
      vertex 0.797989 -0.0641022 -5
    endloop
  endfacet
  facet normal -0.191144 -0.981562 0
    outer loop
      vertex 1.11259 -0.125366 -5
      vertex 1.11259 -0.125366 5
      vertex 0.797989 -0.0641022 5
    endloop
  endfacet
  facet normal -0.253653 -0.967295 0
    outer loop
      vertex 1.42262 -0.206665 -5
      vertex 1.11259 -0.125366 5
      vertex 1.11259 -0.125366 -5
    endloop
  endfacet
  facet normal -0.253653 -0.967295 0
    outer loop
      vertex 1.42262 -0.206665 -5
      vertex 1.42262 -0.206665 5
      vertex 1.11259 -0.125366 5
    endloop
  endfacet
  facet normal -0.315099 -0.949059 0
    outer loop
      vertex 1.72682 -0.307663 -5
      vertex 1.42262 -0.206665 5
      vertex 1.42262 -0.206665 -5
    endloop
  endfacet
  facet normal -0.315099 -0.949059 0
    outer loop
      vertex 1.72682 -0.307663 -5
      vertex 1.72682 -0.307663 5
      vertex 1.42262 -0.206665 5
    endloop
  endfacet
  facet normal -0.375285 -0.92691 0
    outer loop
      vertex 2.02391 -0.427948 -5
      vertex 1.72682 -0.307663 5
      vertex 1.72682 -0.307663 -5
    endloop
  endfacet
  facet normal -0.375285 -0.92691 0
    outer loop
      vertex 2.02391 -0.427948 -5
      vertex 2.02391 -0.427948 5
      vertex 1.72682 -0.307663 5
    endloop
  endfacet
  facet normal -0.433896 -0.900963 0
    outer loop
      vertex 2.31268 -0.567017 -5
      vertex 2.02391 -0.427948 5
      vertex 2.02391 -0.427948 -5
    endloop
  endfacet
  facet normal -0.433896 -0.900963 0
    outer loop
      vertex 2.31268 -0.567017 -5
      vertex 2.31268 -0.567017 5
      vertex 2.02391 -0.427948 5
    endloop
  endfacet
  facet normal -0.490694 -0.871332 0
    outer loop
      vertex 2.59195 -0.724289 -5
      vertex 2.31268 -0.567017 5
      vertex 2.31268 -0.567017 -5
    endloop
  endfacet
  facet normal -0.490694 -0.871332 0
    outer loop
      vertex 2.59195 -0.724289 -5
      vertex 2.59195 -0.724289 5
      vertex 2.31268 -0.567017 5
    endloop
  endfacet
  facet normal -0.545516 -0.838101 0
    outer loop
      vertex 2.86058 -0.899139 -5
      vertex 2.59195 -0.724289 5
      vertex 2.59195 -0.724289 -5
    endloop
  endfacet
  facet normal -0.545516 -0.838101 0
    outer loop
      vertex 2.86058 -0.899139 -5
      vertex 2.86058 -0.899139 5
      vertex 2.59195 -0.724289 5
    endloop
  endfacet
  facet normal -0.598118 -0.801408 0
    outer loop
      vertex 3.11745 -1.09085 -5
      vertex 2.86058 -0.899139 5
      vertex 2.86058 -0.899139 -5
    endloop
  endfacet
  facet normal -0.598118 -0.801408 0
    outer loop
      vertex 3.11745 -1.09085 -5
      vertex 3.11745 -1.09085 5
      vertex 2.86058 -0.899139 5
    endloop
  endfacet
  facet normal -0.648223 -0.76145 0
    outer loop
      vertex 3.3615 -1.29861 -5
      vertex 3.11745 -1.09085 5
      vertex 3.11745 -1.09085 -5
    endloop
  endfacet
  facet normal -0.648223 -0.76145 0
    outer loop
      vertex 3.3615 -1.29861 -5
      vertex 3.3615 -1.29861 5
      vertex 3.11745 -1.09085 5
    endloop
  endfacet
  facet normal -0.695691 -0.718342 0
    outer loop
      vertex 3.59174 -1.52159 -5
      vertex 3.3615 -1.29861 5
      vertex 3.3615 -1.29861 -5
    endloop
  endfacet
  facet normal -0.695691 -0.718342 0
    outer loop
      vertex 3.59174 -1.52159 -5
      vertex 3.59174 -1.52159 5
      vertex 3.3615 -1.29861 5
    endloop
  endfacet
  facet normal -0.740296 -0.672281 0
    outer loop
      vertex 3.80722 -1.75887 -5
      vertex 3.59174 -1.52159 5
      vertex 3.59174 -1.52159 -5
    endloop
  endfacet
  facet normal -0.740296 -0.672281 0
    outer loop
      vertex 3.80722 -1.75887 -5
      vertex 3.80722 -1.75887 5
      vertex 3.59174 -1.52159 5
    endloop
  endfacet
  facet normal -0.78183 -0.623492 0
    outer loop
      vertex 4.00706 -2.00946 -5
      vertex 3.80722 -1.75887 5
      vertex 3.80722 -1.75887 -5
    endloop
  endfacet
  facet normal -0.78183 -0.623492 0
    outer loop
      vertex 4.00706 -2.00946 -5
      vertex 4.00706 -2.00946 5
      vertex 3.80722 -1.75887 5
    endloop
  endfacet
  facet normal -0.820178 -0.572109 0
    outer loop
      vertex 4.19043 -2.27234 -5
      vertex 4.00706 -2.00946 5
      vertex 4.00706 -2.00946 -5
    endloop
  endfacet
  facet normal -0.820178 -0.572109 0
    outer loop
      vertex 4.19043 -2.27234 -5
      vertex 4.19043 -2.27234 5
      vertex 4.00706 -2.00946 5
    endloop
  endfacet
  facet normal -0.855141 -0.518395 0
    outer loop
      vertex 4.35658 -2.54642 -5
      vertex 4.19043 -2.27234 5
      vertex 4.19043 -2.27234 -5
    endloop
  endfacet
  facet normal -0.855141 -0.518395 0
    outer loop
      vertex 4.35658 -2.54642 -5
      vertex 4.35658 -2.54642 5
      vertex 4.19043 -2.27234 5
    endloop
  endfacet
  facet normal -0.886582 -0.462572 0
    outer loop
      vertex 4.50484 -2.83058 -5
      vertex 4.35658 -2.54642 5
      vertex 4.35658 -2.54642 -5
    endloop
  endfacet
  facet normal -0.886582 -0.462572 0
    outer loop
      vertex 4.50484 -2.83058 -5
      vertex 4.50484 -2.83058 5
      vertex 4.35658 -2.54642 5
    endloop
  endfacet
  facet normal -0.914415 -0.404777 0
    outer loop
      vertex 4.63458 -3.12367 -5
      vertex 4.50484 -2.83058 5
      vertex 4.50484 -2.83058 -5
    endloop
  endfacet
  facet normal -0.914415 -0.404777 0
    outer loop
      vertex 4.63458 -3.12367 -5
      vertex 4.63458 -3.12367 5
      vertex 4.50484 -2.83058 5
    endloop
  endfacet
  facet normal -0.938476 -0.345345 0
    outer loop
      vertex 4.74527 -3.42447 -5
      vertex 4.63458 -3.12367 5
      vertex 4.63458 -3.12367 -5
    endloop
  endfacet
  facet normal -0.938476 -0.345345 0
    outer loop
      vertex 4.74527 -3.42447 -5
      vertex 4.74527 -3.42447 5
      vertex 4.63458 -3.12367 5
    endloop
  endfacet
  facet normal -0.958665 -0.284539 0
    outer loop
      vertex 4.83647 -3.73174 -5
      vertex 4.74527 -3.42447 5
      vertex 4.74527 -3.42447 -5
    endloop
  endfacet
  facet normal -0.958665 -0.284539 0
    outer loop
      vertex 4.83647 -3.73174 -5
      vertex 4.83647 -3.73174 5
      vertex 4.74527 -3.42447 5
    endloop
  endfacet
  facet normal -0.974929 -0.222516 0
    outer loop
      vertex 4.90779 -4.04422 -5
      vertex 4.83647 -3.73174 5
      vertex 4.83647 -3.73174 -5
    endloop
  endfacet
  facet normal -0.974929 -0.222516 0
    outer loop
      vertex 4.90779 -4.04422 -5
      vertex 4.90779 -4.04422 5
      vertex 4.83647 -3.73174 5
    endloop
  endfacet
  facet normal -0.987184 -0.159586 0
    outer loop
      vertex 4.95894 -4.36063 -5
      vertex 4.90779 -4.04422 5
      vertex 4.90779 -4.04422 -5
    endloop
  endfacet
  facet normal -0.987184 -0.159586 0
    outer loop
      vertex 4.95894 -4.36063 -5
      vertex 4.95894 -4.36063 5
      vertex 4.90779 -4.04422 5
    endloop
  endfacet
  facet normal -0.995378 -0.096034 0
    outer loop
      vertex 4.98972 -4.67966 -5
      vertex 4.95894 -4.36063 5
      vertex 4.95894 -4.36063 -5
    endloop
  endfacet
  facet normal -0.995378 -0.096034 0
    outer loop
      vertex 4.98972 -4.67966 -5
      vertex 4.98972 -4.67966 5
      vertex 4.95894 -4.36063 5
    endloop
  endfacet
  facet normal -0.999485 -0.0320744 0
    outer loop
      vertex 5 -5 -5
      vertex 4.98972 -4.67966 5
      vertex 4.98972 -4.67966 -5
    endloop
  endfacet
  facet normal -0.999485 -0.0320744 0
    outer loop
      vertex 5 -5 -5
      vertex 5 -5 5
      vertex 4.98972 -4.67966 5
    endloop
  endfacet
  facet normal 1 0 0
    outer loop
      vertex 5 5 -5
      vertex 5 -5 5
      vertex 5 -5 -5
    endloop
  endfacet
  facet normal 1 0 -0
    outer loop
      vertex 5 5 -5
      vertex 5 5 5
      vertex 5 -5 5
    endloop
  endfacet
  facet normal 0 1 0
    outer loop
      vertex -5 5 -5
      vertex 5 5 5
      vertex 5 5 -5
    endloop
  endfacet
  facet normal 0 1 0
    outer loop
      vertex -5 5 -5
      vertex -5 5 5
      vertex 5 5 5
    endloop
  endfacet
  facet normal -1 0 0
    outer loop
      vertex -5 -1.66667 -5
      vertex -5 5 5
      vertex -5 5 -5
    endloop
  endfacet
  facet normal -1 0 0
    outer loop
      vertex -5 -1.66667 -5
      vertex -5 -1.66667 5
      vertex -5 5 5
    endloop
  endfacet
  facet normal -0.894429 -0.44721 0
    outer loop
      vertex -4.46053 -2.74562 -5
      vertex -5 -1.66667 5
      vertex -5 -1.66667 -5
    endloop
  endfacet
  facet normal -0.894429 -0.44721 0
    outer loop
      vertex -4.46053 -2.74562 -5
      vertex -4.46053 -2.74562 5
      vertex -5 -1.66667 5
    endloop
  endfacet
  facet normal -0.886615 0.462509 0
    outer loop
      vertex -4.50485 -2.83058 -5
      vertex -4.46053 -2.74562 5
      vertex -4.46053 -2.74562 -5
    endloop
  endfacet
  facet normal -0.886615 0.462509 0
    outer loop
      vertex -4.50485 -2.83058 -5
      vertex -4.50485 -2.83058 5
      vertex -4.46053 -2.74562 5
    endloop
  endfacet
  facet normal -0.914404 0.404804 0
    outer loop
      vertex -4.6346 -3.12367 -5
      vertex -4.50485 -2.83058 5
      vertex -4.50485 -2.83058 -5
    endloop
  endfacet
  facet normal -0.914404 0.404804 0
    outer loop
      vertex -4.6346 -3.12367 -5
      vertex -4.6346 -3.12367 5
      vertex -4.50485 -2.83058 5
    endloop
  endfacet
  facet normal -0.938476 0.345345 0
    outer loop
      vertex -4.74529 -3.42447 -5
      vertex -4.6346 -3.12367 5
      vertex -4.6346 -3.12367 -5
    endloop
  endfacet
  facet normal -0.938476 0.345345 0
    outer loop
      vertex -4.74529 -3.42447 -5
      vertex -4.74529 -3.42447 5
      vertex -4.6346 -3.12367 5
    endloop
  endfacet
  facet normal -0.958665 0.284539 0
    outer loop
      vertex -4.83649 -3.73174 -5
      vertex -4.74529 -3.42447 5
      vertex -4.74529 -3.42447 -5
    endloop
  endfacet
  facet normal -0.958665 0.284539 0
    outer loop
      vertex -4.83649 -3.73174 -5
      vertex -4.83649 -3.73174 5
      vertex -4.74529 -3.42447 5
    endloop
  endfacet
  facet normal -0.974929 0.222516 0
    outer loop
      vertex -4.90781 -4.04422 -5
      vertex -4.83649 -3.73174 5
      vertex -4.83649 -3.73174 -5
    endloop
  endfacet
  facet normal -0.974929 0.222516 0
    outer loop
      vertex -4.90781 -4.04422 -5
      vertex -4.90781 -4.04422 5
      vertex -4.83649 -3.73174 5
    endloop
  endfacet
  facet normal -0.987189 0.159555 0
    outer loop
      vertex -4.95895 -4.36063 -5
      vertex -4.90781 -4.04422 5
      vertex -4.90781 -4.04422 -5
    endloop
  endfacet
  facet normal -0.987189 0.159555 0
    outer loop
      vertex -4.95895 -4.36063 -5
      vertex -4.95895 -4.36063 5
      vertex -4.90781 -4.04422 5
    endloop
  endfacet
  facet normal -0.995378 0.096034 0
    outer loop
      vertex -4.98973 -4.67966 -5
      vertex -4.95895 -4.36063 5
      vertex -4.95895 -4.36063 -5
    endloop
  endfacet
  facet normal -0.995378 0.096034 0
    outer loop
      vertex -4.98973 -4.67966 -5
      vertex -4.98973 -4.67966 5
      vertex -4.95895 -4.36063 5
    endloop
  endfacet
  facet normal -0.999486 0.0320432 0
    outer loop
      vertex -5 -5 -5
      vertex -4.98973 -4.67966 5
      vertex -4.98973 -4.67966 -5
    endloop
  endfacet
  facet normal -0.999486 0.0320432 0
    outer loop
      vertex -5 -5 -5
      vertex -5 -5 5
      vertex -4.98973 -4.67966 5
    endloop
  endfacet
  facet normal 0 -1 0
    outer loop
      vertex 3.33333 -5 -5
      vertex -5 -5 5
      vertex -5 -5 -5
    endloop
  endfacet
  facet normal 0 -1 0
    outer loop
      vertex 3.33333 -5 -5
      vertex 3.33333 -5 5
      vertex -5 -5 5
    endloop
  endfacet
  facet normal 0.999486 0.0320588 0
    outer loop
      vertex 3.32648 -4.78644 -5
      vertex 3.33333 -5 5
      vertex 3.33333 -5 -5
    endloop
  endfacet
  facet normal 0.999486 0.0320588 -0
    outer loop
      vertex 3.32648 -4.78644 -5
      vertex 3.32648 -4.78644 5
      vertex 3.33333 -5 5
    endloop
  endfacet
endsolid OpenSCAD_Model
