solid OpenSCAD_Model
  facet normal 0 0 -1
    outer loop
      vertex -3.33334 0 -5
      vertex 2.91667 -3.75 -5
      vertex -3.33334 -5 -5
    endloop
  endfacet
  facet normal -0 0 -1
    outer loop
      vertex -3.33334 0 -5
      vertex -5 -5 -5
      vertex -5 5 -5
    endloop
  endfacet
  facet normal 0 0 -1
    outer loop
      vertex -3.33334 0 -5
      vertex 5 2.5 -5
      vertex 5 0 -5
    endloop
  endfacet
  facet normal 0 0 -1
    outer loop
      vertex -3.33334 0 -5
      vertex -3.33334 5 -5
      vertex 5 2.5 -5
    endloop
  endfacet
  facet normal 0 0 -1
    outer loop
      vertex -3.33334 0 -5
      vertex -5 5 -5
      vertex -3.33334 5 -5
    endloop
  endfacet
  facet normal 0 0 -1
    outer loop
      vertex -3.33334 -5 -5
      vertex -5 -5 -5
      vertex -3.33334 0 -5
    endloop
  endfacet
  facet normal 0 -0 -1
    outer loop
      vertex 5 -3.33334 -5
      vertex 5 -5 -5
      vertex 2.91667 -3.75 -5
    endloop
  endfacet
  facet normal 0 0 1
    outer loop
      vertex -3.33334 -5 5
      vertex 2.91667 -3.75 5
      vertex -3.33334 0 5
    endloop
  endfacet
  facet normal 0 0 1
    outer loop
      vertex -5 5 5
      vertex -5 -5 5
      vertex -3.33334 0 5
    endloop
  endfacet
  facet normal 0 -0 1
    outer loop
      vertex 5 0 5
      vertex 5 2.5 5
      vertex -3.33334 0 5
    endloop
  endfacet
  facet normal 0 0 1
    outer loop
      vertex 5 2.5 5
      vertex -3.33334 5 5
      vertex -3.33334 0 5
    endloop
  endfacet
  facet normal 0 0 1
    outer loop
      vertex -3.33334 5 5
      vertex -5 5 5
      vertex -3.33334 0 5
    endloop
  endfacet
  facet normal 0 0 1
    outer loop
      vertex -3.33334 0 5
      vertex -5 -5 5
      vertex -3.33334 -5 5
    endloop
  endfacet
  facet normal -0 0 1
    outer loop
      vertex 2.91667 -3.75 5
      vertex 5 -5 5
      vertex 5 -3.33334 5
    endloop
  endfacet
  facet normal 0.514495 0.857493 0
    outer loop
      vertex -3.33334 0 -5
      vertex 2.91667 -3.75 5
      vertex 2.91667 -3.75 -5
    endloop
  endfacet
  facet normal 0.514495 0.857493 -0
    outer loop
      vertex -3.33334 0 -5
      vertex -3.33334 0 5
      vertex 2.91667 -3.75 5
    endloop
  endfacet
  facet normal 0 -1 0
    outer loop
      vertex 5 0 -5
      vertex -3.33334 0 5
      vertex -3.33334 0 -5
    endloop
  endfacet
  facet normal 0 -1 0
    outer loop
      vertex 5 0 -5
      vertex 5 0 5
      vertex -3.33334 0 5
    endloop
  endfacet
  facet normal 1 0 0
    outer loop
      vertex 5 2.5 -5
      vertex 5 0 5
      vertex 5 0 -5
    endloop
  endfacet
  facet normal 1 0 -0
    outer loop
      vertex 5 2.5 -5
      vertex 5 2.5 5
      vertex 5 0 5
    endloop
  endfacet
  facet normal 0.287348 0.957826 0
    outer loop
      vertex -3.33334 5 -5
      vertex 5 2.5 5
      vertex 5 2.5 -5
    endloop
  endfacet
  facet normal 0.287348 0.957826 -0
    outer loop
      vertex -3.33334 5 -5
      vertex -3.33334 5 5
      vertex 5 2.5 5
    endloop
  endfacet
  facet normal 0 1 0
    outer loop
      vertex -5 5 -5
      vertex -3.33334 5 5
      vertex -3.33334 5 -5
    endloop
  endfacet
  facet normal 0 1 0
    outer loop
      vertex -5 5 -5
      vertex -5 5 5
      vertex -3.33334 5 5
    endloop
  endfacet
  facet normal -1 0 0
    outer loop
      vertex -5 -5 -5
      vertex -5 5 5
      vertex -5 5 -5
    endloop
  endfacet
  facet normal -1 0 0
    outer loop
      vertex -5 -5 -5
      vertex -5 -5 5
      vertex -5 5 5
    endloop
  endfacet
  facet normal 0 -1 0
    outer loop
      vertex -3.33334 -5 -5
      vertex -5 -5 5
      vertex -5 -5 -5
    endloop
  endfacet
  facet normal 0 -1 0
    outer loop
      vertex -3.33334 -5 -5
      vertex -3.33334 -5 5
      vertex -5 -5 5
    endloop
  endfacet
  facet normal 0.196116 -0.980581 0
    outer loop
      vertex 2.91667 -3.75 -5
      vertex -3.33334 -5 5
      vertex -3.33334 -5 -5
    endloop
  endfacet
  facet normal 0.196116 -0.980581 0
    outer loop
      vertex 2.91667 -3.75 -5
      vertex 2.91667 -3.75 5
      vertex -3.33334 -5 5
    endloop
  endfacet
  facet normal -0.196113 0.980581 0
    outer loop
      vertex 2.91667 -3.75 -5
      vertex 5 -3.33334 5
      vertex 5 -3.33334 -5
    endloop
  endfacet
  facet normal -0.196113 0.980581 0
    outer loop
      vertex 2.91667 -3.75 -5
      vertex 2.91667 -3.75 5
      vertex 5 -3.33334 5
    endloop
  endfacet
  facet normal -0.514496 -0.857493 0
    outer loop
      vertex 5 -5 -5
      vertex 2.91667 -3.75 5
      vertex 2.91667 -3.75 -5
    endloop
  endfacet
  facet normal -0.514496 -0.857493 0
    outer loop
      vertex 5 -5 -5
      vertex 5 -5 5
      vertex 2.91667 -3.75 5
    endloop
  endfacet
  facet normal 1 0 0
    outer loop
      vertex 5 -3.33334 -5
      vertex 5 -5 5
      vertex 5 -5 -5
    endloop
  endfacet
  facet normal 1 0 -0
    outer loop
      vertex 5 -3.33334 -5
      vertex 5 -3.33334 5
      vertex 5 -5 5
    endloop
  endfacet
endsolid OpenSCAD_Model
