solid OpenSCAD_Model
  facet normal 0 0 -1
    outer loop
      vertex -5 1.66666 -5
      vertex -5 5 -5
      vertex -1.66667 1.66666 -5
    endloop
  endfacet
  facet normal 0 0 -1
    outer loop
      vertex 1.66666 -1.66667 -5
      vertex 5 -1.66667 -5
      vertex 5 -5 -5
    endloop
  endfacet
  facet normal 0 0 -1
    outer loop
      vertex 1.66666 -1.66667 -5
      vertex -1.66667 -1.66667 -5
      vertex -1.66667 1.66666 -5
    endloop
  endfacet
  facet normal 0 0 -1
    outer loop
      vertex 1.66666 1.66666 -5
      vertex 5 5 -5
      vertex 5 1.66666 -5
    endloop
  endfacet
  facet normal 0 0 -1
    outer loop
      vertex 1.66666 1.66666 -5
      vertex -5 5 -5
      vertex 5 5 -5
    endloop
  endfacet
  facet normal 0 0 -1
    outer loop
      vertex 1.66666 -1.66667 -5
      vertex -1.66667 1.66666 -5
      vertex 1.66666 1.66666 -5
    endloop
  endfacet
  facet normal 0 0 -1
    outer loop
      vertex -1.66667 1.66666 -5
      vertex -5 5 -5
      vertex 1.66666 1.66666 -5
    endloop
  endfacet
  facet normal 0 0 -1
    outer loop
      vertex -5 -5 -5
      vertex -1.66667 -1.66667 -5
      vertex 1.66666 -1.66667 -5
    endloop
  endfacet
  facet normal 0 0 -1
    outer loop
      vertex -5 -5 -5
      vertex -5 -1.66667 -5
      vertex -1.66667 -1.66667 -5
    endloop
  endfacet
  facet normal 0 0 -1
    outer loop
      vertex 5 -5 -5
      vertex -5 -5 -5
      vertex 1.66666 -1.66667 -5
    endloop
  endfacet
  facet normal 0 0 1
    outer loop
      vertex -1.66667 1.66666 5
      vertex -5 5 5
      vertex -5 1.66666 5
    endloop
  endfacet
  facet normal 0 -0 1
    outer loop
      vertex 5 -5 5
      vertex 5 -1.66667 5
      vertex 1.66666 -1.66667 5
    endloop
  endfacet
  facet normal 0 0 1
    outer loop
      vertex -1.66667 1.66666 5
      vertex -1.66667 -1.66667 5
      vertex 1.66666 -1.66667 5
    endloop
  endfacet
  facet normal 0 -0 1
    outer loop
      vertex 5 1.66666 5
      vertex 5 5 5
      vertex 1.66666 1.66666 5
    endloop
  endfacet
  facet normal 0 0 1
    outer loop
      vertex 5 5 5
      vertex -5 5 5
      vertex 1.66666 1.66666 5
    endloop
  endfacet
  facet normal 0 0 1
    outer loop
      vertex 1.66666 1.66666 5
      vertex -1.66667 1.66666 5
      vertex 1.66666 -1.66667 5
    endloop
  endfacet
  facet normal 0 0 1
    outer loop
      vertex 1.66666 1.66666 5
      vertex -5 5 5
      vertex -1.66667 1.66666 5
    endloop
  endfacet
  facet normal 0 0 1
    outer loop
      vertex 1.66666 -1.66667 5
      vertex -1.66667 -1.66667 5
      vertex -5 -5 5
    endloop
  endfacet
  facet normal 0 0 1
    outer loop
      vertex -1.66667 -1.66667 5
      vertex -5 -1.66667 5
      vertex -5 -5 5
    endloop
  endfacet
  facet normal 0 0 1
    outer loop
      vertex 1.66666 -1.66667 5
      vertex -5 -5 5
      vertex 5 -5 5
    endloop
  endfacet
  facet normal 0 1 0
    outer loop
      vertex 1.66666 -1.66667 -5
      vertex 5 -1.66667 5
      vertex 5 -1.66667 -5
    endloop
  endfacet
  facet normal 0 1 0
    outer loop
      vertex 1.66666 -1.66667 -5
      vertex 1.66666 -1.66667 5
      vertex 5 -1.66667 5
    endloop
  endfacet
  facet normal 1 0 0
    outer loop
      vertex 1.66666 1.66666 -5
      vertex 1.66666 -1.66667 5
      vertex 1.66666 -1.66667 -5
    endloop
  endfacet
  facet normal 1 0 -0
    outer loop
      vertex 1.66666 1.66666 -5
      vertex 1.66666 1.66666 5
      vertex 1.66666 -1.66667 5
    endloop
  endfacet
  facet normal 0 -1 0
    outer loop
      vertex 5 1.66666 -5
      vertex 1.66666 1.66666 5
      vertex 1.66666 1.66666 -5
    endloop
  endfacet
  facet normal 0 -1 0
    outer loop
      vertex 5 1.66666 -5
      vertex 5 1.66666 5
      vertex 1.66666 1.66666 5
    endloop
  endfacet
  facet normal 1 0 0
    outer loop
      vertex 5 5 -5
      vertex 5 1.66666 5
      vertex 5 1.66666 -5
    endloop
  endfacet
  facet normal 1 0 -0
    outer loop
      vertex 5 5 -5
      vertex 5 5 5
      vertex 5 1.66666 5
    endloop
  endfacet
  facet normal 0 1 0
    outer loop
      vertex -5 5 -5
      vertex 5 5 5
      vertex 5 5 -5
    endloop
  endfacet
  facet normal 0 1 0
    outer loop
      vertex -5 5 -5
      vertex -5 5 5
      vertex 5 5 5
    endloop
  endfacet
  facet normal -1 0 0
    outer loop
      vertex -5 1.66666 -5
      vertex -5 5 5
      vertex -5 5 -5
    endloop
  endfacet
  facet normal -1 0 0
    outer loop
      vertex -5 1.66666 -5
      vertex -5 1.66666 5
      vertex -5 5 5
    endloop
  endfacet
  facet normal 0 -1 0
    outer loop
      vertex -1.66667 1.66666 -5
      vertex -5 1.66666 5
      vertex -5 1.66666 -5
    endloop
  endfacet
  facet normal 0 -1 0
    outer loop
      vertex -1.66667 1.66666 -5
      vertex -1.66667 1.66666 5
      vertex -5 1.66666 5
    endloop
  endfacet
  facet normal -1 0 0
    outer loop
      vertex -1.66667 -1.66667 -5
      vertex -1.66667 1.66666 5
      vertex -1.66667 1.66666 -5
    endloop
  endfacet
  facet normal -1 0 0
    outer loop
      vertex -1.66667 -1.66667 -5
      vertex -1.66667 -1.66667 5
      vertex -1.66667 1.66666 5
    endloop
  endfacet
  facet normal 0 1 0
    outer loop
      vertex -5 -1.66667 -5
      vertex -1.66667 -1.66667 5
      vertex -1.66667 -1.66667 -5
    endloop
  endfacet
  facet normal 0 1 0
    outer loop
      vertex -5 -1.66667 -5
      vertex -5 -1.66667 5
      vertex -1.66667 -1.66667 5
    endloop
  endfacet
  facet normal -1 0 0
    outer loop
      vertex -5 -5 -5
      vertex -5 -1.66667 5
      vertex -5 -1.66667 -5
    endloop
  endfacet
  facet normal -1 0 0
    outer loop
      vertex -5 -5 -5
      vertex -5 -5 5
      vertex -5 -1.66667 5
    endloop
  endfacet
  facet normal 0 -1 0
    outer loop
      vertex 5 -5 -5
      vertex -5 -5 5
      vertex -5 -5 -5
    endloop
  endfacet
  facet normal 0 -1 0
    outer loop
      vertex 5 -5 -5
      vertex 5 -5 5
      vertex -5 -5 5
    endloop
  endfacet
  facet normal 1 0 0
    outer loop
      vertex 5 -1.66667 -5
      vertex 5 -5 5
      vertex 5 -5 -5
    endloop
  endfacet
  facet normal 1 0 -0
    outer loop
      vertex 5 -1.66667 -5
      vertex 5 -1.66667 5
      vertex 5 -5 5
    endloop
  endfacet
endsolid OpenSCAD_Model
