solid OpenSCAD_Model
  facet normal 0 0 -1
    outer loop
      vertex 3.33333 -5 -5
      vertex 5 -4 -5
      vertex 5 -5 -5
    endloop
  endfacet
  facet normal 0 0 -1
    outer loop
      vertex 3.33333 -5 -5
      vertex 0 0 -5
      vertex 5 -4 -5
    endloop
  endfacet
  facet normal 0 0 -1
    outer loop
      vertex -5 5 -5
      vertex -3.33334 -1 -5
      vertex -5 -5 -5
    endloop
  endfacet
  facet normal 0 0 -1
    outer loop
      vertex 3.33333 -5 -5
      vertex -3.33334 -1 -5
      vertex 0 0 -5
    endloop
  endfacet
  facet normal 0 0 -1
    outer loop
      vertex 3.33333 5 -5
      vertex 5 5 -5
      vertex 5 4 -5
    endloop
  endfacet
  facet normal 0 0 -1
    outer loop
      vertex 0 0 -5
      vertex 3.33333 5 -5
      vertex 5 4 -5
    endloop
  endfacet
  facet normal 0 0 -1
    outer loop
      vertex 0 0 -5
      vertex -3.33334 1 -5
      vertex 3.33333 5 -5
    endloop
  endfacet
  facet normal -0 0 -1
    outer loop
      vertex 0 0 -5
      vertex -3.33334 -1 -5
      vertex -3.33334 1 -5
    endloop
  endfacet
  facet normal -0 -0 -1
    outer loop
      vertex -3.33334 1 -5
      vertex -3.33334 -1 -5
      vertex -5 5 -5
    endloop
  endfacet
  facet normal -0 -0 -1
    outer loop
      vertex -3.33334 5 -5
      vertex -3.33334 1 -5
      vertex -5 5 -5
    endloop
  endfacet
  facet normal 0 -0 -1
    outer loop
      vertex -3.33334 -1 -5
      vertex -3.33334 -5 -5
      vertex -5 -5 -5
    endloop
  endfacet
  facet normal 0 -0 1
    outer loop
      vertex 5 -5 5
      vertex 5 -4 5
      vertex 3.33333 -5 5
    endloop
  endfacet
  facet normal 0 0 1
    outer loop
      vertex 5 -4 5
      vertex 0 0 5
      vertex 3.33333 -5 5
    endloop
  endfacet
  facet normal 0 0 1
    outer loop
      vertex -5 -5 5
      vertex -3.33334 -1 5
      vertex -5 5 5
    endloop
  endfacet
  facet normal 0 0 1
    outer loop
      vertex 0 0 5
      vertex -3.33334 -1 5
      vertex 3.33333 -5 5
    endloop
  endfacet
  facet normal 0 -0 1
    outer loop
      vertex 5 4 5
      vertex 5 5 5
      vertex 3.33333 5 5
    endloop
  endfacet
  facet normal 0 0 1
    outer loop
      vertex 5 4 5
      vertex 3.33333 5 5
      vertex 0 0 5
    endloop
  endfacet
  facet normal 0 0 1
    outer loop
      vertex 3.33333 5 5
      vertex -3.33334 1 5
      vertex 0 0 5
    endloop
  endfacet
  facet normal 0 0 1
    outer loop
      vertex -3.33334 1 5
      vertex -3.33334 -1 5
      vertex 0 0 5
    endloop
  endfacet
  facet normal 0 0 1
    outer loop
      vertex -5 5 5
      vertex -3.33334 -1 5
      vertex -3.33334 1 5
    endloop
  endfacet
  facet normal -0 0 1
    outer loop
      vertex -5 5 5
      vertex -3.33334 1 5
      vertex -3.33334 5 5
    endloop
  endfacet
  facet normal 0 0 1
    outer loop
      vertex -5 -5 5
      vertex -3.33334 -5 5
      vertex -3.33334 -1 5
    endloop
  endfacet
  facet normal -0.514496 -0.857493 0
    outer loop
      vertex 3.33333 -5 -5
      vertex -3.33334 -1 5
      vertex -3.33334 -1 -5
    endloop
  endfacet
  facet normal -0.514496 -0.857493 0
    outer loop
      vertex 3.33333 -5 -5
      vertex 3.33333 -5 5
      vertex -3.33334 -1 5
    endloop
  endfacet
  facet normal 0 -1 0
    outer loop
      vertex 5 -5 -5
      vertex 3.33333 -5 5
      vertex 3.33333 -5 -5
    endloop
  endfacet
  facet normal 0 -1 0
    outer loop
      vertex 5 -5 -5
      vertex 5 -5 5
      vertex 3.33333 -5 5
    endloop
  endfacet
  facet normal 1 0 0
    outer loop
      vertex 5 -4 -5
      vertex 5 -5 5
      vertex 5 -5 -5
    endloop
  endfacet
  facet normal 1 0 -0
    outer loop
      vertex 5 -4 -5
      vertex 5 -4 5
      vertex 5 -5 5
    endloop
  endfacet
  facet normal 0.624695 0.780869 0
    outer loop
      vertex 0 0 -5
      vertex 5 -4 5
      vertex 5 -4 -5
    endloop
  endfacet
  facet normal 0.624695 0.780869 -0
    outer loop
      vertex 0 0 -5
      vertex 0 0 5
      vertex 5 -4 5
    endloop
  endfacet
  facet normal 0.624695 -0.780869 0
    outer loop
      vertex 5 4 -5
      vertex 0 0 5
      vertex 0 0 -5
    endloop
  endfacet
  facet normal 0.624695 -0.780869 0
    outer loop
      vertex 5 4 -5
      vertex 5 4 5
      vertex 0 0 5
    endloop
  endfacet
  facet normal 1 0 0
    outer loop
      vertex 5 5 -5
      vertex 5 4 5
      vertex 5 4 -5
    endloop
  endfacet
  facet normal 1 0 -0
    outer loop
      vertex 5 5 -5
      vertex 5 5 5
      vertex 5 4 5
    endloop
  endfacet
  facet normal 0 1 0
    outer loop
      vertex 3.33333 5 -5
      vertex 5 5 5
      vertex 5 5 -5
    endloop
  endfacet
  facet normal 0 1 0
    outer loop
      vertex 3.33333 5 -5
      vertex 3.33333 5 5
      vertex 5 5 5
    endloop
  endfacet
  facet normal -0.514496 0.857493 0
    outer loop
      vertex -3.33334 1 -5
      vertex 3.33333 5 5
      vertex 3.33333 5 -5
    endloop
  endfacet
  facet normal -0.514496 0.857493 0
    outer loop
      vertex -3.33334 1 -5
      vertex -3.33334 1 5
      vertex 3.33333 5 5
    endloop
  endfacet
  facet normal 1 0 0
    outer loop
      vertex -3.33334 5 -5
      vertex -3.33334 1 5
      vertex -3.33334 1 -5
    endloop
  endfacet
  facet normal 1 0 -0
    outer loop
      vertex -3.33334 5 -5
      vertex -3.33334 5 5
      vertex -3.33334 1 5
    endloop
  endfacet
  facet normal 0 1 0
    outer loop
      vertex -5 5 -5
      vertex -3.33334 5 5
      vertex -3.33334 5 -5
    endloop
  endfacet
  facet normal 0 1 0
    outer loop
      vertex -5 5 -5
      vertex -5 5 5
      vertex -3.33334 5 5
    endloop
  endfacet
  facet normal -1 0 0
    outer loop
      vertex -5 -5 -5
      vertex -5 5 5
      vertex -5 5 -5
    endloop
  endfacet
  facet normal -1 0 0
    outer loop
      vertex -5 -5 -5
      vertex -5 -5 5
      vertex -5 5 5
    endloop
  endfacet
  facet normal 0 -1 0
    outer loop
      vertex -3.33334 -5 -5
      vertex -5 -5 5
      vertex -5 -5 -5
    endloop
  endfacet
  facet normal 0 -1 0
    outer loop
      vertex -3.33334 -5 -5
      vertex -3.33334 -5 5
      vertex -5 -5 5
    endloop
  endfacet
  facet normal 1 0 0
    outer loop
      vertex -3.33334 -1 -5
      vertex -3.33334 -5 5
      vertex -3.33334 -5 -5
    endloop
  endfacet
  facet normal 1 0 -0
    outer loop
      vertex -3.33334 -1 -5
      vertex -3.33334 -1 5
      vertex -3.33334 -5 5
    endloop
  endfacet
endsolid OpenSCAD_Model
