solid OpenSCAD_Model
  facet normal 0 0 -1
    outer loop
      vertex -1.17851 -1.17851 -5
      vertex -3.33334 -0.285965 -5
      vertex 0 0 -5
    endloop
  endfacet
  facet normal 0 0 -1
    outer loop
      vertex -5 -5 -5
      vertex -5 5 -5
      vertex -3.33334 -0.285965 -5
    endloop
  endfacet
  facet normal 0 -0 -1
    outer loop
      vertex -3.33334 -0.285965 -5
      vertex -3.33334 -2.64299 -5
      vertex -5 -5 -5
    endloop
  endfacet
  facet normal 0 0 -1
    outer loop
      vertex 0 0 -5
      vertex 5 -5 -5
      vertex 2.64297 -5 -5
    endloop
  endfacet
  facet normal 0 0 -1
    outer loop
      vertex -1.17851 -1.17851 -5
      vertex 0 0 -5
      vertex 2.64297 -5 -5
    endloop
  endfacet
  facet normal 0 -0 -1
    outer loop
      vertex 2.64297 5 -5
      vertex 5 5 -5
      vertex 0 0 -5
    endloop
  endfacet
  facet normal 0 0 -1
    outer loop
      vertex -3.33334 -0.285965 -5
      vertex 2.64297 5 -5
      vertex 0 0 -5
    endloop
  endfacet
  facet normal 0 0 -1
    outer loop
      vertex -3.33334 -2.64299 -5
      vertex -3.33334 -0.285965 -5
      vertex -1.17851 -1.17851 -5
    endloop
  endfacet
  facet normal 0 0 -1
    outer loop
      vertex -3.33334 -0.285965 -5
      vertex -5 5 -5
      vertex -3.33334 5 -5
    endloop
  endfacet
  facet normal 0 0 -1
    outer loop
      vertex -3.33334 -5 -5
      vertex -5 -5 -5
      vertex -3.33334 -2.64299 -5
    endloop
  endfacet
  facet normal 0 0 1
    outer loop
      vertex 0 0 5
      vertex -3.33334 -0.285965 5
      vertex -1.17851 -1.17851 5
    endloop
  endfacet
  facet normal 0 0 1
    outer loop
      vertex -3.33334 -0.285965 5
      vertex -5 5 5
      vertex -5 -5 5
    endloop
  endfacet
  facet normal 0 0 1
    outer loop
      vertex -5 -5 5
      vertex -3.33334 -2.64299 5
      vertex -3.33334 -0.285965 5
    endloop
  endfacet
  facet normal 0 -0 1
    outer loop
      vertex 2.64297 -5 5
      vertex 5 -5 5
      vertex 0 0 5
    endloop
  endfacet
  facet normal 0 0 1
    outer loop
      vertex 2.64297 -5 5
      vertex 0 0 5
      vertex -1.17851 -1.17851 5
    endloop
  endfacet
  facet normal 0 0 1
    outer loop
      vertex 0 0 5
      vertex 5 5 5
      vertex 2.64297 5 5
    endloop
  endfacet
  facet normal 0 -0 1
    outer loop
      vertex 0 0 5
      vertex 2.64297 5 5
      vertex -3.33334 -0.285965 5
    endloop
  endfacet
  facet normal 0 0 1
    outer loop
      vertex -1.17851 -1.17851 5
      vertex -3.33334 -0.285965 5
      vertex -3.33334 -2.64299 5
    endloop
  endfacet
  facet normal 0 0 1
    outer loop
      vertex -3.33334 5 5
      vertex -5 5 5
      vertex -3.33334 -0.285965 5
    endloop
  endfacet
  facet normal 0 0 1
    outer loop
      vertex -3.33334 -2.64299 5
      vertex -5 -5 5
      vertex -3.33334 -5 5
    endloop
  endfacet
  facet normal 0.562099 -0.82707 0
    outer loop
      vertex -1.17851 -1.17851 -5
      vertex -3.33334 -2.64299 5
      vertex -3.33334 -2.64299 -5
    endloop
  endfacet
  facet normal 0.562099 -0.82707 0
    outer loop
      vertex -1.17851 -1.17851 -5
      vertex -1.17851 -1.17851 5
      vertex -3.33334 -2.64299 5
    endloop
  endfacet
  facet normal -0.707108 -0.707106 0
    outer loop
      vertex 2.64297 -5 -5
      vertex -1.17851 -1.17851 5
      vertex -1.17851 -1.17851 -5
    endloop
  endfacet
  facet normal -0.707108 -0.707106 0
    outer loop
      vertex 2.64297 -5 -5
      vertex 2.64297 -5 5
      vertex -1.17851 -1.17851 5
    endloop
  endfacet
  facet normal 0 -1 0
    outer loop
      vertex 5 -5 -5
      vertex 2.64297 -5 5
      vertex 2.64297 -5 -5
    endloop
  endfacet
  facet normal 0 -1 0
    outer loop
      vertex 5 -5 -5
      vertex 5 -5 5
      vertex 2.64297 -5 5
    endloop
  endfacet
  facet normal 0.707107 0.707107 0
    outer loop
      vertex 0 0 -5
      vertex 5 -5 5
      vertex 5 -5 -5
    endloop
  endfacet
  facet normal 0.707107 0.707107 -0
    outer loop
      vertex 0 0 -5
      vertex 0 0 5
      vertex 5 -5 5
    endloop
  endfacet
  facet normal 0.707107 -0.707107 0
    outer loop
      vertex 5 5 -5
      vertex 0 0 5
      vertex 0 0 -5
    endloop
  endfacet
  facet normal 0.707107 -0.707107 0
    outer loop
      vertex 5 5 -5
      vertex 5 5 5
      vertex 0 0 5
    endloop
  endfacet
  facet normal 0 1 0
    outer loop
      vertex 2.64297 5 -5
      vertex 5 5 5
      vertex 5 5 -5
    endloop
  endfacet
  facet normal 0 1 0
    outer loop
      vertex 2.64297 5 -5
      vertex 2.64297 5 5
      vertex 5 5 5
    endloop
  endfacet
  facet normal -0.66252 0.749045 0
    outer loop
      vertex -3.33334 -0.285965 -5
      vertex 2.64297 5 5
      vertex 2.64297 5 -5
    endloop
  endfacet
  facet normal -0.66252 0.749045 0
    outer loop
      vertex -3.33334 -0.285965 -5
      vertex -3.33334 -0.285965 5
      vertex 2.64297 5 5
    endloop
  endfacet
  facet normal 1 0 0
    outer loop
      vertex -3.33334 5 -5
      vertex -3.33334 -0.285965 5
      vertex -3.33334 -0.285965 -5
    endloop
  endfacet
  facet normal 1 0 -0
    outer loop
      vertex -3.33334 5 -5
      vertex -3.33334 5 5
      vertex -3.33334 -0.285965 5
    endloop
  endfacet
  facet normal 0 1 0
    outer loop
      vertex -5 5 -5
      vertex -3.33334 5 5
      vertex -3.33334 5 -5
    endloop
  endfacet
  facet normal 0 1 0
    outer loop
      vertex -5 5 -5
      vertex -5 5 5
      vertex -3.33334 5 5
    endloop
  endfacet
  facet normal -1 0 0
    outer loop
      vertex -5 -5 -5
      vertex -5 5 5
      vertex -5 5 -5
    endloop
  endfacet
  facet normal -1 0 0
    outer loop
      vertex -5 -5 -5
      vertex -5 -5 5
      vertex -5 5 5
    endloop
  endfacet
  facet normal 0 -1 0
    outer loop
      vertex -3.33334 -5 -5
      vertex -5 -5 5
      vertex -5 -5 -5
    endloop
  endfacet
  facet normal 0 -1 0
    outer loop
      vertex -3.33334 -5 -5
      vertex -3.33334 -5 5
      vertex -5 -5 5
    endloop
  endfacet
  facet normal 1 0 0
    outer loop
      vertex -3.33334 -2.64299 -5
      vertex -3.33334 -5 5
      vertex -3.33334 -5 -5
    endloop
  endfacet
  facet normal 1 0 -0
    outer loop
      vertex -3.33334 -2.64299 -5
      vertex -3.33334 -2.64299 5
      vertex -3.33334 -5 5
    endloop
  endfacet
endsolid OpenSCAD_Model
