solid OpenSCAD_Model
  facet normal 0 0 -1
    outer loop
      vertex 0 -4 -5
      vertex -3.33334 -1 -5
      vertex 0 -3 -5
    endloop
  endfacet
  facet normal 0 -0 -1
    outer loop
      vertex -3.33334 0 -5
      vertex -3.33334 -1 -5
      vertex -5 -5 -5
    endloop
  endfacet
  facet normal 0 0 -1
    outer loop
      vertex 3.33333 -5 -5
      vertex 3.33333 -1 -5
      vertex 5 -5 -5
    endloop
  endfacet
  facet normal 0 0 -1
    outer loop
      vertex 5 -5 -5
      vertex 3.33333 0 -5
      vertex 5 5 -5
    endloop
  endfacet
  facet normal 0 0 -1
    outer loop
      vertex 0 -3 -5
      vertex -3.33334 -1 -5
      vertex -3.33334 0 -5
    endloop
  endfacet
  facet normal 0 0 -1
    outer loop
      vertex 3.33333 -1 -5
      vertex 3.33333 0 -5
      vertex 5 -5 -5
    endloop
  endfacet
  facet normal 0 0 -1
    outer loop
      vertex 3.33333 0 -5
      vertex 3.33333 5 -5
      vertex 5 5 -5
    endloop
  endfacet
  facet normal 0 0 -1
    outer loop
      vertex 0 -4 -5
      vertex 0 -3 -5
      vertex 3.33333 -1 -5
    endloop
  endfacet
  facet normal 0 0 -1
    outer loop
      vertex 0 -3 -5
      vertex 3.33333 0 -5
      vertex 3.33333 -1 -5
    endloop
  endfacet
  facet normal -0 0 -1
    outer loop
      vertex -3.33334 0 -5
      vertex -5 -5 -5
      vertex -5 5 -5
    endloop
  endfacet
  facet normal -0 -0 -1
    outer loop
      vertex -3.33334 5 -5
      vertex -3.33334 0 -5
      vertex -5 5 -5
    endloop
  endfacet
  facet normal 0 -0 -1
    outer loop
      vertex -3.33334 -1 -5
      vertex -3.33334 -5 -5
      vertex -5 -5 -5
    endloop
  endfacet
  facet normal 0 0 1
    outer loop
      vertex 0 -3 5
      vertex -3.33334 -1 5
      vertex 0 -4 5
    endloop
  endfacet
  facet normal 0 0 1
    outer loop
      vertex -5 -5 5
      vertex -3.33334 -1 5
      vertex -3.33334 0 5
    endloop
  endfacet
  facet normal 0 0 1
    outer loop
      vertex 5 -5 5
      vertex 3.33333 -1 5
      vertex 3.33333 -5 5
    endloop
  endfacet
  facet normal 0 0 1
    outer loop
      vertex 5 5 5
      vertex 3.33333 0 5
      vertex 5 -5 5
    endloop
  endfacet
  facet normal 0 0 1
    outer loop
      vertex -3.33334 0 5
      vertex -3.33334 -1 5
      vertex 0 -3 5
    endloop
  endfacet
  facet normal 0 0 1
    outer loop
      vertex 5 -5 5
      vertex 3.33333 0 5
      vertex 3.33333 -1 5
    endloop
  endfacet
  facet normal 0 0 1
    outer loop
      vertex 5 5 5
      vertex 3.33333 5 5
      vertex 3.33333 0 5
    endloop
  endfacet
  facet normal 0 0 1
    outer loop
      vertex 3.33333 -1 5
      vertex 0 -3 5
      vertex 0 -4 5
    endloop
  endfacet
  facet normal 0 -0 1
    outer loop
      vertex 3.33333 -1 5
      vertex 3.33333 0 5
      vertex 0 -3 5
    endloop
  endfacet
  facet normal 0 0 1
    outer loop
      vertex -5 5 5
      vertex -5 -5 5
      vertex -3.33334 0 5
    endloop
  endfacet
  facet normal -0 0 1
    outer loop
      vertex -5 5 5
      vertex -3.33334 0 5
      vertex -3.33334 5 5
    endloop
  endfacet
  facet normal 0 0 1
    outer loop
      vertex -5 -5 5
      vertex -3.33334 -5 5
      vertex -3.33334 -1 5
    endloop
  endfacet
  facet normal -0.668964 -0.743295 0
    outer loop
      vertex 0 -4 -5
      vertex -3.33334 -1 5
      vertex -3.33334 -1 -5
    endloop
  endfacet
  facet normal -0.668964 -0.743295 0
    outer loop
      vertex 0 -4 -5
      vertex 0 -4 5
      vertex -3.33334 -1 5
    endloop
  endfacet
  facet normal 0.668965 -0.743294 0
    outer loop
      vertex 3.33333 -1 -5
      vertex 0 -4 5
      vertex 0 -4 -5
    endloop
  endfacet
  facet normal 0.668965 -0.743294 0
    outer loop
      vertex 3.33333 -1 -5
      vertex 3.33333 -1 5
      vertex 0 -4 5
    endloop
  endfacet
  facet normal -1 0 0
    outer loop
      vertex 3.33333 -5 -5
      vertex 3.33333 -1 5
      vertex 3.33333 -1 -5
    endloop
  endfacet
  facet normal -1 0 0
    outer loop
      vertex 3.33333 -5 -5
      vertex 3.33333 -5 5
      vertex 3.33333 -1 5
    endloop
  endfacet
  facet normal 0 -1 0
    outer loop
      vertex 5 -5 -5
      vertex 3.33333 -5 5
      vertex 3.33333 -5 -5
    endloop
  endfacet
  facet normal 0 -1 0
    outer loop
      vertex 5 -5 -5
      vertex 5 -5 5
      vertex 3.33333 -5 5
    endloop
  endfacet
  facet normal 1 0 0
    outer loop
      vertex 5 5 -5
      vertex 5 -5 5
      vertex 5 -5 -5
    endloop
  endfacet
  facet normal 1 0 -0
    outer loop
      vertex 5 5 -5
      vertex 5 5 5
      vertex 5 -5 5
    endloop
  endfacet
  facet normal 0 1 0
    outer loop
      vertex 3.33333 5 -5
      vertex 5 5 5
      vertex 5 5 -5
    endloop
  endfacet
  facet normal 0 1 0
    outer loop
      vertex 3.33333 5 -5
      vertex 3.33333 5 5
      vertex 5 5 5
    endloop
  endfacet
  facet normal -1 0 0
    outer loop
      vertex 3.33333 0 -5
      vertex 3.33333 5 5
      vertex 3.33333 5 -5
    endloop
  endfacet
  facet normal -1 0 0
    outer loop
      vertex 3.33333 0 -5
      vertex 3.33333 0 5
      vertex 3.33333 5 5
    endloop
  endfacet
  facet normal -0.668965 0.743294 0
    outer loop
      vertex 0 -3 -5
      vertex 3.33333 0 5
      vertex 3.33333 0 -5
    endloop
  endfacet
  facet normal -0.668965 0.743294 0
    outer loop
      vertex 0 -3 -5
      vertex 0 -3 5
      vertex 3.33333 0 5
    endloop
  endfacet
  facet normal 0.668964 0.743295 0
    outer loop
      vertex -3.33334 0 -5
      vertex 0 -3 5
      vertex 0 -3 -5
    endloop
  endfacet
  facet normal 0.668964 0.743295 -0
    outer loop
      vertex -3.33334 0 -5
      vertex -3.33334 0 5
      vertex 0 -3 5
    endloop
  endfacet
  facet normal 1 0 0
    outer loop
      vertex -3.33334 5 -5
      vertex -3.33334 0 5
      vertex -3.33334 0 -5
    endloop
  endfacet
  facet normal 1 0 -0
    outer loop
      vertex -3.33334 5 -5
      vertex -3.33334 5 5
      vertex -3.33334 0 5
    endloop
  endfacet
  facet normal 0 1 0
    outer loop
      vertex -5 5 -5
      vertex -3.33334 5 5
      vertex -3.33334 5 -5
    endloop
  endfacet
  facet normal 0 1 0
    outer loop
      vertex -5 5 -5
      vertex -5 5 5
      vertex -3.33334 5 5
    endloop
  endfacet
  facet normal -1 0 0
    outer loop
      vertex -5 -5 -5
      vertex -5 5 5
      vertex -5 5 -5
    endloop
  endfacet
  facet normal -1 0 0
    outer loop
      vertex -5 -5 -5
      vertex -5 -5 5
      vertex -5 5 5
    endloop
  endfacet
  facet normal 0 -1 0
    outer loop
      vertex -3.33334 -5 -5
      vertex -5 -5 5
      vertex -5 -5 -5
    endloop
  endfacet
  facet normal 0 -1 0
    outer loop
      vertex -3.33334 -5 -5
      vertex -3.33334 -5 5
      vertex -5 -5 5
    endloop
  endfacet
  facet normal 1 0 0
    outer loop
      vertex -3.33334 -1 -5
      vertex -3.33334 -5 5
      vertex -3.33334 -5 -5
    endloop
  endfacet
  facet normal 1 0 -0
    outer loop
      vertex -3.33334 -1 -5
      vertex -3.33334 -1 5
      vertex -3.33334 -5 5
    endloop
  endfacet
endsolid OpenSCAD_Model
