solid OpenSCAD_Model
  facet normal 0 0 -1
    outer loop
      vertex -3.33334 5 -5
      vertex -2.24101 -0.865753 -5
      vertex -2.3945 -1.0144 -5
    endloop
  endfacet
  facet normal 0 -0 -1
    outer loop
      vertex 3.33333 5 -5
      vertex 3.33333 -3.33334 -5
      vertex 3.32648 -3.11977 -5
    endloop
  endfacet
  facet normal 0 0 -1
    outer loop
      vertex -3.33334 5 -5
      vertex -3.32649 -3.11977 -5
      vertex -3.33334 -3.33334 -5
    endloop
  endfacet
  facet normal 0 0 -1
    outer loop
      vertex -3.33334 5 -5
      vertex -3.30597 -2.90709 -5
      vertex -3.32649 -3.11977 -5
    endloop
  endfacet
  facet normal 0 0 -1
    outer loop
      vertex -3.33334 5 -5
      vertex -3.27187 -2.69615 -5
      vertex -3.30597 -2.90709 -5
    endloop
  endfacet
  facet normal 0 0 -1
    outer loop
      vertex -3.33334 5 -5
      vertex -3.22432 -2.48782 -5
      vertex -3.27187 -2.69615 -5
    endloop
  endfacet
  facet normal 0 0 -1
    outer loop
      vertex -3.33334 5 -5
      vertex -3.16353 -2.28297 -5
      vertex -3.22432 -2.48782 -5
    endloop
  endfacet
  facet normal 0 0 -1
    outer loop
      vertex -3.33334 5 -5
      vertex -3.08974 -2.08246 -5
      vertex -3.16353 -2.28297 -5
    endloop
  endfacet
  facet normal 0 0 -1
    outer loop
      vertex -3.33334 5 -5
      vertex -3.00323 -1.88705 -5
      vertex -3.08974 -2.08246 -5
    endloop
  endfacet
  facet normal 0 0 -1
    outer loop
      vertex -3.33334 5 -5
      vertex -2.9044 -1.69762 -5
      vertex -3.00323 -1.88705 -5
    endloop
  endfacet
  facet normal 0 0 -1
    outer loop
      vertex -3.33334 5 -5
      vertex -2.79364 -1.51489 -5
      vertex -2.9044 -1.69762 -5
    endloop
  endfacet
  facet normal 0 0 -1
    outer loop
      vertex -3.33334 5 -5
      vertex -2.67139 -1.33965 -5
      vertex -2.79364 -1.51489 -5
    endloop
  endfacet
  facet normal 0 0 -1
    outer loop
      vertex -3.33334 5 -5
      vertex -2.53816 -1.17258 -5
      vertex -2.67139 -1.33965 -5
    endloop
  endfacet
  facet normal 0 0 -1
    outer loop
      vertex -3.33334 5 -5
      vertex -2.3945 -1.0144 -5
      vertex -2.53816 -1.17258 -5
    endloop
  endfacet
  facet normal -0 0 -1
    outer loop
      vertex -2.07831 -0.727234 -5
      vertex -2.24101 -0.865753 -5
      vertex -3.33334 5 -5
    endloop
  endfacet
  facet normal -0 0 -1
    outer loop
      vertex -1.90706 -0.599426 -5
      vertex -2.07831 -0.727234 -5
      vertex -3.33334 5 -5
    endloop
  endfacet
  facet normal -0 0 -1
    outer loop
      vertex -1.72798 -0.482864 -5
      vertex -1.90706 -0.599426 -5
      vertex -3.33334 5 -5
    endloop
  endfacet
  facet normal -0 0 -1
    outer loop
      vertex -1.54181 -0.378006 -5
      vertex -1.72798 -0.482864 -5
      vertex -3.33334 5 -5
    endloop
  endfacet
  facet normal -0 0 -1
    outer loop
      vertex -1.34929 -0.285294 -5
      vertex -1.54181 -0.378006 -5
      vertex -3.33334 5 -5
    endloop
  endfacet
  facet normal -0 0 -1
    outer loop
      vertex -1.15123 -0.205109 -5
      vertex -1.34929 -0.285294 -5
      vertex -3.33334 5 -5
    endloop
  endfacet
  facet normal -0 0 -1
    outer loop
      vertex -0.948425 -0.137787 -5
      vertex -1.15123 -0.205109 -5
      vertex -3.33334 5 -5
    endloop
  endfacet
  facet normal -0 0 -1
    outer loop
      vertex -0.741745 -0.0835876 -5
      vertex -0.948425 -0.137787 -5
      vertex -3.33334 5 -5
    endloop
  endfacet
  facet normal -0 0 -1
    outer loop
      vertex -0.532013 -0.0427399 -5
      vertex -0.741745 -0.0835876 -5
      vertex -3.33334 5 -5
    endloop
  endfacet
  facet normal -0 0 -1
    outer loop
      vertex -0.320084 -0.0154114 -5
      vertex -0.532013 -0.0427399 -5
      vertex -3.33334 5 -5
    endloop
  endfacet
  facet normal -0 0 -1
    outer loop
      vertex -0.106842 -0.00172424 -5
      vertex -0.320084 -0.0154114 -5
      vertex -3.33334 5 -5
    endloop
  endfacet
  facet normal 0 0 -1
    outer loop
      vertex 0.106827 -0.00172424 -5
      vertex -0.106842 -0.00172424 -5
      vertex -3.33334 5 -5
    endloop
  endfacet
  facet normal -0 0 -1
    outer loop
      vertex 3.33333 5 -5
      vertex 0.106827 -0.00172424 -5
      vertex -3.33334 5 -5
    endloop
  endfacet
  facet normal 0 0 -1
    outer loop
      vertex 3.33333 5 -5
      vertex 0.320068 -0.0154114 -5
      vertex 0.106827 -0.00172424 -5
    endloop
  endfacet
  facet normal 0 0 -1
    outer loop
      vertex 3.33333 5 -5
      vertex 0.531998 -0.0427399 -5
      vertex 0.320068 -0.0154114 -5
    endloop
  endfacet
  facet normal 0 0 -1
    outer loop
      vertex 3.33333 5 -5
      vertex 0.74173 -0.0835876 -5
      vertex 0.531998 -0.0427399 -5
    endloop
  endfacet
  facet normal 0 0 -1
    outer loop
      vertex 3.33333 5 -5
      vertex 0.94841 -0.137787 -5
      vertex 0.74173 -0.0835876 -5
    endloop
  endfacet
  facet normal 0 0 -1
    outer loop
      vertex 3.33333 5 -5
      vertex 1.15121 -0.205109 -5
      vertex 0.94841 -0.137787 -5
    endloop
  endfacet
  facet normal 0 0 -1
    outer loop
      vertex 3.33333 5 -5
      vertex 1.34927 -0.285294 -5
      vertex 1.15121 -0.205109 -5
    endloop
  endfacet
  facet normal 0 0 -1
    outer loop
      vertex 3.33333 5 -5
      vertex 1.54179 -0.378006 -5
      vertex 1.34927 -0.285294 -5
    endloop
  endfacet
  facet normal 0 0 -1
    outer loop
      vertex 3.33333 5 -5
      vertex 1.72797 -0.482864 -5
      vertex 1.54179 -0.378006 -5
    endloop
  endfacet
  facet normal 0 0 -1
    outer loop
      vertex 3.33333 5 -5
      vertex 1.90704 -0.599426 -5
      vertex 1.72797 -0.482864 -5
    endloop
  endfacet
  facet normal 0 0 -1
    outer loop
      vertex 3.33333 5 -5
      vertex 2.07829 -0.727234 -5
      vertex 1.90704 -0.599426 -5
    endloop
  endfacet
  facet normal 0 0 -1
    outer loop
      vertex 3.33333 5 -5
      vertex 2.241 -0.865753 -5
      vertex 2.07829 -0.727234 -5
    endloop
  endfacet
  facet normal 0 0 -1
    outer loop
      vertex 3.33333 5 -5
      vertex 2.39449 -1.0144 -5
      vertex 2.241 -0.865753 -5
    endloop
  endfacet
  facet normal 0 0 -1
    outer loop
      vertex 3.33333 5 -5
      vertex 2.53815 -1.17258 -5
      vertex 2.39449 -1.0144 -5
    endloop
  endfacet
  facet normal 0 0 -1
    outer loop
      vertex 3.33333 5 -5
      vertex 2.67137 -1.33965 -5
      vertex 2.53815 -1.17258 -5
    endloop
  endfacet
  facet normal 0 0 -1
    outer loop
      vertex 3.33333 5 -5
      vertex 2.79362 -1.51489 -5
      vertex 2.67137 -1.33965 -5
    endloop
  endfacet
  facet normal 0 0 -1
    outer loop
      vertex 3.33333 5 -5
      vertex 2.90439 -1.69762 -5
      vertex 2.79362 -1.51489 -5
    endloop
  endfacet
  facet normal 0 0 -1
    outer loop
      vertex 3.33333 5 -5
      vertex 3.00322 -1.88705 -5
      vertex 2.90439 -1.69762 -5
    endloop
  endfacet
  facet normal 0 0 -1
    outer loop
      vertex 3.33333 5 -5
      vertex 3.08972 -2.08246 -5
      vertex 3.00322 -1.88705 -5
    endloop
  endfacet
  facet normal 0 0 -1
    outer loop
      vertex 3.33333 5 -5
      vertex 3.16351 -2.28297 -5
      vertex 3.08972 -2.08246 -5
    endloop
  endfacet
  facet normal 0 0 -1
    outer loop
      vertex 3.33333 5 -5
      vertex 3.2243 -2.48782 -5
      vertex 3.16351 -2.28297 -5
    endloop
  endfacet
  facet normal 0 0 -1
    outer loop
      vertex 3.33333 5 -5
      vertex 3.27185 -2.69615 -5
      vertex 3.2243 -2.48782 -5
    endloop
  endfacet
  facet normal 0 0 -1
    outer loop
      vertex 3.33333 5 -5
      vertex 3.30595 -2.90709 -5
      vertex 3.27185 -2.69615 -5
    endloop
  endfacet
  facet normal 0 0 -1
    outer loop
      vertex 3.33333 5 -5
      vertex 3.32648 -3.11977 -5
      vertex 3.30595 -2.90709 -5
    endloop
  endfacet
  facet normal 0 -0 1
    outer loop
      vertex -2.3945 -1.0144 5
      vertex -2.24101 -0.865753 5
      vertex -3.33334 5 5
    endloop
  endfacet
  facet normal -0 0 1
    outer loop
      vertex 3.32648 -3.11977 5
      vertex 3.33333 -3.33334 5
      vertex 3.33333 5 5
    endloop
  endfacet
  facet normal 0 0 1
    outer loop
      vertex -3.33334 -3.33334 5
      vertex -3.32649 -3.11977 5
      vertex -3.33334 5 5
    endloop
  endfacet
  facet normal 0 -0 1
    outer loop
      vertex -3.32649 -3.11977 5
      vertex -3.30597 -2.90709 5
      vertex -3.33334 5 5
    endloop
  endfacet
  facet normal 0 -0 1
    outer loop
      vertex -3.30597 -2.90709 5
      vertex -3.27187 -2.69615 5
      vertex -3.33334 5 5
    endloop
  endfacet
  facet normal 0 -0 1
    outer loop
      vertex -3.27187 -2.69615 5
      vertex -3.22432 -2.48782 5
      vertex -3.33334 5 5
    endloop
  endfacet
  facet normal 0 -0 1
    outer loop
      vertex -3.22432 -2.48782 5
      vertex -3.16353 -2.28297 5
      vertex -3.33334 5 5
    endloop
  endfacet
  facet normal 0 -0 1
    outer loop
      vertex -3.16353 -2.28297 5
      vertex -3.08974 -2.08246 5
      vertex -3.33334 5 5
    endloop
  endfacet
  facet normal 0 -0 1
    outer loop
      vertex -3.08974 -2.08246 5
      vertex -3.00323 -1.88705 5
      vertex -3.33334 5 5
    endloop
  endfacet
  facet normal 0 -0 1
    outer loop
      vertex -3.00323 -1.88705 5
      vertex -2.9044 -1.69762 5
      vertex -3.33334 5 5
    endloop
  endfacet
  facet normal 0 -0 1
    outer loop
      vertex -2.9044 -1.69762 5
      vertex -2.79364 -1.51489 5
      vertex -3.33334 5 5
    endloop
  endfacet
  facet normal 0 -0 1
    outer loop
      vertex -2.79364 -1.51489 5
      vertex -2.67139 -1.33965 5
      vertex -3.33334 5 5
    endloop
  endfacet
  facet normal 0 -0 1
    outer loop
      vertex -2.67139 -1.33965 5
      vertex -2.53816 -1.17258 5
      vertex -3.33334 5 5
    endloop
  endfacet
  facet normal 0 -0 1
    outer loop
      vertex -2.53816 -1.17258 5
      vertex -2.3945 -1.0144 5
      vertex -3.33334 5 5
    endloop
  endfacet
  facet normal 0 0 1
    outer loop
      vertex -3.33334 5 5
      vertex -2.24101 -0.865753 5
      vertex -2.07831 -0.727234 5
    endloop
  endfacet
  facet normal 0 0 1
    outer loop
      vertex -3.33334 5 5
      vertex -2.07831 -0.727234 5
      vertex -1.90706 -0.599426 5
    endloop
  endfacet
  facet normal 0 0 1
    outer loop
      vertex -3.33334 5 5
      vertex -1.90706 -0.599426 5
      vertex -1.72798 -0.482864 5
    endloop
  endfacet
  facet normal 0 0 1
    outer loop
      vertex -3.33334 5 5
      vertex -1.72798 -0.482864 5
      vertex -1.54181 -0.378006 5
    endloop
  endfacet
  facet normal 0 0 1
    outer loop
      vertex -3.33334 5 5
      vertex -1.54181 -0.378006 5
      vertex -1.34929 -0.285294 5
    endloop
  endfacet
  facet normal 0 0 1
    outer loop
      vertex -3.33334 5 5
      vertex -1.34929 -0.285294 5
      vertex -1.15123 -0.205109 5
    endloop
  endfacet
  facet normal 0 0 1
    outer loop
      vertex -3.33334 5 5
      vertex -1.15123 -0.205109 5
      vertex -0.948425 -0.137787 5
    endloop
  endfacet
  facet normal 0 0 1
    outer loop
      vertex -3.33334 5 5
      vertex -0.948425 -0.137787 5
      vertex -0.741745 -0.0835876 5
    endloop
  endfacet
  facet normal 0 0 1
    outer loop
      vertex -3.33334 5 5
      vertex -0.741745 -0.0835876 5
      vertex -0.532013 -0.0427399 5
    endloop
  endfacet
  facet normal 0 0 1
    outer loop
      vertex -3.33334 5 5
      vertex -0.532013 -0.0427399 5
      vertex -0.320084 -0.0154114 5
    endloop
  endfacet
  facet normal 0 0 1
    outer loop
      vertex -3.33334 5 5
      vertex -0.320084 -0.0154114 5
      vertex -0.106842 -0.00172424 5
    endloop
  endfacet
  facet normal 0 0 1
    outer loop
      vertex -3.33334 5 5
      vertex -0.106842 -0.00172424 5
      vertex 0.106827 -0.00172424 5
    endloop
  endfacet
  facet normal -0 0 1
    outer loop
      vertex -3.33334 5 5
      vertex 0.106827 -0.00172424 5
      vertex 3.33333 5 5
    endloop
  endfacet
  facet normal -0 0 1
    outer loop
      vertex 0.106827 -0.00172424 5
      vertex 0.320068 -0.0154114 5
      vertex 3.33333 5 5
    endloop
  endfacet
  facet normal -0 0 1
    outer loop
      vertex 0.320068 -0.0154114 5
      vertex 0.531998 -0.0427399 5
      vertex 3.33333 5 5
    endloop
  endfacet
  facet normal -0 0 1
    outer loop
      vertex 0.531998 -0.0427399 5
      vertex 0.74173 -0.0835876 5
      vertex 3.33333 5 5
    endloop
  endfacet
  facet normal -0 0 1
    outer loop
      vertex 0.74173 -0.0835876 5
      vertex 0.94841 -0.137787 5
      vertex 3.33333 5 5
    endloop
  endfacet
  facet normal -0 0 1
    outer loop
      vertex 0.94841 -0.137787 5
      vertex 1.15121 -0.205109 5
      vertex 3.33333 5 5
    endloop
  endfacet
  facet normal -0 0 1
    outer loop
      vertex 1.15121 -0.205109 5
      vertex 1.34927 -0.285294 5
      vertex 3.33333 5 5
    endloop
  endfacet
  facet normal -0 0 1
    outer loop
      vertex 1.34927 -0.285294 5
      vertex 1.54179 -0.378006 5
      vertex 3.33333 5 5
    endloop
  endfacet
  facet normal -0 0 1
    outer loop
      vertex 1.54179 -0.378006 5
      vertex 1.72797 -0.482864 5
      vertex 3.33333 5 5
    endloop
  endfacet
  facet normal -0 0 1
    outer loop
      vertex 1.72797 -0.482864 5
      vertex 1.90704 -0.599426 5
      vertex 3.33333 5 5
    endloop
  endfacet
  facet normal -0 0 1
    outer loop
      vertex 1.90704 -0.599426 5
      vertex 2.07829 -0.727234 5
      vertex 3.33333 5 5
    endloop
  endfacet
  facet normal -0 0 1
    outer loop
      vertex 2.07829 -0.727234 5
      vertex 2.241 -0.865753 5
      vertex 3.33333 5 5
    endloop
  endfacet
  facet normal -0 0 1
    outer loop
      vertex 2.241 -0.865753 5
      vertex 2.39449 -1.0144 5
      vertex 3.33333 5 5
    endloop
  endfacet
  facet normal -0 0 1
    outer loop
      vertex 2.39449 -1.0144 5
      vertex 2.53815 -1.17258 5
      vertex 3.33333 5 5
    endloop
  endfacet
  facet normal -0 0 1
    outer loop
      vertex 2.53815 -1.17258 5
      vertex 2.67137 -1.33965 5
      vertex 3.33333 5 5
    endloop
  endfacet
  facet normal -0 0 1
    outer loop
      vertex 2.67137 -1.33965 5
      vertex 2.79362 -1.51489 5
      vertex 3.33333 5 5
    endloop
  endfacet
  facet normal -0 0 1
    outer loop
      vertex 2.79362 -1.51489 5
      vertex 2.90439 -1.69762 5
      vertex 3.33333 5 5
    endloop
  endfacet
  facet normal -0 0 1
    outer loop
      vertex 2.90439 -1.69762 5
      vertex 3.00322 -1.88705 5
      vertex 3.33333 5 5
    endloop
  endfacet
  facet normal -0 0 1
    outer loop
      vertex 3.00322 -1.88705 5
      vertex 3.08972 -2.08246 5
      vertex 3.33333 5 5
    endloop
  endfacet
  facet normal -0 0 1
    outer loop
      vertex 3.08972 -2.08246 5
      vertex 3.16351 -2.28297 5
      vertex 3.33333 5 5
    endloop
  endfacet
  facet normal -0 0 1
    outer loop
      vertex 3.16351 -2.28297 5
      vertex 3.2243 -2.48782 5
      vertex 3.33333 5 5
    endloop
  endfacet
  facet normal -0 0 1
    outer loop
      vertex 3.2243 -2.48782 5
      vertex 3.27185 -2.69615 5
      vertex 3.33333 5 5
    endloop
  endfacet
  facet normal -0 0 1
    outer loop
      vertex 3.27185 -2.69615 5
      vertex 3.30595 -2.90709 5
      vertex 3.33333 5 5
    endloop
  endfacet
  facet normal -0 0 1
    outer loop
      vertex 3.30595 -2.90709 5
      vertex 3.32648 -3.11977 5
      vertex 3.33333 5 5
    endloop
  endfacet
  facet normal 0 1 0
    outer loop
      vertex -3.33334 5 -5
      vertex 3.33333 5 5
      vertex 3.33333 5 -5
    endloop
  endfacet
  facet normal 0 1 0
    outer loop
      vertex -3.33334 5 -5
      vertex -3.33334 5 5
      vertex 3.33333 5 5
    endloop
  endfacet
  facet normal -1 0 0
    outer loop
      vertex -3.33334 -3.33334 -5
      vertex -3.33334 5 5
      vertex -3.33334 5 -5
    endloop
  endfacet
  facet normal -1 0 0
    outer loop
      vertex -3.33334 -3.33334 -5
      vertex -3.33334 -3.33334 5
      vertex -3.33334 5 5
    endloop
  endfacet
  facet normal 0.999486 -0.0320573 0
    outer loop
      vertex -3.32649 -3.11977 -5
      vertex -3.33334 -3.33334 5
      vertex -3.33334 -3.33334 -5
    endloop
  endfacet
  facet normal 0.999486 -0.0320573 0
    outer loop
      vertex -3.32649 -3.11977 -5
      vertex -3.32649 -3.11977 5
      vertex -3.33334 -3.33334 5
    endloop
  endfacet
  facet normal 0.995378 -0.096037 0
    outer loop
      vertex -3.30597 -2.90709 -5
      vertex -3.32649 -3.11977 5
      vertex -3.32649 -3.11977 -5
    endloop
  endfacet
  facet normal 0.995378 -0.096037 0
    outer loop
      vertex -3.30597 -2.90709 -5
      vertex -3.30597 -2.90709 5
      vertex -3.32649 -3.11977 5
    endloop
  endfacet
  facet normal 0.987184 -0.159586 0
    outer loop
      vertex -3.27187 -2.69615 -5
      vertex -3.30597 -2.90709 5
      vertex -3.30597 -2.90709 -5
    endloop
  endfacet
  facet normal 0.987184 -0.159586 0
    outer loop
      vertex -3.27187 -2.69615 -5
      vertex -3.27187 -2.69615 5
      vertex -3.30597 -2.90709 5
    endloop
  endfacet
  facet normal 0.974928 -0.222521 0
    outer loop
      vertex -3.22432 -2.48782 -5
      vertex -3.27187 -2.69615 5
      vertex -3.27187 -2.69615 -5
    endloop
  endfacet
  facet normal 0.974928 -0.222521 0
    outer loop
      vertex -3.22432 -2.48782 -5
      vertex -3.22432 -2.48782 5
      vertex -3.27187 -2.69615 5
    endloop
  endfacet
  facet normal 0.958679 -0.284491 0
    outer loop
      vertex -3.16353 -2.28297 -5
      vertex -3.22432 -2.48782 5
      vertex -3.22432 -2.48782 -5
    endloop
  endfacet
  facet normal 0.958679 -0.284491 0
    outer loop
      vertex -3.16353 -2.28297 -5
      vertex -3.16353 -2.28297 5
      vertex -3.22432 -2.48782 5
    endloop
  endfacet
  facet normal 0.938468 -0.345367 0
    outer loop
      vertex -3.08974 -2.08246 -5
      vertex -3.16353 -2.28297 5
      vertex -3.16353 -2.28297 -5
    endloop
  endfacet
  facet normal 0.938468 -0.345367 0
    outer loop
      vertex -3.08974 -2.08246 -5
      vertex -3.08974 -2.08246 5
      vertex -3.16353 -2.28297 5
    endloop
  endfacet
  facet normal 0.914399 -0.404814 0
    outer loop
      vertex -3.00323 -1.88705 -5
      vertex -3.08974 -2.08246 5
      vertex -3.08974 -2.08246 -5
    endloop
  endfacet
  facet normal 0.914399 -0.404814 0
    outer loop
      vertex -3.00323 -1.88705 -5
      vertex -3.00323 -1.88705 5
      vertex -3.08974 -2.08246 5
    endloop
  endfacet
  facet normal 0.886591 -0.462555 0
    outer loop
      vertex -2.9044 -1.69762 -5
      vertex -3.00323 -1.88705 5
      vertex -3.00323 -1.88705 -5
    endloop
  endfacet
  facet normal 0.886591 -0.462555 0
    outer loop
      vertex -2.9044 -1.69762 -5
      vertex -2.9044 -1.69762 5
      vertex -3.00323 -1.88705 5
    endloop
  endfacet
  facet normal 0.855168 -0.518352 0
    outer loop
      vertex -2.79364 -1.51489 -5
      vertex -2.9044 -1.69762 5
      vertex -2.9044 -1.69762 -5
    endloop
  endfacet
  facet normal 0.855168 -0.518352 0
    outer loop
      vertex -2.79364 -1.51489 -5
      vertex -2.79364 -1.51489 5
      vertex -2.9044 -1.69762 5
    endloop
  endfacet
  facet normal 0.82015 -0.572149 0
    outer loop
      vertex -2.67139 -1.33965 -5
      vertex -2.79364 -1.51489 5
      vertex -2.79364 -1.51489 -5
    endloop
  endfacet
  facet normal 0.82015 -0.572149 0
    outer loop
      vertex -2.67139 -1.33965 -5
      vertex -2.67139 -1.33965 5
      vertex -2.79364 -1.51489 5
    endloop
  endfacet
  facet normal 0.78184 -0.623479 0
    outer loop
      vertex -2.53816 -1.17258 -5
      vertex -2.67139 -1.33965 5
      vertex -2.67139 -1.33965 -5
    endloop
  endfacet
  facet normal 0.78184 -0.623479 0
    outer loop
      vertex -2.53816 -1.17258 -5
      vertex -2.53816 -1.17258 5
      vertex -2.67139 -1.33965 5
    endloop
  endfacet
  facet normal 0.740266 -0.672314 0
    outer loop
      vertex -2.3945 -1.0144 -5
      vertex -2.53816 -1.17258 5
      vertex -2.53816 -1.17258 -5
    endloop
  endfacet
  facet normal 0.740266 -0.672314 0
    outer loop
      vertex -2.3945 -1.0144 -5
      vertex -2.3945 -1.0144 5
      vertex -2.53816 -1.17258 5
    endloop
  endfacet
  facet normal 0.695683 -0.718349 0
    outer loop
      vertex -2.24101 -0.865753 -5
      vertex -2.3945 -1.0144 5
      vertex -2.3945 -1.0144 -5
    endloop
  endfacet
  facet normal 0.695683 -0.718349 0
    outer loop
      vertex -2.24101 -0.865753 -5
      vertex -2.24101 -0.865753 5
      vertex -2.3945 -1.0144 5
    endloop
  endfacet
  facet normal 0.648257 -0.761422 0
    outer loop
      vertex -2.07831 -0.727234 -5
      vertex -2.24101 -0.865753 5
      vertex -2.24101 -0.865753 -5
    endloop
  endfacet
  facet normal 0.648257 -0.761422 0
    outer loop
      vertex -2.07831 -0.727234 -5
      vertex -2.07831 -0.727234 5
      vertex -2.24101 -0.865753 5
    endloop
  endfacet
  facet normal 0.598113 -0.801412 0
    outer loop
      vertex -1.90706 -0.599426 -5
      vertex -2.07831 -0.727234 5
      vertex -2.07831 -0.727234 -5
    endloop
  endfacet
  facet normal 0.598113 -0.801412 0
    outer loop
      vertex -1.90706 -0.599426 -5
      vertex -1.90706 -0.599426 5
      vertex -2.07831 -0.727234 5
    endloop
  endfacet
  facet normal 0.545515 -0.838101 0
    outer loop
      vertex -1.72798 -0.482864 -5
      vertex -1.90706 -0.599426 5
      vertex -1.90706 -0.599426 -5
    endloop
  endfacet
  facet normal 0.545515 -0.838101 0
    outer loop
      vertex -1.72798 -0.482864 -5
      vertex -1.72798 -0.482864 5
      vertex -1.90706 -0.599426 5
    endloop
  endfacet
  facet normal 0.49075 -0.871301 0
    outer loop
      vertex -1.54181 -0.378006 -5
      vertex -1.72798 -0.482864 5
      vertex -1.72798 -0.482864 -5
    endloop
  endfacet
  facet normal 0.49075 -0.871301 0
    outer loop
      vertex -1.54181 -0.378006 -5
      vertex -1.54181 -0.378006 5
      vertex -1.72798 -0.482864 5
    endloop
  endfacet
  facet normal 0.433881 -0.90097 0
    outer loop
      vertex -1.34929 -0.285294 -5
      vertex -1.54181 -0.378006 5
      vertex -1.54181 -0.378006 -5
    endloop
  endfacet
  facet normal 0.433881 -0.90097 0
    outer loop
      vertex -1.34929 -0.285294 -5
      vertex -1.34929 -0.285294 5
      vertex -1.54181 -0.378006 5
    endloop
  endfacet
  facet normal 0.375265 -0.926918 0
    outer loop
      vertex -1.15123 -0.205109 -5
      vertex -1.34929 -0.285294 5
      vertex -1.34929 -0.285294 -5
    endloop
  endfacet
  facet normal 0.375265 -0.926918 0
    outer loop
      vertex -1.15123 -0.205109 -5
      vertex -1.15123 -0.205109 5
      vertex -1.34929 -0.285294 5
    endloop
  endfacet
  facet normal 0.31505 -0.949075 0
    outer loop
      vertex -0.948425 -0.137787 -5
      vertex -1.15123 -0.205109 5
      vertex -1.15123 -0.205109 -5
    endloop
  endfacet
  facet normal 0.31505 -0.949075 0
    outer loop
      vertex -0.948425 -0.137787 -5
      vertex -0.948425 -0.137787 5
      vertex -1.15123 -0.205109 5
    endloop
  endfacet
  facet normal 0.253661 -0.967293 0
    outer loop
      vertex -0.741745 -0.0835876 -5
      vertex -0.948425 -0.137787 5
      vertex -0.948425 -0.137787 -5
    endloop
  endfacet
  facet normal 0.253661 -0.967293 0
    outer loop
      vertex -0.741745 -0.0835876 -5
      vertex -0.741745 -0.0835876 5
      vertex -0.948425 -0.137787 5
    endloop
  endfacet
  facet normal 0.191169 -0.981557 0
    outer loop
      vertex -0.532013 -0.0427399 -5
      vertex -0.741745 -0.0835876 5
      vertex -0.741745 -0.0835876 -5
    endloop
  endfacet
  facet normal 0.191169 -0.981557 0
    outer loop
      vertex -0.532013 -0.0427399 -5
      vertex -0.532013 -0.0427399 5
      vertex -0.741745 -0.0835876 5
    endloop
  endfacet
  facet normal 0.127892 -0.991788 0
    outer loop
      vertex -0.320084 -0.0154114 -5
      vertex -0.532013 -0.0427399 5
      vertex -0.532013 -0.0427399 -5
    endloop
  endfacet
  facet normal 0.127892 -0.991788 0
    outer loop
      vertex -0.320084 -0.0154114 -5
      vertex -0.320084 -0.0154114 5
      vertex -0.532013 -0.0427399 5
    endloop
  endfacet
  facet normal 0.0640542 -0.997946 0
    outer loop
      vertex -0.106842 -0.00172424 -5
      vertex -0.320084 -0.0154114 5
      vertex -0.320084 -0.0154114 -5
    endloop
  endfacet
  facet normal 0.0640542 -0.997946 0
    outer loop
      vertex -0.106842 -0.00172424 -5
      vertex -0.106842 -0.00172424 5
      vertex -0.320084 -0.0154114 5
    endloop
  endfacet
  facet normal 0 -1 0
    outer loop
      vertex 0.106827 -0.00172424 -5
      vertex -0.106842 -0.00172424 5
      vertex -0.106842 -0.00172424 -5
    endloop
  endfacet
  facet normal 0 -1 0
    outer loop
      vertex 0.106827 -0.00172424 -5
      vertex 0.106827 -0.00172424 5
      vertex -0.106842 -0.00172424 5
    endloop
  endfacet
  facet normal -0.0640545 -0.997946 0
    outer loop
      vertex 0.320068 -0.0154114 -5
      vertex 0.106827 -0.00172424 5
      vertex 0.106827 -0.00172424 -5
    endloop
  endfacet
  facet normal -0.0640545 -0.997946 0
    outer loop
      vertex 0.320068 -0.0154114 -5
      vertex 0.320068 -0.0154114 5
      vertex 0.106827 -0.00172424 5
    endloop
  endfacet
  facet normal -0.127892 -0.991788 0
    outer loop
      vertex 0.531998 -0.0427399 -5
      vertex 0.320068 -0.0154114 5
      vertex 0.320068 -0.0154114 -5
    endloop
  endfacet
  facet normal -0.127892 -0.991788 0
    outer loop
      vertex 0.531998 -0.0427399 -5
      vertex 0.531998 -0.0427399 5
      vertex 0.320068 -0.0154114 5
    endloop
  endfacet
  facet normal -0.191169 -0.981557 0
    outer loop
      vertex 0.74173 -0.0835876 -5
      vertex 0.531998 -0.0427399 5
      vertex 0.531998 -0.0427399 -5
    endloop
  endfacet
  facet normal -0.191169 -0.981557 0
    outer loop
      vertex 0.74173 -0.0835876 -5
      vertex 0.74173 -0.0835876 5
      vertex 0.531998 -0.0427399 5
    endloop
  endfacet
  facet normal -0.253661 -0.967293 0
    outer loop
      vertex 0.94841 -0.137787 -5
      vertex 0.74173 -0.0835876 5
      vertex 0.74173 -0.0835876 -5
    endloop
  endfacet
  facet normal -0.253661 -0.967293 0
    outer loop
      vertex 0.94841 -0.137787 -5
      vertex 0.94841 -0.137787 5
      vertex 0.74173 -0.0835876 5
    endloop
  endfacet
  facet normal -0.315057 -0.949073 0
    outer loop
      vertex 1.15121 -0.205109 -5
      vertex 0.94841 -0.137787 5
      vertex 0.94841 -0.137787 -5
    endloop
  endfacet
  facet normal -0.315057 -0.949073 0
    outer loop
      vertex 1.15121 -0.205109 -5
      vertex 1.15121 -0.205109 5
      vertex 0.94841 -0.137787 5
    endloop
  endfacet
  facet normal -0.375265 -0.926918 0
    outer loop
      vertex 1.34927 -0.285294 -5
      vertex 1.15121 -0.205109 5
      vertex 1.15121 -0.205109 -5
    endloop
  endfacet
  facet normal -0.375265 -0.926918 0
    outer loop
      vertex 1.34927 -0.285294 -5
      vertex 1.34927 -0.285294 5
      vertex 1.15121 -0.205109 5
    endloop
  endfacet
  facet normal -0.433881 -0.90097 0
    outer loop
      vertex 1.54179 -0.378006 -5
      vertex 1.34927 -0.285294 5
      vertex 1.34927 -0.285294 -5
    endloop
  endfacet
  facet normal -0.433881 -0.90097 0
    outer loop
      vertex 1.54179 -0.378006 -5
      vertex 1.54179 -0.378006 5
      vertex 1.34927 -0.285294 5
    endloop
  endfacet
  facet normal -0.49073 -0.871312 0
    outer loop
      vertex 1.72797 -0.482864 -5
      vertex 1.54179 -0.378006 5
      vertex 1.54179 -0.378006 -5
    endloop
  endfacet
  facet normal -0.49073 -0.871312 0
    outer loop
      vertex 1.72797 -0.482864 -5
      vertex 1.72797 -0.482864 5
      vertex 1.54179 -0.378006 5
    endloop
  endfacet
  facet normal -0.545536 -0.838087 0
    outer loop
      vertex 1.90704 -0.599426 -5
      vertex 1.72797 -0.482864 5
      vertex 1.72797 -0.482864 -5
    endloop
  endfacet
  facet normal -0.545536 -0.838087 0
    outer loop
      vertex 1.90704 -0.599426 -5
      vertex 1.90704 -0.599426 5
      vertex 1.72797 -0.482864 5
    endloop
  endfacet
  facet normal -0.598113 -0.801412 0
    outer loop
      vertex 2.07829 -0.727234 -5
      vertex 1.90704 -0.599426 5
      vertex 1.90704 -0.599426 -5
    endloop
  endfacet
  facet normal -0.598113 -0.801412 0
    outer loop
      vertex 2.07829 -0.727234 -5
      vertex 2.07829 -0.727234 5
      vertex 1.90704 -0.599426 5
    endloop
  endfacet
  facet normal -0.648234 -0.761441 0
    outer loop
      vertex 2.241 -0.865753 -5
      vertex 2.07829 -0.727234 5
      vertex 2.07829 -0.727234 -5
    endloop
  endfacet
  facet normal -0.648234 -0.761441 0
    outer loop
      vertex 2.241 -0.865753 -5
      vertex 2.241 -0.865753 5
      vertex 2.07829 -0.727234 5
    endloop
  endfacet
  facet normal -0.695683 -0.718349 0
    outer loop
      vertex 2.39449 -1.0144 -5
      vertex 2.241 -0.865753 5
      vertex 2.241 -0.865753 -5
    endloop
  endfacet
  facet normal -0.695683 -0.718349 0
    outer loop
      vertex 2.39449 -1.0144 -5
      vertex 2.39449 -1.0144 5
      vertex 2.241 -0.865753 5
    endloop
  endfacet
  facet normal -0.740266 -0.672314 0
    outer loop
      vertex 2.53815 -1.17258 -5
      vertex 2.39449 -1.0144 5
      vertex 2.39449 -1.0144 -5
    endloop
  endfacet
  facet normal -0.740266 -0.672314 0
    outer loop
      vertex 2.53815 -1.17258 -5
      vertex 2.53815 -1.17258 5
      vertex 2.39449 -1.0144 5
    endloop
  endfacet
  facet normal -0.781863 -0.62345 0
    outer loop
      vertex 2.67137 -1.33965 -5
      vertex 2.53815 -1.17258 5
      vertex 2.53815 -1.17258 -5
    endloop
  endfacet
  facet normal -0.781863 -0.62345 0
    outer loop
      vertex 2.67137 -1.33965 -5
      vertex 2.67137 -1.33965 5
      vertex 2.53815 -1.17258 5
    endloop
  endfacet
  facet normal -0.82015 -0.572149 0
    outer loop
      vertex 2.79362 -1.51489 -5
      vertex 2.67137 -1.33965 5
      vertex 2.67137 -1.33965 -5
    endloop
  endfacet
  facet normal -0.82015 -0.572149 0
    outer loop
      vertex 2.79362 -1.51489 -5
      vertex 2.79362 -1.51489 5
      vertex 2.67137 -1.33965 5
    endloop
  endfacet
  facet normal -0.855147 -0.518386 0
    outer loop
      vertex 2.90439 -1.69762 -5
      vertex 2.79362 -1.51489 5
      vertex 2.79362 -1.51489 -5
    endloop
  endfacet
  facet normal -0.855147 -0.518386 0
    outer loop
      vertex 2.90439 -1.69762 -5
      vertex 2.90439 -1.69762 5
      vertex 2.79362 -1.51489 5
    endloop
  endfacet
  facet normal -0.886591 -0.462555 0
    outer loop
      vertex 3.00322 -1.88705 -5
      vertex 2.90439 -1.69762 5
      vertex 2.90439 -1.69762 -5
    endloop
  endfacet
  facet normal -0.886591 -0.462555 0
    outer loop
      vertex 3.00322 -1.88705 -5
      vertex 3.00322 -1.88705 5
      vertex 2.90439 -1.69762 5
    endloop
  endfacet
  facet normal -0.914416 -0.404775 0
    outer loop
      vertex 3.08972 -2.08246 -5
      vertex 3.00322 -1.88705 5
      vertex 3.00322 -1.88705 -5
    endloop
  endfacet
  facet normal -0.914416 -0.404775 0
    outer loop
      vertex 3.08972 -2.08246 -5
      vertex 3.08972 -2.08246 5
      vertex 3.00322 -1.88705 5
    endloop
  endfacet
  facet normal -0.938468 -0.345367 0
    outer loop
      vertex 3.16351 -2.28297 -5
      vertex 3.08972 -2.08246 5
      vertex 3.08972 -2.08246 -5
    endloop
  endfacet
  facet normal -0.938468 -0.345367 0
    outer loop
      vertex 3.16351 -2.28297 -5
      vertex 3.16351 -2.28297 5
      vertex 3.08972 -2.08246 5
    endloop
  endfacet
  facet normal -0.958679 -0.284491 0
    outer loop
      vertex 3.2243 -2.48782 -5
      vertex 3.16351 -2.28297 5
      vertex 3.16351 -2.28297 -5
    endloop
  endfacet
  facet normal -0.958679 -0.284491 0
    outer loop
      vertex 3.2243 -2.48782 -5
      vertex 3.2243 -2.48782 5
      vertex 3.16351 -2.28297 5
    endloop
  endfacet
  facet normal -0.974928 -0.222521 0
    outer loop
      vertex 3.27185 -2.69615 -5
      vertex 3.2243 -2.48782 5
      vertex 3.2243 -2.48782 -5
    endloop
  endfacet
  facet normal -0.974928 -0.222521 0
    outer loop
      vertex 3.27185 -2.69615 -5
      vertex 3.27185 -2.69615 5
      vertex 3.2243 -2.48782 5
    endloop
  endfacet
  facet normal -0.987184 -0.159586 0
    outer loop
      vertex 3.30595 -2.90709 -5
      vertex 3.27185 -2.69615 5
      vertex 3.27185 -2.69615 -5
    endloop
  endfacet
  facet normal -0.987184 -0.159586 0
    outer loop
      vertex 3.30595 -2.90709 -5
      vertex 3.30595 -2.90709 5
      vertex 3.27185 -2.69615 5
    endloop
  endfacet
  facet normal -0.995373 -0.0960834 0
    outer loop
      vertex 3.32648 -3.11977 -5
      vertex 3.30595 -2.90709 5
      vertex 3.30595 -2.90709 -5
    endloop
  endfacet
  facet normal -0.995373 -0.0960834 0
    outer loop
      vertex 3.32648 -3.11977 -5
      vertex 3.32648 -3.11977 5
      vertex 3.30595 -2.90709 5
    endloop
  endfacet
  facet normal -0.999486 -0.0320573 0
    outer loop
      vertex 3.33333 -3.33334 -5
      vertex 3.32648 -3.11977 5
      vertex 3.32648 -3.11977 -5
    endloop
  endfacet
  facet normal -0.999486 -0.0320573 0
    outer loop
      vertex 3.33333 -3.33334 -5
      vertex 3.33333 -3.33334 5
      vertex 3.32648 -3.11977 5
    endloop
  endfacet
  facet normal 1 0 0
    outer loop
      vertex 3.33333 5 -5
      vertex 3.33333 -3.33334 5
      vertex 3.33333 -3.33334 -5
    endloop
  endfacet
  facet normal 1 0 -0
    outer loop
      vertex 3.33333 5 -5
      vertex 3.33333 5 5
      vertex 3.33333 -3.33334 5
    endloop
  endfacet
endsolid OpenSCAD_Model
